<svg width="146" height="249" viewBox="0 0 146 249" fill="none" xmlns="http://www.w3.org/2000/svg">
<path d="M5.08344 33.3093C29.5762 42.704 88.3984 58.6314 127.745 47.1832C176.928 32.8729 198.658 19.7937 177.515 7.59357C156.372 -4.60659 110.745 35.3041 100.738 58.3975C89.0238 85.4321 95.0145 110.672 154.858 87.2012C214.701 63.7303 178.133 63.5345 157.319 74.2672C123.508 91.7016 92.0051 136.351 120.416 147.352C148.827 158.353 216.348 138.925 221.722 110.684C227.096 82.4426 128.753 135.598 132.243 161.653C135.732 187.708 138.747 216.255 176.523 210.102C214.299 203.95 267.528 175.777 252.272 164.697C237.017 153.618 167.817 211.458 178.963 244.134" stroke="#0CE9CA" stroke-width="9" stroke-linecap="round"/>
</svg>
