<svg width="334" height="321" viewBox="0 0 334 321" fill="none" xmlns="http://www.w3.org/2000/svg">
<path d="M4.80379 41.544C36.6159 53.7538 113.018 74.4488 164.131 59.5507C228.021 40.928 256.251 23.9141 228.791 8.05525C201.33 -7.80358 142.052 44.1082 129.047 74.1411C113.823 109.3 121.598 142.119 199.337 111.581C277.077 81.0436 229.578 80.7993 202.538 94.7617C158.615 117.442 117.681 175.513 154.582 189.81C191.483 204.108 279.195 178.825 286.184 142.099C293.172 105.373 165.416 174.523 169.941 208.403C174.466 242.283 178.374 279.404 227.444 271.393C276.515 263.382 345.665 226.732 325.852 212.328C306.039 197.925 216.136 273.158 230.605 315.647" stroke="#7594E6" stroke-width="9" stroke-linecap="round"/>
</svg>
