<svg width="229" height="211" viewBox="0 0 229 211" fill="none" xmlns="http://www.w3.org/2000/svg">
<path fill-rule="evenodd" clip-rule="evenodd" d="M200.439 31.5017C179.462 9.98217 149.653 -0.33356 119.579 0.00821819C89.8516 0.346052 62.1967 12.9852 40.5382 33.3189C18.1172 54.3683 0.833205 81.5197 0.0365967 112.238C-0.777948 143.648 12.0258 175.401 36.3362 195.352C57.1943 212.47 85.3982 211.504 112.616 210.572C114.946 210.492 117.269 210.412 119.579 210.344C120.526 210.317 121.474 210.289 122.424 210.262C149.6 209.484 177.897 208.674 198.058 190.596C219.804 171.095 228.546 141.419 228.983 112.238C229.427 82.5723 221.165 52.7623 200.439 31.5017ZM172.326 56.0269C157.717 42.87 136.693 42.3783 117.063 43.2911C98.595 44.1499 79.221 47.3153 66.7066 60.9385C55.4333 73.2105 55.0296 90.6391 54.6405 107.438C54.6102 108.746 54.5799 110.051 54.5447 111.349C54.4858 113.515 54.4006 115.704 54.3149 117.903C53.6603 134.712 52.982 152.128 63.8913 164.577C76.7263 179.224 97.673 184.379 117.063 182.693C135.012 181.133 148.631 168.446 161.738 156.071C162.655 155.206 163.579 154.339 164.505 153.471C177.41 141.369 190.78 128.831 192.63 111.349C194.78 91.0392 187.493 69.6865 172.326 56.0269Z" fill="#927FFF"/>
</svg>
