<svg width="107" height="44" viewBox="0 0 107 44" fill="none" xmlns="http://www.w3.org/2000/svg">
<path d="M7.07107 12.2889L6.63824 13.2248C5.99722 14.7113 5.32345 15.8704 4.61694 16.7021C3.92874 17.5131 3.25647 17.9384 2.6001 17.9779C2.24268 17.9994 1.85167 17.7882 1.42709 17.3441C0.995231 16.8875 0.7484 16.1457 0.686599 15.119C0.634186 14.2481 0.757612 12.9395 1.05688 11.1931C1.30915 9.74959 1.4232 8.71874 1.39904 8.10059C1.52597 7.82554 1.73241 7.67941 2.01835 7.6622C2.21331 7.65046 2.37338 7.70931 2.49857 7.83874C2.63065 7.97428 2.70119 8.11679 2.71019 8.26625C2.73561 8.68867 2.62005 9.31523 2.36351 10.1459C1.84627 11.8468 1.62363 13.295 1.6956 14.4908C1.76953 15.719 2.13468 16.3134 2.79104 16.2739C3.44091 16.2348 4.18691 15.6257 5.02905 14.4467C5.84677 13.2952 6.52839 11.7247 7.07391 9.73525C7.28926 8.97876 7.47172 8.4884 7.62128 8.26416C7.73497 8.09427 7.8958 8.00306 8.10376 7.99054C8.25323 7.98155 8.36319 8.02058 8.43365 8.10765C8.50373 8.18822 8.54619 8.35198 8.56106 8.59893C8.55925 8.67731 8.51445 8.90828 8.42666 9.29185C8.12216 10.8429 8.01079 12.2975 8.09254 13.6557C8.19384 15.3389 8.53633 16.4238 9.12001 16.9104C9.20269 16.9837 9.26893 17.0548 9.31872 17.1235C9.37462 17.1854 9.41005 17.2321 9.425 17.2639C9.44645 17.2952 9.45737 17.3141 9.45776 17.3206C9.46324 17.4116 9.37832 17.5178 9.20301 17.6392C8.98377 17.7894 8.78967 17.8695 8.6207 17.8797C8.27627 17.9004 7.96565 17.6158 7.68882 17.0259C7.38169 16.3661 7.18745 15.3603 7.1061 14.0086L7.08556 13.6674C7.0793 13.5635 7.0761 13.456 7.07595 13.3452L7.07107 12.2889ZM20.4851 7.43121C20.5618 7.29616 20.6673 7.20827 20.8019 7.16757C20.9429 7.12647 21.0779 7.14769 21.2068 7.23124C21.3419 7.3079 21.4263 7.41044 21.4601 7.53884L21.5345 7.79852C21.5856 7.99763 21.6223 8.17478 21.6447 8.32997C21.6667 8.47865 21.7025 8.80261 21.7521 9.30183C21.7818 9.79573 21.8051 10.1824 21.8219 10.4618C21.8309 10.6113 21.8405 10.7705 21.8507 10.9395C21.8728 10.8729 21.8952 10.8129 21.9181 10.7593C22.1104 10.1608 22.3135 9.68872 22.5275 9.34321C22.761 8.99653 22.9419 8.75084 23.0701 8.60615C23.2366 8.44612 23.4877 8.28426 23.8236 8.12056C24.1472 7.97064 24.3929 7.88084 24.5607 7.85118C24.6906 7.84335 24.8239 7.83534 24.9603 7.82712C25.1366 7.82956 25.3758 7.90321 25.678 8.04807C25.994 8.20515 26.2627 8.44335 26.4841 8.76265C26.6764 9.03153 26.8754 9.46633 27.0812 10.067C27.291 10.6284 27.4373 11.0533 27.5199 11.3418C27.5895 11.6311 27.7105 12.0706 27.8829 12.6603C28.0367 13.2641 28.1582 13.7655 28.2474 14.1645C28.3225 14.5448 28.3912 14.9287 28.4537 15.3163C28.5223 15.697 28.5668 15.9487 28.5872 16.0714C28.5934 16.1754 28.607 16.2919 28.6278 16.4211L28.6401 16.6258C28.6621 16.7745 28.6243 16.904 28.5265 17.0142C28.4353 17.1241 28.3152 17.1867 28.1661 17.2022C28.0235 17.2173 27.8906 17.1764 27.7674 17.0795C27.651 16.9887 27.5821 16.8721 27.5604 16.73L27.5499 16.5545C27.5291 16.4253 27.5153 16.3055 27.5087 16.195C27.4894 16.0918 27.4555 15.8525 27.4068 15.4772C27.3463 15.1221 27.2787 14.7576 27.204 14.3839C27.1159 14.0043 26.9926 13.5259 26.8339 12.9484C26.6679 12.3584 26.5506 11.9252 26.4817 11.6489C26.3999 11.3733 26.2614 10.9675 26.0661 10.4314C25.8853 9.92051 25.73 9.56136 25.6001 9.35394C25.4863 9.19773 25.3593 9.09124 25.2189 9.03447C25.0972 8.96353 25.0002 8.92371 24.928 8.91501C24.863 8.91893 24.7915 8.92323 24.7135 8.92792C24.6493 8.94483 24.5062 9.00562 24.2842 9.11029C24.0615 9.20197 23.9198 9.2855 23.8591 9.3609C23.7728 9.44436 23.6373 9.63187 23.4527 9.92344C23.2665 10.189 23.094 10.5744 22.9353 11.0797C22.7651 11.6117 22.6672 11.9893 22.6415 12.2126C22.6032 12.4432 22.5802 12.8196 22.5725 13.3419C22.5526 13.8779 22.5534 14.3246 22.5749 14.682C22.5964 15.0395 22.6067 15.3193 22.6059 15.5215C22.6195 15.749 22.6187 15.9512 22.6032 16.1283C22.6048 16.1543 22.6068 16.1867 22.6091 16.2257C22.6114 16.2647 22.5993 16.3339 22.5727 16.4334C22.5522 16.5259 22.5173 16.5965 22.468 16.6451C22.4188 16.6938 22.3399 16.7376 22.2314 16.7768C22.1293 16.8155 21.9976 16.7941 21.8362 16.7125C21.7558 16.6782 21.6851 16.6401 21.6238 16.5981C21.5691 16.5557 21.5308 16.5157 21.509 16.4778C21.4867 16.4335 21.4712 16.3921 21.4624 16.3535C21.4535 16.3149 21.4483 16.2826 21.4467 16.2566L21.4444 16.2176C21.3795 16.0062 21.328 15.8006 21.2899 15.6007C21.2518 15.4009 21.1953 15.0586 21.1205 14.5739C21.038 14.0701 20.9742 13.6076 20.9293 13.1864C20.884 12.7587 20.8449 12.2719 20.8121 11.726C20.7808 11.2061 20.7567 10.8064 20.7399 10.527C20.7231 10.2475 20.6998 9.86085 20.6701 9.36696C20.6281 8.88684 20.5972 8.58868 20.5771 8.47249C20.5709 8.36851 20.5433 8.23646 20.4946 8.07634L20.4403 7.82524C20.3935 7.69761 20.4084 7.56627 20.4851 7.43121ZM36.0588 15.6999C35.9757 15.8354 35.8533 15.9145 35.6916 15.9373L35.382 15.995C35.1179 16.0501 34.782 16.0507 34.3744 15.997C33.9741 15.9559 33.6029 15.8575 33.2609 15.702C32.9457 15.5579 32.6827 15.414 32.4719 15.2701C32.2468 15.1076 31.9689 14.8243 31.638 14.4203C31.308 14.0292 31.0736 13.7107 30.9348 13.4647C30.8018 13.2053 30.6827 12.7429 30.5774 12.0774C30.4603 11.4322 30.4124 10.9623 30.4338 10.6675C30.4698 10.3979 30.5555 10.034 30.691 9.57583C30.8326 9.11075 30.988 8.71333 31.1573 8.38355C31.3327 8.04688 31.5027 7.78229 31.6672 7.58976C31.8443 7.38996 32.1104 7.15219 32.4656 6.87644C32.8468 6.59914 33.314 6.39817 33.8675 6.27355C34.4079 6.14972 34.8056 6.09317 35.0606 6.10391C35.3034 6.12843 35.6577 6.21798 36.1236 6.37256C36.5768 6.53442 36.9119 6.68383 37.1289 6.82079C37.3519 6.95085 37.5887 7.14531 37.839 7.40417C38.0894 7.66304 38.2734 7.90306 38.3911 8.12426C38.5226 8.35767 38.6588 8.7245 38.7998 9.22474C38.9335 9.71238 39.0061 10.1613 39.0178 10.5715C39.0409 10.9549 39.0409 11.281 39.018 11.5498C39.008 11.8178 38.9424 12.1903 38.8211 12.6672C38.7006 13.1571 38.5585 13.5602 38.3949 13.8766C38.2126 14.2072 37.9642 14.5221 37.6496 14.8215C37.335 15.1209 37.0797 15.3222 36.8837 15.4253C36.7003 15.5211 36.4254 15.6127 36.0588 15.6999ZM33.6008 14.6837C33.7562 14.5569 33.9268 14.5206 34.1127 14.5746L34.4219 14.6734C34.5875 14.7156 34.7686 14.7438 34.9651 14.7581C35.1544 14.7597 35.4101 14.728 35.7323 14.663C36.0545 14.598 36.266 14.5363 36.3668 14.4781C36.4807 14.419 36.6611 14.2745 36.9082 14.0444C37.1495 13.8276 37.3283 13.6017 37.4446 13.3664C37.5609 13.1311 37.6688 12.8115 37.7684 12.4077C37.8738 11.9905 37.9334 11.6803 37.9472 11.4773C37.9603 11.2613 37.9594 10.9744 37.9443 10.6165C37.9244 10.2851 37.8597 9.91398 37.7501 9.50315C37.6475 9.09843 37.5527 8.82368 37.4657 8.6789C37.378 8.52113 37.2403 8.3468 37.0527 8.1559C36.8647 7.9585 36.6963 7.81537 36.5475 7.72649C36.4047 7.63073 36.1439 7.52251 35.7648 7.40183C35.3984 7.27388 35.1332 7.20179 34.9692 7.18557C34.8189 7.18157 34.5345 7.22478 34.116 7.31519C33.7235 7.40404 33.39 7.55129 33.1154 7.75697C32.8221 7.97681 32.6204 8.14874 32.5105 8.27275C32.4014 8.40977 32.2736 8.61639 32.1271 8.89261C31.9803 9.16233 31.8439 9.49665 31.7179 9.89557C31.598 10.2876 31.5309 10.5819 31.5167 10.7784C31.502 10.9684 31.5375 11.3413 31.6231 11.8971C31.721 12.439 31.8174 12.7952 31.9125 12.9656C32.0018 13.1494 32.1833 13.4026 32.4571 13.7253C32.7313 14.0544 32.9436 14.2765 33.094 14.3913C33.2241 14.4944 33.393 14.5918 33.6008 14.6837ZM46.0862 6.75126C45.845 6.75273 45.6482 7.0059 45.496 7.51075C44.4493 10.3848 43.644 12.3378 43.08 13.3696C43.0201 13.458 42.9463 13.5864 42.8586 13.7547C42.6333 14.2379 42.4104 14.6524 42.1899 14.9983C41.9766 15.3568 41.8092 15.6082 41.6874 15.7525C41.5676 15.9293 41.4785 16.0194 41.42 16.023C41.225 16.0347 41.0883 15.9842 41.0097 15.8716C40.9255 15.7723 40.8754 15.5894 40.8593 15.323C40.8386 14.9785 41.1044 14.4636 41.6566 13.7781C42.2332 12.9542 42.9365 11.5814 43.7665 9.65955C44.5723 7.87615 45.2164 6.27857 45.6988 4.86683C45.7494 4.62247 45.8331 4.49677 45.9501 4.48973C46.0151 4.48581 46.1541 4.51984 46.3671 4.59181C46.5485 4.67873 46.6612 4.76325 46.7052 4.84539C46.7796 4.99745 46.9528 5.60011 47.2249 6.65337C47.719 8.68465 48.2134 10.2887 48.7081 11.4655C49.2076 12.7203 49.7142 13.5508 50.2278 13.9569C50.4179 14.0824 50.5304 14.1637 50.5653 14.2007C50.5783 14.1999 50.5846 14.1963 50.5842 14.1898C50.5963 14.3912 50.5587 14.5794 50.4714 14.7542C50.3841 14.929 50.2994 15.0385 50.2172 15.0826C50.129 15.1335 49.9159 15.1692 49.578 15.1895C49.4288 15.0942 49.1454 14.7753 48.728 14.233C48.2198 13.5918 47.571 11.7525 46.7816 8.71498C46.5817 7.88565 46.4209 7.32789 46.2993 7.04171L46.2233 6.75279L46.0862 6.75126ZM58.3069 6.12333C58.4467 6.06274 58.5836 6.06102 58.7175 6.11819C58.8578 6.17496 58.9551 6.27346 59.0092 6.4137C59.0694 6.54704 59.0711 6.6839 59.0143 6.82428L58.9005 7.04637C58.8445 7.19975 58.7645 7.38719 58.6604 7.60868C58.5625 7.82329 58.482 8.00423 58.4192 8.1515C58.3559 8.29228 58.2357 8.57018 58.0584 8.98523C57.8808 9.39377 57.7124 9.79198 57.5531 10.1799C57.3992 10.5478 57.2836 10.8483 57.2063 11.0812C57.1152 11.3019 56.9628 11.6959 56.7491 12.2632C56.6097 12.6564 56.4955 12.9796 56.4064 13.2328C56.4776 13.3328 56.5452 13.4266 56.6092 13.5141L56.7178 13.6934C56.7898 13.8065 56.8076 13.9391 56.7711 14.0913C56.7342 14.237 56.6594 14.3492 56.5468 14.4277C56.3776 14.5422 56.2021 14.5528 56.0204 14.4594C55.9983 14.5259 55.9823 14.5856 55.9724 14.6383C55.8137 15.1436 55.646 15.6624 55.4693 16.1948C55.2976 16.7008 55.1156 17.2531 54.9234 17.8517C54.7311 18.4503 54.6125 18.8096 54.5676 18.9297C54.5348 19.036 54.4974 19.172 54.4552 19.3376C54.4339 19.4171 54.4185 19.4866 54.409 19.5458L54.416 19.6628C54.425 19.8123 54.3772 19.9391 54.2726 20.0432C54.1745 20.1469 54.0507 20.2033 53.9012 20.2123C53.7583 20.2209 53.6282 20.1733 53.5111 20.0695C53.4009 19.9717 53.3414 19.8514 53.3328 19.7084L53.3258 19.5915C53.3298 19.4412 53.3578 19.2569 53.4099 19.0385C53.4521 18.8729 53.4986 18.7234 53.5492 18.5899C53.5942 18.4698 53.7128 18.1105 53.905 17.5119C54.0973 16.9133 54.2756 16.3547 54.4401 15.8361C54.6118 15.3301 54.777 14.8244 54.9358 14.3192C55.0427 13.9279 55.138 13.6157 55.2218 13.3823C55.0433 13.1257 54.9033 12.9124 54.8017 12.7424C54.6872 12.5732 54.5757 12.4005 54.4673 12.2244C54.3512 12.0292 54.2316 11.831 54.1086 11.6297C54.0055 11.4337 53.8193 11.1025 53.5499 10.636C53.2805 10.1696 53.0724 9.80058 52.9256 9.52896C52.7593 9.25852 52.572 8.96325 52.3635 8.64316L52.0595 8.14295C51.9867 8.01688 51.9655 7.88119 51.9959 7.73588C52.0263 7.59056 52.1043 7.47825 52.23 7.39894C52.3621 7.31924 52.4976 7.29478 52.6364 7.32556C52.7818 7.35594 52.8975 7.43703 52.9837 7.5688L53.2975 8.06843C53.5059 8.38852 53.6904 8.69048 53.851 8.97432C54.0188 9.27076 54.2338 9.64589 54.4959 10.0997C54.7653 10.5661 54.9518 10.9006 55.0553 11.1031C55.1584 11.2991 55.2708 11.488 55.3926 11.6698C55.4804 11.8275 55.5708 11.9754 55.6639 12.1133C55.6982 12.0329 55.7201 11.9631 55.7296 11.9039C55.9486 11.3167 56.1035 10.9095 56.1941 10.6823C56.2714 10.4494 56.3934 10.1453 56.5599 9.77003C56.7123 9.37605 56.8771 8.97154 57.0543 8.5565C57.2376 8.13457 57.364 7.84977 57.4334 7.7021C57.5088 7.54755 57.5895 7.36986 57.6752 7.16903C57.7671 6.96132 57.8475 6.78038 57.9165 6.62621L58.0205 6.40472C58.0777 6.27083 58.1731 6.17704 58.3069 6.12333ZM67.8224 7.52683L67.37 7.97475C66.4996 8.90111 65.6542 9.64661 64.8338 10.2112C64.0321 10.7617 63.4038 11.0506 62.9489 11.078C62.3965 11.1113 61.9596 10.8962 61.6382 10.4329C61.2885 9.9322 61.0927 9.33416 61.0508 8.6388C60.9918 7.65751 61.0916 6.55251 61.3503 5.32381C61.473 4.76204 61.6502 4.34699 61.8819 4.07868C62.1201 3.80998 62.4114 3.66526 62.7558 3.64453C62.8403 3.63945 62.9222 3.69974 63.0015 3.82541C63.1096 3.99501 63.1706 4.19678 63.1847 4.43073C63.2046 4.76217 63.0667 5.23354 62.7709 5.84487C62.3477 6.72475 62.1547 7.47337 62.1919 8.09075C62.2138 8.45467 62.297 8.80838 62.4416 9.15188C62.5248 9.34253 62.6414 9.49205 62.7915 9.60042C62.9415 9.70879 63.1107 9.7573 63.2992 9.74596C63.975 9.70528 64.7736 9.26588 65.695 8.42776C66.6489 7.58769 67.2408 6.85744 67.4709 6.23703C67.6945 5.61701 67.7959 5.13479 67.7751 4.79036C67.7661 4.64089 67.7415 4.50215 67.7012 4.37413C67.6754 4.27132 67.6592 4.16468 67.6526 4.0542C67.6404 3.85275 67.6973 3.60474 67.823 3.3102C67.9259 3.06921 68.0651 2.94343 68.2406 2.93287C68.5005 2.91722 68.6722 2.95254 68.7557 3.03883C68.7763 3.05715 68.7986 3.10147 68.8224 3.17178C68.8462 3.24209 68.8691 3.35159 68.8911 3.50028C68.9192 3.64208 68.9387 3.80396 68.9496 3.98592C68.9727 4.36934 68.9653 5.22094 68.9273 6.5407C68.9193 6.84121 68.9201 7.12488 68.9296 7.39171C68.9358 8.25227 68.8719 9.52142 68.7381 11.1992C68.6975 11.7169 68.6509 12.1893 68.5984 12.6164C68.5458 13.0435 68.4998 13.3626 68.4603 13.5737C68.4274 13.7843 68.3988 13.9067 68.3748 13.9408C68.2981 14.0758 68.1786 14.1483 68.0161 14.158C67.7497 14.1741 67.5658 14.1525 67.4644 14.0934C67.3699 14.0404 67.3187 13.9489 67.3109 13.8189C67.2999 13.637 67.3131 13.4764 67.3504 13.3372C67.4318 13.0649 67.5759 11.3409 67.7826 8.16515L67.8224 7.52683ZM77.8024 8.03167L77.3696 8.96757C76.7286 10.4541 76.0548 11.6132 75.3483 12.4449C74.6601 13.2559 73.9878 13.6812 73.3315 13.7207C72.9741 13.7422 72.583 13.531 72.1585 13.0869C71.7266 12.6303 71.4798 11.8886 71.418 10.8618C71.3656 9.99094 71.489 8.68234 71.7883 6.93594C72.0405 5.4924 72.1546 4.46155 72.1304 3.84339C72.2573 3.56834 72.4638 3.42221 72.7497 3.405C72.9447 3.39327 73.1048 3.45211 73.23 3.58155C73.362 3.71708 73.4326 3.85959 73.4416 4.00906C73.467 4.43147 73.3514 5.05803 73.0949 5.88875C72.5776 7.58957 72.355 9.03785 72.427 10.2336C72.5009 11.4618 72.8661 12.0562 73.5224 12.0167C74.1723 11.9776 74.9183 11.3685 75.7604 10.1895C76.5781 9.03803 77.2598 7.46755 77.8053 5.47806C78.0206 4.72156 78.2031 4.2312 78.3527 4.00697C78.4664 3.83707 78.6272 3.74586 78.8351 3.73334C78.9846 3.72435 79.0946 3.76339 79.165 3.85046C79.2351 3.93103 79.2776 4.09479 79.2924 4.34174C79.2906 4.42011 79.2458 4.65108 79.158 5.03465C78.8535 6.5857 78.7422 8.04033 78.8239 9.39855C78.9252 11.0817 79.2677 12.1666 79.8514 12.6532C79.9341 12.7265 80.0003 12.7976 80.0501 12.8663C80.106 12.9282 80.1414 12.9749 80.1564 13.0067C80.1778 13.038 80.1887 13.0569 80.1891 13.0634C80.1946 13.1544 80.1097 13.2606 79.9344 13.382C79.7151 13.5322 79.521 13.6123 79.3521 13.6225C79.0076 13.6432 78.697 13.3586 78.4202 12.7687C78.1131 12.1089 77.9188 11.1031 77.8375 9.75142L77.8169 9.41024C77.8107 9.30626 77.8075 9.19884 77.8073 9.08797L77.8024 8.03167ZM82.1508 3.71966C82.2145 3.58538 82.3134 3.49464 82.4475 3.44744C82.5882 3.39984 82.7256 3.40787 82.8599 3.47154C83.0007 3.53481 83.0946 3.63351 83.1418 3.76763L83.2368 4.04563C83.3163 4.28217 83.3526 4.56044 83.3458 4.88043C83.3488 5.14766 83.3672 5.56072 83.4008 6.1196C83.4207 6.66627 83.4365 7.03709 83.4482 7.23205C83.4733 7.43272 83.4992 7.6464 83.5259 7.87307C83.5306 7.95105 83.5432 8.05139 83.5636 8.17408C83.6066 8.02148 83.6578 7.8423 83.7171 7.63654C83.8613 7.10609 84.026 6.64614 84.2113 6.2567C84.4031 5.86687 84.5623 5.58662 84.689 5.41594C84.7962 5.24643 84.9813 5.0168 85.2443 4.72703C85.5314 4.40321 85.8032 4.15205 86.0599 3.97355C86.3158 3.78205 86.5685 3.64618 86.818 3.56594C87.0798 3.47191 87.3118 3.42534 87.514 3.42621C87.7292 3.4263 87.9574 3.47779 88.1983 3.58069C88.4328 3.68397 88.6066 3.80722 88.7195 3.95043C88.8184 4.07493 88.9611 4.33375 89.1478 4.72689C89.3001 5.08949 89.4054 5.37665 89.4638 5.58836C89.5157 5.80047 89.5861 6.10278 89.6749 6.49529C89.7099 6.64319 89.7476 6.78115 89.7879 6.90917C89.8522 6.67702 89.9735 6.36318 90.1519 5.96763C90.352 5.49903 90.5056 5.17998 90.6128 5.01048C90.7196 4.83447 90.8671 4.62993 91.0553 4.39685C91.2683 4.14271 91.4559 3.95531 91.6182 3.83467C91.7859 3.69413 91.9879 3.58414 92.2245 3.50468C92.5382 3.40753 92.8659 3.43346 93.2075 3.58248C93.5357 3.72578 93.7967 3.94487 93.9906 4.23974C94.1228 4.48615 94.2237 4.69857 94.2931 4.87702C94.3426 5.05013 94.4217 5.38779 94.5302 5.88999C94.6524 6.40441 94.7306 6.78126 94.7645 7.02053C94.8046 7.25292 94.8647 7.6015 94.9449 8.06628C95.012 8.53183 95.0682 8.92305 95.1133 9.23991C95.1585 9.55678 95.1907 9.87444 95.2098 10.1929C95.2412 10.4975 95.2702 10.7632 95.2969 10.9899C95.3236 11.2165 95.3466 11.3815 95.3658 11.4847L95.3953 11.6492C95.4173 11.7979 95.3861 11.9302 95.3018 12.0462C95.2175 12.1621 95.101 12.2311 94.9523 12.2531C94.8101 12.2747 94.6778 12.2435 94.5553 12.1596C94.439 12.0687 94.3635 11.9526 94.3289 11.8112L94.3201 11.665C94.3001 11.5488 94.2698 11.3713 94.2293 11.1324C94.2019 10.8927 94.1684 10.6077 94.129 10.2775C94.1106 9.97205 94.0792 9.6674 94.0348 9.36353C93.9905 9.05966 93.9353 8.68469 93.8693 8.23863C93.8029 7.78607 93.7495 7.44035 93.709 7.20146C93.6694 6.97557 93.5924 6.61822 93.4782 6.12941C93.3705 5.64021 93.2932 5.33179 93.2464 5.20416C93.2142 5.10175 93.1538 4.96516 93.0652 4.79439C93.007 4.69354 92.9143 4.61759 92.7873 4.56653C92.6932 4.52002 92.6271 4.50443 92.5889 4.51978C92.4735 4.55281 92.3755 4.60436 92.2949 4.67444C92.1826 4.75946 92.0505 4.89459 91.8986 5.07984C91.7215 5.27964 91.5946 5.44707 91.5179 5.58213C91.4409 5.71069 91.3107 5.98593 91.1274 6.40787C90.9437 6.8233 90.8309 7.11706 90.7891 7.28916C90.7485 7.48075 90.694 7.76774 90.6257 8.15014C90.5635 8.52565 90.5184 8.91318 90.4902 9.31272C90.4526 9.77154 90.4301 10.0468 90.4225 10.1386C90.4055 10.2896 90.3746 10.4806 90.3298 10.7116C90.2915 10.9422 90.2625 11.1102 90.2428 11.2158C90.2298 11.2166 90.2172 11.2239 90.205 11.2376C90.1927 11.2514 90.1645 11.2694 90.1202 11.2917C90.0758 11.3139 90.0283 11.3363 89.9775 11.3589C89.9331 11.3812 89.8791 11.404 89.8153 11.4274C89.7515 11.4508 89.6905 11.4675 89.6324 11.4775C89.5808 11.4872 89.529 11.4936 89.477 11.4967C89.425 11.4998 89.3757 11.493 89.329 11.4762C89.2824 11.4595 89.2416 11.4326 89.2068 11.3955C89.1784 11.3581 89.1623 11.3069 89.1584 11.2419C89.1522 11.1379 89.1456 11.0829 89.1387 11.0768C89.1314 11.0642 89.1335 11.0445 89.1449 11.0177C89.1563 10.9909 89.1702 10.951 89.1866 10.8978C89.2056 10.7793 89.2167 10.6384 89.2199 10.4751C89.2223 10.2989 89.2147 10.0645 89.1971 9.7721C89.1665 9.48044 89.121 9.15708 89.0605 8.802C88.9862 8.4347 88.9165 8.08996 88.8515 7.76776C88.7941 7.46467 88.7212 7.12012 88.6327 6.73412C88.5439 6.34161 88.4716 6.06224 88.416 5.89601C88.3802 5.73511 88.2938 5.49247 88.1569 5.16808C88.0499 4.90711 87.9648 4.73939 87.9016 4.66493C87.8741 4.6405 87.8195 4.60138 87.738 4.54759C87.6577 4.51329 87.5818 4.49829 87.5103 4.5026C87.4445 4.49351 87.3417 4.51927 87.2019 4.57986C87.0288 4.62941 86.8517 4.7216 86.6707 4.85642C86.4892 4.98473 86.2888 5.17616 86.0693 5.43069C85.8181 5.70018 85.6511 5.90589 85.5684 6.04784C85.4837 6.15729 85.3601 6.37996 85.1977 6.71585C85.0353 7.05173 84.8869 7.45852 84.7526 7.9362C84.6061 8.42766 84.5162 8.77549 84.4828 8.97968C84.4544 9.1575 84.4122 9.48614 84.3563 9.96563C84.3202 10.4504 84.2981 10.7877 84.29 10.9773C84.2814 11.1604 84.2795 11.3986 84.2841 11.6918C84.2887 11.9851 84.2947 12.1934 84.3021 12.3169C84.3037 12.3429 84.3087 12.3719 84.3171 12.404C84.3256 12.4361 84.3393 12.5005 84.3581 12.5972C84.3766 12.6874 84.3612 12.7568 84.3119 12.8055C84.2692 12.8537 84.2037 12.9033 84.1155 12.9542C84.0272 13.0052 83.8808 13.0108 83.6762 12.9709C83.4066 12.9349 83.233 12.8671 83.1552 12.7675C83.0771 12.6613 83.0682 12.5672 83.1285 12.4854L83.1994 12.3637C83.1766 12.202 83.1552 12.0631 83.1352 11.9469C83.1144 11.8177 83.0731 11.5658 83.0114 11.1912C82.9498 10.8166 82.8966 10.5296 82.852 10.3301C82.8135 10.1237 82.7449 9.74303 82.6463 9.18805C82.5477 8.63308 82.4846 8.23576 82.4572 7.99609C82.4305 7.76942 82.4042 7.54925 82.3783 7.33558C82.3654 7.12112 82.3484 6.73081 82.3274 6.16464C82.2929 5.59276 82.2736 5.16346 82.2694 4.87674C82.2703 4.6745 82.2538 4.50917 82.22 4.38076L82.1268 4.13201C82.0788 3.98489 82.0868 3.84744 82.1508 3.71966ZM98.5513 6.38171C98.6423 6.37624 98.7337 6.37726 98.8255 6.38478C98.9294 6.37852 99.1477 6.37517 99.4803 6.37472C99.8191 6.36737 100.063 6.3592 100.213 6.35021C100.362 6.34121 100.505 6.32611 100.64 6.3049C100.776 6.27719 101.03 6.22599 101.404 6.15132C101.772 6.09003 102.007 6.04326 102.11 6.01101C102.219 5.97836 102.368 5.91718 102.558 5.82747C102.73 5.75192 102.841 5.69633 102.891 5.66071C102.928 5.61937 102.979 5.55756 103.046 5.47527C103.095 5.42015 103.136 5.34268 103.169 5.24285C103.201 5.12353 103.222 5.03749 103.232 4.98471C103.229 4.93272 103.202 4.81367 103.152 4.62756C103.101 4.44144 103.061 4.32317 103.032 4.27275C102.99 4.22311 102.904 4.14027 102.773 4.02422C102.648 3.90129 102.522 3.81754 102.396 3.77299C102.242 3.704 102.108 3.65658 101.996 3.63074C101.883 3.5984 101.693 3.57725 101.425 3.56729C101.169 3.54355 100.957 3.54977 100.79 3.58593C100.628 3.60871 100.439 3.67223 100.224 3.77651C100.008 3.8743 99.8563 3.95192 99.7684 4.00938C99.6814 4.07985 99.5586 4.20789 99.4002 4.39353C99.2414 4.57266 99.0929 4.81314 98.9545 5.11497C98.7974 5.43097 98.7035 5.65838 98.6727 5.7972C98.64 5.90352 98.5995 6.09836 98.5513 6.38171ZM97.3865 6.69641C97.4062 6.59086 97.4254 6.47557 97.444 6.35053C97.5111 5.94864 97.5751 5.65781 97.636 5.47804C97.6905 5.29867 97.8076 5.0242 97.9876 4.65465C98.1797 4.27132 98.3791 3.95278 98.5855 3.69903C98.7863 3.45867 98.9583 3.282 99.1015 3.16903C99.2569 3.04227 99.4808 2.91466 99.7731 2.78619C100.071 2.65083 100.353 2.55889 100.617 2.51036C100.869 2.46911 101.162 2.45801 101.496 2.47705C101.83 2.49609 102.083 2.52977 102.255 2.57809C102.427 2.61991 102.617 2.68025 102.824 2.75911C103.058 2.86239 103.279 3.01215 103.487 3.20837C103.714 3.40992 103.864 3.57372 103.937 3.69978C104.023 3.82506 104.111 4.03827 104.201 4.3394C104.284 4.64093 104.324 4.86682 104.32 5.01707C104.315 5.16082 104.277 5.34247 104.206 5.56201C104.128 5.79494 104.03 5.99655 103.909 6.16684C103.787 6.30463 103.673 6.41585 103.568 6.50048C103.455 6.5855 103.266 6.69147 103 6.81837C102.764 6.91083 102.573 6.9843 102.426 7.03879C102.285 7.08639 102.012 7.1485 101.606 7.22513C101.225 7.3002 100.951 7.34931 100.783 7.37248C100.615 7.39565 100.446 7.41232 100.277 7.42249C100.128 7.43148 99.8771 7.44004 99.5254 7.44817C99.1737 7.45629 98.9424 7.46043 98.8315 7.46058C98.7271 7.46034 98.6295 7.46296 98.5385 7.46843C98.4995 7.47078 98.4508 7.47371 98.3923 7.47723C98.3855 7.582 98.3786 7.68351 98.3715 7.78177C98.3663 7.91252 98.3911 8.16214 98.4459 8.5306C98.5003 8.89257 98.544 9.13126 98.577 9.24667C98.6109 9.37508 98.6611 9.50576 98.7278 9.63871C98.7738 9.75334 98.8697 9.93672 99.0153 10.1888C99.146 10.4093 99.27 10.5746 99.3876 10.685C99.5265 10.8266 99.6467 10.927 99.7481 10.9861C99.83 11.0464 99.9943 11.1213 100.241 11.2108C100.489 11.3133 100.708 11.3881 100.9 11.4353C101.092 11.4759 101.311 11.4953 101.559 11.4934C101.827 11.5034 102.01 11.4989 102.106 11.4801C102.184 11.4754 102.334 11.4207 102.556 11.316C102.753 11.2259 102.882 11.1562 102.945 11.1068C103.007 11.0509 103.061 10.9856 103.109 10.911C103.157 10.8364 103.224 10.7019 103.31 10.5076C103.389 10.3006 103.444 10.1408 103.477 10.0279C103.509 9.90862 103.535 9.80268 103.555 9.71014L103.585 9.55182C103.602 9.40079 103.67 9.28257 103.789 9.19715C103.914 9.11134 104.049 9.07714 104.193 9.09452C104.344 9.11152 104.463 9.18266 104.549 9.30794C104.64 9.42633 104.678 9.55779 104.66 9.70233L104.632 9.88989C104.601 10.0222 104.561 10.1681 104.512 10.3276C104.469 10.4802 104.396 10.6802 104.294 10.9277C104.192 11.1882 104.093 11.3866 103.997 11.5228C103.907 11.6522 103.803 11.7725 103.686 11.8839C103.563 12.0087 103.34 12.1493 103.017 12.3058C102.692 12.4427 102.443 12.5262 102.269 12.5562C102.107 12.579 101.866 12.587 101.546 12.5802C101.213 12.5741 100.918 12.543 100.66 12.4867C100.402 12.424 100.129 12.3361 99.8421 12.2229C99.5277 12.0918 99.2926 11.9788 99.1369 11.8838C99.0006 11.7877 98.8391 11.6506 98.6523 11.4727C98.4517 11.2826 98.2639 11.033 98.0887 10.724C97.9087 10.4413 97.7874 10.2138 97.7248 10.0415C97.65 9.88294 97.5885 9.72686 97.5401 9.57323C97.4905 9.40012 97.4336 9.10353 97.3691 8.68346C97.3108 8.2565 97.2859 7.95146 97.2945 7.76832C97.2969 7.59208 97.3059 7.41544 97.3213 7.23841C97.319 7.19942 97.3231 7.16004 97.3338 7.12026C97.3314 7.08127 97.3295 7.04878 97.3279 7.02278C97.3082 6.91309 97.3278 6.8043 97.3865 6.69641ZM12.6965 29.0319C12.7506 29.1721 12.7458 29.3094 12.6822 29.4437C12.6246 29.5711 12.5223 29.6588 12.3752 29.7067C12.2345 29.7543 12.1038 29.7492 11.9829 29.6912L11.8222 29.6226C11.7281 29.5761 11.6107 29.5212 11.4699 29.4579C11.3498 29.413 11.1863 29.3511 10.9793 29.2722C10.7732 29.2064 10.6236 29.1599 10.5307 29.1329C10.4252 29.1132 10.3103 29.1005 10.186 29.095C10.0812 29.0882 9.93464 29.0905 9.74618 29.1019C9.57071 29.1124 9.42528 29.1342 9.30986 29.1673C9.19445 29.2003 9.07618 29.24 8.95506 29.2865C8.85342 29.3317 8.68727 29.4428 8.4566 29.6197C8.22515 29.7837 8.04588 29.9477 7.91879 30.1119C7.76689 30.2972 7.64896 30.451 7.56502 30.5735C7.49486 30.7081 7.42529 30.8526 7.3563 31.0067C7.29914 31.1406 7.20607 31.4364 7.07709 31.8942C6.94811 32.352 6.87492 32.6532 6.85753 32.7977C6.8551 32.974 6.85591 33.15 6.85997 33.3259C6.86364 33.4952 6.87687 33.6608 6.89964 33.8224C6.92242 33.9841 6.96645 34.1739 7.03174 34.3917C7.1112 34.6282 7.23407 34.8817 7.40036 35.1522C7.56743 35.4356 7.70017 35.6363 7.79859 35.7543C7.89661 35.8658 8.00399 35.9703 8.12072 36.0676C8.2164 36.1401 8.36179 36.2259 8.5569 36.325C8.75084 36.4047 9.00267 36.4711 9.31241 36.5242C9.63398 36.557 9.86664 36.5756 10.0104 36.58C10.1859 36.5694 10.3516 36.5594 10.5075 36.5501C10.6367 36.5292 10.8041 36.4931 11.0097 36.4416C11.1829 36.392 11.3502 36.3004 11.5117 36.1668C11.6794 36.0262 11.7876 35.9284 11.8365 35.8733C11.8968 35.7914 11.9504 35.7066 11.9973 35.619C12.0446 35.5379 12.0937 35.4339 12.1448 35.3069L12.2305 35.106C12.2877 34.9722 12.3866 34.8814 12.5272 34.8338C12.6739 34.7793 12.811 34.7809 12.9384 34.8384C13.0723 34.8956 13.1663 34.9943 13.2204 35.1345C13.2741 35.2683 13.2725 35.4053 13.2158 35.5457L13.13 35.7465C13.0618 35.9137 12.9951 36.0514 12.9299 36.1597C12.8581 36.2684 12.7866 36.3803 12.7153 36.4954C12.6061 36.6325 12.4207 36.8034 12.1591 37.0083C11.8918 37.2266 11.6139 37.377 11.3254 37.4596C11.0628 37.5406 10.8282 37.5971 10.6214 37.6292C10.4329 37.6405 10.2445 37.6518 10.056 37.6632C9.84078 37.6631 9.5458 37.6385 9.17107 37.5893C8.75696 37.5359 8.40569 37.4429 8.11725 37.3103C7.82881 37.1776 7.59867 37.0382 7.42681 36.892C7.25652 36.7718 7.10456 36.631 6.97091 36.4694C6.83688 36.3014 6.66468 36.0411 6.45431 35.6885C6.25812 35.3546 6.11184 35.0373 6.01547 34.7366C5.91988 34.4488 5.85875 34.1916 5.83206 33.965C5.80694 33.7643 5.79137 33.5598 5.78535 33.3514C5.77894 33.1366 5.78228 32.9211 5.79537 32.7051C5.80845 32.4891 5.88442 32.1258 6.02327 31.6152C6.16822 31.0978 6.28052 30.7421 6.36015 30.5482C6.45357 30.3664 6.55083 30.1943 6.65192 30.0316C6.75833 29.8491 6.89971 29.6515 7.07604 29.4387C7.26381 29.1991 7.51104 28.9723 7.81774 28.7581C8.11106 28.5383 8.34999 28.3902 8.53454 28.3139C8.69309 28.2391 8.85568 28.1771 9.0223 28.128C9.19619 28.0914 9.40928 28.0558 9.66156 28.021C9.90201 28.0066 10.1006 28.0011 10.2574 28.0047C10.4084 28.0217 10.5629 28.0418 10.7208 28.0649C10.8864 28.1071 11.0921 28.1665 11.3381 28.243C11.5718 28.3333 11.7623 28.4098 11.9096 28.4727C12.0434 28.5299 12.1676 28.5876 12.282 28.646L12.4237 28.7255C12.5576 28.7827 12.6485 28.8848 12.6965 29.0319ZM16.8907 31.9101L17.1899 31.8432C18.6483 31.475 19.8928 30.3696 20.9232 28.527C21.3832 27.7166 21.8016 27.1371 22.1785 26.7883C22.5504 26.4659 22.9508 26.2918 23.3797 26.2659C23.5097 26.2581 23.6535 26.3179 23.8112 26.4454C23.9616 26.5603 24.0419 26.7022 24.0521 26.8712C24.0638 27.0661 23.8305 27.253 23.3521 27.4318C23.0078 27.5634 22.6906 27.7651 22.4004 28.037C22.1297 28.3076 21.6624 28.9423 20.9986 29.941C20.5083 30.6815 20.0638 31.2072 19.6651 31.5181C19.6586 31.5185 19.6491 31.5224 19.6365 31.5296C19.6304 31.5365 19.621 31.5436 19.6084 31.5509C19.6023 31.5578 19.5931 31.5681 19.5809 31.5819C19.5687 31.5957 19.5565 31.6095 19.5443 31.6232C19.5385 31.6366 19.5298 31.6535 19.518 31.6737C19.5126 31.6936 19.5075 31.7168 19.5026 31.7431C19.5041 31.7691 19.5057 31.7951 19.5073 31.8211C19.5092 31.8536 19.511 31.8829 19.5125 31.9089C19.5202 31.928 19.5279 31.9471 19.5356 31.9662C19.5497 31.9849 19.5606 32.0038 19.5683 32.0229C19.5821 32.0351 19.5926 32.0475 19.5999 32.0601C19.6133 32.0659 19.6269 32.0748 19.6407 32.087C19.6605 32.0924 19.6739 32.0981 19.6808 32.1042C19.6877 32.1103 19.6979 32.1162 19.7112 32.1219C19.7246 32.1276 19.7313 32.1305 19.7313 32.1305C20.1426 32.3536 20.5947 32.8221 21.0877 33.5359C21.8653 34.6435 22.4617 35.3414 22.8769 35.6295C23.3254 35.9286 23.8226 36.0617 24.3684 36.0289L24.6993 35.9992C24.7318 35.9972 24.7578 35.9956 24.7773 35.9945C24.7849 36.0136 24.7894 36.0329 24.7905 36.0524C24.8011 36.2278 24.6993 36.4329 24.4852 36.6675C24.2645 36.9026 23.865 37.0375 23.2866 37.0723C22.8577 37.0981 22.4362 36.9213 22.022 36.5419C21.5864 36.1311 21.0756 35.4476 20.4898 34.4915C20.1346 33.8998 19.8042 33.4501 19.4987 33.1424C19.1653 32.8037 18.8036 32.6461 18.4137 32.6696C18.3227 32.6751 18.0898 32.7609 17.715 32.9269C17.556 32.9952 17.4323 33.0515 17.3436 33.096C17.2611 33.1336 17.1765 33.1908 17.0898 33.2678C17.0096 33.3444 16.9528 33.4293 16.9193 33.5227C16.8702 33.6821 16.8605 34.1719 16.8903 34.9919C16.9116 35.7798 16.9368 36.4142 16.9657 36.8951C16.9763 37.0706 16.9016 37.2381 16.7416 37.3978C16.5686 37.5582 16.3782 37.6446 16.1702 37.6572C15.9688 37.6693 15.8095 37.6234 15.6923 37.5196C15.5748 37.4093 15.5127 37.2989 15.5061 37.1884C15.4924 36.9609 15.5463 36.3935 15.6678 35.4862C15.8788 33.7907 16.0249 31.0165 16.1061 27.1635C16.1076 26.8634 16.2051 26.5869 16.3985 26.3339C16.5798 26.0947 16.7842 25.9683 17.0116 25.9546C17.0896 25.9499 17.1642 25.9976 17.2355 26.0977C17.3286 26.2356 17.3823 26.4247 17.3968 26.6652C17.4093 26.8731 17.3911 27.1123 17.3422 27.3826C17.0474 28.77 16.8971 30.1748 16.8914 31.597L16.8907 31.9101ZM32.3502 30.8036L31.9173 31.7395C31.2763 33.226 30.6026 34.3851 29.8961 35.2168C29.2079 36.0278 28.5356 36.4531 27.8792 36.4926C27.5218 36.5141 27.1308 36.3028 26.7062 35.8588C26.2743 35.4022 26.0275 34.6604 25.9657 33.6336C25.9133 32.7628 26.0367 31.4542 26.336 29.7078C26.5883 28.2643 26.7023 27.2334 26.6782 26.6153C26.8051 26.3402 27.0115 26.1941 27.2975 26.1769C27.4924 26.1652 27.6525 26.224 27.7777 26.3534C27.9098 26.489 27.9803 26.6315 27.9893 26.7809C28.0147 27.2034 27.8992 27.8299 27.6426 28.6606C27.1254 30.3615 26.9027 31.8097 26.9747 33.0055C27.0486 34.2337 27.4138 34.8281 28.0702 34.7886C28.72 34.7495 29.466 34.1404 30.3082 32.9614C31.1259 31.8099 31.8075 30.2394 32.353 28.2499C32.5684 27.4935 32.7508 27.0031 32.9004 26.7789C33.0141 26.609 33.1749 26.5177 33.3829 26.5052C33.5323 26.4962 33.6423 26.5353 33.7128 26.6223C33.7828 26.7029 33.8253 26.8667 33.8402 27.1136C33.8384 27.192 33.7936 27.423 33.7058 27.8065C33.4013 29.3576 33.2899 30.8122 33.3716 32.1704C33.473 33.8536 33.8154 34.9385 34.3991 35.4251C34.4818 35.4984 34.548 35.5694 34.5978 35.6382C34.6537 35.7 34.6892 35.7468 34.7041 35.7785C34.7256 35.8099 34.7365 35.8288 34.7369 35.8353C34.7424 35.9262 34.6574 36.0325 34.4821 36.1539C34.2629 36.304 34.0688 36.3842 33.8998 36.3944C33.5554 36.4151 33.2448 36.1305 32.9679 35.5406C32.6608 34.8808 32.4666 33.875 32.3852 32.5233L32.3647 32.1821C32.3584 32.0781 32.3552 31.9707 32.3551 31.8599L32.3502 30.8036ZM37.5158 27.3913C37.8262 26.8052 38.2957 26.3693 38.9242 26.0837C39.5523 25.7915 40.1844 25.7274 40.8204 25.8913C41.277 26.0007 41.7569 26.1186 42.2602 26.2449C42.509 26.4777 42.8431 26.8261 43.2623 27.29C43.6881 27.7536 43.9946 28.0776 44.1817 28.262C44.222 28.6052 44.2822 29.443 44.3624 30.7752C44.449 32.107 44.5724 33.1268 44.7324 33.8346C45.2931 34.0487 45.7137 34.2093 45.9941 34.3164C45.3 34.7038 44.9433 34.9014 44.9242 34.909C44.9814 35.6426 45.0278 36.4127 45.0633 37.2193C45.0193 37.4633 44.9764 37.6713 44.9345 37.8434C44.8931 38.022 44.8402 38.2274 44.776 38.4595C44.7121 38.6982 44.6363 38.9017 44.5485 39.07C44.4612 39.2448 44.3577 39.4206 44.2379 39.5974C44.1185 39.7807 43.9747 39.9394 43.8067 40.0734C43.6456 40.2135 43.4636 40.3321 43.2607 40.4291C42.7181 40.6248 42.1641 40.7397 41.5987 40.7737C41.0402 40.8139 40.4827 40.7626 39.9263 40.62C39.3763 40.477 38.8697 40.2401 38.4062 39.9093C38.0461 39.344 37.6973 38.6964 37.3599 37.9667C37.366 37.9598 37.3891 37.9095 37.4291 37.8158C37.4695 37.7286 37.4924 37.675 37.4977 37.6551C37.5099 37.6413 37.5332 37.5943 37.5675 37.5139C37.6082 37.4332 37.6376 37.3793 37.6555 37.3521C37.6739 37.3314 37.7006 37.2874 37.7356 37.2201C37.7772 37.1524 37.8102 37.1047 37.8347 37.0772C37.8656 37.0492 37.9024 37.0111 37.9452 36.9629C37.9944 36.9143 38.0378 36.8758 38.0752 36.8475C38.113 36.8256 38.1569 36.7969 38.207 36.7613C38.2639 36.7318 38.3212 36.7087 38.3789 36.6922C39.2688 36.306 41.0648 35.5881 43.7671 34.5384C43.6585 33.7101 43.5873 33.1763 43.5533 32.9371C42.0465 34.5605 40.6148 35.1554 39.2582 34.7218C38.95 34.6947 38.658 34.6111 38.3822 34.4712C38.1125 34.3244 37.8693 34.1303 37.6526 33.889C37.4423 33.6473 37.2618 33.4103 37.1108 33.1781C36.9595 32.9393 36.8062 32.6681 36.6509 32.3644C36.2163 30.9948 36.5046 29.3371 37.5158 27.3913ZM39.2106 27.1035C39.0219 27.2192 38.8479 27.3633 38.6888 27.536C38.5357 27.7017 38.4006 27.8957 38.2835 28.118C38.1661 28.3338 38.0704 28.532 37.9965 28.7125C37.9222 28.8866 37.8374 29.1036 37.7422 29.3637C37.6112 29.789 37.525 30.1986 37.4835 30.5924C37.4416 30.9798 37.4758 31.3853 37.5861 31.8092C37.696 32.2265 37.8998 32.5795 38.1977 32.8681C38.3681 33.0991 38.575 33.2856 38.8183 33.4275C39.0682 33.569 39.3283 33.6642 39.5986 33.7132C39.869 33.7621 40.1437 33.7749 40.4227 33.7516C40.7079 33.7214 40.9846 33.6591 41.2529 33.5647C41.7453 33.2937 42.1628 32.9164 42.5055 32.4327C42.8542 31.9421 43.0705 31.4171 43.1542 30.8577C43.2444 30.2979 43.1685 29.7415 42.9266 29.1887C42.9116 29.1569 42.773 28.7511 42.5109 27.9712C42.1009 27.5524 41.6758 27.2094 41.2358 26.9424C41.1188 26.9495 40.9072 26.9557 40.601 26.9611C40.3009 26.9596 40.0438 26.9685 39.8298 26.9879C39.6157 27.0073 39.4093 27.0458 39.2106 27.1035ZM38.6661 37.8881C38.6454 38.085 38.6695 38.2694 38.7386 38.4414C38.808 38.6198 38.8952 38.7678 39.0001 38.8854C39.1119 39.0091 39.2592 39.1275 39.4421 39.2404C39.6254 39.3598 39.7875 39.4511 39.9282 39.5144C40.069 39.5777 40.2364 39.6491 40.4303 39.7288C40.7962 39.7393 41.3282 39.7465 42.0263 39.7501C42.4649 39.5606 42.8337 39.3493 43.1327 39.1161C43.4383 38.8824 43.6684 38.5881 43.8231 38.2332C43.8397 38.0756 43.8493 37.9087 43.8517 37.7325C43.861 37.5623 43.8683 37.4119 43.8735 37.2811C43.8786 37.1504 43.8782 36.9808 43.8722 36.7725C43.8666 36.5706 43.8606 36.4177 43.8544 36.3137C43.855 36.2159 43.8513 36.0465 43.8433 35.8057C43.8358 35.5713 43.8298 35.4184 43.8255 35.3469C43.4144 35.5608 42.8587 35.8095 42.1583 36.093C41.458 36.3765 40.8098 36.6601 40.2138 36.9438C39.6242 37.2271 39.1084 37.5419 38.6661 37.8881ZM49.1175 29.9705L49.4168 29.9035C50.8752 29.5353 52.1196 28.4299 53.1501 26.5873C53.61 25.777 54.0284 25.1974 54.4053 24.8486C54.7772 24.5262 55.1776 24.3521 55.6066 24.3263C55.7365 24.3184 55.8804 24.3783 56.038 24.5057C56.1884 24.6206 56.2687 24.7625 56.2789 24.9315C56.2906 25.1265 56.0573 25.3133 55.5789 25.4921C55.2346 25.6237 54.9174 25.8255 54.6272 26.0973C54.3565 26.3679 53.8892 27.0026 53.2254 28.0014C52.7351 28.7418 52.2907 29.2675 51.892 29.5785C51.8855 29.5788 51.8759 29.5827 51.8633 29.59C51.8572 29.5969 51.8478 29.6039 51.8352 29.6112C51.8291 29.6181 51.82 29.6284 51.8077 29.6422C51.7955 29.656 51.7833 29.6698 51.7711 29.6836C51.7654 29.6969 51.7566 29.7138 51.7448 29.7341C51.7395 29.7539 51.7343 29.7771 51.7294 29.8035C51.731 29.8295 51.7325 29.8555 51.7341 29.8815C51.7361 29.9139 51.7378 29.9432 51.7394 29.9692C51.747 29.9883 51.7547 30.0074 51.7624 30.0265C51.7766 30.0452 51.7875 30.0641 51.7952 30.0832C51.8089 30.0954 51.8195 30.1079 51.8267 30.1205C51.8401 30.1262 51.8537 30.1351 51.8675 30.1474C51.8874 30.1527 51.9008 30.1584 51.9077 30.1645C51.9146 30.1706 51.9247 30.1765 51.9381 30.1822C51.9515 30.188 51.9582 30.1908 51.9582 30.1908C52.3694 30.4139 52.8216 30.8824 53.3146 31.5962C54.0922 32.7039 54.6886 33.4017 55.1038 33.6898C55.5522 33.9889 56.0494 34.122 56.5953 34.0892L56.9261 34.0595C56.9586 34.0575 56.9846 34.056 57.0041 34.0548C57.0118 34.0739 57.0162 34.0932 57.0174 34.1127C57.0279 34.2882 56.9261 34.4932 56.712 34.7279C56.4913 34.9629 56.0918 35.0978 55.5134 35.1326C55.0845 35.1584 54.663 34.9816 54.2488 34.6022C53.8132 34.1914 53.3025 33.508 52.7166 32.5519C52.3614 31.9601 52.0311 31.5104 51.7256 31.2027C51.3921 30.8641 51.0304 30.7065 50.6405 30.7299C50.5495 30.7354 50.3166 30.8212 49.9418 30.9872C49.7829 31.0555 49.6591 31.1119 49.5705 31.1563C49.4879 31.1939 49.4033 31.2512 49.3166 31.3281C49.2365 31.4047 49.1796 31.4897 49.1461 31.583C49.097 31.7425 49.0873 32.2322 49.1171 33.0522C49.1385 33.8401 49.1636 34.4745 49.1925 34.9554C49.2031 35.1309 49.1284 35.2984 48.9684 35.4581C48.7955 35.6185 48.605 35.705 48.3971 35.7175C48.1956 35.7296 48.0363 35.6838 47.9192 35.5799C47.8017 35.4696 47.7396 35.3592 47.7329 35.2487C47.7192 35.0213 47.7731 34.4539 47.8946 33.5465C48.1056 31.8511 48.2517 29.0768 48.3329 25.2239C48.3344 24.9238 48.4319 24.6472 48.6254 24.3942C48.8066 24.1551 49.011 24.0286 49.2385 24.0149C49.3164 24.0102 49.3911 24.0579 49.4623 24.158C49.5554 24.2959 49.6092 24.485 49.6236 24.7255C49.6362 24.9335 49.6179 25.1726 49.569 25.443C49.2742 26.8304 49.124 28.2352 49.1183 29.6573L49.1175 29.9705ZM64.1095 25.8103C64.2494 25.7497 64.3862 25.748 64.5201 25.8051C64.6605 25.8619 64.7577 25.9604 64.8118 26.1006C64.872 26.234 64.8737 26.3708 64.817 26.5112L64.7032 26.7333C64.6472 26.8867 64.5671 27.0741 64.4631 27.2956C64.3651 27.5102 64.2847 27.6912 64.2218 27.8384C64.1585 27.9792 64.0383 28.2571 63.8611 28.6722C63.6835 29.0807 63.515 29.4789 63.3558 29.8668C63.2018 30.2348 63.0862 30.5352 63.0089 30.7682C62.9178 30.9889 62.7655 31.3829 62.5517 31.9501C62.4124 32.3433 62.2981 32.6665 62.209 32.9197C62.2802 33.0198 62.3478 33.1136 62.4118 33.201L62.5204 33.3804C62.5925 33.4934 62.6102 33.6261 62.5737 33.7783C62.5368 33.924 62.4621 34.0361 62.3494 34.1146C62.1802 34.2292 62.0047 34.2397 61.823 34.1463C61.8009 34.2129 61.7849 34.2725 61.7751 34.3253C61.6163 34.8305 61.4486 35.3494 61.272 35.8818C61.1002 36.3878 60.9183 36.9401 60.726 37.5386C60.5338 38.1372 60.4152 38.4966 60.3702 38.6167C60.3375 38.723 60.3 38.8589 60.2578 39.0245C60.2365 39.1041 60.2211 39.1735 60.2116 39.2328L60.2187 39.3497C60.2277 39.4992 60.1799 39.626 60.0752 39.7301C59.9771 39.8339 59.8533 39.8902 59.7039 39.8992C59.5609 39.9078 59.4309 39.8602 59.3137 39.7564C59.2035 39.6587 59.1441 39.5383 59.1355 39.3954L59.1284 39.2784C59.1324 39.1281 59.1605 38.9438 59.2125 38.7255C59.2548 38.5599 59.3012 38.4103 59.3519 38.2768C59.3968 38.1567 59.5154 37.7974 59.7077 37.1988C59.8999 36.6003 60.0783 36.0417 60.2427 35.523C60.4144 35.017 60.5797 34.5114 60.7384 34.0061C60.8453 33.6149 60.9406 33.3026 61.0244 33.0693C60.8459 32.8126 60.7059 32.5993 60.6044 32.4293C60.4898 32.2601 60.3783 32.0875 60.2699 31.9114C60.1538 31.7162 60.0343 31.5179 59.9113 31.3166C59.8082 31.1206 59.6219 30.7894 59.3525 30.323C59.0831 29.8565 58.875 29.4875 58.7282 29.2159C58.5619 28.9455 58.3746 28.6502 58.1662 28.3301L57.8621 27.8299C57.7893 27.7038 57.7681 27.5681 57.7985 27.4228C57.8289 27.2775 57.9069 27.1652 58.0326 27.0859C58.1648 27.0062 58.3003 26.9817 58.4391 27.0125C58.5844 27.0429 58.7002 27.124 58.7864 27.2557L59.1001 27.7554C59.3085 28.0755 59.493 28.3774 59.6536 28.6613C59.8215 28.9577 60.0364 29.3328 60.2986 29.7867C60.568 30.2531 60.7544 30.5875 60.8579 30.79C60.961 30.986 61.0735 31.1749 61.1953 31.3567C61.2831 31.5145 61.3735 31.6623 61.4666 31.8002C61.5009 31.7199 61.5227 31.6501 61.5322 31.5908C61.7513 31.0037 61.9061 30.5965 61.9968 30.3693C62.0741 30.1363 62.196 29.8322 62.3626 29.457C62.5149 29.063 62.6797 28.6585 62.8569 28.2434C63.0403 27.8215 63.1666 27.5367 63.236 27.389C63.3115 27.2345 63.3921 27.0568 63.4778 26.856C63.5697 26.6483 63.6501 26.4673 63.7191 26.3132L63.8232 26.0917C63.8803 25.9578 63.9758 25.864 64.1095 25.8103ZM76.2545 24.7369C76.1141 24.6801 76.014 24.5883 75.9542 24.4615C75.9005 24.3277 75.8988 24.1909 75.949 24.0509C76.0054 23.904 76.1035 23.8002 76.2434 23.7397L76.3677 23.693C76.4182 23.6639 76.4806 23.6178 76.5551 23.5546C76.6437 23.5101 76.7462 23.4257 76.8627 23.3013C76.9848 23.1635 77.0821 23.0467 77.1547 22.9511C77.2333 22.8485 77.3559 22.665 77.5226 22.4006C77.6958 22.1358 77.7996 21.9633 77.8339 21.8829C77.8926 21.775 77.9658 21.6369 78.0535 21.4686C78.0535 21.4686 78.0566 21.4651 78.0627 21.4583C78.0688 21.4514 78.0715 21.4414 78.0707 21.4284C78.0695 21.4089 78.0748 21.389 78.0867 21.3688C78.0985 21.3485 78.1103 21.3282 78.1221 21.3079C78.134 21.2877 78.149 21.2672 78.1674 21.2465C78.1857 21.2258 78.2073 21.205 78.2321 21.1839C78.2634 21.1625 78.2949 21.1443 78.3266 21.1293C78.3583 21.1144 78.4 21.1021 78.4516 21.0924C78.5032 21.0828 78.555 21.0764 78.607 21.0733C78.8214 21.0604 78.974 21.1034 79.0648 21.2023C79.162 21.3008 79.2074 21.4057 79.2011 21.5169L79.1898 21.6546C79.1961 21.7585 79.1968 21.8792 79.192 22.0164C79.1731 22.135 79.1643 22.3148 79.1658 22.5561C79.1673 22.7973 79.187 23.1255 79.2251 23.5406C79.2489 23.937 79.2846 24.3132 79.3321 24.669C79.3804 25.0379 79.448 25.51 79.5348 26.0852C79.6089 26.6677 79.6682 27.1109 79.7126 27.4148C79.7432 27.7065 79.7875 28.118 79.8456 28.6493C79.9167 29.1798 79.978 29.6033 80.0297 29.9198C80.0619 30.2375 80.095 30.5714 80.1291 30.9215C80.1629 31.2652 80.1869 31.5018 80.2012 31.6314C80.2151 31.7544 80.2252 31.868 80.2315 31.9719C80.2377 32.0759 80.2462 32.2156 80.2567 32.3911L80.2909 32.6336C80.2999 32.7831 80.2557 32.9162 80.1584 33.0329C80.0675 33.1493 79.9441 33.2122 79.7882 33.2215C79.6387 33.2305 79.5058 33.1896 79.3895 33.0988C79.2792 33.0011 79.2198 32.8807 79.2112 32.7378L79.1759 32.4757C79.1653 32.3003 79.1569 32.1605 79.1506 32.0566C79.1452 31.9656 79.1379 31.8454 79.1289 31.6959C79.1089 31.5797 79.0824 31.3563 79.0494 31.0256C79.0165 30.695 78.9838 30.3676 78.9512 30.0434C78.8856 29.6039 78.8275 29.1802 78.7769 28.7723C78.7188 28.241 78.6745 27.8295 78.6439 27.5378C78.6003 27.247 78.5385 26.817 78.4586 26.2478C78.3844 25.6653 78.3167 25.19 78.2554 24.8219C78.2071 24.453 78.1696 24.0477 78.143 23.6057C78.1407 23.5668 78.1374 23.5115 78.1331 23.44C78.085 23.5081 78.0489 23.5592 78.0249 23.5933C77.928 23.7165 77.8028 23.8578 77.6493 24.017C77.4852 24.216 77.3279 24.3657 77.1774 24.4661C77.0326 24.5531 76.9098 24.6257 76.8089 24.6839L76.6651 24.7317C76.5382 24.7915 76.4013 24.7933 76.2545 24.7369ZM87.0561 31.9036C87.1073 31.8875 87.165 31.871 87.2292 31.854C87.3186 31.8226 87.5198 31.6963 87.8326 31.4753C88.1267 31.2685 88.3128 31.1105 88.391 31.0015C88.4693 30.8924 88.5877 30.5852 88.7465 30.08C88.9296 29.5472 89.04 29.159 89.0775 28.9154C89.1142 28.6589 89.1479 28.2427 89.1785 27.6669C89.2155 27.0907 89.2252 26.6564 89.2076 26.3639C89.2023 26.0577 89.1733 25.6844 89.1207 25.2441C89.0819 24.816 88.9918 24.3485 88.8504 23.8418C88.7159 23.3411 88.6028 22.9795 88.5112 22.7567C88.4348 22.5721 88.2292 22.2975 87.8941 21.9329C87.5656 21.5679 87.3407 21.3531 87.2194 21.2887C87.0848 21.2185 86.8656 21.1534 86.562 21.0934C86.2909 21.0315 86.0555 21.0228 85.856 21.0675C85.663 21.1117 85.4319 21.2267 85.1626 21.4125C84.8815 21.6185 84.683 21.787 84.5669 21.9179C84.4578 22.0549 84.2791 22.3918 84.031 22.9285C83.7706 23.479 83.6087 23.8768 83.5451 24.122C83.4694 24.3809 83.387 24.8 83.298 25.3793C83.2162 25.9712 83.1671 26.4014 83.1506 26.6698C83.1277 26.9386 83.1423 27.3975 83.1944 28.0466C83.2449 28.6697 83.3448 29.192 83.4941 29.6135C83.6227 30.0166 83.7656 30.3309 83.9226 30.5562C84.0862 30.7812 84.3218 31.0116 84.6295 31.2474C84.8958 31.4466 85.2109 31.5875 85.5746 31.6699C85.9634 31.7378 86.2066 31.7688 86.3041 31.763L86.5661 31.7276C86.7538 31.7033 86.9171 31.762 87.0561 31.9036ZM85.463 32.743C85.424 32.7454 85.3912 32.7408 85.3644 32.7294C84.8355 32.6112 84.3661 32.3981 83.9563 32.0902C83.5804 31.8063 83.2788 31.5081 83.0513 31.1957C82.8299 30.8764 82.6355 30.4641 82.4681 29.9589C82.2881 29.461 82.1732 28.8516 82.1233 28.1306C82.0676 27.4231 82.0501 26.9154 82.0707 26.6076C82.0913 26.2998 82.1482 25.8366 82.2414 25.2179C82.3217 24.6 82.4082 24.1415 82.5011 23.8424C82.5744 23.5445 82.7556 23.0868 83.0446 22.4694C83.34 21.8515 83.5665 21.4433 83.7242 21.2447C83.9005 21.0319 84.1731 20.7937 84.5421 20.5302C84.9362 20.2521 85.304 20.0767 85.6453 20.004C85.9931 19.9309 86.3785 19.9403 86.8014 20.0322C87.1911 20.1131 87.4969 20.2089 87.7188 20.3194C87.9552 20.4552 88.2794 20.7488 88.6914 21.2001C89.1038 21.6579 89.3744 22.0362 89.5032 22.335C89.6103 22.596 89.7427 23.0087 89.9006 23.5731C90.039 24.1387 90.1357 24.6612 90.1906 25.1406C90.2448 25.6069 90.2749 25.9997 90.2811 26.3189C90.301 26.6503 90.2937 27.1236 90.2589 27.7388C90.2238 28.3475 90.1891 28.7996 90.1547 29.0952C90.1073 29.3915 89.9871 29.8325 89.7941 30.4181C89.5896 31.0304 89.409 31.4424 89.2521 31.654C89.1014 31.8588 88.8318 32.0935 88.4434 32.3582C88.0752 32.6347 87.7919 32.805 87.5936 32.8691C87.4213 32.9317 87.2577 32.9774 87.1029 33.0063C86.916 33.0436 86.662 33.0491 86.3408 33.0228L85.9193 33.0091C85.7304 33.0139 85.5784 32.9252 85.463 32.743ZM101.384 30.8553C101.386 30.8813 101.387 30.9041 101.388 30.9236L101.285 31.1646C101.175 31.5038 100.965 31.7383 100.653 31.8679C100.391 31.9619 100.088 31.9736 99.745 31.903C99.4349 31.8434 99.1673 31.7323 98.9423 31.5697C98.7311 31.4194 98.5475 31.2413 98.3916 31.0355C98.2292 30.83 98.0882 30.6004 97.9686 30.3467C97.8608 30.0728 97.7875 29.8293 97.7486 29.6164C97.7089 29.3906 97.7001 29.1367 97.7223 28.8549C97.7575 28.5724 97.8145 28.3276 97.8933 28.1207C97.9958 27.8732 98.1789 27.6632 98.4424 27.4908C98.6991 27.3123 98.9801 27.2139 99.2856 27.1955C99.5788 27.1909 99.8631 27.2553 100.139 27.3888C100.399 27.4905 100.629 27.6234 100.828 27.7875C101.027 27.9516 101.206 28.1691 101.366 28.44C101.547 28.7356 101.658 29.0681 101.7 29.4373C101.749 29.8192 101.723 30.1403 101.621 30.4008C101.56 30.5806 101.481 30.7321 101.384 30.8553ZM99.3888 30.5352C99.4069 30.4037 99.4592 30.2962 99.5454 30.2127C99.6439 30.1155 99.7679 30.0623 99.9174 30.0533C100.066 30.0378 100.196 30.0822 100.307 30.1864L100.432 30.3159C100.445 30.3151 100.458 30.3078 100.47 30.294C100.519 30.2389 100.563 30.1547 100.602 30.0415C100.647 29.9344 100.657 29.774 100.631 29.5603C100.605 29.3467 100.539 29.1648 100.432 29.0147C100.33 28.8317 100.23 28.6975 100.134 28.6119C100.024 28.5272 99.8795 28.4479 99.6989 28.374C99.5643 28.3038 99.4417 28.2721 99.3312 28.2787C99.2402 28.2842 99.1541 28.3155 99.0727 28.3725C98.9726 28.4438 98.9114 28.5094 98.8889 28.5695C98.8554 28.6628 98.8305 28.7915 98.8143 28.9555C98.7996 29.1455 98.7995 29.3054 98.8138 29.4349C98.8346 29.5641 98.8864 29.7208 98.9693 29.905C99.0456 30.0895 99.1332 30.244 99.232 30.3685C99.2814 30.4308 99.3336 30.4863 99.3888 30.5352ZM95.4464 25.9884C95.499 26.2135 95.4412 26.3899 95.2727 26.5174L95.1421 26.6231C94.9627 26.7839 94.7202 26.8735 94.4148 26.8919C94.1223 26.9095 93.8453 26.8577 93.5836 26.7365C93.3354 26.621 93.1065 26.4489 92.8971 26.2201C92.6544 25.9804 92.4921 25.7227 92.4103 25.4472C92.3568 25.2091 92.3295 25.0249 92.3281 24.8945C92.3264 24.7576 92.3622 24.5403 92.4356 24.2423C92.509 23.9444 92.5775 23.7283 92.6412 23.5941C92.6991 23.4732 92.8004 23.3138 92.945 23.116C93.106 22.8649 93.3344 22.649 93.63 22.4682C93.9257 22.2873 94.2207 22.2043 94.5151 22.2192C94.7953 22.2154 95.0672 22.2903 95.3309 22.4441C95.5819 22.605 95.798 22.8366 95.9792 23.1388C96.167 23.4405 96.2669 23.6922 96.279 23.8936C96.2896 24.0691 96.2594 24.3253 96.1883 24.6622C96.1051 25.0129 96.0188 25.2594 95.9296 25.4017C95.8484 25.5697 95.706 25.7511 95.5025 25.9459C95.4903 25.9597 95.4716 25.9739 95.4464 25.9884ZM93.6961 25.5166C93.7481 25.5134 93.7875 25.5176 93.8142 25.529L94.0396 25.535C94.0924 25.5449 94.182 25.5167 94.3085 25.4504C94.48 25.3748 94.6274 25.2779 94.7508 25.1596C94.8802 25.0344 94.9629 24.9446 94.9987 24.8903C95.0338 24.823 95.0766 24.6671 95.1271 24.4228C95.167 24.2182 95.1939 24.0698 95.2079 23.9777C95.191 23.9134 95.1431 23.8218 95.0642 23.7026C94.9634 23.5456 94.8654 23.4341 94.7701 23.3681C94.689 23.3208 94.5991 23.2903 94.5005 23.2767C94.4225 23.2814 94.3174 23.3236 94.1852 23.4033C94.0283 23.5041 93.9074 23.6092 93.8227 23.7186C93.7147 23.8751 93.6436 23.9935 93.6093 24.0739C93.5742 24.1412 93.5274 24.2843 93.4688 24.503C93.4281 24.6946 93.4033 24.8233 93.3942 24.889C93.3973 24.941 93.416 25.0345 93.4502 25.1694C93.4687 25.2596 93.5367 25.3599 93.6542 25.4702C93.6683 25.4889 93.6823 25.5044 93.6961 25.5166ZM93.7645 32.8304C93.6251 32.8975 93.4854 32.9059 93.3454 32.8556C93.2119 32.8049 93.1116 32.7099 93.0445 32.5704C92.9778 32.4375 92.9728 32.3008 93.0296 32.1604L93.0958 31.9608C93.1641 31.7936 93.2666 31.6015 93.4036 31.3846C93.51 31.2021 93.6246 30.993 93.7474 30.7573C93.8637 30.5221 93.9601 30.3369 94.0368 30.2018C94.107 30.0672 94.2204 29.8386 94.3771 29.5161C94.5334 29.1871 94.6788 28.8946 94.8134 28.6387C94.9545 28.3823 95.1317 28.0749 95.3449 27.7164C95.5394 27.3721 95.6868 27.1121 95.7871 26.9365C95.8935 26.754 96.0726 26.4236 96.3243 25.9454C96.5759 25.4672 96.7483 25.1339 96.8413 24.9457C96.9332 24.738 97.0754 24.4457 97.2679 24.0689C97.4601 23.6856 97.6196 23.3564 97.7466 23.0813C97.88 22.8059 98.0308 22.4935 98.1989 22.1443C98.367 21.795 98.4913 21.5299 98.5717 21.3489C98.6529 21.181 98.7829 20.9025 98.9617 20.5134C99.1404 20.1244 99.2527 19.8763 99.2984 19.7692C99.3441 19.6621 99.3885 19.5323 99.4315 19.3797C99.4635 19.2603 99.4866 19.1578 99.501 19.0722L99.5112 18.915C99.5293 18.7835 99.594 18.6655 99.7051 18.561C99.8227 18.456 99.9538 18.4123 100.098 18.4297C100.249 18.4402 100.37 18.5014 100.462 18.6133C100.553 18.7252 100.597 18.8562 100.593 19.0065L100.583 19.1636C100.566 19.3147 100.53 19.4864 100.477 19.6787C100.423 19.8646 100.364 20.0344 100.302 20.1882C100.244 20.3091 100.123 20.5707 99.9383 20.9732C99.7599 21.3687 99.6273 21.6572 99.5404 21.8385C99.4592 22.0064 99.3345 22.265 99.1664 22.6143C99.0048 22.9632 98.8572 23.2754 98.7238 23.5508C98.5781 23.84 98.4186 24.1692 98.2452 24.5384C98.0538 24.9347 97.9114 25.2237 97.818 25.4055C97.7261 25.6132 97.548 25.9598 97.2838 26.4453C97.0256 26.9239 96.8437 27.261 96.7381 27.4565C96.6385 27.6451 96.4818 27.9121 96.2678 28.2576C96.0733 28.602 95.9083 28.8956 95.7729 29.1386C95.644 29.3811 95.501 29.6604 95.344 29.9764C95.1869 30.2924 95.0739 30.5275 95.0049 30.6816C94.9359 30.8358 94.8333 31.0279 94.6971 31.2578C94.5621 31.5073 94.4357 31.7366 94.3179 31.9459C94.2229 32.1016 94.159 32.2327 94.1263 32.339L94.0405 32.5398C93.9964 32.6729 93.9044 32.7698 93.7645 32.8304Z" fill="#242424"/>
</svg>
