<svg width="231" height="199" viewBox="0 0 231 199" fill="none" xmlns="http://www.w3.org/2000/svg">
<path fill-rule="evenodd" clip-rule="evenodd" d="M5.74099 15.1195C7.34096 12.6405 9.06891 10.2191 10.9304 7.86177C12.9995 5.24153 15.1822 2.7418 17.4681 0.363281L185.95 7.20599C189.067 10.5529 192.075 14.0187 194.974 17.5692C195.386 18.0738 195.797 18.5802 196.205 19.0883L128.243 32.7825L131.211 33.4338L205.89 32.0014C207.916 34.9189 209.864 37.8831 211.715 40.8913L168.941 41.7118L200.456 48.6261H206.001L206.098 49.864L218.251 52.5304C219.958 55.898 221.528 59.3133 222.939 62.7731L202.359 58.2576C168.079 63.6757 120.715 71.159 78.8533 77.7667L142.688 91.0664C149.689 91.4405 156.769 91.8207 163.892 92.2049L228.188 78.809C228.903 81.7259 229.492 84.669 229.942 87.6366L198.893 94.1058C209.601 94.691 220.283 95.2779 230.825 95.8598C231.012 98.8445 231.052 101.852 230.935 104.88C221.09 104.336 211.122 103.788 201.122 103.241L230.644 109.392C230.493 111.063 230.293 112.741 230.043 114.424C229.262 119.665 228.18 124.847 226.806 129.936L205.536 129.214L149.299 137.15L221.476 145.741C220.286 148.659 218.995 151.529 217.605 154.344L114.458 142.067L61.0469 149.604L217.194 155.168C215.681 158.179 214.053 161.126 212.315 164L10.0945 156.794L7.16239 157.208C5.64135 154.046 4.22513 150.816 2.90808 147.532L9.62234 147.771L79.518 137.908L21.6936 131.025L-1.31104 135.818C-3.68496 128.449 -5.62234 120.897 -7.18116 113.305C-7.20252 113.201 -7.22379 113.097 -7.24499 112.993L54.1287 115.074L129.476 99.3755C126.05 99.1937 122.649 99.0137 119.276 98.8357C82.8226 96.9123 49.7314 95.2306 25.3076 94.105C13.0934 93.5421 3.0613 93.119 -4.1349 92.8742C-6.50609 92.7935 -8.55976 92.7325 -10.2765 92.6923C-10.5835 89.3939 -10.7965 86.0935 -10.9082 82.7998C-7.32599 82.239 -2.37501 81.4613 3.67789 80.509C10.7208 79.401 19.254 78.0568 28.8559 76.5431L-10.717 68.2982C-10.528 65.2746 -10.242 62.2678 -9.85321 59.2849L53.9697 72.5822L62.4118 71.2502C89.5388 66.9694 120.197 62.1278 148.693 57.6261H4.50071L3.61183 48.7147L24.629 44.4798L-7.14972 45.0893C-6.37039 42.0294 -5.46481 39.0086 -4.4259 36.0354L74.0024 34.5311L84.5393 32.4079L5.74099 15.1195ZM181.095 198.392L20.6383 179.438C18.2346 176.281 15.9896 172.988 13.8946 169.578L190.748 190.469C187.685 193.28 184.465 195.927 181.095 198.392ZM168.439 15.5022L106.431 27.9968L22.4592 9.57341L168.439 15.5022ZM156.022 103.038L224.912 117.391L205.056 120.193L92.0758 116.361L156.022 103.038ZM54.9051 124.106L153.606 127.453L114.359 132.991L49.3789 125.257L54.9051 124.106ZM53.7459 81.7289L83.702 87.9702C63.8994 86.9537 45.8961 86.0587 30.7857 85.35C37.9158 84.226 45.6261 83.0099 53.7459 81.7289ZM130.321 42.4525L158.459 48.6261H49.6148L74.9855 43.5139L130.321 42.4525Z" fill="#7594E6"/>
</svg>
