<svg width="362" height="313" viewBox="0 0 362 313" fill="none" xmlns="http://www.w3.org/2000/svg">
<path d="M5 80.9403C38.5338 86.9879 117.458 93.0355 164.884 68.8451C224.167 38.6072 248.719 16.6159 218.778 6.17003C188.837 -4.27582 140.308 57.8022 133.147 89.7368C124.764 127.122 138.536 157.909 209.197 113.377C279.857 68.8451 233.15 77.4847 209.197 96.2556C170.288 126.748 140.932 191.446 179.855 198.593C218.778 205.741 300.217 164.507 300.217 127.122C300.217 89.7368 187.64 181.55 198.418 213.987C209.197 246.424 219.976 282.16 266.684 265.117C313.391 248.074 374.471 199.143 352.314 188.697C330.158 178.252 255.905 268.965 278.061 308" stroke="#927FFF" stroke-width="9" stroke-linecap="round"/>
</svg>
