<svg width="374" height="52" viewBox="0 0 374 52" fill="none" xmlns="http://www.w3.org/2000/svg">
<path d="M11.2661 33.552C11.3991 33.494 11.5006 33.4321 11.5706 33.3665C11.6407 33.3008 11.6947 33.2254 11.7326 33.1403C11.7796 33.0235 11.8197 32.8706 11.853 32.6814C11.8858 32.4818 11.9183 32.1572 11.9504 31.7074C11.9924 31.2467 12.0219 30.8544 12.0388 30.5304C12.0552 30.1961 12.0862 29.6056 12.132 28.7589C12.2234 27.0657 12.6646 26.2016 13.4555 26.1665C13.7885 26.1518 14.0202 26.2041 14.1507 26.3234C14.2811 26.4428 14.3537 26.6689 14.3686 27.0019C14.376 27.1684 14.3248 27.5409 14.215 28.1192C13.5603 31.6829 13.2862 34.6615 13.3927 37.055C13.5122 39.7398 14.033 41.4841 14.955 42.2878C15.085 42.3968 15.189 42.5068 15.2669 42.6181C15.3548 42.7185 15.4103 42.7942 15.4334 42.8453C15.4669 42.896 15.4839 42.9265 15.4844 42.9369C15.4914 43.093 15.3528 43.2607 15.0689 43.4402C14.7144 43.6748 14.4018 43.7982 14.1313 43.8102C13.5173 43.8374 12.9959 43.2505 12.5671 42.0496C12.1383 40.8487 11.8671 38.9734 11.7536 36.4238C11.7379 36.07 11.6275 35.8143 11.4223 35.6565C11.2928 35.558 11.15 35.5122 10.9939 35.5191C10.1094 35.5583 9.03508 35.6685 7.77105 35.8497C6.48574 36.0213 5.56652 36.2185 5.01337 36.4411C4.34621 36.6792 3.92361 36.9065 3.74555 37.1229C3.56796 37.3498 3.43387 37.851 3.34326 38.6266C3.25982 39.3289 3.23501 40.0599 3.26881 40.8195L3.35843 42.8332C3.3802 43.3223 3.30703 43.6696 3.13892 43.8752C2.97127 44.0911 2.68452 44.2081 2.27867 44.2261C1.96648 44.2399 1.73314 44.1512 1.57865 43.96C1.43503 43.7786 1.35187 43.433 1.32918 42.9231C1.29583 42.1739 1.34711 41.2175 1.48302 40.0541C1.72917 37.8536 1.90562 34.0868 2.01237 28.754C2.02667 28.1381 2.05682 27.7614 2.10284 27.6239C2.13937 27.5075 2.2788 27.3606 2.52115 27.183C2.75309 27.0059 3.00954 26.9111 3.29052 26.8987C3.5923 26.8853 3.79188 26.9182 3.88924 26.9973C3.98614 27.0659 4.03899 27.1992 4.04779 27.3969C4.04433 27.5534 3.95847 28.3184 3.7902 29.6918C3.61223 31.3158 3.54316 32.5753 3.58299 33.4703C3.60013 33.8553 3.69774 34.1742 3.87582 34.427C4.0539 34.6798 4.30424 34.799 4.62684 34.7847C5.35529 34.7524 6.66002 34.5486 8.54103 34.1733C8.73782 34.1437 8.97578 34.1019 9.2549 34.0478C9.54443 33.9933 9.76158 33.9524 9.90634 33.9251C10.0615 33.8973 10.2425 33.8633 10.4492 33.8228C10.6555 33.772 10.81 33.7286 10.9126 33.6928C11.0253 33.6461 11.1431 33.5992 11.2661 33.552ZM29.0826 37.814C28.9702 37.6313 28.8528 37.4541 28.7305 37.2822C28.5741 37.0494 28.3967 36.8122 28.1983 36.5707C28.0212 36.3388 27.6086 35.9713 26.9606 35.4682C26.3873 35.0036 26.0108 34.7439 25.8311 34.6894C25.6826 34.6334 25.4064 34.6352 25.0024 34.6948C24.5567 34.7563 24.1655 34.8675 23.8285 35.0284C23.45 35.1911 23.1599 35.35 22.9582 35.5049C22.7665 35.6489 22.5909 35.8027 22.4314 35.9662C22.2903 36.0767 22.0983 36.3302 21.8552 36.7268C21.5914 37.1243 21.432 37.4077 21.3769 37.5769C21.3228 37.767 21.2713 38.0143 21.2223 38.3189C21.1941 38.6225 21.1941 38.8571 21.2223 39.0227C21.2297 39.1892 21.3047 39.4674 21.4471 39.8573C21.5882 40.216 21.7301 40.4756 21.8728 40.6361C22.0486 40.8368 22.2164 40.9754 22.3762 41.0517C22.5265 41.1493 22.6872 41.2465 22.8583 41.3432C23.0394 41.429 23.3253 41.5258 23.7159 41.6336C24.0639 41.7224 24.363 41.7665 24.6132 41.7659C24.8942 41.7534 25.1267 41.7066 25.3108 41.6254C25.5171 41.5746 25.7272 41.4923 25.9411 41.3785C26.1654 41.2643 26.394 41.1291 26.6269 40.9728C26.8086 40.8396 27.1481 40.5013 27.6452 39.9579C28.1107 39.4055 28.3923 39.0542 28.4898 38.9039C28.5865 38.7328 28.673 38.5673 28.7493 38.4075C28.8573 38.2568 28.9684 38.0589 29.0826 37.814ZM30.6193 38.6061C30.4843 38.852 30.3784 39.0495 30.3016 39.1989C30.2258 39.3691 30.1147 39.5669 29.9683 39.7924C29.8333 40.0382 29.488 40.481 28.9326 41.1208C28.3667 41.7611 27.9269 42.1872 27.6131 42.3992C27.3197 42.5999 27.0199 42.7748 26.7137 42.924C26.4184 43.083 26.1269 43.2107 25.8392 43.3068C25.5203 43.4044 25.1475 43.4626 24.7209 43.4815C24.2743 43.5222 23.7815 43.4606 23.2425 43.2968C22.7469 43.1728 22.371 43.0435 22.1147 42.9089C21.8694 42.7842 21.6231 42.6387 21.3758 42.4724C21.1291 42.3165 20.8736 42.0828 20.6095 41.7713C20.2925 41.4413 20.0384 41.0042 19.8473 40.46C19.6572 39.9367 19.5394 39.5144 19.4938 39.1932C19.4596 38.8923 19.4696 38.5321 19.5239 38.1126C19.5891 37.7031 19.667 37.3451 19.7576 37.0387C19.8483 36.7323 20.054 36.3166 20.3747 35.7914C20.6963 35.2871 20.9873 34.9145 21.2477 34.6736C21.4787 34.4756 21.7258 34.2874 21.989 34.1089C22.2621 33.9196 22.6175 33.7057 23.0552 33.4673C23.5559 33.2366 24.1272 33.0705 24.7692 32.9691C25.422 32.8776 25.9548 32.9009 26.3676 33.039C26.7374 33.1477 27.3224 33.5232 28.1225 34.1655C27.9796 33.7652 27.8662 33.4418 27.7822 33.1952C27.6411 32.8365 27.4386 32.3867 27.1747 31.8458C26.8909 31.3266 26.6487 30.9203 26.4479 30.6268C26.2472 30.3333 26.0225 30.0878 25.7739 29.8903C25.5782 29.7113 25.2088 29.4931 24.6656 29.2356C24.1223 28.9782 23.6563 28.8164 23.2676 28.7502C22.8382 28.7066 22.4929 28.6802 22.2318 28.671C21.9716 28.6825 21.7171 28.7042 21.4683 28.7361C21.2611 28.7661 20.8816 28.9081 20.3299 29.1619C19.9314 29.3464 19.6723 29.4987 19.5525 29.6187L19.3763 29.8767C19.2598 30.0696 19.083 30.1973 18.846 30.26C18.6189 30.3117 18.3983 30.2746 18.1841 30.1485C17.9799 30.0116 17.8467 29.8298 17.7845 29.6032C17.7322 29.3657 17.7799 29.1498 17.9277 28.9556L18.1025 28.6663C18.3266 28.3123 18.8217 27.9567 19.5878 27.5995C20.3028 27.2654 20.8519 27.069 21.2351 27.0104C21.5568 26.9752 21.8841 26.9503 22.2171 26.9355C22.5615 26.9411 23.0008 26.9738 23.5353 27.0335C24.0915 27.1131 24.7159 27.3201 25.4085 27.6543C26.1011 27.9885 26.6107 28.31 26.9373 28.6188C27.2525 28.9072 27.5591 29.2377 27.8572 29.6103C28.1345 29.9838 28.4221 30.4715 28.72 31.0735C29.0283 31.675 29.2544 32.1863 29.3983 32.6075C29.5412 33.0078 29.7334 33.5779 29.9749 34.318C30.2164 35.058 30.3904 35.5716 30.4971 35.8589C30.6146 36.156 30.7226 36.4745 30.8211 36.8142C30.9296 37.1431 31.0076 37.3742 31.0553 37.5076L31.0567 37.5389C31.1682 37.7007 31.1474 37.9363 30.9943 38.2454L30.6193 38.6061ZM57.7072 41.0339C57.5708 41.2485 57.3729 41.372 57.1137 41.4043L56.617 41.4889C56.1931 41.5703 55.6558 41.5628 55.005 41.4665C54.3656 41.3906 53.7742 41.2239 53.231 40.9665C52.7303 40.728 52.3131 40.491 51.9794 40.2556C51.6235 39.9898 51.1859 39.5296 50.6667 38.8749C50.1484 38.2409 49.7814 37.7254 49.5656 37.3284C49.3593 36.91 49.1803 36.1672 49.0285 35.1C48.8573 34.0649 48.7925 33.3118 48.8341 32.8407C48.8984 32.4104 49.0446 31.8304 49.2728 31.1008C49.511 30.3604 49.7696 29.7285 50.0487 29.2052C50.3377 28.6711 50.6162 28.2521 50.8842 27.9483C51.1726 27.6331 51.6043 27.2594 52.1794 26.8273C52.7962 26.3933 53.5488 26.0836 54.4372 25.8983C55.3049 25.7138 55.9426 25.6334 56.3503 25.6571C56.7381 25.7024 57.3027 25.8547 58.0441 26.1138C58.7652 26.3842 59.2976 26.6317 59.6412 26.8563C59.9948 27.07 60.3687 27.3871 60.7628 27.8075C61.1568 28.228 61.4452 28.6166 61.628 28.9735C61.8324 29.3502 62.0412 29.9405 62.2542 30.7444C62.4559 31.5279 62.5609 32.2479 62.5693 32.9044C62.5966 33.5184 62.5886 34.0401 62.5451 34.4695C62.5225 34.898 62.4081 35.4922 62.2021 36.2521C61.9971 37.0327 61.7597 37.6741 61.4901 38.1761C61.1902 38.7003 60.7848 39.1979 60.274 39.6689C59.7632 40.1399 59.3498 40.4554 59.0336 40.6154C58.7379 40.7641 58.2957 40.9036 57.7072 41.0339ZM53.8001 39.3459C54.052 39.1471 54.3259 39.0932 54.6219 39.1844L55.1141 39.3502C55.378 39.422 55.667 39.4717 55.981 39.4995C56.2837 39.5069 56.6936 39.4627 57.2107 39.3668C57.7278 39.2709 58.0677 39.1776 58.2305 39.087C58.4141 38.9954 58.7064 38.7687 59.1074 38.4069C59.4989 38.0663 59.7906 37.7092 59.9825 37.3358C60.1744 36.9624 60.3551 36.4539 60.5246 35.8103C60.7035 35.1455 60.8067 34.6508 60.8339 34.3264C60.8603 33.9811 60.8659 33.5221 60.8508 32.9493C60.8272 32.4186 60.7329 31.8232 60.568 31.1632C60.414 30.5131 60.2692 30.0712 60.1336 29.8374C59.9972 29.5828 59.7813 29.3004 59.486 28.9902C59.1902 28.6697 58.9243 28.4364 58.6884 28.2905C58.4625 28.1337 58.0478 27.9539 57.4445 27.7513C56.8615 27.5373 56.439 27.4153 56.1769 27.3852C55.9367 27.375 55.4806 27.4369 54.8089 27.571C54.1787 27.7032 53.6414 27.9303 53.1969 28.2524C52.7222 28.5967 52.3953 28.8666 52.2163 29.0622C52.0383 29.2787 51.8287 29.606 51.5875 30.0442C51.3459 30.472 51.1193 31.0033 50.9077 31.6383C50.7061 32.2625 50.5914 32.7315 50.5637 33.0456C50.5355 33.3492 50.5829 33.9467 50.706 34.8379C50.849 35.7074 50.9944 36.2797 51.1422 36.5547C51.2805 36.8509 51.5646 37.2606 51.9945 37.7837C52.4249 38.3173 52.759 38.6778 52.9967 38.8654C53.2023 39.0336 53.4701 39.1937 53.8001 39.3459ZM77.2053 27.2038C77.2883 27.4295 77.2773 27.6489 77.172 27.8621C77.0768 28.0645 76.9109 28.2022 76.6743 28.2752C76.4481 28.3478 76.2391 28.3362 76.0471 28.2405L75.7918 28.1266C75.6424 28.0499 75.4559 27.9591 75.2323 27.8543C75.0413 27.7793 74.7812 27.6762 74.4521 27.5448C74.124 27.4342 73.8859 27.3561 73.7379 27.3106C73.5695 27.2763 73.386 27.2532 73.1874 27.2411C73.0199 27.2277 72.7853 27.2277 72.4835 27.241C72.2026 27.2535 71.9693 27.2847 71.7839 27.3346C71.5984 27.3845 71.4082 27.4451 71.2133 27.5163C71.0495 27.5861 70.781 27.7597 70.4075 28.0369C70.0331 28.2933 69.7422 28.5512 69.5348 28.8107C69.2871 29.1032 69.0946 29.3463 68.9573 29.5401C68.8417 29.7537 68.7267 29.983 68.6125 30.2279C68.5177 30.4406 68.3614 30.9116 68.1436 31.6407C67.9258 32.3698 67.8012 32.8497 67.7698 33.0805C67.7615 33.3624 67.7583 33.6441 67.7604 33.9255C67.7621 34.1965 67.7791 34.4617 67.8115 34.7209C67.8439 34.9801 67.9096 35.2848 68.0086 35.6349C68.1298 36.0154 68.32 36.424 68.5793 36.8609C68.8395 37.3186 69.0468 37.643 69.2013 37.8343C69.3553 38.0151 69.5245 38.1849 69.7088 38.3436C69.8601 38.462 70.0905 38.603 70.4002 38.7665C70.7084 38.8988 71.1097 39.0113 71.6039 39.1041C72.1175 39.1648 72.4892 39.2004 72.7191 39.2111C73.0001 39.1986 73.2654 39.1869 73.5152 39.1758C73.7224 39.1458 73.9911 39.0922 74.3213 39.015C74.5995 38.9401 74.8695 38.7978 75.1313 38.588C75.403 38.3675 75.5786 38.2137 75.6582 38.1268C75.7567 37.9973 75.8446 37.863 75.9218 37.7241C75.9995 37.5955 76.0808 37.4303 76.1656 37.2284L76.3078 36.9093C76.4026 36.6965 76.5631 36.5539 76.7893 36.4813C77.0254 36.3978 77.2446 36.4038 77.447 36.4991C77.6597 36.5939 77.8076 36.7542 77.8906 36.9799C77.9732 37.1952 77.9673 37.4144 77.873 37.6376L77.7308 37.9567C77.6175 38.2224 77.5073 38.441 77.4003 38.6126C77.2828 38.7846 77.1655 38.9619 77.0485 39.1443C76.8705 39.3607 76.5696 39.6295 76.146 39.9507C75.7129 40.2931 75.2645 40.5268 74.8008 40.6516C74.3788 40.7746 74.002 40.859 73.6704 40.905C73.3686 40.9184 73.0668 40.9318 72.765 40.9451C72.4207 40.9396 71.9494 40.8927 71.3511 40.8045C70.6899 40.7087 70.1303 40.551 69.6722 40.3315C69.214 40.112 68.8493 39.8831 68.578 39.6449C68.3086 39.4483 68.069 39.2191 67.8593 38.9573C67.649 38.6851 67.3801 38.2643 67.0523 37.6949C66.7468 37.1559 66.5207 36.6445 66.3741 36.161C66.2284 35.6982 66.137 35.2852 66.1 34.9219C66.0648 34.6002 66.045 34.2727 66.0406 33.9392C66.0357 33.5953 66.0465 33.2508 66.0728 32.9055C66.0991 32.5602 66.2298 31.981 66.4647 31.1677C66.7095 30.3435 66.8981 29.7773 67.0303 29.4691C67.1843 29.1807 67.3442 28.9078 67.51 28.6502C67.6848 28.3609 67.916 28.0483 68.2034 27.7123C68.5098 27.3338 68.911 26.9771 69.407 26.6423C69.8817 26.298 70.2677 26.0672 70.5649 25.9497C70.8204 25.8341 71.082 25.7391 71.3498 25.6647C71.629 25.6106 71.9707 25.559 72.3752 25.5098C72.7602 25.4927 73.0781 25.489 73.3288 25.4988C73.57 25.5298 73.8166 25.5658 74.0687 25.6067C74.3326 25.6785 74.6603 25.7786 75.0518 25.9072C75.4234 26.0576 75.7262 26.1849 75.9603 26.2893C76.173 26.3841 76.3702 26.4796 76.5517 26.5759L76.7765 26.7066C76.9893 26.8015 77.1322 26.9672 77.2053 27.2038ZM91.5935 29.9912C91.7264 29.9332 91.828 29.8713 91.898 29.8057C91.9681 29.74 92.0221 29.6646 92.06 29.5795C92.1069 29.4627 92.147 29.3098 92.1803 29.1206C92.2132 28.921 92.2456 28.5964 92.2778 28.1466C92.3198 27.6859 92.3493 27.2936 92.3661 26.9696C92.3825 26.6353 92.4136 26.0448 92.4593 25.1982C92.5508 23.5049 92.992 22.6408 93.7829 22.6057C94.1159 22.591 94.3476 22.6433 94.478 22.7626C94.6085 22.882 94.6811 23.1081 94.6959 23.4411C94.7033 23.6076 94.6521 23.9801 94.5423 24.5584C93.8876 28.1221 93.6135 31.1007 93.7201 33.4942C93.8396 36.1791 94.3603 37.9233 95.2824 38.727C95.4124 38.836 95.5163 38.9461 95.5943 39.0573C95.6821 39.1577 95.7377 39.2334 95.7608 39.2845C95.7943 39.3352 95.8113 39.3657 95.8118 39.3761C95.8187 39.5322 95.6802 39.7 95.3962 39.8794C95.0417 40.1141 94.7292 40.2374 94.4586 40.2494C93.8447 40.2766 93.3233 39.6897 92.8944 38.4888C92.4656 37.2879 92.1945 35.4126 92.081 32.8631C92.0653 32.5092 91.9548 32.2535 91.7497 32.0957C91.6202 31.9972 91.4774 31.9514 91.3213 31.9583C90.4367 31.9975 89.3624 32.1077 88.0984 32.2889C86.8131 32.4605 85.8939 32.6577 85.3407 32.8803C84.6736 33.1184 84.251 33.3457 84.0729 33.5621C83.8953 33.789 83.7612 34.2902 83.6706 35.0658C83.5872 35.7681 83.5624 36.4991 83.5962 37.2587L83.6858 39.2724C83.7076 39.7615 83.6344 40.1088 83.4663 40.3144C83.2986 40.5303 83.0119 40.6473 82.606 40.6653C82.2938 40.6791 82.0605 40.5904 81.906 40.3992C81.7624 40.2179 81.6792 39.8722 81.6565 39.3623C81.6232 38.6131 81.6745 37.6567 81.8104 36.4933C82.0565 34.2928 82.233 30.526 82.3397 25.1932C82.354 24.5774 82.3842 24.2006 82.4302 24.0631C82.4667 23.9467 82.6062 23.7998 82.8485 23.6222C83.0805 23.4451 83.3369 23.3503 83.6179 23.3379C83.9197 23.3245 84.1192 23.3574 84.2166 23.4365C84.3135 23.5051 84.3664 23.6384 84.3752 23.8361C84.3717 23.9926 84.2858 24.7576 84.1176 26.131C83.9396 27.755 83.8705 29.0145 83.9104 29.9095C83.9275 30.2945 84.0251 30.6134 84.2032 30.8662C84.3813 31.119 84.6316 31.2382 84.9542 31.2239C85.6827 31.1916 86.9874 30.9878 88.8684 30.6125C89.0652 30.5829 89.3031 30.5411 89.5823 30.487C89.8718 30.4325 90.0889 30.3916 90.2337 30.3643C90.3889 30.3366 90.5698 30.3025 90.7766 30.262C90.9829 30.2112 91.1373 30.1678 91.24 30.132C91.3526 30.0853 91.4704 30.0384 91.5935 29.9912ZM107.252 38.8377C107.116 39.0523 106.918 39.1757 106.659 39.2081L106.162 39.2927C105.738 39.374 105.201 39.3665 104.55 39.2703C103.911 39.1943 103.319 39.0277 102.776 38.7702C102.275 38.5317 101.858 38.2948 101.525 38.0593C101.169 37.7936 100.731 37.3333 100.212 36.6786C99.6935 36.0447 99.3265 35.5292 99.1107 35.1321C98.9044 34.7137 98.7254 33.9709 98.5736 32.9037C98.4024 31.8686 98.3376 31.1155 98.3792 30.6445C98.4435 30.2141 98.5897 29.6341 98.8179 28.9046C99.0561 28.1641 99.3147 27.5323 99.5938 27.009C99.8828 26.4748 100.161 26.0558 100.429 25.752C100.718 25.4368 101.149 25.0632 101.725 24.631C102.341 24.1971 103.094 23.8874 103.982 23.702C104.85 23.5176 105.488 23.4372 105.895 23.4608C106.283 23.5062 106.848 23.6584 107.589 23.9175C108.31 24.1879 108.843 24.4354 109.186 24.66C109.54 24.8737 109.914 25.1908 110.308 25.6113C110.702 26.0317 110.99 26.4204 111.173 26.7772C111.378 27.1539 111.586 27.7442 111.799 28.5481C112.001 29.3316 112.106 30.0516 112.114 30.7081C112.142 31.3221 112.134 31.8438 112.09 32.2732C112.068 32.7017 111.953 33.2959 111.747 34.0558C111.542 34.8365 111.305 35.4778 111.035 35.9798C110.735 36.5041 110.33 37.0017 109.819 37.4727C109.308 37.9437 108.895 38.2592 108.579 38.4192C108.283 38.5678 107.841 38.7073 107.252 38.8377ZM103.345 37.1497C103.597 36.9508 103.871 36.897 104.167 36.9881L104.659 37.154C104.923 37.2257 105.212 37.2755 105.526 37.3032C105.829 37.3107 106.239 37.2664 106.756 37.1705C107.273 37.0746 107.613 36.9814 107.776 36.8907C107.959 36.7992 108.252 36.5725 108.652 36.2106C109.044 35.87 109.336 35.513 109.528 35.1395C109.72 34.7661 109.9 34.2576 110.07 33.614C110.249 32.9492 110.352 32.4546 110.379 32.1301C110.405 31.7849 110.411 31.3258 110.396 30.753C110.372 30.2223 110.278 29.6269 110.113 28.9669C109.959 28.3169 109.814 27.8749 109.679 27.6411C109.542 27.3865 109.326 27.1041 109.031 26.794C108.735 26.4734 108.469 26.2402 108.234 26.0942C108.008 25.9374 107.593 25.7577 106.99 25.555C106.407 25.3411 105.984 25.219 105.722 25.1889C105.482 25.1787 105.026 25.2407 104.354 25.3747C103.724 25.5069 103.186 25.734 102.742 26.0561C102.267 26.4004 101.94 26.6704 101.761 26.866C101.583 27.0824 101.374 27.4097 101.133 27.8479C100.891 28.2757 100.664 28.8071 100.453 29.4421C100.251 30.0662 100.137 30.5353 100.109 30.8493C100.081 31.1529 100.128 31.7504 100.251 32.6416C100.394 33.5112 100.539 34.0834 100.687 34.3584C100.826 34.6546 101.11 35.0643 101.54 35.5875C101.97 36.121 102.304 36.4816 102.542 36.6692C102.747 36.8373 103.015 36.9975 103.345 37.1497ZM122.572 22.1429L123.082 22.3549C125.288 23.1955 126.471 25.4005 126.63 28.9699C126.75 31.6859 126.044 34.0946 124.511 36.1958C123.175 38.2674 121.706 39.3387 120.103 39.4098C118.594 39.4767 117.357 38.859 116.392 37.5567C115.404 36.2137 114.85 34.1842 114.729 31.4681C114.58 28.1277 114.992 24.7259 115.964 21.2628C116.932 17.9562 118.124 15.4427 119.538 13.7221C120.892 12.0459 122.313 11.1748 123.801 11.1088C124.738 11.0673 125.501 11.3359 126.089 11.9146C126.679 12.514 126.999 13.3757 127.049 14.4996C127.089 15.405 126.737 16.5154 125.993 17.8309C125.219 19.179 124.208 20.4698 122.959 21.7034L122.572 22.1429ZM116.711 26.0938L117.54 25.4002C120.992 22.1295 123.135 19.7927 123.969 18.3898C124.906 16.9511 125.356 15.8103 125.318 14.9673C125.288 14.2805 125.102 13.7465 124.762 13.3654C124.422 12.9843 123.95 12.8071 123.346 12.8338C122.025 12.8924 120.772 14.0323 119.588 16.2536C118.443 18.4002 117.546 21.3282 116.898 25.0376L116.711 26.0938ZM124.559 29.5465L124.558 29.5153C124.482 27.7982 124.128 26.4167 123.498 25.3707C122.875 24.2617 122.199 23.7234 121.471 23.7557C121.408 23.7585 121.346 23.7717 121.285 23.7952C121.223 23.8188 121.152 23.8585 121.071 23.9142C120.99 23.9595 120.909 24.01 120.828 24.0658C120.757 24.121 120.662 24.2034 120.542 24.313C120.421 24.4122 120.31 24.5058 120.21 24.5936C120.11 24.6919 119.975 24.823 119.805 24.9869C119.646 25.1504 119.506 25.2974 119.387 25.4278C119.267 25.5478 119.097 25.7169 118.878 25.9352C118.668 26.153 118.484 26.3385 118.324 26.4915C117.812 26.9521 117.31 27.381 116.817 27.7783L116.696 27.8775L116.673 28.0505C116.55 29.0361 116.514 30.1117 116.566 31.2772C116.659 33.3689 117.031 34.9425 117.683 35.998C118.38 37.1245 119.233 37.6653 120.242 37.6206C121.595 37.5606 122.666 36.6738 123.455 34.9601C124.278 33.297 124.646 31.4925 124.559 29.5465ZM140.795 27.8102C140.928 27.7521 141.03 27.6903 141.1 27.6246C141.17 27.559 141.224 27.4836 141.262 27.3985C141.309 27.2817 141.349 27.1287 141.382 26.9396C141.415 26.74 141.447 26.4153 141.479 25.9655C141.521 25.5049 141.551 25.1126 141.568 24.7886C141.584 24.4542 141.615 23.8637 141.661 23.0171C141.752 21.3239 142.194 20.4598 142.985 20.4247C143.318 20.4099 143.549 20.4622 143.68 20.5816C143.81 20.7009 143.883 20.9271 143.898 21.2601C143.905 21.4266 143.854 21.799 143.744 22.3774C143.089 25.9411 142.815 28.9197 142.922 31.3132C143.041 33.998 143.562 35.7423 144.484 36.546C144.614 36.6549 144.718 36.765 144.796 36.8763C144.884 36.9766 144.939 37.0524 144.962 37.1035C144.996 37.1541 145.013 37.1847 145.013 37.1951C145.02 37.3512 144.882 37.5189 144.598 37.6983C144.243 37.933 143.931 38.0563 143.66 38.0683C143.046 38.0956 142.525 37.5087 142.096 36.3078C141.667 35.1068 141.396 33.2316 141.283 30.682C141.267 30.3282 141.157 30.0724 140.951 29.9147C140.822 29.8162 140.679 29.7704 140.523 29.7773C139.638 29.8165 138.564 29.9267 137.3 30.1078C136.015 30.2795 135.096 30.4766 134.542 30.6993C133.875 30.9374 133.453 31.1647 133.275 31.3811C133.097 31.6079 132.963 32.1091 132.872 32.8848C132.789 33.5871 132.764 34.318 132.798 35.0777L132.887 37.0913C132.909 37.5804 132.836 37.9278 132.668 38.1333C132.5 38.3493 132.214 38.4663 131.808 38.4843C131.496 38.4981 131.262 38.4094 131.108 38.2181C130.964 38.0368 130.881 37.6912 130.858 37.1813C130.825 36.432 130.876 35.4757 131.012 34.3123C131.258 32.1117 131.435 28.345 131.541 23.0121C131.556 22.3963 131.586 22.0196 131.632 21.882C131.668 21.7657 131.808 21.6188 132.05 21.4412C132.282 21.2641 132.539 21.1693 132.82 21.1568C133.121 21.1435 133.321 21.1763 133.418 21.2554C133.515 21.3241 133.568 21.4573 133.577 21.655C133.573 21.8116 133.488 22.5766 133.319 23.9499C133.141 25.574 133.072 26.8335 133.112 27.7285C133.129 28.1135 133.227 28.4324 133.405 28.6852C133.583 28.938 133.833 29.0572 134.156 29.0429C134.884 29.0106 136.189 28.8068 138.07 28.4315C138.267 28.4019 138.505 28.36 138.784 28.306C139.073 28.2514 139.291 28.2105 139.435 28.1832C139.591 28.1555 139.772 28.1214 139.978 28.081C140.185 28.0301 140.339 27.9868 140.442 27.951C140.554 27.9043 140.672 27.8573 140.795 27.8102ZM146.837 21.599C146.827 21.37 146.838 21.1454 146.87 20.925C146.912 20.7042 146.981 20.4874 147.076 20.2746C147.17 20.0619 147.315 19.9043 147.508 19.8019C147.712 19.699 147.951 19.678 148.225 19.7388C148.293 20.3406 148.338 21.3344 148.358 22.7203C148.387 24.0953 148.426 25.0841 148.474 25.6868C148.605 25.8269 148.803 26.0424 149.066 26.3331C149.493 26.0952 150.177 25.7573 151.116 25.3194C153 25.0065 154.504 24.9294 155.626 25.0882C156.078 25.3914 156.4 25.6117 156.594 25.7491C156.788 25.8865 157.063 26.0985 157.42 26.385C157.776 26.6612 158.07 26.9401 158.302 27.2218C158.533 27.4931 158.734 27.7866 158.904 28.1022C159.01 28.3791 159.087 28.6885 159.133 29.0305C159.179 29.3621 159.197 29.6481 159.187 29.8883C159.187 30.1177 159.175 30.4467 159.153 30.8752C159.14 31.2928 159.132 31.5851 159.129 31.7521C158.546 32.7164 157.763 33.5122 156.78 34.1397C155.796 34.7568 154.767 35.183 153.693 35.4183C152.619 35.6432 151.502 35.7292 150.342 35.6764C149.995 35.6083 149.682 35.4971 149.404 35.3426C149.126 35.188 148.888 34.9901 148.69 34.7486C148.491 34.4968 148.318 34.2438 148.171 33.9896C148.034 33.735 147.912 33.4328 147.802 33.0832C147.693 32.7335 147.606 32.4245 147.542 32.1563C147.478 31.888 147.412 31.5781 147.344 31.2266C146.945 27.8868 146.776 24.6776 146.837 21.599ZM148.942 28.4813C148.985 30.3771 149.059 31.7971 149.163 32.7413C149.271 32.8095 149.433 32.9535 149.652 33.1732C149.87 33.3825 150.075 33.5455 150.268 33.662C150.461 33.7786 150.672 33.8318 150.901 33.8217C151.59 33.8433 152.26 33.8031 152.913 33.7012C153.575 33.5884 154.224 33.4085 154.859 33.1613C155.505 32.9137 156.063 32.5501 156.531 32.0706C157.01 31.5802 157.344 30.9971 157.533 30.3214C157.498 29.7807 157.47 29.3805 157.448 29.1209C157.403 29.0394 157.312 28.8766 157.176 28.6324C157.04 28.3778 156.949 28.2098 156.903 28.1284C156.399 27.5772 155.787 27.1821 155.068 26.9429C154.358 26.7032 153.64 26.6204 152.914 26.6943C152.187 26.7578 151.47 26.9459 150.765 27.2587C150.07 27.5711 149.462 27.9786 148.942 28.4813ZM161.509 19.1656C161.604 19.1927 161.726 19.2342 161.875 19.2902C162.033 19.3353 162.202 19.3903 162.383 19.4553C162.573 19.5095 162.705 19.5453 162.778 19.5629C163.085 21.0612 163.313 22.6829 163.464 24.428C163.614 26.1626 163.695 27.7491 163.707 29.1875C163.719 30.6155 163.698 32.2534 163.644 34.1013C163.375 34.1445 162.75 34.2661 161.768 34.466C161.73 33.6127 161.729 32.7734 161.765 31.9481C161.952 30.9909 162.051 29.9334 162.062 28.7755C162.073 27.6177 162.021 26.5513 161.904 25.5763C161.798 24.6009 161.704 23.5363 161.621 22.3826C161.538 21.2184 161.501 20.1461 161.509 19.1656ZM168.688 27.2306C168.833 27.2242 168.979 27.2281 169.126 27.2425C169.293 27.2351 169.642 27.2352 170.174 27.2429C170.716 27.2398 171.107 27.2329 171.346 27.2223C171.585 27.2117 171.814 27.1911 172.032 27.1606C172.249 27.1197 172.657 27.0442 173.257 26.9342C173.847 26.8455 174.225 26.7766 174.39 26.7276C174.565 26.6782 174.806 26.5841 175.112 26.4453C175.388 26.3288 175.567 26.2427 175.648 26.187C175.708 26.1218 175.792 26.0242 175.901 25.8942C175.98 25.8073 176.048 25.6844 176.103 25.5255C176.158 25.3355 176.193 25.1983 176.21 25.1142C176.207 25.0309 176.167 24.8398 176.091 24.5408C176.015 24.2417 175.954 24.0515 175.909 23.9701C175.843 23.8896 175.707 23.7549 175.5 23.566C175.304 23.3661 175.105 23.229 174.903 23.1545C174.658 23.0402 174.446 22.961 174.267 22.9168C174.087 22.8622 173.783 22.8236 173.355 22.8009C172.946 22.7564 172.607 22.761 172.339 22.8146C172.079 22.847 171.776 22.9438 171.429 23.1052C171.081 23.2562 170.836 23.3765 170.694 23.4662C170.553 23.5767 170.353 23.7785 170.095 24.0714C169.837 24.354 169.593 24.735 169.364 25.2143C169.105 25.7159 168.949 26.0773 168.896 26.2986C168.841 26.4679 168.772 26.7785 168.688 27.2306ZM166.816 27.7046C166.85 27.5362 166.884 27.3523 166.917 27.1527C167.034 26.5115 167.144 26.0478 167.246 25.7618C167.337 25.4762 167.532 25.0401 167.829 24.4534C168.146 23.845 168.473 23.3405 168.809 22.9398C169.137 22.5603 169.416 22.282 169.648 22.1049C169.9 21.9061 170.261 21.7076 170.732 21.5095C171.213 21.3005 171.665 21.1605 172.09 21.0896C172.494 21.0299 172.963 21.0196 173.496 21.0585C174.03 21.0974 174.434 21.1577 174.708 21.2394C174.983 21.3106 175.284 21.4119 175.613 21.5433C175.986 21.7145 176.336 21.9597 176.663 22.2788C177.022 22.607 177.258 22.8729 177.371 23.0764C177.505 23.279 177.64 23.6223 177.776 24.1063C177.902 24.5908 177.96 24.9532 177.95 25.1934C177.939 25.4233 177.874 25.7129 177.754 26.0623C177.625 26.433 177.461 26.7531 177.265 27.0224C177.066 27.2398 176.881 27.4148 176.71 27.5476C176.528 27.6807 176.222 27.8455 175.793 28.0418C175.414 28.1837 175.106 28.2964 174.87 28.3798C174.644 28.4524 174.205 28.5449 173.553 28.6572C172.942 28.7677 172.502 28.8393 172.233 28.8721C171.963 28.9049 171.693 28.9273 171.423 28.9393C171.183 28.9499 170.782 28.9573 170.219 28.9614C169.656 28.9655 169.286 28.9662 169.109 28.9637C168.942 28.9606 168.786 28.9624 168.64 28.9688C168.577 28.9716 168.499 28.975 168.406 28.9792C168.392 29.1466 168.379 29.3088 168.365 29.4659C168.353 29.6749 168.387 30.0749 168.465 30.6657C168.543 31.2462 168.607 31.6291 168.657 31.8146C168.708 32.0209 168.785 32.2312 168.888 32.4456C168.959 32.6301 169.108 32.9259 169.335 33.333C169.538 33.6889 169.732 33.9566 169.918 34.1361C170.136 34.3662 170.326 34.5298 170.487 34.6269C170.616 34.7255 170.877 34.8495 171.27 34.9989C171.663 35.1691 172.013 35.2944 172.319 35.3747C172.624 35.4446 172.975 35.4811 173.372 35.4844C173.8 35.5071 174.092 35.5046 174.247 35.4769C174.372 35.4713 174.613 35.3877 174.971 35.2258C175.288 35.0867 175.497 34.9783 175.598 34.9009C175.698 34.813 175.788 34.71 175.866 34.5918C175.944 34.4737 176.054 34.2602 176.197 33.9515C176.328 33.6225 176.421 33.3681 176.476 33.1884C176.53 32.9984 176.575 32.8296 176.61 32.682L176.661 32.4295C176.692 32.1883 176.804 32.0009 176.996 31.8672C177.198 31.7331 177.415 31.6818 177.646 31.7133C177.887 31.7443 178.075 31.8611 178.209 32.0637C178.353 32.2554 178.409 32.4667 178.378 32.6975L178.329 32.9968C178.275 33.2077 178.207 33.4401 178.125 33.694C178.052 33.9371 177.931 34.2553 177.761 34.6486C177.592 35.0628 177.428 35.3776 177.271 35.5931C177.124 35.7977 176.955 35.9877 176.765 36.1629C176.565 36.3595 176.204 36.5788 175.683 36.8209C175.161 37.0317 174.76 37.1589 174.48 37.2026C174.221 37.235 173.836 37.2416 173.324 37.2226C172.791 37.2045 172.32 37.1472 171.909 37.0507C171.497 36.9439 171.063 36.7963 170.606 36.608C170.107 36.3903 169.733 36.2035 169.487 36.0476C169.271 35.8904 169.016 35.6671 168.722 35.3777C168.406 35.0685 168.111 34.6645 167.839 34.1656C167.558 33.7089 167.369 33.3419 167.274 33.0646C167.158 32.809 167.063 32.5578 166.99 32.3108C166.915 32.0326 166.831 31.5567 166.739 30.883C166.656 30.1985 166.624 29.7099 166.642 29.4171C166.65 29.1352 166.669 28.8529 166.698 28.57C166.696 28.5076 166.703 28.4447 166.721 28.3813C166.718 28.3189 166.716 28.2669 166.714 28.2252C166.686 28.0493 166.72 27.8757 166.816 27.7046ZM206.512 24.897C206.645 24.839 206.746 24.7772 206.816 24.7115C206.886 24.6458 206.94 24.5704 206.978 24.4853C207.025 24.3686 207.065 24.2156 207.099 24.0264C207.132 23.8269 207.164 23.5022 207.196 23.0524C207.238 22.5918 207.268 22.1995 207.285 21.8755C207.301 21.5411 207.332 20.9506 207.378 20.104C207.469 18.4108 207.91 17.5466 208.701 17.5116C209.034 17.4968 209.266 17.5491 209.396 17.6685C209.527 17.7878 209.6 18.014 209.614 18.347C209.622 18.5135 209.571 18.8859 209.461 19.4642C208.806 23.028 208.532 26.0066 208.638 28.4C208.758 31.0849 209.279 32.8292 210.201 33.6329C210.331 33.7418 210.435 33.8519 210.513 33.9631C210.601 34.0635 210.656 34.1392 210.679 34.1904C210.713 34.241 210.73 34.2715 210.73 34.2819C210.737 34.438 210.599 34.6058 210.315 34.7852C209.96 35.0199 209.648 35.1432 209.377 35.1552C208.763 35.1824 208.242 34.5956 207.813 33.3946C207.384 32.1937 207.113 30.3184 206.999 27.7689C206.984 27.4151 206.873 27.1593 206.668 27.0016C206.539 26.903 206.396 26.8572 206.24 26.8641C205.355 26.9034 204.281 27.0135 203.017 27.1947C201.732 27.3664 200.812 27.5635 200.259 27.7861C199.592 28.0243 199.169 28.2515 198.991 28.468C198.814 28.6948 198.68 29.196 198.589 29.9716C198.506 30.6739 198.481 31.4049 198.515 32.1646L198.604 34.1782C198.626 34.6673 198.553 35.0146 198.385 35.2202C198.217 35.4362 197.93 35.5532 197.524 35.5711C197.212 35.585 196.979 35.4963 196.824 35.305C196.681 35.1237 196.598 34.7781 196.575 34.2682C196.542 33.5189 196.593 32.5626 196.729 31.3992C196.975 29.1986 197.151 25.4319 197.258 20.099C197.272 19.4832 197.303 19.1065 197.349 18.9689C197.385 18.8526 197.525 18.7056 197.767 18.5281C197.999 18.3509 198.255 18.2562 198.536 18.2437C198.838 18.2303 199.038 18.2632 199.135 18.3423C199.232 18.411 199.285 18.5442 199.294 18.7419C199.29 18.8985 199.204 19.6634 199.036 21.0368C198.858 22.6609 198.789 23.9204 198.829 24.8153C198.846 25.2004 198.944 25.5193 199.122 25.772C199.3 26.0248 199.55 26.1441 199.873 26.1298C200.601 26.0975 201.906 25.8937 203.787 25.5183C203.984 25.4887 204.222 25.4469 204.501 25.3928C204.79 25.3383 205.007 25.2974 205.152 25.2701C205.307 25.2424 205.488 25.2083 205.695 25.1679C205.901 25.117 206.056 25.0737 206.158 25.0378C206.271 24.9911 206.389 24.9442 206.512 24.897ZM224.328 29.1591C224.216 28.9764 224.099 28.7991 223.976 28.6273C223.82 28.3944 223.643 28.1572 223.444 27.9158C223.267 27.6838 222.854 27.3163 222.206 26.8133C221.633 26.3486 221.257 26.089 221.077 26.0344C220.928 25.9784 220.652 25.9802 220.248 26.0398C219.803 26.1013 219.411 26.2125 219.074 26.3734C218.696 26.5362 218.406 26.695 218.204 26.8499C218.012 26.994 217.837 27.1477 217.677 27.3112C217.536 27.4217 217.344 27.6753 217.101 28.0718C216.837 28.4693 216.678 28.7527 216.623 28.922C216.569 29.1121 216.517 29.3594 216.468 29.6639C216.44 29.9676 216.44 30.2022 216.468 30.3677C216.475 30.5342 216.55 30.8124 216.693 31.2024C216.834 31.561 216.976 31.8206 217.119 31.9811C217.294 32.1819 217.462 32.3204 217.622 32.3968C217.772 32.4944 217.933 32.5915 218.104 32.6882C218.285 32.774 218.571 32.8708 218.962 32.9786C219.31 33.0675 219.609 33.1116 219.859 33.1109C220.14 33.0984 220.373 33.0516 220.557 32.9705C220.763 32.9196 220.973 32.8373 221.187 32.7236C221.411 32.6094 221.64 32.4741 221.873 32.3178C222.054 32.1846 222.394 31.8464 222.891 31.303C223.356 30.7506 223.638 30.3992 223.736 30.2489C223.832 30.0778 223.919 29.9123 223.995 29.7526C224.103 29.6018 224.214 29.404 224.328 29.1591ZM225.865 29.9512C225.73 30.197 225.624 30.3946 225.547 30.544C225.472 30.7142 225.36 30.912 225.214 31.1374C225.079 31.3832 224.734 31.826 224.178 32.4659C223.613 33.1061 223.173 33.5323 222.859 33.7443C222.565 33.945 222.266 34.1199 221.959 34.269C221.664 34.4281 221.373 34.5557 221.085 34.6519C220.766 34.7494 220.393 34.8076 219.967 34.8266C219.52 34.8672 219.027 34.8056 218.488 34.6418C217.993 34.5178 217.617 34.3885 217.36 34.2539C217.115 34.1292 216.869 33.9838 216.622 33.8175C216.375 33.6616 216.119 33.4279 215.855 33.1163C215.538 32.7863 215.284 32.3492 215.093 31.805C214.903 31.2817 214.785 30.8594 214.74 30.5382C214.705 30.2373 214.715 29.8772 214.77 29.4577C214.835 29.0482 214.913 28.6902 215.003 28.3838C215.094 28.0774 215.3 27.6616 215.62 27.1365C215.942 26.6322 216.233 26.2595 216.493 26.0186C216.724 25.8207 216.972 25.6325 217.235 25.454C217.508 25.2646 217.863 25.0507 218.301 24.8124C218.802 24.5816 219.373 24.4156 220.015 24.3141C220.668 24.2226 221.201 24.2459 221.613 24.384C221.983 24.4927 222.568 24.8682 223.368 25.5105C223.225 25.1102 223.112 24.7868 223.028 24.5403C222.887 24.1816 222.684 23.7318 222.42 23.1908C222.137 22.6717 221.894 22.2653 221.694 21.9718C221.493 21.6784 221.268 21.4329 221.02 21.2353C220.824 21.0563 220.455 20.8381 219.911 20.5807C219.368 20.3232 218.902 20.1614 218.513 20.0952C218.084 20.0517 217.739 20.0253 217.478 20.016C217.217 20.0275 216.963 20.0492 216.714 20.0811C216.507 20.1112 216.127 20.2531 215.576 20.507C215.177 20.6915 214.918 20.8437 214.798 20.9637L214.622 21.2218C214.506 21.4146 214.329 21.5424 214.092 21.605C213.865 21.6568 213.644 21.6196 213.43 21.4936C213.226 21.3567 213.092 21.1749 213.03 20.9482C212.978 20.7107 213.026 20.4949 213.173 20.3006L213.348 20.0114C213.572 19.6573 214.067 19.3017 214.834 18.9445C215.549 18.6105 216.098 18.4141 216.481 18.3554C216.803 18.3203 217.13 18.2953 217.463 18.2806C217.807 18.2862 218.247 18.3188 218.781 18.3786C219.337 18.4582 219.962 18.6651 220.654 18.9993C221.347 19.3336 221.856 19.6551 222.183 19.9638C222.498 20.2522 222.805 20.5827 223.103 20.9553C223.38 21.3288 223.668 21.8166 223.966 22.4185C224.274 23.0201 224.5 23.5314 224.644 23.9525C224.787 24.3528 224.979 24.923 225.221 25.663C225.462 26.4031 225.636 26.9167 225.743 27.2039C225.86 27.5011 225.968 27.8195 226.067 28.1592C226.175 28.4881 226.253 28.7192 226.301 28.8527L226.302 28.8839C226.414 29.0458 226.393 29.2813 226.24 29.5905L225.865 29.9512ZM229.431 18.7041C229.557 18.49 229.728 18.3521 229.944 18.2903C230.171 18.2282 230.386 18.2655 230.591 18.4025C230.805 18.5285 230.937 18.6947 230.988 18.901L231.101 19.3183C231.177 19.6381 231.232 19.9224 231.264 20.1713C231.295 20.4097 231.344 20.9289 231.411 21.7288C231.446 22.5196 231.474 23.1388 231.494 23.5863C231.505 23.8256 231.516 24.0806 231.528 24.3512C231.565 24.2453 231.602 24.1498 231.64 24.0647C231.963 23.1119 232.3 22.3619 232.651 21.8146C233.033 21.2659 233.328 20.8774 233.537 20.6492C233.808 20.3974 234.213 20.1448 234.755 19.8914C235.276 19.6597 235.672 19.5223 235.941 19.4791C236.149 19.4699 236.362 19.4604 236.581 19.4507C236.863 19.4591 237.243 19.583 237.723 19.8224C238.225 20.0816 238.649 20.4695 238.995 20.9859C239.296 21.4209 239.603 22.1216 239.918 23.0878C240.239 23.9911 240.463 24.6746 240.588 25.1382C240.692 25.6028 240.874 26.309 241.135 27.2567C241.366 28.2266 241.548 29.0318 241.681 29.6724C241.791 30.2827 241.892 30.8986 241.982 31.5202C242.082 32.131 242.147 32.5348 242.177 32.7316C242.184 32.8981 242.203 33.0849 242.233 33.2921L242.248 33.6199C242.279 33.8583 242.215 34.0645 242.056 34.2384C241.907 34.4118 241.714 34.509 241.475 34.53C241.246 34.5506 241.035 34.4818 240.84 34.3236C240.656 34.1753 240.549 33.9872 240.518 33.7592L240.505 33.4782C240.475 33.271 240.456 33.0789 240.448 32.902C240.42 32.7364 240.372 32.3528 240.303 31.7511C240.215 31.1815 240.116 30.5967 240.006 29.9969C239.875 29.3875 239.689 28.6189 239.45 27.6911C239.199 26.743 239.022 26.047 238.919 25.6032C238.795 25.1603 238.584 24.5076 238.284 23.645C238.008 22.8231 237.769 22.2446 237.566 21.9095C237.388 21.6567 237.187 21.4831 236.964 21.3888C236.771 21.2722 236.617 21.206 236.502 21.1903C236.398 21.1949 236.283 21.2 236.158 21.2055C236.055 21.2309 235.825 21.3246 235.467 21.4864C235.108 21.6274 234.879 21.7575 234.781 21.8766C234.64 22.0079 234.419 22.3045 234.116 22.7662C233.812 23.1864 233.526 23.7986 233.26 24.6028C232.974 25.4497 232.808 26.0514 232.761 26.4079C232.694 26.7759 232.648 27.3774 232.623 28.2127C232.577 29.0697 232.567 29.7844 232.593 30.3568C232.618 30.9291 232.628 31.3771 232.621 31.7006C232.638 32.0648 232.631 32.3883 232.602 32.6711C232.604 32.7128 232.606 32.7648 232.609 32.8272C232.612 32.8897 232.591 33.0001 232.546 33.1585C232.51 33.306 232.453 33.4181 232.373 33.4946C232.293 33.5711 232.166 33.6393 231.991 33.6992C231.827 33.7586 231.617 33.721 231.36 33.5864C231.233 33.5295 231.12 33.4667 231.023 33.398C230.937 33.3289 230.877 33.2637 230.843 33.2027C230.808 33.1312 230.784 33.0645 230.771 33.0025C230.758 32.9406 230.751 32.8888 230.749 32.8471L230.746 32.7847C230.647 32.445 230.57 32.1147 230.514 31.794C230.458 31.4732 230.376 30.9242 230.269 30.147C230.149 29.339 230.059 28.5975 229.998 27.9224C229.936 27.237 229.886 26.4572 229.847 25.5831C229.81 24.7506 229.781 24.1106 229.761 23.6631C229.741 23.2156 229.714 22.5964 229.679 21.8056C229.623 21.0364 229.581 20.5586 229.552 20.3723C229.545 20.2058 229.504 19.9938 229.43 19.7364L229.35 19.3333C229.278 19.128 229.305 18.9182 229.431 18.7041ZM247.153 27.8658L247.353 28.1385C247.441 28.2596 247.661 28.4011 248.013 28.5628C248.408 28.785 248.986 28.994 249.745 29.1898C250.486 29.4176 251.008 29.5509 251.312 29.5896C251.626 29.6277 252.112 29.6427 252.768 29.6345C253.362 29.629 253.988 29.523 254.647 29.3166C255.325 29.0988 255.745 28.9342 255.907 28.8228C256.069 28.7113 256.332 28.4182 256.697 27.9432C257.041 27.4796 257.272 27.0314 257.388 26.5988C257.492 26.125 257.538 25.7632 257.527 25.5134C257.517 25.2741 257.34 24.6928 256.996 23.7696C256.63 22.8057 256.369 22.2177 256.214 22.0057C256.036 21.7529 255.724 21.4174 255.277 20.9993C254.832 20.5915 254.432 20.286 254.079 20.0827C253.747 19.8888 253.339 19.7349 252.854 19.6208C252.369 19.4964 252.023 19.4387 251.814 19.448C251.617 19.4567 251.205 19.5845 250.58 19.8311C249.996 20.0655 249.51 20.3843 249.121 20.7873C248.691 21.1922 248.404 21.5281 248.259 21.7952C248.105 22.0836 247.897 22.6767 247.634 23.5746C247.352 24.4839 247.194 25.1582 247.161 25.5976C247.128 26.0265 247.125 26.7826 247.153 27.8658ZM247.221 30.0993C247.233 30.3595 247.252 30.5724 247.281 30.7379C247.324 31.2469 247.407 31.9471 247.531 32.8383C247.656 33.792 247.785 34.683 247.915 35.5114C248.036 36.3402 248.113 36.9051 248.147 37.2059C248.181 37.486 248.218 37.8545 248.259 38.3114C248.3 38.758 248.324 39.0593 248.33 39.2154L248.34 39.4339C248.351 39.6733 248.271 39.8801 248.102 40.0545C247.943 40.2283 247.744 40.3206 247.504 40.3312C247.275 40.3414 247.074 40.2669 246.9 40.1077C246.726 39.9486 246.634 39.7494 246.623 39.51L246.613 39.2915C246.608 39.1666 246.585 38.8861 246.545 38.45C246.505 38.0242 246.463 37.6768 246.42 37.4076C246.387 37.1275 246.31 36.5731 246.19 35.7443C246.068 34.8947 245.946 34.0138 245.822 33.1017C245.696 32.148 245.611 31.4063 245.566 30.8765C245.528 30.4924 245.493 29.9257 245.459 29.1764C245.446 28.8747 245.431 28.5365 245.414 28.1618C245.399 26.88 245.411 25.9723 245.449 25.4388C245.488 24.9053 245.656 24.1159 245.954 23.0704C246.273 22.0345 246.539 21.3293 246.751 20.9549C246.974 20.5593 247.349 20.0943 247.878 19.5599C248.427 19.0038 249.121 18.556 249.961 18.2163C250.76 17.8994 251.342 17.738 251.707 17.7323C252.091 17.6944 252.61 17.7548 253.263 17.9135C253.917 18.0723 254.49 18.2919 254.982 18.5725C255.443 18.8544 255.929 19.2499 256.442 19.759C256.975 20.2463 257.352 20.6466 257.575 20.96C257.85 21.2919 258.196 22.0221 258.611 23.1506C259.047 24.2887 259.259 25.0613 259.246 25.4685C259.263 25.8536 259.202 26.3568 259.063 26.9781C258.906 27.6732 258.586 28.3391 258.104 28.9757C257.62 29.5914 257.211 30.0162 256.878 30.25C256.584 30.4506 256.016 30.6896 255.174 30.9668C254.35 31.2118 253.543 31.3414 252.751 31.3557C252.022 31.3671 251.463 31.345 251.075 31.2892C250.697 31.233 250.096 31.0824 249.271 30.8374C248.427 30.6037 247.743 30.3577 247.221 30.0993ZM273.624 26.9739C273.511 26.7912 273.394 26.6139 273.272 26.4421C273.115 26.2092 272.938 25.972 272.739 25.7306C272.562 25.4986 272.15 25.1311 271.502 24.6281C270.928 24.1634 270.552 23.9038 270.372 23.8492C270.224 23.7932 269.947 23.795 269.543 23.8547C269.098 23.9161 268.707 24.0273 268.37 24.1882C267.991 24.351 267.701 24.5098 267.499 24.6647C267.308 24.8088 267.132 24.9625 266.972 25.126C266.831 25.2365 266.639 25.4901 266.396 25.8866C266.132 26.2841 265.973 26.5675 265.918 26.7368C265.864 26.9269 265.812 27.1742 265.763 27.4787C265.735 27.7824 265.735 28.017 265.763 28.1826C265.771 28.3491 265.846 28.6273 265.988 29.0172C266.129 29.3759 266.271 29.6354 266.414 29.796C266.59 29.9967 266.757 30.1352 266.917 30.2116C267.068 30.3092 267.228 30.4063 267.399 30.503C267.581 30.5888 267.866 30.6856 268.257 30.7934C268.605 30.8823 268.904 30.9264 269.154 30.9257C269.435 30.9132 269.668 30.8664 269.852 30.7853C270.058 30.7344 270.268 30.6521 270.482 30.5384C270.707 30.4242 270.935 30.2889 271.168 30.1326C271.35 29.9994 271.689 29.6612 272.186 29.1178C272.652 28.5654 272.933 28.214 273.031 28.0637C273.128 27.8926 273.214 27.7272 273.29 27.5674C273.398 27.4166 273.509 27.2188 273.624 26.9739ZM275.16 27.766C275.025 28.0118 274.919 28.2094 274.843 28.3588C274.767 28.529 274.656 28.7268 274.509 28.9522C274.374 29.198 274.029 29.6409 273.474 30.2807C272.908 30.9209 272.468 31.3471 272.154 31.5591C271.861 31.7598 271.561 31.9347 271.255 32.0838C270.96 32.2429 270.668 32.3705 270.38 32.4667C270.061 32.5642 269.689 32.6225 269.262 32.6414C268.815 32.682 268.323 32.6204 267.784 32.4567C267.288 32.3327 266.912 32.2033 266.656 32.0687C266.41 31.944 266.164 31.7986 265.917 31.6323C265.67 31.4764 265.415 31.2427 265.151 30.9311C264.834 30.6011 264.58 30.164 264.388 29.6199C264.198 29.0965 264.08 28.6742 264.035 28.353C264.001 28.0522 264.011 27.692 264.065 27.2725C264.13 26.863 264.208 26.505 264.299 26.1986C264.389 25.8922 264.595 25.4764 264.916 24.9513C265.237 24.447 265.528 24.0743 265.789 23.8334C266.02 23.6355 266.267 23.4473 266.53 23.2688C266.803 23.0794 267.159 22.8656 267.596 22.6272C268.097 22.3964 268.668 22.2304 269.31 22.1289C269.963 22.0374 270.496 22.0607 270.909 22.1988C271.278 22.3076 271.863 22.6831 272.664 23.3253C272.521 22.925 272.407 22.6016 272.323 22.3551C272.182 21.9964 271.98 21.5466 271.716 21.0057C271.432 20.4865 271.19 20.0801 270.989 19.7866C270.788 19.4932 270.564 19.2477 270.315 19.0502C270.119 18.8711 269.75 18.6529 269.207 18.3955C268.663 18.138 268.197 17.9762 267.809 17.91C267.379 17.8665 267.034 17.8401 266.773 17.8308C266.513 17.8423 266.258 17.8641 266.009 17.8959C265.802 17.926 265.423 18.0679 264.871 18.3218C264.473 18.5063 264.213 18.6585 264.094 18.7785L263.917 19.0366C263.801 19.2294 263.624 19.3572 263.387 19.4198C263.16 19.4716 262.939 19.4344 262.725 19.3084C262.521 19.1715 262.388 18.9897 262.326 18.7631C262.273 18.5256 262.321 18.3097 262.469 18.1155L262.644 17.8262C262.868 17.4722 263.363 17.1166 264.129 16.7594C264.844 16.4253 265.393 16.2289 265.776 16.1702C266.098 16.1351 266.425 16.1102 266.758 16.0954C267.103 16.101 267.542 16.1336 268.076 16.1934C268.633 16.273 269.257 16.4799 269.95 16.8141C270.642 17.1484 271.152 17.4699 271.478 17.7786C271.794 18.067 272.1 18.3975 272.398 18.7701C272.676 19.1436 272.963 19.6314 273.261 20.2333C273.569 20.8349 273.796 21.3462 273.939 21.7673C274.082 22.1676 274.275 22.7378 274.516 23.4778C274.757 24.2179 274.932 24.7315 275.038 25.0187C275.156 25.3159 275.264 25.6343 275.362 25.9741C275.471 26.3029 275.549 26.534 275.596 26.6675L275.598 26.6987C275.709 26.8606 275.688 27.0961 275.535 27.4053L275.16 27.766ZM285.943 14.9009L286.453 15.1129C288.659 15.9535 289.842 18.1585 290 21.7279C290.121 24.4439 289.415 26.8526 287.882 28.9538C286.546 31.0254 285.076 32.0967 283.474 32.1678C281.965 32.2347 280.728 31.617 279.763 30.3147C278.775 28.9717 278.221 26.9422 278.1 24.2261C277.951 20.8857 278.363 17.4839 279.335 14.0208C280.303 10.7142 281.495 8.20066 282.909 6.48008C284.263 4.8039 285.684 3.93282 287.172 3.86686C288.109 3.82534 288.871 4.09391 289.46 4.67257C290.05 5.27204 290.37 6.13372 290.42 7.25761C290.46 8.16296 290.108 9.27339 289.364 10.5889C288.59 11.937 287.578 13.2278 286.33 14.4614L285.943 14.9009ZM280.081 18.8518L280.911 18.1582C284.363 14.8875 286.506 12.5507 287.34 11.1478C288.277 9.70909 288.727 8.56826 288.689 7.72535C288.658 7.03853 288.473 6.50455 288.133 6.1234C287.793 5.74226 287.321 5.56507 286.717 5.59182C285.396 5.65041 284.143 6.79034 282.959 9.0116C281.814 11.1582 280.917 14.0862 280.269 17.7956L280.081 18.8518ZM287.93 22.3045L287.929 22.2733C287.852 20.5562 287.499 19.1747 286.869 18.1287C286.246 17.0198 285.57 16.4814 284.842 16.5137C284.779 16.5165 284.717 16.5297 284.656 16.5532C284.594 16.5768 284.523 16.6165 284.442 16.6722C284.361 16.7175 284.279 16.768 284.198 16.8238C284.128 16.879 284.033 16.9615 283.912 17.0711C283.792 17.1702 283.681 17.2638 283.581 17.3516C283.481 17.4499 283.346 17.581 283.176 17.7449C283.016 17.9084 282.877 18.0554 282.758 18.1858C282.638 18.3058 282.468 18.4749 282.248 18.6932C282.039 18.911 281.855 19.0965 281.694 19.2495C281.183 19.7101 280.681 20.139 280.188 20.5363L280.067 20.6355L280.043 20.8086C279.92 21.7941 279.885 22.8697 279.937 24.0352C280.03 26.1269 280.402 27.7005 281.054 28.756C281.751 29.8825 282.604 30.4234 283.613 30.3786C284.966 30.3186 286.037 29.4318 286.826 27.7181C287.649 26.055 288.017 24.2505 287.93 22.3045ZM301.687 16.8775C301.301 16.8737 300.98 17.2737 300.724 18.0775C298.977 22.649 297.64 25.7529 296.712 27.3893C296.614 27.5292 296.493 27.7327 296.348 27.9998C295.976 28.7671 295.609 29.4246 295.247 29.9724C294.897 30.5405 294.623 30.9385 294.424 31.1662C294.228 31.446 294.083 31.588 293.99 31.5921C293.678 31.606 293.46 31.5218 293.337 31.3395C293.205 31.1786 293.129 30.8848 293.11 30.4581C293.086 29.9066 293.524 29.0895 294.425 28.0069C295.368 26.7034 296.527 24.5249 297.903 21.4714C299.237 18.6387 300.307 16.0993 301.114 13.853C301.201 13.4633 301.338 13.2644 301.526 13.256C301.63 13.2514 301.851 13.3094 302.19 13.4299C302.478 13.5735 302.656 13.7116 302.725 13.8441C302.84 14.0893 303.102 15.0578 303.511 16.7497C304.251 20.0118 305.002 22.5904 305.764 24.4856C306.531 26.5057 307.321 27.8471 308.132 28.5097C308.433 28.7153 308.611 28.8482 308.666 28.9083C308.687 28.9074 308.697 28.9017 308.697 28.8913C308.711 29.2139 308.646 29.514 308.502 29.7914C308.358 30.0689 308.22 30.2419 308.087 30.3103C307.945 30.3896 307.603 30.4413 307.062 30.4653C306.826 30.3089 306.38 29.7917 305.726 28.9135C304.929 27.8749 303.937 24.9159 302.75 20.0366C302.451 18.7048 302.208 17.8084 302.021 17.3475L301.906 16.8834L301.687 16.8775ZM313.327 20.819C313.472 20.8125 313.619 20.8165 313.765 20.8308C313.932 20.8234 314.281 20.8236 314.813 20.8313C315.355 20.8281 315.746 20.8212 315.985 20.8106C316.225 20.8 316.453 20.7795 316.671 20.749C316.888 20.708 317.296 20.6326 317.896 20.5226C318.487 20.4338 318.864 20.365 319.029 20.316C319.204 20.2665 319.445 20.1724 319.751 20.0337C320.028 19.9172 320.206 19.8311 320.287 19.7753C320.347 19.7101 320.431 19.6126 320.54 19.4826C320.62 19.3957 320.687 19.2728 320.743 19.1139C320.797 18.9238 320.832 18.7867 320.85 18.7025C320.846 18.6193 320.806 18.4281 320.73 18.1291C320.654 17.8301 320.594 17.6399 320.548 17.5585C320.482 17.478 320.346 17.3433 320.139 17.1543C319.943 16.9545 319.744 16.8173 319.542 16.7429C319.297 16.6286 319.085 16.5494 318.906 16.5052C318.726 16.4506 318.422 16.4119 317.994 16.3892C317.585 16.3448 317.247 16.3493 316.978 16.403C316.719 16.4353 316.415 16.5322 316.068 16.6935C315.72 16.8445 315.475 16.9648 315.333 17.0546C315.192 17.1651 314.993 17.3668 314.735 17.6598C314.476 17.9423 314.232 18.3233 314.003 18.8027C313.744 19.3042 313.588 19.6656 313.536 19.8869C313.481 20.0562 313.411 20.3669 313.327 20.819ZM311.455 21.2929C311.49 21.1246 311.523 20.9406 311.556 20.7411C311.673 20.0998 311.783 19.6362 311.885 19.3501C311.977 19.0646 312.171 18.6284 312.468 18.0418C312.785 17.4334 313.112 16.9288 313.449 16.5281C313.776 16.1487 314.055 15.8704 314.287 15.6933C314.539 15.4944 314.901 15.296 315.371 15.0978C315.852 14.8888 316.305 14.7489 316.729 14.6779C317.133 14.6183 317.602 14.6079 318.135 14.6469C318.669 14.6858 319.073 14.7461 319.348 14.8277C319.622 14.899 319.924 15.0003 320.253 15.1317C320.625 15.3029 320.975 15.548 321.302 15.8672C321.661 16.1954 321.897 16.4612 322.01 16.6647C322.144 16.8673 322.279 17.2106 322.416 17.6947C322.541 18.1792 322.599 18.5415 322.589 18.7818C322.579 19.0117 322.513 19.3013 322.393 19.6507C322.264 20.0214 322.101 20.3414 321.904 20.6108C321.705 20.8282 321.52 21.0032 321.349 21.1359C321.167 21.2691 320.862 21.4338 320.432 21.6301C320.053 21.7721 319.745 21.8847 319.509 21.9682C319.283 22.0408 318.844 22.1332 318.192 22.2456C317.582 22.356 317.142 22.4277 316.872 22.4605C316.602 22.4933 316.332 22.5157 316.062 22.5277C315.822 22.5383 315.421 22.5456 314.858 22.5497C314.296 22.5538 313.925 22.5546 313.748 22.552C313.581 22.549 313.425 22.5507 313.279 22.5572C313.217 22.5599 313.139 22.5634 313.045 22.5676C313.031 22.735 313.018 22.8972 313.004 23.0542C312.992 23.2633 313.026 23.6632 313.104 24.2541C313.182 24.8345 313.246 25.2175 313.296 25.403C313.347 25.6092 313.424 25.8196 313.528 26.034C313.598 26.2185 313.747 26.5143 313.974 26.9213C314.177 27.2772 314.372 27.5449 314.557 27.7244C314.776 27.9545 314.965 28.1182 315.126 28.2153C315.256 28.3138 315.517 28.4378 315.909 28.5872C316.302 28.7575 316.652 28.8828 316.958 28.963C317.264 29.0329 317.615 29.0695 318.011 29.0728C318.439 29.0955 318.731 29.093 318.886 29.0652C319.011 29.0597 319.253 28.976 319.61 28.8142C319.927 28.675 320.136 28.5667 320.237 28.4892C320.338 28.4014 320.427 28.2984 320.505 28.1802C320.583 28.062 320.694 27.8486 320.836 27.5399C320.968 27.2108 321.06 26.9565 321.115 26.7768C321.169 26.5867 321.214 26.4179 321.249 26.2704L321.3 26.0179C321.331 25.7767 321.443 25.5892 321.635 25.4556C321.837 25.3215 322.054 25.2702 322.285 25.3017C322.526 25.3327 322.714 25.4495 322.848 25.6521C322.992 25.8438 323.048 26.0551 323.017 26.2858L322.968 26.5852C322.915 26.7961 322.847 27.0285 322.764 27.2824C322.692 27.5254 322.57 27.8436 322.4 28.237C322.231 28.6511 322.067 28.9659 321.91 29.1814C321.763 29.3861 321.594 29.576 321.404 29.7513C321.204 29.9478 320.844 30.1671 320.323 30.4092C319.8 30.62 319.399 30.7473 319.12 30.791C318.86 30.8233 318.475 30.83 317.963 30.811C317.431 30.7929 316.959 30.7356 316.548 30.6391C316.136 30.5322 315.702 30.3846 315.246 30.1963C314.746 29.9787 314.373 29.7919 314.126 29.636C313.91 29.4787 313.655 29.2554 313.361 28.9661C313.045 28.6569 312.751 28.2528 312.478 27.754C312.197 27.2972 312.009 26.9302 311.913 26.6529C311.797 26.3974 311.703 26.1461 311.629 25.8991C311.554 25.6209 311.47 25.145 311.378 24.4714C311.295 23.7869 311.263 23.2982 311.281 23.0055C311.29 22.7236 311.308 22.4412 311.338 22.1584C311.335 22.096 311.342 22.0331 311.36 21.9697C311.358 21.9073 311.355 21.8552 311.353 21.8136C311.325 21.6376 311.359 21.4641 311.455 21.2929ZM336.665 19.1275C336.798 19.0695 336.9 19.0076 336.97 18.942C337.04 18.8763 337.094 18.8009 337.132 18.7158C337.179 18.5991 337.219 18.4461 337.252 18.2569C337.285 18.0574 337.317 17.7327 337.35 17.2829C337.392 16.8223 337.421 16.4299 337.438 16.106C337.454 15.7716 337.485 15.1811 337.531 14.3345C337.623 12.6413 338.064 11.7771 338.855 11.7421C339.188 11.7273 339.419 11.7796 339.55 11.8989C339.68 12.0183 339.753 12.2445 339.768 12.5775C339.775 12.744 339.724 13.1164 339.614 13.6947C338.959 17.2585 338.685 20.2371 338.792 22.6305C338.911 25.3154 339.432 27.0597 340.354 27.8634C340.484 27.9723 340.588 28.0824 340.666 28.1936C340.754 28.294 340.809 28.3697 340.833 28.4208C340.866 28.4715 340.883 28.502 340.884 28.5124C340.891 28.6685 340.752 28.8363 340.468 29.0157C340.114 29.2504 339.801 29.3737 339.53 29.3857C338.917 29.4129 338.395 28.8261 337.966 27.6251C337.537 26.4242 337.266 24.5489 337.153 21.9994C337.137 21.6456 337.027 21.3898 336.822 21.232C336.692 21.1335 336.549 21.0877 336.393 21.0946C335.509 21.1338 334.434 21.244 333.17 21.4252C331.885 21.5969 330.966 21.794 330.413 22.0166C329.745 22.2547 329.323 22.482 329.145 22.6985C328.967 22.9253 328.833 23.4265 328.742 24.2021C328.659 24.9044 328.634 25.6354 328.668 26.3951L328.758 28.4087C328.779 28.8978 328.706 29.2451 328.538 29.4507C328.37 29.6667 328.084 29.7836 327.678 29.8016C327.366 29.8155 327.132 29.7268 326.978 29.5355C326.834 29.3542 326.751 29.0086 326.728 28.4987C326.695 27.7494 326.746 26.7931 326.882 25.6296C327.128 23.4291 327.305 19.6624 327.412 14.3295C327.426 13.7137 327.456 13.337 327.502 13.1994C327.539 13.0831 327.678 12.9361 327.92 12.7585C328.152 12.5814 328.409 12.4867 328.69 12.4742C328.992 12.4608 329.191 12.4937 329.288 12.5728C329.385 12.6415 329.438 12.7747 329.447 12.9724C329.444 13.129 329.358 13.8939 329.189 15.2673C329.011 16.8914 328.942 18.1509 328.982 19.0458C328.999 19.4309 329.097 19.7498 329.275 20.0025C329.453 20.2553 329.703 20.3746 330.026 20.3603C330.755 20.328 332.059 20.1242 333.94 19.7488C334.137 19.7192 334.375 19.6774 334.654 19.6233C334.944 19.5688 335.161 19.5279 335.306 19.5006C335.461 19.4729 335.642 19.4388 335.848 19.3983C336.055 19.3475 336.209 19.3041 336.312 19.2683C336.424 19.2216 336.542 19.1747 336.665 19.1275ZM354.143 19.6509L353.427 21.1372C352.365 23.4991 351.258 25.3363 350.107 26.649C348.985 27.9291 347.899 28.5924 346.848 28.639C346.276 28.6644 345.656 28.3165 344.988 27.5954C344.308 26.8539 343.932 25.6611 343.859 24.0169C343.796 22.6224 344.027 20.5321 344.549 17.7458C344.989 15.4428 345.197 13.7965 345.174 12.807C345.384 12.3702 345.718 12.1417 346.176 12.1214C346.488 12.1075 346.743 12.2057 346.94 12.4159C347.147 12.6361 347.257 12.8659 347.267 13.1052C347.298 13.7816 347.097 14.7811 346.666 16.1036C345.796 18.8114 345.403 21.1227 345.489 23.0375C345.576 25.0043 346.145 25.9644 347.196 25.9178C348.237 25.8717 349.446 24.9162 350.823 23.0513C352.16 21.2299 353.289 18.7347 354.212 15.5657C354.575 14.361 354.879 13.5811 355.124 13.2262C355.31 12.9572 355.57 12.8154 355.903 12.8006C356.142 12.79 356.317 12.8552 356.428 12.9963C356.538 13.127 356.602 13.39 356.619 13.7855C356.615 13.9108 356.537 14.2792 356.387 14.8906C355.861 17.3643 355.647 19.6885 355.743 21.8635C355.863 24.5587 356.384 26.303 357.306 27.0963C357.436 27.2156 357.54 27.3309 357.618 27.4422C357.706 27.5425 357.762 27.6183 357.785 27.6694C357.818 27.72 357.835 27.7506 357.836 27.761C357.842 27.9067 357.704 28.0744 357.42 28.2642C357.066 28.4989 356.753 28.6222 356.483 28.6342C355.931 28.6587 355.441 28.1956 355.013 27.2448C354.538 26.1815 354.253 24.5675 354.156 22.403L354.132 21.8567C354.125 21.6902 354.122 21.5182 354.125 21.3409L354.143 19.6509ZM364.376 11.2989C364.835 11.0805 365.297 10.9036 365.76 10.7684C366.223 10.6331 366.709 10.5438 367.218 10.5004C367.737 10.4461 368.23 10.5025 368.696 10.6695C369.172 10.8256 369.575 11.0997 369.906 11.4917C370.051 11.4749 370.342 11.4516 370.778 11.4218C371.215 11.392 371.506 11.3739 371.652 11.3674C372.368 16.4448 372.713 21.3979 372.688 26.2267C372.575 26.2526 372.343 26.315 371.993 26.4139C371.653 26.502 371.426 26.5642 371.313 26.6005C371.253 25.7169 371.196 25.0208 371.142 24.5123C371.098 24.0033 371.018 23.376 370.902 22.6304C370.795 21.874 370.671 21.1861 370.528 20.5668C369.702 21.4376 369.04 22.1395 368.542 22.6725C368.055 23.205 367.469 23.8722 366.785 24.6741C366.112 25.4651 365.514 26.2111 364.993 26.9119C364.907 27.093 364.793 27.2336 364.652 27.3337C364.52 27.4229 364.366 27.4663 364.188 27.4637C364.011 27.4612 363.849 27.4475 363.701 27.4227C363.554 27.398 363.375 27.359 363.165 27.3058C362.953 27.2422 362.795 27.2023 362.69 27.1861C362.73 27.153 362.821 27.0916 362.963 27.0019C363.105 26.9122 363.196 26.8508 363.237 26.8177C363.455 26.3388 363.756 25.8458 364.141 25.3388C364.525 24.8317 364.896 24.3929 365.255 24.0225C365.614 23.6521 366.006 23.2176 366.433 22.7191C366.859 22.2205 367.203 21.7569 367.465 21.3282C366.893 21.3536 366.323 21.3215 365.756 21.2319C365.189 21.1319 364.634 20.9741 364.093 20.7582C363.562 20.542 363.089 20.2292 362.675 19.8201C362.261 19.411 361.963 18.9341 361.782 18.3895C361.164 17.1552 361.189 15.71 361.855 14.0539C362.584 12.8538 363.424 11.9355 364.376 11.2989ZM365.333 12.7736C365.019 12.9752 364.704 13.1716 364.39 13.3629C362.98 14.9581 362.589 16.357 363.216 17.5596C363.531 18.3276 364.094 18.9022 364.903 19.2834C365.713 19.6646 366.52 19.7644 367.325 19.5827C368.587 19.1097 369.627 18.3598 370.447 17.3329C370.445 17.2912 370.451 17.1763 370.463 16.9881C370.486 16.7994 370.496 16.679 370.494 16.627C370.501 16.5641 370.512 16.4437 370.525 16.2659C370.538 16.088 370.542 15.9627 370.539 15.8899C370.536 15.817 370.536 15.7023 370.54 15.5458C370.543 15.3788 370.537 15.2539 370.523 15.1711C370.519 15.0775 370.508 14.9632 370.492 14.8284C370.475 14.6832 370.454 14.5642 370.429 14.4715C370.404 14.3683 370.368 14.2604 370.321 14.1478C370.284 14.0243 370.242 13.9063 370.196 13.7936C369.946 13.5753 369.573 13.279 369.077 12.9048C368.591 12.5197 368.25 12.2481 368.055 12.0899C367.472 12.1053 366.964 12.1591 366.53 12.2514C366.096 12.3436 365.697 12.5177 365.333 12.7736Z" fill="#242424"/>
</svg>
