<svg width="362" height="313" viewBox="0 0 362 313" fill="none" xmlns="http://www.w3.org/2000/svg">
<path d="M5 80.8717C38.5338 86.9193 117.458 92.9669 164.884 68.7765C224.167 38.5386 248.719 16.5473 218.778 6.10143C188.837 -4.34443 140.308 57.7336 133.147 89.6682C124.764 127.053 138.536 157.841 209.197 113.309C279.858 68.7765 233.15 77.4161 209.197 96.187C170.288 126.679 140.932 191.378 179.855 198.525C218.778 205.672 300.217 164.438 300.217 127.053C300.217 89.6682 187.64 181.482 198.418 213.919C209.197 246.356 219.976 282.092 266.684 265.048C313.391 248.005 374.471 199.075 352.315 188.629C330.158 178.183 255.905 268.897 278.061 307.931" stroke="#0CE9CA" stroke-width="9" stroke-linecap="round"/>
</svg>
