<svg width="227" height="256" viewBox="0 0 227 256" fill="none" xmlns="http://www.w3.org/2000/svg">
<path fill-rule="evenodd" clip-rule="evenodd" d="M8.3419 47.1034L110.784 45.1425L130.818 41.1137L23.0328 17.5133C24.7334 14.9947 26.5394 12.5241 28.4542 10.1056C28.5935 9.92962 28.7332 9.75404 28.8734 9.57889L152.752 36.7031L244.48 18.2573L28.9203 9.52032C31.3435 6.49499 33.8847 3.59518 36.5342 0.821533L255.974 9.7158C259.865 13.9048 263.626 18.2354 267.255 22.6682C267.299 22.7224 267.343 22.7766 267.388 22.8309L174.607 41.4884L184.823 43.7252L281.782 41.8692C283.811 44.7966 285.777 47.7601 287.67 50.7582L222.629 52.0032L274.766 63.4189H282.116L282.244 65.0565L297.728 68.4467C299.435 71.8305 301.033 75.2514 302.511 78.7073L277.425 73.2145C230.894 80.5542 165.7 90.8335 109.511 99.684L199.69 118.435C208.877 118.924 218.167 119.422 227.516 119.926L310.531 102.664C311.231 105.584 311.833 108.524 312.329 111.483L262.595 121.824C279.756 122.758 296.92 123.698 313.811 124.628C313.981 127.619 314.038 130.627 313.975 133.651C295.589 132.638 276.874 131.613 258.188 130.598L313.482 142.095C313.293 144.06 313.052 146.032 312.757 148.009C312.606 149.02 312.446 150.03 312.278 151.037L217.189 131.266L122.956 150.859L280.961 156.207L312.146 151.816C311.317 156.647 310.288 161.436 309.065 166.164L281.44 165.229L198.087 176.967L301.355 189.234C300.152 192.141 298.87 195.011 297.511 197.84L163.177 181.883L78.5971 193.795L295.691 201.515C294.162 204.511 292.545 207.458 290.842 210.348L27.5417 200.985L22.7473 201.66C21.2027 198.376 19.744 195.037 18.3675 191.653L27.0704 191.962L128.168 177.725L42.6215 167.563L12.0071 173.929C11.1043 171.061 10.2521 168.172 9.4483 165.269L14.4854 164.221L8.98346 163.568C7.49252 158.041 6.17509 152.463 5.01725 146.868L84.9348 149.573L193.044 127.093C185.107 126.671 177.257 126.256 169.523 125.848C122.165 123.355 79.1723 121.174 47.4386 119.715C31.5694 118.985 18.5302 118.436 9.17328 118.118C5.89501 118.007 3.07961 117.924 0.758981 117.872C0.475093 114.504 0.268046 111.134 0.142578 107.77C4.82506 107.039 11.3992 106.008 19.4874 104.738C30.3667 103.03 43.9831 100.889 59.4161 98.4604L0.51047 86.2124C0.735037 83.1956 1.0355 80.1928 1.41543 77.2081L84.5777 94.4997L95.7897 92.7342C136.439 86.3325 183.192 78.9632 224.697 72.4189H20.3458L19.4586 63.5072L61.3106 55.0912L5.55432 56.1584C6.38291 53.1069 7.31069 50.0869 8.3419 47.1034ZM251.364 255.099L39.5367 230.127C37.1898 226.942 34.9636 223.654 32.853 220.277L260.951 247.167C257.874 249.941 254.677 252.588 251.364 255.099ZM85.7097 158.604L229.407 163.468L163.078 172.809L70.3621 161.795L85.7097 158.604ZM47.689 157.317L42.226 158.453L26.6756 156.606L47.689 157.317ZM84.3543 103.646L140.496 115.319C104.882 113.473 72.8755 111.875 47.8521 110.724C45.6029 110.621 43.4099 110.521 41.2755 110.425C53.9532 108.431 68.5601 106.133 84.3543 103.646ZM183.934 52.7439L232.688 63.4189H65.5494L111.765 54.1254L183.934 52.7439Z" fill="#927FFF"/>
</svg>
