<svg width="41" height="32" viewBox="0 0 41 32" fill="none" xmlns="http://www.w3.org/2000/svg">
<path d="M4.62255 16.17C6.7869 17.8813 4.62255 26.0104 2.89151 32C8.51816 29.433 15.5296 19.5926 19.3384 17.8813C24.0994 15.7421 24.0994 7.61378 19.3384 3.76315C14.3586 -0.264438 11.5477 -1.79856 4.62255 2.90721C-2.59066 7.80876 2.56663 14.5444 4.62255 16.17Z" fill="#242424"/>
<path d="M22.6225 16.17C24.7869 17.8813 22.6225 26.0104 20.8915 32C26.5182 29.433 33.5296 19.5926 37.3384 17.8813C42.0994 15.7421 42.0994 7.61378 37.3384 3.76315C32.3586 -0.264438 29.5477 -1.79856 22.6225 2.90721C15.4093 7.80876 20.5666 14.5444 22.6225 16.17Z" fill="#242424"/>
</svg>
