<svg width="173" height="199" viewBox="0 0 173 199" fill="none" xmlns="http://www.w3.org/2000/svg">
<path fill-rule="evenodd" clip-rule="evenodd" d="M-52.3504 15.119C-50.7505 12.6403 -49.0227 10.2191 -47.1614 7.86193C-45.0921 5.24145 -42.9092 2.7415 -40.623 0.362793L127.858 7.20545C130.975 10.5526 133.983 14.0186 136.882 17.5694C137.294 18.0738 137.704 18.58 138.113 19.0879L70.1514 32.782L73.1197 33.4333L147.798 32.0009C149.824 34.9184 151.772 37.8826 153.623 40.8908L110.849 41.7112L142.364 48.6256H147.909L148.006 49.8635L160.159 52.5298C161.866 55.8974 163.436 59.3127 164.847 62.7725L144.267 58.2571C109.987 63.6752 62.6227 71.1584 20.7615 77.7662L84.5958 91.0659C91.5972 91.44 98.6768 91.8202 105.8 92.2044L170.096 78.8085C170.811 81.7254 171.4 84.6685 171.851 87.6361L140.801 94.1053C151.509 94.6905 162.191 95.2774 172.733 95.8593C172.92 98.844 172.96 101.851 172.843 104.879C162.999 104.336 153.03 103.788 143.03 103.241L172.553 109.391C172.402 111.063 172.202 112.741 171.951 114.424C171.17 119.665 170.088 124.847 168.714 129.935L147.444 129.214L91.2069 137.15L163.385 145.741C162.195 148.658 160.904 151.528 159.513 154.343L56.3658 142.066L2.95512 149.603L159.103 155.167C157.589 158.179 155.962 161.126 154.223 163.999L-47.9972 156.793L-50.9297 157.207C-52.4507 154.046 -53.8669 150.816 -55.184 147.531L-48.4694 147.771L21.4262 137.908L-36.3982 131.025L-59.403 135.818C-61.7768 128.449 -63.7142 120.897 -65.2729 113.305C-65.2943 113.201 -65.3157 113.097 -65.3369 112.992L-3.96303 115.074L71.3845 99.375C67.9585 99.1932 64.5571 99.0132 61.1843 98.8352C24.7308 96.9118 -8.36035 95.23 -32.7842 94.1045C-44.9984 93.5416 -55.0305 93.1185 -62.2267 92.8737C-64.5979 92.793 -66.6516 92.732 -68.3683 92.6918C-68.6753 89.3933 -68.8883 86.093 -69 82.7993C-65.4178 82.2385 -60.4668 81.4608 -54.4139 80.5085C-47.371 79.4005 -38.8378 78.0562 -29.2359 76.5426L-68.8088 68.2977C-68.6197 65.2741 -68.3338 62.2673 -67.9449 59.2844L-4.12202 72.5817L4.31999 71.2497C31.4471 66.9689 62.1055 62.1273 90.6009 57.6256H-53.5911L-54.4799 48.7142L-33.4627 44.4793L-65.2413 45.0888C-64.462 42.0288 -63.5564 39.0081 -62.5174 36.0349L15.9106 34.5306L26.4475 32.4074L-52.3504 15.119ZM123.004 198.391L-37.4541 179.437C-39.8577 176.281 -42.1026 172.987 -44.1976 169.578L132.657 190.469C129.594 193.28 126.374 195.927 123.004 198.391ZM110.347 15.5017L48.3389 27.9963L-35.6326 9.57289L110.347 15.5017ZM97.9306 103.037L166.82 117.39L146.964 120.192L33.984 116.361L97.9306 103.037ZM-3.18665 124.105L95.5143 127.453L56.2672 132.991L-8.71289 125.257L-3.18665 124.105ZM-4.34583 81.7284L25.6103 87.9696C5.80766 86.9532 -12.1957 86.0582 -27.3061 85.3495C-20.176 84.2255 -12.4657 83.0094 -4.34583 81.7284ZM72.2294 42.452L100.368 48.6256H-8.47696L16.8937 43.5134L72.2294 42.452Z" fill="#927FFF"/>
</svg>
