<svg width="1451.000000" height="1209.000000" viewBox="0 0 1451 1209" fill="none" xmlns="http://www.w3.org/2000/svg" xmlns:xlink="http://www.w3.org/1999/xlink">
	<desc>
			Created with Pixso.
	</desc>
	<defs/>
	<path id="Subtract" d="M0 171.157L1450 171.157L1450 1091.84Q1411.84 1101.97 1346.72 1136.45C1243.71 1181.65 1226.83 1159.48 1227.42 1116.5C1246.41 1073.12 1088.44 1111.67 1039.43 1143.13C990.422 1174.59 783.508 1188.52 809.752 1139.79C829.628 1122.84 846.095 1102.35 724.854 1153.15C588.13 1216.76 579.129 1169.86 578.496 1153.15C578.239 1146.4 564.086 1150.22 546.018 1155.1C519.426 1162.28 484.354 1171.75 472.625 1153.15C463.028 1137.94 415.686 1148.33 369.308 1158.51C320.488 1169.22 272.738 1179.7 271.205 1159.84C290.341 1120.61 239.125 1121.73 117.56 1163.18C68.4893 1184.5 29.3027 1199.77 0 1209L0 171.157Z" clip-rule="evenodd" fill="#99D7FC" fill-opacity="1.000000" fill-rule="evenodd"/>
	<path id="Subtract" d="M1 1037.84L1451 1037.84L1451 117.159Q1412.84 107.033 1347.72 72.5511C1244.71 27.3453 1227.83 49.5186 1228.42 92.4971C1247.41 135.876 1089.44 97.3292 1040.43 65.8691C991.422 34.4092 784.508 20.4763 810.752 69.2101C830.628 86.155 847.095 106.646 725.854 55.8463C589.13 -7.76379 580.129 39.1414 579.496 55.8463C579.239 62.6046 565.086 58.7822 547.018 53.9024C520.426 46.7207 485.354 37.2488 473.625 55.8463C464.028 71.0627 416.686 60.6716 370.308 50.4921C321.488 39.777 273.738 29.2963 272.205 49.1643C291.341 88.3881 240.125 87.2744 118.56 45.8233C69.4893 24.5013 30.3027 9.22681 1 0L1 1037.84Z" clip-rule="evenodd" fill="#99D7FC" fill-opacity="1.000000" fill-rule="evenodd"/>
</svg>
