<svg width="1440" height="1833" viewBox="0 0 1440 1833" fill="none" xmlns="http://www.w3.org/2000/svg">
<path fill-rule="evenodd" clip-rule="evenodd" d="M-11 259.496L1439 259.496L1439 1655.37C1413.56 1665.61 1379.14 1688.15 1335.72 1723C1232.7 1791.54 1215.83 1757.92 1216.42 1692.76C1235.41 1626.99 1077.44 1685.44 1028.43 1733.13C979.422 1780.83 772.508 1801.96 798.752 1728.07C818.628 1702.38 835.095 1671.31 713.854 1748.33C577.13 1844.77 568.129 1773.66 567.496 1748.33C567.24 1738.08 553.086 1743.88 535.018 1751.28C508.426 1762.17 473.354 1776.53 461.625 1748.33C452.028 1725.26 404.686 1741.01 358.308 1756.45C309.489 1772.69 261.738 1788.58 260.205 1758.46C279.341 1698.99 228.126 1700.68 106.56 1763.53C57.4898 1795.85 18.3032 1819.01 -10.9999 1833L-11 259.496Z" fill="#99D7FC"/>
<path fill-rule="evenodd" clip-rule="evenodd" d="M-10 1573.51L1440 1573.51L1440 177.628C1414.56 167.393 1380.14 144.85 1336.72 109.997C1233.7 41.4592 1216.83 75.0768 1217.42 140.238C1236.41 206.005 1078.44 147.564 1029.43 99.8663C980.422 52.1689 773.508 31.0449 799.752 104.932C819.628 130.622 836.095 161.689 714.854 84.6702C578.13 -11.7708 569.129 59.3434 568.496 84.6702C568.24 94.9167 554.086 89.1214 536.018 81.7231C509.426 70.8348 474.354 56.4742 462.625 84.6702C453.028 107.74 405.686 91.986 359.308 76.5526C310.489 60.307 262.738 44.4169 261.205 74.5395C280.341 134.008 229.126 132.319 107.56 69.4741C58.4898 37.1472 19.3032 13.9893 -9.99985 0.000248066L-10 1573.51Z" fill="#99D7FC"/>
</svg>
