<svg width="1440" height="1868" viewBox="0 0 1440 1868" fill="none" xmlns="http://www.w3.org/2000/svg">
<path fill-rule="evenodd" clip-rule="evenodd" d="M-3 264.451L1447 264.451L1447 1686.98C1421.56 1697.41 1387.14 1720.38 1343.72 1755.9C1240.7 1825.75 1223.83 1791.49 1224.42 1725.08C1243.41 1658.06 1085.44 1717.62 1036.43 1766.23C987.422 1814.84 780.508 1836.36 806.752 1761.06C826.628 1734.88 843.095 1703.22 721.854 1781.71C585.13 1880 576.129 1807.52 575.496 1781.71C575.24 1771.27 561.086 1777.18 543.018 1784.72C516.426 1795.81 481.354 1810.45 469.625 1781.71C460.028 1758.2 412.686 1774.26 366.308 1789.99C317.489 1806.54 269.738 1822.74 268.205 1792.04C287.341 1731.43 236.126 1733.15 114.56 1797.2C65.4898 1830.14 26.3032 1853.74 -2.99985 1868L-3 264.451Z" fill="#99D7FC"/>
<path fill-rule="evenodd" clip-rule="evenodd" d="M-2 1603.55L1448 1603.55L1448 181.02C1422.56 170.589 1388.14 147.615 1344.72 112.097C1241.7 42.2507 1224.83 76.5101 1225.42 142.915C1244.41 209.939 1086.44 150.381 1037.43 101.773C988.422 53.1649 781.508 31.6375 807.752 106.935C827.628 133.116 844.095 164.776 722.854 86.2868C586.13 -11.9958 577.129 60.4764 576.496 86.2868C576.24 96.7289 562.086 90.8229 544.018 83.2834C517.426 72.1871 482.354 57.5522 470.625 86.2868C461.028 109.797 413.686 93.7423 367.308 78.0143C318.489 61.4584 270.738 45.2649 269.205 75.9625C288.341 136.566 237.126 134.846 115.56 70.8005C66.4898 37.8563 27.3032 14.2562 -1.99985 1.6698e-06L-2 1603.55Z" fill="#99D7FC"/>
</svg>
