<svg width="28" height="20" viewBox="0 0 28 20" fill="none" xmlns="http://www.w3.org/2000/svg">
<path d="M0.679078 0.0809523C-0.218101 0.490476 -0.229042 1.50952 0.662666 1.90952C0.859608 2 1.18237 2 13.9836 2C26.6371 2 27.1076 1.99524 27.3209 1.90952C28.2181 1.54762 28.229 0.490476 27.3373 0.0904762C27.1404 0 26.8176 0 13.9891 0C2.12332 0.00476182 0.826784 0.00952375 0.679078 0.0809523Z" fill="#313132"/>
<path d="M0.805347 9.06512C0.476989 9.16279 0.258083 9.32558 0.121267 9.57674C-0.16331 10.0977 0.0665411 10.6512 0.668531 10.8884L0.947635 11H13.9999H27.0521L27.3312 10.8884C27.9496 10.6465 28.174 10.0791 27.8566 9.55349C27.6979 9.28837 27.4735 9.12558 27.1397 9.04651C27.0083 9.0186 22.4989 9 13.9725 9C3.5143 9.00465 0.964053 9.01395 0.805347 9.06512Z" fill="#313132"/>
<path d="M0.677932 18.0905C0.10894 18.3143 -0.159143 18.919 0.0979979 19.4048C0.201948 19.6095 0.524742 19.881 0.743585 19.9571C0.92413 20.0143 27.0759 20.0143 27.2564 19.9571C27.4753 19.881 27.7981 19.6095 27.902 19.4048C28.1591 18.919 27.8911 18.3143 27.3221 18.0905C27.1142 18.0048 26.5561 18 14 18C1.44388 18 0.885833 18.0048 0.677932 18.0905Z" fill="#313132"/>
</svg>
