<svg width="217" height="146" viewBox="0 0 217 146" fill="none" xmlns="http://www.w3.org/2000/svg">
<path d="M7.79631 79.4315C26.1807 76.4451 68.1782 65.5972 89.0928 46.0965C115.236 21.7206 124.592 7.2078 107.394 7.51981C90.1951 7.83181 74.5924 45.2007 75.8276 61.3408C77.2735 80.2353 89.2209 92.2146 119.063 59.1989C148.904 26.1833 125.948 38.3039 116.403 51.2105C100.898 72.1762 95.6765 107.447 117.035 104.04C138.394 100.634 174.356 67.2898 168.548 49.8471C162.741 32.4044 118.438 94.7401 129.084 108.007C139.73 121.275 150.888 136.081 172.539 120.04C194.19 103.998 218.364 70.5896 205.215 69.5533C192.067 68.517 167.529 123.702 185.119 138.077" stroke="#0CE9CA" stroke-width="15" stroke-linecap="round"/>
</svg>
