<svg width="141" height="199" viewBox="0 0 141 199" fill="none" xmlns="http://www.w3.org/2000/svg">
<path fill-rule="evenodd" clip-rule="evenodd" d="M-84.259 15.1195C-82.659 12.6405 -80.9311 10.2191 -79.0696 7.8618C-77.0005 5.24155 -74.8178 2.7418 -72.5318 0.363281L95.9504 7.20599C99.067 10.5529 102.075 14.0187 104.974 17.5692C105.386 18.0739 105.797 18.5802 106.205 19.0883L38.2431 32.7825L41.2115 33.4338L115.89 32.0014C117.916 34.9189 119.864 37.8831 121.715 40.8913L78.9412 41.7118L110.456 48.6261H116.001L116.098 49.864L128.251 52.5304C129.958 55.898 131.528 59.3133 132.939 62.7731L112.359 58.2576C78.0792 63.6757 30.7145 71.159 -11.1467 77.7667L52.6876 91.0664C59.689 91.4405 66.7686 91.8207 73.8922 92.2049L138.188 78.809C138.903 81.7259 139.492 84.669 139.942 87.6366L108.893 94.1058C119.601 94.691 130.283 95.2779 140.825 95.8598C141.012 98.8445 141.052 101.852 140.935 104.88C131.091 104.336 121.122 103.788 111.122 103.241L140.644 109.392C140.493 111.063 140.293 112.741 140.043 114.424C139.262 119.665 138.18 124.847 136.806 129.936L115.536 129.214L59.2987 137.15L131.476 145.741C130.286 148.659 128.995 151.529 127.605 154.344L24.4576 142.067L-28.9531 149.604L127.194 155.168C125.681 158.179 124.053 161.126 122.315 164L-79.9055 156.794L-82.8376 157.208C-84.3587 154.046 -85.7749 150.816 -87.0919 147.532L-80.3776 147.771L-10.482 137.908L-68.3064 131.025L-91.311 135.818C-93.685 128.449 -95.6223 120.897 -97.1812 113.305C-97.2025 113.201 -97.2238 113.097 -97.245 112.993L-35.8712 115.074L39.4763 99.3755C36.0503 99.1937 32.6488 99.0137 29.2761 98.8357C-7.17738 96.9123 -40.2686 95.2306 -64.6924 94.105C-76.9066 93.5421 -86.9387 93.119 -94.1349 92.8742C-96.5061 92.7935 -98.5598 92.7325 -100.276 92.6923C-100.583 89.3939 -100.797 86.0935 -100.908 82.7998C-97.326 82.239 -92.375 81.4613 -86.3221 80.509C-79.2792 79.401 -70.746 78.0568 -61.1441 76.5431L-100.717 68.2982C-100.528 65.2746 -100.242 62.2678 -99.8532 59.2849L-36.0302 72.5822L-27.5882 71.2502C-0.461166 66.9694 30.1972 62.1278 58.6926 57.6261H-85.4993L-86.3882 48.7147L-65.371 44.4798L-97.1497 45.0893C-96.3704 42.0294 -95.4648 39.0086 -94.4259 36.0354L-15.9976 34.5311L-5.46069 32.4079L-84.259 15.1195ZM91.0945 198.392L-69.3617 179.438C-71.7654 176.281 -74.0104 172.988 -76.1054 169.578L100.748 190.469C97.6848 193.28 94.4651 195.927 91.0945 198.392ZM78.4391 15.5022L16.4306 27.9968L-67.5408 9.57341L78.4391 15.5022ZM66.0224 103.038L134.912 117.391L115.056 120.193L2.07581 116.361L66.0224 103.038ZM-35.0949 124.106L63.6061 127.453L24.359 132.991L-40.6211 125.257L-35.0949 124.106ZM-36.254 81.7289L-6.29794 87.9702C-26.1006 86.9537 -44.1039 86.0587 -59.2143 85.35C-52.0842 84.226 -44.3739 83.0099 -36.254 81.7289ZM40.3212 42.4525L68.4593 48.6261H-40.3852L-15.0145 43.5139L40.3212 42.4525Z" fill="#0CE9CA"/>
</svg>
