<svg width="277" height="90" viewBox="0 0 277 90" fill="none" xmlns="http://www.w3.org/2000/svg">
<path d="M13.8058 25.848C13.9721 25.7755 14.099 25.6982 14.1866 25.6162C14.2742 25.5341 14.3418 25.4399 14.3892 25.3336C14.448 25.1876 14.4982 24.9964 14.5399 24.76C14.5811 24.5105 14.6218 24.1047 14.6622 23.5425C14.7151 22.9667 14.7521 22.4763 14.7734 22.0713C14.7941 21.6533 14.8333 20.9152 14.8909 19.857C15.0062 17.7405 15.5582 16.6604 16.5468 16.6169C16.9631 16.5986 17.2527 16.664 17.4157 16.8132C17.5787 16.9625 17.6693 17.2452 17.6877 17.6615C17.6968 17.8696 17.6326 18.3351 17.495 19.058C16.6746 23.5125 16.3303 27.2357 16.462 30.2276C16.6098 33.5837 17.2598 35.7642 18.4119 36.7692C18.5743 36.9054 18.7042 37.0431 18.8016 37.1821C18.9113 37.3076 18.9807 37.4023 19.0096 37.4662C19.0515 37.5295 19.0727 37.5677 19.0733 37.5807C19.0819 37.7758 18.9086 37.9855 18.5536 38.2097C18.1103 38.5029 17.7196 38.6569 17.3813 38.6718C16.6139 38.7056 15.9625 37.9719 15.4271 36.4705C14.8918 34.9692 14.554 32.625 14.4136 29.438C14.3941 28.9957 14.2562 28.676 13.9999 28.4787C13.8381 28.3555 13.6596 28.2982 13.4645 28.3068C12.3588 28.3555 11.0158 28.4929 9.43572 28.7188C7.829 28.933 6.67987 29.1791 5.98831 29.4572C5.15423 29.7546 4.62585 30.0385 4.40316 30.309C4.18104 30.5925 4.01313 31.219 3.89943 32.1885C3.79472 33.0663 3.76328 33.98 3.80511 34.9296L3.91597 37.4467C3.94289 38.0581 3.85123 38.4923 3.64098 38.7492C3.43129 39.0191 3.07279 39.1652 2.56547 39.1875C2.17523 39.2047 1.8836 39.0937 1.6906 38.8546C1.51118 38.6279 1.40744 38.1959 1.37936 37.5585C1.33811 36.6219 1.40277 35.4265 1.57332 33.9722C1.88228 31.2216 2.10501 26.5132 2.24152 19.8471C2.25975 19.0773 2.29766 18.6065 2.35526 18.4345C2.40099 18.2891 2.57537 18.1055 2.8784 17.8836C3.16842 17.6623 3.48904 17.5439 3.84027 17.5284C4.2175 17.5118 4.46695 17.553 4.58861 17.6519C4.70969 17.7378 4.77568 17.9043 4.78656 18.1515C4.78215 18.3472 4.67438 19.3033 4.46325 21.02C4.23985 23.05 4.15279 24.6244 4.20206 25.7431C4.22326 26.2244 4.34509 26.6231 4.56754 26.9391C4.79 27.2552 5.10285 27.4043 5.50611 27.3866C6.41668 27.3465 8.0477 27.0921 10.3992 26.6236C10.6452 26.5867 10.9426 26.5345 11.2916 26.467C11.6535 26.399 11.925 26.3479 12.1059 26.3139C12.2999 26.2793 12.5261 26.2367 12.7846 26.1862C13.0424 26.1227 13.2356 26.0686 13.3639 26.0239C13.5047 25.9655 13.652 25.9069 13.8058 25.848ZM36.0738 31.182C35.9334 30.9535 35.7868 30.7319 35.634 30.5171C35.4387 30.2259 35.2171 29.9294 34.9692 29.6275C34.7479 29.3375 34.2324 28.8779 33.4226 28.2489C32.7063 27.6679 32.2358 27.3432 32.0112 27.2749C31.8257 27.2049 31.4804 27.207 30.9754 27.2814C30.4183 27.3581 29.9291 27.4969 29.5079 27.698C29.0346 27.9013 28.6719 28.0997 28.4198 28.2933C28.18 28.4733 27.9604 28.6654 27.7609 28.8697C27.5845 29.0078 27.3443 29.3247 27.0403 29.8203C26.7103 30.3171 26.5108 30.6713 26.4419 30.8828C26.3742 31.1204 26.3096 31.4295 26.2482 31.8102C26.2128 32.1897 26.2126 32.483 26.2478 32.69C26.257 32.8981 26.3505 33.2459 26.5284 33.7333C26.7045 34.1818 26.8817 34.5063 27.06 34.707C27.2796 34.958 27.4893 35.1312 27.689 35.2267C27.8768 35.3488 28.0777 35.4702 28.2915 35.5912C28.5178 35.6985 28.8751 35.8196 29.3632 35.9545C29.7982 36.0657 30.1721 36.1209 30.4849 36.1202C30.8361 36.1047 31.1268 36.0463 31.3569 35.9449C31.6148 35.8814 31.8775 35.7786 32.1449 35.6365C32.4254 35.4938 32.7112 35.3248 33.0023 35.1295C33.2296 34.9631 33.6541 34.5404 34.2759 33.8613C34.8581 33.171 35.2102 32.7319 35.3322 32.544C35.4531 32.3302 35.5613 32.1234 35.6568 31.9237C35.7919 31.7353 35.9309 31.488 36.0738 31.182ZM37.9943 32.1726C37.8253 32.4799 37.6928 32.7268 37.5968 32.9135C37.5019 33.1262 37.3629 33.3735 37.1798 33.6552C37.0109 33.9624 36.5791 34.5158 35.8844 35.3154C35.1767 36.1155 34.6267 36.6481 34.2343 36.913C33.8674 37.1637 33.4926 37.3823 33.1098 37.5686C32.7405 37.7673 32.3761 37.9267 32.0165 38.0468C31.6178 38.1686 31.1518 38.2413 30.6184 38.2648C30.0602 38.3154 29.4443 38.2383 28.7705 38.0334C28.1511 37.8782 27.6813 37.7164 27.3611 37.5481C27.0545 37.3921 26.7467 37.2102 26.4378 37.0022C26.1294 36.8073 25.8102 36.515 25.4803 36.1255C25.0841 35.7129 24.7668 35.1664 24.5283 34.4861C24.291 33.8319 24.1439 33.304 24.0871 32.9025C24.0445 32.5264 24.0572 32.0761 24.1254 31.5518C24.2071 31.0399 24.3047 30.5925 24.4182 30.2095C24.5316 29.8265 24.789 29.3069 25.1902 28.6506C25.5925 28.0203 25.9565 27.5546 26.2821 27.2535C26.571 27.0062 26.8799 26.771 27.209 26.548C27.5505 26.3114 27.9949 26.0442 28.5422 25.7464C29.1681 25.4581 29.8824 25.2507 30.6849 25.1241C31.5009 25.01 32.1669 25.0393 32.6828 25.2121C33.145 25.3482 33.876 25.8177 34.8759 26.6209C34.6974 26.1204 34.5558 25.7161 34.451 25.4079C34.2748 24.9595 34.022 24.3972 33.6924 23.7209C33.338 23.0718 33.0354 22.5638 32.7846 22.1969C32.5339 21.83 32.2532 21.523 31.9425 21.276C31.6981 21.0522 31.2364 20.7793 30.5575 20.4573C29.8786 20.1353 29.2962 19.9328 28.8103 19.85C28.2736 19.7954 27.842 19.7623 27.5157 19.7506C27.1905 19.7649 26.8723 19.7919 26.5613 19.8317C26.3023 19.8692 25.8278 20.0465 25.138 20.3636C24.6398 20.5941 24.3159 20.7843 24.1661 20.9343L23.9457 21.2568C23.7999 21.4978 23.5788 21.6574 23.2825 21.7356C22.9986 21.8003 22.7229 21.7538 22.4552 21.5961C22.2001 21.4249 22.0337 21.1976 21.956 20.9143C21.8908 20.6174 21.9506 20.3476 22.1354 20.1048L22.3541 19.7433C22.6344 19.3009 23.2534 18.8565 24.2113 18.4103C25.1053 17.993 25.7917 17.7477 26.2708 17.6744C26.6729 17.6307 27.0821 17.5996 27.4983 17.5813C27.9287 17.5884 28.4779 17.6294 29.1459 17.7042C29.8411 17.8039 30.6215 18.0628 31.4871 18.4809C32.3527 18.8989 32.9895 19.301 33.3975 19.687C33.7913 20.0477 34.1745 20.4609 34.5469 20.9267C34.8933 21.3937 35.2525 22.0035 35.6245 22.7561C36.0095 23.5081 36.2918 24.1473 36.4714 24.6738C36.6499 25.1742 36.8898 25.887 37.1912 26.8122C37.4926 27.7373 37.7099 28.3794 37.843 28.7385C37.9897 29.11 38.1245 29.5081 38.2475 29.9328C38.3829 30.3439 38.4804 30.6328 38.5398 30.7996L38.5416 30.8387C38.6808 31.0411 38.6547 31.3355 38.4632 31.7219L37.9943 32.1726ZM64.2301 10.4112C65.0422 10.206 66.4332 10.1252 68.4032 10.1688C70.3726 10.1994 71.7653 10.1576 72.5814 10.0434C72.8421 10.045 73.1526 9.99221 73.5128 9.88511C73.8725 9.765 74.1804 9.65369 74.4365 9.55117C74.7051 9.43507 74.997 9.40267 75.312 9.45396C75.6395 9.49167 75.9264 9.64196 76.1725 9.90482C76.1185 10.4546 76.0643 10.9979 76.0097 11.5347C75.1829 11.7014 74.25 11.8272 73.2111 11.9121C72.1722 11.9969 71.2296 12.0515 70.3835 12.0757C69.5504 12.0994 68.6144 12.1536 67.5755 12.2385C68.2947 12.8845 68.9902 13.5838 69.662 14.3362C70.3468 15.088 71.0294 15.9377 71.7097 16.8853C72.4031 17.8323 72.9592 18.6224 73.3781 19.2556C73.8095 19.8752 74.3953 20.7487 75.1358 21.8761C75.9475 23.1437 76.5707 24.8627 77.0051 27.0332C77.884 28.9365 77.4252 31.2441 75.6287 33.9559C74.9327 35.316 73.965 36.4274 72.7257 37.29C71.4864 38.1527 70.1657 38.4976 68.7635 38.3247C67.8573 38.1692 66.9836 37.8622 66.1423 37.404C65.3146 36.9582 64.5737 36.4109 63.9195 35.762C63.2653 35.113 62.6919 34.3758 62.1994 33.5504C61.7069 32.7249 61.3368 31.8679 61.0891 30.9795C60.8415 30.0911 60.723 29.1775 60.7338 28.2386C60.744 27.2867 60.9061 26.3803 61.2201 25.5193C61.9399 24.106 62.8885 22.8586 64.066 21.7771C65.2429 20.6826 66.5558 19.8623 68.0045 19.3163C69.1173 18.8372 70.3086 18.6609 71.5784 18.7874C70.9895 18.4354 70.4302 18.0169 69.9005 17.5319C69.3838 17.0464 68.7899 16.4339 68.1187 15.6945C67.4469 14.9421 66.9746 14.4285 66.7019 14.1538C66.5508 13.978 66.2978 13.7089 65.943 13.3465C65.6011 12.9836 65.3275 12.6894 65.1221 12.4638C64.9161 12.2253 64.7202 11.9211 64.5345 11.5513C64.3482 11.1685 64.2467 10.7885 64.2301 10.4112ZM62.7665 28.2273C62.8208 29.1633 63.0246 30.0927 63.3781 31.0156C63.7445 31.9378 64.2249 32.7834 64.8192 33.5523C65.4129 34.3081 66.1375 34.9279 66.993 35.4115C67.8609 35.8816 68.7775 36.128 69.743 36.1506C70.0925 36.0961 70.4332 35.9899 70.7651 35.8319C71.0976 35.6869 71.3905 35.5307 71.6438 35.3631C71.8971 35.1956 72.1608 34.9689 72.4349 34.6831C72.7221 34.3968 72.9522 34.1455 73.1251 33.9294C73.3111 33.7126 73.5264 33.4229 73.7711 33.0603C74.0152 32.6846 74.198 32.3963 74.3195 32.1954C74.4534 31.981 74.6354 31.6732 74.8653 31.2721C74.9507 31.138 75.0114 31.0376 75.0476 30.9708C75.1458 29.6501 74.9771 28.3346 74.5414 27.0244C74.1187 25.7136 73.4958 24.2943 72.6726 22.7666C72.4733 22.3844 72.1733 22.0848 71.7728 21.8678C71.3846 21.6373 70.9323 21.4291 70.4159 21.2433C69.9124 21.057 69.5325 20.8651 69.2761 20.6679C68.6022 21.0495 68.0054 21.4081 67.4858 21.7438C66.9787 22.0659 66.417 22.4817 65.8008 22.991C65.197 23.4868 64.6911 23.9848 64.283 24.485C63.8874 24.9717 63.5413 25.5474 63.2447 26.2121C62.9606 26.8632 62.8012 27.535 62.7665 28.2273ZM83.9888 23.5781C84.1709 23.57 84.3536 23.575 84.5368 23.593C84.745 23.5838 85.1816 23.5842 85.8467 23.594C86.5243 23.5902 87.0127 23.5817 87.3119 23.5685C87.6111 23.5554 87.8967 23.5298 88.1687 23.4917C88.4401 23.4406 88.9508 23.3465 89.7007 23.2092C90.4387 23.0985 90.9107 23.0125 91.1165 22.9513C91.3354 22.8895 91.6365 22.772 92.0198 22.5987C92.3653 22.4532 92.5887 22.3456 92.6899 22.276C92.7645 22.1945 92.8699 22.0725 93.0061 21.9101C93.1056 21.8015 93.1901 21.6479 93.2595 21.4493C93.3273 21.2117 93.3719 21.0403 93.3933 20.9351C93.3887 20.8311 93.3391 20.5921 93.2444 20.2183C93.1498 19.8445 93.0741 19.6067 93.0175 19.505C92.9349 19.4043 92.7645 19.2359 92.5065 18.9996C92.2609 18.7498 92.0122 18.5782 91.7605 18.4851C91.4544 18.3421 91.1894 18.243 90.9654 18.1877C90.7408 18.1194 90.3607 18.071 89.8251 18.0425C89.3143 17.9867 88.891 17.9924 88.555 18.0593C88.231 18.0996 87.8518 18.2206 87.4176 18.4222C86.9827 18.6108 86.6765 18.7611 86.499 18.8732C86.3226 19.0113 86.0731 19.2634 85.7503 19.6295C85.427 19.9826 85.1221 20.4588 84.8357 21.0579C84.5114 21.6847 84.3163 22.1365 84.2503 22.4131C84.1814 22.6246 84.0942 23.013 83.9888 23.5781ZM81.6492 24.1698C81.6921 23.9594 81.7341 23.7295 81.7753 23.48C81.9224 22.6785 82.0598 22.099 82.1875 21.7415C82.3021 21.3845 82.5452 20.8394 82.917 20.1062C83.3136 19.3458 83.7225 18.7153 84.1435 18.2145C84.5528 17.7403 84.9024 17.3925 85.1924 17.1712C85.5073 16.9228 85.9591 16.6748 86.5477 16.4273C87.1488 16.1662 87.7145 15.9914 88.245 15.9029C88.75 15.8285 89.336 15.8157 90.0028 15.8646C90.6697 15.9134 91.1748 15.9889 91.5182 16.0911C91.861 16.1802 92.238 16.307 92.6493 16.4714C93.1149 16.6854 93.552 16.992 93.9606 17.3911C94.4087 17.8015 94.7036 18.1339 94.8451 18.3883C95.0127 18.6416 95.1815 19.0708 95.3515 19.6759C95.5085 20.2815 95.5806 20.7345 95.5678 21.0349C95.5543 21.3222 95.4725 21.6842 95.3223 22.1209C95.1603 22.5842 94.9563 22.9842 94.7105 23.3209C94.4618 23.5925 94.2303 23.8112 94.016 23.9771C93.7888 24.1435 93.4068 24.3493 92.8702 24.5945C92.3958 24.7718 92.011 24.9126 91.7158 25.0168C91.4331 25.1074 90.8842 25.2229 90.0693 25.363C89.3064 25.5009 88.7564 25.5903 88.4193 25.6312C88.0823 25.6721 87.7446 25.7 87.4064 25.7149C87.1072 25.7281 86.6058 25.7371 85.9022 25.742C85.1986 25.747 84.736 25.7478 84.5143 25.7445C84.3056 25.7407 84.1102 25.7428 83.928 25.7508C83.85 25.7542 83.7524 25.7585 83.6354 25.7637C83.6185 25.973 83.6014 26.1757 83.584 26.372C83.5694 26.6333 83.611 27.1333 83.7087 27.8719C83.8058 28.5975 83.8855 29.0762 83.9479 29.3081C84.0114 29.5659 84.1077 29.8289 84.2368 30.0969C84.3251 30.3276 84.5108 30.6974 84.7939 31.2063C85.0481 31.6512 85.291 31.9859 85.5224 32.2103C85.7957 32.4981 86.0328 32.7027 86.2337 32.8242C86.3955 32.9474 86.7217 33.1024 87.2121 33.2894C87.7038 33.5023 88.1408 33.659 88.5232 33.7595C88.905 33.8469 89.3436 33.8928 89.8391 33.897C90.3747 33.9256 90.7395 33.9225 90.9335 33.8879C91.0896 33.8811 91.3913 33.7765 91.8385 33.5744C92.2349 33.4005 92.4961 33.2652 92.6222 33.1684C92.7477 33.0586 92.8593 32.9299 92.9571 32.7822C93.0549 32.6345 93.193 32.3678 93.3715 31.9819C93.5359 31.5707 93.6522 31.2527 93.7205 31.0282C93.7883 30.7906 93.8441 30.5796 93.8881 30.3952L93.9524 30.0795C93.9913 29.7781 94.1309 29.5438 94.3711 29.3768C94.6244 29.2093 94.8953 29.1452 95.1838 29.1846C95.4853 29.2235 95.7198 29.3696 95.8873 29.6229C96.0673 29.8626 96.1376 30.1267 96.0982 30.4151L96.0365 30.7893C95.9699 31.0529 95.8849 31.3434 95.7816 31.6607C95.6907 31.9645 95.5388 32.3622 95.3258 32.8538C95.114 33.3715 94.9098 33.7649 94.7131 34.0343C94.5289 34.29 94.3178 34.5274 94.0798 34.7464C93.8299 34.992 93.3793 35.266 92.7279 35.5684C92.0748 35.8318 91.5735 35.9907 91.224 36.0452C90.8999 36.0855 90.4181 36.0937 89.7784 36.0698C89.1127 36.047 88.523 35.9752 88.0094 35.8544C87.4952 35.7207 86.9527 35.536 86.3819 35.3005C85.7573 35.0282 85.2908 34.7946 84.9825 34.5997C84.7132 34.403 84.3946 34.1238 84.0267 33.762C83.6317 33.3754 83.2641 32.8702 82.9238 32.2466C82.5728 31.6755 82.3376 31.2167 82.218 30.8701C82.0736 30.5506 81.9555 30.2365 81.8637 29.9277C81.7702 29.5799 81.6658 28.985 81.5505 28.1429C81.4477 27.2872 81.4077 26.6764 81.4307 26.3104C81.4413 25.9581 81.4648 25.6051 81.5014 25.2516C81.498 25.1736 81.5075 25.0949 81.5301 25.0157C81.5267 24.9377 81.5238 24.8727 81.5215 24.8206C81.4858 24.6006 81.5283 24.3837 81.6492 24.1698ZM114.106 17.149C114.21 17.4312 114.196 17.7055 114.064 17.972C113.945 18.2248 113.738 18.3969 113.442 18.4881C113.159 18.5788 112.898 18.5642 112.658 18.4444L112.339 18.3021C112.152 18.2061 111.919 18.0925 111.639 17.9614C111.401 17.8677 111.076 17.7386 110.664 17.5743C110.254 17.4359 109.957 17.3383 109.772 17.2812C109.561 17.2384 109.332 17.2094 109.084 17.1942C108.874 17.1774 108.581 17.1773 108.204 17.1939C107.853 17.2094 107.561 17.2483 107.329 17.3106C107.097 17.373 106.86 17.4486 106.616 17.5375C106.411 17.6248 106.075 17.8416 105.608 18.188C105.14 18.5084 104.777 18.8307 104.517 19.1549C104.207 19.5204 103.967 19.8243 103.795 20.0665C103.65 20.3335 103.506 20.6201 103.363 20.9261C103.245 21.192 103.049 21.7806 102.777 22.6919C102.504 23.6032 102.348 24.2031 102.308 24.4916C102.298 24.844 102.294 25.1961 102.296 25.5479C102.298 25.8866 102.319 26.2181 102.36 26.5421C102.4 26.8662 102.482 27.2471 102.605 27.6848C102.757 28.1603 102.994 28.6712 103.318 29.2174C103.643 29.7896 103.902 30.1952 104.095 30.4344C104.287 30.6605 104.499 30.8728 104.729 31.0712C104.918 31.2192 105.206 31.3955 105.593 31.6001C105.978 31.7656 106.48 31.9064 107.098 32.0226C107.74 32.0986 108.204 32.1433 108.492 32.1567C108.843 32.1412 109.174 32.1266 109.487 32.1128C109.746 32.0754 110.082 32.0084 110.494 31.9121C110.842 31.8185 111.18 31.6408 111.507 31.3787C111.847 31.1031 112.066 30.9109 112.166 30.8023C112.289 30.6404 112.399 30.4727 112.496 30.299C112.593 30.1383 112.695 29.9318 112.801 29.6795L112.979 29.2807C113.097 29.0148 113.298 28.8365 113.581 28.7458C113.876 28.6416 114.15 28.6491 114.403 28.7683C114.669 28.8869 114.854 29.0873 114.957 29.3695C115.06 29.6386 115.053 29.9127 114.935 30.1916L114.757 30.5904C114.615 30.9225 114.477 31.1958 114.343 31.4102C114.196 31.6252 114.05 31.8467 113.903 32.0747C113.681 32.3452 113.304 32.6811 112.775 33.0824C112.233 33.5103 111.672 33.8022 111.093 33.958C110.565 34.1116 110.094 34.2171 109.68 34.2744C109.302 34.291 108.925 34.3076 108.548 34.3243C108.117 34.3171 107.528 34.2584 106.781 34.1479C105.954 34.0279 105.255 33.8307 104.682 33.5561C104.11 33.2815 103.654 32.9953 103.315 32.6975C102.978 32.4516 102.679 32.165 102.417 31.8377C102.154 31.4974 101.818 30.9713 101.409 30.2594C101.027 29.5855 100.745 28.9462 100.562 28.3417C100.38 27.7632 100.266 27.2469 100.22 26.7928C100.176 26.3907 100.152 25.9812 100.146 25.5643C100.141 25.1345 100.154 24.7038 100.187 24.2722C100.22 23.8407 100.384 23.1166 100.678 22.1001C100.985 21.07 101.221 20.3623 101.386 19.977C101.579 19.6167 101.779 19.2755 101.986 18.9536C102.205 18.592 102.494 18.2013 102.854 17.7814C103.237 17.3084 103.738 16.8627 104.359 16.4444C104.952 16.0142 105.435 15.7258 105.806 15.5791C106.126 15.4347 106.453 15.316 106.788 15.223C107.137 15.1555 107.564 15.0911 108.07 15.0297C108.551 15.0085 108.948 15.0041 109.262 15.0163C109.563 15.0552 109.871 15.1003 110.186 15.1516C110.516 15.2413 110.926 15.3666 111.415 15.5276C111.879 15.7156 112.258 15.8749 112.55 16.0054C112.816 16.124 113.063 16.2435 113.29 16.3639L113.57 16.5274C113.836 16.6461 114.015 16.8532 114.106 17.149ZM118.79 14.7531C118.948 14.4855 119.162 14.3131 119.432 14.236C119.716 14.1584 119.985 14.2052 120.24 14.3764C120.508 14.5341 120.673 14.7418 120.737 14.9997L120.877 15.5214C120.973 15.9212 121.041 16.2766 121.08 16.5877C121.12 16.8857 121.181 17.5347 121.264 18.5346C121.307 19.5232 121.342 20.2972 121.366 20.8566C121.379 21.1558 121.393 21.4745 121.408 21.8127C121.455 21.6803 121.501 21.5609 121.549 21.4546C121.953 20.2638 122.374 19.3264 122.813 18.6423C123.291 17.9566 123.661 17.4711 123.922 17.1859C124.26 16.8712 124.767 16.5556 125.444 16.2391C126.096 15.9497 126.59 15.778 126.927 15.7241C127.187 15.7127 127.454 15.7009 127.727 15.6889C128.079 15.6994 128.555 15.8544 129.155 16.1538C129.782 16.4781 130.312 16.9631 130.744 17.6088C131.12 18.1527 131.504 19.0285 131.896 20.2364C132.298 21.3657 132.576 22.2201 132.732 22.7998C132.862 23.3805 133.09 24.2633 133.416 25.448C133.704 26.6605 133.931 27.6671 134.096 28.4679C134.234 29.2308 134.359 30.0008 134.472 30.7778C134.596 31.5413 134.677 32.046 134.714 32.2921C134.723 32.5002 134.747 32.7338 134.784 32.9928L134.802 33.4025C134.841 33.7006 134.762 33.9583 134.563 34.1756C134.377 34.3923 134.134 34.5137 133.836 34.5399C133.55 34.5655 133.286 34.4794 133.042 34.2816C132.813 34.0962 132.678 33.861 132.64 33.576L132.624 33.2248C132.587 32.9657 132.563 32.7257 132.554 32.5045C132.518 32.2975 132.458 31.8179 132.373 31.0658C132.263 30.3537 132.14 29.6228 132.003 28.8729C131.839 28.1111 131.607 27.1503 131.309 25.9905C130.996 24.8052 130.775 23.9352 130.646 23.3804C130.492 22.8268 130.228 22.0108 129.854 20.9324C129.509 19.9049 129.21 19.1817 128.957 18.7627C128.735 18.4467 128.484 18.2297 128.205 18.1116C127.964 17.9658 127.771 17.8831 127.627 17.8634C127.497 17.8691 127.354 17.8754 127.198 17.8823C127.069 17.914 126.781 18.031 126.334 18.2331C125.885 18.4093 125.599 18.5718 125.475 18.7206C125.3 18.8847 125.023 19.2553 124.645 19.8324C124.264 20.3575 123.906 21.1227 123.573 22.1279C123.215 23.1863 123.007 23.9384 122.949 24.3841C122.865 24.844 122.807 25.596 122.774 26.6401C122.717 27.7113 122.704 28.6047 122.736 29.3201C122.767 30.0356 122.779 30.5955 122.771 30.9999C122.791 31.4552 122.783 31.8596 122.746 32.2131C122.748 32.2651 122.751 32.3302 122.755 32.4082C122.758 32.4863 122.732 32.6243 122.675 32.8223C122.631 33.0067 122.559 33.1467 122.459 33.2424C122.359 33.338 122.2 33.4232 121.982 33.498C121.776 33.5722 121.514 33.5251 121.193 33.3568C121.034 33.2856 120.893 33.207 120.772 33.1211C120.664 33.0347 120.589 32.9533 120.547 32.8769C120.504 32.7876 120.474 32.7042 120.457 32.6267C120.441 32.5492 120.432 32.4845 120.429 32.4325L120.426 32.3544C120.303 31.9297 120.206 31.5169 120.137 31.1159C120.067 30.715 119.965 30.0287 119.831 29.0571C119.682 28.047 119.57 27.1201 119.493 26.2763C119.417 25.4194 119.354 24.4447 119.306 23.352C119.26 22.3113 119.225 21.5113 119.2 20.952C119.176 20.3926 119.142 19.6186 119.098 18.63C119.03 17.6685 118.977 17.0713 118.941 16.8383C118.932 16.6302 118.881 16.3652 118.789 16.0435L118.688 15.5396C118.599 15.2828 118.633 15.0207 118.79 14.7531ZM148.583 15.1613C148.101 15.1565 147.699 15.6564 147.379 16.6611C145.193 22.3748 143.52 26.2542 142.358 28.2995C142.236 28.4743 142.084 28.7287 141.903 29.0625C141.437 30.0214 140.978 30.8432 140.526 31.5278C140.088 32.2378 139.745 32.7352 139.497 33.0198C139.252 33.3695 139.071 33.5469 138.954 33.5521C138.563 33.5692 138.291 33.4639 138.138 33.2361C137.973 33.0348 137.878 32.6675 137.855 32.1342C137.825 31.4447 138.373 30.4236 139.499 29.0706C140.678 27.4416 142.129 24.7189 143.851 20.9025C145.52 17.3621 146.859 14.1881 147.869 11.3805C147.978 10.8934 148.15 10.6448 148.384 10.6345C148.514 10.6287 148.791 10.7012 149.215 10.852C149.574 11.0317 149.797 11.2043 149.883 11.37C150.026 11.6765 150.353 12.8872 150.864 15.0022C151.786 19.0802 152.723 22.3038 153.675 24.6731C154.633 27.1984 155.619 28.8754 156.633 29.704C157.01 29.9611 157.232 30.1273 157.3 30.2025C157.326 30.2013 157.339 30.1943 157.339 30.1813C157.356 30.5845 157.275 30.9595 157.095 31.3063C156.915 31.6532 156.742 31.8693 156.576 31.9548C156.398 32.0539 155.971 32.1183 155.294 32.1481C154.999 31.9526 154.443 31.3059 153.625 30.2079C152.63 28.9094 151.391 25.2103 149.911 19.1106C149.538 17.4458 149.234 16.3252 149 15.749L148.857 15.1688L148.583 15.1613ZM174.299 25.0941C174.159 24.8657 174.012 24.6441 173.859 24.4292C173.664 24.1381 173.442 23.8415 173.195 23.5397C172.973 23.2496 172.458 22.7901 171.648 22.1611C170.932 21.58 170.461 21.2554 170.237 21.1871C170.051 21.117 169.706 21.1192 169.201 21.1936C168.644 21.2703 168.155 21.4091 167.733 21.6101C167.26 21.8134 166.897 22.0119 166.645 22.2054C166.405 22.3854 166.186 22.5776 165.986 22.7819C165.81 22.92 165.57 23.2368 165.266 23.7325C164.936 24.2292 164.736 24.5834 164.667 24.795C164.6 25.0326 164.535 25.3417 164.474 25.7224C164.438 26.1019 164.438 26.3952 164.473 26.6021C164.482 26.8103 164.576 27.1581 164.754 27.6455C164.93 28.0939 165.107 28.4185 165.285 28.6191C165.505 28.8701 165.715 29.0434 165.914 29.1388C166.102 29.2609 166.303 29.3824 166.517 29.5033C166.743 29.6106 167.1 29.7318 167.589 29.8667C168.024 29.9778 168.397 30.0331 168.71 30.0323C169.061 30.0168 169.352 29.9584 169.582 29.8571C169.84 29.7936 170.103 29.6908 170.37 29.5487C170.651 29.406 170.937 29.237 171.228 29.0417C171.455 28.8753 171.879 28.4525 172.501 27.7735C173.083 27.0831 173.436 26.644 173.558 26.4562C173.679 26.2423 173.787 26.0356 173.882 25.8358C174.017 25.6474 174.156 25.4002 174.299 25.0941ZM176.22 26.0848C176.051 26.392 175.918 26.639 175.822 26.8257C175.727 27.0384 175.588 27.2856 175.405 27.5674C175.236 27.8746 174.804 28.428 174.11 29.2276C173.402 30.0277 172.852 30.5602 172.46 30.8251C172.093 31.0759 171.718 31.2944 171.335 31.4807C170.966 31.6795 170.601 31.8389 170.242 31.959C169.843 32.0808 169.377 32.1535 168.844 32.177C168.286 32.2276 167.67 32.1505 166.996 31.9455C166.377 31.7904 165.907 31.6286 165.586 31.4602C165.28 31.3043 164.972 31.1223 164.663 30.9144C164.355 30.7194 164.036 30.4272 163.706 30.0377C163.31 29.625 162.992 29.0786 162.754 28.3983C162.516 27.744 162.369 27.2161 162.312 26.8146C162.27 26.4385 162.283 25.9883 162.351 25.464C162.432 24.9521 162.53 24.5046 162.644 24.1217C162.757 23.7387 163.014 23.219 163.416 22.5627C163.818 21.9324 164.182 21.4668 164.507 21.1657C164.796 20.9184 165.105 20.6832 165.434 20.4602C165.776 20.2235 166.22 19.9563 166.768 19.6585C167.394 19.3703 168.108 19.1629 168.91 19.0363C169.726 18.9222 170.392 18.9515 170.908 19.1243C171.37 19.2603 172.101 19.7299 173.101 20.533C172.923 20.0326 172.781 19.6283 172.676 19.3201C172.5 18.8717 172.247 18.3093 171.918 17.6331C171.563 16.984 171.261 16.476 171.01 16.1091C170.759 15.7421 170.479 15.4352 170.168 15.1882C169.923 14.9643 169.462 14.6914 168.783 14.3694C168.104 14.0474 167.522 13.845 167.036 13.7621C166.499 13.7076 166.067 13.6744 165.741 13.6627C165.416 13.6771 165.098 13.7041 164.787 13.7439C164.528 13.7813 164.053 13.9586 163.363 14.2758C162.865 14.5062 162.541 14.6965 162.391 14.8464L162.171 15.1689C162.025 15.41 161.804 15.5696 161.508 15.6478C161.224 15.7124 160.948 15.6659 160.681 15.5083C160.425 15.337 160.259 15.1098 160.181 14.8265C160.116 14.5296 160.176 14.2597 160.361 14.017L160.579 13.6555C160.86 13.213 161.479 12.7687 162.437 12.3225C163.331 11.9051 164.017 11.6598 164.496 11.5866C164.898 11.5428 165.307 11.5118 165.724 11.4934C166.154 11.5005 166.703 11.5415 167.371 11.6164C168.066 11.7161 168.847 11.975 169.712 12.393C170.578 12.8111 171.215 13.2131 171.623 13.5992C172.017 13.9598 172.4 14.373 172.772 14.8389C173.119 15.3059 173.478 15.9156 173.85 16.6682C174.235 17.4202 174.517 18.0595 174.697 18.5859C174.875 19.0864 175.115 19.7992 175.417 20.7243C175.718 21.6495 175.935 22.2916 176.068 22.6506C176.215 23.0221 176.35 23.4202 176.473 23.8449C176.608 24.256 176.706 24.545 176.765 24.7118L176.767 24.7508C176.906 24.9532 176.88 25.2476 176.689 25.634L176.22 26.0848ZM180.645 12.0288C180.776 11.7624 180.977 11.5841 181.247 11.494C181.529 11.4034 181.804 11.4239 182.07 11.5555C182.35 11.6865 182.535 11.8869 182.625 12.1567L182.806 12.7157C182.957 13.1912 183.021 13.7489 182.997 14.3886C182.994 14.923 183.018 15.7496 183.067 16.8683C183.089 17.9622 183.109 18.7042 183.126 19.0945C183.17 19.4966 183.214 19.9247 183.261 20.3788C183.267 20.5349 183.289 20.736 183.326 20.982C183.417 20.6782 183.525 20.3216 183.651 19.912C183.956 18.8559 184.3 17.9414 184.683 17.1686C185.079 16.3952 185.407 15.8399 185.665 15.5027C185.885 15.1672 186.263 14.7139 186.798 14.1429C187.383 13.5046 187.934 13.0111 188.453 12.6624C188.971 12.2877 189.481 12.0241 189.983 11.8717C190.509 11.6921 190.974 11.6065 191.379 11.6147C191.809 11.6218 192.264 11.7321 192.742 11.9457C193.208 12.1598 193.551 12.4118 193.773 12.7018C193.966 12.954 194.243 13.4761 194.604 14.2683C194.897 14.9983 195.098 15.576 195.208 16.0012C195.305 16.4271 195.436 17.0339 195.601 17.8217C195.667 18.1185 195.737 18.3956 195.814 18.6529C195.95 18.1908 196.203 17.5671 196.572 16.7818C196.987 15.8512 197.305 15.2181 197.525 14.8826C197.744 14.5341 198.045 14.1298 198.429 13.6698C198.863 13.1684 199.245 12.7997 199.573 12.5637C199.913 12.288 200.321 12.0746 200.796 11.9233C201.427 11.7391 202.081 11.8015 202.759 12.1105C203.411 12.4077 203.926 12.8542 204.304 13.4501C204.561 13.9471 204.755 14.3752 204.889 14.7342C204.982 15.082 205.129 15.7598 205.33 16.7676C205.558 17.8002 205.702 18.5563 205.762 19.0359C205.835 19.5019 205.944 20.2009 206.089 21.1329C206.209 22.0661 206.308 22.8502 206.388 23.4853C206.468 24.1204 206.523 24.7567 206.551 25.3941C206.604 26.0043 206.653 26.5365 206.699 26.9907C206.745 27.4448 206.786 27.7754 206.821 27.9824L206.875 28.3123C206.914 28.6104 206.847 28.874 206.675 29.1032C206.503 29.3323 206.267 29.4665 205.969 29.5057C205.684 29.5443 205.421 29.4777 205.178 29.3059C204.949 29.1205 204.802 28.8859 204.737 28.602L204.724 28.3093C204.688 28.0763 204.633 27.7203 204.56 27.2413C204.512 26.7611 204.455 26.1902 204.386 25.5285C204.36 24.9171 204.307 24.3069 204.228 23.6978C204.149 23.0887 204.05 22.3371 203.933 21.4429C203.815 20.5358 203.719 19.8427 203.646 19.3637C203.574 18.9107 203.431 18.1936 203.219 17.2125C203.019 16.2307 202.874 15.6115 202.785 15.3547C202.724 15.1489 202.607 14.8738 202.436 14.5295C202.323 14.3259 202.14 14.1711 201.887 14.0649C201.701 13.9688 201.569 13.9355 201.492 13.965C201.26 14.0273 201.063 14.1273 200.899 14.2648C200.672 14.4312 200.403 14.6972 200.094 15.0627C199.733 15.4566 199.474 15.7873 199.316 16.0549C199.158 16.3095 198.889 16.8558 198.509 17.6936C198.128 18.5184 197.893 19.1023 197.804 19.4451C197.716 19.8269 197.598 20.399 197.449 21.1615C197.313 21.9105 197.21 22.684 197.141 23.482C197.051 24.3984 196.997 24.9481 196.979 25.1314C196.94 25.4329 196.872 25.8138 196.775 26.2743C196.691 26.7342 196.628 27.0693 196.585 27.2797C196.559 27.2809 196.533 27.295 196.509 27.3222C196.484 27.3493 196.427 27.3844 196.337 27.4275C196.248 27.4705 196.152 27.5138 196.05 27.5574C195.96 27.6005 195.852 27.6444 195.723 27.6891C195.595 27.7339 195.472 27.7653 195.356 27.7835C195.252 27.8011 195.149 27.8122 195.045 27.8168C194.94 27.8214 194.842 27.8061 194.749 27.7711C194.656 27.7361 194.576 27.681 194.507 27.6058C194.452 27.5301 194.421 27.4271 194.416 27.2971C194.406 27.0889 194.395 26.9787 194.381 26.9662C194.367 26.9408 194.372 26.9015 194.396 26.8483C194.42 26.7951 194.449 26.7156 194.483 26.6098C194.525 26.3734 194.551 26.092 194.563 25.7657C194.574 25.4133 194.566 24.9444 194.54 24.359C194.489 23.7748 194.408 23.1267 194.298 22.4147C194.162 21.6778 194.033 20.9862 193.914 20.3398C193.809 19.7318 193.674 19.0405 193.51 18.2657C193.344 17.4779 193.209 16.9169 193.103 16.5827C193.037 16.2598 192.872 15.7718 192.608 15.1187C192.403 14.5934 192.238 14.2552 192.114 14.1043C192.06 14.0546 191.952 13.9746 191.791 13.8644C191.631 13.7932 191.48 13.7608 191.337 13.7671C191.206 13.7468 190.999 13.795 190.718 13.9117C190.37 14.0052 190.013 14.1838 189.646 14.4476C189.279 14.6984 188.872 15.0747 188.425 15.5766C187.914 16.1074 187.574 16.5134 187.404 16.7946C187.231 17.0108 186.977 17.4521 186.641 18.1185C186.305 18.785 185.996 19.5937 185.712 20.5446C185.403 21.5227 185.212 22.2153 185.138 22.6226C185.076 22.9773 184.981 23.6331 184.854 24.5902C184.766 25.5585 184.711 26.2322 184.688 26.6111C184.666 26.9771 184.654 27.4533 184.654 28.0398C184.653 28.6263 184.659 29.0432 184.67 29.2903C184.672 29.3424 184.681 29.4006 184.697 29.4651C184.713 29.5295 184.738 29.6588 184.773 29.8527C184.807 30.0337 184.774 30.172 184.674 30.2677C184.587 30.3627 184.454 30.4598 184.276 30.5589C184.098 30.658 183.805 30.6643 183.397 30.578C182.859 30.4975 182.514 30.3563 182.362 30.1544C182.209 29.9396 182.194 29.7513 182.317 29.5894L182.463 29.3484C182.423 29.0243 182.384 28.7458 182.348 28.5128C182.311 28.2538 182.236 27.7488 182.125 26.9977C182.014 26.2467 181.917 25.671 181.834 25.2706C181.763 24.8566 181.639 24.0931 181.459 22.9802C181.28 21.8672 181.167 21.0706 181.119 20.5905C181.073 20.1363 181.028 19.6952 180.983 19.2671C180.964 18.8378 180.943 18.0567 180.919 16.9239C180.868 15.7791 180.844 14.92 180.844 14.3465C180.853 13.9421 180.825 13.611 180.761 13.3531L180.583 12.8527C180.492 12.5569 180.512 12.2823 180.645 12.0288ZM223.837 16.5976C224.003 16.5252 224.13 16.4479 224.217 16.3658C224.305 16.2838 224.373 16.1896 224.42 16.0832C224.479 15.9372 224.529 15.746 224.571 15.5096C224.612 15.2602 224.653 14.8543 224.693 14.2921C224.746 13.7163 224.783 13.2259 224.804 12.8209C224.825 12.403 224.864 11.6648 224.922 10.6066C225.037 8.4901 225.589 7.41008 226.578 7.36654C226.994 7.3482 227.283 7.41365 227.446 7.56287C227.609 7.71209 227.7 7.99484 227.718 8.4111C227.728 8.61923 227.663 9.08475 227.526 9.80765C226.705 14.2621 226.361 17.9853 226.493 20.9772C226.641 24.3333 227.291 26.5139 228.443 27.5188C228.605 27.655 228.735 27.7927 228.832 27.9318C228.942 28.0573 229.011 28.152 229.04 28.2159C229.082 28.2792 229.103 28.3174 229.104 28.3304C229.113 28.5255 228.939 28.7351 228.584 28.9593C228.141 29.2525 227.75 29.4066 227.412 29.4215C226.645 29.4553 225.993 28.7215 225.458 27.2202C224.923 25.7188 224.585 23.3747 224.444 20.1877C224.425 19.7454 224.287 19.4256 224.031 19.2284C223.869 19.1052 223.69 19.0479 223.495 19.0565C222.39 19.1051 221.047 19.2425 219.466 19.4685C217.86 19.6826 216.711 19.9287 216.019 20.2068C215.185 20.5042 214.657 20.7882 214.434 21.0587C214.212 21.3421 214.044 21.9686 213.93 22.9381C213.825 23.816 213.794 24.7297 213.836 25.6793L213.947 28.1964C213.974 28.8078 213.882 29.2419 213.672 29.4988C213.462 29.7687 213.104 29.9148 212.596 29.9372C212.206 29.9544 211.914 29.8434 211.721 29.6042C211.542 29.3775 211.438 28.9455 211.41 28.3081C211.369 27.3715 211.434 26.1761 211.604 24.7219C211.913 21.9712 212.136 17.2629 212.272 10.5968C212.291 9.82698 212.328 9.35611 212.386 9.18413C212.432 9.03875 212.606 8.85512 212.909 8.63324C213.199 8.41193 213.52 8.29354 213.871 8.27807C214.248 8.26146 214.498 8.30261 214.619 8.40151C214.74 8.48742 214.806 8.65395 214.817 8.9011C214.813 9.0968 214.705 10.053 214.494 11.7697C214.271 13.7997 214.184 15.3741 214.233 16.4928C214.254 16.9741 214.376 17.3727 214.598 17.6888C214.821 18.0048 215.134 18.154 215.537 18.1362C216.447 18.0961 218.078 17.8418 220.43 17.3733C220.676 17.3364 220.973 17.2842 221.322 17.2167C221.684 17.1486 221.956 17.0976 222.137 17.0635C222.331 17.0289 222.557 16.9864 222.815 16.9359C223.073 16.8724 223.266 16.8183 223.395 16.7735C223.535 16.7152 223.683 16.6566 223.837 16.5976ZM244.847 11.1366C245.129 11.02 245.402 11.0209 245.668 11.1396C245.947 11.2576 246.139 11.4577 246.242 11.7399C246.358 12.0085 246.357 12.2822 246.239 12.5611L246.005 13.0016C245.888 13.3065 245.722 13.6787 245.506 14.1183C245.303 14.5443 245.137 14.9036 245.006 15.1961C244.875 15.4755 244.626 16.0274 244.258 16.8517C243.89 17.6629 243.54 18.4538 243.209 19.2243C242.889 19.9553 242.649 20.5524 242.487 21.0157C242.297 21.4541 241.98 22.2371 241.534 23.3646C241.243 24.1464 241.004 24.789 240.818 25.2925C240.957 25.4949 241.089 25.6846 241.214 25.8615L241.426 26.2237C241.566 26.4521 241.597 26.7179 241.519 27.0211C241.441 27.3113 241.288 27.5331 241.06 27.6865C240.718 27.9101 240.367 27.9256 240.006 27.7329C239.96 27.8653 239.926 27.9841 239.905 28.0893C239.571 29.0945 239.219 30.1266 238.848 31.1856C238.489 32.192 238.107 33.2906 237.703 34.4814C237.3 35.6722 237.051 36.3869 236.957 36.6257C236.888 36.8372 236.809 37.1079 236.719 37.4377C236.674 37.5961 236.641 37.7344 236.62 37.8526L236.63 38.0868C236.644 38.386 236.544 38.638 236.331 38.8428C236.132 39.0471 235.882 39.1559 235.583 39.1691C235.297 39.1817 235.039 39.0823 234.808 38.8709C234.59 38.6719 234.475 38.4293 234.463 38.1431L234.453 37.909C234.465 37.6087 234.527 37.241 234.639 36.806C234.728 36.4762 234.826 36.1786 234.932 35.9133C235.025 35.6746 235.274 34.9598 235.678 33.769C236.082 32.5782 236.456 31.4669 236.802 30.4351C237.161 29.4287 237.508 28.4229 237.842 27.4177C238.068 26.6387 238.269 26.0173 238.444 25.5534C238.095 25.0344 237.822 24.6033 237.625 24.2601C237.401 23.9181 237.184 23.5692 236.972 23.2136C236.747 22.8195 236.514 22.4192 236.274 22.0127C236.075 21.6174 235.713 20.9491 235.189 20.0077C234.665 19.0663 234.261 18.3216 233.976 17.7737C233.652 17.2276 233.287 16.6311 232.881 15.9843L232.289 14.9742C232.147 14.7197 232.109 14.4477 232.175 14.1581C232.24 13.8685 232.4 13.6464 232.654 13.4918C232.921 13.3367 233.192 13.2922 233.469 13.3582C233.759 13.4236 233.987 13.5895 234.156 13.8558L234.767 14.865C235.173 15.5118 235.533 16.1216 235.845 16.6944C236.171 17.2926 236.589 18.0497 237.098 18.9656C237.622 19.9071 237.984 20.5819 238.184 20.9901C238.384 21.3854 238.603 21.7667 238.841 22.1342C239.011 22.4526 239.187 22.7511 239.369 23.0298C239.44 22.8703 239.486 22.7314 239.507 22.6132C239.964 21.4461 240.287 20.6369 240.475 20.1854C240.637 19.7221 240.891 19.1179 241.236 18.3728C241.554 17.5899 241.896 16.7863 242.264 15.962C242.644 15.1241 242.906 14.5587 243.049 14.2656C243.205 13.959 243.372 13.6063 243.55 13.2074C243.741 12.795 243.907 12.4358 244.05 12.1297L244.265 11.6901C244.384 11.4242 244.578 11.2397 244.847 11.1366ZM250.532 7.03489C251.156 7.00739 251.787 6.9731 252.423 6.93202C252.431 7.11414 252.453 7.46507 252.489 7.98483C252.525 8.49158 252.555 8.87474 252.579 9.13434C252.603 9.38092 252.637 9.71177 252.681 10.1269C252.739 10.5414 252.801 10.9232 252.869 11.2721C252.936 11.608 253.016 11.9434 253.108 12.2781C253.156 12.7583 253.264 14.1872 253.434 16.5648C254.888 16.4226 256.178 16.2811 257.306 16.1402C257.303 16.0751 257.29 15.9258 257.267 15.6922C257.256 15.4451 257.249 15.2825 257.245 15.2044C257.333 13.9493 257.69 12.728 258.315 11.5405C258.941 10.353 259.724 9.33449 260.664 8.48501C261.616 7.62195 262.722 6.99324 263.982 6.59888C265.255 6.19094 266.535 6.11499 267.824 6.37104C269.976 7.30588 271.554 9.39343 272.557 12.6337C273.177 17.2463 272.489 20.7044 270.492 23.008C269.836 23.7929 269.029 24.4084 268.071 24.8546C267.113 25.3009 266.105 25.5016 265.048 25.457C263.989 25.3993 263.049 25.0563 262.226 24.4278C261.784 24.1605 261.373 23.8398 260.991 23.4656C260.622 23.0778 260.291 22.6493 259.996 22.18C259.702 21.7107 259.441 21.2725 259.215 20.8654C259.001 20.4448 258.751 19.954 258.466 19.3931C258.18 18.8192 257.932 18.3609 257.721 18.0183C256.48 18.2424 255.097 18.5248 253.575 18.8656C253.793 21.7624 253.885 23.8437 253.85 25.1095C253.238 25.1365 252.627 25.1634 252.015 25.1903C251.863 24.0892 251.758 22.7383 251.7 21.1378C251.643 19.5372 251.562 17.9963 251.457 16.5151C251.353 15.0338 251.177 13.6926 250.928 12.4915C250.757 10.9611 250.624 9.14223 250.532 7.03489ZM264.629 8.40812C263.928 8.77784 263.281 9.17779 262.688 9.60798C262.107 10.0376 261.543 10.5382 260.994 11.1097C260.459 11.6677 260.056 12.3045 259.788 13.0201C259.519 13.7227 259.428 14.4501 259.513 15.2023C259.47 16.8855 259.944 18.4743 260.935 19.9686C261.939 21.4623 263.213 22.5727 264.757 23.2997C265.985 23.3629 267.102 22.9684 268.107 22.116C269.112 21.2637 269.77 20.2311 270.082 19.0183C270.34 18.0686 270.486 17.1041 270.521 16.1251C270.569 15.1324 270.499 14.1515 270.313 13.1822C270.14 12.2123 269.8 11.2954 269.293 10.4314C268.786 9.56749 268.135 8.84673 267.34 8.26915C266.743 8.30851 265.839 8.35484 264.629 8.40812ZM5.87695 68.2106L6.47753 68.0864C9.40577 67.3969 11.9299 65.2265 14.0499 61.575C14.9958 59.9693 15.8512 58.8238 16.616 58.1384C17.3702 57.5057 18.1765 57.1704 19.0351 57.1326C19.2952 57.1211 19.5809 57.2454 19.8921 57.5054C20.1892 57.7399 20.3452 58.0263 20.3601 58.3645C20.3773 58.7548 19.9047 59.121 18.9422 59.4631C18.2495 59.7152 17.6086 60.1084 17.0196 60.6426C16.4696 61.1752 15.5147 62.4293 14.155 64.4051C13.1508 65.87 12.245 66.907 11.4377 67.516C11.4247 67.5166 11.4055 67.5239 11.38 67.5381C11.3676 67.5517 11.3487 67.5655 11.3232 67.5797C11.3108 67.5933 11.2921 67.6136 11.2673 67.6408C11.2424 67.668 11.2175 67.6951 11.1926 67.7223C11.1808 67.7489 11.1627 67.7823 11.1384 67.8224C11.1271 67.862 11.1161 67.9081 11.1054 67.9607C11.1077 68.0128 11.11 68.0648 11.1123 68.1168C11.1151 68.1819 11.1177 68.2404 11.12 68.2924C11.1347 68.3309 11.1495 68.3693 11.1642 68.4078C11.1919 68.4457 11.2132 68.4838 11.2279 68.5223C11.255 68.5472 11.2757 68.5723 11.2899 68.5978C11.3164 68.6096 11.3433 68.628 11.3705 68.6529C11.4101 68.6641 11.4367 68.676 11.4502 68.6884C11.4638 68.7009 11.4839 68.713 11.5105 68.7249C11.5371 68.7368 11.5504 68.7427 11.5504 68.7427C12.3657 69.2021 13.2547 70.1534 14.2176 71.5968C15.7369 73.8368 16.9071 75.2516 17.7281 75.841C18.6153 76.4536 19.6052 76.7359 20.6979 76.6877L21.3605 76.639C21.4255 76.6361 21.4775 76.6338 21.5166 76.6321C21.5313 76.6706 21.5395 76.7093 21.5412 76.7483C21.5567 77.0996 21.3465 77.5063 20.9107 77.9687C20.4619 78.4316 19.6586 78.6885 18.5009 78.7395C17.6423 78.7773 16.8051 78.4102 15.9891 77.638C15.1311 76.8026 14.1318 75.4194 12.9911 73.4886C12.2998 72.2939 11.6537 71.3839 11.0527 70.7587C10.3968 70.0708 9.67857 69.744 8.89808 69.7784C8.71596 69.7864 8.24746 69.9504 7.49258 70.2704C7.17253 70.4018 6.92317 70.5105 6.74449 70.5966C6.57825 70.6691 6.40722 70.7809 6.23141 70.932C6.06861 71.0825 5.95219 71.2506 5.88216 71.4361C5.77884 71.7535 5.74376 72.7325 5.77692 74.3733C5.79421 75.9496 5.82405 77.219 5.86645 78.1816C5.88192 78.5328 5.72713 78.8655 5.4021 79.1796C5.05104 79.4948 4.66739 79.6616 4.25112 79.6799C3.84787 79.6977 3.5308 79.6009 3.29992 79.3895C3.06847 79.165 2.94787 78.9423 2.93813 78.7211C2.91808 78.2658 3.04413 77.1329 3.31629 75.3223C3.79288 71.9387 4.17435 66.3957 4.46072 58.6933C4.47339 58.0932 4.67726 57.5434 5.07233 57.0437C5.44252 56.5713 5.85526 56.325 6.31055 56.3049C6.46665 56.2981 6.61432 56.3958 6.75357 56.5982C6.93528 56.877 7.03674 57.257 7.05794 57.7383C7.07627 58.1546 7.03214 58.6322 6.92555 59.1713C6.29138 61.9362 5.94569 64.7406 5.88847 67.5844L5.87695 68.2106ZM34.5487 76.8988C34.3781 77.167 34.1307 77.3213 33.8066 77.3616L33.1857 77.4671C32.6558 77.5687 31.9841 77.5592 31.1708 77.4386C30.3715 77.3435 29.6325 77.1349 28.9536 76.8129C28.3279 76.5146 27.8065 76.2182 27.3895 75.9238C26.9448 75.5915 26.3981 75.016 25.7495 74.1974C25.102 73.4048 24.6435 72.7603 24.374 72.2639C24.1164 71.7409 23.893 70.8123 23.7039 69.4782C23.4905 68.1842 23.4099 67.2428 23.4622 66.654C23.5428 66.1161 23.7259 65.3912 24.0116 64.4793C24.3097 63.5539 24.6333 62.7641 24.9825 62.1101C25.3441 61.4425 25.6925 60.9188 26.0277 60.5391C26.3883 60.1453 26.9282 59.6784 27.6473 59.1384C28.4185 58.5961 29.3594 58.2093 30.4701 57.9779C31.5547 57.7477 32.3519 57.6474 32.8615 57.6771C33.3462 57.7339 34.0519 57.9244 34.9785 58.2486C35.8797 58.5868 36.545 58.8964 36.9744 59.1773C37.4163 59.4445 37.8834 59.841 38.3758 60.3668C38.8682 60.8925 39.2284 61.3784 39.4566 61.8245C39.712 62.2955 39.9725 63.0335 40.2384 64.0384C40.49 65.0178 40.6209 65.9179 40.631 66.7385C40.6648 67.506 40.6544 68.1582 40.5999 68.6949C40.5713 69.2306 40.4281 69.9733 40.1701 70.923C39.9133 71.8988 39.6163 72.7004 39.279 73.3278C38.9038 73.983 38.3968 74.6049 37.758 75.1934C37.1193 75.782 36.6022 76.1762 36.207 76.3761C35.8372 76.5618 35.2845 76.7361 34.5487 76.8988ZM29.6659 74.7874C29.9808 74.5389 30.3233 74.4717 30.6932 74.5857L31.3084 74.7933C31.6382 74.883 31.9994 74.9453 32.3919 74.9801C32.7703 74.9895 33.2827 74.9344 33.9291 74.8147C34.5755 74.695 35.0004 74.5785 35.204 74.4653C35.4336 74.3509 35.7991 74.0676 36.3005 73.6154C36.79 73.1898 37.1549 72.7437 37.395 72.2769C37.6351 71.8102 37.8613 71.1746 38.0735 70.3702C38.2975 69.5392 38.4267 68.921 38.461 68.5154C38.4941 68.0839 38.5014 67.5101 38.4829 66.794C38.4537 66.1306 38.3362 65.3864 38.1304 64.5613C37.9382 63.7487 37.7575 63.1962 37.5882 62.9039C37.4178 62.5855 37.1481 62.2325 36.7791 61.8447C36.4096 61.4439 36.0774 61.1522 35.7826 60.9697C35.5003 60.7736 34.9821 60.5488 34.228 60.2953C33.4994 60.0276 32.9713 59.8749 32.6438 59.8372C32.3435 59.8244 31.7734 59.9016 30.9336 60.0689C30.1458 60.234 29.4741 60.5177 28.9183 60.9201C28.3247 61.3503 27.916 61.6876 27.6921 61.9321C27.4694 62.2026 27.2072 62.6116 26.9055 63.1593C26.6032 63.694 26.3197 64.3581 26.0549 65.1518C25.8025 65.9319 25.6589 66.5182 25.624 66.9107C25.5886 67.2903 25.6476 68.0371 25.8009 69.1512C25.9791 70.2382 26.1605 70.9535 26.3451 71.2973C26.5178 71.6677 26.8727 72.1799 27.4098 72.834C27.9475 73.5011 28.3649 73.9519 28.662 74.1865C28.9189 74.3967 29.2535 74.597 29.6659 74.7874ZM57.9856 63.941C58.1519 63.8685 58.2788 63.7912 58.3664 63.7091C58.4541 63.6271 58.5216 63.5329 58.569 63.4265C58.6278 63.2806 58.678 63.0894 58.7197 62.8529C58.7609 62.6035 58.8017 62.1976 58.8421 61.6354C58.8949 61.0596 58.932 60.5692 58.9532 60.1643C58.9739 59.7463 59.0131 59.0082 59.0707 57.9499C59.1861 55.8334 59.738 54.7534 60.7267 54.7099C61.1429 54.6915 61.4325 54.757 61.5955 54.9062C61.7585 55.0554 61.8491 55.3382 61.8675 55.7544C61.8766 55.9626 61.8124 56.4281 61.6748 57.151C60.8544 61.6054 60.5101 65.3286 60.6419 68.3205C60.7897 71.6766 61.4396 73.8572 62.5917 74.8622C62.7541 74.9984 62.884 75.136 62.9814 75.2751C63.0912 75.4006 63.1605 75.4953 63.1894 75.5592C63.2313 75.6225 63.2525 75.6607 63.2531 75.6737C63.2617 75.8688 63.0884 76.0785 62.7334 76.3026C62.2901 76.5959 61.8994 76.7499 61.5612 76.7648C60.7937 76.7986 60.1423 76.0648 59.607 74.5635C59.0716 73.0622 58.7338 70.718 58.5934 67.531C58.5739 67.0887 58.436 66.7689 58.1797 66.5717C58.0179 66.4485 57.8394 66.3912 57.6443 66.3998C56.5386 66.4485 55.1957 66.5858 53.6155 66.8118C52.0088 67.0259 50.8597 67.2721 50.1681 67.5502C49.3341 67.8476 48.8057 68.1315 48.583 68.402C48.3609 68.6855 48.193 69.3119 48.0793 70.2814C47.9745 71.1593 47.9431 72.073 47.9849 73.0226L48.0958 75.5397C48.1227 76.1511 48.0311 76.5852 47.8208 76.8421C47.6111 77.112 47.2526 77.2582 46.7453 77.2805C46.355 77.2977 46.0634 77.1867 45.8704 76.9476C45.691 76.7209 45.5873 76.2888 45.5592 75.6514C45.5179 74.7148 45.5826 73.5194 45.7531 72.0652C46.0621 69.3146 46.2848 64.6062 46.4213 57.9401C46.4396 57.1703 46.4775 56.6994 46.5351 56.5275C46.5808 56.3821 46.7552 56.1984 47.0582 55.9766C47.3482 55.7553 47.6689 55.6369 48.0201 55.6214C48.3973 55.6048 48.6468 55.6459 48.7684 55.7448C48.8895 55.8307 48.9555 55.9973 48.9664 56.2444C48.962 56.4401 48.8542 57.3963 48.6431 59.113C48.4197 61.143 48.3326 62.7174 48.3819 63.8361C48.4031 64.3174 48.5249 64.7161 48.7474 65.0321C48.9698 65.3481 49.2827 65.4973 49.6859 65.4795C50.5965 65.4394 52.2275 65.1851 54.579 64.7166C54.825 64.6797 55.1225 64.6275 55.4714 64.56C55.8333 64.4919 56.1048 64.4409 56.2857 64.4068C56.4797 64.3722 56.7059 64.3297 56.9644 64.2792C57.2223 64.2157 57.4154 64.1616 57.5437 64.1168C57.6845 64.0585 57.8318 63.9999 57.9856 63.941ZM80.5098 58.6675C80.6135 58.9496 80.5995 59.2239 80.4678 59.4904C80.3486 59.7433 80.1412 59.9153 79.8454 60.0066C79.5627 60.0972 79.3014 60.0827 79.0615 59.9629L78.7424 59.8206C78.5557 59.7245 78.3226 59.611 78.0432 59.4799C77.8044 59.3861 77.4794 59.2571 77.0681 59.0927C76.658 58.9544 76.3605 58.8567 76.1755 58.7997C75.9651 58.7568 75.7357 58.7278 75.4874 58.7127C75.2781 58.6959 74.9849 58.6957 74.6076 58.7123C74.2564 58.7278 73.9649 58.7667 73.733 58.8291C73.5011 58.8914 73.2634 58.9671 73.0196 59.056C72.8149 59.1432 72.4791 59.36 72.0121 59.7064C71.544 60.0268 71.1802 60.3491 70.9208 60.6733C70.6111 61.0389 70.3703 61.3427 70.1985 61.5849C70.0539 61.852 69.9101 62.1385 69.7671 62.4446C69.6485 62.7105 69.4529 63.2991 69.1802 64.2104C68.9075 65.1217 68.7515 65.7216 68.7121 66.0101C68.7015 66.3624 68.6975 66.7145 68.6999 67.0663C68.7018 67.4051 68.7229 67.7365 68.7633 68.0606C68.8036 68.3846 68.8856 68.7655 69.0091 69.2032C69.1604 69.6788 69.3979 70.1897 69.7218 70.7358C70.0467 71.308 70.3057 71.7137 70.4987 71.9528C70.6912 72.179 70.9025 72.3912 71.1328 72.5896C71.3218 72.7377 71.6098 72.914 71.9968 73.1185C72.382 73.284 72.8835 73.4249 73.5012 73.541C74.1432 73.617 74.6078 73.6617 74.8952 73.6751C75.2464 73.6597 75.5781 73.645 75.8903 73.6313C76.1493 73.5938 76.4852 73.5269 76.8981 73.4305C77.2458 73.337 77.5834 73.1592 77.9107 72.8972C78.2505 72.6215 78.4701 72.4294 78.5696 72.3207C78.6928 72.1589 78.8027 71.9911 78.8993 71.8175C78.9965 71.6568 79.0982 71.4503 79.2044 71.198L79.3823 70.7991C79.501 70.5332 79.7017 70.355 79.9844 70.2643C80.2796 70.1601 80.5536 70.1675 80.8065 70.2867C81.0724 70.4054 81.2572 70.6058 81.3608 70.8879C81.4639 71.1571 81.4564 71.4311 81.3384 71.71L81.1604 72.1089C81.0187 72.441 80.8808 72.7142 80.7469 72.9286C80.6 73.1436 80.4533 73.3652 80.307 73.5932C80.0843 73.8637 79.7081 74.1995 79.1783 74.6008C78.6367 75.0287 78.0761 75.3206 77.4965 75.4765C76.9689 75.63 76.4978 75.7355 76.0833 75.7929C75.706 75.8095 75.3288 75.8261 74.9515 75.8427C74.5211 75.8356 73.932 75.7768 73.1843 75.6664C72.3579 75.5464 71.6584 75.3491 71.0859 75.0746C70.5133 74.8 70.0576 74.5138 69.7186 74.2159C69.382 73.9701 69.0826 73.6835 68.8206 73.3562C68.5579 73.0158 68.222 72.4897 67.8126 71.7779C67.4311 71.1039 67.1488 70.4647 66.9657 69.8602C66.7838 69.2817 66.6699 68.7654 66.6238 68.3112C66.58 67.9091 66.5555 67.4996 66.5501 67.0828C66.5443 66.653 66.5579 66.2222 66.591 65.7907C66.6241 65.3591 66.7877 64.6351 67.0818 63.6185C67.3884 62.5884 67.6244 61.8808 67.7899 61.4955C67.9825 61.1351 68.1826 60.7939 68.39 60.472C68.6086 60.1105 68.8977 59.7198 69.2572 59.2999C69.6404 58.8269 70.1421 58.3812 70.7623 57.9628C71.3559 57.5327 71.8385 57.2442 72.21 57.0975C72.5295 56.9531 72.8566 56.8344 73.1914 56.7415C73.5403 56.674 73.9676 56.6096 74.4732 56.5482C74.9545 56.527 75.3518 56.5225 75.6652 56.5348C75.9667 56.5737 76.2749 56.6187 76.59 56.67C76.9198 56.7598 77.3293 56.8851 77.8187 57.046C78.2831 57.2341 78.6616 57.3934 78.9541 57.5239C79.22 57.6425 79.4663 57.762 79.6932 57.8823L79.9741 58.0459C80.24 58.1645 80.4186 58.3717 80.5098 58.6675ZM97.9231 57.6464C98.2047 57.5297 98.4785 57.5307 98.7444 57.6493C99.0233 57.7673 99.2146 57.9675 99.3182 58.2496C99.4343 58.5182 99.4333 58.792 99.3153 59.0709L99.0805 59.5113C98.9636 59.8162 98.7976 60.1885 98.5823 60.6281C98.3795 61.0541 98.2129 61.4133 98.0824 61.7058C97.9513 61.9853 97.7019 62.5371 97.3342 63.3614C96.9659 64.1727 96.6162 64.9636 96.2852 65.7341C95.9655 66.465 95.7246 67.0621 95.5626 67.5254C95.3733 67.9639 95.0559 68.7468 94.6103 69.8743C94.3189 70.6561 94.08 71.2987 93.8937 71.8022C94.0329 72.0046 94.1651 72.1943 94.2902 72.3713L94.5016 72.7334C94.642 72.9618 94.6733 73.2276 94.5954 73.5308C94.5169 73.821 94.3638 74.0428 94.1359 74.1962C93.7939 74.4198 93.4427 74.4353 93.0823 74.2426C93.036 74.375 93.0021 74.4938 92.9807 74.599C92.647 75.6042 92.2949 76.6364 91.9245 77.6953C91.5648 78.7017 91.1831 79.8003 90.7793 80.9911C90.3756 82.1819 90.1269 82.8967 90.0331 83.1354C89.9642 83.347 89.8849 83.6176 89.7952 83.9474C89.75 84.1058 89.717 84.2441 89.6961 84.3624L89.7065 84.5965C89.7196 84.8957 89.62 85.1477 89.4074 85.3526C89.2079 85.5569 88.9585 85.6656 88.6593 85.6788C88.3731 85.6914 88.1146 85.592 87.8837 85.3806C87.6664 85.1816 87.5515 84.939 87.5389 84.6529L87.5286 84.4187C87.5414 84.1184 87.6034 83.7507 87.7146 83.3157C87.8043 82.9859 87.902 82.6884 88.0076 82.4231C88.1014 82.1843 88.3501 81.4696 88.7538 80.2788C89.1576 79.088 89.5322 77.9767 89.8778 76.9448C90.2375 75.9384 90.5842 74.9326 90.9179 73.9274C91.1442 73.1485 91.345 72.527 91.52 72.0632C91.1713 71.5441 90.8982 71.113 90.7006 70.7698C90.477 70.4278 90.2596 70.0789 90.0485 69.7233C89.8226 69.3292 89.5899 68.9289 89.3504 68.5224C89.1505 68.1271 88.7888 67.4588 88.2651 66.5174C87.7414 65.576 87.3371 64.8314 87.0523 64.2835C86.7285 63.7373 86.3633 63.1408 85.9569 62.494L85.365 61.4839C85.2234 61.2295 85.1854 60.9574 85.2508 60.6678C85.3163 60.3782 85.4759 60.1561 85.7298 60.0016C85.9967 59.8464 86.2684 59.8019 86.545 59.8679C86.8346 59.9334 87.0635 60.0992 87.2316 60.3655L87.8431 61.3748C88.2495 62.0216 88.6087 62.6313 88.9207 63.2041C89.2468 63.8023 89.6646 64.5594 90.1742 65.4754C90.6979 66.4168 91.0599 67.0916 91.2604 67.4999C91.4603 67.8951 91.6791 68.2765 91.9168 68.6439C92.0873 68.9623 92.2633 69.2608 92.445 69.5395C92.5162 69.38 92.5622 69.2411 92.5831 69.1229C93.04 67.9558 93.3628 67.1466 93.5514 66.6951C93.7135 66.2318 93.9671 65.6276 94.3123 64.8826C94.6297 64.0996 94.9723 63.296 95.34 62.4717C95.7202 61.6339 95.982 61.0684 96.1255 60.7754C96.2814 60.4687 96.4483 60.116 96.6263 59.7172C96.8167 59.3047 96.9833 58.9455 97.1262 58.6394L97.3415 58.1998C97.4601 57.9339 97.654 57.7495 97.9231 57.6464ZM113.855 56.7296C113.373 56.7248 112.971 57.2247 112.651 58.2294C110.465 63.9431 108.792 67.8225 107.63 69.8678C107.508 70.0426 107.356 70.2969 107.175 70.6307C106.709 71.5897 106.25 72.4115 105.798 73.0961C105.36 73.8061 105.017 74.3035 104.769 74.5881C104.524 74.9378 104.343 75.1152 104.225 75.1204C103.835 75.1375 103.563 75.0322 103.41 74.8044C103.245 74.6031 103.15 74.2358 103.127 73.7025C103.096 73.013 103.645 71.9918 104.771 70.6389C105.95 69.0099 107.401 66.2872 109.123 62.4707C110.792 58.9304 112.131 55.7564 113.141 52.9488C113.25 52.4617 113.422 52.2131 113.656 52.2028C113.786 52.197 114.063 52.2695 114.487 52.4203C114.846 52.6 115.069 52.7726 115.155 52.9383C115.298 53.2448 115.625 54.4555 116.136 56.5705C117.058 60.6485 117.995 63.8721 118.947 66.2414C119.905 68.7667 120.891 70.4437 121.905 71.2723C122.282 71.5294 122.504 71.6956 122.572 71.7708C122.598 71.7696 122.611 71.7626 122.611 71.7496C122.628 72.1528 122.547 72.5278 122.367 72.8746C122.187 73.2215 122.014 73.4376 121.848 73.5231C121.67 73.6222 121.243 73.6866 120.566 73.7164C120.271 73.5209 119.715 72.8742 118.897 71.7762C117.902 70.4777 116.663 66.7785 115.183 60.6789C114.81 59.0141 114.506 57.8935 114.272 57.3173L114.129 56.7371L113.855 56.7296ZM126.376 52.0335C126.584 52.0244 126.883 52.0112 127.273 51.994C127.663 51.9768 127.963 51.9636 128.171 51.9545C128.214 52.6433 128.256 54.0426 128.297 56.1522C128.337 58.2488 128.418 59.6464 128.54 60.3448C129.152 60.0311 130.064 59.7303 131.277 59.4423C132.502 59.1407 133.332 58.9086 133.768 58.746C135.452 58.5024 137.381 58.8085 139.556 59.6641C141.111 61.5376 141.63 63.2612 141.113 64.835C140.357 66.9015 138.748 68.6798 136.285 70.1698C136.208 70.2123 135.934 70.3351 135.46 70.5385C135 70.7412 134.7 70.8717 134.559 70.9301C134.431 70.9878 134.156 71.0977 133.733 71.2597C133.31 71.4217 133.001 71.52 132.807 71.5546C132.613 71.5762 132.328 71.6213 131.953 71.69C131.577 71.7456 131.259 71.7597 130.997 71.7321C130.747 71.691 130.464 71.6252 130.147 71.5349C129.831 71.4446 129.532 71.3209 129.251 71.1638C128.169 69.9603 127.449 68.7147 127.093 67.4271C126.069 61.6462 125.83 56.515 126.376 52.0335ZM128.769 63.3259C128.825 64.6007 128.894 65.7185 128.976 66.6794C129.135 67.0373 129.264 67.3184 129.365 67.5225C129.465 67.7266 129.6 67.9748 129.769 68.2671C129.951 68.5589 130.145 68.811 130.35 69.0236C130.567 69.2225 130.803 69.4011 131.058 69.5594C132.497 69.3917 133.831 68.9028 135.059 68.0928C136.301 67.2822 137.545 66.2303 138.791 64.9372C138.865 64.543 138.9 64.157 138.897 63.7791C138.893 63.4013 138.844 63.032 138.75 62.6712C138.656 62.2974 138.478 61.9664 138.218 61.6781C137.97 61.3892 137.648 61.1753 137.251 61.0364C136.214 60.8605 135.201 60.8139 134.215 60.8964C133.227 60.966 132.254 61.2109 131.295 61.6311C130.336 62.0513 129.494 62.6162 128.769 63.3259ZM145.799 53.6023C145.931 53.3358 146.132 53.1575 146.401 53.0675C146.684 52.9768 146.959 52.9973 147.225 53.1289C147.505 53.26 147.689 53.4604 147.78 53.7301L147.961 54.2891C148.112 54.7647 148.176 55.3223 148.152 55.962C148.149 56.4965 148.172 57.3231 148.222 58.4418C148.244 59.5356 148.263 60.2777 148.281 60.6679C148.324 61.07 148.369 61.4982 148.415 61.9523C148.422 62.1084 148.444 62.3095 148.481 62.5555C148.572 62.2517 148.68 61.895 148.805 61.4855C149.111 60.4293 149.455 59.5149 149.838 58.7421C150.234 57.9687 150.562 57.4134 150.82 57.0761C151.04 56.7406 151.418 56.2874 151.953 55.7164C152.538 55.0781 153.089 54.5846 153.608 54.2359C154.126 53.8612 154.636 53.5976 155.137 53.4452C155.664 53.2656 156.129 53.1799 156.534 53.1882C156.964 53.1953 157.419 53.3056 157.897 53.5191C158.363 53.7332 158.706 53.9853 158.928 54.2753C159.121 54.5274 159.398 55.0496 159.759 55.8418C160.052 56.5718 160.253 57.1494 160.363 57.5747C160.46 58.0005 160.591 58.6073 160.756 59.3951C160.821 59.692 160.892 59.9691 160.969 60.2264C161.105 59.7642 161.358 59.1405 161.727 58.3553C162.142 57.4247 162.46 56.7916 162.68 56.4561C162.899 56.1075 163.2 55.7033 163.584 55.2432C164.018 54.7419 164.399 54.3732 164.728 54.1371C165.068 53.8615 165.475 53.648 165.951 53.4968C166.581 53.3126 167.236 53.375 167.914 53.684C168.566 53.9811 169.081 54.4277 169.459 55.0236C169.716 55.5206 169.91 55.9486 170.043 56.3077C170.137 56.6555 170.284 57.3333 170.485 58.341C170.713 59.3737 170.857 60.1298 170.917 60.6094C170.99 61.0754 171.099 61.7744 171.244 62.7064C171.363 63.6395 171.463 64.4237 171.543 65.0588C171.623 65.6939 171.677 66.3301 171.706 66.9675C171.758 67.5778 171.808 68.11 171.854 68.5641C171.9 69.0183 171.941 69.3488 171.976 69.5558L172.03 69.8858C172.069 70.1838 172.002 70.4474 171.83 70.6766C171.657 70.9058 171.422 71.0399 171.124 71.0791C170.839 71.1178 170.576 71.0512 170.333 70.8794C170.104 70.694 169.956 70.4593 169.892 70.1755L169.879 69.8828C169.843 69.6498 169.788 69.2938 169.715 68.8147C169.667 68.3346 169.61 67.7637 169.541 67.102C169.514 66.4906 169.461 65.8803 169.383 65.2712C169.304 64.6621 169.205 63.9105 169.088 63.0164C168.97 62.1093 168.874 61.4162 168.801 60.9372C168.729 60.4842 168.586 59.7671 168.374 58.7859C168.174 57.8042 168.029 57.1849 167.94 56.9282C167.879 56.7224 167.762 56.4473 167.591 56.1029C167.477 55.8994 167.295 55.7445 167.042 55.6383C166.856 55.5423 166.724 55.509 166.647 55.5384C166.415 55.6008 166.217 55.7007 166.054 55.8382C165.827 56.0047 165.558 56.2706 165.249 56.6362C164.888 57.03 164.629 57.3608 164.471 57.6284C164.313 57.883 164.044 58.4292 163.664 59.2671C163.283 60.0919 163.048 60.6757 162.959 61.0185C162.871 61.4003 162.753 61.9725 162.604 62.735C162.468 63.4839 162.365 64.2574 162.296 65.0555C162.206 65.9718 162.152 66.5216 162.134 66.7049C162.095 67.0063 162.027 67.3873 161.93 67.8477C161.846 68.3076 161.783 68.6428 161.74 68.8532C161.714 68.8543 161.688 68.8685 161.663 68.8956C161.639 68.9228 161.581 68.9579 161.492 69.0009C161.403 69.044 161.307 69.0873 161.205 69.1309C161.115 69.1739 161.006 69.2178 160.878 69.2626C160.75 69.3073 160.627 69.3388 160.511 69.357C160.407 69.3746 160.303 69.3856 160.199 69.3902C160.095 69.3948 159.997 69.3796 159.904 69.3446C159.811 69.3096 159.731 69.2545 159.662 69.1793C159.607 69.1035 159.576 69.0006 159.57 68.8705C159.561 68.6624 159.55 68.5521 159.536 68.5397C159.522 68.5142 159.527 68.4749 159.551 68.4217C159.574 68.3686 159.603 68.2891 159.638 68.1833C159.68 67.9469 159.706 67.6655 159.718 67.3391C159.729 66.9867 159.721 66.5179 159.695 65.9325C159.643 65.3483 159.563 64.7002 159.453 63.9881C159.316 63.2513 159.188 62.5596 159.069 61.9132C158.964 61.3053 158.829 60.6139 158.664 59.8391C158.499 59.0514 158.364 58.4904 158.258 58.1562C158.192 57.8333 158.027 57.3453 157.763 56.6921C157.558 56.1668 157.393 55.8287 157.269 55.6778C157.215 55.628 157.107 55.548 156.946 55.4378C156.786 55.3667 156.635 55.3342 156.492 55.3405C156.36 55.3203 156.154 55.3684 155.872 55.4851C155.525 55.5786 155.168 55.7573 154.801 56.021C154.434 56.2718 154.027 56.6482 153.58 57.1501C153.069 57.6809 152.729 58.0869 152.559 58.3681C152.386 58.5842 152.131 59.0255 151.796 59.692C151.46 60.3585 151.15 61.1671 150.866 62.1181C150.558 63.0961 150.367 63.7888 150.293 64.1961C150.231 64.5507 150.136 65.2066 150.008 66.1636C149.921 67.132 149.866 67.8056 149.843 68.1846C149.82 68.5505 149.809 69.0268 149.809 69.6133C149.808 70.1998 149.814 70.6166 149.825 70.8638C149.827 70.9158 149.836 70.9741 149.852 71.0385C149.868 71.103 149.893 71.2322 149.927 71.4262C149.962 71.6072 149.929 71.7455 149.828 71.8411C149.741 71.9362 149.609 72.0333 149.431 72.1323C149.253 72.2314 148.96 72.2378 148.552 72.1515C148.014 72.0709 147.669 71.9297 147.517 71.7279C147.364 71.513 147.349 71.3247 147.472 71.1629L147.618 70.9219C147.578 70.5978 147.539 70.3193 147.503 70.0863C147.465 69.8272 147.391 69.3222 147.28 68.5712C147.168 67.8201 147.071 67.2444 146.989 66.844C146.918 66.4301 146.793 65.6666 146.614 64.5536C146.435 63.4406 146.321 62.6441 146.274 62.1639C146.228 61.7098 146.183 61.2686 146.138 60.8405C146.119 60.4112 146.097 59.6302 146.074 58.4973C146.023 57.3526 145.998 56.4935 145.999 55.92C146.007 55.5156 145.98 55.1844 145.916 54.9266L145.738 54.4261C145.647 54.1304 145.667 53.8557 145.799 53.6023ZM189.679 64.4555C189.538 64.2271 189.392 64.0055 189.239 63.7906C189.044 63.4995 188.822 63.203 188.574 62.9011C188.353 62.611 187.837 62.1515 187.028 61.5225C186.311 60.9414 185.841 60.6168 185.616 60.5485C185.431 60.4784 185.085 60.4806 184.58 60.555C184.023 60.6317 183.534 60.7705 183.113 60.9715C182.64 61.1748 182.277 61.3733 182.025 61.5669C181.785 61.7469 181.565 61.939 181.366 62.1433C181.189 62.2814 180.949 62.5983 180.645 63.0939C180.315 63.5907 180.116 63.9448 180.047 64.1564C179.979 64.394 179.915 64.7031 179.853 65.0838C179.818 65.4633 179.818 65.7566 179.853 65.9636C179.862 66.1717 179.956 66.5195 180.133 67.0069C180.31 67.4553 180.487 67.7799 180.665 67.9806C180.885 68.2316 181.094 68.4048 181.294 68.5003C181.482 68.6223 181.683 68.7438 181.897 68.8647C182.123 68.9721 182.48 69.0932 182.968 69.2281C183.403 69.3393 183.777 69.3945 184.09 69.3937C184.441 69.3783 184.732 69.3198 184.962 69.2185C185.22 69.155 185.482 69.0522 185.75 68.9101C186.03 68.7674 186.316 68.5984 186.607 68.4031C186.835 68.2367 187.259 67.814 187.881 67.1349C188.463 66.4445 188.815 66.0055 188.937 65.8176C189.058 65.6037 189.166 65.397 189.262 65.1973C189.397 65.0088 189.536 64.7616 189.679 64.4555ZM191.599 65.4462C191.43 65.7534 191.298 66.0004 191.202 66.1871C191.107 66.3998 190.968 66.647 190.785 66.9288C190.616 67.236 190.184 67.7894 189.489 68.589C188.782 69.3891 188.232 69.9216 187.839 70.1866C187.472 70.4373 187.098 70.6558 186.715 70.8421C186.346 71.0409 185.981 71.2003 185.621 71.3204C185.223 71.4422 184.757 71.5149 184.223 71.5384C183.665 71.589 183.049 71.5119 182.376 71.307C181.756 71.1518 181.286 70.99 180.966 70.8216C180.659 70.6657 180.352 70.4837 180.043 70.2758C179.734 70.0808 179.415 69.7886 179.085 69.3991C178.689 68.9864 178.372 68.44 178.133 67.7597C177.896 67.1055 177.749 66.5776 177.692 66.176C177.649 65.7999 177.662 65.3497 177.73 64.8254C177.812 64.3135 177.91 63.866 178.023 63.4831C178.137 63.1001 178.394 62.5805 178.795 61.9242C179.197 61.2939 179.561 60.8282 179.887 60.5271C180.176 60.2798 180.485 60.0446 180.814 59.8216C181.155 59.585 181.6 59.3178 182.147 59.0199C182.773 58.7317 183.487 58.5243 184.29 58.3977C185.106 58.2836 185.772 58.3129 186.288 58.4857C186.75 58.6217 187.481 59.0913 188.481 59.8945C188.302 59.394 188.161 58.9897 188.056 58.6815C187.88 58.2331 187.627 57.6708 187.297 56.9945C186.943 56.3454 186.64 55.8374 186.39 55.4705C186.139 55.1035 185.858 54.7966 185.548 54.5496C185.303 54.3258 184.841 54.0528 184.162 53.7308C183.484 53.4088 182.901 53.2064 182.415 53.1235C181.879 53.069 181.447 53.0358 181.121 53.0241C180.795 53.0385 180.477 53.0655 180.166 53.1053C179.907 53.1428 179.433 53.3201 178.743 53.6372C178.245 53.8676 177.921 54.0579 177.771 54.2078L177.551 54.5303C177.405 54.7714 177.184 54.931 176.887 55.0092C176.604 55.0738 176.328 55.0273 176.06 54.8697C175.805 54.6985 175.639 54.4712 175.561 54.1879C175.496 53.891 175.556 53.6212 175.74 53.3784L175.959 53.0169C176.239 52.5744 176.858 52.1301 177.816 51.6839C178.71 51.2665 179.397 51.0212 179.876 50.948C180.278 50.9042 180.687 50.8732 181.103 50.8548C181.534 50.862 182.083 50.9029 182.751 50.9778C183.446 51.0775 184.226 51.3364 185.092 51.7544C185.958 52.1725 186.594 52.5745 187.002 52.9606C187.396 53.3212 187.779 53.7345 188.152 54.2003C188.498 54.6673 188.857 55.2771 189.229 56.0296C189.615 56.7817 189.897 57.4209 190.076 57.9474C190.255 58.4478 190.495 59.1606 190.796 60.0857C191.098 61.0109 191.315 61.653 191.448 62.012C191.595 62.3836 191.73 62.7816 191.852 63.2063C191.988 63.6174 192.085 63.9064 192.145 64.0732L192.147 64.1122C192.286 64.3146 192.26 64.6091 192.068 64.9955L191.599 65.4462ZM195.988 55.0086C196.06 54.8751 196.131 54.7091 196.201 54.5105C196.27 54.3119 196.327 54.1335 196.373 53.9751C196.418 53.8297 196.489 53.6637 196.585 53.477C196.668 53.2908 196.76 53.1565 196.861 53.0738C196.974 52.9906 197.121 52.9125 197.3 52.8394C197.48 52.7794 197.682 52.7835 197.907 52.8518C198.166 53.1271 198.324 53.4525 198.38 53.828C198.422 54.2041 198.416 54.6475 198.36 55.1583C198.304 55.656 198.281 56.022 198.291 56.2561C198.096 57.151 197.99 58.1397 197.972 59.2223C197.955 60.3048 197.99 61.2482 198.077 62.0524C198.165 62.8566 198.3 63.8478 198.482 65.0258C199.12 65.91 199.734 66.665 200.322 67.2908C200.91 67.9296 201.566 68.4676 202.289 68.905C203.366 68.5056 204.284 68.0416 205.043 67.5129C205.802 66.9842 206.385 66.3069 206.791 65.4809C206.781 64.96 206.797 64.425 206.838 63.8758C206.879 63.3395 206.942 62.6981 207.027 61.9515C207.124 61.2043 207.186 60.6738 207.211 60.3598C207.265 59.8101 207.274 59.1254 207.238 58.3059C207.214 57.4728 207.189 56.7571 207.163 56.1587C207.136 55.5473 207.178 54.8677 207.288 54.1199C207.398 53.3722 207.597 52.6922 207.882 52.0801C207.95 52.1293 208.46 52.4782 209.414 53.127C209.522 54.0867 209.621 55.314 209.713 56.8088C209.805 58.3036 209.881 59.584 209.941 60.6501C210.002 61.7293 210.153 62.9412 210.395 64.2861C210.636 65.6309 210.97 66.8544 211.397 67.9565C211.958 67.3713 212.675 66.6554 213.551 65.8088C214.201 66.0799 214.695 66.4883 215.032 67.0339C215.368 67.5795 215.538 68.1846 215.542 68.8492C215.558 69.5132 215.495 70.1676 215.354 70.8124C215.169 71.6287 214.961 72.2439 214.732 72.658C214.647 72.8051 214.508 73.0524 214.315 73.3997C214.135 73.7465 213.984 74.0204 213.862 74.2212C213.741 74.4221 213.582 74.6702 213.387 74.9655C213.191 75.2609 212.999 75.4909 212.811 75.6556C212.609 75.8078 212.388 75.9545 212.146 76.0954C211.904 76.2234 211.633 76.2874 211.334 76.2876C211.047 76.2872 210.738 76.2226 210.406 76.0939C210.608 75.6418 210.944 74.9819 211.414 74.114C211.896 73.2325 212.285 72.4334 212.579 71.7167C212.886 70.9993 213.076 70.2806 213.149 69.5606C212.286 69.7941 211.4 69.9439 210.49 70.0101C210.216 69.6963 209.945 69.3172 209.678 68.8728C209.423 68.4279 209.232 68.0779 209.104 67.8229C208.988 67.5673 208.8 67.1389 208.539 66.5379C208.3 67.0436 208.059 67.4909 207.816 67.8796C207.572 68.2683 207.283 68.659 206.949 69.0517C206.614 69.4444 206.231 69.7676 205.799 70.0212C205.367 70.2748 204.898 70.4453 204.394 70.5327C203.635 70.7486 202.88 70.7753 202.13 70.6129C201.38 70.4634 200.696 70.1612 200.076 69.7063C199.457 69.2513 198.9 68.748 198.407 68.1962C197.392 67.0549 196.941 66.4426 197.055 66.3594C197.055 66.3594 197.032 66.2757 196.985 66.1083C196.966 65.9788 196.949 65.8883 196.934 65.8369C196.617 64.8603 196.301 63.8837 195.984 62.9071C195.995 61.9812 196.007 61.0553 196.018 60.1294C196.031 59.5294 196.025 58.6564 196 57.5105C195.988 56.351 195.984 55.5171 195.988 55.0086ZM232.341 57.8845L231.445 59.7421C230.116 62.6941 228.731 64.9903 227.291 66.6308C225.889 68.2305 224.531 69.0593 223.217 69.1172C222.502 69.1487 221.727 68.7136 220.892 67.812C220.043 66.8849 219.573 65.3937 219.483 63.3384C219.406 61.5953 219.695 58.9824 220.35 55.4997C220.901 52.6211 221.162 50.5633 221.133 49.3264C221.396 48.7805 221.814 48.4949 222.386 48.4697C222.776 48.4525 223.094 48.5753 223.341 48.8382C223.6 49.1135 223.737 49.4007 223.75 49.6999C223.787 50.5454 223.536 51.7947 222.996 53.4476C221.907 56.8322 221.415 59.7212 221.521 62.1147C221.629 64.5733 222.34 65.7736 223.654 65.7158C224.955 65.6585 226.466 64.4645 228.188 62.1339C229.86 59.8576 231.274 56.739 232.429 52.778C232.884 51.2722 233.265 50.2975 233.571 49.8539C233.804 49.5178 234.128 49.3406 234.545 49.3222C234.844 49.3091 235.062 49.3907 235.201 49.5671C235.338 49.7304 235.418 50.0593 235.44 50.5536C235.433 50.7103 235.336 51.1707 235.148 51.9349C234.49 55.0268 234.22 57.9321 234.34 60.6508C234.488 64.0199 235.138 66.2005 236.29 67.1925C236.453 67.3417 236.583 67.4858 236.68 67.6249C236.79 67.7504 236.859 67.8451 236.888 67.909C236.93 67.9723 236.951 68.0105 236.952 68.0235C236.96 68.2056 236.787 68.4153 236.432 68.6524C235.989 68.9457 235.598 69.0997 235.26 69.1146C234.571 69.145 233.959 68.5659 233.424 67.3773C232.831 66.048 232.475 64.0304 232.356 61.3247L232.326 60.6418C232.317 60.4336 232.314 60.2187 232.317 59.997L232.341 57.8845ZM241.169 47.486C241.794 47.4585 242.425 47.4242 243.061 47.3831C243.069 47.5652 243.091 47.9162 243.127 48.4359C243.163 48.9427 243.193 49.3259 243.217 49.5854C243.241 49.832 243.275 50.1629 243.319 50.578C243.377 50.9925 243.439 51.3743 243.507 51.7232C243.574 52.0591 243.653 52.3945 243.746 52.7293C243.794 53.2094 243.902 54.6383 244.072 57.016C245.526 56.8737 246.816 56.7322 247.944 56.5913C247.941 56.5262 247.928 56.3769 247.905 56.1433C247.894 55.8962 247.887 55.7336 247.883 55.6555C247.971 54.4004 248.328 53.1791 248.953 51.9916C249.579 50.8041 250.362 49.7856 251.302 48.9361C252.254 48.0731 253.36 47.4443 254.62 47.05C255.893 46.642 257.173 46.5661 258.462 46.8222C260.614 47.757 262.192 49.8445 263.195 53.0848C263.815 57.6974 263.127 61.1555 261.13 63.4591C260.474 64.244 259.667 64.8595 258.709 65.3057C257.751 65.752 256.743 65.9528 255.686 65.9081C254.627 65.8504 253.687 65.5074 252.864 64.8789C252.422 64.6116 252.011 64.2909 251.629 63.9167C251.26 63.5289 250.928 63.1004 250.634 62.6311C250.34 62.1618 250.079 61.7236 249.853 61.3165C249.639 60.8959 249.389 60.4051 249.104 59.8442C248.818 59.2703 248.57 58.812 248.359 58.4694C247.118 58.6935 245.735 58.9759 244.213 59.3167C244.431 62.2135 244.523 64.2948 244.488 65.5606C243.876 65.5876 243.265 65.6145 242.653 65.6414C242.501 64.5403 242.395 63.1894 242.338 61.5889C242.281 59.9883 242.2 58.4474 242.095 56.9662C241.991 55.4849 241.815 54.1437 241.566 52.9426C241.395 51.4122 241.262 49.5933 241.169 47.486ZM255.267 48.8592C254.566 49.2289 253.919 49.6289 253.326 50.0591C252.745 50.4887 252.181 50.9893 251.632 51.5608C251.096 52.1188 250.694 52.7556 250.426 53.4712C250.157 54.1738 250.066 54.9012 250.151 55.6534C250.108 57.3366 250.582 58.9254 251.573 60.4197C252.577 61.9134 253.851 63.0238 255.395 63.7508C256.623 63.814 257.739 63.4195 258.745 62.5671C259.75 61.7148 260.408 60.6822 260.72 59.4694C260.978 58.5197 261.124 57.5552 261.159 56.5762C261.207 55.5836 261.137 54.6026 260.951 53.6333C260.778 52.6634 260.438 51.7465 259.931 50.8825C259.424 50.0186 258.773 49.2978 257.978 48.7203C257.381 48.7596 256.477 48.8059 255.267 48.8592Z" fill="#F9F9F9"/>
</svg>
