<svg width="84" height="211" viewBox="0 0 84 211" fill="none" xmlns="http://www.w3.org/2000/svg">
<path fill-rule="evenodd" clip-rule="evenodd" d="M55.4394 31.5017C34.4617 9.98217 4.6532 -0.33356 -25.4212 0.00821819C-55.1484 0.346052 -82.8033 12.9852 -104.462 33.3189C-126.883 54.3683 -144.167 81.5197 -144.963 112.238C-145.778 143.648 -132.974 175.401 -108.664 195.352C-87.8057 212.47 -59.6018 211.504 -32.3839 210.572C-30.054 210.492 -27.7314 210.412 -25.4212 210.344C-24.4745 210.317 -23.5261 210.289 -22.5763 210.262C4.59959 209.484 32.897 208.675 53.0576 190.596C74.8044 171.095 83.5462 141.419 83.9831 112.238C84.4272 82.5723 76.1648 52.7623 55.4394 31.5017ZM27.3259 56.0269C12.7172 42.87 -8.30739 42.3783 -27.9369 43.2911C-46.405 44.1499 -65.779 47.3153 -78.2934 60.9385C-89.5667 73.2105 -89.9704 90.6391 -90.3595 107.438C-90.3898 108.746 -90.4201 110.051 -90.4553 111.349C-90.5142 113.515 -90.5994 115.704 -90.6851 117.903C-91.3397 134.712 -92.018 152.128 -81.1087 164.577C-68.2737 179.224 -47.327 184.379 -27.9369 182.693C-9.98843 181.133 3.63148 168.446 16.7381 156.071C17.6551 155.206 18.5789 154.339 19.5052 153.471C32.4096 141.369 45.7803 128.831 47.6305 111.349C49.7799 91.0392 42.4928 69.6865 27.3259 56.0269Z" fill="#927FFF"/>
</svg>
