<svg width="218" height="73" viewBox="0 0 218 73" fill="none" xmlns="http://www.w3.org/2000/svg">
<path d="M15.1168 16.2673C15.2394 16.0512 15.4084 15.9106 15.6236 15.8455C15.8492 15.7797 16.0652 15.8137 16.2715 15.9474C16.4876 16.07 16.6227 16.2341 16.6768 16.4395L16.7957 16.855C16.8775 17.1736 16.9363 17.457 16.9721 17.7053C17.0073 17.9432 17.0646 18.4615 17.144 19.2603C17.1916 20.0505 17.2288 20.6692 17.2557 21.1163C17.2701 21.3555 17.2854 21.6102 17.3017 21.8806C17.337 21.7741 17.373 21.678 17.4096 21.5923C17.7172 20.6346 18.0422 19.8793 18.3846 19.3265C18.7582 18.7718 19.0476 18.3787 19.2528 18.1472C19.5191 17.8912 19.921 17.6322 20.4583 17.3703C20.9761 17.1304 21.3692 16.9867 21.6377 16.9393C21.8456 16.9267 22.0588 16.9139 22.2771 16.9008C22.5591 16.9047 22.9419 17.0225 23.4254 17.2543C23.931 17.5056 24.361 17.8867 24.7152 18.3976C25.0229 18.8278 25.3413 19.5235 25.6704 20.4846C26.0063 21.3827 26.2402 22.0626 26.3724 22.5243C26.4837 22.9872 26.6774 23.6903 26.9533 24.6338C27.1993 25.5999 27.3937 26.4022 27.5364 27.0406C27.6566 27.6491 27.7666 28.2634 27.8665 28.8835C27.9762 29.4926 28.0474 29.8953 28.0801 30.0916C28.0901 30.258 28.1118 30.4445 28.1451 30.6512L28.1648 30.9787C28.2 31.2166 28.1394 31.4238 27.9831 31.6001C27.8371 31.7759 27.6449 31.8762 27.4063 31.901C27.1782 31.9251 26.9656 31.8597 26.7684 31.7046C26.5822 31.5592 26.4719 31.3728 26.4373 31.1453L26.4204 30.8646C26.3871 30.6579 26.3651 30.4661 26.3545 30.2894C26.3237 30.1243 26.2693 29.7414 26.1914 29.1408C26.0946 28.5727 25.9865 27.9896 25.867 27.3915C25.7261 26.7843 25.5287 26.0188 25.2748 25.0948C25.0093 24.1508 24.8215 23.4577 24.7114 23.0156C24.5805 22.5747 24.3588 21.9254 24.0463 21.0676C23.7571 20.2502 23.5086 19.6756 23.3007 19.3437C23.1187 19.0938 22.9154 18.9234 22.6908 18.8325C22.4961 18.719 22.341 18.6553 22.2254 18.6414C22.1214 18.6477 22.007 18.6545 21.8822 18.6621C21.7795 18.6891 21.5506 18.7864 21.1954 18.9538C20.839 19.1005 20.6122 19.2342 20.5151 19.3548C20.3771 19.4884 20.1603 19.7884 19.8649 20.2549C19.567 20.6798 19.291 21.2965 19.0371 22.1048C18.7648 22.9561 18.6081 23.5603 18.567 23.9176C18.5057 24.2865 18.4689 24.8888 18.4566 25.7244C18.4247 26.582 18.426 27.2968 18.4604 27.8686C18.4948 28.4405 18.5114 28.8883 18.51 29.2118C18.5319 29.5758 18.5305 29.8994 18.5058 30.1826C18.5083 30.2242 18.5114 30.2762 18.5152 30.3386C18.5189 30.401 18.4995 30.5117 18.4569 30.6708C18.4241 30.8189 18.3682 30.9318 18.2894 31.0096C18.2106 31.0874 18.0844 31.1576 17.9108 31.2202C17.7476 31.2822 17.5368 31.2479 17.2785 31.1174C17.1499 31.0625 17.0367 31.0015 16.9387 30.9344C16.8512 30.8666 16.7899 30.8024 16.755 30.7419C16.7194 30.671 16.6945 30.6047 16.6804 30.5429C16.6662 30.4812 16.6579 30.4295 16.6554 30.3879L16.6516 30.3255C16.5478 29.9874 16.4654 29.6584 16.4044 29.3386C16.3434 29.0187 16.253 28.4711 16.1333 27.6956C16.0013 26.8896 15.8994 26.1496 15.8275 25.4756C15.755 24.7912 15.6925 24.0123 15.6399 23.1389C15.5899 22.3071 15.5514 21.6676 15.5245 21.2205C15.4975 20.7734 15.4603 20.1547 15.4127 19.3645C15.3456 18.5963 15.2961 18.1193 15.264 17.9334C15.254 17.767 15.21 17.5557 15.1319 17.2995L15.0451 16.8978C14.9702 16.6936 14.9941 16.4834 15.1168 16.2673ZM40.0347 29.4973C39.9017 29.714 39.7058 29.8406 39.4471 29.877L38.9518 29.9695C38.5292 30.0575 37.9919 30.0585 37.3397 29.9726C36.6992 29.9068 36.1053 29.7494 35.5581 29.5006C35.0538 29.2701 34.6329 29.0397 34.2956 28.8096C33.9355 28.5495 33.4908 28.0962 32.9615 27.4498C32.4333 26.8241 32.0583 26.3145 31.8363 25.9209C31.6235 25.5058 31.4329 24.766 31.2644 23.7012C31.0771 22.669 31.0005 21.917 31.0347 21.4453C31.0923 21.014 31.2294 20.4318 31.4462 19.6987C31.6727 18.9546 31.9214 18.3187 32.1923 17.7911C32.4729 17.2524 32.7448 16.829 33.0081 16.521C33.2915 16.2013 33.7173 15.8209 34.2856 15.3797C34.8954 14.936 35.6431 14.6145 36.5285 14.4151C37.3932 14.2169 38.0295 14.1264 38.4375 14.1436C38.826 14.1829 39.3929 14.3261 40.1383 14.5735C40.8635 14.8325 41.3997 15.0715 41.7468 15.2906C42.1037 15.4987 42.4825 15.8099 42.8831 16.2241C43.2837 16.6382 43.5781 17.0223 43.7664 17.3762C43.9767 17.7496 44.1946 18.3366 44.4202 19.137C44.6342 19.9172 44.7504 20.6355 44.7691 21.2918C44.806 21.9052 44.8061 22.427 44.7694 22.8571C44.7534 23.2859 44.6484 23.8818 44.4543 24.6449C44.2615 25.4287 44.0342 26.0737 43.7725 26.58C43.4808 27.1088 43.0833 27.6128 42.5799 28.0918C42.0765 28.5709 41.668 28.8929 41.3545 29.0578C41.0611 29.2111 40.6212 29.3576 40.0347 29.4973ZM36.1018 27.8713C36.3505 27.6685 36.6235 27.6103 36.9209 27.6967L37.4157 27.8548C37.6807 27.9223 37.9704 27.9675 38.2848 27.9903C38.5876 27.993 38.9967 27.9423 39.5122 27.8382C40.0278 27.7341 40.3662 27.6355 40.5276 27.5423C40.7097 27.4478 40.9984 27.2165 41.3937 26.8484C41.7798 26.5016 42.0659 26.14 42.2519 25.7636C42.438 25.3871 42.6107 24.8758 42.7701 24.2297C42.9386 23.5621 43.034 23.0659 43.0562 22.7411C43.0771 22.3954 43.0756 21.9364 43.0515 21.3638C43.0196 20.8336 42.9161 20.2397 42.7408 19.5824C42.5766 18.9349 42.4249 18.4953 42.2858 18.2636C42.1454 18.0112 41.9251 17.7323 41.6249 17.4268C41.3242 17.111 41.0547 16.882 40.8166 16.7398C40.5882 16.5865 40.1708 16.4134 39.5643 16.2203C38.9781 16.0156 38.5537 15.9002 38.2913 15.8743C38.0509 15.8679 37.5959 15.937 36.9263 16.0817C36.2982 16.2238 35.7646 16.4594 35.3252 16.7885C34.8559 17.1403 34.5333 17.4154 34.3574 17.6138C34.1828 17.833 33.9783 18.1636 33.744 18.6056C33.5091 19.0371 33.2908 19.572 33.0892 20.2103C32.8974 20.8375 32.7901 21.3084 32.7673 21.6228C32.7438 21.9269 32.8006 22.5235 32.9376 23.4127C33.0942 24.2798 33.2485 24.8497 33.4005 25.1223C33.5435 25.4164 33.834 25.8215 34.272 26.3378C34.7107 26.8645 35.0504 27.2197 35.291 27.4035C35.4992 27.5684 35.7695 27.7243 36.1018 27.8713ZM59.314 15.3603C59.4005 15.5847 59.3929 15.8043 59.291 16.0192C59.1989 16.223 59.0352 16.3633 58.7998 16.4401C58.5748 16.5162 58.3656 16.5079 58.1722 16.4152L57.9151 16.3055C57.7645 16.231 57.5766 16.1432 57.3514 16.042C57.1592 15.9701 56.8976 15.871 56.5665 15.7448C56.2367 15.6395 55.9974 15.5652 55.8487 15.5219C55.6798 15.4904 55.496 15.4701 55.2972 15.4612C55.1295 15.4504 54.895 15.4541 54.5934 15.4723C54.3127 15.4892 54.08 15.524 53.8953 15.5769C53.7107 15.6298 53.5214 15.6933 53.3276 15.7676C53.165 15.84 52.8992 16.0178 52.5301 16.3009C52.1598 16.5632 51.873 16.8257 51.6696 17.0884C51.4266 17.3847 51.2379 17.6309 51.1036 17.8268C50.9913 18.0423 50.88 18.2733 50.7696 18.52C50.6782 18.7342 50.5293 19.2076 50.3229 19.94C50.1165 20.6725 49.9994 21.1544 49.9716 21.3856C49.9677 21.6676 49.969 21.9493 49.9755 22.2307C49.9814 22.5016 50.0025 22.7665 50.039 23.0252C50.0754 23.2839 50.1459 23.5875 50.2503 23.936C50.3775 24.3145 50.5741 24.72 50.8401 25.1528C51.1074 25.6063 51.3198 25.9274 51.4773 26.1162C51.6341 26.2946 51.8059 26.4617 51.9927 26.6174C52.1458 26.7334 52.3784 26.8707 52.6906 27.0293C53.0009 27.1568 53.4038 27.263 53.8994 27.3479C54.4139 27.4004 54.7862 27.4302 55.0162 27.4372C55.2969 27.4203 55.5621 27.4044 55.8116 27.3894C56.0183 27.356 56.2861 27.2982 56.6151 27.2158C56.8921 27.1365 57.1598 26.9899 57.4183 26.7761C57.6865 26.5512 57.8597 26.3947 57.9379 26.3065C58.0344 26.1755 58.1201 26.0399 58.1952 25.8997C58.2708 25.7699 58.3495 25.6034 58.4312 25.4003L58.5684 25.0789C58.6599 24.8647 58.8181 24.7195 59.0431 24.6434C59.2779 24.5562 59.4972 24.5587 59.701 24.6507C59.9152 24.7422 60.0656 24.9001 60.1521 25.1245C60.238 25.3385 60.2356 25.5578 60.1448 25.7824L60.0076 26.1037C59.8984 26.3712 59.7917 26.5915 59.6873 26.7648C59.5726 26.9386 59.4581 27.1177 59.344 27.302C59.1693 27.5212 58.8727 27.7947 58.4542 28.1225C58.0265 28.4718 57.5818 28.7125 57.1201 28.8446C56.7001 28.9743 56.3246 29.0647 55.9938 29.1159C55.6922 29.1341 55.3907 29.1522 55.0892 29.1704C54.7448 29.1702 54.2728 29.1308 53.6733 29.0521C53.0107 28.9667 52.4486 28.8179 51.9871 28.6057C51.5256 28.3935 51.1574 28.1704 50.8824 27.9365C50.61 27.7442 50.3668 27.5188 50.153 27.2603C49.9385 26.9915 49.663 26.575 49.3264 26.0109C49.0125 25.4767 48.7785 24.969 48.6243 24.4878C48.4714 24.0274 48.3735 23.6159 48.3308 23.2532C48.2906 22.9321 48.2657 22.6049 48.2561 22.2715C48.2458 21.9278 48.2512 21.5831 48.2721 21.2375C48.2931 20.8918 48.4146 20.3106 48.6368 19.4937C48.8687 18.6657 49.0484 18.0966 49.1758 17.7863C49.3253 17.4956 49.4809 17.2201 49.6426 16.9599C49.8129 16.6679 50.0391 16.3516 50.3212 16.0112C50.6216 15.6278 51.0172 15.2649 51.5079 14.9223C51.9772 14.5705 52.3595 14.3336 52.6548 14.2115C52.9085 14.0918 53.1686 13.9927 53.4352 13.914C53.7135 13.8556 54.0544 13.7985 54.458 13.7429C54.8428 13.7197 55.1605 13.7111 55.4113 13.7168C55.653 13.744 55.9001 13.7761 56.1528 13.8131C56.4178 13.8806 56.747 13.9756 57.1405 14.098C57.5144 14.2425 57.8192 14.365 58.0548 14.4656C58.269 14.5571 58.4677 14.6495 58.6507 14.7428L58.8775 14.87C59.0917 14.9615 59.2372 15.1249 59.314 15.3603ZM81.7473 13.0553C81.0207 14.5078 80.0245 16.9418 78.7587 20.3574C78.4698 21.1053 78.179 21.8219 77.8863 22.5074C77.7876 22.7743 77.6073 23.333 77.3454 24.1836C76.9305 25.4399 76.5284 26.3877 76.139 27.0268C75.7547 27.7491 75.4429 28.1175 75.2037 28.1319C74.6423 28.1657 74.2424 28.1115 74.0043 27.9693C73.7986 27.846 73.5598 27.4325 73.2879 26.7288C72.9964 26.0472 72.5219 24.4061 71.8645 21.8054C71.091 18.8361 70.5792 17.0094 70.3294 16.3253L69.972 15.3293L69.6228 16.2895C69.0465 17.9835 68.5391 19.6106 68.1008 21.171C67.4555 23.4535 66.7956 25.3195 66.1211 26.7689C65.4557 28.1968 64.9748 29.0502 64.6785 29.3289C64.4244 29.6155 64.1882 29.7654 63.9699 29.7785C63.7515 29.7917 63.5413 29.6791 63.3391 29.4408C63.1583 29.2117 63.0568 28.9986 63.0345 28.8017C63.0642 28.6017 63.1032 28.4689 63.1514 28.4033C63.9969 27.1941 64.7133 25.9196 65.3006 24.5798C65.8853 23.1984 66.5859 21.1422 67.4025 18.4111C68.2291 15.8464 68.7284 13.7397 68.9005 12.091C68.9312 11.7343 69.0195 11.4681 69.1655 11.2924C69.3225 11.1264 69.5725 11.0331 69.9157 11.0124C70.3212 10.988 70.5806 11.0507 70.694 11.2004C70.8373 11.3274 70.9968 11.6361 71.1724 12.1264C71.3681 12.6051 71.4874 13.0258 71.5301 13.3885L71.5291 13.3729C71.6191 13.8266 71.8507 14.8145 72.2241 16.3365C72.5625 17.7979 72.7866 18.8332 72.8963 19.4423C73.0944 20.307 73.4128 21.4357 73.8514 22.8285C73.8797 22.9521 73.9209 23.1166 73.975 23.322C74.0273 23.4963 74.0666 23.6296 74.093 23.7219C74.1299 23.8136 74.1738 23.9362 74.2247 24.0896C74.2763 24.2535 74.3203 24.3761 74.3565 24.4574C74.3933 24.5491 74.4359 24.6509 74.4844 24.7628C74.5348 24.9058 74.5829 25.0125 74.6289 25.0828C74.6853 25.1524 74.7416 25.2221 74.798 25.2918C74.8562 25.3926 74.923 25.4616 74.9983 25.4988C75.0632 25.5367 75.132 25.5534 75.2048 25.549C75.2776 25.5446 75.3443 25.525 75.4048 25.49C75.4646 25.4447 75.5227 25.3681 75.5788 25.2604C75.627 25.1949 75.6655 25.1404 75.6942 25.0969C75.7326 25.0424 75.7735 24.9408 75.8167 24.7921C75.852 24.6857 75.8788 24.611 75.8971 24.5682C75.9154 24.5253 75.9413 24.4351 75.9748 24.2974C76.0192 24.1695 76.0461 24.0948 76.0552 24.0734L77.1114 20.8166C77.3076 20.2621 77.5198 19.7119 77.7478 19.166L79.2169 15.2268C80.0313 13.1533 80.6608 11.6492 81.1055 10.7146C81.5281 9.7604 81.812 9.19022 81.9574 9.00407C82.0501 8.81065 82.1536 8.7105 82.268 8.70362C82.6111 8.68296 83.0073 8.76347 83.4565 8.94515C83.5967 9.02019 83.7158 9.09129 83.8138 9.15845C83.9038 9.26782 83.9605 9.34267 83.9838 9.38301C84.0121 9.50653 84.0275 9.58909 84.03 9.63068C84.0665 9.88938 84.1786 10.9731 84.3666 12.882L84.8622 17.7359C85.0191 19.3023 85.1928 20.6276 85.3833 21.7118C85.5904 22.8994 85.8777 23.8579 86.2451 24.5871C86.7693 25.4948 87.0461 26.1929 87.0756 26.6816C87.1062 27.1911 86.9969 27.5421 86.7476 27.7345C86.4053 27.9429 86.0834 28.0562 85.7819 28.0744C85.2412 28.1069 84.7695 27.5509 84.3666 26.4064C83.9235 25.2852 83.4464 21.9536 82.9354 16.4118C82.7673 14.6583 82.5924 13.5731 82.4108 13.1562L82.1115 12.3446L81.7473 13.0553ZM98.6786 25.9676C98.5456 26.1843 98.3497 26.3109 98.091 26.3474L97.5957 26.4398C97.1731 26.5278 96.6357 26.5289 95.9836 26.4429C95.343 26.3771 94.7492 26.2198 94.202 25.9709C93.6976 25.7404 93.2768 25.5101 92.9394 25.2799C92.5794 25.0198 92.1347 24.5666 91.6053 23.9201C91.0772 23.2945 90.7022 22.7848 90.4802 22.3912C90.2674 21.9762 90.0767 21.2363 89.9083 20.1716C89.7209 19.1393 89.6444 18.3873 89.6786 17.9157C89.7361 17.4843 89.8733 16.9021 90.09 16.169C90.3166 15.4249 90.5653 14.789 90.8361 14.2614C91.1168 13.7227 91.3887 13.2994 91.6519 12.9913C91.9353 12.6716 92.3612 12.2912 92.9294 11.85C93.5393 11.4063 94.287 11.0848 95.1724 10.8854C96.0371 10.6873 96.6734 10.5968 97.0814 10.614C97.4699 10.6532 98.0368 10.7965 98.7822 11.0438C99.5074 11.3028 100.044 11.5418 100.391 11.761C100.748 11.9691 101.126 12.2802 101.527 12.6944C101.928 13.1086 102.222 13.4926 102.41 13.8465C102.621 14.22 102.839 14.8069 103.064 15.6073C103.278 16.3875 103.394 17.1058 103.413 17.7621C103.45 18.3756 103.45 18.8973 103.413 19.3274C103.397 19.7562 103.292 20.3522 103.098 21.1152C102.905 21.899 102.678 22.5441 102.416 23.0503C102.125 23.5792 101.727 24.0831 101.224 24.5622C100.72 25.0412 100.312 25.3632 99.9984 25.5282C99.705 25.6815 99.265 25.828 98.6786 25.9676ZM94.7457 24.3416C94.9944 24.1388 95.2674 24.0806 95.5648 24.1671L96.0596 24.3251C96.3245 24.3927 96.6142 24.4378 96.9287 24.4607C97.2315 24.4633 97.6406 24.4126 98.1561 24.3085C98.6716 24.2044 99.0101 24.1058 99.1714 24.0126C99.3536 23.9182 99.6423 23.6868 100.038 23.3187C100.424 22.9719 100.71 22.6104 100.896 22.2339C101.082 21.8575 101.255 21.3462 101.414 20.7C101.582 20.0324 101.678 19.5362 101.7 19.2114C101.721 18.8657 101.719 18.4067 101.695 17.8342C101.663 17.3039 101.56 16.7101 101.385 16.0527C101.221 15.4052 101.069 14.9656 100.93 14.734C100.789 14.4815 100.569 14.2026 100.269 13.8971C99.968 13.5813 99.6986 13.3523 99.4604 13.2101C99.2321 13.0569 98.8147 12.8837 98.2082 12.6906C97.6219 12.4859 97.1976 12.3706 96.9351 12.3446C96.6947 12.3382 96.2397 12.4074 95.5701 12.552C94.9421 12.6942 94.4084 12.9298 93.9691 13.2589C93.4998 13.6106 93.1772 13.8857 93.0013 14.0841C92.8266 14.3033 92.6222 14.6339 92.3879 15.0759C92.153 15.5074 91.9347 16.0424 91.7331 16.6806C91.5413 17.3079 91.434 17.7787 91.4111 18.0931C91.3877 18.3972 91.4445 18.9938 91.5815 19.883C91.738 20.7502 91.8923 21.3201 92.0444 21.5927C92.1873 21.8867 92.4778 22.2918 92.9159 22.8081C93.3546 23.3348 93.6942 23.69 93.9349 23.8738C94.1431 24.0387 94.4134 24.1946 94.7457 24.3416ZM106.514 10.7663C106.616 10.5514 106.774 10.4063 106.989 10.3307C107.214 10.2546 107.433 10.2674 107.648 10.3693C107.874 10.4705 108.024 10.6284 108.099 10.843L108.251 11.2878C108.379 11.6663 108.437 12.1115 108.426 12.6235C108.431 13.0511 108.46 13.712 108.514 14.6062C108.546 15.4809 108.571 16.0742 108.59 16.3861C108.63 16.7072 108.671 17.0491 108.714 17.4117C108.721 17.5365 108.742 17.6971 108.774 17.8934C108.843 17.6492 108.925 17.3625 109.02 17.0333C109.251 16.1846 109.514 15.4487 109.811 14.8256C110.117 14.2018 110.372 13.7534 110.575 13.4803C110.746 13.2091 111.043 12.8417 111.463 12.3781C111.923 11.86 112.358 11.4581 112.768 11.1725C113.178 10.8661 113.582 10.6487 113.981 10.5203C114.4 10.3699 114.771 10.2954 115.095 10.2968C115.439 10.2969 115.804 10.3793 116.19 10.5439C116.565 10.7092 116.843 10.9064 117.024 11.1355C117.182 11.3347 117.41 11.7488 117.709 12.3779C117.953 12.958 118.121 13.4175 118.215 13.7562C118.298 14.0956 118.41 14.5793 118.552 15.2073C118.608 15.4439 118.669 15.6647 118.733 15.8695C118.836 15.4981 119.03 14.9959 119.316 14.363C119.636 13.6133 119.882 13.1028 120.053 12.8316C120.224 12.55 120.46 12.2227 120.761 11.8498C121.102 11.4432 121.402 11.1433 121.662 10.9503C121.93 10.7254 122.253 10.5495 122.632 10.4223C123.134 10.2669 123.658 10.3084 124.205 10.5468C124.73 10.7761 125.147 11.1266 125.457 11.5984C125.669 11.9927 125.83 12.3326 125.941 12.6181C126.021 12.895 126.147 13.4353 126.321 14.2388C126.516 15.0619 126.641 15.6648 126.696 16.0477C126.76 16.4195 126.856 16.9772 126.984 17.7209C127.092 18.4658 127.182 19.0917 127.254 19.5987C127.326 20.1057 127.378 20.6139 127.408 21.1234C127.458 21.6109 127.505 22.0359 127.548 22.3986C127.59 22.7613 127.627 23.0252 127.658 23.1903L127.705 23.4536C127.74 23.6915 127.69 23.9032 127.555 24.0887C127.42 24.2742 127.234 24.3846 126.996 24.4198C126.769 24.4543 126.557 24.4045 126.361 24.2702C126.175 24.1248 126.054 23.939 125.999 23.7128L125.985 23.4788C125.953 23.2929 125.904 23.0089 125.839 22.6266C125.796 22.2432 125.742 21.7872 125.679 21.2588C125.649 20.7701 125.599 20.2827 125.528 19.7965C125.457 19.3103 125.369 18.7103 125.263 17.9966C125.157 17.2725 125.072 16.7194 125.007 16.3372C124.943 15.9758 124.82 15.404 124.638 14.6219C124.465 13.8392 124.342 13.3457 124.267 13.1415C124.215 12.9776 124.119 12.7591 123.977 12.4859C123.884 12.3245 123.735 12.203 123.532 12.1213C123.382 12.0469 123.276 12.0219 123.215 12.0465C123.03 12.0993 122.873 12.1818 122.744 12.2939C122.565 12.43 122.353 12.6462 122.11 12.9426C121.827 13.2623 121.624 13.5301 121.501 13.7462C121.378 13.9519 121.17 14.3923 120.876 15.0674C120.582 15.7321 120.402 16.2021 120.335 16.4775C120.27 16.784 120.183 17.2432 120.074 17.8551C119.974 18.4559 119.902 19.0759 119.857 19.7152C119.797 20.4493 119.761 20.8898 119.749 21.0366C119.721 21.2782 119.672 21.5838 119.6 21.9534C119.539 22.3223 119.493 22.5912 119.461 22.7601C119.44 22.7614 119.42 22.773 119.4 22.795C119.381 22.8171 119.336 22.8459 119.265 22.8815C119.194 22.9171 119.118 22.9529 119.036 22.9891C118.966 23.0247 118.879 23.0612 118.777 23.0987C118.675 23.1361 118.577 23.1629 118.484 23.1789C118.402 23.1943 118.319 23.2045 118.236 23.2095C118.153 23.2145 118.074 23.2036 117.999 23.1768C117.924 23.15 117.859 23.107 117.803 23.0477C117.758 22.9878 117.732 22.9059 117.726 22.8019C117.716 22.6355 117.705 22.5475 117.694 22.5377C117.683 22.5175 117.686 22.486 117.704 22.4432C117.723 22.4003 117.745 22.3364 117.771 22.2513C117.801 22.0617 117.819 21.8362 117.824 21.575C117.828 21.293 117.816 20.9181 117.788 20.4502C117.739 19.9835 117.666 19.4662 117.569 18.898C117.45 18.3104 117.339 17.7588 117.235 17.2433C117.143 16.7583 117.026 16.207 116.885 15.5894C116.743 14.9614 116.627 14.5144 116.538 14.2485C116.481 13.991 116.343 13.6028 116.124 13.0838C115.952 12.6662 115.816 12.3979 115.715 12.2787C115.671 12.2396 115.584 12.177 115.453 12.091C115.325 12.0361 115.203 12.0121 115.089 12.019C114.984 12.0045 114.819 12.0457 114.596 12.1426C114.319 12.2219 114.035 12.3694 113.746 12.5851C113.455 12.7904 113.135 13.0967 112.783 13.5039C112.382 13.9351 112.114 14.2643 111.982 14.4914C111.846 14.6665 111.649 15.0228 111.389 15.5602C111.129 16.0976 110.892 16.7485 110.677 17.5128C110.442 18.2991 110.298 18.8556 110.245 19.1823C110.199 19.4668 110.132 19.9927 110.043 20.7598C109.985 21.5355 109.949 22.0751 109.936 22.3785C109.923 22.6715 109.92 23.0526 109.927 23.5218C109.934 23.9909 109.944 24.3243 109.956 24.5218C109.958 24.5634 109.966 24.6099 109.98 24.6613C109.993 24.7126 110.015 24.8157 110.045 24.9704C110.075 25.1147 110.05 25.2258 109.972 25.3036C109.903 25.3807 109.798 25.4601 109.657 25.5416C109.516 25.6232 109.282 25.6321 108.954 25.5683C108.523 25.5108 108.245 25.4022 108.121 25.2428C107.996 25.0729 107.982 24.9224 108.078 24.7914L108.192 24.5967C108.155 24.338 108.121 24.1157 108.089 23.9298C108.056 23.7231 107.99 23.3201 107.891 22.7208C107.792 22.1215 107.707 21.6622 107.636 21.343C107.574 21.0128 107.464 20.4037 107.307 19.5157C107.149 18.6278 107.048 17.992 107.004 17.6086C106.961 17.2459 106.919 16.8936 106.878 16.5518C106.857 16.2086 106.83 15.5841 106.796 14.6783C106.741 13.7633 106.71 13.0764 106.704 12.6176C106.705 12.294 106.679 12.0295 106.624 11.8241L106.475 11.426C106.399 11.1907 106.411 10.9707 106.514 10.7663ZM132.612 19.151L132.816 19.4205C132.906 19.5402 133.129 19.6782 133.482 19.8343C133.881 20.0503 134.462 20.2501 135.225 20.4338C135.968 20.65 136.492 20.7749 136.797 20.8088C137.112 20.842 137.598 20.8493 138.254 20.8307C138.848 20.8158 139.472 20.6999 140.127 20.4831C140.802 20.2547 141.22 20.0834 141.38 19.9694C141.54 19.8554 141.799 19.5581 142.156 19.0775C142.493 18.6084 142.716 18.1567 142.825 17.7223C142.922 17.2469 142.963 16.8844 142.948 16.6348C142.933 16.3957 142.747 15.8173 142.389 14.8996C142.008 13.9416 141.738 13.3578 141.58 13.1482C141.398 12.8983 141.08 12.5678 140.628 12.1568C140.176 11.7561 139.772 11.4569 139.415 11.2592C139.081 11.0707 138.67 10.9232 138.183 10.8168C137.696 10.7 137.349 10.6479 137.141 10.6604C136.943 10.6723 136.534 10.8065 135.913 11.063C135.333 11.3067 134.852 11.6331 134.469 12.0422C134.045 12.4538 133.763 12.7943 133.623 13.0636C133.473 13.3544 133.274 13.9507 133.026 14.8527C132.758 15.7663 132.61 16.4431 132.585 16.8829C132.558 17.3123 132.567 18.0684 132.612 19.151ZM132.715 21.3832C132.73 21.6432 132.754 21.8557 132.784 22.0208C132.836 22.529 132.93 23.2278 133.067 24.117C133.208 25.0686 133.35 25.9575 133.494 26.7837C133.627 27.6105 133.713 28.174 133.752 28.4743C133.79 28.7538 133.833 29.1217 133.881 29.5779C133.929 30.0238 133.957 30.3247 133.967 30.4807L133.98 30.699C133.994 30.9382 133.918 31.1463 133.751 31.3233C133.595 31.4996 133.397 31.595 133.158 31.6094C132.929 31.6232 132.727 31.5519 132.55 31.3955C132.374 31.2392 132.279 31.0414 132.264 30.8023L132.251 30.5839C132.243 30.4592 132.216 30.179 132.169 29.7436C132.123 29.3185 132.076 28.9718 132.028 28.7033C131.991 28.4238 131.905 27.8707 131.772 27.0438C131.637 26.1962 131.501 25.3174 131.363 24.4074C131.222 23.4558 131.125 22.7155 131.072 22.1865C131.029 21.803 130.984 21.2369 130.939 20.4883C130.921 20.1867 130.9 19.8488 130.878 19.4745C130.843 18.193 130.84 17.2853 130.871 16.7513C130.901 16.2172 131.057 15.4252 131.338 14.3751C131.641 13.3342 131.895 12.6249 132.102 12.2473C132.318 11.8481 132.686 11.3773 133.207 10.8346C133.747 10.2699 134.434 9.81109 135.268 9.45824C136.063 9.12868 136.642 8.95815 137.006 8.94664C137.39 8.90269 137.91 8.9549 138.566 9.10326C139.222 9.25162 139.798 9.46217 140.294 9.73492C140.759 10.0095 141.252 10.3973 141.773 10.8982C142.313 11.377 142.697 11.7713 142.924 12.0811C143.205 12.4086 143.562 13.1333 143.994 14.2552C144.448 15.3862 144.672 16.1554 144.665 16.5628C144.689 16.9475 144.635 17.4516 144.506 18.0751C144.36 18.7726 144.051 19.4434 143.578 20.0876C143.105 20.7109 142.703 21.1421 142.373 21.3811C142.082 21.5864 141.518 21.8343 140.68 22.1248C139.861 22.3828 139.055 22.5252 138.264 22.5519C137.535 22.575 136.975 22.5616 136.586 22.512C136.208 22.4618 135.604 22.3207 134.776 22.0887C133.928 21.8685 133.241 21.6333 132.715 21.3832ZM158.668 14.1077L157.976 15.6051C156.95 17.9835 155.872 19.8381 154.742 21.1688C153.64 22.4665 152.565 23.1469 151.515 23.2101C150.943 23.2446 150.317 22.9065 149.638 22.1961C148.947 21.4654 148.552 20.2787 148.453 18.6358C148.369 17.2425 148.567 15.1487 149.045 12.3545C149.449 10.0448 149.632 8.39547 149.593 7.40642C149.796 6.96634 150.126 6.73254 150.584 6.705C150.896 6.68623 151.152 6.78038 151.352 6.98747C151.564 7.20433 151.676 7.43234 151.691 7.67149C151.731 8.34735 151.547 9.34985 151.136 10.679C150.309 13.4003 149.952 15.7176 150.067 17.6308C150.186 19.596 150.77 20.5469 151.82 20.4837C152.86 20.4212 154.054 19.4466 155.401 17.5602C156.709 15.7178 157.8 13.2051 158.673 10.0219C159.017 8.8115 159.309 8.02692 159.549 7.66815C159.73 7.39631 159.988 7.25038 160.32 7.23035C160.56 7.21596 160.736 7.27842 160.848 7.41773C160.96 7.54664 161.028 7.80866 161.052 8.20378C161.049 8.32918 160.978 8.69873 160.837 9.31245C160.35 11.7941 160.172 14.1215 160.303 16.2947C160.465 18.9877 161.013 20.7236 161.947 21.5022C162.079 21.6195 162.185 21.7331 162.264 21.8431C162.354 21.9421 162.411 22.0169 162.434 22.0676C162.469 22.1178 162.486 22.148 162.487 22.1584C162.496 22.304 162.36 22.4739 162.079 22.6682C161.729 22.9085 161.418 23.0367 161.148 23.053C160.597 23.0862 160.1 22.6308 159.657 21.687C159.165 20.6313 158.854 19.022 158.724 16.8593L158.691 16.3134C158.681 16.147 158.676 15.9751 158.676 15.7978L158.668 14.1077ZM165.626 7.20846C165.727 6.99361 165.886 6.84843 166.1 6.7729C166.325 6.69674 166.545 6.7096 166.76 6.81146C166.985 6.91269 167.136 7.07061 167.211 7.28521L167.363 7.73C167.49 8.10847 167.548 8.5537 167.538 9.06569C167.542 9.49326 167.572 10.1541 167.626 11.0484C167.657 11.923 167.683 12.5163 167.701 12.8283C167.742 13.1494 167.783 13.4912 167.826 13.8539C167.833 13.9787 167.853 14.1392 167.886 14.3355C167.955 14.0914 168.037 13.8047 168.132 13.4755C168.362 12.6267 168.626 11.8908 168.922 11.2677C169.229 10.644 169.484 10.1956 169.687 9.9225C169.858 9.65129 170.154 9.28387 170.575 8.82025C171.034 8.30214 171.469 7.90028 171.88 7.61468C172.29 7.30827 172.694 7.09088 173.093 6.9625C173.512 6.81206 173.883 6.73754 174.207 6.73894C174.551 6.73908 174.916 6.82147 175.302 6.9861C175.677 7.15136 175.955 7.34855 176.136 7.57769C176.294 7.77689 176.522 8.191 176.821 8.82002C177.064 9.40018 177.233 9.85963 177.326 10.1984C177.409 10.5378 177.522 11.0214 177.664 11.6495C177.72 11.8861 177.78 12.1068 177.845 12.3117C177.948 11.9402 178.142 11.4381 178.427 10.8052C178.747 10.0555 178.993 9.54497 179.165 9.27376C179.336 8.99215 179.572 8.66488 179.873 8.29196C180.213 7.88533 180.514 7.5855 180.773 7.39247C181.042 7.16761 181.365 6.99162 181.743 6.86448C182.245 6.70904 182.77 6.75054 183.316 6.98896C183.841 7.21824 184.259 7.56879 184.569 8.04059C184.781 8.43484 184.942 8.77472 185.053 9.06023C185.133 9.33721 185.259 9.87747 185.433 10.681C185.628 11.5041 185.753 12.107 185.808 12.4899C185.872 12.8617 185.968 13.4194 186.096 14.163C186.204 14.9079 186.293 15.5339 186.366 16.0409C186.438 16.5479 186.489 17.0561 186.52 17.5656C186.57 18.053 186.617 18.4781 186.659 18.8408C186.702 19.2034 186.739 19.4673 186.77 19.6325L186.817 19.8957C186.852 20.1336 186.802 20.3453 186.667 20.5309C186.532 20.7164 186.346 20.8267 186.108 20.8619C185.88 20.8965 185.669 20.8466 185.473 20.7123C185.287 20.567 185.166 20.3812 185.111 20.1549L185.096 19.921C185.064 19.7351 185.016 19.451 184.951 19.0688C184.907 18.6853 184.854 18.2294 184.791 17.701C184.761 17.2123 184.711 16.7248 184.64 16.2386C184.569 15.7524 184.481 15.1525 184.375 14.4388C184.269 13.7147 184.183 13.1616 184.119 12.7793C184.055 12.4179 183.932 11.8462 183.749 11.0641C183.577 10.2813 183.453 9.78786 183.379 9.58366C183.327 9.4198 183.23 9.20125 183.089 8.92802C182.995 8.76666 182.847 8.64514 182.644 8.56345C182.493 8.48903 182.388 8.46409 182.326 8.48864C182.142 8.5415 181.985 8.62398 181.856 8.7361C181.676 8.87214 181.465 9.08835 181.222 9.38474C180.939 9.70442 180.736 9.97231 180.613 10.1884C180.49 10.3941 180.281 10.8345 179.988 11.5096C179.694 12.1743 179.514 12.6443 179.447 12.9197C179.382 13.2262 179.295 13.6854 179.185 14.2972C179.086 14.898 179.014 15.5181 178.969 16.1574C178.908 16.8915 178.872 17.3319 178.86 17.4787C178.833 17.7204 178.784 18.026 178.712 18.3956C178.651 18.7645 178.604 19.0334 178.573 19.2023C178.552 19.2035 178.532 19.2152 178.512 19.2372C178.493 19.2593 178.447 19.2881 178.377 19.3236C178.306 19.3592 178.23 19.3951 178.148 19.4313C178.077 19.4669 177.991 19.5034 177.889 19.5408C177.787 19.5783 177.689 19.605 177.596 19.6211C177.514 19.6365 177.431 19.6467 177.348 19.6517C177.264 19.6567 177.185 19.6458 177.111 19.619C177.036 19.5922 176.971 19.5491 176.915 19.4899C176.87 19.43 176.844 19.3481 176.838 19.2441C176.828 19.0777 176.817 18.9896 176.806 18.9799C176.795 18.9597 176.798 18.9282 176.816 18.8854C176.834 18.8425 176.857 18.7786 176.883 18.6935C176.913 18.5038 176.931 18.2784 176.936 18.0172C176.94 17.7352 176.928 17.3603 176.9 16.8924C176.851 16.4257 176.778 15.9083 176.681 15.3402C176.562 14.7525 176.451 14.2009 176.347 13.6854C176.255 13.2005 176.138 12.6492 175.997 12.0316C175.854 11.4036 175.739 10.9566 175.65 10.6906C175.593 10.4332 175.454 10.0449 175.235 9.52592C175.064 9.10837 174.928 8.84002 174.827 8.72088C174.783 8.68179 174.696 8.61921 174.565 8.53314C174.437 8.47827 174.315 8.45427 174.201 8.46115C174.096 8.44662 173.931 8.48782 173.707 8.58477C173.43 8.66406 173.147 8.81156 172.857 9.02726C172.567 9.23257 172.246 9.53885 171.895 9.9461C171.493 10.3773 171.226 10.7064 171.094 10.9335C170.958 11.1087 170.76 11.4649 170.501 12.0024C170.241 12.5398 170.003 13.1906 169.788 13.9549C169.554 14.7413 169.41 15.2978 169.357 15.6245C169.311 15.909 169.244 16.4348 169.154 17.202C169.097 17.9777 169.061 18.5173 169.048 18.8207C169.035 19.1137 169.031 19.4948 169.039 19.9639C169.046 20.4331 169.056 20.7665 169.068 20.964C169.07 21.0056 169.078 21.0521 169.092 21.1034C169.105 21.1548 169.127 21.2578 169.157 21.4126C169.187 21.5569 169.162 21.6679 169.083 21.7457C169.015 21.8229 168.91 21.9022 168.769 21.9838C168.628 22.0653 168.394 22.0742 168.066 22.0104C167.635 21.9529 167.357 21.8444 167.233 21.6849C167.108 21.5151 167.093 21.3646 167.19 21.2336L167.303 21.0389C167.267 20.7802 167.233 20.5579 167.201 20.372C167.167 20.1653 167.101 19.7623 167.003 19.1629C166.904 18.5636 166.819 18.1044 166.747 17.7852C166.686 17.4549 166.576 16.8458 166.418 15.9579C166.261 15.0699 166.16 14.4342 166.116 14.0507C166.073 13.6881 166.031 13.3358 165.99 12.9939C165.969 12.6508 165.942 12.0263 165.908 11.1204C165.853 10.2054 165.822 9.51854 165.815 9.05978C165.817 8.73619 165.79 8.47167 165.736 8.26622L165.587 7.86821C165.51 7.63282 165.523 7.4129 165.626 7.20846ZM191.866 11.4677C192.012 11.459 192.158 11.4606 192.305 11.4726C192.471 11.4626 192.821 11.4573 193.353 11.4565C193.895 11.4448 194.285 11.4317 194.524 11.4173C194.764 11.4029 194.992 11.3788 195.209 11.3448C195.425 11.3005 195.833 11.2186 196.431 11.0991C197.02 11.001 197.396 10.9262 197.56 10.8746C197.734 10.8224 197.973 10.7245 198.278 10.5809C198.552 10.4601 198.73 10.3711 198.81 10.3141C198.868 10.248 198.951 10.1491 199.058 10.0174C199.136 9.92925 199.202 9.80529 199.255 9.64557C199.306 9.45465 199.339 9.31698 199.355 9.23254C199.35 9.14936 199.307 8.95888 199.227 8.66109C199.146 8.36331 199.083 8.17408 199.036 8.0934C198.969 8.01397 198.83 7.88142 198.621 7.69575C198.421 7.49906 198.22 7.36507 198.017 7.29378C197.771 7.1834 197.557 7.10753 197.378 7.06618C197.197 7.01444 196.892 6.98059 196.464 6.96466C196.054 6.92668 195.716 6.93662 195.448 6.99449C195.189 7.03093 194.887 7.13257 194.543 7.29942C194.197 7.45587 193.954 7.58007 193.814 7.67201C193.674 7.78475 193.478 7.98963 193.225 8.28664C192.971 8.57326 192.733 8.95803 192.511 9.44095C192.26 9.94655 192.11 10.3104 192.061 10.5325C192.008 10.7026 191.944 11.0144 191.866 11.4677ZM190.003 11.9712C190.034 11.8024 190.065 11.6179 190.095 11.4179C190.202 10.7748 190.304 10.3095 190.402 10.0219C190.489 9.73487 190.677 9.29572 190.964 8.70444C191.272 8.09111 191.591 7.58145 191.921 7.17545C192.242 6.79087 192.518 6.5082 192.747 6.32744C192.995 6.12464 193.354 5.92046 193.821 5.71491C194.299 5.49833 194.749 5.35122 195.172 5.27357C195.575 5.20757 196.044 5.18981 196.578 5.22028C197.112 5.25075 197.517 5.30464 197.793 5.38195C198.068 5.44886 198.371 5.5454 198.702 5.67157C199.078 5.83682 199.431 6.07643 199.763 6.39039C200.127 6.71286 200.367 6.97495 200.484 7.17665C200.621 7.3771 200.761 7.71823 200.905 8.20004C201.039 8.68248 201.102 9.04391 201.096 9.28431C201.089 9.51431 201.028 9.80495 200.913 10.1562C200.79 10.5289 200.632 10.8515 200.439 11.1239C200.244 11.3444 200.062 11.5224 199.892 11.6578C199.713 11.7938 199.41 11.9633 198.984 12.1664C198.607 12.3143 198.301 12.4319 198.066 12.5191C197.841 12.5952 197.403 12.6946 196.753 12.8172C196.145 12.9373 195.706 13.0159 195.437 13.053C195.168 13.09 194.898 13.1167 194.628 13.133C194.389 13.1474 193.988 13.1611 193.425 13.1741C192.862 13.1871 192.492 13.1937 192.315 13.1939C192.148 13.1935 191.991 13.1977 191.846 13.2065C191.783 13.2102 191.705 13.2149 191.612 13.2206C191.601 13.3882 191.59 13.5506 191.579 13.7078C191.57 13.917 191.61 14.3164 191.698 14.906C191.785 15.4851 191.855 15.867 191.908 16.0517C191.962 16.2571 192.042 16.4662 192.149 16.6789C192.222 16.8623 192.376 17.1557 192.609 17.5591C192.818 17.9118 193.016 18.1764 193.204 18.3529C193.427 18.5796 193.619 18.7402 193.781 18.8348C193.912 18.9312 194.175 19.0511 194.57 19.1943C194.966 19.3583 195.317 19.478 195.625 19.5534C195.931 19.6185 196.283 19.6495 196.679 19.6465C197.108 19.6624 197.4 19.6553 197.554 19.6251C197.679 19.6176 197.919 19.5301 198.274 19.3627C198.589 19.2185 198.796 19.1069 198.896 19.0278C198.995 18.9384 199.082 18.834 199.159 18.7146C199.235 18.5952 199.342 18.3801 199.48 18.0691C199.606 17.738 199.695 17.4822 199.747 17.3017C199.798 17.1108 199.84 16.9413 199.873 16.7932L199.92 16.5399C199.947 16.2983 200.056 16.1091 200.246 15.9724C200.446 15.8351 200.662 15.7804 200.894 15.8082C201.135 15.8354 201.325 15.9493 201.462 16.1497C201.609 16.3391 201.669 16.5495 201.641 16.7807L201.596 17.0808C201.546 17.2925 201.482 17.526 201.404 17.7812C201.335 18.0253 201.218 18.3454 201.054 18.7414C200.892 19.1582 200.733 19.4755 200.58 19.6935C200.435 19.9004 200.27 20.093 200.082 20.2713C199.885 20.471 199.528 20.696 199.011 20.9462C198.492 21.1653 198.093 21.2989 197.814 21.347C197.556 21.3834 197.17 21.3962 196.658 21.3853C196.126 21.3756 195.653 21.3258 195.241 21.2358C194.828 21.1354 194.391 20.9947 193.932 20.8137C193.429 20.6039 193.052 20.4231 192.803 20.2711C192.585 20.1173 192.327 19.898 192.028 19.6134C191.707 19.3092 191.406 18.9099 191.126 18.4154C190.838 17.9631 190.644 17.5991 190.544 17.3234C190.424 17.0697 190.326 16.82 190.248 16.5742C190.169 16.2972 190.078 15.8226 189.975 15.1505C189.882 14.4674 189.842 13.9793 189.855 13.6863C189.859 13.4043 189.874 13.1217 189.898 12.8385C189.895 12.7761 189.901 12.7131 189.918 12.6494C189.915 12.587 189.911 12.535 189.909 12.4935C189.877 12.3179 189.909 12.1439 190.003 11.9712ZM10.7539 47.2886L11.267 47.4925C13.4861 48.2981 14.703 50.4842 14.9177 54.0507C15.081 56.7645 14.4127 59.184 12.9126 61.3092C11.6089 63.4018 10.1564 64.4962 8.55514 64.5926C7.04745 64.6833 5.80093 64.0853 4.81559 62.7984C3.80694 61.4712 3.22095 59.4506 3.05761 56.7368C2.85672 53.3991 3.21512 49.9912 4.13282 46.5131C5.0495 43.1916 6.20154 40.6595 7.58893 38.9168C8.91643 37.2193 10.3236 36.3259 11.8105 36.2364C12.7463 36.1801 13.5131 36.4366 14.1109 37.0058C14.7099 37.5959 15.0432 38.4524 15.1108 39.5754C15.1653 40.48 14.8307 41.5959 14.107 42.923C13.354 44.2832 12.3631 45.5899 11.134 46.8431L10.7539 47.2886ZM4.95506 51.3318L5.77345 50.6251C9.17359 47.3002 11.2798 44.9298 12.092 43.5139C13.0063 42.0605 13.4382 40.9127 13.3875 40.0705C13.3462 39.3842 13.1525 38.8532 12.8063 38.4775C12.4602 38.1018 11.9856 37.9321 11.3826 37.9684C10.062 38.0479 8.82738 39.2075 7.67862 41.4472C6.56706 43.6116 5.71623 46.5535 5.12611 50.2727L4.95506 51.3318ZM12.8568 54.66L12.8549 54.6288C12.7516 52.9131 12.3766 51.5373 11.7299 50.5014C11.0898 49.4024 10.4058 48.8749 9.67799 48.9187C9.6156 48.9224 9.55384 48.9366 9.4927 48.9611C9.43157 48.9857 9.36097 49.0265 9.28092 49.0835C9.20024 49.1301 9.11987 49.1819 9.03982 49.2389C8.97016 49.2952 8.87608 49.3792 8.75756 49.4906C8.63842 49.5917 8.52936 49.687 8.43039 49.7764C8.33204 49.8763 8.19918 50.0095 8.03181 50.1761C7.87483 50.3421 7.73771 50.4912 7.62044 50.6235C7.50255 50.7454 7.33549 50.9172 7.11925 51.1389C6.91342 51.36 6.7317 51.5484 6.57409 51.7039C6.07009 52.1726 5.5746 52.6094 5.08764 53.0144L4.96849 53.1155L4.94763 53.2889C4.84009 54.2763 4.82137 55.3523 4.89146 56.5169C5.01725 58.6068 5.41423 60.1744 6.08239 61.2194C6.79652 62.3348 7.65788 62.8621 8.66648 62.8014C10.0182 62.7201 11.0752 61.8164 11.8375 60.0904C12.634 58.4145 12.9738 56.6043 12.8568 54.66ZM29.2971 53.9522L28.6046 55.4496C27.5789 57.8281 26.5009 59.6826 25.3705 61.0134C24.2694 62.311 23.1937 62.9915 22.1435 63.0547C21.5717 63.0891 20.9461 62.7511 20.2667 62.0406C19.5757 61.31 19.1808 60.1232 19.0819 58.4803C18.9981 57.087 19.1956 54.9933 19.6744 52.199C20.078 49.8894 20.2605 48.24 20.2218 47.251C20.4249 46.8109 20.7552 46.5771 21.2127 46.5495C21.5247 46.5308 21.7808 46.6249 21.9811 46.832C22.1924 47.0489 22.3053 47.2769 22.3197 47.516C22.3604 48.1919 22.1755 49.1944 21.765 50.5235C20.9374 53.2448 20.5812 55.5621 20.6963 57.4753C20.8146 59.4405 21.3989 60.3915 22.449 60.3283C23.4888 60.2657 24.6824 59.2912 26.0299 57.4047C27.3382 55.5624 28.4288 53.0496 29.3016 49.8664C29.6462 48.656 29.9381 47.8715 30.1774 47.5127C30.3593 47.2408 30.6167 47.0949 30.9494 47.0749C31.1885 47.0605 31.3645 47.1229 31.4772 47.2623C31.5893 47.3912 31.6573 47.6532 31.6811 48.0483C31.6782 48.1737 31.6065 48.5433 31.466 49.157C30.9788 51.6386 30.8006 53.9661 30.9314 56.1392C31.0935 58.8323 31.6415 60.5681 32.5754 61.3467C32.7077 61.464 32.8137 61.5776 32.8933 61.6876C32.9828 61.7866 33.0394 61.8614 33.0634 61.9122C33.0977 61.9623 33.1152 61.9925 33.1158 62.0029C33.1246 62.1485 32.9887 62.3184 32.7082 62.5127C32.3574 62.753 32.0468 62.8812 31.7765 62.8975C31.2254 62.9307 30.7284 62.4754 30.2855 61.5315C29.7941 60.4758 29.4833 58.8666 29.3531 56.7038L29.3203 56.1579C29.3103 55.9915 29.3051 55.8197 29.3049 55.6423L29.2971 53.9522ZM37.5621 48.4927C38.0588 47.5549 38.8099 46.8574 39.8155 46.4004C40.8205 45.9329 41.8318 45.8303 42.8494 46.0925C43.58 46.2677 44.3479 46.4563 45.1531 46.6583C45.5512 47.0309 46.0857 47.5883 46.7565 48.3306C47.4377 49.0723 47.9281 49.5906 48.2276 49.8856C48.292 50.4349 48.3883 51.7752 48.5166 53.9068C48.6553 56.0377 48.8526 57.6694 49.1086 58.8019C50.0058 59.1445 50.6787 59.4014 51.1273 59.5727C50.0167 60.1926 49.4461 60.5087 49.4156 60.521C49.5071 61.6947 49.5813 62.9268 49.6381 64.2174C49.5676 64.6078 49.499 64.9406 49.4321 65.216C49.3658 65.5017 49.2812 65.8303 49.1783 66.2017C49.0761 66.5836 48.9548 66.9092 48.8145 67.1785C48.6748 67.4582 48.5091 67.7395 48.3174 68.0224C48.1263 68.3156 47.8964 68.5695 47.6275 68.784C47.3697 69.0082 47.0785 69.1979 46.7539 69.3531C45.8857 69.6662 44.9993 69.85 44.0947 69.9045C43.2011 69.9687 42.3092 69.8867 41.4189 69.6586C40.5389 69.4298 39.7282 69.0507 38.9868 68.5214C38.4106 67.6168 37.8525 66.5808 37.3126 65.4132C37.3224 65.4022 37.3593 65.3217 37.4233 65.1717C37.488 65.0322 37.5246 64.9465 37.5331 64.9147C37.5526 64.8926 37.5898 64.8174 37.6447 64.6888C37.71 64.5597 37.757 64.4734 37.7857 64.4299C37.815 64.3968 37.8577 64.3264 37.9138 64.2187C37.9804 64.1103 38.0332 64.0341 38.0723 63.99C38.1217 63.9453 38.1807 63.8843 38.2491 63.8072C38.3279 63.7294 38.3972 63.6678 38.4571 63.6225C38.5176 63.5875 38.5879 63.5415 38.668 63.4845C38.759 63.4373 38.8507 63.4005 38.9431 63.3741C40.3669 62.7562 43.2405 61.6075 47.5641 59.928C47.3904 58.6027 47.2764 57.7487 47.2221 57.3658C44.8113 59.9633 42.5206 60.9151 40.35 60.2213C39.8569 60.178 39.3897 60.0443 38.9483 59.8205C38.5168 59.5855 38.1276 59.275 37.7809 58.8889C37.4445 58.5022 37.1556 58.123 36.9141 57.7514C36.672 57.3695 36.4267 56.9355 36.1783 56.4495C35.4829 54.2582 35.9442 51.6059 37.5621 48.4927ZM40.2737 48.032C39.9718 48.2172 39.6935 48.4479 39.4388 48.7241C39.1939 48.9893 38.9778 49.2997 38.7905 49.6553C38.6025 50.0006 38.4494 50.3176 38.3312 50.6065C38.2122 50.885 38.0766 51.2323 37.9243 51.6485C37.7148 52.329 37.5768 52.9843 37.5104 53.6144C37.4433 54.2341 37.498 54.883 37.6745 55.5612C37.8504 56.2289 38.1765 56.7936 38.6531 57.2554C38.9258 57.6251 39.2568 57.9235 39.6461 58.1505C40.0459 58.3769 40.462 58.5293 40.8946 58.6076C41.3272 58.6859 41.7667 58.7064 42.2132 58.6691C42.6694 58.6208 43.1122 58.5211 43.5414 58.37C44.3292 57.9365 44.9973 57.3328 45.5455 56.5588C46.1036 55.7739 46.4496 54.9339 46.5835 54.0388C46.7279 53.1431 46.6065 52.2529 46.2193 51.3684C46.1954 51.3176 45.9737 50.6683 45.5542 49.4204C44.8982 48.7503 44.2181 48.2016 43.5141 47.7744C43.3269 47.7857 42.9884 47.7956 42.4984 47.8042C42.0183 47.8018 41.6069 47.8161 41.2644 47.8472C40.9219 47.8782 40.5917 47.9398 40.2737 48.032ZM39.4026 65.2874C39.3694 65.6025 39.408 65.8976 39.5185 66.1727C39.6296 66.4582 39.7691 66.695 39.9369 66.8832C40.1158 67.0811 40.3516 67.2704 40.6442 67.4511C40.9375 67.6422 41.1967 67.7883 41.422 67.8895C41.6472 67.9908 41.915 68.1051 42.2253 68.2325C42.8107 68.2495 43.6619 68.2609 44.7788 68.2667C45.4806 67.9635 46.0707 67.6254 46.5492 67.2522C47.038 66.8784 47.4062 66.4075 47.6538 65.8396C47.6804 65.5875 47.6956 65.3205 47.6995 65.0385C47.7144 64.7663 47.726 64.5256 47.7343 64.3163C47.7426 64.1071 47.7419 63.8359 47.7323 63.5025C47.7233 63.1795 47.7138 62.9349 47.7038 62.7685C47.7048 62.6119 47.6989 62.3409 47.6861 61.9556C47.674 61.5807 47.6645 61.336 47.6576 61.2216C46.9999 61.5638 46.1108 61.9617 44.9901 62.4153C43.8695 62.8688 42.8324 63.3226 41.8788 63.7765C40.9356 64.2299 40.1102 64.7335 39.4026 65.2874ZM55.4768 51.7347C55.6223 51.7259 55.7685 51.7276 55.9154 51.7396C56.0817 51.7296 56.431 51.7242 56.9632 51.7235C57.5051 51.7118 57.8957 51.6987 58.1348 51.6843C58.374 51.6699 58.6021 51.6457 58.8192 51.6118C59.0357 51.5675 59.4429 51.4856 60.041 51.3661C60.6299 51.268 61.0063 51.1932 61.1702 51.1416C61.3444 51.0893 61.5838 50.9915 61.8882 50.8479C62.1627 50.727 62.34 50.6381 62.42 50.5811C62.4786 50.515 62.5614 50.4161 62.6683 50.2844C62.7464 50.1962 62.812 50.0723 62.865 49.9125C62.9161 49.7216 62.9496 49.5839 62.9654 49.4995C62.9604 49.4163 62.9176 49.2258 62.8371 48.9281C62.7565 48.6303 62.693 48.441 62.6464 48.3604C62.579 48.2809 62.4406 48.1484 62.2311 47.9627C62.0314 47.766 61.8303 47.632 61.6277 47.5607C61.3811 47.4504 61.1678 47.3745 60.9879 47.3331C60.8074 47.2814 60.5027 47.2476 60.0739 47.2316C59.6646 47.1936 59.3261 47.2036 59.0582 47.2615C58.7996 47.2979 58.4978 47.3995 58.1531 47.5664C57.8077 47.7228 57.5647 47.847 57.4241 47.939C57.2848 48.0517 57.0884 48.2566 56.835 48.5536C56.5809 48.8402 56.3432 49.225 56.1218 49.7079C55.8705 50.2135 55.7202 50.5774 55.6709 50.7995C55.6186 50.9696 55.5538 51.2813 55.4768 51.7347ZM53.613 52.2382C53.6446 52.0693 53.6753 51.8849 53.705 51.6848C53.8124 51.0418 53.9148 50.5765 54.0123 50.2888C54.0993 50.0018 54.2868 49.5627 54.5748 48.9714C54.8822 48.3581 55.2011 47.8484 55.5315 47.4424C55.8527 47.0578 56.1279 46.7752 56.357 46.5944C56.6057 46.3916 56.9639 46.1874 57.4316 45.9819C57.909 45.7653 58.3593 45.6182 58.7825 45.5405C59.1855 45.4745 59.654 45.4568 60.1881 45.4872C60.7221 45.5177 61.1271 45.5716 61.4031 45.6489C61.6785 45.7158 61.9817 45.8124 62.3128 45.9385C62.688 46.1038 63.0415 46.3434 63.3735 46.6574C63.7373 46.9798 63.9774 47.2419 64.0939 47.4436C64.2312 47.6441 64.3717 47.9852 64.5155 48.467C64.6489 48.9494 64.7124 49.3109 64.706 49.5513C64.699 49.7813 64.6382 50.0719 64.5237 50.4232C64.4 50.7959 64.242 51.1184 64.0497 51.3909C63.8543 51.6114 63.6719 51.7893 63.5027 51.9247C63.323 52.0608 63.0202 52.2303 62.5941 52.4334C62.2169 52.5813 61.9109 52.6988 61.6761 52.786C61.4511 52.8622 61.0136 52.9616 60.3636 53.0842C59.7551 53.2043 59.3163 53.2829 59.0472 53.3199C58.7781 53.357 58.5084 53.3837 58.2381 53.3999C57.9989 53.4143 57.598 53.428 57.0352 53.441C56.4725 53.454 56.1024 53.4606 55.925 53.4609C55.7581 53.4605 55.6018 53.4647 55.4562 53.4735C55.3938 53.4772 55.3158 53.4819 55.2223 53.4875C55.2115 53.6552 55.2004 53.8176 55.189 53.9748C55.1807 54.184 55.2204 54.5834 55.308 55.1729C55.3951 55.7521 55.465 56.134 55.5179 56.3186C55.572 56.5241 55.6524 56.7332 55.7591 56.9459C55.8328 57.1293 55.9861 57.4227 56.2191 57.8261C56.4282 58.1788 56.6267 58.4434 56.8147 58.6199C57.0371 58.8465 57.2294 59.0071 57.3916 59.1017C57.5226 59.1982 57.7855 59.318 58.1802 59.4612C58.5762 59.6252 58.9278 59.745 59.235 59.8204C59.5415 59.8854 59.893 59.9165 60.2893 59.9135C60.7182 59.9294 61.0099 59.9223 61.1646 59.8921C61.2894 59.8846 61.5294 59.7971 61.8846 59.6296C62.1994 59.4854 62.4066 59.3738 62.5062 59.2948C62.6052 59.2053 62.6928 59.1009 62.7691 58.9816C62.8454 58.8622 62.9524 58.647 63.0903 58.3361C63.2164 58.005 63.3054 57.7492 63.3571 57.5687C63.4083 57.3778 63.4502 57.2083 63.4831 57.0602L63.5304 56.8069C63.5576 56.5652 63.6663 56.3761 63.8563 56.2394C64.0568 56.1021 64.2726 56.0474 64.5039 56.0752C64.7455 56.1024 64.935 56.2162 65.0723 56.4167C65.2193 56.6061 65.279 56.8164 65.2511 57.0477L65.2066 57.3478C65.1567 57.5595 65.0925 57.7929 65.0139 58.0481C64.9452 58.2923 64.8288 58.6123 64.6647 59.0083C64.502 59.4251 64.3437 59.7425 64.1898 59.9605C64.0458 60.1674 63.88 60.36 63.6924 60.5383C63.4957 60.7379 63.1388 60.9629 62.6216 61.2132C62.1026 61.4323 61.7037 61.5659 61.4248 61.6139C61.1661 61.6504 60.7808 61.6631 60.2688 61.6522C59.736 61.6425 59.2634 61.5927 58.851 61.5028C58.438 61.4024 58.0016 61.2617 57.542 61.0806C57.0389 60.8709 56.6628 60.69 56.4136 60.5381C56.1957 60.3842 55.9372 60.165 55.6383 59.8803C55.3174 59.5762 55.0168 59.1768 54.7366 58.6823C54.4485 58.2301 54.2544 57.8661 54.1543 57.5904C54.0347 57.3367 53.9362 57.0869 53.8588 56.8411C53.7795 56.5642 53.6883 56.0896 53.5852 55.4175C53.492 54.7344 53.4521 54.2463 53.4658 53.9533C53.4697 53.6713 53.484 53.3887 53.5087 53.1054C53.5049 53.043 53.5116 52.98 53.5286 52.9164C53.5249 52.854 53.5217 52.802 53.5192 52.7604C53.4878 52.5849 53.5191 52.4108 53.613 52.2382ZM77.3308 59.3104C77.1977 59.5271 77.0018 59.6537 76.7432 59.6902L76.2478 59.7826C75.8253 59.8706 75.2879 59.8717 74.6357 59.7857C73.9952 59.7199 73.4013 59.5626 72.8541 59.3137C72.3498 59.0832 71.9289 58.8529 71.5916 58.6227C71.2316 58.3626 70.7869 57.9094 70.2575 57.2629C69.7294 56.6373 69.3543 56.1276 69.1323 55.734C68.9195 55.319 68.7289 54.5791 68.5605 53.5144C68.3731 52.4821 68.2965 51.7301 68.3308 51.2585C68.3883 50.8271 68.5254 50.2449 68.7422 49.5118C68.9687 48.7677 69.2174 48.1318 69.4883 47.6042C69.7689 47.0655 70.0409 46.6422 70.3041 46.3341C70.5875 46.0144 71.0133 45.634 71.5816 45.1928C72.1914 44.7491 72.9391 44.4276 73.8246 44.2282C74.6892 44.0301 75.3256 43.9396 75.7336 43.9568C76.1221 43.996 76.689 44.1393 77.4343 44.3866C78.1596 44.6456 78.6957 44.8846 79.0428 45.1038C79.3997 45.3119 79.7785 45.623 80.1791 46.0372C80.5797 46.4514 80.8741 46.8354 81.0624 47.1893C81.2727 47.5628 81.4907 48.1497 81.7163 48.9501C81.9302 49.7303 82.0465 50.4486 82.0651 51.1049C82.102 51.7184 82.1021 52.2401 82.0654 52.6702C82.0495 53.099 81.9444 53.695 81.7504 54.458C81.5575 55.2418 81.3302 55.8869 81.0685 56.3931C80.7768 56.922 80.3793 57.4259 79.8759 57.905C79.3726 58.384 78.9641 58.706 78.6505 58.871C78.3571 59.0243 77.9172 59.1708 77.3308 59.3104ZM73.3979 57.6844C73.6465 57.4816 73.9196 57.4234 74.217 57.5099L74.7117 57.6679C74.9767 57.7355 75.2664 57.7806 75.5808 57.8035C75.8836 57.8061 76.2928 57.7554 76.8083 57.6513C77.3238 57.5472 77.6622 57.4486 77.8236 57.3554C78.0057 57.2609 78.2944 57.0296 78.6897 56.6615C79.0758 56.3147 79.3619 55.9532 79.548 55.5767C79.734 55.2003 79.9067 54.689 80.0661 54.0428C80.2346 53.3752 80.33 52.879 80.3522 52.5542C80.3731 52.2085 80.3716 51.7495 80.3476 51.177C80.3157 50.6467 80.2121 50.0529 80.0369 49.3955C79.8727 48.748 79.721 48.3084 79.5818 48.0768C79.4414 47.8243 79.2211 47.5454 78.921 47.2399C78.6202 46.9241 78.3507 46.6951 78.1126 46.5529C77.8842 46.3997 77.4668 46.2265 76.8604 46.0334C76.2741 45.8287 75.8497 45.7134 75.5873 45.6874C75.3469 45.681 74.8919 45.7502 74.2223 45.8948C73.5943 46.037 73.0606 46.2726 72.6212 46.6017C72.1519 46.9534 71.8293 47.2285 71.6534 47.4269C71.4788 47.6461 71.2743 47.9767 71.04 48.4187C70.8051 48.8502 70.5869 49.3852 70.3853 50.0234C70.1934 50.6507 70.0861 51.1215 70.0633 51.4359C70.0399 51.74 70.0966 52.3366 70.2336 53.2258C70.3902 54.093 70.5445 54.6629 70.6966 54.9355C70.8395 55.2295 71.13 55.6346 71.568 56.1509C72.0067 56.6776 72.3464 57.0328 72.587 57.2166C72.7952 57.3815 73.0655 57.5374 73.3979 57.6844ZM108.93 57.4085C108.797 57.6252 108.601 57.7518 108.342 57.7883L107.847 57.8807C107.424 57.9687 106.887 57.9698 106.235 57.8838C105.594 57.818 105 57.6607 104.453 57.4119C103.949 57.1813 103.528 56.951 103.191 56.7208C102.831 56.4607 102.386 56.0075 101.857 55.361C101.328 54.7354 100.953 54.2257 100.731 53.8321C100.519 53.4171 100.328 52.6772 100.16 51.6125C99.9722 50.5802 99.8956 49.8282 99.9298 49.3566C99.9874 48.9252 100.124 48.343 100.341 47.6099C100.568 46.8658 100.816 46.2299 101.087 45.7023C101.368 45.1636 101.64 44.7403 101.903 44.4322C102.187 44.1126 102.612 43.7321 103.181 43.2909C103.791 42.8472 104.538 42.5257 105.424 42.3263C106.288 42.1282 106.925 42.0377 107.333 42.0549C107.721 42.0941 108.288 42.2374 109.033 42.4847C109.759 42.7437 110.295 42.9827 110.642 43.2019C110.999 43.41 111.378 43.7211 111.778 44.1353C112.179 44.5495 112.473 44.9335 112.661 45.2874C112.872 45.6609 113.09 46.2478 113.315 47.0482C113.529 47.8284 113.646 48.5467 113.664 49.203C113.701 49.8165 113.701 50.3383 113.664 50.7683C113.649 51.1971 113.544 51.7931 113.349 52.5561C113.157 53.3399 112.929 53.985 112.668 54.4912C112.376 55.0201 111.978 55.524 111.475 56.0031C110.972 56.4821 110.563 56.8041 110.25 56.9691C109.956 57.1224 109.516 57.2689 108.93 57.4085ZM104.997 55.7825C105.246 55.5797 105.519 55.5215 105.816 55.608L106.311 55.766C106.576 55.8336 106.865 55.8787 107.18 55.9016C107.483 55.9042 107.892 55.8535 108.407 55.7494C108.923 55.6453 109.261 55.5467 109.423 55.4535C109.605 55.3591 109.894 55.1278 110.289 54.7596C110.675 54.4128 110.961 54.0513 111.147 53.6748C111.333 53.2984 111.506 52.7871 111.665 52.1409C111.834 51.4733 111.929 50.9771 111.951 50.6523C111.972 50.3067 111.971 49.8476 111.947 49.2751C111.915 48.7448 111.811 48.151 111.636 47.4937C111.472 46.8461 111.32 46.4065 111.181 46.1749C111.04 45.9224 110.82 45.6435 110.52 45.3381C110.219 45.0222 109.95 44.7932 109.712 44.651C109.483 44.4978 109.066 44.3246 108.459 44.1315C107.873 43.9268 107.449 43.8115 107.186 43.7855C106.946 43.7791 106.491 43.8483 105.821 43.9929C105.193 44.1351 104.66 44.3707 104.22 44.6998C103.751 45.0515 103.428 45.3266 103.253 45.525C103.078 45.7442 102.873 46.0748 102.639 46.5168C102.404 46.9483 102.186 47.4833 101.984 48.1215C101.793 48.7488 101.685 49.2196 101.662 49.534C101.639 49.8381 101.696 50.4347 101.833 51.3239C101.989 52.1911 102.144 52.761 102.296 53.0336C102.439 53.3276 102.729 53.7328 103.167 54.249C103.606 54.7757 103.945 55.1309 104.186 55.3147C104.394 55.4796 104.665 55.6355 104.997 55.7825ZM130.994 40.3803C131.299 40.4245 131.763 40.5062 132.386 40.6252C132.422 41.0613 132.467 41.7161 132.52 42.5895C132.572 43.4629 132.62 44.1696 132.663 44.7097C132.705 45.2394 132.785 45.8763 132.903 46.6206C133.02 47.3545 133.17 48.0238 133.353 48.6285C133.368 48.711 133.406 49.0009 133.468 49.4981C133.539 49.9843 133.595 50.3201 133.638 50.5054C133.68 50.6906 133.759 50.952 133.873 51.2895C133.997 51.616 134.145 51.9045 134.316 52.1551C134.446 52.3977 134.622 52.7211 134.844 53.1251C135.017 53.3965 135.269 53.59 135.599 53.7058C135.929 53.8112 136.259 53.833 136.589 53.7714C136.929 53.6988 137.224 53.5611 137.472 53.3583C137.708 53.1041 137.91 52.8258 138.08 52.5234C138.259 52.21 138.449 51.8072 138.649 51.3151C138.858 50.8121 138.995 50.4855 139.059 50.3356C138.93 49.0494 138.827 47.605 138.752 46.0025C138.686 44.3889 138.702 42.9322 138.802 41.6322C139.028 41.5769 139.445 41.4787 140.052 41.3378C140.213 41.7664 140.345 42.228 140.448 42.7228C140.551 43.2175 140.62 43.6621 140.654 44.0566C140.698 44.4504 140.722 44.9342 140.725 45.508C140.738 46.0707 140.734 46.5249 140.714 46.8706C140.702 47.2052 140.679 47.6918 140.645 48.3304C140.62 48.9581 140.6 49.4132 140.586 49.6958C140.547 50.4287 140.751 51.1312 141.198 51.8035C141.645 52.4653 142.21 52.927 142.894 53.1885C143.347 53.2551 143.771 53.1983 144.167 53.0179C144.574 52.8369 144.908 52.582 145.17 52.2532C145.431 51.9139 145.638 51.5362 145.79 51.1201C145.953 50.6929 146.042 50.2649 146.058 49.8361C146.223 46.1633 146.294 43.3571 146.271 41.4174C146.422 40.6257 146.538 39.9561 146.62 39.4085C147.242 39.5171 147.659 39.5912 147.87 39.6307C147.946 40.3878 147.986 41.2151 147.988 42.1124C147.989 43.0098 147.973 43.7726 147.938 44.4008C147.902 45.0291 147.844 45.8779 147.762 46.9472C147.691 48.0159 147.644 48.7962 147.621 49.288C147.662 49.6195 147.744 49.9485 147.868 50.275C148.003 50.6008 148.14 50.8848 148.28 51.1268C148.419 51.3584 148.618 51.6334 148.877 51.9518C149.136 52.2597 149.343 52.4977 149.499 52.6657C149.656 52.8337 149.895 53.0854 150.218 53.4207C150.551 53.7451 150.778 53.9662 150.9 54.0841C150.863 54.1698 150.785 54.3415 150.665 54.5992C150.555 54.8562 150.482 55.0276 150.445 55.1133C150.141 55.0898 149.855 55.0236 149.588 54.9144C149.33 54.7943 149.08 54.6267 148.838 54.4117C148.605 54.1961 148.406 53.9994 148.238 53.8216C148.071 53.6335 147.868 53.3952 147.632 53.1068C147.395 52.808 147.214 52.5841 147.091 52.435C146.841 52.9614 146.485 53.3897 146.025 53.7201C145.564 54.04 145.056 54.2532 144.498 54.3598C143.941 54.4664 143.386 54.5103 142.831 54.4915C142.288 54.472 141.735 54.4009 141.175 54.2781C140.71 53.8261 140.192 53.372 139.622 52.9158C139.446 53.636 139.062 54.1966 138.471 54.5974C137.879 54.9982 137.224 55.2151 136.506 55.2478C135.787 55.2702 135.112 55.1387 134.479 54.8533C133.522 54.2221 132.87 53.1709 132.52 51.6997C132.457 51.526 132.344 51.2093 132.181 50.7496C132.018 50.2898 131.887 49.9324 131.788 49.6775C131.641 48.9663 131.515 48.1704 131.409 47.2897C131.315 46.4084 131.251 45.6922 131.217 45.1411C131.184 44.5796 131.144 43.7419 131.098 42.6281C131.051 41.5143 131.017 40.765 130.994 40.3803ZM156.474 46.5794L156.953 46.4723C159.287 45.8831 161.278 44.1145 162.927 41.1663C163.662 39.8698 164.332 38.9425 164.935 38.3844C165.53 37.8685 166.171 37.59 166.857 37.5487C167.065 37.5361 167.295 37.6319 167.547 37.8358C167.788 38.0196 167.916 38.2467 167.933 38.517C167.951 38.829 167.578 39.128 166.813 39.4141C166.262 39.6246 165.754 39.9474 165.29 40.3823C164.857 40.8154 164.109 41.8309 163.047 43.4288C162.263 44.6135 161.552 45.4546 160.914 45.9522C160.903 45.9528 160.888 45.9589 160.868 45.9706C160.858 45.9816 160.843 45.9929 160.823 46.0046C160.813 46.0156 160.798 46.0321 160.779 46.0542C160.759 46.0762 160.74 46.0983 160.72 46.1203C160.711 46.1418 160.697 46.1687 160.678 46.2011C160.67 46.233 160.661 46.27 160.653 46.3122C160.656 46.3538 160.658 46.3954 160.661 46.437C160.664 46.489 160.667 46.5357 160.669 46.5773C160.682 46.6079 160.694 46.6385 160.706 46.669C160.729 46.699 160.746 46.7292 160.759 46.7598C160.781 46.7794 160.798 46.7992 160.809 46.8194C160.831 46.8285 160.852 46.8429 160.874 46.8624C160.906 46.8709 160.928 46.8801 160.939 46.8899C160.95 46.8996 160.966 46.9091 160.987 46.9182C161.009 46.9274 161.02 46.9319 161.02 46.9319C161.678 47.2889 162.401 48.0384 163.19 49.1806C164.434 50.9528 165.388 52.0694 166.052 52.5303C166.77 53.0089 167.565 53.2219 168.439 53.1693L168.968 53.1218C169.02 53.1187 169.062 53.1162 169.093 53.1143C169.105 53.1449 169.112 53.1758 169.114 53.207C169.131 53.4877 168.968 53.8158 168.626 54.1912C168.273 54.5673 167.633 54.7831 166.708 54.8388C166.022 54.8802 165.347 54.5972 164.685 53.9901C163.988 53.3329 163.17 52.2394 162.233 50.7096C161.665 49.7629 161.136 49.0433 160.647 48.551C160.114 48.0091 159.535 47.757 158.911 47.7945C158.766 47.8033 158.393 47.9405 157.793 48.2062C157.539 48.3154 157.341 48.4056 157.199 48.4768C157.067 48.5369 156.932 48.6285 156.793 48.7517C156.665 48.8742 156.574 49.0101 156.52 49.1594C156.442 49.4146 156.426 50.1982 156.474 51.5102C156.508 52.7708 156.548 53.7859 156.595 54.5553C156.611 54.8361 156.492 55.1041 156.236 55.3596C155.959 55.6162 155.654 55.7546 155.322 55.7746C154.999 55.794 154.745 55.7207 154.557 55.5545C154.369 55.378 154.27 55.2014 154.259 55.0246C154.237 54.6607 154.323 53.7528 154.518 52.301C154.855 49.5883 155.089 45.1496 155.219 38.9848C155.221 38.5047 155.377 38.0622 155.687 37.6574C155.977 37.2747 156.304 37.0724 156.668 37.0505C156.793 37.043 156.912 37.1193 157.026 37.2794C157.175 37.5 157.261 37.8027 157.284 38.1874C157.304 38.5202 157.275 38.9028 157.197 39.3354C156.725 41.5552 156.485 43.8029 156.476 46.0784L156.474 46.5794ZM179.521 53.1598C179.388 53.3765 179.192 53.5031 178.933 53.5395L178.438 53.6319C178.015 53.72 177.478 53.721 176.826 53.635C176.185 53.5692 175.591 53.4119 175.044 53.1631C174.54 52.9326 174.119 52.7022 173.782 52.4721C173.422 52.212 172.977 51.7587 172.448 51.1123C171.919 50.4866 171.544 49.977 171.322 49.5834C171.11 49.1683 170.919 48.4284 170.751 47.3637C170.563 46.3314 170.487 45.5795 170.521 45.1078C170.578 44.6765 170.716 44.0943 170.932 43.3612C171.159 42.6171 171.408 41.9812 171.678 41.4535C171.959 40.9149 172.231 40.4915 172.494 40.1835C172.778 39.8638 173.203 39.4834 173.772 39.0422C174.382 38.5985 175.129 38.2769 176.015 38.0776C176.879 37.8794 177.516 37.7889 177.924 37.8061C178.312 37.8454 178.879 37.9886 179.624 38.236C180.35 38.4949 180.886 38.734 181.233 38.9531C181.59 39.1612 181.969 39.4724 182.369 39.8865C182.77 40.3007 183.064 40.6848 183.252 41.0387C183.463 41.4121 183.681 41.9991 183.906 42.7995C184.12 43.5797 184.237 44.2979 184.255 44.9543C184.292 45.5677 184.292 46.0895 184.255 46.5196C184.24 46.9484 184.135 47.5443 183.94 48.3074C183.748 49.0912 183.52 49.7362 183.259 50.2424C182.967 50.7713 182.569 51.2753 182.066 51.7543C181.563 52.2333 181.154 52.5553 180.841 52.7203C180.547 52.8736 180.107 53.0201 179.521 53.1598ZM175.588 51.5337C175.837 51.3309 176.11 51.2728 176.407 51.3592L176.902 51.5173C177.167 51.5848 177.456 51.63 177.771 51.6528C178.074 51.6555 178.483 51.6047 178.998 51.5007C179.514 51.3966 179.852 51.298 180.014 51.2048C180.196 51.1103 180.485 50.879 180.88 50.5108C181.266 50.1641 181.552 49.8025 181.738 49.4261C181.924 49.0496 182.097 48.5383 182.256 47.8922C182.425 47.2246 182.52 46.7284 182.542 46.4035C182.563 46.0579 182.562 45.5988 182.538 45.0263C182.506 44.496 182.402 43.9022 182.227 43.2449C182.063 42.5974 181.911 42.1578 181.772 41.9261C181.631 41.6737 181.411 41.3947 181.111 41.0893C180.81 40.7735 180.541 40.5445 180.303 40.4023C180.074 40.249 179.657 40.0759 179.05 39.8828C178.464 39.6781 178.04 39.5627 177.777 39.5368C177.537 39.5304 177.082 39.5995 176.412 39.7442C175.784 39.8863 175.251 40.1219 174.811 40.451C174.342 40.8028 174.019 41.0778 173.844 41.2763C173.669 41.4955 173.464 41.8261 173.23 42.268C172.995 42.6996 172.777 43.2345 172.575 43.8728C172.384 44.5 172.276 44.9709 172.253 45.2853C172.23 45.5893 172.287 46.186 172.424 47.0752C172.58 47.9423 172.735 48.5122 172.887 48.7848C173.03 49.0789 173.32 49.484 173.758 50.0003C174.197 50.527 174.536 50.8822 174.777 51.066C174.985 51.2309 175.256 51.3868 175.588 51.5337ZM195.565 38.8419C195.179 38.8442 194.864 39.2493 194.62 40.0571C192.946 44.6556 191.657 47.7803 190.755 49.4312C190.659 49.5727 190.541 49.7781 190.4 50.0474C190.04 50.8204 189.683 51.4837 189.33 52.0371C188.989 52.6108 188.721 53.013 188.527 53.2439C188.335 53.5267 188.192 53.671 188.099 53.6766C187.787 53.6954 187.568 53.6146 187.442 53.4344C187.307 53.2755 187.227 52.9829 187.202 52.5566C187.168 52.0055 187.594 51.1816 188.477 50.0849C189.4 48.7666 190.525 46.5701 191.853 43.4951C193.142 40.6417 194.173 38.0856 194.945 35.8268C195.026 35.4358 195.16 35.2347 195.347 35.2234C195.451 35.2172 195.673 35.2716 196.014 35.3868C196.304 35.5258 196.485 35.6611 196.555 35.7925C196.674 36.0358 196.951 37 197.387 38.6853C198.177 41.9353 198.968 44.5018 199.76 46.3847C200.559 48.3924 201.369 49.7211 202.191 50.3708C202.495 50.5717 202.675 50.7017 202.731 50.761C202.752 50.7597 202.762 50.7539 202.761 50.7435C202.781 51.0658 202.721 51.3669 202.581 51.6466C202.441 51.9263 202.306 52.1015 202.174 52.172C202.033 52.2535 201.692 52.3106 201.151 52.3431C200.913 52.1905 200.459 51.6804 199.791 50.8127C198.978 49.7868 197.94 46.8438 196.677 41.9838C196.357 40.6569 196.1 39.7645 195.906 39.3066L195.784 38.8443L195.565 38.8419ZM207.265 42.5989C207.41 42.5901 207.556 42.5917 207.703 42.6038C207.87 42.5938 208.219 42.5884 208.751 42.5877C209.293 42.5759 209.683 42.5628 209.923 42.5485C210.162 42.5341 210.39 42.5099 210.607 42.476C210.823 42.4316 211.231 42.3497 211.829 42.2302C212.418 42.1322 212.794 42.0573 212.958 42.0057C213.132 41.9535 213.372 41.8556 213.676 41.7121C213.951 41.5912 214.128 41.5023 214.208 41.4453C214.266 41.3791 214.349 41.2802 214.456 41.1486C214.534 41.0604 214.6 40.9364 214.653 40.7767C214.704 40.5858 214.737 40.4481 214.753 40.3637C214.748 40.2805 214.705 40.09 214.625 39.7922C214.544 39.4944 214.481 39.3052 214.434 39.2245C214.367 39.1451 214.228 39.0125 214.019 38.8269C213.819 38.6302 213.618 38.4962 213.416 38.4249C213.169 38.3145 212.956 38.2387 212.776 38.1973C212.595 38.1456 212.291 38.1117 211.862 38.0958C211.452 38.0578 211.114 38.0677 210.846 38.1256C210.587 38.1621 210.286 38.2637 209.941 38.4305C209.595 38.587 209.353 38.7112 209.212 38.8031C209.073 38.9159 208.876 39.1208 208.623 39.4178C208.369 39.7044 208.131 40.0892 207.91 40.5721C207.658 41.0777 207.508 41.4415 207.459 41.6636C207.406 41.8338 207.342 42.1455 207.265 42.5989ZM205.401 43.1024C205.432 42.9335 205.463 42.749 205.493 42.549C205.6 41.9059 205.703 41.4406 205.8 41.153C205.887 40.866 206.075 40.4268 206.363 39.8356C206.67 39.2222 206.989 38.7126 207.319 38.3066C207.641 37.922 207.916 37.6393 208.145 37.4586C208.394 37.2558 208.752 37.0516 209.219 36.846C209.697 36.6295 210.147 36.4823 210.57 36.4047C210.973 36.3387 211.442 36.3209 211.976 36.3514C212.51 36.3819 212.915 36.4358 213.191 36.5131C213.466 36.58 213.769 36.6765 214.101 36.8027C214.476 36.9679 214.829 37.2076 215.161 37.5215C215.525 37.844 215.765 38.1061 215.882 38.3078C216.019 38.5082 216.16 38.8494 216.303 39.3312C216.437 39.8136 216.5 40.175 216.494 40.4154C216.487 40.6454 216.426 40.9361 216.312 41.2873C216.188 41.66 216.03 41.9826 215.838 42.2551C215.642 42.4755 215.46 42.6535 215.291 42.7889C215.111 42.9249 214.808 43.0945 214.382 43.2975C214.005 43.4454 213.699 43.563 213.464 43.6502C213.239 43.7263 212.801 43.8257 212.151 43.9483C211.543 44.0684 211.104 44.147 210.835 44.1841C210.566 44.2212 210.296 44.2478 210.026 44.2641C209.787 44.2785 209.386 44.2922 208.823 44.3052C208.26 44.3182 207.89 44.3248 207.713 44.325C207.546 44.3247 207.39 44.3289 207.244 44.3376C207.182 44.3414 207.104 44.3461 207.01 44.3517C206.999 44.5193 206.988 44.6817 206.977 44.839C206.969 45.0482 207.008 45.4475 207.096 46.0371C207.183 46.6162 207.253 46.9981 207.306 47.1828C207.36 47.3883 207.44 47.5973 207.547 47.8101C207.621 47.9935 207.774 48.2869 208.007 48.6903C208.216 49.0429 208.415 49.3075 208.603 49.484C208.825 49.7107 209.017 49.8713 209.179 49.9659C209.31 50.0623 209.573 50.1822 209.968 50.3254C210.364 50.4894 210.716 50.6091 211.023 50.6846C211.329 50.7496 211.681 50.7806 212.077 50.7776C212.506 50.7936 212.798 50.7864 212.952 50.7562C213.077 50.7487 213.317 50.6612 213.672 50.4938C213.987 50.3496 214.194 50.238 214.294 50.1589C214.393 50.0695 214.481 49.9651 214.557 49.8457C214.633 49.7263 214.74 49.5112 214.878 49.2002C215.004 48.8692 215.093 48.6133 215.145 48.4328C215.196 48.2419 215.238 48.0724 215.271 47.9243L215.318 47.671C215.345 47.4294 215.454 47.2402 215.644 47.1036C215.845 46.9663 216.06 46.9115 216.292 46.9394C216.533 46.9666 216.723 47.0804 216.86 47.2808C217.007 47.4703 217.067 47.6806 217.039 47.9118L216.994 48.2119C216.945 48.4237 216.88 48.6571 216.802 48.9123C216.733 49.1564 216.617 49.4765 216.453 49.8725C216.29 50.2893 216.132 50.6067 215.978 50.8246C215.834 51.0316 215.668 51.2242 215.48 51.4024C215.284 51.6021 214.927 51.8271 214.409 52.0774C213.89 52.2964 213.491 52.43 213.213 52.4781C212.954 52.5145 212.569 52.5273 212.057 52.5164C211.524 52.5067 211.051 52.4569 210.639 52.3669C210.226 52.2665 209.789 52.1258 209.33 51.9448C208.827 51.7351 208.451 51.5542 208.201 51.4022C207.983 51.2484 207.725 51.0291 207.426 50.7445C207.105 50.4403 206.805 50.041 206.524 49.5465C206.236 49.0943 206.042 48.7303 205.942 48.4545C205.823 48.2008 205.724 47.9511 205.647 47.7053C205.567 47.4283 205.476 46.9538 205.373 46.2817C205.28 45.5985 205.24 45.1105 205.254 44.8174C205.258 44.5354 205.272 44.2528 205.297 43.9696C205.293 43.9072 205.299 43.8442 205.316 43.7805C205.313 43.7182 205.31 43.6662 205.307 43.6246C205.276 43.4491 205.307 43.275 205.401 43.1024Z" fill="#242424"/>
</svg>
