<svg width="232" height="109" viewBox="0 0 232 109" fill="none" xmlns="http://www.w3.org/2000/svg">
<path d="M42.9739 22.4287C83.869 18.1071 167.08 10.7603 172.762 15.9463C179.865 22.4287 18.6006 44.1048 14.0807 59.6626C9.56066 75.2204 196.449 39.9013 216.466 54.1626C232.479 65.5717 107.125 80.6173 30.5 94.6626" stroke="#0CE9CA" stroke-width="28" stroke-linecap="round"/>
<path d="M83.739 37.3075C84.0965 37.2012 84.5215 37.0228 85.0142 36.7723C85.526 36.4996 85.9071 36.2927 86.1574 36.1515C86.3886 36.0324 86.7936 35.73 87.3727 35.2443C87.9134 34.8029 88.3581 34.3362 88.7068 33.8443C89.0748 33.3303 89.3208 32.9285 89.4448 32.6388C89.5896 32.3478 89.7657 31.7156 89.973 30.7422C90.1995 29.7467 90.3188 29.0555 90.3309 28.6685C90.3622 28.2595 90.3244 27.6305 90.2174 26.7815C90.0897 25.9338 89.9511 25.2172 89.8017 24.6318C89.6331 24.0686 89.3582 23.4129 88.9769 22.6648C88.5956 21.9168 88.2839 21.3939 88.0417 21.0963C87.8106 20.8083 87.285 20.3565 86.4647 19.7408C85.6867 19.1328 84.9508 18.7309 84.2567 18.5351C83.5091 18.3218 82.9574 18.2108 82.6015 18.2021C82.2137 18.1851 81.5568 18.2687 80.6307 18.4529C79.7463 18.6345 79.1785 18.7907 78.9274 18.9215C78.637 19.0861 78.3431 19.2718 78.0456 19.4786C77.7361 19.6653 77.2422 20.1038 76.564 20.7941C75.9041 21.4519 75.3806 22.1167 74.9934 22.7885C74.595 23.4505 74.331 23.9579 74.2014 24.3105C74.0806 24.6418 73.9529 25.2918 73.8183 26.2605C73.7045 27.228 73.6564 27.8938 73.6739 28.258C73.705 28.663 73.826 29.2868 74.0369 30.1291C74.2462 30.9508 74.4804 31.6195 74.7394 32.1352C74.9879 32.6517 75.344 33.2083 75.8077 33.8049C76.3018 34.3892 76.6843 34.8137 76.9553 35.0782C77.2143 35.3226 77.732 35.6706 78.5084 36.1221C79.2959 36.5833 79.8232 36.8524 80.0903 36.9293C80.379 37.0153 80.7932 37.1038 81.3329 37.1946C81.8311 37.2881 82.2725 37.3226 82.6571 37.2981L83.3588 37.2534C83.4843 37.2559 83.6111 37.2739 83.739 37.3075ZM79.6377 38.5863C79.2211 38.4668 78.5539 38.144 77.636 37.618C76.7381 37.0803 76.1149 36.6503 75.7663 36.3281C75.4386 36.0045 75.0089 35.5101 74.4772 34.8447C73.9328 34.1488 73.5064 33.4923 73.1979 32.8753C72.8877 32.2375 72.6132 31.4514 72.3744 30.5168C72.1571 29.5914 72.0193 28.8852 71.961 28.3984C71.9028 27.9116 71.9465 27.1208 72.0923 26.0261C72.2485 24.9307 72.4034 24.1589 72.557 23.7108C72.7323 23.2717 73.0467 22.6724 73.5002 21.913C73.9634 21.1424 74.5821 20.3568 75.3564 19.556C76.113 18.7981 76.6801 18.2923 77.0576 18.0387C77.4055 17.8078 77.7546 17.5924 78.1049 17.3927C78.4959 17.1799 79.2157 16.9619 80.2641 16.7385C81.2941 16.5477 82.0809 16.4558 82.6247 16.4629C83.1373 16.472 83.8321 16.6104 84.7093 16.8781C85.628 17.1431 86.5647 17.6418 87.5193 18.3742C88.4308 19.0885 89.0532 19.6437 89.3865 20.04C89.6983 20.4271 90.0696 21.0454 90.5004 21.8946C90.9416 22.7432 91.2621 23.516 91.4618 24.213C91.6392 24.8905 91.7886 25.6794 91.9099 26.5797C92.0456 27.5313 92.1014 28.2583 92.0773 28.7608C92.054 29.2737 91.9219 30.0701 91.681 31.15C91.44 32.2299 91.2155 32.98 91.0075 33.4003C90.8291 33.7978 90.5367 34.2757 90.1304 34.8339C89.6872 35.457 89.1314 36.0403 88.4627 36.5839C87.8141 37.1157 87.3394 37.4643 87.0387 37.6296C86.7692 37.7929 86.3585 38.0225 85.8067 38.3186C85.2341 38.616 84.7282 38.8309 84.2892 38.9632C83.8502 39.0956 83.3768 39.1883 82.869 39.2415C82.3612 39.2948 81.9973 39.3179 81.7774 39.3111C81.5367 39.3055 81.1761 39.2346 80.6955 39.0982L80.0707 38.9188C79.8988 38.8567 79.7544 38.7459 79.6377 38.5863ZM95.2118 22.6434C95.331 22.4271 95.4977 22.286 95.712 22.2202C95.9368 22.1537 96.1535 22.1868 96.3621 22.3197C96.5804 22.4414 96.7183 22.6049 96.7758 22.8099L96.9017 23.2246C96.9888 23.5426 97.0523 23.8256 97.0922 24.0735C97.1313 24.3111 97.1972 24.8287 97.2898 25.6265C97.3504 26.4158 97.3978 27.0338 97.4321 27.4804C97.4504 27.7193 97.47 27.9737 97.4907 28.2438C97.5243 28.1373 97.5587 28.0411 97.5939 27.9554C97.886 26.9975 98.1988 26.2417 98.5324 25.6882C98.8972 25.1327 99.1803 24.7389 99.3819 24.5069C99.6443 24.2501 100.042 23.99 100.576 23.7264C101.09 23.4849 101.481 23.34 101.749 23.2916C101.957 23.2783 102.17 23.2648 102.388 23.2509C102.67 23.2537 103.055 23.3701 103.543 23.6C104.053 23.8493 104.49 24.2285 104.853 24.7377C105.168 25.1664 105.498 25.8603 105.843 26.8194C106.194 27.7155 106.439 28.3939 106.579 28.8546C106.698 29.3167 106.903 30.0186 107.195 30.9602C107.457 31.9246 107.665 32.7254 107.818 33.3627C107.948 33.9702 108.069 34.5835 108.179 35.2027C108.299 35.8109 108.376 36.213 108.412 36.409C108.425 36.5752 108.45 36.7614 108.487 36.9678L108.512 37.295C108.551 37.5326 108.494 37.7397 108.34 37.9165C108.197 38.0926 108.006 38.1935 107.768 38.2191C107.54 38.244 107.326 38.1794 107.126 38.0251C106.938 37.8806 106.824 37.6947 106.786 37.4676L106.764 37.1872C106.727 36.9808 106.702 36.7893 106.689 36.6127C106.655 36.4479 106.594 36.0656 106.507 35.4658C106.4 34.8985 106.283 34.3164 106.153 33.7193C106.002 33.1131 105.792 32.3489 105.523 31.4268C105.242 30.4845 105.042 29.7927 104.925 29.3514C104.787 28.9114 104.554 28.2635 104.227 27.4076C103.924 26.592 103.666 26.0187 103.453 25.6879C103.266 25.4388 103.06 25.2693 102.834 25.1794C102.637 25.0667 102.481 25.0036 102.365 24.9901C102.261 24.9967 102.147 25.004 102.022 25.0119C101.919 25.0393 101.692 25.1373 101.339 25.3059C100.985 25.4537 100.76 25.588 100.665 25.7089C100.529 25.8428 100.317 26.1433 100.029 26.6105C99.738 27.036 99.4719 27.6531 99.2311 28.4617C98.9726 29.3131 98.8257 29.9173 98.7904 30.2744C98.7352 30.6433 98.7083 31.2451 98.7097 32.08C98.6919 32.9369 98.7049 33.651 98.7488 34.2222C98.7926 34.7935 98.8165 35.2407 98.8204 35.564C98.8483 35.9276 98.8522 36.2508 98.8322 36.5339C98.8354 36.5755 98.8394 36.6274 98.8441 36.6897C98.8489 36.752 98.8313 36.8627 98.7913 37.0218C98.7609 37.1699 98.7069 37.2829 98.6293 37.3609C98.5517 37.4389 98.4265 37.5095 98.2538 37.5727C98.0915 37.6352 97.88 37.6017 97.6193 37.4722C97.4898 37.4179 97.3754 37.3573 97.2763 37.2906C97.1876 37.2231 97.1252 37.1593 97.0892 37.099C97.0525 37.0282 97.0265 36.962 97.0113 36.9004C96.9961 36.8387 96.9869 36.7871 96.9838 36.7456L96.979 36.6833C96.8695 36.3458 96.7816 36.0175 96.7153 35.6981C96.649 35.3788 96.5496 34.832 96.417 34.0577C96.2717 33.2528 96.1575 32.5139 96.0745 31.8408C95.9907 31.1573 95.9153 30.3793 95.8483 29.5069C95.7845 28.676 95.7355 28.0372 95.7012 27.5906C95.6669 27.144 95.6195 26.5261 95.5589 25.7367C95.4791 24.9695 95.4216 24.493 95.3865 24.3074C95.3737 24.1412 95.3262 23.9303 95.2439 23.6746L95.1504 23.2735C95.0721 23.0698 95.0926 22.8597 95.2118 22.6434ZM110.263 20.9175C110.246 20.689 110.249 20.4644 110.274 20.2437C110.309 20.0222 110.371 19.8044 110.459 19.59C110.547 19.3757 110.686 19.2155 110.877 19.1094C111.077 19.0027 111.316 18.9771 111.591 19.0326C111.679 19.6323 111.755 20.6242 111.82 22.0082C111.894 23.3811 111.964 24.3681 112.031 24.9692C112.167 25.1067 112.372 25.3181 112.644 25.6034C113.064 25.3574 113.737 25.0067 114.663 24.5511C116.538 24.2021 118.039 24.096 119.167 24.2329C119.629 24.527 119.958 24.7409 120.157 24.8743C120.355 25.0078 120.637 25.2142 121.003 25.4936C121.369 25.7625 121.672 26.0355 121.912 26.3124C122.152 26.5789 122.362 26.8682 122.543 27.1802C122.658 27.4547 122.745 27.7623 122.802 28.103C122.859 28.4334 122.886 28.7187 122.883 28.9589C122.891 29.1881 122.89 29.5169 122.881 29.9454C122.881 30.3628 122.883 30.6549 122.885 30.8218C122.333 31.7962 121.576 32.6064 120.612 33.2523C119.647 33.8877 118.632 34.3334 117.565 34.5892C116.497 34.8346 115.383 34.9422 114.221 34.9118C113.871 34.8506 113.555 34.7455 113.272 34.5965C112.989 34.4476 112.744 34.2544 112.538 34.0171C112.331 33.7693 112.15 33.5199 111.995 33.2689C111.85 33.0172 111.717 32.7177 111.597 32.3706C111.476 32.0234 111.379 31.7165 111.307 31.4497C111.234 31.183 111.158 30.8747 111.079 30.5249C110.573 27.1965 110.301 23.994 110.263 20.9175ZM112.59 27.7516C112.693 29.6445 112.813 31.0616 112.947 32.0027C113.057 32.0688 113.224 32.2095 113.45 32.4247C113.675 32.6296 113.885 32.7884 114.082 32.9011C114.279 33.0138 114.491 33.0629 114.72 33.0483C115.41 33.0566 116.08 33.0035 116.729 32.889C117.388 32.7636 118.031 32.5712 118.659 32.3121C119.297 32.0523 119.843 31.6783 120.297 31.1902C120.76 30.691 121.075 30.1021 121.242 29.4235C121.191 28.8841 121.149 28.4849 121.119 28.2259C121.071 28.1455 120.975 27.9846 120.831 27.7433C120.687 27.4916 120.59 27.3255 120.542 27.245C120.02 26.7043 119.396 26.3214 118.668 26.0964C117.951 25.8707 117.23 25.8018 116.505 25.8897C115.78 25.9672 115.069 26.169 114.374 26.4951C113.688 26.8206 113.094 27.2394 112.59 27.7516ZM124.863 18.2028C124.959 18.228 125.082 18.2672 125.232 18.3202C125.392 18.3622 125.563 18.4139 125.745 18.4754C125.937 18.5258 126.07 18.559 126.145 18.5752C126.499 20.0659 126.78 21.6814 126.987 23.4217C127.193 25.1515 127.325 26.7347 127.383 28.1713C127.44 29.5975 127.472 31.2341 127.478 33.0811C127.21 33.1294 126.588 33.263 125.612 33.4817C125.547 32.63 125.519 31.7916 125.529 30.9665C125.685 30.0068 125.75 28.9485 125.724 27.7917C125.698 26.6348 125.611 25.5706 125.463 24.5989C125.326 23.6266 125.197 22.565 125.078 21.4141C124.957 20.2529 124.886 19.1825 124.863 18.2028ZM129.829 20.4383C129.928 20.2233 130.083 20.0777 130.297 20.0015C130.521 19.9246 130.741 19.9366 130.958 20.0376C131.185 20.138 131.338 20.2952 131.417 20.5094L131.577 20.9532C131.71 21.3309 131.776 21.7755 131.773 22.2871C131.785 22.7142 131.825 23.3744 131.894 24.2676C131.94 25.1414 131.975 25.734 131.999 26.0456C132.044 26.3662 132.091 26.7077 132.14 27.0699C132.15 27.1945 132.172 27.3548 132.208 27.5508C132.273 27.3066 132.35 27.0199 132.44 26.6907C132.657 25.8419 132.909 25.1057 133.195 24.4821C133.492 23.8579 133.74 23.409 133.938 23.1354C134.105 22.8639 134.395 22.4957 134.809 22.031C135.26 21.5118 135.689 21.1087 136.095 20.8219C136.5 20.5144 136.901 20.2957 137.298 20.166C137.715 20.0143 138.085 19.9385 138.409 19.9387C138.754 19.9377 139.12 20.0187 139.509 20.1818C139.887 20.3456 140.169 20.5416 140.353 20.7699C140.515 20.9683 140.75 21.3812 141.059 22.0086C141.313 22.5874 141.489 23.0458 141.588 23.3839C141.677 23.7227 141.797 24.2055 141.95 24.8325C142.01 25.0687 142.074 25.289 142.142 25.4934C142.239 25.122 142.425 24.6196 142.7 23.9863C143.008 23.2361 143.245 22.7252 143.413 22.4536C143.579 22.1717 143.81 21.8439 144.105 21.4702C144.439 21.0627 144.735 20.7621 144.992 20.5683C145.256 20.3427 145.577 20.1657 145.954 20.0374C146.454 19.8803 146.979 19.9199 147.53 20.1562C148.059 20.3834 148.483 20.7321 148.801 21.2024C149.019 21.5955 149.186 21.9345 149.302 22.2194C149.386 22.4958 149.521 23.0351 149.708 23.8373C149.918 24.6589 150.053 25.2609 150.113 25.6432C150.184 26.0144 150.289 26.5713 150.43 27.3138C150.549 28.0576 150.65 28.6827 150.73 29.1889C150.811 29.6952 150.871 30.2028 150.91 30.7117C150.968 31.1986 151.022 31.6231 151.07 31.9853C151.119 32.3474 151.16 32.611 151.194 32.7758L151.245 33.0387C151.284 33.2762 151.238 33.4879 151.106 33.6738C150.974 33.8596 150.789 33.9705 150.552 34.0065C150.325 34.0419 150.112 33.9928 149.914 33.8593C149.725 33.7148 149.601 33.5296 149.542 33.3037L149.524 33.07C149.489 32.8844 149.436 32.6008 149.365 32.2191C149.314 31.8362 149.253 31.3809 149.181 30.8531C149.144 30.365 149.086 29.8782 149.007 29.3927C148.928 28.9072 148.829 28.3081 148.712 27.5954C148.594 26.8724 148.499 26.32 148.428 25.9384C148.359 25.5775 148.226 25.0067 148.03 24.226C147.845 23.4446 147.713 22.952 147.635 22.7483C147.58 22.5847 147.48 22.3667 147.334 22.0943C147.238 21.9334 147.088 21.8125 146.883 21.7316C146.731 21.6578 146.625 21.6332 146.564 21.658C146.38 21.7115 146.224 21.7944 146.097 21.9069C145.92 22.0434 145.712 22.2602 145.473 22.5572C145.195 22.8776 144.996 23.146 144.877 23.3623C144.757 23.5682 144.556 24.009 144.273 24.6845C143.99 25.3496 143.817 25.8198 143.755 26.0952C143.695 26.4017 143.615 26.8607 143.516 27.4724C143.426 28.073 143.364 28.6928 143.33 29.3316C143.281 30.0653 143.253 30.5055 143.243 30.6522C143.22 30.8937 143.175 31.1992 143.11 31.5687C143.054 31.9375 143.012 32.2063 142.983 32.3751C142.963 32.3765 142.943 32.3882 142.923 32.4103C142.904 32.4324 142.859 32.4613 142.789 32.4971C142.719 32.5329 142.643 32.569 142.562 32.6055C142.492 32.6413 142.406 32.6781 142.304 32.7158C142.203 32.7536 142.106 32.7807 142.013 32.797C141.931 32.8127 141.848 32.8232 141.765 32.8285C141.681 32.8338 141.602 32.8232 141.527 32.7967C141.452 32.7701 141.386 32.7274 141.329 32.6684C141.283 32.6087 141.256 32.5269 141.248 32.4231C141.235 32.2569 141.223 32.169 141.212 32.1592C141.2 32.1391 141.203 32.1076 141.22 32.0648C141.238 32.0219 141.259 31.9579 141.284 31.8728C141.311 31.6832 141.325 31.458 141.326 31.197C141.325 30.9152 141.307 30.5407 141.271 30.0733C141.214 29.6072 141.133 29.0906 141.027 28.5233C140.898 27.9366 140.778 27.3859 140.665 26.8713C140.565 26.3871 140.439 25.8367 140.287 25.2202C140.135 24.5932 140.012 24.1471 139.918 23.8817C139.857 23.6247 139.712 23.2373 139.484 22.7195C139.306 22.3029 139.165 22.0353 139.062 21.9167C139.018 21.8778 138.929 21.8156 138.797 21.73C138.668 21.6757 138.546 21.6521 138.431 21.6594C138.326 21.6452 138.162 21.687 137.94 21.7847C137.664 21.8648 137.383 22.0132 137.096 22.2298C136.809 22.4359 136.493 22.7431 136.149 23.1512C135.753 23.5834 135.491 23.9132 135.363 24.1406C135.23 24.316 135.038 24.6727 134.787 25.2105C134.535 25.7483 134.309 26.3994 134.106 27.1638C133.884 27.9503 133.75 28.5068 133.701 28.8334C133.661 29.1178 133.602 29.6434 133.525 30.4102C133.48 31.1854 133.453 31.7246 133.445 32.0277C133.436 32.3205 133.44 32.7013 133.455 33.17C133.47 33.6387 133.485 33.9717 133.5 34.169C133.503 34.2106 133.512 34.257 133.526 34.3083C133.541 34.3595 133.564 34.4624 133.597 34.6169C133.629 34.7609 133.606 34.872 133.529 34.95C133.461 35.0273 133.358 35.107 133.218 35.189C133.078 35.2709 132.844 35.2806 132.515 35.2181C132.082 35.1621 131.802 35.0547 131.675 34.8958C131.547 34.7265 131.531 34.5763 131.625 34.445L131.735 34.2501C131.695 33.9918 131.657 33.7698 131.622 33.5842C131.585 33.3778 131.512 32.9754 131.404 32.377C131.295 31.7785 131.202 31.32 131.126 31.0013C131.059 30.6716 130.939 30.0635 130.766 29.1769C130.594 28.2903 130.482 27.6556 130.432 27.2726C130.383 26.9104 130.335 26.5586 130.288 26.2172C130.262 25.8744 130.225 25.2506 130.176 24.3457C130.106 23.4317 130.064 22.7456 130.049 22.2873C130.045 21.964 130.015 21.6998 129.957 21.4947L129.801 21.0976C129.721 20.8627 129.73 20.6429 129.829 20.4383ZM17.4415 53.6478C17.5607 53.4315 17.7275 53.2904 17.9418 53.2246C18.1665 53.1581 18.3832 53.1913 18.5919 53.3241C18.8102 53.4459 18.9481 53.6093 19.0056 53.8144L19.1314 54.229C19.2185 54.547 19.282 54.83 19.322 55.0779C19.3611 55.3155 19.427 55.8332 19.5195 56.6309C19.5801 57.4202 19.6276 58.0382 19.6618 58.4848C19.6802 58.7237 19.6997 58.9782 19.7204 59.2482C19.754 59.1417 19.7885 59.0456 19.8237 58.9598C20.1158 58.0019 20.4286 57.2462 20.7622 56.6926C21.1269 56.1371 21.4101 55.7434 21.6117 55.5113C21.874 55.2546 22.2719 54.9944 22.8053 54.7308C23.3196 54.4893 23.7106 54.3444 23.9785 54.296C24.1864 54.2828 24.3995 54.2692 24.6178 54.2553C24.9001 54.2582 25.2851 54.3746 25.7729 54.6044C26.283 54.8537 26.7195 55.2329 27.0824 55.7421C27.3974 56.1708 27.7275 56.8647 28.0727 57.8238C28.4235 58.7199 28.6689 59.3983 28.8087 59.8591C28.9278 60.3212 29.1331 61.023 29.4248 61.9646C29.6868 62.929 29.8946 63.7298 30.0479 64.3672C30.1781 64.9746 30.2983 65.588 30.4086 66.2072C30.5284 66.8153 30.6062 67.2174 30.6422 67.4134C30.6549 67.5796 30.6797 67.7659 30.7164 67.9723L30.7415 68.2994C30.7807 68.537 30.7234 68.7442 30.5699 68.9209C30.4267 69.097 30.2359 69.1979 29.9976 69.2235C29.7697 69.2485 29.5558 69.1838 29.356 69.0296C29.1673 68.885 29.0538 68.6992 29.0154 68.472L28.9939 68.1916C28.9572 67.9852 28.932 67.7937 28.9185 67.6171C28.8849 67.4523 28.8243 67.07 28.7364 66.4702C28.6302 65.903 28.5124 65.3208 28.383 64.7237C28.232 64.1175 28.0219 63.3534 27.7526 62.4312C27.4713 61.4889 27.272 60.7971 27.1545 60.3558C27.0163 59.9159 26.7837 59.2679 26.4569 58.412C26.154 57.5964 25.8958 57.0231 25.6824 56.6923C25.4962 56.4433 25.2899 56.2738 25.0636 56.1838C24.8669 56.0711 24.7106 56.008 24.5946 55.9945C24.4907 56.0011 24.3763 56.0084 24.2516 56.0164C24.1492 56.0438 23.9217 56.1417 23.569 56.3103C23.2147 56.4581 22.99 56.5925 22.8948 56.7133C22.7589 56.8472 22.5469 57.1478 22.2589 57.6149C21.9677 58.0405 21.7017 58.6575 21.4608 59.4661C21.2023 60.3175 21.0555 60.9218 21.0202 61.2789C20.9649 61.6477 20.938 62.2495 20.9394 63.0844C20.9216 63.9413 20.9347 64.6554 20.9785 65.2267C21.0224 65.7979 21.0463 66.2452 21.0502 66.5685C21.0781 66.932 21.082 67.2553 21.0619 67.5384C21.0651 67.5799 21.0691 67.6318 21.0739 67.6941C21.0787 67.7565 21.0611 67.8672 21.0211 68.0263C20.9906 68.1743 20.9366 68.2874 20.859 68.3654C20.7815 68.4434 20.6563 68.5139 20.4836 68.5771C20.3212 68.6397 20.1097 68.6062 19.8491 68.4767C19.7195 68.4223 19.6052 68.3617 19.5061 68.295C19.4173 68.2276 19.355 68.1637 19.319 68.1034C19.2822 68.0327 19.2562 67.9665 19.2411 67.9048C19.2259 67.8432 19.2167 67.7916 19.2135 67.75L19.2087 67.6877C19.0993 67.3503 19.0114 67.0219 18.9451 66.7026C18.8788 66.3832 18.7793 65.8364 18.6468 65.0621C18.5014 64.2573 18.3872 63.5183 18.3042 62.8452C18.2204 62.1617 18.145 61.3837 18.0781 60.5113C18.0143 59.6804 17.9653 59.0417 17.931 58.5951C17.8967 58.1485 17.8493 57.5305 17.7887 56.7412C17.7089 55.9739 17.6514 55.4975 17.6163 55.3118C17.6035 55.1457 17.556 54.9347 17.4737 54.6791L17.3802 54.278C17.3019 54.0742 17.3223 53.8642 17.4415 53.6478ZM35.464 62.4566L35.6727 62.7251C35.7654 62.8445 35.9901 62.9815 36.3467 63.1362C36.7496 63.3506 37.3341 63.5482 38.1002 63.729C38.8478 63.9423 39.3743 64.0653 39.6798 64.098C39.9956 64.1301 40.4818 64.1357 41.1383 64.1147C41.7325 64.0977 42.3554 63.9798 43.0072 63.7608C43.679 63.5302 44.094 63.3576 44.2524 63.2432C44.4107 63.1287 44.6647 62.8307 45.0142 62.3492C45.3438 61.8795 45.5598 61.4274 45.6623 60.9929C45.7511 60.5176 45.786 60.1553 45.7669 59.906C45.7485 59.6672 45.5528 59.0899 45.1795 58.1744C44.7823 57.2186 44.5026 56.6363 44.3403 56.4275C44.154 56.1784 43.8311 55.8494 43.3713 55.4403C42.9124 55.0416 42.5031 54.7442 42.1433 54.5479C41.8051 54.3607 41.3917 54.2148 40.9031 54.1103C40.4138 53.9953 40.0651 53.9445 39.8572 53.9577C39.6597 53.9703 39.2523 54.1058 38.6349 54.3643C38.0583 54.6098 37.582 54.9376 37.2061 55.3477C36.7886 55.7605 36.5118 56.1016 36.3758 56.3712C36.231 56.6623 36.0417 57.2588 35.808 58.1608C35.5543 59.0745 35.4182 59.7512 35.3998 60.1907C35.3805 60.6198 35.4019 61.3751 35.464 62.4566ZM35.6038 64.6864C35.6238 64.9461 35.6505 65.1583 35.684 65.3232C35.7439 65.8308 35.8497 66.5285 36.0014 67.4164C36.1579 68.3667 36.3149 69.2542 36.4722 70.0792C36.6192 70.9048 36.7146 71.4675 36.7585 71.7674C36.8008 72.0465 36.8499 72.4139 36.9058 72.8695C36.9609 73.3148 36.9944 73.6153 37.0063 73.7711L37.0231 73.9892C37.0414 74.2281 36.9686 74.4363 36.8046 74.6137C36.6511 74.7905 36.4547 74.8865 36.2156 74.9017C35.9869 74.9163 35.783 74.8458 35.6039 74.6902C35.4248 74.5346 35.3261 74.3374 35.3078 74.0985L35.2911 73.8804C35.2815 73.7558 35.2496 73.476 35.1953 73.0411C35.1418 72.6166 35.0891 72.2703 35.0372 72.0023C34.9949 71.7232 34.9003 71.1708 34.7533 70.3452C34.6048 69.4989 34.4538 68.6213 34.3005 67.7127C34.144 66.7624 34.035 66.0231 33.9736 65.4948C33.9233 65.1118 33.8694 64.5464 33.812 63.7986C33.7889 63.4974 33.763 63.1599 33.7343 62.786C33.6778 61.5058 33.6604 60.5989 33.6821 60.0653C33.7038 59.5316 33.8468 58.7397 34.1109 57.6897C34.3966 56.6486 34.6399 55.9391 34.8407 55.561C35.0503 55.1615 35.411 54.6897 35.9229 54.1457C36.454 53.5796 37.1342 53.1188 37.9635 52.7633C38.7529 52.4312 39.3299 52.2588 39.6945 52.246C40.0775 52.2007 40.5985 52.251 41.2574 52.3969C41.9163 52.5428 42.4964 52.7511 42.9977 53.0219C43.4678 53.2946 43.9675 53.6802 44.4967 54.1788C45.0452 54.6553 45.4357 55.0479 45.6684 55.3566C45.9546 55.6828 46.3234 56.4055 46.775 57.5248C47.2481 58.6532 47.4846 59.4209 47.4845 59.8279C47.514 60.2122 47.4691 60.7161 47.3499 61.3394C47.2154 62.0368 46.9169 62.7081 46.4546 63.3534C45.9906 63.9778 45.5955 64.41 45.2692 64.65C44.9821 64.8562 44.4215 65.1058 43.5874 65.399C42.7717 65.6597 41.968 65.8048 41.1763 65.8344C40.447 65.86 39.8873 65.8487 39.4971 65.8004C39.1172 65.7516 38.5111 65.6128 37.6788 65.384C36.8264 65.1669 36.1347 64.9344 35.6038 64.6864ZM52.848 57.2319C52.9935 57.2226 53.1399 57.2238 53.287 57.2353C53.4533 57.2247 53.8028 57.2181 54.3353 57.2154C54.8775 57.2018 55.2681 57.1873 55.5072 57.1721C55.7463 57.1569 55.9742 57.1319 56.191 57.0972C56.4069 57.0522 56.8131 56.9689 57.4097 56.8474C57.9974 56.7473 58.3729 56.6712 58.536 56.6191C58.7096 56.5663 58.9475 56.4677 59.2498 56.3232C59.5225 56.2014 59.6984 56.1119 59.7776 56.0547C59.8352 55.9884 59.9164 55.8893 60.0212 55.7574C60.098 55.669 60.1616 55.5449 60.212 55.3852C60.26 55.1942 60.2912 55.0566 60.3056 54.9722C60.2993 54.8891 60.2533 54.6989 60.1678 54.4017C60.0823 54.1045 60.0156 53.9156 59.9676 53.8352C59.8989 53.7561 59.7582 53.6241 59.5455 53.4394C59.3425 53.2436 59.139 53.1104 58.9351 53.0399C58.6864 52.9305 58.4717 52.8555 58.291 52.8148C58.1095 52.7637 57.804 52.731 57.3746 52.7166C56.9644 52.6801 56.6258 52.6913 56.3587 52.75C56.1004 52.7874 55.8001 52.89 55.4578 53.0579C55.1147 53.2154 54.8736 53.3404 54.7344 53.4327C54.5969 53.5459 54.4037 53.7513 54.1549 54.0489C53.9054 54.3362 53.6738 54.7214 53.4602 55.2047C53.217 55.7107 53.0726 56.0748 53.0269 56.2969C52.9773 56.467 52.9177 56.7787 52.848 57.2319ZM50.9911 57.7416C51.0199 57.5728 51.0475 57.3883 51.074 57.1884C51.1709 56.5455 51.2657 56.0803 51.3586 55.7926C51.441 55.5055 51.6214 55.0661 51.8998 54.4743C52.1974 53.8605 52.5082 53.3502 52.8322 52.9434C53.1473 52.558 53.4181 52.2746 53.6444 52.0932C53.89 51.8897 54.245 51.6844 54.7097 51.4774C55.1839 51.2593 55.6322 51.1107 56.0544 51.0317C56.4566 50.9643 56.9252 50.9449 57.4602 50.9734C57.9952 51.002 58.4014 51.0544 58.6788 51.1306C58.9555 51.1965 59.2605 51.2919 59.594 51.4168C59.9722 51.5805 60.33 51.8187 60.6673 52.1312C61.0367 52.452 61.2813 52.713 61.4012 52.9141C61.5419 53.1139 61.6882 53.4542 61.84 53.9351C61.9814 54.4166 62.0509 54.7775 62.0485 55.0177C62.0452 55.2475 61.9892 55.5381 61.8803 55.8894C61.7627 56.2622 61.6099 56.5851 61.4219 56.858C61.2299 57.0789 61.0504 57.2574 60.8832 57.3933C60.7057 57.5298 60.4054 57.7003 59.9823 57.9046C59.6072 58.0538 59.3029 58.1723 59.0694 58.2602C58.8455 58.3371 58.4093 58.438 57.7607 58.5628C57.1538 58.6849 56.7159 58.765 56.4472 58.803C56.1786 58.841 55.9091 58.8686 55.6388 58.8858C55.3997 58.901 54.9987 58.9162 54.4357 58.9311C53.8727 58.9461 53.5025 58.9541 53.325 58.9549C53.1579 58.9551 53.0015 58.9599 52.856 58.9691C52.7936 58.9731 52.7156 58.9781 52.6221 58.984C52.614 59.1516 52.6056 59.3139 52.5968 59.471C52.5919 59.68 52.6382 60.0789 52.7356 60.6676C52.8323 61.2459 52.9086 61.6272 52.9645 61.8115C53.022 62.0166 53.1059 62.2252 53.2162 62.4373C53.293 62.6203 53.4512 62.9129 53.691 63.3151C53.906 63.6667 54.1091 63.9303 54.3002 64.106C54.5264 64.3317 54.7215 64.4915 54.8854 64.5854C55.0181 64.6813 55.2832 64.8001 55.6806 64.9418C56.0796 65.1042 56.4334 65.2226 56.742 65.2969C57.0499 65.3607 57.4021 65.3905 57.7987 65.3861C58.2282 65.4005 58.52 65.3923 58.6744 65.3616C58.7991 65.3537 59.0378 65.2654 59.3905 65.0968C59.7032 64.9517 59.9087 64.8394 60.0071 64.7601C60.1047 64.6704 60.1907 64.5658 60.2651 64.4462C60.3395 64.3267 60.4431 64.1113 60.5759 63.8002C60.6967 63.469 60.7815 63.2131 60.8304 63.0325C60.8784 62.8416 60.9176 62.6721 60.948 62.5241L60.9913 62.2708C61.0145 62.0293 61.1201 61.8399 61.3081 61.7027C61.5064 61.5648 61.7215 61.5094 61.9534 61.5364C62.1957 61.5627 62.3872 61.6757 62.5279 61.8755C62.6782 62.0642 62.7413 62.2742 62.7173 62.5053L62.6776 62.8053C62.6312 63.017 62.5707 63.2504 62.4963 63.5057C62.4315 63.7498 62.3203 64.07 62.1626 64.4662C62.0066 64.8832 61.8534 65.2009 61.703 65.4192C61.5622 65.6265 61.3995 65.8195 61.2147 65.9982C61.0211 66.1984 60.6676 66.4245 60.1542 66.6763C59.6384 66.8971 59.2413 67.0319 58.963 67.081C58.7048 67.1183 58.3193 67.1324 57.8067 67.1233C57.2734 67.1156 56.7996 67.0675 56.3854 66.979C55.9704 66.8802 55.5314 66.7412 55.0685 66.562C54.5615 66.3542 54.1821 66.1748 53.9303 66.0239C53.7096 65.871 53.4474 65.6528 53.1436 65.3695C52.8174 65.0668 52.51 64.6689 52.2215 64.1758C51.9257 63.725 51.7255 63.362 51.6208 63.0869C51.4969 62.8339 51.3942 62.5847 51.3127 62.3394C51.2288 62.063 51.1297 61.5892 51.0155 60.9181C50.9109 60.2359 50.8631 59.7484 50.8719 59.4556C50.8712 59.1739 50.8809 58.8914 50.9009 58.6084C50.8961 58.5461 50.9018 58.4831 50.9178 58.4194C50.913 58.3571 50.909 58.3052 50.9058 58.2636C50.8715 58.0884 50.8999 57.9144 50.9911 57.7416ZM65.3444 50.5965C65.4636 50.3801 65.6304 50.239 65.8447 50.1732C66.0694 50.1067 66.2861 50.1399 66.4948 50.2727C66.7131 50.3945 66.851 50.5579 66.9085 50.763L67.0344 51.1776C67.1214 51.4956 67.185 51.7786 67.2249 52.0265C67.264 52.2641 67.3299 52.7818 67.4224 53.5795C67.483 54.3688 67.5305 54.9868 67.5648 55.4334C67.5831 55.6723 67.6026 55.9268 67.6233 56.1968C67.657 56.0903 67.6914 55.9942 67.7266 55.9084C68.0187 54.9505 68.3315 54.1948 68.6651 53.6412C69.0298 53.0857 69.313 52.692 69.5146 52.4599C69.7769 52.2032 70.1748 51.943 70.7082 51.6794C71.2225 51.4379 71.6135 51.293 71.8814 51.2446C72.0893 51.2314 72.3024 51.2178 72.5208 51.2039C72.803 51.2068 73.188 51.3232 73.6758 51.553C74.1859 51.8023 74.6224 52.1815 74.9853 52.6907C75.3003 53.1194 75.6304 53.8133 75.9756 54.7724C76.3265 55.6685 76.5718 56.3469 76.7116 56.8077C76.8307 57.2698 77.036 57.9716 77.3277 58.9132C77.5897 59.8776 77.7975 60.6784 77.9508 61.3158C78.0811 61.9232 78.2013 62.5366 78.3115 63.1558C78.4313 63.7639 78.5092 64.166 78.5451 64.362C78.5578 64.5282 78.5826 64.7145 78.6193 64.9209L78.6444 65.248C78.6836 65.4856 78.6263 65.6928 78.4728 65.8695C78.3296 66.0456 78.1389 66.1465 77.9006 66.1721C77.6727 66.1971 77.4588 66.1324 77.2589 65.9782C77.0702 65.8336 76.9567 65.6478 76.9184 65.4206L76.8968 65.1402C76.8601 64.9338 76.835 64.7423 76.8214 64.5657C76.7879 64.4009 76.7272 64.0186 76.6393 63.4188C76.5331 62.8516 76.4153 62.2694 76.2859 61.6723C76.1349 61.0661 75.9248 60.302 75.6555 59.3798C75.3742 58.4375 75.1749 57.7457 75.0574 57.3044C74.9192 56.8645 74.6867 56.2165 74.3598 55.3606C74.0569 54.545 73.7988 53.9718 73.5853 53.6409C73.3991 53.3919 73.1928 53.2224 72.9665 53.1324C72.7698 53.0197 72.6135 52.9566 72.4976 52.9431C72.3936 52.9497 72.2793 52.957 72.1545 52.965C72.0521 52.9924 71.8246 53.0903 71.4719 53.2589C71.1177 53.4067 70.8929 53.5411 70.7977 53.6619C70.6618 53.7958 70.4498 54.0964 70.1618 54.5635C69.8706 54.9891 69.6046 55.6061 69.3637 56.4147C69.1053 57.2661 68.9584 57.8704 68.9231 58.2275C68.8679 58.5963 68.8409 59.1981 68.8423 60.033C68.8245 60.8899 68.8376 61.604 68.8814 62.1753C68.9253 62.7465 68.9492 63.1938 68.9531 63.5171C68.981 63.8806 68.9849 64.2039 68.9649 64.487C68.968 64.5285 68.972 64.5804 68.9768 64.6427C68.9816 64.7051 68.964 64.8158 68.924 64.9749C68.8935 65.1229 68.8395 65.236 68.762 65.314C68.6844 65.392 68.5592 65.4626 68.3865 65.5257C68.2241 65.5883 68.0126 65.5548 67.752 65.4253C67.6224 65.3709 67.5081 65.3103 67.409 65.2436C67.3202 65.1762 67.2579 65.1123 67.2219 65.052C67.1851 64.9813 67.1592 64.9151 67.144 64.8534C67.1288 64.7918 67.1196 64.7402 67.1164 64.6986L67.1116 64.6363C67.0022 64.2989 66.9143 63.9705 66.848 63.6512C66.7817 63.3318 66.6822 62.785 66.5497 62.0107C66.4043 61.2059 66.2902 60.4669 66.2071 59.7938C66.1233 59.1103 66.0479 58.3323 65.981 57.4599C65.9172 56.629 65.8682 55.9903 65.8339 55.5437C65.7996 55.0971 65.7522 54.4791 65.6916 53.6898C65.6118 52.9225 65.5543 52.4461 65.5192 52.2604C65.5064 52.0943 65.4589 51.8833 65.3766 51.6277L65.2831 51.2266C65.2048 51.0228 65.2252 50.8128 65.3444 50.5965ZM90.4992 63.7258C90.3696 63.9428 90.1757 64.0699 89.9174 64.1073L89.4232 64.2014C89.0017 64.2908 88.464 64.2938 87.8099 64.2102C87.1678 64.1467 86.5709 63.9917 86.0192 63.745C85.5106 63.5165 85.0857 63.2879 84.7443 63.0591C84.3797 62.8005 83.9272 62.3493 83.3868 61.7053C82.848 61.0821 82.4642 60.5743 82.2356 60.1818C82.0158 59.7679 81.8129 59.0293 81.6268 57.9662C81.4223 56.9355 81.3333 56.1845 81.3598 55.7132C81.4103 55.282 81.538 54.6999 81.7429 53.9667C81.9574 53.2224 82.1958 52.5863 82.4582 52.0581C82.7302 51.519 82.9954 51.095 83.2537 50.7863C83.5321 50.4659 83.952 50.0843 84.5135 49.6415C85.1165 49.1961 85.8594 48.8722 86.7423 48.6698C87.6044 48.4688 88.2397 48.3761 88.6483 48.3919C89.0377 48.4297 89.6075 48.5708 90.3575 48.8153C91.0875 49.0714 91.628 49.3084 91.979 49.5261C92.3396 49.7327 92.7238 50.0422 93.1315 50.4546C93.5392 50.867 93.8402 51.2496 94.0344 51.6025C94.2511 51.9749 94.4788 52.5605 94.7177 53.3594C94.9447 54.1381 95.0728 54.8553 95.1023 55.511C95.1493 56.1237 95.158 56.645 95.1283 57.0748C95.1194 57.5033 95.0241 58.0991 94.8424 58.8621C94.6623 59.6459 94.4455 60.2912 94.1919 60.7978C93.9087 61.3273 93.5191 61.8322 93.0232 62.3126C92.5273 62.793 92.1238 63.1161 91.8127 63.282C91.5216 63.4363 91.0838 63.5842 90.4992 63.7258ZM86.5365 62.1152C86.782 61.9117 87.0543 61.8526 87.3534 61.9379L87.8511 62.0941C88.1174 62.1606 88.4081 62.2047 88.7231 62.2264C89.0262 62.228 89.4348 62.1759 89.949 62.0701C90.4632 61.9642 90.8003 61.8645 90.9602 61.7708C91.141 61.6758 91.4261 61.4437 91.8156 61.0744C92.1963 60.7267 92.4767 60.3644 92.6567 59.9876C92.8367 59.6109 93.0012 59.0994 93.15 58.4533C93.3077 57.7857 93.395 57.2896 93.4119 56.965C93.4271 56.6196 93.4181 56.161 93.3846 55.5891C93.3439 55.0594 93.2305 54.4665 93.0444 53.8104C92.8694 53.164 92.7104 52.7253 92.5673 52.4944C92.4226 52.2427 92.1976 51.9648 91.8922 51.6607C91.586 51.3462 91.3125 51.1184 91.0719 50.9772C90.8408 50.8249 90.4202 50.6534 89.8101 50.4626C89.22 50.2602 88.7935 50.1464 88.5304 50.1215C88.2897 50.1159 87.8355 50.1866 87.1677 50.3335C86.5416 50.4778 86.0114 50.715 85.5771 51.0454C85.1132 51.3985 84.7949 51.6745 84.6221 51.8733C84.4509 52.093 84.2517 52.424 84.0245 52.8664C83.7965 53.2984 83.5869 53.8336 83.3956 54.472C83.214 55.0993 83.1143 55.5701 83.0966 55.8843C83.0782 56.1882 83.1448 56.7841 83.2965 57.672C83.4675 58.5378 83.6313 59.1066 83.7879 59.3784C83.9358 59.6717 84.2332 60.0754 84.6801 60.5897C85.1278 61.1143 85.4735 61.468 85.7174 61.6508C85.9284 61.8148 86.2015 61.9696 86.5365 62.1152ZM99.4229 49.9442C99.9045 49.0055 100.645 48.3061 101.644 47.8459C102.642 47.3752 103.652 47.2691 104.675 47.5275C105.409 47.7 106.18 47.8856 106.99 48.0846C107.394 48.4554 107.938 49.0104 108.622 49.7497C109.316 50.4882 109.815 51.0044 110.119 51.2981C110.193 51.8465 110.311 53.1854 110.475 55.3145C110.649 57.443 110.873 59.0725 111.148 60.2031C112.051 60.5421 112.729 60.7964 113.181 60.9659C112.079 61.5892 111.514 61.9071 111.483 61.9194C111.594 63.0918 111.689 64.3225 111.767 65.6117C111.703 66.002 111.639 66.3347 111.577 66.6101C111.515 66.8958 111.436 67.2244 111.339 67.5959C111.243 67.9777 111.127 68.3034 110.991 68.573C110.856 68.853 110.695 69.1346 110.508 69.4179C110.321 69.7116 110.095 69.966 109.83 70.1812C109.575 70.4062 109.287 70.5967 108.965 70.7529C108.101 71.0689 107.217 71.2557 106.313 71.3133C105.419 71.3806 104.525 71.3019 103.631 71.0771C102.746 70.8516 101.929 70.4758 101.178 69.9496C100.586 69.0479 100.011 68.0148 99.4514 66.8502C99.461 66.8391 99.4966 66.7586 99.5582 66.6086C99.6206 66.4689 99.6558 66.3832 99.6638 66.3513C99.683 66.3293 99.719 66.2539 99.7718 66.1253C99.835 65.996 99.8806 65.9096 99.9086 65.8661C99.9374 65.8329 99.979 65.7625 100.033 65.6546C100.098 65.5461 100.15 65.4698 100.188 65.4256C100.237 65.3807 100.295 65.3196 100.362 65.2423C100.44 65.1643 100.508 65.1025 100.567 65.057C100.627 65.0219 100.697 64.9757 100.776 64.9185C100.866 64.871 100.958 64.8339 101.05 64.8071C102.464 64.1847 105.321 63.0269 109.621 61.3336C109.425 60.0101 109.297 59.1573 109.236 58.775C106.866 61.3786 104.589 62.3377 102.406 61.6523C101.911 61.6107 101.442 61.4789 100.996 61.2568C100.561 61.0236 100.166 60.7147 99.8127 60.3302C99.4697 59.945 99.1744 59.5672 98.9265 59.1969C98.6779 58.8161 98.4254 58.3834 98.1688 57.8988C97.4368 55.7119 97.8548 53.0604 99.4229 49.9442ZM102.129 49.4744C101.83 49.6605 101.555 49.8919 101.305 50.1688C101.064 50.4346 100.853 50.7455 100.671 51.1015C100.489 51.4471 100.341 51.7644 100.227 52.0534C100.113 52.3321 99.9828 52.6796 99.8371 53.0959C99.6387 53.7765 99.5114 54.4317 99.4553 55.0615C99.3983 55.6809 99.4638 56.329 99.6515 57.0059C99.8385 57.6724 100.174 58.2355 100.659 58.6951C100.938 59.0635 101.274 59.3604 101.667 59.5859C102.071 59.8106 102.49 59.9614 102.924 60.0381C103.358 60.1148 103.799 60.1337 104.245 60.0949C104.701 60.0449 105.142 59.9438 105.569 59.7913C106.35 59.3554 107.009 58.7498 107.545 57.9747C108.091 57.1885 108.423 56.348 108.542 55.4533C108.672 54.5579 108.536 53.669 108.134 52.7866C108.109 52.7359 107.877 52.088 107.436 50.8428C106.769 50.1756 106.079 49.6298 105.368 49.2055C105.18 49.2174 104.842 49.2285 104.352 49.2389C103.871 49.2382 103.46 49.254 103.117 49.2862C102.775 49.3184 102.446 49.3812 102.129 49.4744ZM101.541 66.7171C101.513 67.032 101.556 67.3267 101.671 67.6011C101.787 67.886 101.931 68.1221 102.102 68.3095C102.284 68.5066 102.523 68.6949 102.819 68.8744C103.116 69.0642 103.377 69.2093 103.605 69.3097C103.832 69.41 104.102 69.5233 104.414 69.6495C105 69.6643 105.852 69.6727 106.97 69.6745C107.668 69.3692 108.253 69.0292 108.725 68.6547C109.208 68.2795 109.569 67.8078 109.808 67.2394C109.83 66.9875 109.841 66.7207 109.84 66.4389C109.851 66.1669 109.858 65.9264 109.863 65.7173C109.868 65.5083 109.863 65.2372 109.848 64.9042C109.833 64.5816 109.82 64.3372 109.807 64.171C109.805 64.0145 109.795 63.7438 109.776 63.3589C109.758 62.9843 109.744 62.7399 109.735 62.6257C109.083 62.9699 108.2 63.3706 107.086 63.8277C105.971 64.2849 104.941 64.7419 103.994 65.1988C103.058 65.6551 102.24 66.1612 101.541 66.7171ZM126.473 56.9412C126.355 56.7609 126.232 56.586 126.104 56.4168C125.94 56.1872 125.755 55.9537 125.548 55.7163C125.364 55.488 124.939 55.1289 124.275 54.639C123.686 54.1859 123.301 53.9339 123.12 53.8828C122.97 53.8298 122.693 53.8369 122.291 53.9043C121.847 53.9743 121.459 54.0929 121.128 54.2602C120.754 54.4301 120.469 54.5944 120.272 54.753C120.085 54.9006 119.914 55.0576 119.76 55.224C119.622 55.3371 119.438 55.5941 119.208 55.995C118.957 56.3971 118.806 56.6833 118.757 56.8535C118.709 57.0444 118.665 57.2924 118.626 57.5976C118.607 57.9014 118.615 58.1358 118.649 58.3006C118.661 58.4668 118.745 58.7433 118.9 59.13C119.053 59.4856 119.203 59.7421 119.351 59.8997C119.533 60.0968 119.706 60.232 119.868 60.3051C120.021 60.3997 120.185 60.4936 120.36 60.5869C120.544 60.6691 120.833 60.7603 121.227 60.8604C121.578 60.9424 121.878 60.9807 122.129 60.9752C122.409 60.9573 122.641 60.9061 122.822 60.8214C123.027 60.7666 123.234 60.6804 123.445 60.5626C123.665 60.4442 123.89 60.3046 124.118 60.144C124.295 60.0075 124.624 59.663 125.104 59.1106C125.552 58.5497 125.822 58.1933 125.915 58.0413C126.006 57.8685 126.087 57.7015 126.159 57.5405C126.262 57.3878 126.367 57.188 126.473 56.9412ZM128.036 57.7027C127.909 57.9508 127.809 58.1503 127.737 58.301C127.667 58.4724 127.562 58.6722 127.423 58.9002C127.295 59.1484 126.964 59.5974 126.429 60.2473C125.884 60.8978 125.457 61.332 125.15 61.5498C124.863 61.756 124.569 61.9365 124.267 62.0914C123.977 62.256 123.689 62.3891 123.405 62.4908C123.089 62.5944 122.718 62.6598 122.292 62.6869C121.846 62.7362 121.351 62.6842 120.807 62.531C120.307 62.4167 119.927 62.2948 119.666 62.1653C119.417 62.0455 119.165 61.905 118.913 61.7436C118.661 61.5927 118.398 61.3642 118.124 61.0581C117.796 60.7346 117.528 60.3029 117.319 59.763C117.112 59.2439 116.981 58.8244 116.925 58.5044C116.881 58.2045 116.879 57.8445 116.92 57.4244C116.972 57.0141 117.039 56.655 117.12 56.3472C117.2 56.0394 117.393 55.6201 117.697 55.0893C118.002 54.5793 118.282 54.2014 118.534 53.9557C118.759 53.7535 119 53.5608 119.258 53.3774C119.525 53.1829 119.874 52.9624 120.304 52.7158C120.797 52.4757 121.363 52.2987 122.002 52.1849C122.653 52.0809 123.186 52.0939 123.604 52.2238C123.977 52.3253 124.574 52.6891 125.395 53.3152C125.24 52.918 125.116 52.5972 125.024 52.3525C124.871 51.997 124.654 51.5516 124.373 51.0163C124.072 50.5032 123.817 50.102 123.607 49.8127C123.396 49.5234 123.164 49.2826 122.909 49.0901C122.707 48.915 122.331 48.7042 121.779 48.4575C121.227 48.2109 120.756 48.0583 120.365 47.9997C119.934 47.9645 119.588 47.9448 119.326 47.9406C119.066 47.9572 118.812 47.9838 118.565 48.0204C118.358 48.0544 117.983 48.2036 117.439 48.4678C117.047 48.6598 116.792 48.8169 116.676 48.9391L116.508 49.2003C116.398 49.3952 116.225 49.5262 115.99 49.5934C115.765 49.6495 115.543 49.6167 115.324 49.4949C115.116 49.3621 114.977 49.1831 114.907 48.9579C114.847 48.7217 114.888 48.5051 115.03 48.3082L115.195 48.0159C115.408 47.6579 115.892 47.2931 116.647 46.9215C117.351 46.5739 117.894 46.3671 118.276 46.3011C118.596 46.2598 118.923 46.2285 119.256 46.2073C119.6 46.2063 120.041 46.2304 120.578 46.2797C121.137 46.3485 121.768 46.5431 122.471 46.8635C123.175 47.184 123.695 47.4953 124.032 47.7974C124.356 48.0794 124.674 48.4036 124.984 48.77C125.273 49.1377 125.577 49.6194 125.894 50.215C126.222 50.8099 126.464 51.3162 126.622 51.7341C126.778 52.1312 126.988 52.6971 127.253 53.4316C127.519 54.1662 127.709 54.6759 127.825 54.9607C127.952 55.2553 128.071 55.5713 128.18 55.9088C128.299 56.2352 128.385 56.4646 128.437 56.5969L128.439 56.6281C128.556 56.7876 128.542 57.0233 128.399 57.3351L128.036 57.7027ZM138.409 44.6428L138.926 44.8447C141.16 45.6418 142.414 47.8215 142.688 51.3839C142.896 54.0947 142.267 56.5144 140.8 58.643C139.53 60.7382 138.094 61.8368 136.493 61.9388C134.986 62.0348 133.729 61.4417 132.722 60.1595C131.69 58.8371 131.071 56.8205 130.863 54.1097C130.607 50.7758 130.909 47.3698 131.77 43.8916C132.633 40.5699 133.745 38.036 135.104 36.2899C136.405 34.5893 137.799 33.6917 139.285 33.597C140.221 33.5374 140.992 33.7909 141.6 34.3576C142.209 34.945 142.557 35.7995 142.643 36.9212C142.712 37.8248 142.396 38.9409 141.693 40.2693C140.962 41.631 139.992 42.94 138.783 44.1964L138.409 44.6428ZM132.673 48.7029L133.48 47.994C136.828 44.6601 138.897 42.2844 139.686 40.8668C140.578 39.4115 140.991 38.2632 140.926 37.422C140.874 36.7365 140.671 36.2067 140.319 35.8325C139.966 35.4584 139.488 35.2905 138.885 35.3289C137.565 35.413 136.349 36.5759 135.236 38.8177C134.159 40.9841 133.356 43.9263 132.826 47.6442L132.673 48.7029ZM140.635 52L140.633 51.9688C140.501 50.2551 140.103 48.8819 139.439 47.8492C138.78 46.7536 138.087 46.2289 137.359 46.2753C137.297 46.2792 137.236 46.2936 137.175 46.3183C137.114 46.3431 137.044 46.3841 136.965 46.4413C136.885 46.4881 136.805 46.5402 136.726 46.5974C136.657 46.654 136.565 46.7382 136.448 46.85C136.33 46.9514 136.223 47.047 136.125 47.1367C136.028 47.2368 135.897 47.3703 135.733 47.5374C135.578 47.7038 135.444 47.8533 135.328 47.9858C135.212 48.108 135.048 48.2803 134.835 48.5026C134.633 48.7242 134.454 48.913 134.299 49.069C133.802 49.539 133.314 49.9772 132.833 50.3835L132.715 50.4849L132.697 50.6583C132.606 51.6452 132.605 52.7202 132.694 53.8835C132.854 55.9711 133.277 57.5358 133.963 58.5775C134.696 59.6893 135.567 60.2131 136.575 60.1489C137.927 60.0628 138.97 59.1562 139.704 57.4291C140.474 55.7519 140.784 53.9422 140.635 52ZM157.535 54.9625C157.417 54.7822 157.294 54.6074 157.166 54.4381C157.002 54.2085 156.817 53.975 156.611 53.7377C156.426 53.5094 156.001 53.1503 155.337 52.6603C154.748 52.2073 154.364 51.9552 154.182 51.9042C154.032 51.8511 153.755 51.8583 153.353 51.9256C152.909 51.9957 152.521 52.1143 152.19 52.2816C151.816 52.4515 151.531 52.6157 151.334 52.7744C151.147 52.922 150.976 53.079 150.822 53.2454C150.684 53.3585 150.5 53.6155 150.27 54.0163C150.019 54.4185 149.868 54.7047 149.819 54.8748C149.771 55.0657 149.727 55.3138 149.688 55.619C149.669 55.9228 149.677 56.1571 149.711 56.322C149.723 56.4882 149.807 56.7646 149.962 57.1514C150.115 57.5069 150.265 57.7635 150.413 57.9211C150.595 58.1182 150.768 58.2533 150.93 58.3265C151.083 58.4211 151.247 58.515 151.422 58.6083C151.606 58.6905 151.895 58.7817 152.289 58.8818C152.64 58.9638 152.941 59.0021 153.191 58.9965C153.471 58.9787 153.703 58.9274 153.884 58.8428C154.089 58.788 154.296 58.7017 154.507 58.584C154.727 58.4655 154.952 58.326 155.18 58.1654C155.357 58.0288 155.686 57.6843 156.166 57.1319C156.614 56.5711 156.884 56.2147 156.977 56.0626C157.068 55.8898 157.149 55.7229 157.221 55.5618C157.324 55.4091 157.429 55.2094 157.535 54.9625ZM159.098 55.724C158.971 55.9722 158.871 56.1716 158.799 56.3223C158.729 56.4938 158.624 56.6936 158.485 56.9216C158.357 57.1697 158.026 57.6188 157.491 58.2686C156.946 58.9191 156.519 59.3533 156.212 59.5712C155.925 59.7774 155.631 59.9579 155.329 60.1128C155.039 60.2774 154.751 60.4105 154.467 60.5121C154.151 60.6157 153.78 60.6811 153.354 60.7083C152.908 60.7575 152.413 60.7056 151.869 60.5524C151.369 60.4381 150.989 60.3162 150.728 60.1867C150.479 60.0669 150.227 59.9263 149.975 59.765C149.723 59.614 149.46 59.3855 149.186 59.0795C148.858 58.7559 148.59 58.3242 148.381 57.7844C148.174 57.2653 148.043 56.8457 147.987 56.5257C147.943 56.2259 147.941 55.8659 147.982 55.4458C148.034 55.0354 148.101 54.6764 148.182 54.3685C148.263 54.0607 148.455 53.6414 148.759 53.1107C149.064 52.6007 149.344 52.2228 149.596 51.9771C149.821 51.7749 150.062 51.5821 150.32 51.3987C150.587 51.2043 150.936 50.9838 151.366 50.7372C151.859 50.497 152.426 50.32 153.064 50.2063C153.715 50.1023 154.248 50.1152 154.666 50.2452C155.039 50.3466 155.636 50.7104 156.458 51.3365C156.302 50.9394 156.178 50.6185 156.086 50.3739C155.933 50.0183 155.716 49.5729 155.435 49.0377C155.134 48.5246 154.879 48.1234 154.669 47.8341C154.458 47.5448 154.226 47.3039 153.971 47.1114C153.769 46.9364 153.393 46.7255 152.841 46.4789C152.289 46.2322 151.818 46.0796 151.427 46.021C150.996 45.9859 150.65 45.9662 150.388 45.962C150.128 45.9785 149.874 46.0051 149.627 46.0418C149.42 46.0758 149.045 46.2249 148.501 46.4892C148.109 46.6812 147.854 46.8383 147.738 46.9605L147.57 47.2217C147.46 47.4166 147.287 47.5476 147.052 47.6148C146.827 47.6709 146.605 47.638 146.386 47.5163C146.178 47.3834 146.039 47.2044 145.969 46.9793C145.909 46.743 145.95 46.5265 146.092 46.3296L146.257 46.0372C146.47 45.6793 146.954 45.3145 147.709 44.9428C148.413 44.5953 148.956 44.3885 149.338 44.3224C149.659 44.2811 149.985 44.2499 150.318 44.2287C150.663 44.2276 151.103 44.2517 151.64 44.3011C152.199 44.3698 152.83 44.5644 153.534 44.8849C154.237 45.2054 154.757 45.5167 155.094 45.8188C155.418 46.1008 155.736 46.425 156.046 46.7914C156.335 47.1591 156.639 47.6407 156.956 48.2363C157.284 48.8312 157.526 49.3376 157.684 49.7555C157.84 50.1526 158.05 50.7184 158.316 51.453C158.581 52.1875 158.771 52.6973 158.887 52.9821C159.014 53.2767 159.133 53.5927 159.242 53.9301C159.361 54.2565 159.447 54.4859 159.499 54.6183L159.501 54.6494C159.618 54.809 159.605 55.0447 159.461 55.3565L159.098 55.724ZM173.101 48.9143C173.232 48.8538 173.332 48.79 173.4 48.7231C173.468 48.6561 173.519 48.5798 173.554 48.4941C173.598 48.3765 173.633 48.2229 173.66 48.0333C173.686 47.8333 173.708 47.5084 173.726 47.0585C173.753 46.5975 173.77 46.2051 173.777 45.8811C173.782 45.5468 173.795 44.9563 173.813 44.1097C173.85 42.4166 174.264 41.5448 175.054 41.4945C175.387 41.4733 175.62 41.5211 175.755 41.6378C175.889 41.7544 175.969 41.979 175.994 42.3113C176.007 42.4775 175.968 42.8505 175.876 43.4304C175.336 47.0029 175.157 49.9836 175.341 52.3724C175.546 55.052 176.123 56.7843 177.071 57.5693C177.205 57.6756 177.313 57.7835 177.394 57.8932C177.485 57.9917 177.543 58.0663 177.568 58.1169C177.603 58.1669 177.621 58.197 177.622 58.2074C177.634 58.3632 177.501 58.5335 177.222 58.7182C176.875 58.9595 176.567 59.0887 176.296 59.1059C175.683 59.145 175.142 58.5689 174.675 57.3775C174.207 56.1862 173.876 54.3182 173.681 51.7736C173.654 51.4205 173.535 51.1671 173.325 51.0135C173.192 50.9176 173.048 50.8746 172.892 50.8846C172.008 50.9409 170.937 51.0717 169.678 51.2771C168.398 51.4735 167.485 51.6882 166.938 51.9213C166.279 52.1721 165.863 52.4073 165.692 52.6269C165.522 52.857 165.404 53.3602 165.338 54.1367C165.277 54.8399 165.276 55.5706 165.334 56.3288L165.488 58.3385C165.525 58.8266 165.463 59.175 165.302 59.3836C165.141 59.6026 164.858 59.725 164.453 59.7508C164.141 59.7707 163.904 59.6866 163.744 59.4985C163.594 59.3201 163.5 58.9765 163.461 58.4676C163.403 57.7198 163.424 56.7635 163.523 55.5987C163.698 53.3958 163.754 49.6297 163.69 44.3006C163.684 43.6852 163.702 43.3083 163.744 43.17C163.777 43.0531 163.911 42.9036 164.148 42.7215C164.374 42.5401 164.628 42.4404 164.909 42.4226C165.21 42.4034 165.411 42.4323 165.511 42.5095C165.61 42.5762 165.667 42.7082 165.682 42.9056C165.684 43.062 165.622 43.8278 165.498 45.203C165.372 46.8287 165.344 48.0882 165.412 48.9814C165.442 49.3657 165.55 49.6824 165.736 49.9314C165.922 50.1805 166.176 50.2947 166.499 50.2742C167.226 50.2279 168.525 49.999 170.395 49.5877C170.591 49.5543 170.827 49.5079 171.105 49.4485C171.393 49.3884 171.609 49.3434 171.753 49.3133C171.907 49.2826 172.087 49.2451 172.292 49.2007C172.497 49.1459 172.65 49.0996 172.752 49.0618C172.863 49.013 172.979 48.9638 173.101 48.9143ZM190.602 49.0989L189.934 50.5974C188.947 52.9773 187.898 54.834 186.789 56.1675C185.708 57.4679 184.643 58.1516 183.593 58.2184C183.021 58.2549 182.389 57.9194 181.698 57.212C180.994 56.4844 180.58 55.3002 180.454 53.6592C180.347 52.2674 180.51 50.1749 180.943 47.3815C181.309 45.0725 181.465 43.424 181.41 42.436C181.606 41.9956 181.933 41.7608 182.39 41.7317C182.702 41.7118 182.96 41.805 183.164 42.0112C183.379 42.2271 183.495 42.4545 183.514 42.6934C183.565 43.3685 183.397 44.3707 183.008 45.7001C182.225 48.4219 181.906 50.7383 182.053 52.6493C182.204 54.6123 182.804 55.5603 183.854 55.4934C184.893 55.4272 186.072 54.4494 187.389 52.5599C188.668 50.7146 189.718 48.2002 190.54 45.0168C190.865 43.8063 191.144 43.0214 191.377 42.6621C191.555 42.3899 191.81 42.2432 192.143 42.222C192.382 42.2068 192.559 42.2685 192.674 42.4073C192.788 42.5357 192.861 42.7973 192.891 43.1919C192.89 43.3172 192.825 43.6867 192.694 44.3003C192.247 46.7815 192.107 49.1074 192.274 51.2781C192.48 53.9681 193.057 55.7004 194.005 56.475C194.139 56.5917 194.247 56.7048 194.328 56.8144C194.42 56.913 194.478 56.9876 194.502 57.0382C194.538 57.0881 194.556 57.1183 194.556 57.1287C194.567 57.2741 194.434 57.4444 194.157 57.6395C193.81 57.8807 193.501 58.01 193.231 58.0272C192.68 58.0623 192.175 57.6092 191.716 56.6677C191.207 55.6147 190.869 54.0081 190.704 51.8478L190.662 51.3025C190.649 51.1363 190.641 50.9646 190.638 50.7874L190.602 49.0989ZM200.571 40.558C201.023 40.3308 201.479 40.1452 201.938 40.0012C202.397 39.8571 202.881 39.7585 203.388 39.7053C203.906 39.641 204.4 39.6878 204.872 39.8456C205.354 39.9924 205.766 40.2583 206.109 40.6435C206.253 40.6239 206.544 40.595 206.979 40.5568C207.415 40.5186 207.706 40.4948 207.852 40.4855C208.731 45.5436 209.235 50.4847 209.365 55.3087C209.253 55.3367 209.023 55.4035 208.676 55.5091C208.338 55.6037 208.114 55.6702 208.002 55.7086C207.913 54.8271 207.834 54.1329 207.763 53.626C207.703 53.1184 207.603 52.4934 207.463 51.7509C207.332 50.9973 207.185 50.3126 207.023 49.6967C206.224 50.5826 205.584 51.2965 205.103 51.8385C204.633 52.3799 204.069 53.0577 203.41 53.872C202.762 54.6752 202.188 55.4319 201.689 56.1421C201.609 56.3246 201.499 56.4672 201.361 56.57C201.232 56.6617 201.079 56.708 200.902 56.7088C200.724 56.7097 200.561 56.6992 200.413 56.6773C200.266 56.6554 200.085 56.62 199.873 56.5709C199.659 56.5114 199.5 56.4746 199.394 56.4605C199.433 56.4267 199.522 56.3636 199.661 56.2712C199.801 56.1789 199.89 56.1158 199.929 56.082C200.132 55.5994 200.418 55.1011 200.786 54.5871C201.154 54.0731 201.511 53.6277 201.858 53.2507C202.206 52.8737 202.584 52.4321 202.995 51.9259C203.405 51.4196 203.735 50.9499 203.983 50.5165C203.412 50.553 202.841 50.5319 202.27 50.4534C201.7 50.3646 201.14 50.2176 200.591 50.0125C200.053 49.8067 199.57 49.5035 199.143 49.1028C198.715 48.7021 198.402 48.2315 198.204 47.691C197.546 46.4701 197.524 45.0259 198.138 43.3587C198.828 42.1458 199.639 41.2122 200.571 40.558ZM201.576 42.0125C201.268 42.22 200.959 42.4223 200.651 42.6194C199.292 44.2402 198.945 45.6451 199.611 46.8343C199.951 47.5953 200.533 48.1584 201.355 48.5236C202.176 48.8887 202.987 48.9727 203.787 48.7757C205.034 48.2788 206.051 47.5095 206.838 46.4678C206.835 46.4263 206.836 46.3114 206.843 46.1231C206.859 45.9342 206.866 45.8137 206.862 45.7618C206.868 45.6988 206.874 45.5784 206.881 45.4005C206.888 45.2226 206.889 45.0973 206.884 45.0246C206.878 44.9519 206.875 44.8373 206.873 44.6809C206.871 44.5141 206.861 44.3894 206.844 44.307C206.837 44.2135 206.823 44.0996 206.802 43.9652C206.781 43.8205 206.756 43.7021 206.728 43.6099C206.699 43.5074 206.66 43.4003 206.609 43.2887C206.569 43.1661 206.523 43.0489 206.473 42.9373C206.216 42.7241 205.834 42.4353 205.325 42.0711C204.826 41.6959 204.477 41.4311 204.277 41.2768C203.694 41.3035 203.187 41.3671 202.756 41.4677C202.325 41.5682 201.931 41.7498 201.576 42.0125ZM81.7764 75.2245C81.6821 75.0844 81.5985 74.9488 81.5258 74.8178C81.3363 74.5272 80.9306 74.1408 80.3086 73.6585C79.7409 73.2042 79.3608 72.9466 79.1681 72.8858C78.9762 72.8354 78.6619 72.8241 78.2253 72.8519C77.8199 72.8778 77.5172 72.9492 77.3172 73.0663C77.0669 73.2075 76.8846 73.3496 76.7702 73.4926C76.6742 73.603 76.5622 73.845 76.4342 74.2184C76.3149 74.5705 76.2657 74.8815 76.2864 75.1515C76.3127 75.4943 76.3654 75.7727 76.4445 75.9868C76.5021 76.1919 76.6667 76.4998 76.9385 76.9104C77.2103 77.321 77.58 77.7149 78.0478 78.0921C78.5051 78.47 78.9092 78.7 79.2603 78.782C79.6321 78.8627 79.9775 78.872 80.2966 78.8099C80.6173 78.7686 80.9248 78.6238 81.2191 78.3754C81.5254 78.1472 81.7158 77.9733 81.7902 77.8537C81.843 77.7251 81.8938 77.4349 81.9427 76.983C81.9916 76.5311 82.016 76.2373 82.0161 76.1016C81.9873 75.9991 81.9526 75.8865 81.9118 75.7638L81.8267 75.4718C81.7787 75.3913 81.762 75.3089 81.7764 75.2245ZM82.927 79.1903C82.7526 79.3684 82.5423 79.554 82.2959 79.7471C81.7744 80.1665 81.2146 80.4266 80.6165 80.5273C80.0495 80.626 79.4678 80.6005 78.8713 80.4506C78.2644 80.3014 77.6327 79.9659 76.9763 79.4441C76.3639 78.9508 75.8734 78.4133 75.5049 77.8314C75.1388 77.2807 74.9066 76.8415 74.8083 76.5138C74.7093 76.1757 74.6314 75.7736 74.5747 75.3075C74.5149 74.7999 74.5866 74.237 74.7898 73.6187C75.0074 73.0517 75.231 72.6304 75.4606 72.3549C75.6798 72.08 76.0049 71.8244 76.436 71.5882C76.8646 71.3209 77.4172 71.1709 78.0937 71.1382C78.7055 71.0784 79.2144 71.1086 79.6206 71.2288C80.0148 71.329 80.6065 71.6879 81.3956 72.3056C82.1527 72.9149 82.6732 73.4349 82.957 73.8656C83.2288 74.2762 83.4658 74.7099 83.668 75.1666C83.7966 75.482 83.9513 75.9314 84.1319 76.5148C84.1918 76.751 84.2529 77.0028 84.3152 77.2702C84.5565 78.2359 84.6918 79.1144 84.7212 79.9057C84.7506 80.6971 84.6773 81.5784 84.5011 82.5499C84.3146 83.5219 84.1441 84.2268 83.9896 84.6646C83.8384 85.1439 83.5132 85.8065 83.014 86.6524C82.5252 87.4976 82.1505 88.0589 81.8897 88.3365C81.629 88.614 81.2671 88.9345 80.804 89.298C80.3209 89.6732 79.9022 89.9347 79.5479 90.0825C79.1729 90.2316 78.7618 90.3204 78.3148 90.3489L77.7847 90.3827C77.5456 90.3979 77.3313 90.3281 77.1418 90.1731C76.9627 90.0176 76.8644 89.8255 76.8468 89.597C76.8285 89.3581 76.8961 89.1503 77.0497 88.9735C77.2129 88.7857 77.414 88.6842 77.6531 88.669L78.1521 88.6372C78.4328 88.6193 78.6643 88.5732 78.8466 88.499C79.0793 88.4007 79.3781 88.2094 79.7428 87.9253C80.1267 87.619 80.405 87.3665 80.5778 87.1676C80.7505 86.9687 81.0593 86.5003 81.5041 85.7622C81.9593 85.0235 82.2465 84.4782 82.3657 84.1262C82.4833 83.7534 82.6182 83.129 82.7703 82.2531C82.9441 81.3862 83.015 80.6093 82.9832 79.9225C82.9864 79.6927 82.9677 79.4486 82.927 79.1903ZM110.571 75.1437C110.185 75.1474 109.876 75.5532 109.646 76.3611C108.046 80.9614 106.807 84.0878 105.931 85.7405C105.838 85.8821 105.723 86.0877 105.587 86.3573C105.239 87.1309 104.893 87.7948 104.549 88.349C104.217 88.9233 103.955 89.3262 103.764 89.5575C103.577 89.8408 103.437 89.9854 103.343 89.9914C103.031 90.0112 102.811 89.9313 102.682 89.7517C102.545 89.5934 102.46 89.3014 102.427 88.8756C102.385 88.3251 102.797 87.5005 103.663 86.4016C104.565 85.0813 105.655 82.8827 106.933 79.8059C108.176 76.9505 109.166 74.393 109.901 72.1336C109.976 71.7427 110.106 71.5413 110.294 71.5293C110.397 71.5227 110.621 71.5763 110.964 71.6901C111.257 71.8281 111.439 71.9625 111.512 72.0936C111.635 72.3362 111.928 73.2986 112.392 74.9808C113.236 78.225 114.07 80.7863 114.893 82.6647C115.726 84.6678 116.559 85.9924 117.392 86.6386C117.7 86.8381 117.882 86.9674 117.939 87.0264C117.96 87.0251 117.97 87.0192 117.969 87.0089C117.994 87.3308 117.938 87.6318 117.803 87.9118C117.668 88.1917 117.535 88.3672 117.405 88.4381C117.265 88.5201 116.925 88.5783 116.384 88.6127C116.143 88.4611 115.681 87.9531 114.998 87.0885C114.167 86.0664 113.08 83.1299 111.736 78.2788C111.394 76.9543 111.122 76.0636 110.92 75.6068L110.79 75.1454L110.571 75.1437ZM122.342 78.8557C122.487 78.8464 122.634 78.8475 122.781 78.859C122.947 78.8484 123.297 78.8418 123.829 78.8392C124.371 78.8256 124.762 78.8111 125.001 78.7959C125.24 78.7806 125.468 78.7557 125.685 78.721C125.901 78.6759 126.307 78.5927 126.903 78.4712C127.491 78.3711 127.867 78.295 128.03 78.2429C128.203 78.1901 128.441 78.0914 128.744 77.9469C129.016 77.8252 129.192 77.7357 129.271 77.6785C129.329 77.6122 129.41 77.5131 129.515 77.3812C129.592 77.2928 129.655 77.1687 129.706 77.0089C129.754 76.818 129.785 76.6803 129.799 76.5959C129.793 76.5128 129.747 76.3227 129.662 76.0255C129.576 75.7282 129.509 75.5394 129.461 75.459C129.393 75.3798 129.252 75.2479 129.039 75.0632C128.836 74.8673 128.633 74.7342 128.429 74.6637C128.18 74.5543 127.966 74.4792 127.785 74.4386C127.603 74.3875 127.298 74.3548 126.868 74.3404C126.458 74.3039 126.12 74.315 125.852 74.3738C125.594 74.4111 125.294 74.5137 124.952 74.6817C124.609 74.8392 124.367 74.9641 124.228 75.0565C124.091 75.1696 123.897 75.375 123.649 75.6727C123.399 75.9599 123.168 76.3452 122.954 76.8285C122.711 77.3345 122.566 77.6985 122.521 77.9206C122.471 78.0908 122.411 78.4025 122.342 78.8557ZM120.485 79.3653C120.514 79.1965 120.541 79.0121 120.568 78.8121C120.665 78.1693 120.76 77.704 120.852 77.4163C120.935 77.1293 121.115 76.6899 121.394 76.0981C121.691 75.4843 122.002 74.9739 122.326 74.5671C122.641 74.1818 122.912 73.8984 123.138 73.717C123.384 73.5135 123.739 73.3082 124.203 73.1012C124.678 72.8831 125.126 72.7345 125.548 72.6554C125.95 72.5881 126.419 72.5687 126.954 72.5972C127.489 72.6257 127.895 72.6781 128.173 72.7544C128.449 72.8203 128.754 72.9156 129.088 73.0405C129.466 73.2043 129.824 73.4424 130.161 73.7549C130.53 74.0758 130.775 74.3368 130.895 74.5379C131.036 74.7377 131.182 75.078 131.334 75.5589C131.475 76.0404 131.545 76.4013 131.542 76.6415C131.539 76.8713 131.483 77.1619 131.374 77.5132C131.256 77.886 131.104 78.2088 130.916 78.4817C130.724 78.7027 130.544 78.8811 130.377 79.017C130.199 79.1536 129.899 79.324 129.476 79.5284C129.101 79.6775 128.797 79.7961 128.563 79.884C128.339 79.9609 127.903 80.0617 127.255 80.1866C126.648 80.3087 126.21 80.3888 125.941 80.4268C125.672 80.4648 125.403 80.4924 125.133 80.5096C124.893 80.5248 124.492 80.5399 123.929 80.5549C123.367 80.5699 122.996 80.5778 122.819 80.5787C122.652 80.5789 122.495 80.5836 122.35 80.5929C122.287 80.5969 122.209 80.6019 122.116 80.6078C122.108 80.7753 122.099 80.9376 122.091 81.0947C122.086 81.3038 122.132 81.7027 122.229 82.2914C122.326 82.8697 122.402 83.251 122.458 83.4353C122.516 83.6404 122.6 83.849 122.71 84.0611C122.787 84.2441 122.945 84.5367 123.185 84.9389C123.4 85.2905 123.603 85.5541 123.794 85.7298C124.02 85.9554 124.215 86.1152 124.379 86.2092C124.512 86.3051 124.777 86.4239 125.174 86.5655C125.573 86.728 125.927 86.8464 126.236 86.9206C126.544 86.9845 126.896 87.0143 127.293 87.0099C127.722 87.0243 128.014 87.0161 128.168 86.9854C128.293 86.9774 128.532 86.8892 128.884 86.7206C129.197 86.5754 129.403 86.4632 129.501 86.3839C129.598 86.2942 129.684 86.1895 129.759 86.07C129.833 85.9504 129.937 85.7351 130.07 85.424C130.191 85.0927 130.275 84.8368 130.324 84.6563C130.372 84.4654 130.411 84.2959 130.442 84.1478L130.485 83.8946C130.508 83.6531 130.614 83.4637 130.802 83.3265C131 83.1886 131.215 83.1332 131.447 83.1601C131.689 83.1865 131.881 83.2995 132.022 83.4993C132.172 83.688 132.235 83.8979 132.211 84.1291L132.171 84.4291C132.125 84.6408 132.065 84.8742 131.99 85.1294C131.925 85.3736 131.814 85.6938 131.656 86.09C131.5 86.507 131.347 86.8246 131.197 87.043C131.056 87.2502 130.893 87.4432 130.708 87.622C130.515 87.8222 130.161 88.0482 129.648 88.3001C129.132 88.5208 128.735 88.6557 128.457 88.7048C128.199 88.7421 127.813 88.7562 127.301 88.7471C126.767 88.7393 126.293 88.6912 125.879 88.6028C125.464 88.504 125.025 88.365 124.562 88.1857C124.055 87.978 123.676 87.7986 123.424 87.6477C123.203 87.4947 122.941 87.2766 122.637 86.9933C122.311 86.6905 122.004 86.2926 121.715 85.7996C121.419 85.3488 121.219 84.9858 121.115 84.7107C120.991 84.4576 120.888 84.2085 120.806 83.9632C120.723 83.6867 120.624 83.213 120.509 82.5418C120.405 81.8597 120.357 81.3722 120.366 81.0794C120.365 80.7976 120.375 80.5152 120.395 80.2321C120.39 80.1698 120.396 80.1068 120.412 80.0432C120.407 79.9809 120.403 79.929 120.4 79.8874C120.365 79.7122 120.394 79.5381 120.485 79.3653ZM134.807 72.2222C134.905 72.0072 135.061 71.8616 135.275 71.7854C135.499 71.7085 135.719 71.7205 135.936 71.8215C136.163 71.9219 136.316 72.0791 136.395 72.2933L136.555 72.7371C136.688 73.1148 136.753 73.5594 136.751 74.071C136.763 74.4981 136.803 75.1583 136.872 76.0515C136.918 76.9253 136.953 77.5179 136.977 77.8295C137.022 78.1501 137.069 78.4916 137.118 78.8538C137.128 78.9784 137.15 79.1387 137.186 79.3347C137.251 79.0905 137.328 78.8038 137.418 78.4746C137.635 77.6258 137.887 76.8896 138.173 76.266C138.47 75.6418 138.717 75.1929 138.916 74.9193C139.083 74.6478 139.373 74.2796 139.787 73.8149C140.238 73.2957 140.667 72.8926 141.073 72.6058C141.478 72.2983 141.879 72.0796 142.276 71.9499C142.693 71.7982 143.063 71.7224 143.387 71.7226C143.732 71.7216 144.098 71.8026 144.487 71.9657C144.865 72.1295 145.146 72.3255 145.331 72.5538C145.493 72.7522 145.728 73.1651 146.037 73.7925C146.291 74.3713 146.467 74.8297 146.566 75.1678C146.655 75.5066 146.775 75.9894 146.928 76.6164C146.988 76.8526 147.052 77.0729 147.12 77.2773C147.217 76.9059 147.403 76.4035 147.678 75.7702C147.986 75.02 148.223 74.5091 148.391 74.2375C148.557 73.9556 148.788 73.6278 149.083 73.2541C149.417 72.8466 149.713 72.546 149.97 72.3522C150.234 72.1266 150.555 71.9496 150.932 71.8213C151.431 71.6642 151.957 71.7038 152.508 71.9401C153.037 72.1673 153.461 72.516 153.779 72.9863C153.997 73.3794 154.164 73.7184 154.28 74.0033C154.364 74.2797 154.499 74.819 154.686 75.6212C154.896 76.4428 155.031 77.0448 155.091 77.4271C155.162 77.7983 155.267 78.3552 155.408 79.0977C155.527 79.8415 155.628 80.4666 155.708 80.9728C155.789 81.4791 155.849 81.9867 155.888 82.4956C155.946 82.9825 156 83.407 156.048 83.7692C156.097 84.1313 156.138 84.3949 156.172 84.5597L156.223 84.8226C156.262 85.0601 156.216 85.2718 156.084 85.4577C155.952 85.6435 155.767 85.7544 155.53 85.7904C155.303 85.8258 155.09 85.7767 154.892 85.6432C154.703 85.4987 154.579 85.3135 154.52 85.0876L154.502 84.8539C154.467 84.6683 154.414 84.3847 154.343 84.003C154.292 83.6201 154.231 83.1648 154.159 82.637C154.122 82.1489 154.064 81.6621 153.985 81.1766C153.906 80.6911 153.807 80.092 153.69 79.3793C153.572 78.6563 153.477 78.1039 153.406 77.7223C153.337 77.3614 153.204 76.7906 153.008 76.0099C152.823 75.2285 152.691 74.7359 152.613 74.5322C152.558 74.3686 152.458 74.1506 152.312 73.8782C152.216 73.7173 152.066 73.5964 151.861 73.5155C151.709 73.4417 151.603 73.4171 151.542 73.4419C151.358 73.4953 151.202 73.5783 151.075 73.6908C150.898 73.8273 150.69 74.0441 150.451 74.3411C150.173 74.6615 149.974 74.9299 149.855 75.1462C149.735 75.3521 149.534 75.7929 149.251 76.4684C148.968 77.1335 148.795 77.6037 148.733 77.8791C148.673 78.1856 148.593 78.6446 148.494 79.2563C148.404 79.8569 148.342 80.4767 148.307 81.1155C148.259 81.8492 148.23 82.2894 148.221 82.4361C148.198 82.6776 148.153 82.9831 148.087 83.3526C148.032 83.7214 147.99 83.9902 147.961 84.159C147.941 84.1604 147.921 84.1721 147.901 84.1942C147.882 84.2163 147.837 84.2452 147.767 84.281C147.697 84.3168 147.621 84.3529 147.54 84.3894C147.47 84.4252 147.384 84.462 147.282 84.4997C147.181 84.5375 147.084 84.5646 146.991 84.5809C146.908 84.5966 146.826 84.6071 146.743 84.6124C146.659 84.6177 146.58 84.6071 146.505 84.5806C146.43 84.554 146.364 84.5113 146.307 84.4523C146.261 84.3926 146.234 84.3108 146.226 84.207C146.213 84.0408 146.201 83.9529 146.19 83.9431C146.178 83.923 146.181 83.8915 146.198 83.8487C146.216 83.8058 146.237 83.7418 146.262 83.6567C146.289 83.4671 146.303 83.2419 146.304 82.9809C146.303 82.6991 146.285 82.3246 146.249 81.8572C146.192 81.3911 146.111 80.8745 146.005 80.3072C145.876 79.7205 145.755 79.1698 145.643 78.6552C145.543 78.171 145.417 77.6206 145.265 77.0041C145.113 76.3771 144.99 75.931 144.896 75.6656C144.835 75.4086 144.69 75.0212 144.462 74.5034C144.284 74.0868 144.143 73.8192 144.04 73.7006C143.995 73.6617 143.907 73.5995 143.775 73.5139C143.646 73.4596 143.524 73.436 143.409 73.4433C143.304 73.4291 143.14 73.4709 142.918 73.5686C142.642 73.6487 142.361 73.7971 142.074 74.0137C141.787 74.2198 141.471 74.5269 141.126 74.9351C140.731 75.3673 140.469 75.6971 140.341 75.9245C140.208 76.0999 140.016 76.4566 139.765 76.9944C139.513 77.5322 139.287 78.1833 139.084 78.9477C138.862 79.7342 138.727 80.2907 138.679 80.6173C138.639 80.9017 138.58 81.4273 138.503 82.1941C138.458 82.9693 138.431 83.5085 138.423 83.8116C138.414 84.1044 138.417 84.4852 138.433 84.9539C138.448 85.4226 138.463 85.7556 138.478 85.9529C138.481 85.9945 138.49 86.0409 138.504 86.0922C138.519 86.1434 138.542 86.2463 138.575 86.4008C138.607 86.5448 138.584 86.6559 138.506 86.7339C138.439 86.8112 138.336 86.8909 138.196 86.9729C138.056 87.0548 137.822 87.0645 137.493 87.002C137.06 86.946 136.78 86.8386 136.653 86.6797C136.525 86.5104 136.509 86.3602 136.603 86.2289L136.713 86.034C136.673 85.7757 136.635 85.5537 136.6 85.3681C136.563 85.1617 136.49 84.7593 136.382 84.1609C136.273 83.5624 136.18 83.1039 136.104 82.7852C136.037 82.4555 135.917 81.8474 135.744 80.9608C135.572 80.0742 135.46 79.4395 135.41 79.0565C135.361 78.6943 135.313 78.3425 135.266 78.0011C135.24 77.6583 135.203 77.0345 135.154 76.1296C135.084 75.2156 135.042 74.5295 135.027 74.0712C135.023 73.7479 134.993 73.4837 134.935 73.2786L134.779 72.8815C134.699 72.6466 134.708 72.4268 134.807 72.2222Z" fill="#242424"/>
</svg>
