<svg width="158" height="86" viewBox="0 0 158 86" fill="none" xmlns="http://www.w3.org/2000/svg">
<path d="M20.1279 17.4417C54.118 14.9438 137.189 24.8653 140.372 30.8602C144.352 38.3538 -13.5454 33.3863 24.5003 63.4025C45.4497 79.9306 81.3259 65.169 144 59.6737" stroke="#0CE9CA" stroke-width="28" stroke-linecap="round"/>
<path d="M43.8019 26.3621C44.1594 26.2558 44.5845 26.0772 45.0772 25.8265C45.5891 25.5537 45.9702 25.3467 46.2206 25.2054C46.4518 25.0862 46.8569 24.7837 47.4361 24.2979C47.9769 23.8562 48.4218 23.3894 48.7707 22.8974C49.1388 22.3833 49.3849 21.9814 49.509 21.6916C49.6539 21.4005 49.8302 20.7683 50.0379 19.7947C50.2647 18.7991 50.3843 18.1079 50.3965 17.7209C50.4279 17.3118 50.3903 16.6828 50.2836 15.8338C50.1561 14.9861 50.0178 14.2695 49.8686 13.6842C49.7002 13.1209 49.4255 12.4653 49.0445 11.7173C48.6635 10.9693 48.352 10.4465 48.1099 10.1489C47.879 9.86102 47.3535 9.40932 46.5334 8.79381C45.7557 8.18603 45.0199 7.78432 44.3259 7.58867C43.5784 7.37557 43.0268 7.26475 42.6709 7.25621C42.2831 7.23927 41.6262 7.32306 40.7001 7.50756C39.8156 7.6894 39.2478 7.84576 38.9967 7.97664C38.7063 8.14134 38.4124 8.32714 38.1148 8.53405C37.8052 8.72086 37.3112 9.15952 36.6327 9.85004C35.9727 10.5081 35.449 11.173 35.0616 11.8449C34.663 12.5071 34.3988 13.0145 34.2691 13.3673C34.1481 13.6986 34.0202 14.3486 33.8853 15.3175C33.7712 16.285 33.7229 16.9509 33.7403 17.315C33.7712 17.7201 33.892 18.3438 34.1026 19.1862C34.3117 20.0078 34.5456 20.6765 34.8043 21.1922C35.0527 21.7086 35.4086 22.2651 35.8721 22.8617C36.3659 23.4459 36.7483 23.8702 37.0192 24.1347C37.2781 24.379 37.7957 24.7269 38.5719 25.1782C39.3592 25.6392 39.8864 25.9082 40.1535 25.985C40.4421 26.0709 40.8562 26.1592 41.3959 26.2499C41.894 26.3433 42.3354 26.3777 42.72 26.3531L43.4217 26.3082C43.5472 26.3106 43.674 26.3286 43.8019 26.3621ZM39.7003 27.6422C39.2838 27.5227 38.6167 27.2001 37.699 26.6744C36.8014 26.1369 36.1783 25.7071 35.8299 25.385C35.5022 25.0615 35.0727 24.5671 34.5413 23.9018C33.9972 23.206 33.571 22.5497 33.2627 21.9327C32.9528 21.295 32.6786 20.5089 32.44 19.5744C32.223 18.6489 32.0855 17.9428 32.0274 17.456C31.9693 16.9691 32.0133 16.1783 32.1595 15.0835C32.316 13.988 32.4712 13.2162 32.625 12.768C32.8004 12.3288 33.115 11.7294 33.5688 10.9698C34.0322 10.1991 34.6511 9.41323 35.4256 8.61219C36.1825 7.85404 36.7497 7.34807 37.1273 7.09429C37.4752 6.86328 37.8244 6.64785 38.1747 6.448C38.5659 6.23511 39.2857 6.01684 40.3341 5.79319C41.3641 5.60204 42.151 5.50994 42.6947 5.51689C43.2073 5.52585 43.902 5.66404 44.7791 5.93147C45.6977 6.19625 46.6342 6.69471 47.5885 7.42687C48.4996 8.14092 49.1218 8.69603 49.455 9.09219C49.7667 9.4793 50.1377 10.0974 50.5682 10.9466C51.0092 11.7951 51.3294 12.5679 51.5289 13.2648C51.706 13.9423 51.8551 14.7312 51.9761 15.6315C52.1115 16.5831 52.1671 17.3101 52.1428 17.8127C52.1193 18.3256 51.9869 19.1221 51.7456 20.2021C51.5043 21.2821 51.2796 22.0323 51.0714 22.4527C50.8929 22.8503 50.6004 23.3283 50.1939 23.8866C49.7505 24.5099 49.1944 25.0934 48.5257 25.6372C47.8769 26.1692 47.4021 26.5179 47.1013 26.6833C46.8318 26.8467 46.421 27.0765 45.8691 27.3727C45.2964 27.6703 44.7906 27.8853 44.3515 28.0178C43.9124 28.1503 43.439 28.2432 42.9312 28.2965C42.4234 28.3499 42.0596 28.3732 41.8397 28.3664C41.599 28.3609 41.2384 28.2901 40.7579 28.1538L40.1331 27.9746C39.9613 27.9125 39.817 27.8017 39.7003 27.6422ZM55.2792 11.6941C55.3984 11.4777 55.5652 11.3366 55.7796 11.2707C56.0043 11.2041 56.221 11.2372 56.4296 11.37C56.6478 11.4917 56.7857 11.6551 56.8431 11.8602L56.9688 12.2748C57.0558 12.5928 57.1192 12.8758 57.1591 13.1237C57.1981 13.3613 57.2638 13.879 57.3561 14.6767C57.4164 15.4661 57.4636 16.0841 57.4978 16.5307C57.516 16.7696 57.5355 17.024 57.5561 17.2941C57.5897 17.1876 57.6242 17.0914 57.6594 17.0057C57.9518 16.0476 58.2649 15.2918 58.5986 14.7381C58.9636 14.1825 59.2469 13.7886 59.4485 13.5565C59.7109 13.2997 60.1089 13.0394 60.6424 12.7756C61.1567 12.534 61.5478 12.3889 61.8157 12.3404C62.0236 12.3271 62.2367 12.3135 62.455 12.2995C62.7373 12.3024 63.1222 12.4186 63.6098 12.6484C64.1199 12.8975 64.5562 13.2766 64.919 13.7857C65.2338 14.2144 65.5636 14.9082 65.9085 15.8673C66.259 16.7633 66.5041 17.4417 66.6438 17.9024C66.7627 18.3645 66.9678 19.0663 67.2591 20.0079C67.5208 20.9722 67.7283 21.7731 67.8814 22.4104C68.0114 23.0178 68.1314 23.6312 68.2414 24.2504C68.361 24.8585 68.4387 25.2606 68.4746 25.4566C68.4873 25.6228 68.512 25.8091 68.5487 26.0155L68.5737 26.3426C68.6127 26.5802 68.5554 26.7874 68.4018 26.9642C68.2586 27.1404 68.0678 27.2413 67.8295 27.267C67.6016 27.292 67.3877 27.2274 67.1879 27.0732C66.9993 26.9287 66.8858 26.7429 66.8476 26.5157L66.8262 26.2353C66.7895 26.0289 66.7644 25.8374 66.7509 25.6608C66.7174 25.496 66.6569 25.1137 66.5693 24.5139C66.4632 23.9467 66.3456 23.3645 66.2164 22.7674C66.0656 22.1612 65.8558 21.3971 65.5868 20.475C65.3059 19.5327 65.1068 18.841 64.9895 18.3997C64.8514 17.9597 64.6191 17.3118 64.2925 16.456C63.99 15.6404 63.732 15.0672 63.5187 14.7364C63.3325 14.4874 63.1263 14.3179 62.9001 14.228C62.7034 14.1154 62.5471 14.0523 62.4312 14.0389C62.3273 14.0455 62.2129 14.0528 62.0882 14.0608C61.9858 14.0882 61.7583 14.1863 61.4055 14.355C61.0512 14.5029 60.8264 14.6373 60.7312 14.7582C60.5952 14.8922 60.3831 15.1927 60.095 15.66C59.8037 16.0857 59.5375 16.7028 59.2963 17.5115C59.0376 18.363 58.8905 18.9674 58.8551 19.3245C58.7997 19.6933 58.7726 20.2952 58.7737 21.1301C58.7556 21.9871 58.7684 22.7012 58.8121 23.2725C58.8557 23.8437 58.8795 24.291 58.8833 24.6143C58.9111 24.9779 58.9149 25.3012 58.8947 25.5843C58.8979 25.6258 58.9019 25.6777 58.9066 25.7401C58.9114 25.8024 58.8937 25.9131 58.8537 26.0722C58.8232 26.2203 58.7692 26.3333 58.6915 26.4114C58.6139 26.4894 58.4888 26.56 58.316 26.6233C58.1536 26.6858 57.9422 26.6524 57.6816 26.523C57.5521 26.4686 57.4377 26.4081 57.3386 26.3414C57.2499 26.274 57.1876 26.2101 57.1516 26.1498C57.1149 26.0791 57.0889 26.0129 57.0738 25.9513C57.0586 25.8896 57.0495 25.838 57.0463 25.7965L57.0415 25.7341C56.9322 25.3967 56.8444 25.0683 56.7782 24.749C56.712 24.4297 56.6128 23.8829 56.4805 23.1086C56.3354 22.3038 56.2215 21.5648 56.1387 20.8917C56.0551 20.2082 55.98 19.4302 55.9134 18.5577C55.8499 17.7268 55.801 17.088 55.7669 16.6414C55.7328 16.1948 55.6856 15.5768 55.6252 14.7875C55.5457 14.0202 55.4884 13.5438 55.4533 13.3581C55.4406 13.192 55.3932 12.981 55.311 12.7254L55.2176 12.3243C55.1394 12.1205 55.1599 11.9105 55.2792 11.6941ZM70.3306 9.96388C70.3131 9.73538 70.3168 9.51074 70.3417 9.28997C70.377 9.06853 70.4387 8.85062 70.5268 8.63624C70.6149 8.42186 70.7541 8.26161 70.9445 8.15549C71.1453 8.04871 71.3836 8.02303 71.6594 8.07844C71.747 8.67819 71.8228 9.67009 71.8868 11.0541C71.9604 12.4271 72.0306 13.4142 72.0974 14.0153C72.2333 14.1527 72.4374 14.364 72.7099 14.6493C73.1299 14.4032 73.803 14.0522 74.7292 13.5964C76.6037 13.2468 78.105 13.1403 79.2332 13.2768C79.6944 13.5709 80.0241 13.7846 80.2224 13.9181C80.4206 14.0515 80.7027 14.2578 81.0688 14.5371C81.4341 14.806 81.737 15.0788 81.9775 15.3557C82.2172 15.6221 82.4274 15.9114 82.6079 16.2234C82.7229 16.4978 82.8091 16.8054 82.8665 17.1462C82.9231 17.4765 82.9501 17.7618 82.9475 18.0021C82.9546 18.2312 82.9536 18.5601 82.9446 18.9886C82.9451 19.406 82.9466 19.6982 82.9489 19.865C82.3966 20.8397 81.6385 21.6501 80.6746 22.2963C79.7099 22.932 78.6941 23.378 77.6273 23.6341C76.5596 23.8799 75.4449 23.9877 74.2831 23.9577C73.9337 23.8966 73.6175 23.7916 73.3345 23.6427C73.0515 23.4938 72.807 23.3007 72.6008 23.0634C72.3938 22.8157 72.2129 22.5663 72.0579 22.3153C71.9133 22.0637 71.7807 21.7642 71.6602 21.4171C71.5396 21.0699 71.4431 20.763 71.3705 20.4963C71.2978 20.2296 71.2221 19.9213 71.1431 19.5715C70.638 16.243 70.3672 13.0405 70.3306 9.96388ZM72.6547 16.7976C72.7576 18.6906 72.8764 20.1077 73.011 21.0489C73.1205 21.1149 73.2879 21.2555 73.5133 21.4707C73.7379 21.6755 73.9485 21.8343 74.1451 21.9469C74.3417 22.0596 74.5544 22.1086 74.7831 22.094C75.4732 22.102 76.1429 22.0487 76.7922 21.9341C77.4512 21.8085 78.0946 21.6159 78.7224 21.3566C79.3607 21.0966 79.9066 20.7224 80.3603 20.2342C80.8236 19.7348 81.139 19.1458 81.3065 18.4671C81.2548 17.9277 81.2138 17.5285 81.1836 17.2695C81.1357 17.1891 81.0398 17.0282 80.896 16.7869C80.7514 16.5353 80.6552 16.3692 80.6072 16.2888C80.0854 15.7481 79.4607 15.3654 78.7332 15.1406C78.0161 14.9151 77.2952 14.8464 76.5707 14.9345C75.8454 15.0122 75.1349 15.2143 74.439 15.5406C73.7536 15.8663 73.1588 16.2853 72.6547 16.7976ZM84.9303 7.24492C85.0263 7.27009 85.1494 7.30918 85.2997 7.36219C85.4596 7.40414 85.6307 7.45582 85.8129 7.51721C86.0048 7.56756 86.1379 7.60079 86.2123 7.61691C86.5665 9.10763 86.8466 10.7231 87.0527 12.4634C87.258 14.1933 87.3895 15.7765 87.447 17.2132C87.5038 18.6394 87.5348 20.2761 87.5402 22.1231C87.2723 22.1716 86.6505 22.3053 85.6749 22.5243C85.6098 21.6726 85.5823 20.8341 85.5923 20.009C85.7488 19.0492 85.8142 17.9908 85.7884 16.834C85.7627 15.6771 85.6762 14.6128 85.5288 13.6411C85.3918 12.6688 85.2637 11.6072 85.1444 10.4563C85.0243 9.29503 84.953 8.22457 84.9303 7.24492ZM89.8959 9.47907C89.9944 9.26403 90.1504 9.11836 90.3639 9.04208C90.5878 8.96512 90.8081 8.97712 91.0248 9.07807C91.2518 9.17835 91.4048 9.33555 91.4839 9.54968L91.6431 9.9935C91.7765 10.3711 91.8418 10.8158 91.8391 11.3274C91.8508 11.7545 91.8908 12.4147 91.9591 13.308C92.005 14.1817 92.0398 14.7744 92.0636 15.086C92.109 15.4067 92.156 15.7481 92.2046 16.1103C92.2141 16.2349 92.2368 16.3952 92.2727 16.5913C92.3376 16.3471 92.4149 16.0603 92.5047 15.731C92.7218 14.8821 92.9737 14.1459 93.2604 13.5222C93.5574 12.8978 93.8051 12.4488 94.0036 12.1752C94.1708 11.9035 94.4613 11.5353 94.875 11.0705C95.3263 10.5511 95.7551 10.1479 96.1615 9.86094C96.5662 9.55324 96.9674 9.33448 97.3649 9.20468C97.7815 9.05277 98.1518 8.97689 98.4757 8.97704C98.8203 8.97586 99.1869 9.05678 99.5754 9.21979C99.9535 9.38346 100.235 9.57942 100.419 9.80766C100.581 10.0061 100.816 10.419 101.125 11.0463C101.378 11.625 101.554 12.0834 101.653 12.4215C101.742 12.7603 101.862 13.2431 102.015 13.87C102.075 14.1062 102.138 14.3266 102.206 14.531C102.303 14.1595 102.489 13.657 102.765 13.0236C103.073 12.2732 103.311 11.7623 103.478 11.4906C103.645 11.2086 103.876 10.8807 104.171 10.507C104.505 10.0994 104.801 9.79867 105.058 9.60481C105.323 9.37912 105.643 9.20204 106.02 9.07356C106.52 8.91633 107.045 8.95578 107.596 9.1919C108.125 9.41896 108.549 9.7676 108.867 10.2378C109.085 10.6309 109.252 10.9699 109.368 11.2547C109.451 11.5311 109.587 12.0704 109.773 12.8726C109.982 13.6942 110.117 14.2961 110.178 14.6784C110.248 15.0497 110.353 15.6066 110.493 16.3491C110.613 17.0929 110.713 17.7179 110.793 18.2242C110.874 18.7305 110.933 19.2381 110.972 19.747C111.03 20.2338 111.084 20.6584 111.132 21.0205C111.181 21.3827 111.222 21.6463 111.255 21.8111L111.307 22.074C111.346 22.3115 111.299 22.5232 111.167 22.7091C111.035 22.895 110.851 23.006 110.613 23.0421C110.386 23.0775 110.173 23.0285 109.975 22.895C109.786 22.7505 109.663 22.5654 109.604 22.3395L109.586 22.1058C109.551 21.9202 109.498 21.6366 109.427 21.2549C109.376 20.872 109.316 20.4166 109.244 19.8889C109.207 19.4008 109.148 18.9139 109.07 18.4284C108.991 17.9429 108.893 17.3439 108.776 16.6312C108.658 15.9081 108.563 15.3558 108.492 14.9741C108.423 14.6133 108.29 14.0425 108.095 13.2618C107.91 12.4804 107.778 11.9878 107.7 11.7841C107.646 11.6206 107.546 11.4026 107.399 11.1301C107.303 10.9693 107.153 10.8484 106.949 10.7676C106.797 10.6938 106.69 10.6693 106.63 10.6941C106.446 10.7476 106.29 10.8306 106.163 10.9431C105.985 11.0797 105.777 11.2966 105.539 11.5936C105.26 11.9141 105.061 12.1825 104.942 12.3989C104.822 12.6049 104.621 13.0457 104.338 13.7213C104.055 14.3866 103.882 14.8569 103.819 15.1323C103.759 15.4388 103.679 15.8979 103.58 16.5096C103.49 17.1103 103.427 17.7301 103.393 18.369C103.344 19.1027 103.315 19.5429 103.306 19.6896C103.282 19.9312 103.238 20.2367 103.172 20.6062C103.117 20.9751 103.074 21.2439 103.046 21.4128C103.025 21.4141 103.005 21.4258 102.986 21.4479C102.966 21.47 102.922 21.499 102.851 21.5348C102.781 21.5706 102.705 21.6067 102.624 21.6432C102.554 21.679 102.468 21.7159 102.367 21.7537C102.265 21.7915 102.168 21.8186 102.075 21.8349C101.993 21.8506 101.91 21.8612 101.827 21.8665C101.744 21.8718 101.664 21.8612 101.589 21.8347C101.514 21.8082 101.448 21.7655 101.391 21.7065C101.345 21.6468 101.318 21.5651 101.31 21.4612C101.297 21.295 101.285 21.2071 101.274 21.1973C101.262 21.1772 101.265 21.1457 101.283 21.1029C101.3 21.06 101.321 20.996 101.346 20.9109C101.374 20.7213 101.388 20.496 101.389 20.235C101.388 19.9532 101.37 19.5787 101.334 19.1113C101.278 18.6452 101.196 18.1286 101.09 17.5613C100.962 16.9746 100.841 16.4239 100.729 15.9093C100.629 15.4251 100.504 14.8747 100.352 14.2582C100.2 13.6313 100.077 13.1851 99.9835 12.9197C99.9221 12.6627 99.7776 12.2754 99.55 11.7576C99.3719 11.3411 99.2313 11.0735 99.1282 10.9549C99.0835 10.916 98.9951 10.8538 98.8633 10.7683C98.7337 10.714 98.6118 10.6905 98.4975 10.6978C98.3919 10.6837 98.228 10.7255 98.0056 10.8232C97.7297 10.9035 97.4486 11.0519 97.1622 11.2685C96.875 11.4748 96.559 11.782 96.2141 12.1903C95.8189 12.6226 95.5568 12.9525 95.4279 13.1799C95.2951 13.3554 95.103 13.7121 94.8516 14.2501C94.6002 14.788 94.3731 15.4392 94.1704 16.2037C93.9485 16.9902 93.8134 17.5468 93.7652 17.8735C93.7243 18.1579 93.6652 18.6835 93.588 19.4504C93.5428 20.2256 93.5161 20.7648 93.5079 21.068C93.499 21.3609 93.502 21.7416 93.5169 22.2103C93.5318 22.6791 93.5468 23.0121 93.5619 23.2094C93.5651 23.251 93.5738 23.2974 93.5882 23.3486C93.6026 23.3999 93.6261 23.5028 93.6588 23.6572C93.6907 23.8013 93.6678 23.9124 93.5902 23.9904C93.523 24.0678 93.4194 24.1475 93.2794 24.2295C93.1395 24.3115 92.9052 24.3213 92.5766 24.2588C92.144 24.203 91.8642 24.0956 91.7372 23.9368C91.6093 23.7675 91.5926 23.6172 91.687 23.486L91.7975 23.291C91.7569 23.0327 91.719 22.8107 91.6839 22.6251C91.6473 22.4187 91.5747 22.0163 91.4663 21.4179C91.3579 20.8194 91.2654 20.3609 91.1888 20.0423C91.1219 19.7126 91.0023 19.1044 90.83 18.2178C90.6578 17.3313 90.5466 16.6965 90.4965 16.3135C90.4479 15.9513 90.4001 15.5995 90.3532 15.2581C90.327 14.9153 90.2897 14.2915 90.2415 13.3866C90.1716 12.4726 90.1296 11.7864 90.1155 11.3281C90.1117 11.0047 90.0811 10.7406 90.0236 10.5355L89.8679 10.1384C89.7873 9.90351 89.7966 9.68373 89.8959 9.47907ZM22.1533 49.822L22.3618 50.0905C22.4545 50.2098 22.6791 50.3467 23.0357 50.5014C23.4386 50.7156 24.023 50.9131 24.7889 51.0937C25.5364 51.3068 26.0629 51.4297 26.3683 51.4623C26.6842 51.4943 27.1703 51.4997 27.8268 51.4786C28.4209 51.4614 29.0439 51.3433 29.6957 51.1241C30.3675 50.8933 30.7826 50.7206 30.941 50.6061C31.0994 50.4916 31.3535 50.1935 31.7032 49.7119C32.0329 49.242 32.249 48.7898 32.3516 48.3553C32.4407 47.88 32.4757 47.5176 32.4566 47.2684C32.4384 47.0295 32.2428 46.4523 31.8699 45.5368C31.473 44.5811 31.1935 43.9989 31.0313 43.7901C30.8451 43.541 30.5222 43.2121 30.0627 42.8031C29.6039 42.4045 29.1947 42.1072 28.835 41.911C28.4969 41.7239 28.0835 41.5781 27.595 41.4737C27.1057 41.3589 26.7571 41.3081 26.5492 41.3214C26.3517 41.3341 25.9442 41.4697 25.3268 41.7284C24.7501 41.9741 24.2738 42.302 23.8977 42.7123C23.4801 43.1252 23.2032 43.4664 23.0671 43.7361C22.9222 44.0271 22.7328 44.6237 22.4988 45.5259C22.2448 46.4397 22.1084 47.1164 22.0898 47.556C22.0704 47.9851 22.0915 48.7405 22.1533 49.822ZM22.2923 52.0519C22.3122 52.3115 22.3389 52.5238 22.3723 52.6886C22.432 53.1962 22.5376 53.894 22.689 54.7819C22.8452 55.7321 23.0018 56.6197 23.1589 57.4446C23.3055 58.2702 23.4007 58.833 23.4446 59.1328C23.4868 59.4119 23.5357 59.7793 23.5915 60.235C23.6464 60.6803 23.6798 60.9808 23.6917 61.1366L23.7084 61.3547C23.7266 61.5936 23.6537 61.8018 23.4897 61.9793C23.3361 62.1561 23.1397 62.2522 22.9006 62.2675C22.6719 62.2821 22.4681 62.2117 22.289 62.0561C22.11 61.9006 22.0114 61.7034 21.9931 61.4645L21.9765 61.2464C21.9669 61.1217 21.9351 60.842 21.881 60.4071C21.8276 59.9826 21.7751 59.6363 21.7232 59.3682C21.681 59.0891 21.5866 58.5368 21.4399 57.7112C21.2917 56.8648 21.141 55.9873 20.988 55.0786C20.8319 54.1284 20.7231 53.3891 20.6619 52.8607C20.6117 52.4778 20.5581 51.9124 20.5009 51.1645C20.4779 50.8633 20.4521 50.5258 20.4235 50.1519C20.3675 48.8717 20.3504 47.9647 20.3723 47.431C20.3942 46.8973 20.5374 46.1054 20.8018 45.0552C21.0879 44.014 21.3314 43.3044 21.5323 42.9262C21.742 42.5266 22.1029 42.0547 22.615 41.5106C23.1463 40.9443 23.8266 40.4833 24.656 40.1275C25.4454 39.7952 26.0224 39.6226 26.3871 39.6097C26.7701 39.5643 27.291 39.6145 27.9498 39.7602C28.6086 39.9059 29.1886 40.1141 29.6899 40.3847C30.1599 40.6573 30.6594 41.0428 31.1885 41.5412C31.7367 42.0176 32.1271 42.4101 32.3596 42.7187C32.6457 43.0449 33.0143 43.7675 33.4655 44.8868C33.9382 46.015 34.1745 46.7827 34.1742 47.1898C34.2036 47.5741 34.1585 48.0779 34.039 48.7014C33.9043 49.3989 33.6057 50.0703 33.1431 50.7157C32.679 51.3403 32.2837 51.7726 31.9573 52.0127C31.6702 52.2189 31.1095 52.4688 30.2753 52.7622C29.4596 53.0232 28.6559 53.1685 27.8642 53.1983C27.135 53.2241 26.5752 53.2129 26.185 53.1648C25.8053 53.1161 25.1992 52.9774 24.367 52.7489C23.5147 52.5321 22.8231 52.2997 22.2923 52.0519ZM48.605 48.4112C48.4868 48.2309 48.3637 48.0561 48.2359 47.8869C48.0721 47.6573 47.8871 47.4239 47.681 47.1866C47.4964 46.9583 47.072 46.5993 46.4078 46.1095C45.8195 45.6566 45.4347 45.4047 45.2532 45.3536C45.1029 45.3006 44.8266 45.3079 44.4244 45.3754C43.9805 45.4455 43.5927 45.5643 43.2607 45.7316C42.8872 45.9017 42.602 46.066 42.4052 46.2247C42.218 46.3724 42.0472 46.5294 41.8928 46.6959C41.7552 46.8091 41.5712 47.0661 41.3406 47.467C41.0893 47.8693 40.9388 48.1555 40.8892 48.3257C40.8411 48.5166 40.7974 48.7647 40.758 49.0699C40.7394 49.3738 40.7469 49.6081 40.7804 49.773C40.7931 49.9392 40.8769 50.2156 41.0318 50.6023C41.1843 50.9578 41.3345 51.2144 41.4824 51.3719C41.6646 51.569 41.8368 51.7041 41.9991 51.7772C42.1525 51.8718 42.3164 51.9656 42.4907 52.0589C42.6745 52.141 42.9636 52.2321 43.3577 52.3322C43.7087 52.4141 44.0093 52.4522 44.2596 52.4467C44.5403 52.4287 44.7714 52.3774 44.953 52.2927C45.1577 52.2379 45.3652 52.1515 45.5756 52.0337C45.7964 51.9152 46.0207 51.7756 46.2487 51.6149C46.4263 51.4783 46.7552 51.1337 47.2352 50.5811C47.6834 50.0201 47.9538 49.6636 48.0467 49.5115C48.1379 49.3387 48.2192 49.1717 48.2904 49.0106C48.3937 48.8579 48.4985 48.6581 48.605 48.4112ZM50.1675 49.1723C50.0402 49.4205 49.9405 49.62 49.8685 49.7707C49.798 49.9422 49.6931 50.142 49.5539 50.3701C49.4266 50.6183 49.0953 51.0674 48.56 51.7175C48.0143 52.3682 47.5878 52.8025 47.2806 53.0205C46.9935 53.2267 46.6991 53.4073 46.3976 53.5623C46.1072 53.727 45.8197 53.8602 45.5349 53.9619C45.219 54.0657 44.848 54.1311 44.4218 54.1584C43.9763 54.2078 43.4814 54.156 42.937 54.0029C42.4373 53.8888 42.0571 53.767 41.7965 53.6375C41.5471 53.5178 41.2961 53.3773 41.0435 53.2161C40.7917 53.0652 40.5288 52.8367 40.2547 52.5307C39.927 52.2072 39.659 51.7756 39.4506 51.2358C39.2438 50.7167 39.1125 50.2972 39.0567 49.9772C39.0129 49.6773 39.0115 49.3173 39.0525 48.8972C39.1047 48.4868 39.1713 48.1277 39.2522 47.8198C39.3332 47.512 39.5257 47.0926 39.8299 46.5617C40.1356 46.0516 40.4149 45.6737 40.6677 45.4279C40.8925 45.2256 41.1337 45.0328 41.3913 44.8493C41.6585 44.6548 42.0073 44.4341 42.4376 44.1874C42.9311 43.9471 43.4973 43.77 44.1363 43.656C44.7864 43.5518 45.3202 43.5646 45.7375 43.6945C46.1109 43.7958 46.708 44.1594 47.5288 44.7853C47.3731 44.3882 47.2494 44.0674 47.1575 43.8228C47.005 43.4672 46.7882 43.0219 46.507 42.4867C46.2066 41.9736 45.9514 41.5725 45.7413 41.2832C45.5311 40.994 45.2986 40.7532 45.0436 40.5607C44.8422 40.3858 44.4657 40.175 43.9141 39.9285C43.3625 39.682 42.8912 39.5295 42.5002 39.471C42.0693 39.436 41.7231 39.4164 41.4616 39.4122C41.2017 39.4289 40.9478 39.4555 40.6999 39.4923C40.4936 39.5264 40.1185 39.6756 39.5746 39.94C39.1819 40.1322 38.9275 40.2893 38.8115 40.4116L38.6434 40.6728C38.5329 40.8677 38.3602 40.9988 38.125 41.0661C37.8995 41.1222 37.6776 41.0895 37.4594 40.9678C37.2508 40.835 37.1117 40.656 37.0423 40.4308C36.9825 40.1946 37.0234 39.978 37.165 39.7811L37.3307 39.4887C37.5436 39.1306 38.0276 38.7657 38.7826 38.3938C39.4873 38.0461 40.0304 37.8391 40.4118 37.7729C40.7325 37.7315 41.0591 37.7002 41.3918 37.6789C41.7364 37.6777 42.177 37.7017 42.7135 37.7509C43.2724 37.8195 43.9036 38.014 44.6071 38.3342C45.3106 38.6545 45.8305 38.9657 46.167 39.2677C46.4915 39.5496 46.8088 39.8737 47.1188 40.2401C47.4081 40.6077 47.7112 41.0893 48.0283 41.6848C48.3558 42.2797 48.5982 42.786 48.7555 43.2039C48.9112 43.601 49.1216 44.1668 49.3867 44.9013C49.6517 45.6358 49.8421 46.1455 49.9579 46.4303C50.0849 46.7249 50.203 47.0409 50.3124 47.3783C50.4314 47.7047 50.5168 47.934 50.5687 48.0664L50.5711 48.0976C50.6877 48.2571 50.6744 48.4928 50.5311 48.8046L50.1675 49.1723ZM56.1322 32.2895C56.7768 32.1125 57.8879 32.0258 59.4656 32.0292C61.0424 32.0222 62.1559 31.9667 62.8061 31.8624C63.0148 31.8595 63.2619 31.8124 63.5474 31.7211C63.8321 31.6193 64.0757 31.5255 64.278 31.4395C64.49 31.3424 64.7227 31.3119 64.9761 31.3478C65.2392 31.3728 65.4726 31.4883 65.6764 31.6944C65.6474 32.1346 65.6179 32.5697 65.5881 32.9995C64.9307 33.1459 64.1874 33.2613 63.3582 33.3457C62.5289 33.4301 61.776 33.4887 61.0995 33.5215C60.4334 33.5537 59.6858 33.612 58.8565 33.6964C59.4487 34.2012 60.0234 34.7489 60.5804 35.3395C61.1477 35.9294 61.7159 36.5976 62.2848 37.344C62.8641 38.0897 63.3295 38.7123 63.6811 39.2116C64.0422 39.6999 64.5336 40.3887 65.1552 41.2778C65.8375 42.2778 66.3804 43.6417 66.7841 45.3693C67.5365 46.8763 67.2287 48.7277 65.8609 50.9235C65.339 52.0215 64.5932 52.9251 63.6237 53.6342C62.6541 54.3434 61.6061 54.6401 60.4795 54.5243C59.7503 54.4144 59.0431 54.183 58.3581 53.8303C57.6842 53.4872 57.0771 53.0616 56.5369 52.5534C55.9966 52.0453 55.5188 51.4653 55.1034 50.8134C54.6879 50.1616 54.3697 49.4827 54.1486 48.7767C53.9275 48.0707 53.8092 47.3424 53.7936 46.5919C53.7772 45.8311 53.8836 45.1041 54.1127 44.411C54.6523 43.2701 55.3793 42.2582 56.2938 41.3751C57.2074 40.4817 58.2369 39.8052 59.3822 39.3458C60.2605 38.9452 61.2093 38.7853 62.2288 38.8662C61.7483 38.5942 61.2899 38.2687 60.8536 37.8896C60.4276 37.5098 59.9365 37.0298 59.3803 36.4496C58.8233 35.859 58.4321 35.4561 58.2067 35.2409C58.0813 35.1028 57.8719 34.8918 57.5786 34.6079C57.2957 34.3233 57.0691 34.0926 56.8989 33.9156C56.7279 33.7282 56.5633 33.4883 56.4052 33.1957C56.2462 32.8928 56.1552 32.5907 56.1322 32.2895ZM55.42 46.5505C55.4876 47.2976 55.6747 48.0371 55.9813 48.769C56.2983 49.5002 56.7046 50.1683 57.2 50.7732C57.6946 51.3678 58.2904 51.8515 58.9875 52.2244C59.6941 52.5863 60.4341 52.7685 61.2073 52.7712C61.4856 52.7221 61.7555 52.6318 62.0171 52.5002C62.2794 52.3791 62.5098 52.2495 62.7082 52.1116C62.9066 51.9736 63.1118 51.7883 63.3238 51.5556C63.5462 51.3221 63.7239 51.1177 63.8567 50.9422C63.9999 50.766 64.1648 50.5311 64.3513 50.2374C64.5369 49.9332 64.6758 49.6999 64.7679 49.5375C64.8695 49.364 65.0072 49.1151 65.1809 48.7909C65.2457 48.6824 65.2917 48.6012 65.319 48.5472C65.3635 47.4902 65.1946 46.4417 64.8122 45.4015C64.4402 44.3608 63.9051 43.2365 63.2069 42.0287C63.0375 41.7264 62.7898 41.4918 62.4636 41.3248C62.1471 41.1467 61.7798 40.9876 61.3616 40.8473C60.9539 40.7064 60.6449 40.5592 60.4347 40.4057C59.9052 40.7213 59.4369 41.0175 59.0297 41.294C58.6321 41.5595 58.1934 41.9007 57.7133 42.3176C57.2429 42.7234 56.8509 43.1295 56.5372 43.5357C56.2331 43.9309 55.971 44.3965 55.7508 44.9324C55.5402 45.4573 55.4299 45.9967 55.42 46.5505ZM79.3377 50.9379C79.208 51.155 79.0141 51.2822 78.7558 51.3196L78.2615 51.4138C77.8401 51.5034 77.3023 51.5065 76.6483 51.4231C76.0062 51.3598 75.4094 51.2049 74.8578 50.9584C74.3494 50.73 73.9245 50.5015 73.5832 50.2729C73.2187 50.0144 72.7664 49.5632 72.2262 48.9194C71.6877 48.2963 71.3041 47.7885 71.0757 47.3961C70.856 46.9822 70.6533 46.2437 70.4676 45.1806C70.2635 44.1499 70.1748 43.3989 70.2014 42.9275C70.252 42.4963 70.3799 41.9141 70.585 41.1808C70.7998 40.4365 71.0384 39.8002 71.301 39.272C71.5732 38.7327 71.8385 38.3087 72.0969 37.9999C72.3754 37.6794 72.7954 37.2977 73.357 36.8547C73.9601 36.409 74.7032 36.0849 75.5861 35.8823C76.4482 35.681 77.0835 35.5882 77.4921 35.6038C77.8815 35.6415 78.4512 35.7825 79.2011 36.0267C79.931 36.2827 80.4714 36.5195 80.8223 36.7371C81.1828 36.9436 81.5668 37.253 81.9744 37.6653C82.382 38.0776 82.6828 38.4602 82.8769 38.8131C83.0934 39.1854 83.321 39.771 83.5596 40.5698C83.7862 41.3485 83.9142 42.0657 83.9434 42.7214C83.9902 43.3342 83.9987 43.8555 83.9689 44.2853C83.9598 44.7138 83.8643 45.3097 83.6824 46.0728C83.502 46.8567 83.285 47.502 83.0312 48.0088C82.7478 48.5383 82.3581 49.0434 81.8621 49.5239C81.3661 50.0045 80.9625 50.3277 80.6513 50.4938C80.3602 50.6481 79.9223 50.7961 79.3377 50.9379ZM75.3757 49.3284C75.6213 49.1248 75.8936 49.0656 76.1926 49.1509L76.6903 49.3069C76.9565 49.3734 77.2472 49.4174 77.5622 49.439C77.8652 49.4405 78.2739 49.3882 78.7881 49.2823C79.3023 49.1763 79.6394 49.0764 79.7994 48.9827C79.9802 48.8877 80.2653 48.6554 80.655 48.2861C81.0358 47.9382 81.3163 47.5758 81.4964 47.199C81.6765 46.8221 81.8411 46.3106 81.9902 45.6644C82.1481 44.9968 82.2356 44.5006 82.2526 44.176C82.2679 43.8306 82.259 43.3719 82.2257 42.8C82.1853 42.2703 82.0721 41.6774 81.8861 41.0213C81.7114 40.375 81.5525 39.9363 81.4095 39.7054C81.2649 39.4537 81.04 39.1759 80.7347 38.8719C80.4286 38.5575 80.1553 38.3297 79.9147 38.1885C79.6837 38.0363 79.2632 37.8649 78.6532 37.6743C78.0632 37.472 77.6366 37.3584 77.3736 37.3335C77.1329 37.328 76.6787 37.3988 76.0109 37.5459C75.3847 37.6904 74.8545 37.9278 74.4201 38.2583C73.9561 38.6115 73.6377 38.8876 73.4649 39.0866C73.2936 39.3063 73.0943 39.6373 72.867 40.0798C72.6388 40.5119 72.429 41.0472 72.2376 41.6857C72.0557 42.3131 71.9559 42.7839 71.9381 43.0982C71.9195 43.4021 71.986 43.9979 72.1374 44.8859C72.308 45.7517 72.4716 46.3205 72.6282 46.5922C72.7759 46.8855 73.0732 47.2891 73.5199 47.8033C73.9673 48.3278 74.313 48.6815 74.5568 48.8642C74.7678 49.0281 75.0407 49.1828 75.3757 49.3284ZM86.9339 35.7198C87.0324 35.5047 87.1884 35.3591 87.402 35.2828C87.6259 35.2058 87.8462 35.2178 88.0628 35.3188C88.2899 35.4191 88.4429 35.5763 88.5219 35.7904L88.6812 36.2342C88.8145 36.6119 88.8798 37.0565 88.8772 37.5681C88.8889 37.9952 88.9289 38.6554 88.9972 39.5487C89.043 40.4225 89.0779 41.0151 89.1017 41.3267C89.1471 41.6474 89.1941 41.9888 89.2426 42.351C89.2522 42.4756 89.2749 42.636 89.3107 42.832C89.3757 42.5878 89.453 42.301 89.5427 41.9717C89.7599 41.1228 90.0118 40.3866 90.2984 39.7629C90.5954 39.1385 90.8432 38.6895 91.0416 38.4159C91.2089 38.1442 91.4994 37.776 91.913 37.3112C92.3643 36.7918 92.7931 36.3886 93.1995 36.1017C93.6043 35.7939 94.0054 35.5752 94.4029 35.4454C94.8196 35.2935 95.1899 35.2176 95.5137 35.2178C95.8584 35.2166 96.2249 35.2975 96.6135 35.4605C96.9916 35.6242 97.2729 35.8201 97.4575 36.0484C97.6189 36.2468 97.8542 36.6597 98.1633 37.287C98.4164 37.8657 98.5925 38.3241 98.6914 38.6622C98.78 39.001 98.9005 39.4838 99.0528 40.1107C99.1127 40.3469 99.1765 40.5673 99.2444 40.7717C99.3413 40.4002 99.5275 39.8977 99.803 39.2643C100.111 38.514 100.349 38.003 100.516 37.7313C100.683 37.4493 100.914 37.1214 101.209 36.7477C101.543 36.3401 101.839 36.0394 102.096 35.8455C102.361 35.6198 102.681 35.4427 103.058 35.3143C103.558 35.157 104.083 35.1965 104.634 35.4326C105.163 35.6597 105.587 36.0083 105.905 36.4785C106.123 36.8716 106.29 37.2106 106.406 37.4954C106.489 37.7718 106.625 38.3111 106.811 39.1133C107.02 39.9349 107.155 40.5368 107.216 40.9191C107.286 41.2904 107.391 41.8473 107.531 42.5898C107.651 43.3336 107.751 43.9586 107.831 44.4649C107.912 44.9712 107.972 45.4788 108.01 45.9877C108.068 46.4746 108.122 46.8991 108.17 47.2613C108.219 47.6235 108.26 47.887 108.293 48.0518L108.345 48.3147C108.384 48.5522 108.337 48.764 108.205 48.9498C108.073 49.1357 107.889 49.2467 107.651 49.2828C107.424 49.3182 107.211 49.2692 107.013 49.1357C106.824 48.9912 106.701 48.8061 106.642 48.5802L106.624 48.3465C106.589 48.1609 106.536 47.8773 106.465 47.4956C106.415 47.1127 106.354 46.6573 106.282 46.1296C106.245 45.6415 106.187 45.1546 106.108 44.6691C106.029 44.1836 105.931 43.5846 105.814 42.8719C105.696 42.1488 105.601 41.5965 105.53 41.2149C105.461 40.854 105.329 40.2832 105.133 39.5025C104.948 38.7211 104.816 38.2285 104.738 38.0248C104.684 37.8613 104.584 37.6433 104.437 37.3708C104.342 37.21 104.191 37.0891 103.987 37.0083C103.835 36.9345 103.728 36.91 103.668 36.9348C103.484 36.9883 103.328 37.0713 103.201 37.1838C103.023 37.3204 102.815 37.5373 102.577 37.8343C102.298 38.1548 102.1 38.4233 101.98 38.6396C101.86 38.8456 101.659 39.2864 101.376 39.9621C101.093 40.6273 100.92 41.0976 100.857 41.373C100.797 41.6795 100.717 42.1386 100.618 42.7503C100.528 43.351 100.466 43.9708 100.431 44.6097C100.382 45.3434 100.353 45.7836 100.344 45.9303C100.32 46.1719 100.276 46.4774 100.21 46.8469C100.155 47.2158 100.113 47.4846 100.084 47.6535C100.063 47.6548 100.043 47.6665 100.024 47.6886C100.004 47.7107 99.9597 47.7397 99.8893 47.7755C99.8189 47.8113 99.7433 47.8475 99.6625 47.8839C99.5921 47.9198 99.5061 47.9566 99.4046 47.9944C99.303 48.0322 99.2058 48.0593 99.1131 48.0757C99.0307 48.0914 98.9479 48.1019 98.8648 48.1072C98.7816 48.1125 98.7024 48.1019 98.6273 48.0754C98.5521 48.0489 98.4862 48.0062 98.4295 47.9472C98.3831 47.8875 98.356 47.8058 98.348 47.7019C98.3353 47.5357 98.3234 47.4478 98.3122 47.438C98.3002 47.4179 98.303 47.3864 98.3207 47.3436C98.3383 47.3007 98.3595 47.2367 98.3843 47.1516C98.4116 46.962 98.4258 46.7367 98.4267 46.4757C98.4261 46.194 98.4079 45.8194 98.3722 45.352C98.3157 44.8859 98.2344 44.3693 98.1284 43.802C98 43.2153 97.8795 42.6646 97.7671 42.15C97.6674 41.6658 97.5418 41.1154 97.3902 40.4989C97.2378 39.872 97.115 39.4258 97.0215 39.1605C96.9601 38.9035 96.8156 38.5161 96.588 37.9984C96.4099 37.5818 96.2694 37.3142 96.1663 37.1956C96.1215 37.1567 96.0332 37.0945 95.9013 37.009C95.7718 36.9547 95.6499 36.9312 95.5355 36.9385C95.43 36.9244 95.266 36.9662 95.0437 37.0639C94.7678 37.1442 94.4866 37.2926 94.2002 37.5093C93.9131 37.7155 93.597 38.0227 93.2522 38.431C92.8569 38.8633 92.5948 39.1932 92.466 39.4206C92.3331 39.5961 92.141 39.9529 91.8896 40.4908C91.6383 41.0287 91.4112 41.6799 91.2085 42.4444C90.9865 43.2309 90.8515 43.7875 90.8033 44.1142C90.7624 44.3986 90.7033 44.9242 90.6261 45.6911C90.5809 46.4663 90.5542 47.0056 90.546 47.3088C90.537 47.6016 90.54 47.9823 90.5549 48.4511C90.5699 48.9198 90.5849 49.2528 90.6 49.4501C90.6031 49.4917 90.6119 49.5381 90.6263 49.5894C90.6406 49.6406 90.6642 49.7435 90.6969 49.898C90.7288 50.042 90.7059 50.1531 90.6283 50.2311C90.5611 50.3085 90.4575 50.3882 90.3175 50.4702C90.1775 50.5522 89.9432 50.562 89.6146 50.4995C89.1821 50.4437 88.9023 50.3363 88.7752 50.1775C88.6474 50.0082 88.6307 49.858 88.7251 49.7267L88.8356 49.5317C88.7949 49.2734 88.7571 49.0514 88.722 48.8658C88.6853 48.6594 88.6128 48.257 88.5044 47.6586C88.396 47.0602 88.3035 46.6016 88.2269 46.283C88.1599 45.9533 88.0403 45.3451 87.8681 44.4585C87.6959 43.572 87.5847 42.9372 87.5346 42.5542C87.486 42.192 87.4382 41.8402 87.3912 41.4988C87.365 41.1561 87.3278 40.5322 87.2795 39.6273C87.2097 38.7133 87.1677 38.0271 87.1536 37.5688C87.1498 37.2455 87.1191 36.9813 87.0617 36.7762L86.906 36.3791C86.8253 36.1442 86.8347 35.9244 86.9339 35.7198ZM110.218 33.4627C110.201 33.2342 110.205 33.0096 110.23 32.7888C110.265 32.5674 110.327 32.3495 110.415 32.1351C110.503 31.9207 110.642 31.7605 110.832 31.6543C111.033 31.5476 111.271 31.5219 111.547 31.5773C111.635 32.177 111.711 33.1689 111.775 34.553C111.848 35.926 111.919 36.913 111.985 37.5141C112.121 37.6515 112.325 37.8629 112.598 38.1481C113.018 37.9021 113.691 37.5511 114.617 37.0952C116.492 36.7456 117.993 36.6391 119.121 36.7757C119.582 37.0697 119.912 37.2835 120.11 37.4169C120.309 37.5503 120.591 37.7567 120.957 38.0359C121.322 38.3048 121.625 38.5777 121.865 38.8545C122.105 39.121 122.315 39.4102 122.496 39.7222C122.611 39.9967 122.697 40.3043 122.754 40.645C122.811 40.9754 122.838 41.2607 122.835 41.5009C122.843 41.7301 122.842 42.0589 122.833 42.4874C122.833 42.9049 122.834 43.197 122.837 43.3639C122.285 44.3385 121.526 45.149 120.563 45.7951C119.598 46.4309 118.582 46.8768 117.515 47.133C116.448 47.3787 115.333 47.4866 114.171 47.4566C113.822 47.3954 113.505 47.2904 113.222 47.1415C112.939 46.9926 112.695 46.7995 112.489 46.5622C112.282 46.3145 112.101 46.0652 111.946 45.8142C111.801 45.5625 111.669 45.2631 111.548 44.9159C111.428 44.5688 111.331 44.2619 111.258 43.9951C111.186 43.7284 111.11 43.4202 111.031 43.0703C110.526 39.7419 110.255 36.5394 110.218 33.4627ZM112.543 40.2965C112.646 42.1895 112.764 43.6065 112.899 44.5477C113.008 44.6138 113.176 44.7544 113.401 44.9696C113.626 45.1744 113.836 45.3331 114.033 45.4458C114.23 45.5585 114.442 45.6075 114.671 45.5928C115.361 45.6009 116.031 45.5476 116.68 45.433C117.339 45.3073 117.983 45.1148 118.61 44.8554C119.249 44.5954 119.795 44.2213 120.248 43.733C120.711 43.2337 121.027 42.6447 121.194 41.966C121.143 41.4266 121.102 41.0274 121.072 40.7684C121.024 40.6879 120.928 40.5271 120.784 40.2858C120.639 40.0341 120.543 39.868 120.495 39.7876C119.973 39.247 119.349 38.8642 118.621 38.6394C117.904 38.4139 117.183 38.3453 116.459 38.4334C115.733 38.5111 115.023 38.7131 114.327 39.0394C113.641 39.3651 113.047 39.7841 112.543 40.2965ZM124.818 30.7438C124.914 30.7689 125.037 30.808 125.188 30.861C125.348 30.903 125.519 30.9547 125.701 31.0161C125.893 31.0664 126.026 31.0996 126.1 31.1158C126.454 32.6065 126.735 34.222 126.941 35.9622C127.146 37.6921 127.277 39.2754 127.335 40.712C127.392 42.1383 127.423 43.7749 127.428 45.622C127.16 45.6704 126.538 45.8041 125.563 46.0231C125.498 45.1714 125.47 44.333 125.48 43.5078C125.637 42.548 125.702 41.4897 125.676 40.3328C125.651 39.1759 125.564 38.1117 125.417 37.14C125.28 36.1677 125.152 35.1061 125.032 33.9552C124.912 32.7939 124.841 31.7234 124.818 30.7438ZM28.4094 66.8935C28.1862 66.9809 27.9663 66.9741 27.7497 66.8731C27.5426 66.7611 27.3996 66.598 27.3206 66.3839C27.2407 66.1594 27.2449 65.94 27.3329 65.7256L27.5587 65.1945C27.7005 64.8619 27.8265 64.5981 27.937 64.4032C28.0435 64.1563 28.292 63.7855 28.6825 63.2909C29.0906 62.7533 29.5198 62.2875 29.9703 61.8934C30.4103 61.4999 30.7599 61.2218 31.019 61.0591C31.287 60.875 31.7505 60.6523 32.4095 60.3909C33.119 60.1055 33.7631 59.9912 34.342 60.0481C34.9409 60.0932 35.5485 60.3205 36.1648 60.7299C36.7498 61.1412 37.1542 61.512 37.3779 61.8421C37.5465 62.134 37.7501 62.6115 37.9888 63.2746C38.2091 63.9703 38.3383 64.6352 38.3763 65.2694C38.4024 65.8836 38.3268 66.6034 38.1496 67.4288C37.9772 68.3165 37.6041 69.1754 37.0303 70.0053C36.4933 70.7703 35.934 71.448 35.3523 72.0384C34.8018 72.6268 34.2282 73.1853 33.6314 73.7141C33.0953 74.218 32.5065 74.7828 31.8648 75.4083C31.2224 76.0235 30.7948 76.4422 30.5819 76.6646C30.3787 76.8759 30.1091 77.175 29.773 77.5618C29.4385 77.9693 29.1857 78.283 29.0144 78.5027C29.0144 78.5027 29.0056 78.5241 28.988 78.567C29.1959 78.5537 29.3779 78.5421 29.5338 78.5321C29.7921 78.4947 30.0556 78.4569 30.3243 78.4189C30.6034 78.3801 31.1755 78.2809 32.0408 78.1212C32.9253 77.9393 33.5467 77.8004 33.905 77.7044C34.3056 77.6162 34.6907 77.5289 35.0602 77.4426C35.4624 77.3751 36.0982 77.2875 36.9674 77.1797C37.8366 77.0719 38.4116 77.009 38.6923 76.991C38.9937 76.9718 39.3228 76.9716 39.6794 76.9905L40.1987 77.0199C40.4394 77.0254 40.6453 77.1218 40.8163 77.3092C40.9865 77.4861 41.0647 77.6899 41.051 77.9204C41.0365 78.1405 40.942 78.3396 40.7676 78.5178C40.6028 78.6849 40.4053 78.7653 40.175 78.7592L39.6556 78.7298C39.3302 78.7089 39.0527 78.7005 38.8232 78.7048C38.5634 78.7214 38.02 78.7875 37.1931 78.903C36.3758 79.0075 35.7869 79.0922 35.4262 79.157C35.0655 79.2218 34.7057 79.297 34.3466 79.3826C33.9459 79.4709 33.3034 79.606 32.4189 79.7878C31.5136 79.971 30.901 80.0884 30.5812 80.1402C30.2813 80.1803 30.0074 80.2187 29.7595 80.2554C29.4788 80.2734 29.115 80.2967 28.668 80.3253C28.2314 80.3532 27.9031 80.3638 27.6832 80.357C27.401 80.3542 27.1232 80.2049 26.8499 79.9093C26.587 79.613 26.5408 79.282 26.7113 78.9162C26.7818 78.7447 26.9006 78.5231 27.0679 78.2515C27.2184 78.0331 27.3928 77.7871 27.5913 77.5135C27.7794 77.2405 28.0658 76.8882 28.4507 76.4565C28.8044 76.0269 29.0924 75.6953 29.3148 75.4619C29.5469 75.2174 29.9837 74.7824 30.6254 74.1569C31.2766 73.5203 31.891 72.9487 32.4687 72.4421C33.0255 71.9368 33.5747 71.4006 34.1164 70.8337C34.6284 70.2895 35.1246 69.6733 35.6047 68.985C36.0481 68.3617 36.3335 67.7224 36.461 67.0672C36.6165 66.3684 36.6764 65.7853 36.6407 65.3179C36.6258 64.8492 36.5301 64.3491 36.3537 63.8176C36.1773 63.2862 36.0252 62.9358 35.8973 62.7666C35.8238 62.6252 35.5945 62.4259 35.2092 62.1687C34.8447 61.9103 34.5269 61.7845 34.2559 61.7914C33.9304 61.7704 33.529 61.8483 33.0515 62.025C32.5133 62.2264 32.1497 62.3906 31.961 62.5175C31.7818 62.6333 31.5014 62.86 31.1198 63.1975C30.7582 63.5234 30.4061 63.906 30.0636 64.3454C29.7315 64.7841 29.5339 65.0681 29.4706 65.1974C29.3986 65.3481 29.2917 65.5898 29.15 65.9224L28.8906 66.4244C28.8025 66.6387 28.6421 66.7951 28.4094 66.8935ZM45.9377 73.3806C45.9424 73.4429 45.9584 73.515 45.9855 73.5967C46.0884 74.1225 46.1773 74.5343 46.2523 74.8321C46.305 74.9749 46.3453 75.0923 46.3732 75.1845C46.4723 75.3869 46.7555 75.7445 47.223 76.2573C47.6673 76.7403 48.0985 77.0519 48.5167 77.1922C48.9156 77.3545 49.3985 77.3862 49.9655 77.2873C50.5341 77.2092 50.9996 77.0124 51.362 76.697C51.8036 76.3243 52.0792 76.0353 52.1889 75.83C52.3009 75.6558 52.4011 75.258 52.4894 74.6366C52.5689 74.0365 52.5796 73.6288 52.5213 73.4134C52.4431 73.2096 52.1998 72.8286 51.7915 72.2702C51.4048 71.7209 51.1239 71.3945 50.9489 71.2909C50.7522 71.1782 50.3869 71.045 49.8528 70.8913C49.3931 70.7537 48.9118 70.7428 48.4087 70.8585C47.8657 70.9976 47.5254 71.1237 47.3878 71.2369C47.2102 71.3735 46.9646 71.645 46.6509 72.0512C46.4589 72.2722 46.3028 72.4858 46.1827 72.6917C46.1299 72.8204 46.0815 72.9383 46.0374 73.0455C46.003 73.1416 45.9697 73.2533 45.9377 73.3806ZM45.2594 76.6021C45.1075 76.5284 44.9892 76.4159 44.9045 76.2648L44.6912 75.934C44.4811 75.6448 44.3457 75.3768 44.2851 75.1302C44.2029 74.8746 44.1623 74.4805 44.1634 73.9482C44.1699 73.7599 44.1768 73.5768 44.1841 73.3989C44.0693 72.7174 43.9969 72.1793 43.9667 71.7846C43.9294 71.2964 43.9339 70.4664 43.9801 69.2945C44.0264 68.1226 44.0924 67.2781 44.1783 66.7612C44.2626 66.2235 44.4685 65.5006 44.796 64.5925C45.134 63.6837 45.4594 62.9532 45.7724 62.4009C46.0926 61.8063 46.4683 61.2552 46.8996 60.7475C47.3141 60.2931 47.6337 59.9647 47.8585 59.7624C48.0849 59.581 48.3577 59.3913 48.6769 59.1934L49.1412 58.9132C49.3396 58.7753 49.5559 58.7354 49.7901 58.7934C50.0348 58.8508 50.217 58.9801 50.3369 59.1812C50.4663 59.3712 50.4986 59.5883 50.4336 59.8325C50.3783 60.0657 50.2611 60.2402 50.0819 60.356L49.6176 60.6362C49.348 60.7996 49.1352 60.9541 48.9792 61.0998C48.8224 61.235 48.5664 61.5071 48.2111 61.916C47.8559 62.3249 47.5446 62.7623 47.2772 63.2283C47.0115 63.7149 46.7324 64.3695 46.4401 65.1918C46.1582 66.0135 45.9711 66.6413 45.8789 67.0751C45.8091 67.5284 45.7479 68.2994 45.6953 69.3883C45.6846 69.796 45.6708 70.1622 45.6539 70.4868C45.8955 70.2313 46.1043 70.0248 46.2803 69.8675C46.6051 69.6066 47.1674 69.3776 47.9671 69.1803C48.8084 68.9803 49.598 68.9924 50.3359 69.2166C50.9899 69.4356 51.4912 69.6384 51.8397 69.8248C52.201 70.0418 52.6501 70.5192 53.187 71.2572C53.6896 71.9557 54.0139 72.509 54.16 72.9171C54.2997 73.3779 54.3181 74.029 54.2153 74.8706C54.0932 75.7342 53.9162 76.3561 53.6841 76.7363C53.4712 77.0943 53.0855 77.5156 52.5271 78.0001C51.9095 78.5302 51.1517 78.8657 50.2536 79.0067C49.3644 79.1262 48.5816 79.0667 47.9052 78.8282C47.2385 78.5786 46.5915 78.1086 45.9642 77.4181C45.6805 77.1231 45.4455 76.8512 45.2594 76.6021ZM79.7263 63.6099C79.3401 63.6137 79.0316 64.0196 78.8008 64.8276C77.199 69.4285 75.9598 72.5555 75.0833 74.2085C74.9896 74.3501 74.8748 74.5558 74.7387 74.8254C74.3904 75.5992 74.0442 76.2632 73.7 76.8175C73.3679 77.392 73.1062 77.7949 72.9149 78.0263C72.7277 78.3097 72.5872 78.4543 72.4937 78.4603C72.1818 78.4803 71.9616 78.4004 71.8329 78.2208C71.6955 78.0626 71.6105 77.7706 71.578 77.3447C71.5359 76.7942 71.9482 75.9694 72.8148 74.8703C73.7167 73.5496 74.8074 71.3507 76.087 68.2733C77.3312 65.4174 78.3214 62.8596 79.0575 60.5998C79.1321 60.2088 79.263 60.0074 79.4501 59.9954C79.554 59.9888 79.7775 60.0423 80.1205 60.156C80.413 60.2939 80.5957 60.4283 80.6684 60.5593C80.7914 60.802 81.0843 61.7643 81.5471 63.4464C82.3905 66.6906 83.2234 69.2518 84.0459 71.13C84.878 73.1329 85.7104 74.4574 86.5433 75.1034C86.851 75.3028 87.0332 75.4321 87.09 75.4911C87.1108 75.4897 87.1208 75.4839 87.12 75.4735C87.1446 75.7955 87.0892 76.0965 86.9539 76.3765C86.8187 76.6565 86.6858 76.832 86.5554 76.903C86.4155 76.985 86.0752 77.0433 85.5346 77.0779C85.2932 76.9264 84.8313 76.4184 84.149 75.554C83.3187 74.5321 82.2325 71.5957 80.8903 66.7448C80.5489 65.4203 80.2771 64.5296 80.0751 64.0729L79.9458 63.6115L79.7263 63.6099ZM91.4953 67.3187C91.6409 67.3094 91.7872 67.3104 91.9343 67.3219C92.1007 67.3113 92.4501 67.3046 92.9826 67.3018C93.5248 67.288 93.9154 67.2734 94.1545 67.2581C94.3936 67.2428 94.6215 67.2178 94.8382 67.1831C95.0541 67.1379 95.4604 67.0545 96.057 66.9329C96.6448 66.8326 97.0202 66.7564 97.1834 66.7042C97.3569 66.6514 97.5949 66.5527 97.8972 66.4081C98.1699 66.2862 98.3459 66.1967 98.4251 66.1394C98.4827 66.0731 98.5639 65.974 98.6687 65.8421C98.7456 65.7536 98.8092 65.6295 98.8597 65.4698C98.9078 65.2788 98.939 65.1411 98.9535 65.0567C98.9471 64.9736 98.9012 64.7835 98.8159 64.4862C98.7305 64.189 98.6638 64.0002 98.6159 63.9198C98.5471 63.8407 98.4065 63.7088 98.1939 63.5241C97.9909 63.3283 97.7875 63.1952 97.5836 63.1248C97.335 63.0154 97.1203 62.9404 96.9397 62.8998C96.7582 62.8488 96.4527 62.8162 96.0233 62.8019C95.6132 62.7655 95.2745 62.7768 95.0074 62.8356C94.7491 62.873 94.4488 62.9757 94.1065 63.1437C93.7633 63.3014 93.5222 63.4264 93.383 63.5188C93.2454 63.632 93.0522 63.8374 92.8033 64.1352C92.5537 64.4225 92.322 64.8078 92.1082 65.2912C91.8648 65.7973 91.7203 66.1614 91.6746 66.3835C91.6249 66.5537 91.5652 66.8654 91.4953 67.3187ZM89.6383 67.8289C89.6672 67.6601 89.6949 67.4756 89.7214 67.2756C89.8185 66.6328 89.9136 66.1674 90.0065 65.8797C90.089 65.5926 90.2696 65.1531 90.5482 64.5613C90.846 63.9473 91.1569 63.4368 91.481 63.0299C91.7963 62.6445 92.0671 62.361 92.2935 62.1795C92.5391 61.9759 92.8942 61.7705 93.3589 61.5634C93.8332 61.3452 94.2815 61.1964 94.7037 61.1172C95.106 61.0497 95.5746 61.0302 96.1095 61.0586C96.6444 61.087 97.0506 61.1393 97.328 61.2155C97.6047 61.2813 97.9097 61.3766 98.243 61.5013C98.6212 61.665 98.9788 61.9031 99.3161 62.2155C99.6853 62.5363 99.9299 62.7972 100.05 62.9983C100.19 63.198 100.336 63.5383 100.488 64.0192C100.629 64.5007 100.699 64.8615 100.696 65.1017C100.693 65.3316 100.637 65.6222 100.528 65.9736C100.41 66.3464 100.257 66.6693 100.069 66.9423C99.877 67.1633 99.6974 67.3418 99.5302 67.4778C99.3526 67.6144 99.0523 67.7849 98.6291 67.9894C98.254 68.1387 97.9497 68.2573 97.7162 68.3453C97.4922 68.4223 97.056 68.5232 96.4074 68.6482C95.8005 68.7706 95.3626 68.8508 95.0939 68.8888C94.8252 68.9269 94.5557 68.9546 94.2855 68.9719C94.0464 68.9872 93.6454 69.0024 93.0824 69.0175C92.5195 69.0327 92.1492 69.0407 91.9717 69.0417C91.8046 69.0419 91.6483 69.0467 91.5027 69.056C91.4404 69.06 91.3624 69.065 91.2688 69.071C91.2608 69.2385 91.2523 69.4008 91.2434 69.5579C91.2385 69.767 91.2846 70.1659 91.3818 70.7546C91.4783 71.3329 91.5544 71.7142 91.6103 71.8985C91.6677 72.1035 91.7516 72.3121 91.8618 72.5243C91.9385 72.7072 92.0966 72.9998 92.3363 73.4019C92.5512 73.7535 92.7541 74.0171 92.9451 74.1927C93.1713 74.4183 93.3663 74.5781 93.5302 74.6719C93.6629 74.7678 93.9279 74.8865 94.3252 75.0281C94.7241 75.1905 95.0779 75.3087 95.3865 75.3829C95.6943 75.4467 96.0465 75.4764 96.4431 75.4719C96.8725 75.4861 97.1644 75.4779 97.3187 75.4471C97.4435 75.4392 97.6822 75.3508 98.0349 75.1821C98.3477 75.0369 98.5532 74.9246 98.6516 74.8452C98.7492 74.7555 98.8352 74.6508 98.9097 74.5312C98.9841 74.4117 99.0878 74.1963 99.2207 73.8851C99.3416 73.5538 99.4265 73.2979 99.4754 73.1173C99.5235 72.9264 99.5628 72.7569 99.5932 72.6088L99.6366 72.3555C99.6599 72.114 99.7656 71.9246 99.9535 71.7873C100.152 71.6494 100.367 71.5939 100.599 71.6208C100.841 71.647 101.033 71.76 101.173 71.9598C101.323 72.1484 101.387 72.3584 101.362 72.5895L101.323 72.8895C101.276 73.1013 101.216 73.3347 101.141 73.59C101.076 73.8342 100.965 74.1545 100.807 74.5507C100.651 74.9678 100.498 75.2855 100.347 75.5038C100.206 75.7112 100.044 75.9042 99.8587 76.0831C99.6651 76.2833 99.3116 76.5095 98.7981 76.7615C98.2822 76.9824 97.8851 77.1174 97.6068 77.1665C97.3485 77.2039 96.9631 77.2181 96.4505 77.2092C95.9172 77.2016 95.4434 77.1536 95.0293 77.0653C94.6143 76.9666 94.1754 76.8277 93.7126 76.6485C93.2057 76.4409 92.8264 76.2617 92.5746 76.1108C92.354 75.9579 92.0919 75.7398 91.7882 75.4566C91.4621 75.1539 91.1549 74.7561 90.8665 74.2631C90.5709 73.8124 90.3708 73.4494 90.2662 73.1743C90.1424 72.9213 90.0398 72.6722 89.9584 72.4269C89.8746 72.1504 89.7757 71.6767 89.6617 71.0055C89.5574 70.3234 89.5097 69.8359 89.5186 69.543C89.518 69.2613 89.5277 68.9789 89.5479 68.6958C89.5431 68.6334 89.5488 68.5705 89.5648 68.5068C89.56 68.4445 89.5561 68.3926 89.5529 68.351C89.5186 68.1758 89.5471 68.0017 89.6383 67.8289ZM103.962 60.6814C104.061 60.4663 104.217 60.3206 104.43 60.2444C104.654 60.1674 104.875 60.1794 105.091 60.2804C105.318 60.3806 105.471 60.5378 105.55 60.752L105.71 61.1958C105.843 61.5734 105.908 62.018 105.906 62.5296C105.917 62.9568 105.957 63.617 106.026 64.5102C106.071 65.384 106.106 65.9767 106.13 66.2883C106.176 66.609 106.223 66.9504 106.271 67.3126C106.281 67.4372 106.303 67.5975 106.339 67.7935C106.404 67.5493 106.481 67.2626 106.571 66.9333C106.788 66.0844 107.04 65.3481 107.327 64.7244C107.624 64.1001 107.872 63.6511 108.07 63.3775C108.237 63.1058 108.528 62.7376 108.941 62.2728C109.393 61.7533 109.822 61.3502 110.228 61.0632C110.633 60.7555 111.034 60.5368 111.431 60.407C111.848 60.255 112.218 60.1792 112.542 60.1793C112.887 60.1781 113.253 60.2591 113.642 60.4221C114.02 60.5857 114.301 60.7817 114.486 61.0099C114.647 61.2084 114.883 61.6212 115.192 62.2486C115.445 62.8273 115.621 63.2857 115.72 63.6238C115.808 63.9625 115.929 64.4454 116.081 65.0723C116.141 65.3085 116.205 65.5288 116.273 65.7332C116.37 65.3617 116.556 64.8593 116.831 64.2259C117.14 63.4755 117.377 62.9645 117.545 62.6929C117.711 62.4109 117.942 62.083 118.237 61.7092C118.572 61.3017 118.867 61.001 119.124 60.8071C119.389 60.5814 119.71 60.4043 120.086 60.2758C120.586 60.1186 121.112 60.1581 121.662 60.3942C122.192 60.6212 122.615 60.9699 122.933 61.4401C123.151 61.8332 123.318 62.1721 123.434 62.457C123.518 62.7334 123.653 63.2727 123.84 64.0749C124.049 64.8965 124.184 65.4984 124.244 65.8807C124.314 66.252 124.419 66.8088 124.56 67.5513C124.679 68.2952 124.779 68.9202 124.86 69.4265C124.94 69.9328 125 70.4404 125.039 70.9493C125.097 71.4361 125.15 71.8606 125.199 72.2228C125.247 72.585 125.288 72.8485 125.322 73.0134L125.373 73.2763C125.412 73.5138 125.366 73.7255 125.234 73.9114C125.102 74.0973 124.917 74.2083 124.68 74.2443C124.452 74.2797 124.24 74.2307 124.042 74.0973C123.853 73.9528 123.729 73.7676 123.67 73.5418L123.652 73.3081C123.617 73.1225 123.564 72.8389 123.493 72.4572C123.443 72.0743 123.382 71.6189 123.31 71.0912C123.273 70.603 123.215 70.1162 123.136 69.6307C123.057 69.1452 122.959 68.5461 122.842 67.8335C122.724 67.1104 122.63 66.5581 122.559 66.1764C122.489 65.8156 122.357 65.2448 122.161 64.4641C121.976 63.6827 121.845 63.1901 121.767 62.9864C121.712 62.8229 121.612 62.6049 121.466 62.3324C121.37 62.1716 121.22 62.0507 121.015 61.9699C120.863 61.8961 120.757 61.8716 120.696 61.8963C120.512 61.9499 120.357 62.0329 120.229 62.1454C120.052 62.282 119.844 62.4988 119.605 62.7959C119.327 63.1164 119.128 63.3848 119.009 63.6012C118.889 63.8072 118.687 64.248 118.405 64.9236C118.121 65.5889 117.948 66.0592 117.886 66.3345C117.826 66.6411 117.746 67.1002 117.646 67.7119C117.556 68.3126 117.494 68.9324 117.459 69.5713C117.411 70.305 117.382 70.7452 117.372 70.8919C117.349 71.1335 117.304 71.439 117.238 71.8085C117.183 72.1773 117.141 72.4462 117.112 72.615C117.091 72.6164 117.071 72.6281 117.052 72.6502C117.033 72.6723 116.988 72.7012 116.918 72.7371C116.847 72.7729 116.772 72.809 116.691 72.8455C116.621 72.8813 116.535 72.9181 116.433 72.9559C116.331 72.9938 116.234 73.0209 116.141 73.0372C116.059 73.0529 115.976 73.0634 115.893 73.0688C115.81 73.0741 115.731 73.0635 115.656 73.037C115.581 73.0105 115.515 72.9677 115.458 72.9088C115.412 72.8491 115.384 72.7673 115.376 72.6635C115.364 72.4973 115.352 72.4093 115.341 72.3996C115.329 72.3795 115.331 72.348 115.349 72.3051C115.367 72.2623 115.388 72.1983 115.413 72.1132C115.44 71.9236 115.454 71.6983 115.455 71.4373C115.454 71.1555 115.436 70.7809 115.401 70.3136C115.344 69.8475 115.263 69.3308 115.157 68.7636C115.028 68.1769 114.908 67.6262 114.796 67.1115C114.696 66.6274 114.57 66.077 114.419 65.4605C114.266 64.8336 114.143 64.3874 114.05 64.122C113.989 63.865 113.844 63.4777 113.616 62.9599C113.438 62.5434 113.298 62.2758 113.195 62.1572C113.15 62.1183 113.062 62.0561 112.93 61.9706C112.8 61.9163 112.678 61.8927 112.564 61.9001C112.458 61.8859 112.294 61.9277 112.072 62.0255C111.796 62.1057 111.515 62.2542 111.229 62.4708C110.941 62.6771 110.625 62.9843 110.281 63.3926C109.885 63.8249 109.623 64.1548 109.494 64.3822C109.362 64.5577 109.169 64.9144 108.918 65.4524C108.667 65.9903 108.44 66.6415 108.237 67.406C108.015 68.1925 107.88 68.7491 107.832 69.0757C107.791 69.3602 107.732 69.8858 107.655 70.6527C107.609 71.4279 107.583 71.9671 107.574 72.2703C107.565 72.5631 107.568 72.9439 107.583 73.4126C107.598 73.8813 107.613 74.2144 107.628 74.4117C107.632 74.4533 107.64 74.4997 107.655 74.5509C107.669 74.6022 107.693 74.7051 107.725 74.8595C107.757 75.0036 107.734 75.1147 107.657 75.1927C107.59 75.27 107.486 75.3497 107.346 75.4318C107.206 75.5138 106.972 75.5235 106.643 75.4611C106.21 75.4053 105.931 75.2979 105.804 75.139C105.676 74.9698 105.659 74.8195 105.754 74.6882L105.864 74.4933C105.823 74.235 105.785 74.013 105.75 73.8274C105.714 73.621 105.641 73.2186 105.533 72.6201C105.424 72.0217 105.332 71.5632 105.255 71.2445C105.188 70.9148 105.069 70.3067 104.897 69.4201C104.724 68.5335 104.613 67.8988 104.563 67.5158C104.514 67.1536 104.467 66.8018 104.42 66.4604C104.393 66.1176 104.356 65.4938 104.308 64.5888C104.238 63.6748 104.196 62.9887 104.182 62.5303C104.178 62.207 104.148 61.9428 104.09 61.7378L103.934 61.3407C103.854 61.1058 103.863 60.886 103.962 60.6814Z" fill="#242424"/>
</svg>
