<svg width="292" height="99" viewBox="0 0 292 99" fill="none" xmlns="http://www.w3.org/2000/svg">
<path d="M79.573 23.3766C113.563 20.8788 193.573 12.3766 264.073 37.8766C272.052 40.7626 -6.47287 32.8604 31.5729 62.8766C52.5223 79.4047 163.399 71.872 226.073 66.3766" stroke="#0CE9CA" stroke-width="28" stroke-linecap="round"/>
<path d="M94.2054 33.1527C94.1046 33.2009 93.9911 33.2186 93.8647 33.2058C93.6241 33.2004 93.4138 33.1147 93.234 32.9487C93.0638 32.7718 92.9851 32.5628 92.9981 32.3219L93.0045 31.5857C92.988 31.0962 92.9766 30.7421 92.9703 30.5233C92.9632 30.2941 92.9483 29.8933 92.9254 29.3207C92.8818 28.7494 92.8393 28.1938 92.798 27.6537C92.7783 27.1226 92.7495 26.4722 92.7116 25.7022C92.6728 24.9219 92.6484 24.3286 92.6382 23.9222C92.6281 23.5158 92.6045 22.7971 92.5675 21.7662C92.5313 20.7457 92.4981 20.0381 92.4679 19.6434C92.4378 19.2487 92.3833 18.6729 92.3046 17.9161C92.2251 17.1488 92.1579 16.5425 92.1029 16.0972C92.0448 15.6104 92.0007 15.1696 91.9706 14.775C91.9404 14.3803 91.9286 14.0888 91.9351 13.9005C91.9313 13.5772 92.037 13.3199 92.2522 13.1287C92.477 12.9265 92.7281 12.7956 93.0056 12.7361C93.2831 12.6766 93.505 12.6415 93.6714 12.6309C93.7961 12.6229 94.1124 12.5922 94.6202 12.5389C95.1279 12.4855 95.5118 12.4505 95.7717 12.4339C96.0508 12.3951 96.5186 12.3652 97.1751 12.3441C97.9027 12.2975 98.5668 12.3072 99.1673 12.3731C99.7486 12.4612 100.194 12.5527 100.504 12.6477C100.835 12.7309 101.332 12.9444 101.995 13.2881C102.658 13.6318 103.212 13.9773 103.657 14.3246C104.05 14.6857 104.339 14.9803 104.524 15.2085C104.708 15.4368 104.929 15.7932 105.185 16.2778C105.433 16.7942 105.583 17.176 105.633 17.4233C105.683 17.6706 105.703 17.9981 105.692 18.4058C105.661 18.8149 105.584 19.1798 105.463 19.5007C105.318 19.7918 105.107 20.108 104.83 20.4493C104.552 20.7698 104.199 21.0793 103.773 21.378C103.613 21.4717 103.448 21.5762 103.28 21.6913C103.816 21.7405 104.283 21.8307 104.679 21.9619C105.182 22.1176 105.66 22.3531 106.112 22.6686C106.628 23.0009 107.039 23.3817 107.343 23.811C107.648 24.2403 107.846 24.6451 107.937 25.0254C108.029 25.4057 108.021 25.8446 107.913 26.3421C107.824 26.8175 107.654 27.2667 107.405 27.6897C107.155 28.1127 106.792 28.5638 106.317 29.043C105.901 29.4767 105.581 29.7947 105.356 29.9969C105.131 30.1992 104.911 30.3959 104.696 30.5871C104.429 30.792 103.988 31.0969 103.371 31.5016C102.754 31.9064 102.173 32.2306 101.628 32.4743C101.095 32.7484 100.686 32.9363 100.402 33.038C100.107 33.1404 99.63 33.2596 98.9718 33.3957C98.3248 33.5415 97.861 33.6233 97.5803 33.6413C97.2996 33.6592 96.891 33.6436 96.3545 33.5945C95.818 33.5453 95.4534 33.4904 95.2607 33.4296C95.0705 33.4 94.8414 33.3416 94.5736 33.2544C94.4353 33.2215 94.3125 33.1876 94.2054 33.1527ZM94.3267 22.4364C94.5122 22.4037 94.7133 22.3699 94.93 22.3352C95.3131 22.2898 95.8293 22.2098 96.4786 22.0952C97.1304 22.0118 97.6062 21.95 97.906 21.9099C98.2059 21.8699 98.511 21.8295 98.8213 21.7887C98.946 21.7808 99.1072 21.7705 99.3047 21.7578C99.3655 21.733 99.4262 21.7083 99.487 21.6835C99.7406 21.5838 100.109 21.4193 100.593 21.19C101.076 20.9504 101.473 20.7475 101.785 20.5815C102.096 20.4155 102.425 20.2118 102.772 19.9704C103.078 19.742 103.318 19.5232 103.49 19.3139C103.662 19.1149 103.785 18.9349 103.856 18.7738C103.91 18.666 103.944 18.4916 103.957 18.2507C103.98 18.0092 103.979 17.8527 103.952 17.7813C103.922 17.658 103.815 17.4144 103.63 17.0505C103.433 16.656 103.288 16.3992 103.195 16.2798C103.08 16.1411 102.849 15.921 102.502 15.6197C102.2 15.3572 101.772 15.0871 101.218 14.8095C100.663 14.5214 100.274 14.3532 100.051 14.3049C99.8371 14.2351 99.4713 14.1645 98.954 14.0933C98.4591 14.0414 97.9097 14.0296 97.306 14.0578C96.6703 14.0776 96.2233 14.1062 95.965 14.1436C95.7051 14.1603 95.3213 14.1953 94.8135 14.2486C94.3057 14.302 93.979 14.3333 93.8335 14.3426C93.7919 14.3453 93.74 14.3486 93.6776 14.3526C93.6871 14.4773 93.6954 14.5863 93.7026 14.6798C93.7304 15.0433 93.7717 15.4477 93.8266 15.893C93.8831 16.3591 93.9512 16.9757 94.0307 17.743C94.1118 18.531 94.1682 19.1328 94.2 19.5482C94.2309 19.9533 94.2657 20.6817 94.3043 21.7334C94.3217 21.9619 94.3292 22.1962 94.3267 22.4364ZM99.7019 23.4702C99.5387 23.5224 99.3504 23.5866 99.1369 23.6629C98.7186 23.794 98.2387 23.9395 97.6973 24.0994C97.1335 24.2399 96.7124 24.3347 96.4341 24.3838C96.1343 24.4239 95.7177 24.4401 95.1843 24.4325C94.8397 24.4336 94.573 24.4298 94.3843 24.421C94.4105 24.7638 94.4255 25.1646 94.4292 25.6236C94.4687 26.4143 94.4975 27.0648 94.5156 27.5751C94.5545 28.084 94.597 28.6397 94.643 29.2421C94.6675 29.8354 94.688 30.2412 94.7047 30.4593C94.7022 30.6995 94.7072 31.0384 94.7197 31.476C94.8061 31.5122 94.9184 31.5467 95.0567 31.5796C95.3021 31.6474 95.4892 31.7033 95.6179 31.7473C95.7459 31.7808 96.0365 31.8248 96.4898 31.8793C96.9416 31.913 97.261 31.9239 97.4482 31.9119C97.6353 31.9 98.0167 31.8338 98.5925 31.7135C99.1787 31.5925 99.5786 31.4938 99.7921 31.4175C100.026 31.3399 100.385 31.1761 100.867 30.926C101.341 30.7078 101.857 30.4139 102.414 30.0443C102.981 29.674 103.368 29.4092 103.575 29.2498C103.803 29.0891 104.004 28.9145 104.178 28.7259C104.374 28.5672 104.67 28.2717 105.066 27.8394C105.443 27.4499 105.715 27.109 105.881 26.8165C106.046 26.5241 106.156 26.251 106.21 25.997C106.273 25.7321 106.278 25.5282 106.226 25.3855C106.194 25.2414 106.09 25.0497 105.915 24.8104C105.75 24.56 105.513 24.3247 105.203 24.1045C104.863 23.8862 104.515 23.7153 104.161 23.5919C103.809 23.4892 103.355 23.4243 102.799 23.3973C102.389 23.3609 101.938 23.3479 101.448 23.3584C101.209 23.3737 100.965 23.3894 100.715 23.4053C100.34 23.4085 100.002 23.4301 99.7019 23.4702ZM110.306 16.6546C110.289 16.4261 110.293 16.2014 110.317 15.9807C110.353 15.7592 110.414 15.5413 110.503 15.3269C110.591 15.1126 110.73 14.9523 110.92 14.8462C111.121 14.7394 111.359 14.7137 111.635 14.7691C111.723 15.3689 111.799 16.3608 111.863 17.7448C111.936 19.1178 112.006 20.1049 112.073 20.706C112.209 20.8434 112.413 21.0547 112.686 21.34C113.106 21.0939 113.779 20.7429 114.705 20.2871C116.579 19.9375 118.081 19.831 119.209 19.9675C119.67 20.2616 120 20.4753 120.198 20.6088C120.396 20.7422 120.679 20.9485 121.045 21.2278C121.41 21.4967 121.713 21.7695 121.953 22.0464C122.193 22.3128 122.403 22.6021 122.584 22.9141C122.699 23.1885 122.785 23.4961 122.842 23.8369C122.899 24.1672 122.926 24.4525 122.923 24.6927C122.93 24.9219 122.929 25.2507 122.92 25.6793C122.921 26.0967 122.922 26.3889 122.925 26.5557C122.372 27.5304 121.614 28.3408 120.65 28.987C119.686 29.6227 118.67 30.0687 117.603 30.3248C116.535 30.5706 115.421 30.6784 114.259 30.6484C113.909 30.5873 113.593 30.4822 113.31 30.3334C113.027 30.1845 112.783 29.9914 112.577 29.7541C112.37 29.5064 112.189 29.257 112.034 29.006C111.889 28.7544 111.756 28.4549 111.636 28.1078C111.515 27.7606 111.419 27.4537 111.346 27.187C111.274 26.9203 111.198 26.612 111.119 26.2622C110.614 22.9337 110.343 19.7312 110.306 16.6546ZM112.631 23.4883C112.733 25.3813 112.852 26.7984 112.987 27.7396C113.096 27.8056 113.264 27.9462 113.489 28.1614C113.714 28.3662 113.924 28.525 114.121 28.6376C114.317 28.7503 114.53 28.7993 114.759 28.7847C115.449 28.7927 116.119 28.7394 116.768 28.6248C117.427 28.4992 118.07 28.3066 118.698 28.0473C119.336 27.7873 119.882 27.4131 120.336 26.9249C120.799 26.4255 121.115 25.8365 121.282 25.1578C121.231 24.6184 121.19 24.2192 121.159 23.9602C121.111 23.8798 121.016 23.7189 120.872 23.4776C120.727 23.2259 120.631 23.0599 120.583 22.9795C120.061 22.4388 119.436 22.0561 118.709 21.8313C117.992 21.6058 117.271 21.5371 116.546 21.6252C115.821 21.7029 115.111 21.905 114.415 22.2313C113.729 22.5569 113.135 22.976 112.631 23.4883ZM124.906 13.9356C125.002 13.9608 125.125 13.9999 125.275 14.0529C125.435 14.0948 125.606 14.1465 125.789 14.2079C125.981 14.2583 126.114 14.2915 126.188 14.3076C126.542 15.7983 126.822 17.4138 127.028 19.1541C127.234 20.8839 127.365 22.4672 127.423 23.9039C127.48 25.3301 127.511 26.9668 127.516 28.8138C127.248 28.8623 126.626 28.996 125.651 29.215C125.586 28.3633 125.558 27.5248 125.568 26.6997C125.725 25.7399 125.79 24.6815 125.764 23.5247C125.738 22.3678 125.652 21.3035 125.505 20.3318C125.368 19.3595 125.239 18.2979 125.12 17.147C125 15.9857 124.929 14.9153 124.906 13.9356ZM141.341 17.1893C141.431 17.4132 141.427 17.6326 141.329 17.8476C141.24 18.0516 141.078 18.1924 140.844 18.2701C140.62 18.347 140.411 18.3395 140.215 18.2477L139.956 18.139C139.805 18.0652 139.615 17.9782 139.388 17.8779C139.195 17.8068 138.931 17.7088 138.598 17.584C138.266 17.48 138.025 17.4067 137.876 17.3641C137.706 17.3332 137.522 17.3137 137.323 17.3055C137.155 17.2954 136.92 17.3 136.619 17.3193C136.338 17.3372 136.106 17.373 135.922 17.4265C135.738 17.48 135.55 17.5442 135.357 17.6192C135.195 17.6922 134.932 17.8708 134.567 18.155C134.201 18.4185 133.918 18.6819 133.719 18.9451C133.481 19.2422 133.296 19.4889 133.164 19.6851C133.056 19.9009 132.948 20.1321 132.841 20.379C132.753 20.5934 132.612 21.0669 132.417 21.7995C132.222 22.5321 132.113 23.014 132.089 23.2452C132.09 23.527 132.095 23.8084 132.106 24.0895C132.117 24.3602 132.142 24.6247 132.183 24.883C132.223 25.1414 132.299 25.4444 132.409 25.7923C132.542 26.1699 132.746 26.5744 133.019 27.0057C133.294 27.4578 133.511 27.7779 133.672 27.9659C133.832 28.1435 134.006 28.3098 134.196 28.4647C134.351 28.58 134.586 28.7163 134.901 28.8736C135.213 28.9997 135.618 29.1042 136.116 29.1872C136.631 29.2377 137.004 29.266 137.235 29.2722C137.515 29.2542 137.78 29.2373 138.03 29.2213C138.236 29.1872 138.503 29.1284 138.831 29.0448C139.107 28.9645 139.373 28.817 139.628 28.6024C139.893 28.3767 140.063 28.2197 140.14 28.1312C140.235 28 140.318 27.8641 140.391 27.7238C140.465 27.5938 140.541 27.4272 140.619 27.2239L140.752 26.9023C140.84 26.6879 140.996 26.5423 141.22 26.4653C141.453 26.3773 141.673 26.3789 141.878 26.4701C142.094 26.5607 142.247 26.7179 142.337 26.9417C142.427 27.1552 142.428 27.3743 142.34 27.5991L142.208 27.9206C142.103 28.1883 142 28.4089 141.898 28.5824C141.786 28.7565 141.675 28.9359 141.563 29.1204C141.392 29.3401 141.1 29.6146 140.686 29.9437C140.264 30.2943 139.823 30.5365 139.363 30.6703C138.945 30.8014 138.57 30.8932 138.24 30.9456C137.939 30.9649 137.637 30.9842 137.336 31.0035C136.991 31.0047 136.518 30.9671 135.917 30.8908C135.252 30.808 134.687 30.6615 134.222 30.4512C133.757 30.241 133.385 30.0195 133.106 29.7869C132.83 29.5958 132.583 29.3715 132.365 29.1141C132.146 28.8463 131.864 28.4312 131.518 27.8689C131.195 27.3364 130.953 26.83 130.791 26.3498C130.63 25.8904 130.526 25.4796 130.477 25.1174C130.432 24.7968 130.401 24.47 130.386 24.1369C130.371 23.7935 130.37 23.4491 130.386 23.1037C130.401 22.7583 130.513 22.177 130.723 21.36C130.941 20.5319 131.112 19.9626 131.235 19.6521C131.379 19.361 131.531 19.0852 131.688 18.8246C131.854 18.5322 132.075 18.2153 132.352 17.8741C132.647 17.4899 133.037 17.1258 133.522 16.7816C133.986 16.4283 134.365 16.1901 134.659 16.067C134.911 15.9465 135.169 15.8464 135.435 15.7668C135.712 15.7073 136.053 15.649 136.456 15.5919C136.84 15.5673 137.158 15.5574 137.409 15.5622C137.651 15.5885 137.899 15.6196 138.153 15.6555C138.419 15.722 138.75 15.8156 139.146 15.9364C139.522 16.0793 139.829 16.2006 140.067 16.3002C140.283 16.3908 140.483 16.4823 140.667 16.5749L140.896 16.7011C141.112 16.7917 141.261 16.9544 141.341 17.1893ZM144.736 14.248C145.042 14.291 145.508 14.3708 146.133 14.4873C146.177 14.9229 146.232 15.5769 146.299 16.4494C146.365 17.3218 146.425 18.0278 146.476 18.5672C146.527 19.0962 146.618 19.7323 146.748 20.4755C146.877 21.2083 147.037 21.8764 147.23 22.4799C147.246 22.5623 147.289 22.8518 147.359 23.3484C147.438 23.8339 147.5 24.1691 147.545 24.3541C147.591 24.539 147.673 24.7999 147.793 25.1366C147.923 25.4623 148.075 25.75 148.251 25.9997C148.384 26.2417 148.566 26.5641 148.795 26.9669C148.972 27.2373 149.227 27.4298 149.56 27.5442C149.892 27.6482 150.222 27.6688 150.552 27.606C150.891 27.5321 151.183 27.3933 151.429 27.1898C151.66 26.9349 151.858 26.6561 152.023 26.3533C152.197 26.0394 152.381 25.6363 152.573 25.1439C152.775 24.6405 152.906 24.3137 152.968 24.1636C152.818 22.879 152.692 21.4363 152.59 19.8355C152.498 18.2236 152.492 16.7681 152.57 15.4688C152.795 15.4127 153.211 15.313 153.816 15.1699C153.985 15.5975 154.124 16.0582 154.235 16.5521C154.346 17.046 154.422 17.49 154.462 17.884C154.513 18.2773 154.545 18.7606 154.558 19.3339C154.58 19.8961 154.583 20.3499 154.568 20.6953C154.562 21.0296 154.547 21.5159 154.522 22.1542C154.508 22.7813 154.495 23.2361 154.486 23.5186C154.458 24.2509 154.674 24.9521 155.132 25.622C155.59 26.2816 156.163 26.7407 156.851 26.9993C157.305 27.0642 157.729 27.0058 158.123 26.824C158.527 26.6416 158.857 26.3856 159.114 26.0561C159.37 25.7162 159.571 25.338 159.717 24.9216C159.872 24.4942 159.954 24.0662 159.963 23.6377C160.069 19.9675 160.095 17.1635 160.041 15.2256C160.179 14.434 160.285 13.7645 160.358 13.2171C160.982 13.3232 161.401 13.3956 161.612 13.4342C161.702 14.1905 161.754 15.0168 161.771 15.9134C161.787 16.81 161.782 17.5721 161.757 18.2C161.732 18.8278 161.687 19.6761 161.623 20.7448C161.568 21.8129 161.534 22.5927 161.519 23.0841C161.566 23.4152 161.653 23.7436 161.783 24.0693C161.922 24.3943 162.064 24.6775 162.208 24.9188C162.351 25.1497 162.555 25.4237 162.819 25.7407C163.083 26.0474 163.294 26.2844 163.453 26.4516C163.612 26.6189 163.856 26.8694 164.185 27.2033C164.523 27.5261 164.754 27.7461 164.877 27.8635C164.842 27.9492 164.767 28.121 164.65 28.379C164.545 28.6362 164.474 28.8077 164.439 28.8935C164.134 28.8712 163.847 28.8061 163.578 28.6981C163.318 28.579 163.065 28.4126 162.819 28.1987C162.583 27.9842 162.38 27.7884 162.21 27.6114C162.039 27.4241 161.833 27.1868 161.592 26.8995C161.349 26.6019 161.165 26.3789 161.039 26.2304C160.797 26.7573 160.449 27.1866 159.994 27.5184C159.538 27.8398 159.032 28.0549 158.476 28.1635C157.92 28.2721 157.365 28.3181 156.81 28.3014C156.265 28.2841 155.712 28.2151 155.149 28.0946C154.676 27.6447 154.15 27.193 153.572 26.7395C153.408 27.4597 153.033 28.0212 152.447 28.424C151.862 28.8268 151.21 29.0459 150.492 29.0814C149.773 29.1065 149.095 28.9777 148.457 28.695C147.49 28.068 146.819 27.0202 146.446 25.5516C146.38 25.3784 146.262 25.0624 146.091 24.6036C145.921 24.1449 145.784 23.7884 145.681 23.534C145.522 22.824 145.383 22.0292 145.263 21.1497C145.154 20.2695 145.079 19.5542 145.037 19.0037C144.994 18.4429 144.94 17.6061 144.876 16.4934C144.812 15.3808 144.765 14.6323 144.736 14.248ZM178.739 23.2817C178.621 23.1014 178.498 22.9266 178.37 22.7574C178.206 22.5278 178.022 22.2944 177.815 22.0571C177.631 21.8288 177.206 21.4698 176.542 20.98C175.954 20.5271 175.569 20.2751 175.388 20.2241C175.237 20.1711 174.961 20.1784 174.559 20.2459C174.115 20.316 173.727 20.4348 173.395 20.6021C173.022 20.7721 172.736 20.9365 172.54 21.0952C172.352 21.2429 172.182 21.3999 172.027 21.5664C171.89 21.6795 171.706 21.9366 171.475 22.3375C171.224 22.7398 171.073 23.026 171.024 23.1962C170.975 23.3871 170.932 23.6352 170.892 23.9404C170.874 24.2442 170.881 24.4786 170.915 24.6435C170.927 24.8096 171.011 25.0861 171.166 25.4728C171.319 25.8283 171.469 26.0849 171.617 26.2424C171.799 26.4395 171.971 26.5746 172.133 26.6477C172.287 26.7422 172.451 26.8361 172.625 26.9293C172.809 27.0115 173.098 27.1026 173.492 27.2026C173.843 27.2846 174.144 27.3227 174.394 27.3171C174.675 27.2992 174.906 27.2479 175.087 27.1632C175.292 27.1083 175.5 27.022 175.71 26.9042C175.931 26.7857 176.155 26.6461 176.383 26.4854C176.561 26.3487 176.89 26.0041 177.37 25.4516C177.818 24.8906 178.088 24.5341 178.181 24.382C178.272 24.2092 178.354 24.0422 178.425 23.8811C178.528 23.7284 178.633 23.5286 178.739 23.2817ZM180.302 24.0428C180.175 24.291 180.075 24.4905 180.003 24.6412C179.932 24.8127 179.827 25.0125 179.688 25.2406C179.561 25.4888 179.23 25.9379 178.694 26.588C178.149 27.2387 177.722 27.673 177.415 27.891C177.128 28.0972 176.833 28.2778 176.532 28.4328C176.242 28.5975 175.954 28.7307 175.669 28.8324C175.353 28.9361 174.982 29.0016 174.556 29.0289C174.111 29.0783 173.616 29.0264 173.071 28.8734C172.572 28.7593 172.191 28.6375 171.931 28.508C171.681 28.3883 171.43 28.2478 171.178 28.0865C170.926 27.9357 170.663 27.7072 170.389 27.4012C170.061 27.0777 169.793 26.6461 169.585 26.1062C169.378 25.5872 169.247 25.1677 169.191 24.8477C169.147 24.5478 169.146 24.1878 169.187 23.7677C169.239 23.3573 169.306 22.9982 169.387 22.6903C169.468 22.3825 169.66 21.9631 169.964 21.4322C170.27 20.9221 170.549 20.5442 170.802 20.2984C171.027 20.0961 171.268 19.9032 171.526 19.7198C171.793 19.5252 172.142 19.3046 172.572 19.0579C173.065 18.8176 173.632 18.6404 174.271 18.5265C174.921 18.4223 175.455 18.4351 175.872 18.5649C176.245 18.6663 176.842 19.0299 177.663 19.6558C177.507 19.2587 177.384 18.9379 177.292 18.6933C177.139 18.3377 176.923 17.8924 176.641 17.3572C176.341 16.8441 176.086 16.4429 175.876 16.1537C175.666 15.8645 175.433 15.6237 175.178 15.4312C174.977 15.2562 174.6 15.0455 174.048 14.799C173.497 14.5525 173.026 14.4 172.635 14.3415C172.204 14.3065 171.857 14.2869 171.596 14.2827C171.336 14.2994 171.082 14.326 170.834 14.3628C170.628 14.3968 170.253 14.5461 169.709 14.8105C169.316 15.0026 169.062 15.1598 168.946 15.2821L168.778 15.5433C168.667 15.7382 168.495 15.8693 168.259 15.9365C168.034 15.9927 167.812 15.96 167.594 15.8382C167.385 15.7055 167.246 15.5265 167.177 15.3013C167.117 15.0651 167.158 14.8485 167.299 14.6516L167.465 14.3592C167.678 14.0011 168.162 13.6362 168.917 13.2643C169.622 12.9165 170.165 12.7096 170.546 12.6434C170.867 12.602 171.194 12.5707 171.526 12.5494C171.871 12.5482 172.311 12.5722 172.848 12.6214C173.407 12.69 174.038 12.8844 174.741 13.2047C175.445 13.525 175.965 13.8362 176.301 14.1382C176.626 14.4201 176.943 14.7442 177.253 15.1106C177.542 15.4782 177.846 15.9598 178.163 16.5553C178.49 17.1502 178.733 17.6565 178.89 18.0744C179.046 18.4715 179.256 19.0373 179.521 19.7718C179.786 20.5063 179.977 21.016 180.092 21.3008C180.219 21.5953 180.337 21.9113 180.447 22.2488C180.566 22.5751 180.651 22.8045 180.703 22.9369L180.705 22.968C180.822 23.1276 180.809 23.3633 180.665 23.6751L180.302 24.0428ZM186.6 11.1152C187.053 10.8879 187.509 10.7022 187.968 10.558C188.427 10.4138 188.91 10.315 189.418 10.2617C189.936 10.1972 190.43 10.2439 190.902 10.4016C191.383 10.5482 191.795 10.8141 192.138 11.1992C192.283 11.1795 192.573 11.1505 193.009 11.1122C193.445 11.0738 193.735 11.05 193.881 11.0407C194.758 16.0988 195.261 21.0399 195.39 25.8641C195.277 25.8922 195.047 25.9591 194.7 26.0648C194.362 26.1594 194.138 26.226 194.026 26.2645C193.937 25.383 193.858 24.6887 193.788 24.1818C193.728 23.6742 193.628 23.0492 193.488 22.3067C193.357 21.5531 193.211 20.8684 193.049 20.2525C192.25 21.1387 191.61 21.8528 191.129 22.395C190.658 22.9365 190.094 23.6145 189.435 24.429C188.786 25.2325 188.212 25.9894 187.713 26.6997C187.633 26.8823 187.523 27.025 187.385 27.1278C187.256 27.2195 187.103 27.2658 186.926 27.2667C186.748 27.2677 186.585 27.2572 186.437 27.2354C186.29 27.2135 186.109 27.1781 185.897 27.1291C185.683 27.0697 185.524 27.0329 185.418 27.0188C185.457 26.985 185.546 26.9219 185.686 26.8295C185.825 26.737 185.914 26.6739 185.953 26.6401C186.157 26.1574 186.442 25.659 186.81 25.1449C187.179 24.6308 187.536 24.1852 187.884 23.8082C188.231 23.4311 188.61 22.9893 189.02 22.483C189.431 21.9766 189.76 21.5067 190.009 21.0733C189.438 21.1099 188.867 21.089 188.297 21.0107C187.726 20.9219 187.166 20.7751 186.618 20.5701C186.08 20.3645 185.597 20.0614 185.169 19.6608C184.742 19.2603 184.429 18.7898 184.231 18.2493C183.573 17.0284 183.552 15.5842 184.166 13.9167C184.857 12.7036 185.668 11.7697 186.6 11.1152ZM187.604 12.5695C187.296 12.7771 186.988 12.9795 186.679 13.1767C185.32 14.7979 184.973 16.2031 185.638 17.3921C185.978 18.1531 186.559 18.716 187.381 19.0809C188.203 19.4458 189.014 19.5296 189.814 19.3324C191.06 18.8351 192.078 18.0655 192.865 17.0236C192.862 16.982 192.864 16.8671 192.87 16.6788C192.887 16.4899 192.893 16.3694 192.889 16.3175C192.895 16.2545 192.902 16.1341 192.909 15.9562C192.916 15.7783 192.917 15.653 192.911 15.5803C192.906 15.5076 192.902 15.393 192.901 15.2365C192.899 15.0697 192.889 14.945 192.872 14.8626C192.865 14.7691 192.851 14.6552 192.83 14.5209C192.809 14.3761 192.784 14.2577 192.756 14.1655C192.728 14.063 192.688 13.9559 192.638 13.8443C192.597 13.7217 192.552 13.6046 192.501 13.493C192.245 13.2798 191.862 12.9912 191.354 12.6271C190.855 12.2519 190.506 11.9873 190.306 11.833C189.723 11.8599 189.216 11.9237 188.785 12.0243C188.354 12.125 187.96 12.3067 187.604 12.5695ZM14.9665 56.3367L15.4439 56.2279C17.7696 55.6303 19.7336 53.8556 21.3361 50.9037C22.0517 49.6054 22.7068 48.6763 23.3012 48.1164C23.8884 47.5988 24.5251 47.318 25.2112 47.2741C25.4191 47.2608 25.6509 47.3555 25.9067 47.5583C26.1504 47.741 26.2827 47.9674 26.3033 48.2375C26.3271 48.5491 25.9583 48.8492 25.1969 49.138C24.649 49.3505 24.1463 49.6749 23.6887 50.1112C23.2622 50.5456 22.5304 51.5631 21.4932 53.1637C20.7273 54.3504 20.0291 55.1935 19.3987 55.6931C19.3883 55.6937 19.3731 55.6999 19.3532 55.7116C19.3435 55.7227 19.3288 55.7341 19.3088 55.7458C19.2992 55.7568 19.2847 55.7734 19.2655 55.7955C19.2463 55.8176 19.2271 55.8397 19.2079 55.8618C19.1991 55.8833 19.1855 55.9102 19.1671 55.9427C19.1591 55.9745 19.1515 56.0116 19.1443 56.0538C19.1474 56.0953 19.1506 56.1369 19.1538 56.1784C19.1577 56.2303 19.1613 56.2771 19.1645 56.3186C19.1773 56.3491 19.19 56.3796 19.2028 56.4101C19.226 56.4399 19.244 56.4701 19.2567 56.5006C19.2791 56.52 19.2963 56.5398 19.3083 56.5599C19.3299 56.569 19.3519 56.5832 19.3742 56.6027C19.4062 56.611 19.4278 56.6201 19.439 56.6298C19.4502 56.6395 19.4666 56.6489 19.4881 56.658C19.5097 56.667 19.5205 56.6716 19.5205 56.6716C20.1848 57.0257 20.9208 57.7718 21.7286 58.91C23.0022 60.6758 23.9751 61.7878 24.6473 62.2457C25.3731 62.7212 26.1726 62.9309 27.0458 62.8751L27.5748 62.8256C27.6267 62.8222 27.6683 62.8196 27.6995 62.8176C27.7123 62.8481 27.7199 62.8789 27.7222 62.9101C27.7437 63.1905 27.586 63.5189 27.2491 63.8953C26.9019 64.2724 26.2656 64.4906 25.3404 64.5498C24.6544 64.5937 23.9748 64.3136 23.3019 63.7095C22.5938 63.0556 21.7584 61.9661 20.7958 60.4413C20.2118 59.4976 19.6712 58.7807 19.1742 58.2906C18.6315 57.7513 18.0484 57.5016 17.4246 57.5415C17.2791 57.5508 16.9084 57.6893 16.3125 57.9571C16.0598 58.0672 15.863 58.1581 15.7223 58.2297C15.5911 58.2903 15.4571 58.3823 15.3203 58.5059C15.1939 58.6288 15.105 58.765 15.0538 58.9144C14.9793 59.1696 14.9764 59.9526 15.0452 61.2633C15.0997 62.5227 15.1563 63.5367 15.215 64.3053C15.2365 64.5857 15.1212 64.854 14.8691 65.1102C14.5963 65.3677 14.2936 65.5071 13.9609 65.5284C13.6387 65.549 13.3824 65.4767 13.1922 65.3114C13.0012 65.1358 12.899 64.9597 12.8855 64.7831C12.8577 64.4196 12.9294 63.5122 13.1005 62.0609C13.3947 59.3493 13.5572 54.9135 13.5879 48.7536C13.5826 48.2739 13.7315 47.8312 14.0348 47.4256C14.3189 47.0421 14.6429 46.8387 15.0067 46.8155C15.1314 46.8075 15.2521 46.8833 15.3688 47.0428C15.5214 47.2626 15.6124 47.5647 15.6418 47.949C15.6672 48.2814 15.6441 48.6638 15.5727 49.0963C15.1365 51.316 14.9321 53.5627 14.9596 55.8362L14.9665 56.3367ZM35.8095 46.9403L36.3263 47.1421C38.56 47.9385 39.813 50.118 40.0852 53.6805C40.2923 56.3914 39.6625 58.8113 38.1956 60.9405C36.9246 63.0362 35.4886 64.1352 33.8877 64.2377C32.3804 64.3341 31.1233 63.7414 30.1166 62.4594C29.0858 61.1372 28.4668 59.1207 28.2597 56.4098C28.0049 53.0758 28.3087 49.6695 29.1711 46.1909C30.035 42.8688 31.1471 40.3345 32.5074 38.5879C33.8086 36.8869 35.2024 35.9888 36.689 35.8937C37.6245 35.8339 38.396 36.0872 39.0034 36.6537C39.6124 37.2409 39.9597 38.0954 40.0455 39.2171C40.1145 40.1208 39.7976 41.2369 39.0948 42.5657C38.3632 43.9276 37.3925 45.2369 36.1828 46.4937L35.8095 46.9403ZM30.0715 51.0023L30.8791 50.293C34.2282 46.958 36.2978 44.5816 37.0878 43.1638C37.9794 41.7081 38.3931 40.5597 38.3288 39.7184C38.2764 39.0329 38.074 38.5031 37.7216 38.129C37.3692 37.755 36.8915 37.5872 36.2886 37.6258C34.9683 37.7103 33.7515 38.8736 32.6379 41.1158C31.5604 43.2826 30.7563 46.2252 30.2256 49.9435L30.0715 51.0023ZM38.0326 54.2972L38.0302 54.266C37.8993 52.5523 37.5019 51.1791 36.838 50.1466C36.1797 49.051 35.4867 48.5266 34.7591 48.5731C34.6967 48.5771 34.6351 48.5915 34.5743 48.6163C34.5135 48.641 34.4435 48.682 34.3643 48.7393C34.2844 48.7861 34.2048 48.8382 34.1256 48.8955C34.0568 48.9521 33.964 49.0363 33.8472 49.1481C33.7296 49.2496 33.622 49.3452 33.5244 49.4349C33.4275 49.535 33.2967 49.6687 33.1319 49.8358C32.9775 50.0022 32.8427 50.1517 32.7274 50.2844C32.6114 50.4066 32.447 50.5789 32.2342 50.8012C32.0318 51.0229 31.8529 51.2118 31.6977 51.3679C31.2009 51.838 30.7121 52.2763 30.2313 52.6829L30.1137 52.7843L30.0956 52.9577C30.0039 53.9446 30.0025 55.0198 30.0913 56.183C30.2509 58.2707 30.6734 59.8353 31.3589 60.8769C32.0915 61.9886 32.962 62.5122 33.9703 62.4476C35.3217 62.3612 36.3649 61.4542 37.1 59.7268C37.8702 58.0493 38.181 56.2394 38.0326 54.2972ZM54.9309 57.2551C54.8126 57.0748 54.6896 56.9 54.5617 56.7308C54.3979 56.5012 54.213 56.2678 54.0068 56.0305C53.8222 55.8022 53.3978 55.4432 52.7336 54.9534C52.1454 54.5005 51.7605 54.2485 51.579 54.1975C51.4287 54.1445 51.1524 54.1518 50.7502 54.2192C50.3064 54.2894 49.9185 54.4081 49.5865 54.5755C49.213 54.7455 48.9279 54.9099 48.7311 55.0686C48.5439 55.2163 48.3731 55.3733 48.2186 55.5398C48.081 55.6529 47.897 55.91 47.6665 56.3109C47.4152 56.7132 47.2647 56.9994 47.215 57.1696C47.1669 57.3605 47.1232 57.6086 47.0838 57.9138C47.0653 58.2176 47.0727 58.452 47.1062 58.6168C47.1189 58.783 47.2027 59.0595 47.3576 59.4462C47.5102 59.8017 47.6603 60.0582 47.8082 60.2158C47.9904 60.4129 48.1626 60.548 48.3249 60.6211C48.4784 60.7156 48.6422 60.8095 48.8165 60.9027C49.0004 60.9849 49.2894 61.076 49.6835 61.176C50.0345 61.2579 50.3351 61.2961 50.5854 61.2905C50.8661 61.2726 51.0972 61.2213 51.2788 61.1366C51.4835 61.0817 51.6911 60.9954 51.9014 60.8776C52.1222 60.7591 52.3466 60.6195 52.5746 60.4587C52.7521 60.3221 53.081 59.9775 53.5611 59.425C54.0092 58.864 54.2797 58.5075 54.3725 58.3554C54.4637 58.1826 54.545 58.0156 54.6163 57.8545C54.7195 57.7018 54.8244 57.502 54.9309 57.2551ZM56.4933 58.0162C56.366 58.2644 56.2663 58.4639 56.1943 58.6146C56.1238 58.7861 56.0189 58.9859 55.8797 59.214C55.7524 59.4622 55.4211 59.9113 54.8858 60.5613C54.3401 61.2121 53.9136 61.6464 53.6065 61.8644C53.3193 62.0706 53.0249 62.2512 52.7234 62.4062C52.433 62.5709 52.1455 62.7041 51.8608 62.8058C51.5449 62.9095 51.1738 62.975 50.7476 63.0023C50.3022 63.0517 49.8072 62.9998 49.2628 62.8468C48.7631 62.7327 48.3829 62.6109 48.1223 62.4814C47.8729 62.3617 47.6219 62.2212 47.3693 62.0599C47.1175 61.909 46.8546 61.6806 46.5805 61.3746C46.2528 61.0511 45.9848 60.6195 45.7764 60.0796C45.5696 59.5606 45.4383 59.1411 45.3825 58.8211C45.3387 58.5212 45.3373 58.1612 45.3783 57.7411C45.4306 57.3307 45.4971 56.9716 45.5781 56.6637C45.659 56.3559 45.8515 55.9365 46.1557 55.4056C46.4615 54.8955 46.7407 54.5175 46.9936 54.2718C47.2184 54.0695 47.4596 53.8766 47.7171 53.6932C47.9843 53.4986 48.3331 53.278 48.7634 53.0313C49.2569 52.791 49.8231 52.6138 50.4621 52.4999C51.1123 52.3957 51.646 52.4085 52.0633 52.5383C52.4367 52.6397 53.0338 53.0033 53.8546 53.6292C53.6989 53.2321 53.5752 52.9113 53.4834 52.6666C53.3308 52.3111 53.114 51.8657 52.8328 51.3306C52.5325 50.8175 52.2772 50.4163 52.0671 50.1271C51.857 49.8379 51.6244 49.597 51.3694 49.4046C51.168 49.2296 50.7915 49.0189 50.2399 48.7724C49.6883 48.5259 49.2171 48.3734 48.8261 48.3149C48.3951 48.2799 48.0489 48.2603 47.7874 48.2561C47.5275 48.2727 47.2736 48.2994 47.0257 48.3362C46.8194 48.3702 46.4443 48.5195 45.9004 48.7839C45.5077 48.976 45.2533 49.1332 45.1373 49.2554L44.9692 49.5167C44.8588 49.7116 44.686 49.8427 44.4509 49.9099C44.2253 49.9661 44.0035 49.9333 43.7852 49.8116C43.5766 49.6789 43.4376 49.4999 43.3681 49.2747C43.3083 49.0385 43.3492 48.8219 43.4908 48.625L43.6565 48.3326C43.8694 47.9745 44.3534 47.6096 45.1085 47.2377C45.8131 46.8899 46.3562 46.683 46.7376 46.6168C47.0583 46.5754 47.385 46.5441 47.7176 46.5228C48.0623 46.5216 48.5028 46.5456 49.0393 46.5948C49.5982 46.6634 50.2294 46.8578 50.9329 47.1781C51.6364 47.4984 52.1564 47.8096 52.4928 48.1116C52.8173 48.3935 53.1346 48.7176 53.4446 49.084C53.7339 49.4516 54.0371 49.9332 54.3542 50.5287C54.6817 51.1235 54.9241 51.6299 55.0814 52.0478C55.2371 52.4448 55.4474 53.0106 55.7125 53.7452C55.9775 54.4797 56.168 54.9894 56.2837 55.2742C56.4107 55.5687 56.5289 55.8847 56.6382 56.2222C56.7572 56.5485 56.8426 56.7779 56.8945 56.9103L56.8969 56.9414C57.0135 57.101 57.0002 57.3366 56.8569 57.6485L56.4933 58.0162ZM67.901 47.564C67.5148 47.5679 67.2063 47.9738 66.9755 48.7818C65.3737 53.3827 64.1345 56.5096 63.258 58.1626C63.1643 58.3043 63.0495 58.5099 62.9134 58.7796C62.5651 59.5533 62.2189 60.2174 61.8747 60.7717C61.5426 61.3461 61.2809 61.749 61.0896 61.9804C60.9023 62.2638 60.7619 62.4085 60.6684 62.4145C60.3565 62.4344 60.1363 62.3546 60.0076 62.1749C59.8702 62.0167 59.7852 61.7247 59.7526 61.2989C59.7106 60.7484 60.1229 59.9236 60.9895 58.8244C61.8914 57.5038 62.9821 55.3048 64.2617 52.2275C65.5059 49.3716 66.4961 46.8137 67.2322 44.5539C67.3068 44.163 67.4377 43.9615 67.6248 43.9495C67.7287 43.9429 67.9522 43.9964 68.2952 44.1102C68.5877 44.248 68.7704 44.3824 68.8431 44.5135C68.9661 44.7561 69.259 45.7185 69.7218 47.4005C70.5651 50.6447 71.3981 53.2059 72.2206 55.0842C73.0527 57.0871 73.8851 58.4115 74.718 59.0575C75.0257 59.257 75.2079 59.3862 75.2647 59.4452C75.2855 59.4439 75.2955 59.438 75.2947 59.4276C75.3193 59.7496 75.2639 60.0506 75.1286 60.3306C74.9933 60.6107 74.8605 60.7862 74.7301 60.8571C74.5902 60.9391 74.2499 60.9975 73.7093 61.032C73.4679 60.8805 73.006 60.3725 72.3237 59.5082C71.4934 58.4863 70.4072 55.5499 69.065 50.699C68.7236 49.3744 68.4518 48.4838 68.2497 48.027L68.1205 47.5656L67.901 47.564ZM88.2795 51.3638L87.6105 52.8626C86.6224 55.2429 85.5735 57.1 84.4637 58.4339C83.3826 59.7347 82.3172 60.4186 81.2672 60.4858C80.6955 60.5224 80.064 60.1871 79.3727 59.4798C78.6694 58.7525 78.2551 57.5683 78.1297 55.9272C78.0234 54.5354 78.1873 52.4427 78.6215 49.6491C78.9882 47.3399 79.1443 45.6913 79.0897 44.7032C79.2858 44.2628 79.6126 44.0279 80.07 43.9986C80.3818 43.9787 80.6397 44.0718 80.8435 44.2779C81.0584 44.4938 81.175 44.7211 81.1933 44.96C81.2449 45.6351 81.076 46.6375 80.6866 47.967C79.9023 50.6891 79.5831 53.0057 79.7291 54.9168C79.8791 56.8799 80.4791 57.8278 81.529 57.7606C82.5686 57.6941 83.7474 56.7158 85.0654 54.8259C86.3451 52.9801 87.396 50.4653 88.2182 47.2816C88.5436 46.0709 88.8231 45.2859 89.0568 44.9265C89.2344 44.6542 89.4896 44.5074 89.8222 44.4862C90.0613 44.4709 90.2384 44.5326 90.3535 44.6713C90.4678 44.7997 90.54 45.0612 90.5701 45.4559C90.5693 45.5812 90.5035 45.9507 90.3728 46.5645C89.9252 49.0458 89.7843 51.3719 89.9502 53.5427C90.1558 56.2327 90.7321 57.9649 91.6792 58.7393C91.8135 58.856 91.9214 58.9691 92.0029 59.0787C92.094 59.1772 92.1519 59.2518 92.1767 59.3024C92.2118 59.3523 92.2298 59.3825 92.2306 59.3929C92.2417 59.5383 92.1085 59.7086 91.8309 59.9038C91.4837 60.1452 91.175 60.2745 90.9047 60.2918C90.3538 60.3271 89.8491 59.8741 89.3906 58.9327C88.8819 57.8798 88.5449 56.2732 88.3798 54.1128L88.3382 53.5675C88.3255 53.4013 88.3176 53.2296 88.3145 53.0524L88.2795 51.3638ZM100.312 37.3961C100.414 37.3687 100.613 37.309 100.909 37.217C101.215 37.1243 101.42 37.0643 101.522 37.0368C101.823 37.4142 102.038 37.8388 102.168 38.3106C102.297 38.772 102.384 39.3562 102.427 40.0631C102.48 40.759 102.526 41.2257 102.565 41.4633C103.531 41.5163 104.254 41.5535 104.736 41.5749C104.991 41.903 105.326 42.2521 105.741 42.6222C106.165 42.9812 106.55 43.2958 106.894 43.566C107.238 43.8258 107.587 44.1531 107.941 44.5479C108.295 44.9428 108.561 45.3485 108.739 45.765C108.775 45.961 108.807 46.1729 108.834 46.4008C108.873 46.6279 108.898 46.8246 108.911 46.9908C108.933 47.1459 108.949 47.3588 108.96 47.6296C108.97 47.9003 108.975 48.0983 108.974 48.2236C108.972 48.3385 108.973 48.5576 108.977 48.8809C108.98 49.1938 108.985 49.3918 108.991 49.4749C108.745 50.357 108.566 51.0207 108.454 51.4663C108.137 52.238 107.922 52.7789 107.81 53.0887C107.355 53.9736 106.734 54.7232 105.945 55.3372C105.155 55.9409 104.268 56.363 103.284 56.6034C103.331 57.6337 103.396 58.5532 103.479 59.362C103.572 60.1701 103.647 61.0838 103.704 62.103C103.762 63.1326 103.774 64.0502 103.742 64.856L102.894 65.239C102.594 64.6007 102.367 63.8846 102.213 63.0908C102.068 62.2964 101.99 61.5447 101.978 60.8358C101.965 60.1268 101.933 59.3618 101.88 58.5406C101.839 57.7187 101.77 56.9612 101.675 56.268C100.945 56.0016 100.26 55.6592 99.6226 55.2408C98.9848 54.8224 98.3997 54.3432 97.8675 53.8032C97.3449 53.2521 96.921 52.6269 96.596 51.9276C96.2701 51.2178 96.083 50.4783 96.0347 49.7091C95.8569 48.8855 95.8226 48.0266 95.9318 47.1324C96.0515 46.2376 96.2962 45.4079 96.6661 44.6432C97.0351 43.8681 97.5533 43.1982 98.2205 42.6337C98.8973 42.0581 99.6627 41.6856 100.517 41.5161C100.503 41.2038 100.476 40.7725 100.434 40.222C100.391 39.6611 100.357 39.1519 100.333 38.6942C100.308 38.2365 100.301 37.8038 100.312 37.3961ZM102.658 43.0856C103.019 48.4898 103.301 52.3909 103.505 54.7888C104.348 54.4739 105.049 53.9334 105.607 53.1671C106.174 52.3897 106.593 51.5123 106.863 50.5348C106.892 50.366 106.948 50.0805 107.032 49.6785C107.116 49.2662 107.175 48.9441 107.209 48.7122C107.254 48.4797 107.289 48.1905 107.315 47.8444C107.351 47.4976 107.353 47.174 107.319 46.8735C107.286 46.5729 107.227 46.2844 107.143 46.008C106.825 45.6631 106.487 45.3403 106.129 45.0396C105.782 44.7382 105.294 44.3572 104.663 43.8966C104.032 43.4256 103.655 43.1418 103.533 43.0453C103.095 43.0628 102.804 43.0762 102.658 43.0856ZM99.6964 43.6978C99.6204 43.7966 99.4663 43.9682 99.2343 44.2127C99.0119 44.4461 98.8434 44.6343 98.729 44.7773C98.6138 44.9099 98.4758 45.0857 98.3149 45.3048C98.1637 45.5128 98.0388 45.7243 97.9403 45.9393C97.8515 46.1433 97.7846 46.3616 97.7397 46.5941C97.6347 46.9974 97.5825 47.4078 97.583 47.8252C97.5836 48.2427 97.6445 48.698 97.7658 49.1912C97.8966 49.6734 98.0096 50.0576 98.1045 50.3437C98.2091 50.6189 98.366 51.0315 98.5752 51.5817C98.8835 52.1987 99.2842 52.7262 99.7773 53.1643C100.281 53.6018 100.854 53.92 101.496 54.119C101.416 52.809 101.151 49.2721 100.7 43.5083C100.608 43.5247 100.433 43.5619 100.176 43.6201C99.9291 43.6672 99.7691 43.6931 99.6964 43.6978ZM123.801 49.0909L123.132 50.5897C122.144 52.97 121.095 54.8271 119.985 56.161C118.904 57.4617 117.838 58.1457 116.788 58.2129C116.217 58.2495 115.585 57.9142 114.894 57.2069C114.191 56.4796 113.776 55.2954 113.651 53.6543C113.544 52.2625 113.708 50.1698 114.143 47.3762C114.509 45.067 114.665 43.4184 114.611 42.4303C114.807 41.9899 115.134 41.755 115.591 41.7257C115.903 41.7058 116.161 41.7988 116.365 42.005C116.58 42.2209 116.696 42.4482 116.714 42.6871C116.766 43.3622 116.597 44.3646 116.208 45.6941C115.423 48.4162 115.104 50.7328 115.25 52.6439C115.4 54.607 116 55.5549 117.05 55.4877C118.09 55.4212 119.268 54.4429 120.587 52.553C121.866 50.7072 122.917 48.1924 123.739 45.0087C124.065 43.798 124.344 43.013 124.578 42.6536C124.756 42.3813 125.011 42.2345 125.343 42.2132C125.582 42.1979 125.76 42.2597 125.875 42.3984C125.989 42.5268 126.061 42.7883 126.091 43.183C126.09 43.3083 126.025 43.6778 125.894 44.2915C125.446 46.7729 125.305 49.099 125.471 51.2697C125.677 53.9598 126.253 55.692 127.2 56.4664C127.335 56.5831 127.442 56.6962 127.524 56.8058C127.615 56.9043 127.673 56.9789 127.698 57.0295C127.733 57.0794 127.751 57.1096 127.752 57.12C127.763 57.2654 127.63 57.4357 127.352 57.6309C127.005 57.8723 126.696 58.0016 126.426 58.0189C125.875 58.0542 125.37 57.6011 124.912 56.6598C124.403 55.6069 124.066 54.0003 123.901 51.8399L123.859 51.2946C123.847 51.1284 123.839 50.9567 123.836 50.7795L123.801 49.0909ZM133.786 48.7338L134.263 48.6249C136.589 48.0273 138.553 46.2526 140.156 43.3007C140.871 42.0024 141.526 41.0734 142.121 40.5135C142.708 39.9958 143.345 39.715 144.031 39.6711C144.239 39.6578 144.47 39.7525 144.726 39.9554C144.97 40.1381 145.102 40.3644 145.123 40.6345C145.147 40.9461 144.778 41.2463 144.016 41.535C143.469 41.7475 142.966 42.0719 142.508 42.5083C142.082 42.9426 141.35 43.9601 140.313 45.5607C139.547 46.7474 138.849 47.5905 138.218 48.0901C138.208 48.0907 138.193 48.0969 138.173 48.1087C138.163 48.1197 138.148 48.1311 138.128 48.1428C138.119 48.1539 138.104 48.1704 138.085 48.1925C138.066 48.2146 138.047 48.2367 138.027 48.2588C138.019 48.2803 138.005 48.3072 137.987 48.3397C137.979 48.3716 137.971 48.4086 137.964 48.4508C137.967 48.4923 137.97 48.5339 137.973 48.5754C137.977 48.6274 137.981 48.6741 137.984 48.7156C137.997 48.7461 138.01 48.7766 138.022 48.8071C138.045 48.837 138.063 48.8671 138.076 48.8976C138.099 48.9171 138.116 48.9368 138.128 48.9569C138.149 48.966 138.171 48.9802 138.194 48.9997C138.226 49.0081 138.247 49.0171 138.258 49.0268C138.27 49.0366 138.286 49.046 138.308 49.055C138.329 49.0641 138.34 49.0686 138.34 49.0686C139.004 49.4227 139.74 50.1688 140.548 51.307C141.822 53.0729 142.795 54.1848 143.467 54.6428C144.193 55.1182 144.992 55.328 145.865 55.2721L146.394 55.2226C146.446 55.2193 146.488 55.2166 146.519 55.2146C146.532 55.2451 146.539 55.2759 146.542 55.3071C146.563 55.5875 146.405 55.9159 146.069 56.2924C145.721 56.6694 145.085 56.8876 144.16 56.9468C143.474 56.9907 142.794 56.7106 142.121 56.1066C141.413 55.4526 140.578 54.3632 139.615 52.8383C139.031 51.8946 138.491 51.1777 137.994 50.6876C137.451 50.1483 136.868 49.8986 136.244 49.9385C136.099 49.9478 135.728 50.0864 135.132 50.3541C134.879 50.4642 134.683 50.5551 134.542 50.6267C134.411 50.6873 134.277 50.7794 134.14 50.9029C134.013 51.0258 133.925 51.162 133.873 51.3114C133.799 51.5666 133.796 52.3496 133.865 53.6603C133.919 54.9197 133.976 55.9337 134.035 56.7023C134.056 56.9827 133.941 57.251 133.689 57.5072C133.416 57.7647 133.113 57.9041 132.78 57.9254C132.458 57.946 132.202 57.8737 132.012 57.7085C131.821 57.5328 131.718 57.3567 131.705 57.1801C131.677 56.8166 131.749 55.9092 131.92 54.4579C132.214 51.7463 132.377 47.3106 132.407 41.1507C132.402 40.6709 132.551 40.2282 132.854 39.8226C133.138 39.4392 133.462 39.2358 133.826 39.2125C133.951 39.2045 134.072 39.2803 134.188 39.4398C134.341 39.6597 134.432 39.9617 134.461 40.346C134.487 40.6784 134.464 41.0608 134.392 41.4933C133.956 43.7131 133.752 45.9597 133.779 48.2332L133.786 48.7338ZM158.968 50.598C158.85 50.4177 158.727 50.2429 158.599 50.0737C158.435 49.8441 158.25 49.6107 158.044 49.3734C157.859 49.1451 157.435 48.7861 156.771 48.2963C156.183 47.8434 155.798 47.5914 155.616 47.5404C155.466 47.4874 155.19 47.4947 154.787 47.5622C154.344 47.6323 153.956 47.7511 153.624 47.9184C153.25 48.0884 152.965 48.2528 152.768 48.4115C152.581 48.5592 152.41 48.7162 152.256 48.8827C152.118 48.9958 151.934 49.2529 151.704 49.6538C151.452 50.0561 151.302 50.3423 151.252 50.5125C151.204 50.7034 151.16 50.9515 151.121 51.2567C151.103 51.5605 151.11 51.7949 151.143 51.9598C151.156 52.1259 151.24 52.4024 151.395 52.7891C151.547 53.1446 151.698 53.4012 151.845 53.5587C152.028 53.7558 152.2 53.8909 152.362 53.964C152.516 54.0585 152.679 54.1524 152.854 54.2456C153.038 54.3278 153.327 54.4189 153.721 54.5189C154.072 54.6009 154.372 54.639 154.623 54.6334C154.903 54.6155 155.134 54.5642 155.316 54.4795C155.521 54.4246 155.728 54.3383 155.939 54.2205C156.159 54.102 156.384 53.9624 156.612 53.8017C156.789 53.665 157.118 53.3204 157.598 52.7679C158.046 52.2069 158.317 51.8504 158.41 51.6983C158.501 51.5255 158.582 51.3585 158.653 51.1974C158.757 51.0447 158.862 50.8449 158.968 50.598ZM160.531 51.3591C160.403 51.6073 160.304 51.8068 160.232 51.9575C160.161 52.129 160.056 52.3288 159.917 52.5569C159.79 52.8051 159.458 53.2542 158.923 53.9043C158.377 54.555 157.951 54.9893 157.644 55.2073C157.357 55.4135 157.062 55.5941 156.761 55.7491C156.47 55.9138 156.183 56.047 155.898 56.1487C155.582 56.2524 155.211 56.3179 154.785 56.3452C154.339 56.3946 153.844 56.3427 153.3 56.1897C152.8 56.0756 152.42 55.9538 152.16 55.8243C151.91 55.7046 151.659 55.5641 151.407 55.4028C151.155 55.252 150.892 55.0235 150.618 54.7175C150.29 54.394 150.022 53.9624 149.814 53.4225C149.607 52.9035 149.476 52.484 149.42 52.164C149.376 51.8641 149.375 51.5041 149.416 51.084C149.468 50.6736 149.534 50.3145 149.615 50.0066C149.696 49.6988 149.889 49.2794 150.193 48.7485C150.499 48.2384 150.778 47.8605 151.031 47.6147C151.256 47.4124 151.497 47.2195 151.754 47.0361C152.022 46.8415 152.37 46.6209 152.801 46.3742C153.294 46.1339 153.86 45.9567 154.499 45.8428C155.149 45.7386 155.683 45.7514 156.101 45.8812C156.474 45.9826 157.071 46.3462 157.892 46.9721C157.736 46.575 157.612 46.2542 157.521 46.0096C157.368 45.654 157.151 45.2087 156.87 44.6735C156.57 44.1604 156.314 43.7592 156.104 43.47C155.894 43.1808 155.662 42.94 155.407 42.7475C155.205 42.5725 154.829 42.3618 154.277 42.1153C153.726 41.8688 153.254 41.7163 152.863 41.6578C152.432 41.6228 152.086 41.6032 151.825 41.599C151.565 41.6157 151.311 41.6423 151.063 41.6791C150.857 41.7131 150.482 41.8624 149.938 42.1268C149.545 42.3189 149.291 42.4761 149.175 42.5983L149.006 42.8596C148.896 43.0545 148.723 43.1856 148.488 43.2528C148.263 43.309 148.041 43.2763 147.822 43.1545C147.614 43.0218 147.475 42.8428 147.405 42.6176C147.346 42.3814 147.386 42.1648 147.528 41.9679L147.694 41.6755C147.907 41.3174 148.391 40.9525 149.146 40.5806C149.85 40.2328 150.393 40.0259 150.775 39.9597C151.096 39.9183 151.422 39.887 151.755 39.8657C152.099 39.8645 152.54 39.8885 153.077 39.9377C153.635 40.0063 154.267 40.2007 154.97 40.521C155.674 40.8413 156.194 41.1525 156.53 41.4545C156.855 41.7364 157.172 42.0605 157.482 42.4269C157.771 42.7945 158.074 43.2761 158.391 43.8716C158.719 44.4665 158.961 44.9728 159.119 45.3907C159.274 45.7878 159.485 46.3536 159.75 47.0881C160.015 47.8226 160.205 48.3323 160.321 48.6171C160.448 48.9116 160.566 49.2276 160.675 49.5651C160.794 49.8914 160.88 50.1208 160.932 50.2532L160.934 50.2843C161.051 50.4439 161.037 50.6796 160.894 50.9914L160.531 51.3591ZM163.774 42.948C163.828 42.8401 163.881 42.7063 163.931 42.5465C163.982 42.3867 164.023 42.2432 164.055 42.1159C164.088 41.999 164.14 41.8651 164.212 41.7144C164.274 41.5643 164.344 41.4555 164.422 41.3878C164.511 41.3195 164.626 41.2548 164.768 41.1935C164.91 41.1427 165.072 41.1427 165.254 41.1937C165.469 41.4096 165.603 41.6671 165.657 41.9664C165.701 42.2662 165.707 42.6207 165.676 43.0298C165.644 43.4284 165.635 43.7212 165.649 43.9082C165.516 44.6264 165.456 45.4183 165.47 46.2837C165.484 47.1491 165.536 47.9024 165.627 48.5437C165.718 49.185 165.852 49.9749 166.028 50.9134C166.561 51.6099 167.072 52.2034 167.558 52.6942C168.046 53.1953 168.585 53.6148 169.174 53.9528C170.026 53.6165 170.749 53.231 171.343 52.7964C171.936 52.3619 172.385 51.8113 172.689 51.1447C172.668 50.7286 172.667 50.3007 172.685 49.8612C172.705 49.432 172.738 48.9184 172.787 48.3204C172.845 47.7217 172.881 47.2968 172.893 47.0455C172.922 46.6053 172.912 46.058 172.862 45.4037C172.821 44.7383 172.783 44.1667 172.746 43.6889C172.709 43.2007 172.725 42.657 172.794 42.0577C172.863 41.4583 173.004 40.9118 173.217 40.418C173.272 40.4563 173.69 40.727 174.47 41.2302C174.581 41.9955 174.692 42.9747 174.804 44.1678C174.916 45.3609 175.01 46.383 175.085 47.234C175.162 48.0954 175.314 49.0615 175.542 50.1324C175.77 51.2033 176.069 52.1757 176.439 53.0496C176.872 52.5731 177.428 51.9895 178.107 51.299C178.635 51.5053 179.04 51.8238 179.324 52.2544C179.607 52.6851 179.759 53.1659 179.779 53.697C179.809 54.2273 179.776 54.7513 179.68 55.2689C179.552 55.9242 179.402 56.4191 179.229 56.7537C179.165 56.8726 179.06 57.0724 178.914 57.3531C178.779 57.6331 178.665 57.8544 178.573 58.0168C178.481 58.1793 178.361 58.3801 178.212 58.6192C178.063 58.8583 177.915 59.0452 177.769 59.1798C177.611 59.3047 177.438 59.4254 177.248 59.5419C177.058 59.648 176.843 59.7036 176.603 59.7085C176.373 59.7127 176.124 59.666 175.856 59.5684C176.005 59.204 176.257 58.6712 176.611 57.9702C176.974 57.258 177.265 56.6132 177.482 56.0357C177.709 55.4576 177.843 54.8802 177.882 54.3037C177.198 54.504 176.492 54.6379 175.766 54.7052C175.538 54.4588 175.312 54.1602 175.087 53.8093C174.872 53.4578 174.709 53.1811 174.6 52.9794C174.501 52.777 174.339 52.4377 174.115 51.9615C173.937 52.3695 173.756 52.7307 173.571 53.0453C173.386 53.3598 173.165 53.6766 172.907 53.9958C172.649 54.3149 172.351 54.5793 172.012 54.7889C171.673 54.9984 171.302 55.1422 170.901 55.22C170.299 55.4047 169.695 55.4381 169.091 55.3202C168.487 55.2127 167.932 54.9821 167.424 54.6284C166.917 54.2747 166.458 53.8813 166.049 53.4483C165.208 52.5523 164.831 52.0702 164.92 52.0019C164.92 52.0019 164.899 51.9354 164.858 51.8024C164.839 51.6992 164.824 51.6271 164.81 51.5863C164.531 50.8109 164.253 50.0355 163.974 49.2601C163.959 48.52 163.945 47.7799 163.93 47.0398C163.924 46.56 163.897 45.8625 163.848 44.9471C163.809 44.0207 163.784 43.3544 163.774 42.948ZM192.94 44.6668L192.271 46.1656C191.283 48.5459 190.234 50.403 189.125 51.7369C188.044 53.0377 186.978 53.7216 185.928 53.7888C185.356 53.8254 184.725 53.4901 184.034 52.7828C183.33 52.0555 182.916 50.8713 182.791 49.2302C182.684 47.8384 182.848 45.7457 183.282 42.9521C183.649 40.6429 183.805 38.9943 183.751 38.0062C183.947 37.5658 184.274 37.3309 184.731 37.3016C185.043 37.2817 185.301 37.3748 185.504 37.5809C185.719 37.7968 185.836 38.0241 185.854 38.263C185.906 38.9381 185.737 39.9405 185.348 41.27C184.563 43.9921 184.244 46.3087 184.39 48.2198C184.54 50.1829 185.14 51.1308 186.19 51.0636C187.23 50.9971 188.408 50.0188 189.726 48.1289C191.006 46.2831 192.057 43.7683 192.879 40.5846C193.205 39.3739 193.484 38.5889 193.718 38.2295C193.895 37.9572 194.151 37.8104 194.483 37.7892C194.722 37.7739 194.899 37.8356 195.014 37.9743C195.129 38.1027 195.201 38.3642 195.231 38.7589C195.23 38.8842 195.164 39.2537 195.034 39.8675C194.586 42.3488 194.445 44.6749 194.611 46.8457C194.817 49.5357 195.393 51.2679 196.34 52.0423C196.474 52.159 196.582 52.2721 196.664 52.3817C196.755 52.4802 196.813 52.5548 196.838 52.6054C196.873 52.6553 196.891 52.6855 196.892 52.6959C196.903 52.8413 196.769 53.0116 196.492 53.2068C196.145 53.4482 195.836 53.5775 195.566 53.5948C195.015 53.6301 194.51 53.177 194.052 52.2357C193.543 51.1828 193.206 49.5762 193.041 47.4158L192.999 46.8705C192.986 46.7043 192.979 46.5326 192.975 46.3554L192.94 44.6668ZM209.317 51.8695C209.187 52.0866 208.993 52.2138 208.735 52.2512L208.241 52.3454C207.819 52.435 207.282 52.4381 206.627 52.3547C205.985 52.2914 205.389 52.1365 204.837 51.89C204.329 51.6616 203.904 51.4331 203.562 51.2044C203.198 50.946 202.746 50.4948 202.205 49.8509C201.667 49.2279 201.283 48.7201 201.055 48.3277C200.835 47.9138 200.633 47.1753 200.447 46.1122C200.243 45.0815 200.154 44.3305 200.181 43.8591C200.231 43.4279 200.359 42.8457 200.564 42.1124C200.779 41.3681 201.018 40.7318 201.28 40.2036C201.552 39.6643 201.818 39.2403 202.076 38.9315C202.355 38.611 202.775 38.2293 203.336 37.7863C203.939 37.3406 204.682 37.0165 205.565 36.8139C206.427 36.6126 207.063 36.5198 207.471 36.5354C207.861 36.5731 208.43 36.7141 209.18 36.9583C209.91 37.2143 210.451 37.4511 210.801 37.6687C211.162 37.8752 211.546 38.1846 211.954 38.5969C212.361 39.0092 212.662 39.3918 212.856 39.7447C213.073 40.117 213.3 40.7026 213.539 41.5014C213.765 42.2801 213.893 42.9973 213.923 43.653C213.969 44.2658 213.978 44.7871 213.948 45.2169C213.939 45.6454 213.844 46.2412 213.662 47.0044C213.481 47.7883 213.264 48.4336 213.01 48.9404C212.727 49.4699 212.337 49.975 211.841 50.4555C211.345 50.9361 210.942 51.2593 210.631 51.4254C210.339 51.5797 209.901 51.7277 209.317 51.8695ZM205.355 50.26C205.6 50.0564 205.873 49.9972 206.172 50.0825L206.669 50.2385C206.936 50.305 207.226 50.349 207.541 50.3706C207.844 50.3721 208.253 50.3198 208.767 50.2139C209.282 50.1079 209.619 50.008 209.779 49.9143C209.959 49.8192 210.245 49.587 210.634 49.2177C211.015 48.8698 211.295 48.5074 211.476 48.1306C211.656 47.7537 211.82 47.2422 211.969 46.596C212.127 45.9284 212.215 45.4322 212.232 45.1076C212.247 44.7622 212.238 44.3035 212.205 43.7316C212.164 43.2019 212.051 42.609 211.865 41.9529C211.691 41.3065 211.532 40.8679 211.389 40.637C211.244 40.3853 211.019 40.1075 210.714 39.8035C210.408 39.4891 210.134 39.2613 209.894 39.1201C209.663 38.9679 209.242 38.7965 208.632 38.6059C208.042 38.4036 207.616 38.29 207.353 38.2651C207.112 38.2596 206.658 38.3304 205.99 38.4775C205.364 38.622 204.834 38.8594 204.399 39.1899C203.935 39.5431 203.617 39.8192 203.444 40.0182C203.273 40.2379 203.074 40.5689 202.846 41.0114C202.618 41.4435 202.408 41.9788 202.217 42.6173C202.035 43.2447 201.935 43.7155 201.917 44.0298C201.899 44.3337 201.965 44.9295 202.117 45.8174C202.287 46.6833 202.451 47.252 202.607 47.5238C202.755 47.8171 203.052 48.2207 203.499 48.7349C203.947 49.2594 204.292 49.613 204.536 49.7958C204.747 49.9597 205.02 50.1144 205.355 50.26ZM227.739 41.1407C227.87 41.0801 227.97 41.0164 228.038 40.9494C228.106 40.8824 228.157 40.806 228.193 40.7203C228.236 40.6027 228.271 40.4491 228.298 40.2595C228.325 40.0595 228.347 39.7345 228.365 39.2846C228.392 38.8236 228.409 38.4311 228.416 38.1071C228.422 37.7728 228.434 37.1823 228.453 36.3357C228.491 34.6424 228.905 33.7705 229.695 33.72C230.027 33.6987 230.261 33.7464 230.395 33.863C230.529 33.9797 230.609 34.2042 230.635 34.5366C230.647 34.7028 230.608 35.0758 230.516 35.6557C229.975 39.2286 229.795 42.2094 229.978 44.5983C230.182 47.278 230.759 49.0102 231.707 49.795C231.84 49.9012 231.948 50.0092 232.029 50.1188C232.12 50.2173 232.178 50.2919 232.203 50.3425C232.238 50.3924 232.256 50.4226 232.257 50.433C232.269 50.5888 232.135 50.7591 231.857 50.9439C231.51 51.1853 231.201 51.3146 230.931 51.3319C230.318 51.3711 229.777 50.7951 229.31 49.6039C228.843 48.4126 228.512 46.5447 228.318 44C228.291 43.6468 228.172 43.3935 227.962 43.24C227.829 43.1441 227.685 43.1011 227.529 43.1111C226.646 43.1676 225.574 43.2988 224.316 43.5046C223.035 43.7013 222.122 43.9163 221.576 44.1496C220.916 44.4006 220.5 44.6359 220.329 44.8556C220.159 45.0857 220.041 45.589 219.975 46.3656C219.913 47.0688 219.912 47.7995 219.97 48.5577L220.123 50.5675C220.161 51.0556 220.098 51.404 219.937 51.6127C219.776 51.8317 219.493 51.9542 219.087 51.9801C218.775 52.0001 218.539 51.9161 218.379 51.728C218.229 51.5497 218.135 51.2061 218.096 50.6972C218.039 49.9494 218.06 48.993 218.159 47.8282C218.335 45.6251 218.392 41.8588 218.33 36.5294C218.324 35.914 218.343 35.5371 218.384 35.3987C218.417 35.2818 218.552 35.1323 218.789 34.9501C219.015 34.7686 219.269 34.6689 219.549 34.651C219.851 34.6317 220.052 34.6606 220.151 34.7377C220.251 34.8044 220.308 34.9364 220.323 35.1338C220.324 35.2902 220.263 36.0561 220.138 37.4313C220.011 39.0572 219.982 40.3167 220.051 41.21C220.08 41.5943 220.188 41.9109 220.374 42.1599C220.56 42.409 220.814 42.5232 221.137 42.5025C221.864 42.456 223.163 42.2267 225.033 41.8149C225.229 41.7815 225.465 41.735 225.743 41.6755C226.031 41.6153 226.247 41.5702 226.391 41.5401C226.545 41.5094 226.725 41.4718 226.93 41.4273C227.135 41.3724 227.288 41.3261 227.39 41.2883C227.501 41.2394 227.617 41.1902 227.739 41.1407ZM244.985 40.0372C245.116 39.9766 245.216 39.9128 245.284 39.8459C245.352 39.7789 245.403 39.7025 245.439 39.6168C245.482 39.4992 245.517 39.3456 245.544 39.156C245.571 38.956 245.593 38.631 245.611 38.1811C245.638 37.7201 245.655 37.3276 245.662 37.0036C245.668 36.6693 245.68 36.0788 245.699 35.2321C245.737 33.5389 246.151 32.667 246.941 32.6165C247.273 32.5952 247.507 32.6429 247.641 32.7595C247.775 32.8762 247.855 33.1007 247.881 33.433C247.893 33.5992 247.854 33.9723 247.762 34.5522C247.221 38.125 247.041 41.1059 247.224 43.4948C247.428 46.1745 248.005 47.9067 248.953 48.6914C249.086 48.7977 249.193 48.9056 249.275 49.0152C249.366 49.1138 249.424 49.1883 249.449 49.2389C249.484 49.2889 249.502 49.319 249.503 49.3294C249.515 49.4852 249.381 49.6555 249.103 49.8403C248.756 50.0817 248.447 50.2111 248.177 50.2284C247.564 50.2676 247.023 49.6916 246.556 48.5003C246.089 47.3091 245.758 45.4411 245.564 42.8965C245.537 42.5433 245.418 42.29 245.208 42.1364C245.075 42.0406 244.931 41.9976 244.775 42.0076C243.892 42.0641 242.82 42.1953 241.562 42.4011C240.281 42.5978 239.368 42.8128 238.822 43.0461C238.162 43.297 237.746 43.5324 237.575 43.7521C237.405 43.9821 237.287 44.4855 237.221 45.2621C237.159 45.9653 237.158 46.696 237.216 47.4542L237.369 49.4639C237.407 49.9521 237.344 50.3005 237.183 50.5091C237.022 50.7282 236.739 50.8507 236.333 50.8766C236.021 50.8966 235.785 50.8125 235.625 50.6245C235.475 50.4462 235.381 50.1026 235.342 49.5936C235.285 48.8458 235.306 47.8895 235.405 46.7246C235.581 44.5215 235.638 40.7553 235.576 35.4259C235.57 34.8104 235.589 34.4335 235.63 34.2952C235.663 34.1783 235.798 34.0287 236.035 33.8466C236.261 33.6651 236.515 33.5654 236.795 33.5474C237.097 33.5281 237.298 33.5571 237.397 33.6342C237.497 33.7009 237.554 33.8329 237.569 34.0302C237.57 34.1867 237.509 34.9526 237.384 36.3278C237.257 37.9537 237.228 39.2132 237.297 40.1064C237.326 40.4907 237.434 40.8074 237.62 41.0564C237.806 41.3054 238.06 41.4196 238.383 41.399C239.11 41.3524 240.409 41.1232 242.279 40.7113C242.475 40.6779 242.711 40.6315 242.989 40.572C243.277 40.5118 243.493 40.4667 243.637 40.4366C243.791 40.4058 243.971 40.3682 244.176 40.3238C244.381 40.2689 244.534 40.2226 244.636 40.1848C244.747 40.1359 244.863 40.0867 244.985 40.0372ZM262.943 43.9449C262.825 43.7646 262.702 43.5898 262.574 43.4206C262.41 43.191 262.225 42.9576 262.019 42.7203C261.834 42.492 261.41 42.133 260.746 41.6432C260.157 41.1903 259.773 40.9383 259.591 40.8873C259.441 40.8343 259.165 40.8416 258.762 40.9091C258.318 40.9792 257.931 41.098 257.599 41.2653C257.225 41.4353 256.94 41.5997 256.743 41.7584C256.556 41.9061 256.385 42.0631 256.231 42.2296C256.093 42.3427 255.909 42.5998 255.679 43.0007C255.427 43.403 255.277 43.6892 255.227 43.8594C255.179 44.0503 255.135 44.2984 255.096 44.6036C255.077 44.9074 255.085 45.1418 255.118 45.3067C255.131 45.4728 255.215 45.7493 255.37 46.136C255.522 46.4915 255.672 46.7481 255.82 46.9056C256.002 47.1027 256.175 47.2378 256.337 47.3109C256.49 47.4054 256.654 47.4993 256.829 47.5925C257.012 47.6747 257.301 47.7658 257.696 47.8658C258.047 47.9478 258.347 47.9859 258.598 47.9803C258.878 47.9624 259.109 47.9111 259.291 47.8264C259.496 47.7715 259.703 47.6852 259.914 47.5674C260.134 47.4489 260.359 47.3093 260.587 47.1486C260.764 47.0119 261.093 46.6673 261.573 46.1148C262.021 45.5538 262.292 45.1973 262.385 45.0452C262.476 44.8724 262.557 44.7054 262.628 44.5443C262.732 44.3916 262.836 44.1918 262.943 43.9449ZM264.505 44.706C264.378 44.9542 264.278 45.1537 264.206 45.3044C264.136 45.4759 264.031 45.6757 263.892 45.9038C263.764 46.152 263.433 46.6011 262.898 47.2512C262.352 47.9019 261.926 48.3362 261.619 48.5542C261.331 48.7604 261.037 48.941 260.735 49.096C260.445 49.2607 260.158 49.3939 259.873 49.4956C259.557 49.5993 259.186 49.6648 258.76 49.6921C258.314 49.7415 257.819 49.6896 257.275 49.5366C256.775 49.4225 256.395 49.3007 256.134 49.1712C255.885 49.0515 255.634 48.911 255.381 48.7497C255.13 48.5989 254.867 48.3704 254.593 48.0644C254.265 47.7409 253.997 47.3093 253.789 46.7694C253.582 46.2504 253.45 45.8309 253.395 45.5109C253.351 45.211 253.349 44.851 253.39 44.4309C253.443 44.0205 253.509 43.6614 253.59 43.3535C253.671 43.0457 253.864 42.6263 254.168 42.0954C254.474 41.5853 254.753 41.2074 255.006 40.9616C255.23 40.7593 255.472 40.5664 255.729 40.383C255.996 40.1884 256.345 39.9678 256.776 39.7211C257.269 39.4808 257.835 39.3036 258.474 39.1897C259.124 39.0855 259.658 39.0983 260.075 39.2281C260.449 39.3295 261.046 39.6931 261.867 40.319C261.711 39.9219 261.587 39.6011 261.495 39.3565C261.343 39.0009 261.126 38.5556 260.845 38.0204C260.545 37.5073 260.289 37.1061 260.079 36.8169C259.869 36.5277 259.636 36.2869 259.382 36.0944C259.18 35.9194 258.804 35.7087 258.252 35.4622C257.7 35.2157 257.229 35.0632 256.838 35.0047C256.407 34.9697 256.061 34.9501 255.799 34.9459C255.54 34.9626 255.286 34.9892 255.038 35.026C254.831 35.06 254.456 35.2093 253.912 35.4737C253.52 35.6658 253.265 35.823 253.149 35.9452L252.981 36.2065C252.871 36.4014 252.698 36.5325 252.463 36.5997C252.237 36.6559 252.016 36.6232 251.797 36.5014C251.589 36.3687 251.45 36.1897 251.38 35.9645C251.32 35.7283 251.361 35.5117 251.503 35.3148L251.669 35.0224C251.882 34.6643 252.366 34.2994 253.121 33.9275C253.825 33.5797 254.368 33.3728 254.75 33.3066C255.07 33.2652 255.397 33.2339 255.73 33.2126C256.074 33.2114 256.515 33.2354 257.051 33.2846C257.61 33.3532 258.242 33.5476 258.945 33.8679C259.648 34.1882 260.168 34.4994 260.505 34.8014C260.829 35.0833 261.147 35.4074 261.457 35.7738C261.746 36.1414 262.049 36.623 262.366 37.2185C262.694 37.8134 262.936 38.3197 263.093 38.7376C263.249 39.1347 263.46 39.7005 263.725 40.435C263.99 41.1695 264.18 41.6792 264.296 41.964C264.423 42.2585 264.541 42.5745 264.65 42.912C264.769 43.2383 264.855 43.4677 264.907 43.6001L264.909 43.6312C265.026 43.7908 265.012 44.0265 264.869 44.3383L264.505 44.706ZM270.804 31.7784C271.256 31.5511 271.712 31.3654 272.171 31.2212C272.63 31.077 273.114 30.9782 273.622 30.9249C274.139 30.8604 274.634 30.9071 275.105 31.0648C275.587 31.2114 275.999 31.4773 276.341 31.8624C276.486 31.8427 276.776 31.8137 277.212 31.7754C277.648 31.737 277.939 31.7132 278.084 31.7039C278.962 36.762 279.465 41.7031 279.593 46.5273C279.48 46.5554 279.25 46.6223 278.903 46.728C278.566 46.8226 278.341 46.8892 278.229 46.9277C278.141 46.0462 278.062 45.352 277.992 44.845C277.932 44.3374 277.832 43.7124 277.692 42.9699C277.561 42.2163 277.415 41.5316 277.253 40.9157C276.453 41.8019 275.813 42.516 275.332 43.0582C274.862 43.5997 274.297 44.2777 273.639 45.0922C272.99 45.8957 272.416 46.6526 271.916 47.3629C271.836 47.5455 271.727 47.6882 271.589 47.791C271.46 47.8827 271.307 47.929 271.129 47.9299C270.952 47.9309 270.789 47.9204 270.641 47.8986C270.493 47.8767 270.313 47.8413 270.1 47.7923C269.887 47.7329 269.727 47.6961 269.622 47.682C269.661 47.6482 269.75 47.5851 269.889 47.4927C270.028 47.4002 270.118 47.3371 270.157 47.3033C270.36 46.8206 270.646 46.3222 271.014 45.8081C271.382 45.294 271.74 44.8484 272.087 44.4714C272.434 44.0943 272.813 43.6525 273.224 43.1462C273.634 42.6398 273.964 42.1699 274.213 41.7365C273.641 41.7731 273.07 41.7522 272.5 41.6739C271.929 41.5851 271.37 41.4383 270.821 41.2333C270.283 41.0277 269.8 40.7246 269.373 40.3241C268.945 39.9235 268.632 39.453 268.434 38.9125C267.777 37.6916 267.755 36.2475 268.37 34.5799C269.06 33.3668 269.872 32.4329 270.804 31.7784ZM271.808 33.2327C271.5 33.4403 271.192 33.6427 270.883 33.8399C269.523 35.4611 269.176 36.8663 269.842 38.0553C270.182 38.8163 270.763 39.3792 271.585 39.7441C272.407 40.109 273.217 40.1929 274.017 39.9956C275.264 39.4983 276.281 38.7287 277.069 37.6868C277.065 37.6452 277.067 37.5303 277.074 37.342C277.09 37.1531 277.097 37.0326 277.093 36.9807C277.099 36.9177 277.105 36.7973 277.112 36.6194C277.12 36.4415 277.121 36.3162 277.115 36.2435C277.109 36.1708 277.106 36.0562 277.104 35.8997C277.102 35.7329 277.093 35.6082 277.076 35.5258C277.069 35.4323 277.055 35.3184 277.034 35.1841C277.012 35.0393 276.988 34.9209 276.96 34.8287C276.931 34.7262 276.892 34.6191 276.841 34.5075C276.801 34.3849 276.755 34.2678 276.705 34.1562C276.448 33.943 276.066 33.6544 275.557 33.2903C275.059 32.9151 274.709 32.6505 274.51 32.4963C273.927 32.5231 273.42 32.5869 272.989 32.6875C272.557 32.7882 272.164 32.9699 271.808 33.2327ZM75.796 78.4956L76.2734 78.3868C78.599 77.7892 80.5631 76.0144 82.1656 73.0625C82.8812 71.7643 83.5362 70.8352 84.1307 70.2753C84.7179 69.7576 85.3545 69.4768 86.0406 69.4329C86.2485 69.4196 86.4804 69.5144 86.7361 69.7172C86.9799 69.8999 87.1121 70.1263 87.1328 70.3963C87.1566 70.7079 86.7878 71.0081 86.0264 71.2969C85.4785 71.5094 84.9758 71.8338 84.5181 72.2701C84.0917 72.7044 83.3599 73.7219 82.3227 75.3226C81.5567 76.5092 80.8586 77.3523 80.2282 77.8519C80.2178 77.8526 80.2026 77.8588 80.1826 77.8705C80.173 77.8815 80.1582 77.8929 80.1382 77.9046C80.1286 77.9157 80.1142 77.9323 80.095 77.9544C80.0758 77.9765 80.0566 77.9986 80.0374 78.0207C80.0286 78.0421 80.015 78.0691 79.9966 78.1016C79.9886 78.1334 79.981 78.1704 79.9737 78.2126C79.9769 78.2542 79.9801 78.2957 79.9833 78.3372C79.9872 78.3892 79.9908 78.4359 79.994 78.4775C80.0067 78.508 80.0195 78.5385 80.0323 78.5689C80.0555 78.5988 80.0734 78.6289 80.0862 78.6594C80.1086 78.6789 80.1258 78.6986 80.1378 78.7188C80.1593 78.7278 80.1813 78.7421 80.2037 78.7615C80.2357 78.7699 80.2573 78.779 80.2685 78.7887C80.2796 78.7984 80.296 78.8078 80.3176 78.8168C80.3392 78.8259 80.35 78.8304 80.35 78.8304C81.0143 79.1845 81.7503 79.9307 82.5581 81.0688C83.8317 82.8347 84.8046 83.9466 85.4768 84.4046C86.2026 84.88 87.002 85.0898 87.8753 85.0339L88.4042 84.9844C88.4562 84.9811 88.4978 84.9784 88.529 84.9764C88.5418 85.0069 88.5493 85.0377 88.5517 85.0689C88.5731 85.3493 88.4154 85.6778 88.0786 86.0542C87.7313 86.4313 87.0951 86.6494 86.1699 86.7086C85.4838 86.7525 84.8043 86.4724 84.1314 85.8684C83.4233 85.2144 82.5879 84.125 81.6252 82.6001C81.0413 81.6564 80.5007 80.9395 80.0036 80.4495C79.461 79.9101 78.8778 79.6604 78.2541 79.7004C78.1086 79.7097 77.7379 79.8482 77.142 80.1159C76.8893 80.226 76.6925 80.3169 76.5517 80.3885C76.4206 80.4491 76.2866 80.5412 76.1498 80.6648C76.0234 80.7877 75.9345 80.9238 75.8833 81.0732C75.8087 81.3285 75.8059 82.1114 75.8747 83.4221C75.9292 84.6815 75.9858 85.6955 76.0445 86.4641C76.0659 86.7446 75.9506 87.0129 75.6986 87.269C75.4258 87.5266 75.1231 87.666 74.7904 87.6872C74.4682 87.7079 74.2119 87.6355 74.0217 87.4703C73.8307 87.2946 73.7284 87.1185 73.7149 86.942C73.6872 86.5784 73.7589 85.671 73.93 84.2198C74.2242 81.5081 74.3867 77.0724 74.4173 70.9125C74.412 70.4327 74.561 69.99 74.8643 69.5845C75.1484 69.201 75.4723 68.9976 75.8362 68.9743C75.9609 68.9663 76.0816 69.0421 76.1983 69.2016C76.3509 69.4215 76.4419 69.7236 76.4712 70.1079C76.4966 70.4402 76.4736 70.8227 76.4022 71.2552C75.9659 73.4749 75.7616 75.7215 75.7891 77.9951L75.796 78.4956ZM100.978 80.3598C100.86 80.1795 100.737 80.0047 100.609 79.8355C100.445 79.6059 100.26 79.3725 100.054 79.1352C99.8694 78.9069 99.445 78.5479 98.7808 78.0581C98.1926 77.6052 97.8077 77.3533 97.6262 77.3023C97.4759 77.2492 97.1996 77.2565 96.7974 77.324C96.3536 77.3941 95.9657 77.5129 95.6337 77.6802C95.2602 77.8503 94.9751 78.0146 94.7783 78.1733C94.5911 78.321 94.4203 78.4781 94.2658 78.6445C94.1282 78.7577 93.9442 79.0147 93.7137 79.4156C93.4624 79.8179 93.3119 80.1041 93.2622 80.2743C93.2141 80.4652 93.1704 80.7133 93.131 81.0185C93.1125 81.3224 93.1199 81.5567 93.1534 81.7216C93.1661 81.8878 93.2499 82.1642 93.4048 82.5509C93.5574 82.9064 93.7075 83.163 93.8554 83.3205C94.0376 83.5176 94.2098 83.6527 94.3721 83.7258C94.5256 83.8204 94.6894 83.9142 94.8637 84.0075C95.0476 84.0896 95.3366 84.1807 95.7307 84.2808C96.0817 84.3627 96.3824 84.4008 96.6326 84.3953C96.9133 84.3773 97.1444 84.326 97.326 84.2413C97.5307 84.1865 97.7383 84.1001 97.9486 83.9823C98.1694 83.8638 98.3938 83.7242 98.6218 83.5635C98.7994 83.4269 99.1282 83.0823 99.6083 82.5297C100.056 81.9687 100.327 81.6122 100.42 81.4601C100.511 81.2873 100.592 81.1203 100.663 80.9592C100.767 80.8065 100.872 80.6067 100.978 80.3598ZM102.54 81.1209C102.413 81.3691 102.314 81.5686 102.241 81.7193C102.171 81.8908 102.066 82.0906 101.927 82.3187C101.8 82.5669 101.468 83.016 100.933 83.6661C100.387 84.3168 99.9608 84.7511 99.6537 84.9691C99.3665 85.1753 99.0721 85.3559 98.7706 85.5109C98.4802 85.6756 98.1927 85.8088 97.908 85.9105C97.5921 86.0143 97.221 86.0798 96.7948 86.107C96.3494 86.1564 95.8544 86.1046 95.31 85.9515C94.8103 85.8374 94.4301 85.7156 94.1695 85.5862C93.9201 85.4664 93.6691 85.3259 93.4165 85.1647C93.1647 85.0138 92.9018 84.7853 92.6277 84.4793C92.3 84.1559 92.032 83.7242 91.8236 83.1844C91.6168 82.6653 91.4855 82.2458 91.4297 81.9258C91.3859 81.6259 91.3845 81.2659 91.4256 80.8458C91.4778 80.4354 91.5443 80.0763 91.6253 79.7685C91.7062 79.4606 91.8988 79.0412 92.2029 78.5103C92.5087 78.0002 92.7879 77.6223 93.0408 77.3765C93.2656 77.1742 93.5068 76.9814 93.7643 76.7979C94.0315 76.6034 94.3803 76.3827 94.8106 76.136C95.3041 75.8957 95.8703 75.7186 96.5093 75.6046C97.1595 75.5004 97.6932 75.5132 98.1105 75.6431C98.4839 75.7444 99.081 76.108 99.9018 76.7339C99.7461 76.3368 99.6224 76.016 99.5306 75.7714C99.378 75.4158 99.1612 74.9705 98.88 74.4353C98.5797 73.9222 98.3244 73.5211 98.1143 73.2318C97.9042 72.9426 97.6716 72.7018 97.4166 72.5093C97.2152 72.3344 96.8387 72.1236 96.2871 71.8771C95.7355 71.6306 95.2643 71.4781 94.8733 71.4196C94.4423 71.3846 94.0961 71.365 93.8346 71.3608C93.5747 71.3775 93.3208 71.4042 93.0729 71.4409C92.8666 71.475 92.4915 71.6242 91.9476 71.8886C91.5549 72.0808 91.3005 72.2379 91.1845 72.3602L91.0164 72.6214C90.906 72.8164 90.7332 72.9474 90.4981 73.0147C90.2725 73.0709 90.0507 73.0381 89.8324 72.9164C89.6238 72.7836 89.4848 72.6046 89.4153 72.3794C89.3555 72.1432 89.3964 71.9266 89.5381 71.7297L89.7037 71.4373C89.9166 71.0792 90.4006 70.7143 91.1557 70.3424C91.8603 69.9947 92.4034 69.7877 92.7848 69.7215C93.1055 69.6801 93.4322 69.6488 93.7648 69.6275C94.1095 69.6263 94.55 69.6503 95.0866 69.6995C95.6454 69.7681 96.2766 69.9626 96.9801 70.2828C97.6836 70.6031 98.2036 70.9143 98.54 71.2163C98.8645 71.4982 99.1818 71.8224 99.4918 72.1887C99.7811 72.5564 100.084 73.0379 100.401 73.6334C100.729 74.2283 100.971 74.7346 101.129 75.1525C101.284 75.5496 101.495 76.1154 101.76 76.8499C102.025 77.5844 102.215 78.0941 102.331 78.3789C102.458 78.6735 102.576 78.9895 102.685 79.3269C102.804 79.6533 102.89 79.8826 102.942 80.015L102.944 80.0462C103.061 80.2057 103.047 80.4414 102.904 80.7532L102.54 81.1209ZM105.719 69.8176C105.818 69.6025 105.974 69.4569 106.187 69.3806C106.411 69.3036 106.632 69.3156 106.848 69.4166C107.075 69.5169 107.228 69.6741 107.307 69.8882L107.467 70.332C107.6 70.7096 107.665 71.1543 107.663 71.6659C107.674 72.093 107.714 72.7532 107.783 73.6465C107.829 74.5202 107.863 75.1129 107.887 75.4245C107.933 75.7452 107.98 76.0866 108.028 76.4488C108.038 76.5734 108.06 76.7338 108.096 76.9298C108.161 76.6856 108.238 76.3988 108.328 76.0695C108.545 75.2206 108.797 74.4844 109.084 73.8607C109.381 73.2363 109.629 72.7873 109.827 72.5137C109.994 72.242 110.285 71.8738 110.699 71.409C111.15 70.8896 111.579 70.4864 111.985 70.1994C112.39 69.8917 112.791 69.673 113.188 69.5432C113.605 69.3913 113.975 69.3154 114.299 69.3155C114.644 69.3144 115.01 69.3953 115.399 69.5583C115.777 69.722 116.058 69.9179 116.243 70.1462C116.404 70.3446 116.64 70.7575 116.949 71.3848C117.202 71.9635 117.378 72.4219 117.477 72.76C117.565 73.0988 117.686 73.5816 117.838 74.2085C117.898 74.4447 117.962 74.6651 118.03 74.8695C118.127 74.498 118.313 73.9955 118.588 73.3621C118.897 72.6117 119.134 72.1008 119.302 71.8291C119.468 71.5471 119.699 71.2192 119.994 70.8455C120.329 70.4379 120.624 70.1372 120.881 69.9433C121.146 69.7176 121.467 69.5405 121.844 69.4121C122.343 69.2548 122.869 69.2943 123.419 69.5304C123.949 69.7575 124.372 70.1061 124.69 70.5763C124.908 70.9694 125.075 71.3084 125.191 71.5932C125.275 71.8696 125.41 72.4089 125.597 73.2111C125.806 74.0327 125.941 74.6346 126.001 75.0169C126.071 75.3882 126.177 75.9451 126.317 76.6876C126.436 77.4314 126.536 78.0564 126.617 78.5627C126.697 79.069 126.757 79.5766 126.796 80.0855C126.854 80.5723 126.907 80.9969 126.956 81.3591C127.004 81.7212 127.045 81.9848 127.079 82.1496L127.13 82.4125C127.169 82.65 127.123 82.8618 126.991 83.0476C126.859 83.2335 126.674 83.3445 126.437 83.3806C126.209 83.416 125.997 83.367 125.799 83.2335C125.61 83.089 125.486 82.9039 125.427 82.678L125.409 82.4443C125.374 82.2587 125.321 81.9751 125.25 81.5934C125.2 81.2105 125.139 80.7551 125.067 80.2274C125.03 79.7393 124.972 79.2524 124.893 78.7669C124.814 78.2814 124.716 77.6824 124.599 76.9697C124.481 76.2466 124.387 75.6943 124.316 75.3126C124.246 74.9518 124.114 74.381 123.919 73.6003C123.733 72.8189 123.602 72.3263 123.524 72.1226C123.469 71.9591 123.369 71.7411 123.223 71.4686C123.127 71.3078 122.977 71.1869 122.772 71.1061C122.62 71.0323 122.514 71.0078 122.453 71.0326C122.269 71.0861 122.114 71.1691 121.986 71.2816C121.809 71.4182 121.601 71.6351 121.362 71.9321C121.084 72.2526 120.885 72.5211 120.766 72.7374C120.646 72.9434 120.444 73.3842 120.162 74.0599C119.878 74.7251 119.705 75.1954 119.643 75.4708C119.583 75.7773 119.503 76.2364 119.403 76.8481C119.313 77.4488 119.251 78.0686 119.216 78.7075C119.168 79.4412 119.139 79.8814 119.129 80.0281C119.106 80.2697 119.061 80.5752 118.996 80.9447C118.94 81.3136 118.898 81.5824 118.869 81.7513C118.848 81.7526 118.828 81.7643 118.809 81.7864C118.79 81.8085 118.745 81.8375 118.675 81.8733C118.604 81.9091 118.529 81.9452 118.448 81.9817C118.378 82.0175 118.292 82.0544 118.19 82.0922C118.088 82.13 117.991 82.1571 117.899 82.1734C117.816 82.1892 117.733 82.1997 117.65 82.205C117.567 82.2103 117.488 82.1997 117.413 82.1732C117.338 82.1467 117.272 82.104 117.215 82.045C117.169 81.9853 117.141 81.9036 117.134 81.7997C117.121 81.6335 117.109 81.5456 117.098 81.5358C117.086 81.5157 117.089 81.4842 117.106 81.4414C117.124 81.3985 117.145 81.3345 117.17 81.2494C117.197 81.0598 117.211 80.8345 117.212 80.5735C117.212 80.2917 117.193 79.9172 117.158 79.4498C117.101 78.9837 117.02 78.4671 116.914 77.8998C116.785 77.3131 116.665 76.7624 116.553 76.2478C116.453 75.7636 116.327 75.2132 116.176 74.5967C116.023 73.9698 115.9 73.5236 115.807 73.2582C115.746 73.0012 115.601 72.6139 115.373 72.0962C115.195 71.6796 115.055 71.412 114.952 71.2934C114.907 71.2545 114.819 71.1923 114.687 71.1068C114.557 71.0525 114.435 71.029 114.321 71.0363C114.215 71.0222 114.052 71.064 113.829 71.1617C113.553 71.242 113.272 71.3904 112.986 71.6071C112.699 71.8133 112.383 72.1205 112.038 72.5288C111.642 72.9611 111.38 73.291 111.251 73.5184C111.119 73.6939 110.926 74.0506 110.675 74.5886C110.424 75.1265 110.197 75.7777 109.994 76.5422C109.772 77.3287 109.637 77.8853 109.589 78.212C109.548 78.4964 109.489 79.022 109.412 79.7889C109.366 80.5641 109.34 81.1033 109.331 81.4065C109.323 81.6994 109.325 82.0801 109.34 82.5488C109.355 83.0176 109.37 83.3506 109.385 83.5479C109.389 83.5895 109.397 83.6359 109.412 83.6872C109.426 83.7384 109.45 83.8413 109.482 83.9957C109.514 84.1398 109.491 84.2509 109.414 84.3289C109.347 84.4063 109.243 84.486 109.103 84.568C108.963 84.65 108.729 84.6598 108.4 84.5973C107.968 84.5415 107.688 84.4341 107.561 84.2753C107.433 84.106 107.416 83.9557 107.511 83.8245L107.621 83.6295C107.58 83.3712 107.543 83.1492 107.507 82.9636C107.471 82.7572 107.398 82.3548 107.29 81.7564C107.181 81.1579 107.089 80.6994 107.012 80.3808C106.945 80.0511 106.826 79.4429 106.654 78.5563C106.481 77.6698 106.37 77.035 106.32 76.652C106.271 76.2898 106.224 75.938 106.177 75.5966C106.15 75.2539 106.113 74.63 106.065 73.7251C105.995 72.8111 105.953 72.1249 105.939 71.6666C105.935 71.3432 105.905 71.0791 105.847 70.874L105.691 70.4769C105.611 70.242 105.62 70.0222 105.719 69.8176ZM132.048 73.9725C132.194 73.9632 132.34 73.9642 132.487 73.9757C132.653 73.965 133.003 73.9583 133.535 73.9556C134.077 73.9418 134.468 73.9272 134.707 73.9119C134.946 73.8966 135.174 73.8716 135.391 73.8368C135.607 73.7917 136.013 73.7083 136.61 73.5866C137.197 73.4864 137.573 73.4102 137.736 73.358C137.91 73.3052 138.148 73.2064 138.45 73.0618C138.723 72.94 138.899 72.8505 138.978 72.7932C139.035 72.7269 139.117 72.6278 139.221 72.4958C139.298 72.4074 139.362 72.2833 139.412 72.1235C139.46 71.9326 139.492 71.7949 139.506 71.7105C139.5 71.6274 139.454 71.4372 139.369 71.14C139.283 70.8428 139.217 70.654 139.169 70.5736C139.1 70.4945 138.959 70.3626 138.747 70.1779C138.544 69.9821 138.34 69.849 138.136 69.7785C137.888 69.6692 137.673 69.5942 137.492 69.5536C137.311 69.5026 137.005 69.47 136.576 69.4557C136.166 69.4193 135.827 69.4305 135.56 69.4894C135.302 69.5268 135.002 69.6295 134.659 69.7975C134.316 69.9552 134.075 70.0802 133.936 70.1726C133.798 70.2858 133.605 70.4912 133.356 70.7889C133.106 71.0763 132.875 71.4616 132.661 71.945C132.418 72.4511 132.273 72.8152 132.227 73.0373C132.178 73.2075 132.118 73.5192 132.048 73.9725ZM130.191 74.4827C130.22 74.3138 130.248 74.1294 130.274 73.9294C130.371 73.2865 130.466 72.8212 130.559 72.5335C130.642 72.2464 130.822 71.8069 131.101 71.215C131.399 70.6011 131.71 70.0906 132.034 69.6837C132.349 69.2982 132.62 69.0148 132.846 68.8333C133.092 68.6297 133.447 68.4243 133.912 68.2171C134.386 67.9989 134.834 67.8502 135.256 67.771C135.659 67.7035 136.127 67.684 136.662 67.7124C137.197 67.7408 137.603 67.7931 137.881 67.8692C138.157 67.935 138.462 68.0303 138.796 68.1551C139.174 68.3188 139.532 68.5568 139.869 68.8692C140.238 69.19 140.483 69.451 140.602 69.6521C140.743 69.8518 140.889 70.1921 141.041 70.6729C141.182 71.1544 141.251 71.5153 141.249 71.7555C141.246 71.9854 141.189 72.276 141.08 72.6274C140.963 73.0002 140.81 73.3231 140.622 73.5961C140.43 73.8171 140.25 73.9956 140.083 74.1315C139.905 74.2681 139.605 74.4387 139.182 74.6432C138.807 74.7925 138.502 74.9111 138.269 74.9991C138.045 75.076 137.609 75.177 136.96 75.302C136.353 75.4243 135.915 75.5045 135.647 75.5426C135.378 75.5807 135.108 75.6084 134.838 75.6257C134.599 75.641 134.198 75.6562 133.635 75.6713C133.072 75.6865 132.702 75.6945 132.524 75.6954C132.357 75.6957 132.201 75.7005 132.055 75.7098C131.993 75.7138 131.915 75.7188 131.822 75.7248C131.813 75.8923 131.805 76.0546 131.796 76.2117C131.791 76.4208 131.837 76.8196 131.935 77.4083C132.031 77.9867 132.107 78.368 132.163 78.5523C132.22 78.7573 132.304 78.9659 132.414 79.178C132.491 79.361 132.649 79.6536 132.889 80.0557C133.104 80.4073 133.307 80.6709 133.498 80.8465C133.724 81.0721 133.919 81.2318 134.083 81.3257C134.216 81.4216 134.481 81.5403 134.878 81.6819C135.277 81.8442 135.631 81.9625 135.939 82.0367C136.247 82.1005 136.599 82.1301 136.996 82.1256C137.425 82.1399 137.717 82.1317 137.871 82.1009C137.996 82.0929 138.235 82.0046 138.588 81.8359C138.9 81.6907 139.106 81.5783 139.204 81.499C139.302 81.4092 139.388 81.3046 139.462 81.185C139.537 81.0654 139.64 80.8501 139.773 80.5389C139.894 80.2076 139.979 79.9517 140.028 79.7711C140.076 79.5802 140.115 79.4107 140.146 79.2626L140.189 79.0093C140.213 78.7678 140.318 78.5784 140.506 78.4411C140.705 78.3032 140.92 78.2476 141.152 78.2745C141.394 78.3008 141.585 78.4138 141.726 78.6135C141.876 78.8022 141.939 79.0122 141.915 79.2433L141.875 79.5433C141.829 79.755 141.768 79.9885 141.694 80.2438C141.629 80.488 141.518 80.8082 141.36 81.2045C141.204 81.6215 141.05 81.9393 140.9 82.1576C140.759 82.3649 140.596 82.558 140.411 82.7368C140.218 82.9371 139.864 83.1632 139.351 83.4153C138.835 83.6362 138.438 83.7712 138.16 83.8203C137.901 83.8577 137.516 83.8719 137.003 83.863C136.47 83.8553 135.996 83.8074 135.582 83.7191C135.167 83.6204 134.728 83.4815 134.265 83.3023C133.758 83.0947 133.379 82.9155 133.127 82.7646C132.907 82.6117 132.645 82.3936 132.341 82.1104C132.015 81.8077 131.708 81.4099 131.419 80.9169C131.124 80.4661 130.923 80.1032 130.819 79.8281C130.695 79.5751 130.592 79.3259 130.511 79.0807C130.427 78.8042 130.328 78.3304 130.214 77.6593C130.11 76.9771 130.062 76.4896 130.071 76.1968C130.071 75.9151 130.08 75.6326 130.101 75.3495C130.096 75.2872 130.101 75.2242 130.117 75.1606C130.113 75.0983 130.109 75.0463 130.106 75.0048C130.071 74.8296 130.1 74.6555 130.191 74.4827ZM146.625 81.8226C145.759 81.2935 145.251 80.585 145.099 79.6971L145.042 79.3564C144.871 78.3549 145.096 77.2654 145.717 76.0881C146.335 74.89 147.91 73.4167 150.44 71.6684C151.241 71.0744 151.877 70.5067 152.347 69.9651C152.838 69.4223 153.063 68.8756 153.021 68.3251C152.975 67.7227 152.706 67.2755 152.213 66.9835C151.766 66.7407 151.397 66.6286 151.106 66.6472C150.42 66.6911 149.148 67.3413 147.291 68.5978C147.211 68.6447 147.146 68.6802 147.095 68.7043C146.762 68.7152 146.535 68.6879 146.415 68.6226C146.305 68.5461 146.243 68.4196 146.23 68.243C146.169 67.4433 146.844 66.706 148.254 66.0313C149.547 65.3119 150.713 64.9189 151.753 64.8524C152.449 64.8079 153.209 65.0463 154.032 65.5676C154.822 66.0598 155.251 66.7577 155.321 67.6613C155.383 68.4819 155.194 69.2924 154.754 70.0929C154.295 70.9155 153.095 72.0256 151.154 73.4231C149.729 74.5998 148.748 75.5602 148.209 76.3044C147.55 77.1188 147.258 78.0143 147.333 78.9906C147.363 79.3853 147.483 79.722 147.692 80.0009C147.911 80.2687 148.197 80.4539 148.55 80.5566C149.096 80.7408 149.505 80.8242 149.775 80.8069C151.418 80.7018 152.992 80.1784 154.497 79.2367C154.947 78.9679 155.27 78.8271 155.468 78.8145C155.634 78.8038 155.746 78.828 155.802 78.887C155.869 78.9453 155.911 79.0836 155.928 79.3017C155.984 80.0391 155.379 80.725 154.111 81.3593C152.794 82.0384 151.232 82.4359 149.423 82.5516C148.466 82.6128 147.534 82.3698 146.625 81.8226ZM167.98 80.5657C167.851 80.7828 167.657 80.91 167.398 80.9474L166.904 81.0416C166.483 81.1312 165.945 81.1343 165.291 81.0509C164.649 80.9876 164.052 80.8327 163.5 80.5862C162.992 80.3578 162.567 80.1293 162.226 79.9007C161.861 79.6422 161.409 79.191 160.869 78.5472C160.33 77.9241 159.947 77.4163 159.718 77.0239C159.499 76.61 159.296 75.8715 159.11 74.8084C158.906 73.7777 158.817 73.0267 158.844 72.5553C158.895 72.1242 159.023 71.5419 159.228 70.8086C159.442 70.0643 159.681 69.428 159.944 68.8998C160.216 68.3605 160.481 67.9365 160.74 67.6277C161.018 67.3072 161.438 66.9255 162 66.4825C162.603 66.0368 163.346 65.7127 164.229 65.5101C165.091 65.3088 165.726 65.216 166.135 65.2316C166.524 65.2693 167.094 65.4103 167.844 65.6545C168.574 65.9105 169.114 66.1473 169.465 66.3649C169.825 66.5714 170.209 66.8809 170.617 67.2931C171.025 67.7054 171.325 68.088 171.52 68.4409C171.736 68.8132 171.964 69.3988 172.202 70.1976C172.429 70.9763 172.557 71.6935 172.586 72.3492C172.633 72.962 172.641 73.4833 172.611 73.9131C172.602 74.3416 172.507 74.9375 172.325 75.7006C172.145 76.4845 171.928 77.1298 171.674 77.6366C171.39 78.1661 171.001 78.6712 170.505 79.1517C170.009 79.6323 169.605 79.9556 169.294 80.1216C169.003 80.2759 168.565 80.4239 167.98 80.5657ZM164.018 78.9562C164.264 78.7526 164.536 78.6934 164.835 78.7787L165.333 78.9347C165.599 79.0012 165.89 79.0452 166.205 79.0668C166.508 79.0683 166.916 79.016 167.431 78.9101C167.945 78.8041 168.282 78.7043 168.442 78.6105C168.623 78.5155 168.908 78.2832 169.298 77.9139C169.678 77.566 169.959 77.2036 170.139 76.8268C170.319 76.4499 170.484 75.9384 170.633 75.2922C170.791 74.6246 170.878 74.1284 170.895 73.8038C170.911 73.4584 170.902 72.9997 170.868 72.4278C170.828 71.8981 170.715 71.3052 170.529 70.6491C170.354 70.0028 170.195 69.5641 170.052 69.3332C169.908 69.0815 169.683 68.8037 169.377 68.4997C169.071 68.1853 168.798 67.9575 168.557 67.8163C168.326 67.6641 167.906 67.4927 167.296 67.3021C166.706 67.0998 166.279 66.9862 166.016 66.9613C165.776 66.9558 165.321 67.0266 164.654 67.1737C164.027 67.3182 163.497 67.5556 163.063 67.8861C162.599 68.2393 162.28 68.5154 162.107 68.7144C161.936 68.9341 161.737 69.2651 161.51 69.7076C161.281 70.1397 161.072 70.675 160.88 71.3135C160.698 71.9409 160.598 72.4117 160.581 72.726C160.562 73.0299 160.629 73.6257 160.78 74.5137C160.951 75.3795 161.114 75.9483 161.271 76.22C161.419 76.5133 161.716 76.9169 162.162 77.4311C162.61 77.9556 162.956 78.3093 163.199 78.492C163.41 78.6559 163.683 78.8106 164.018 78.9562ZM177.971 75.1514L178.18 75.4199C178.272 75.5392 178.497 75.6762 178.853 75.8308C179.256 76.0451 179.841 76.2425 180.607 76.4231C181.354 76.6362 181.881 76.7591 182.186 76.7917C182.502 76.8237 182.988 76.8291 183.645 76.808C184.239 76.7908 184.862 76.6727 185.513 76.4536C186.185 76.2227 186.6 76.05 186.759 75.9355C186.917 75.821 187.171 75.523 187.521 75.0413C187.851 74.5714 188.067 74.1193 188.169 73.6848C188.258 73.2094 188.293 72.8471 188.274 72.5978C188.256 72.3589 188.06 71.7817 187.688 70.8662C187.291 69.9105 187.011 69.3283 186.849 69.1195C186.663 68.8705 186.34 68.5415 185.88 68.1325C185.422 67.734 185.012 67.4366 184.653 67.2404C184.315 67.0533 183.901 66.9076 183.413 66.8031C182.923 66.6883 182.575 66.6376 182.367 66.6509C182.169 66.6635 181.762 66.7992 181.144 67.0579C180.568 67.3035 180.091 67.6315 179.715 68.0417C179.298 68.4546 179.021 68.7959 178.885 69.0655C178.74 69.3566 178.55 69.9532 178.316 70.8553C178.062 71.7692 177.926 72.4459 177.908 72.8854C177.888 73.3146 177.909 74.0699 177.971 75.1514ZM178.11 77.3813C178.13 77.641 178.157 77.8532 178.19 78.0181C178.25 78.5257 178.355 79.2234 178.507 80.1113C178.663 81.0616 178.82 81.9491 178.977 82.7741C179.123 83.5997 179.218 84.1624 179.262 84.4623C179.304 84.7414 179.353 85.1088 179.409 85.5644C179.464 86.0097 179.498 86.3102 179.509 86.466L179.526 86.6842C179.544 86.923 179.471 87.1312 179.307 87.3087C179.154 87.4855 178.957 87.5816 178.718 87.5969C178.49 87.6115 178.286 87.5411 178.107 87.3855C177.928 87.23 177.829 87.0328 177.811 86.7939L177.794 86.5758C177.785 86.4512 177.753 86.1714 177.699 85.7365C177.645 85.312 177.593 84.9657 177.541 84.6977C177.499 84.4185 177.404 83.8662 177.258 83.0406C177.109 82.1943 176.959 81.3167 176.806 80.4081C176.65 79.4578 176.541 78.7185 176.48 78.1901C176.429 77.8072 176.376 77.2418 176.319 76.494C176.296 76.1928 176.27 75.8552 176.241 75.4813C176.185 74.2011 176.168 73.2942 176.19 72.7605C176.212 72.2268 176.355 71.4348 176.62 70.3846C176.906 69.3435 177.149 68.6338 177.35 68.2557C177.56 67.8561 177.921 67.3842 178.433 66.84C178.964 66.2737 179.644 65.8127 180.474 65.4569C181.263 65.1246 181.84 64.952 182.205 64.9391C182.588 64.8937 183.109 64.9439 183.768 65.0896C184.426 65.2353 185.006 65.4435 185.508 65.7141C185.978 65.9867 186.477 66.3722 187.006 66.8707C187.554 67.347 187.945 67.7395 188.177 68.0482C188.463 68.3743 188.832 69.097 189.283 70.2162C189.756 71.3445 189.992 72.1121 189.992 72.5192C190.021 72.9035 189.976 73.4074 189.857 74.0308C189.722 74.7283 189.423 75.3997 188.961 76.0451C188.497 76.6697 188.101 77.1021 187.775 77.3421C187.488 77.5484 186.927 77.7982 186.093 78.0916C185.277 78.3526 184.474 78.4979 183.682 78.5277C182.953 78.5535 182.393 78.5424 182.003 78.4943C181.623 78.4455 181.017 78.3069 180.185 78.0783C179.332 77.8615 178.641 77.6291 178.11 77.3813ZM203.965 70.0125L203.297 71.5113C202.308 73.8916 201.26 75.7487 200.15 77.0826C199.069 78.3834 198.003 79.0673 196.953 79.1345C196.382 79.1711 195.75 78.8358 195.059 78.1285C194.355 77.4012 193.941 76.217 193.816 74.5759C193.709 73.1842 193.873 71.0914 194.307 68.2978C194.674 65.9886 194.83 64.34 194.776 63.3519C194.972 62.9115 195.299 62.6766 195.756 62.6473C196.068 62.6274 196.326 62.7205 196.529 62.9266C196.744 63.1425 196.861 63.3698 196.879 63.6087C196.931 64.2838 196.762 65.2862 196.373 66.6157C195.588 69.3379 195.269 71.6545 195.415 73.5656C195.565 75.5286 196.165 76.4765 197.215 76.4093C198.255 76.3428 199.433 75.3646 200.751 73.4746C202.031 71.6288 203.082 69.1141 203.904 65.9303C204.23 64.7196 204.509 63.9346 204.743 63.5752C204.92 63.3029 205.176 63.1562 205.508 63.1349C205.747 63.1196 205.924 63.1813 206.04 63.3201C206.154 63.4484 206.226 63.71 206.256 64.1046C206.255 64.2299 206.19 64.5994 206.059 65.2132C205.611 67.6945 205.47 70.0206 205.636 72.1914C205.842 74.8814 206.418 76.6137 207.365 77.388C207.5 77.5047 207.607 77.6178 207.689 77.7274C207.78 77.8259 207.838 77.9005 207.863 77.9511C207.898 78.0011 207.916 78.0312 207.917 78.0416C207.928 78.187 207.795 78.3573 207.517 78.5525C207.17 78.7939 206.861 78.9232 206.591 78.9405C206.04 78.9758 205.535 78.5228 205.077 77.5814C204.568 76.5285 204.231 74.9219 204.066 72.7615L204.024 72.2162C204.012 72.0501 204.004 71.8783 204.001 71.7011L203.965 70.0125ZM213.936 61.4684C214.389 61.2411 214.845 61.0554 215.304 60.9112C215.763 60.767 216.247 60.6682 216.754 60.6148C217.272 60.5504 217.766 60.5971 218.238 60.7548C218.719 60.9014 219.131 61.1673 219.474 61.5524C219.619 61.5327 219.909 61.5037 220.345 61.4653C220.781 61.427 221.071 61.4032 221.217 61.3939C222.094 66.452 222.597 71.3931 222.726 76.2173C222.613 76.2454 222.383 76.3123 222.036 76.418C221.699 76.5126 221.474 76.5792 221.362 76.6177C221.274 75.7362 221.194 75.0419 221.124 74.535C221.065 74.0274 220.965 73.4023 220.824 72.6598C220.694 71.9063 220.547 71.2216 220.385 70.6057C219.586 71.4918 218.946 72.206 218.465 72.7482C217.995 73.2897 217.43 73.9677 216.771 74.7822C216.123 75.5857 215.548 76.3426 215.049 77.0529C214.969 77.2355 214.86 77.3782 214.721 77.4809C214.593 77.5727 214.439 77.619 214.262 77.6199C214.084 77.6209 213.922 77.6104 213.774 77.5885C213.626 77.5667 213.445 77.5313 213.233 77.4823C213.019 77.4229 212.86 77.3861 212.754 77.372C212.794 77.3381 212.883 77.275 213.022 77.1826C213.161 77.0902 213.25 77.0271 213.289 76.9933C213.493 76.5106 213.779 76.0122 214.147 75.4981C214.515 74.984 214.873 74.5384 215.22 74.1613C215.567 73.7843 215.946 73.3425 216.356 72.8361C216.767 72.3298 217.097 71.8599 217.345 71.4265C216.774 71.463 216.203 71.4422 215.633 71.3638C215.062 71.2751 214.502 71.1283 213.954 70.9233C213.416 70.7177 212.933 70.4146 212.505 70.014C212.078 69.6135 211.765 69.1429 211.567 68.6024C210.91 67.3816 210.888 65.9374 211.502 64.2699C212.193 63.0568 213.004 62.1229 213.936 61.4684ZM214.941 62.9227C214.633 63.1303 214.324 63.3327 214.016 63.5299C212.656 65.1511 212.309 66.5562 212.974 67.7452C213.315 68.5063 213.896 69.0692 214.717 69.4341C215.539 69.799 216.35 69.8828 217.15 69.6855C218.397 69.1883 219.414 68.4187 220.201 67.3768C220.198 67.3352 220.2 67.2203 220.206 67.032C220.223 66.8431 220.23 66.7226 220.226 66.6707C220.231 66.6077 220.238 66.4873 220.245 66.3094C220.252 66.1315 220.253 66.0062 220.248 65.9335C220.242 65.8608 220.239 65.7462 220.237 65.5897C220.235 65.4229 220.225 65.2982 220.208 65.2158C220.201 65.1223 220.187 65.0084 220.167 64.874C220.145 64.7293 220.12 64.6109 220.093 64.5187C220.064 64.4162 220.024 64.3091 219.974 64.1975C219.933 64.0749 219.888 63.9578 219.837 63.8462C219.581 63.633 219.198 63.3443 218.69 62.9803C218.191 62.6051 217.842 62.3404 217.642 62.1862C217.059 62.2131 216.552 62.2768 216.121 62.3775C215.69 62.4781 215.297 62.6599 214.941 62.9227Z" fill="#242424"/>
</svg>
