<svg width="302" height="91" viewBox="0 0 302 91" fill="none" xmlns="http://www.w3.org/2000/svg">
<path d="M14 20.09C47.99 17.5921 217 9.80399 287.5 35.304C295.479 38.1899 19.9543 37.7878 58 67.804C78.9494 84.332 200.826 73.2993 263.5 67.804" stroke="#0CE9CA" stroke-width="28" stroke-linecap="round"/>
<path d="M16.237 17.4789C16.0156 17.3777 15.8605 17.2235 15.7718 17.0164C15.6932 16.7987 15.6979 16.5799 15.786 16.36C15.8842 16.1295 16.0468 15.971 16.2738 15.8846L16.4753 15.8193C16.5575 15.7766 16.6599 15.7075 16.7825 15.6121C16.9267 15.5476 17.0953 15.4203 17.2883 15.2302C17.4912 15.0191 17.6533 14.8398 17.7745 14.6923C17.9059 14.5343 18.1121 14.2502 18.3932 13.8402C18.6847 13.43 18.8601 13.162 18.9194 13.0361C19.0192 12.8681 19.1439 12.6529 19.2933 12.3904C19.2933 12.3904 19.2984 12.3852 19.3086 12.3746C19.3187 12.364 19.3235 12.3484 19.323 12.3275C19.3222 12.2963 19.3318 12.2649 19.3518 12.2334C19.3718 12.2019 19.3918 12.1703 19.4118 12.1388C19.4319 12.1073 19.4571 12.0757 19.4875 12.044C19.518 12.0124 19.5536 11.9806 19.5945 11.9488C19.6457 11.9169 19.6971 11.8902 19.7487 11.8686C19.8002 11.8471 19.8675 11.8306 19.9506 11.819C20.0336 11.8075 20.1168 11.8011 20.2001 11.8C20.5439 11.7953 20.7856 11.8754 20.9253 12.0402C21.0754 12.2048 21.1424 12.3758 21.1262 12.5531L21.1006 12.7722C21.1049 12.9388 21.0995 13.1316 21.0843 13.3505C21.0475 13.5385 21.0237 13.8253 21.0129 14.2109C21.002 14.5965 21.0157 15.1223 21.0538 15.7885C21.0703 16.4237 21.1068 17.0274 21.1633 17.5995C21.2204 18.1925 21.3026 18.9518 21.4099 19.8775C21.4967 20.8138 21.5673 21.5264 21.6217 22.0152C21.6547 22.4836 21.7031 23.1444 21.7669 23.9977C21.8515 24.8507 21.9265 25.532 21.9918 26.0415C22.0259 26.5515 22.0606 27.0875 22.0961 27.6495C22.1312 28.2011 22.1567 28.581 22.1725 28.7891C22.188 28.9868 22.198 29.169 22.2023 29.3356C22.2066 29.5022 22.2124 29.7261 22.2197 30.0073L22.2611 30.3973C22.2673 30.6368 22.1894 30.8462 22.0273 31.0255C21.8757 31.2047 21.6749 31.2959 21.4249 31.2993C21.1853 31.3026 20.975 31.2273 20.7939 31.0735C20.6229 30.9091 20.5345 30.7124 20.5285 30.4833L20.4863 30.062C20.479 29.7809 20.4732 29.557 20.4689 29.3904C20.4651 29.2446 20.4601 29.0519 20.4539 28.8124C20.4282 28.6253 20.3981 28.2663 20.3635 27.7355C20.3288 27.2047 20.2944 26.6792 20.26 26.1588C20.1792 25.4515 20.1094 24.7702 20.0507 24.1147C19.9869 23.2614 19.9385 22.6006 19.9055 22.1323C19.8517 21.6643 19.7765 20.9726 19.6798 20.0572C19.593 19.1209 19.5106 18.3563 19.4327 17.7636C19.3757 17.1706 19.3379 16.5201 19.3196 15.812C19.318 15.7495 19.3157 15.661 19.3127 15.5465C19.2321 15.6517 19.1716 15.7307 19.1313 15.7833C18.9695 15.973 18.7615 16.1894 18.5073 16.4324C18.2339 16.7382 17.9742 16.9657 17.728 17.1149C17.4916 17.2431 17.2912 17.35 17.1267 17.4355L16.894 17.5012C16.6879 17.5873 16.4689 17.5799 16.237 17.4789ZM37.4887 11.9092C37.66 12.084 37.7435 12.2912 37.7393 12.5308C37.7348 12.76 37.6461 12.9539 37.473 13.1125C37.3 13.2711 37.0937 13.3521 36.8542 13.3553L36.4003 13.3302C36.0774 13.3346 35.6498 13.3196 35.1175 13.2851C34.565 13.2718 34.1165 13.257 33.7723 13.2409C33.4697 13.2242 32.8656 13.2324 31.9599 13.2655C31.0439 13.2987 30.4301 13.3331 30.1184 13.3686C29.8067 13.4041 29.4275 13.4457 28.9807 13.4934C28.5756 13.5406 28.2281 13.6026 27.9384 13.6794C27.9197 13.763 27.9016 13.8674 27.884 13.9927C27.8491 14.2536 27.8083 14.4885 27.7616 14.6975C27.7243 14.8646 27.6616 15.2613 27.5737 15.8875C27.4849 16.4825 27.4338 16.9207 27.4202 17.2021C27.3864 17.5047 27.3311 17.9846 27.2544 18.6419C27.1673 19.2993 27.1175 19.7896 27.105 20.1127C27.0853 20.1546 27.0761 20.2016 27.0774 20.2537C27.181 20.2315 27.2996 20.183 27.4331 20.1082C27.7325 20 28.0984 19.8492 28.531 19.6558C29.0157 19.4618 29.5466 19.241 30.1236 18.9936C30.6911 18.7776 31.2179 18.5985 31.7039 18.4565C32.1896 18.3041 32.7551 18.2131 33.4004 18.1835C34.1081 18.1531 34.7612 18.2275 35.3598 18.4069C36.0006 18.6066 36.5392 18.8857 36.9757 19.2444C37.3914 19.6033 37.7901 20.1136 38.1719 20.7751C38.5738 21.405 38.8267 21.9172 38.9307 22.3117C39.0347 22.7061 39.0976 23.3198 39.1192 24.1529C39.1199 24.9862 39.0627 25.5912 38.9474 25.9677C38.8105 26.3134 38.5302 26.7547 38.1066 27.2917C37.6933 27.8285 37.1343 28.3726 36.4297 28.9238C35.7555 29.4434 35.2646 29.799 34.957 29.9907C34.6595 30.1718 34.3515 30.3479 34.0329 30.5189C33.6722 30.6696 33.1035 30.8388 32.3269 31.0264C31.5183 31.1832 30.8218 31.2447 30.2374 31.211C29.6426 31.1774 29.1926 31.1002 28.8873 30.9793C28.5403 30.859 28.094 30.5213 27.5482 29.9662C27.0449 29.4418 26.7265 29.019 26.5932 28.6979C26.4395 28.3979 26.299 28.004 26.1718 27.5161C26.0549 27.0281 25.9823 26.6384 25.9539 26.3472C25.9434 25.941 26.0123 25.5859 26.1607 25.2818C26.2803 25.0719 26.4584 24.908 26.695 24.7902C26.9417 24.6619 27.1695 24.6067 27.3784 24.6247L27.7073 24.6515C27.9479 24.6899 28.1437 24.807 28.2946 25.0029C28.4453 25.1883 28.5029 25.4011 28.4675 25.6412C28.4515 25.8289 28.3673 25.9967 28.2149 26.1446C28.0726 26.282 27.9079 26.3623 27.721 26.3857C27.7461 26.552 27.7941 26.7962 27.865 27.1181C27.9583 27.5023 28.0488 27.7771 28.1365 27.9426C28.2027 28.0875 28.4234 28.3606 28.7985 28.7617C29.1089 29.0804 29.3381 29.2805 29.4861 29.3618C29.6336 29.4223 29.9159 29.4601 30.333 29.4753C30.7612 29.5112 31.2913 29.4623 31.9234 29.3287C32.5764 29.1949 33.0213 29.0742 33.2581 28.9669C33.5361 28.8381 33.7981 28.6939 34.044 28.5343C34.3 28.3642 34.7397 28.0405 35.3629 27.5633C35.945 27.1075 36.4023 26.6637 36.735 26.2321C37.0479 25.8425 37.233 25.5483 37.2904 25.3496C37.3485 25.1821 37.3798 24.7807 37.3841 24.1452C37.3671 23.4891 37.324 23.0314 37.2547 22.7719C37.1855 22.5124 37.0091 22.1398 36.7256 21.6541C36.4109 21.1687 36.1202 20.8081 35.8536 20.5721C35.6086 20.3671 35.2761 20.1998 34.8559 20.07C34.4459 19.9298 33.9964 19.8734 33.5074 19.9008C32.9976 19.9286 32.5618 19.997 32.1999 20.1061C31.7964 20.2157 31.3319 20.3835 30.8064 20.6094C30.2597 20.8251 29.739 21.0353 29.2442 21.2399C28.76 21.4548 28.3736 21.6215 28.085 21.7401C27.7648 21.8486 27.5167 21.9248 27.3407 21.9689C27.134 22.0342 26.8898 22.0584 26.608 22.0413C26.3268 22.0452 26.0848 21.9547 25.8821 21.7699C25.679 21.5748 25.5433 21.3631 25.4748 21.1348C25.3826 20.7923 25.3515 20.3969 25.3816 19.9486C25.4143 19.6044 25.4638 19.1037 25.5301 18.4465C25.597 17.8102 25.6473 17.3408 25.6812 17.0382C25.6942 16.736 25.7601 16.2663 25.879 15.6293C25.9667 14.9926 26.0286 14.5647 26.0645 14.3455C26.1019 14.1783 26.1377 13.9538 26.1721 13.6721C26.2268 13.3693 26.2825 13.1081 26.3393 12.8886C26.5147 12.4175 26.9132 12.1152 27.5349 11.9817C27.877 11.9146 28.2816 11.8466 28.7487 11.7778C29.2163 11.7298 29.6165 11.6931 29.9492 11.6677C30.282 11.6424 30.927 11.6024 31.8841 11.5477C32.821 11.5142 33.472 11.5053 33.8371 11.5212C34.1813 11.5374 34.6297 11.5521 35.1823 11.5655C35.7146 11.5999 36.1266 11.6152 36.4182 11.6112L36.8721 11.6363C37.1117 11.6331 37.3172 11.724 37.4887 11.9092ZM42.8297 21.9931C42.6283 21.8604 42.4934 21.68 42.425 21.4517C42.3667 21.2129 42.4027 20.9937 42.5329 20.794C42.6734 20.5838 42.8524 20.4563 43.07 20.4117L43.4434 20.3442C43.723 20.2779 44.1279 20.2203 44.658 20.1714C45.1667 20.102 45.5409 20.0657 45.7804 20.0624C45.9888 20.0596 46.2231 20.0564 46.4835 20.0529C46.6918 20.0501 47.1602 20.0333 47.8888 20.0026C48.4398 19.9534 48.8763 19.9111 49.1984 19.8754C49.1984 19.8754 49.1981 19.865 49.1975 19.8442C49.1567 19.0739 49.1213 18.5119 49.0913 18.1581C49.0824 17.8145 49.0601 17.3564 49.0244 16.784C48.9903 16.274 48.9718 15.9618 48.9688 15.8472C48.9437 15.6809 48.9136 15.5251 48.8785 15.3797L48.8412 15.1458C48.8142 14.9066 48.8765 14.6974 49.0281 14.5183C49.1902 14.339 49.3855 14.2374 49.6141 14.2135C49.8531 14.1894 50.0632 14.2542 50.2443 14.408C50.4356 14.5513 50.5446 14.7373 50.5714 14.9661L50.6083 15.1844C50.6115 15.3093 50.6251 15.4289 50.6489 15.5432C50.674 15.7095 50.7051 16.1049 50.7422 16.7295C50.7789 17.3435 50.8012 17.8016 50.8091 18.1036C50.8388 18.4469 50.874 18.9985 50.9145 19.7584C50.9556 19.737 50.9918 19.7261 51.0231 19.7257C51.7511 19.6741 52.2922 19.646 52.6463 19.6412C52.99 19.6365 53.542 19.629 54.3024 19.6187C55.0523 19.6085 55.5471 19.6018 55.7866 19.5986C55.9747 19.6168 56.1676 19.6246 56.3655 19.622L56.678 19.6177C56.9175 19.6145 57.1177 19.7003 57.2786 19.8752C57.4391 20.0397 57.5226 20.2469 57.5291 20.4968C57.5353 20.7363 57.4521 20.9406 57.2793 21.1096C57.1167 21.268 56.9209 21.3488 56.6917 21.3519L56.3636 21.3564C56.1241 21.3596 55.8999 21.3523 55.691 21.3343C55.5243 21.3365 55.0765 21.3426 54.3474 21.3525C53.5558 21.3632 53.0142 21.3706 52.7225 21.3745C52.3788 21.3792 51.8586 21.4071 51.1618 21.4582C51.1201 21.4588 51.0631 21.47 50.9907 21.4918C50.9934 21.5959 50.9961 21.7 50.9988 21.8042C51.0345 22.3766 51.0873 23.0061 51.1572 23.6927C51.2159 24.3481 51.2593 24.8163 51.2874 25.0972C51.2953 25.3992 51.2946 25.7742 51.2854 26.2222L51.302 26.8626C51.2874 27.1024 51.1883 27.3017 51.0049 27.4604C50.8319 27.619 50.6255 27.6947 50.3856 27.6876C50.1562 27.6803 49.956 27.5945 49.7851 27.4301C49.6242 27.2552 49.5513 27.0531 49.5661 26.8237L49.5808 26.1829C49.5708 25.7976 49.5624 25.4748 49.5557 25.2144C49.5281 24.9544 49.4845 24.481 49.425 23.7943C49.3656 23.1076 49.3282 22.4727 49.3131 21.8895C49.2901 21.8065 49.2773 21.7129 49.2746 21.6088C48.9522 21.634 48.5364 21.6709 48.0271 21.7195C47.2777 21.7505 46.778 21.7677 46.5281 21.7711C46.2677 21.7746 46.0437 21.7776 45.8563 21.7802C45.6688 21.7827 45.336 21.8081 44.858 21.8562C44.3903 21.9042 44.053 21.9557 43.8461 22.0106L43.4892 22.1092C43.2507 22.1541 43.0309 22.1154 42.8297 21.9931ZM86.8281 17.2711C86.9069 17.4992 86.8918 17.7182 86.7826 17.928C86.6836 18.1273 86.5151 18.2598 86.2772 18.3255C86.0496 18.3911 85.8408 18.3731 85.6506 18.2715L85.3974 18.1499C85.2494 18.0686 85.0646 17.9721 84.8429 17.8606C84.6532 17.7798 84.3951 17.6687 84.0684 17.5273C83.7423 17.4067 83.5056 17.3214 83.3584 17.2713C83.1907 17.2319 83.0076 17.2032 82.8092 17.185C82.642 17.1665 82.4074 17.1592 82.1053 17.1633C81.8241 17.1671 81.5903 17.1911 81.4039 17.2353C81.2175 17.2795 81.0261 17.3342 80.8299 17.3994C80.6648 17.4641 80.393 17.6293 80.0144 17.8948C79.6352 18.1396 79.3395 18.3884 79.1272 18.6412C78.8741 18.9259 78.6771 19.163 78.5362 19.3524C78.4166 19.5624 78.2974 19.7879 78.1786 20.0291C78.0799 20.2388 77.9148 20.7046 77.6835 21.4265C77.4521 22.1484 77.3186 22.6242 77.2829 22.8538C77.2694 23.1353 77.261 23.4166 77.2579 23.6979C77.2545 23.9688 77.2666 24.2343 77.2942 24.4943C77.3218 24.7544 77.3818 25.0609 77.4743 25.4138C77.5885 25.7976 77.7711 26.2118 78.0223 26.6564C78.274 27.1217 78.4754 27.4523 78.6263 27.6482C78.777 27.8336 78.943 28.0085 79.1244 28.1727C79.2735 28.2957 79.5014 28.4436 79.808 28.6165C80.1138 28.7582 80.513 28.883 81.0055 28.9909C81.5181 29.0673 81.8892 29.1144 82.1188 29.1321C82.4001 29.1283 82.6657 29.1246 82.9156 29.1213C83.1234 29.0976 83.3931 29.0523 83.7248 28.9853C84.0044 28.919 84.2771 28.7851 84.5427 28.5835C84.8186 28.3715 84.9971 28.2232 85.0782 28.1388C85.1791 28.0124 85.2695 27.881 85.3493 27.7445C85.4294 27.6184 85.5138 27.4558 85.6024 27.2567L85.7505 26.9421C85.8492 26.7325 86.0124 26.5948 86.2399 26.5292C86.4776 26.4531 86.6967 26.4658 86.8973 26.5672C87.1083 26.6685 87.2533 26.8332 87.3321 27.0613C87.4107 27.279 87.4008 27.4979 87.3023 27.718L87.1541 28.0325C87.0359 28.2945 86.9217 28.5096 86.8114 28.6778C86.6907 28.8461 86.5702 29.0196 86.4498 29.1983C86.2677 29.4091 85.9619 29.6685 85.5323 29.9764C85.0928 30.3053 84.64 30.525 84.174 30.6355C83.7497 30.7454 83.3712 30.8182 83.0387 30.854C82.7367 30.8581 82.4346 30.8622 82.1326 30.8663C81.7883 30.8501 81.3179 30.7888 80.7212 30.6823C80.0618 30.5663 79.505 30.3915 79.0509 30.1581C78.5968 29.9247 78.2363 29.6848 77.9695 29.4384C77.7037 29.2336 77.4683 28.9972 77.2634 28.7292C77.0582 28.4507 76.797 28.022 76.4798 27.4429C76.1843 26.8948 75.9677 26.3769 75.83 25.8892C75.6928 25.4223 75.6091 25.0068 75.5788 24.6426C75.5496 24.3201 75.5359 23.9921 75.5377 23.6588C75.5392 23.315 75.5563 22.971 75.5891 22.6268C75.6218 22.2826 75.7632 21.7078 76.0132 20.9023C76.2734 20.0862 76.4724 19.5262 76.6104 19.2223C76.7698 18.9389 76.9347 18.671 77.1053 18.4187C77.2855 18.135 77.5224 17.8297 77.8161 17.5028C78.1296 17.1339 78.5374 16.7898 79.0397 16.4705C79.5208 16.1411 79.9111 15.9222 80.2105 15.814C80.4681 15.7063 80.7316 15.6194 81.0008 15.5533C81.2809 15.5078 81.6237 15.4667 82.0291 15.4299C82.4145 15.4247 82.7324 15.4308 82.9829 15.4483C83.2236 15.4867 83.4696 15.5302 83.7209 15.5789C83.9834 15.6586 84.3093 15.7688 84.6985 15.9094C85.0673 16.071 85.3678 16.2076 85.6 16.319C85.811 16.4203 86.0064 16.5218 86.1861 16.6236L86.4085 16.7612C86.6195 16.8625 86.7594 17.0325 86.8281 17.2711ZM92.7614 21.2688C92.9073 21.2668 93.0533 21.2753 93.1997 21.2941C93.3664 21.2918 93.7157 21.3027 94.2477 21.3268C94.7899 21.3402 95.1807 21.3454 95.4203 21.3421C95.6598 21.3389 95.8887 21.3253 96.1069 21.3015C96.3248 21.2673 96.7348 21.2045 97.3367 21.113C97.9288 21.0424 98.3076 20.9852 98.4732 20.9413C98.6492 20.8973 98.8918 20.8106 99.201 20.6814C99.4795 20.5735 99.6598 20.4929 99.7417 20.4397C99.8026 20.3764 99.8887 20.2815 100 20.155C100.081 20.0705 100.151 19.9498 100.209 19.7927C100.267 19.6044 100.305 19.4685 100.324 19.3849C100.322 19.3016 100.286 19.1094 100.215 18.8083C100.145 18.5071 100.088 18.3152 100.044 18.2325C99.9793 18.15 99.8455 18.0112 99.6424 17.816C99.4495 17.6103 99.2531 17.4671 99.053 17.3865C98.8102 17.2648 98.5996 17.1791 98.4212 17.1295C98.2425 17.0694 97.9391 17.0214 97.511 16.9855C97.1031 16.9286 96.7643 16.9228 96.4946 16.9681C96.2348 16.9924 95.9297 17.0799 95.5793 17.2305C95.2287 17.3707 94.9815 17.4834 94.8379 17.5687C94.6948 17.6748 94.4914 17.8703 94.2279 18.1551C93.9642 18.4295 93.7133 18.8027 93.4755 19.2747C93.207 19.7679 93.0443 20.1243 92.9875 20.3438C92.9293 20.5113 92.854 20.8196 92.7614 21.2688ZM90.8811 21.6849C90.9185 21.5178 90.9554 21.335 90.9919 21.1366C91.1213 20.4994 91.2396 20.0394 91.3468 19.7567C91.4437 19.4742 91.6462 19.0443 91.9542 18.4672C92.2825 17.869 92.6187 17.3748 92.9629 16.9848C93.2971 16.6156 93.5819 16.3461 93.8171 16.1763C94.0727 15.9853 94.4377 15.7981 94.9122 15.6145C95.3969 15.4205 95.8521 15.2945 96.2778 15.2366C96.6829 15.1895 97.1519 15.1935 97.6847 15.2488C98.2175 15.3041 98.6206 15.3767 98.8938 15.4668C99.1668 15.5464 99.4666 15.6569 99.7933 15.7983C100.163 15.9808 100.508 16.2365 100.829 16.5655C101.182 16.9045 101.413 17.1774 101.522 17.3843C101.653 17.5908 101.782 17.938 101.909 18.4259C102.026 18.9139 102.077 19.2778 102.062 19.5176C102.047 19.747 101.977 20.0344 101.85 20.3799C101.714 20.7463 101.545 21.0611 101.343 21.3242C101.14 21.5353 100.952 21.7046 100.778 21.8319C100.594 21.9594 100.285 22.1147 99.8525 22.2976C99.4703 22.4278 99.1604 22.531 98.9227 22.6071C98.6952 22.6727 98.2544 22.7516 97.6004 22.8438C96.988 22.9354 96.5467 22.9935 96.2765 23.018C96.0062 23.0425 95.7357 23.0566 95.4648 23.0603C95.2253 23.0635 94.824 23.0586 94.261 23.0454C93.698 23.0322 93.3279 23.0216 93.1505 23.0136C92.9836 23.0054 92.8272 23.0023 92.6814 23.0043C92.6189 23.0051 92.5408 23.0062 92.4471 23.0075C92.4306 23.1744 92.4139 23.3361 92.3971 23.4925C92.3817 23.7011 92.4077 24.1018 92.4752 24.6946C92.5424 25.277 92.5993 25.6617 92.6458 25.8486C92.6929 26.0563 92.7661 26.2688 92.8655 26.4862C92.9329 26.6728 93.0761 26.973 93.2952 27.3867C93.4922 27.7486 93.6816 28.0221 93.8635 28.2071C94.0781 28.4438 94.2648 28.6131 94.4237 28.7151C94.5514 28.8176 94.8101 28.9495 95.1998 29.1108C95.5901 29.2931 95.9374 29.429 96.2419 29.5186C96.5461 29.5978 96.8964 29.6451 97.2927 29.6606C97.7209 29.6964 98.0128 29.7029 98.1685 29.68C98.2935 29.6783 98.5363 29.602 98.8971 29.4513C99.2168 29.322 99.4277 29.2202 99.53 29.1458C99.632 29.0611 99.7231 28.9609 99.8035 28.8453C99.8839 28.7296 99.9982 28.5197 100.147 28.2156C100.284 27.8908 100.382 27.6395 100.44 27.4616C100.497 27.2733 100.545 27.106 100.583 26.9597L100.639 26.7089C100.674 26.4688 100.789 26.285 100.984 26.1573C101.189 26.0295 101.407 25.9849 101.637 26.0235C101.878 26.0619 102.063 26.1843 102.194 26.3909C102.334 26.5869 102.387 26.7998 102.351 27.0294L102.296 27.327C102.239 27.5362 102.167 27.7663 102.08 28.0175C102.002 28.2581 101.875 28.5724 101.698 28.9602C101.521 29.3688 101.352 29.6784 101.19 29.889C101.039 30.0889 100.867 30.2736 100.673 30.4429C100.47 30.6331 100.105 30.8412 99.5798 31.0671C99.0535 31.2617 98.6501 31.3766 98.3697 31.4116C98.1098 31.436 97.7242 31.4308 97.2127 31.3961C96.6805 31.3616 96.2097 31.2899 95.8005 31.1809C95.3911 31.0614 94.9597 30.9006 94.5064 30.6984C94.0107 30.4655 93.6409 30.2674 93.397 30.1041C93.1843 29.9403 92.9335 29.7093 92.6444 29.4111C92.334 29.0924 92.0472 28.6797 91.784 28.1728C91.5114 27.7077 91.3298 27.3352 91.2392 27.0552C91.1283 26.7963 91.0384 26.5423 90.9694 26.2932C90.8996 26.0129 90.8247 25.5347 90.7446 24.8587C90.6747 24.1722 90.6516 23.6829 90.6753 23.3909C90.6888 23.1095 90.7128 22.8279 90.7472 22.5462C90.7455 22.4837 90.7543 22.4211 90.7735 22.3583C90.7719 22.2958 90.7706 22.2437 90.7695 22.2021C90.7441 22.0254 90.7813 21.853 90.8811 21.6849ZM107.445 25.179L107.64 25.4576C107.726 25.5815 107.944 25.7296 108.292 25.9019C108.683 26.1362 109.257 26.3628 110.013 26.5817C110.749 26.8321 111.269 26.9813 111.572 27.0293C111.886 27.0771 112.371 27.107 113.028 27.1189C113.622 27.1317 114.25 27.0451 114.912 26.859C115.595 26.6622 116.018 26.5106 116.182 26.4043C116.346 26.2979 116.615 26.013 116.988 25.5496C117.341 25.0968 117.58 24.6561 117.704 24.2273C117.817 23.757 117.87 23.3969 117.864 23.147C117.857 22.9075 117.691 22.3212 117.365 21.3881C117.016 20.4137 116.767 19.8181 116.615 19.6014C116.442 19.3433 116.136 18.9985 115.697 18.567C115.259 18.1458 114.865 17.8282 114.516 17.6142C114.188 17.4103 113.782 17.244 113.3 17.1151C112.817 16.9758 112.471 16.9076 112.263 16.9104C112.065 16.9131 111.651 17.0281 111.021 17.2554C110.433 17.4717 109.941 17.7753 109.545 18.1661C109.107 18.5574 108.813 18.8843 108.664 19.1468C108.504 19.4302 108.285 20.0165 108.006 20.9057C107.706 21.8056 107.536 22.4746 107.495 22.9127C107.454 23.3403 107.438 24.0958 107.445 25.179ZM107.471 27.4131C107.478 27.6734 107.494 27.8867 107.519 28.0531C107.553 28.563 107.624 29.2652 107.73 30.1596C107.838 31.1165 107.95 32.0108 108.066 32.8426C108.171 33.6745 108.237 34.2413 108.266 34.543C108.294 34.8239 108.325 35.1933 108.357 35.6512C108.39 36.0987 108.408 36.4005 108.412 36.5567L108.418 36.7754C108.424 37.0149 108.341 37.2191 108.168 37.3882C108.006 37.557 107.805 37.6431 107.565 37.6463C107.336 37.6494 107.136 37.5688 106.965 37.4045C106.794 37.2401 106.705 37.0382 106.699 36.7987L106.693 36.58C106.69 36.4551 106.672 36.1741 106.64 35.737C106.608 35.3103 106.573 34.9618 106.535 34.6915C106.507 34.4106 106.44 33.8542 106.335 33.0223C106.23 32.1696 106.124 31.2856 106.017 30.3704C105.908 29.4135 105.837 28.6696 105.802 28.1389C105.772 27.7539 105.746 27.1865 105.727 26.4367C105.719 26.1347 105.71 25.7963 105.701 25.4214C105.709 24.1401 105.738 23.2334 105.786 22.7015C105.835 22.1696 106.018 21.3858 106.335 20.3503C106.673 19.3248 106.952 18.6283 107.172 18.2608C107.401 17.8722 107.785 17.4191 108.324 16.9013C108.883 16.3625 109.586 15.9363 110.432 15.6227C111.237 15.3305 111.822 15.1872 112.187 15.1927C112.572 15.1666 113.09 15.2429 113.74 15.4216C114.391 15.6003 114.96 15.8373 115.447 16.1328C115.902 16.4287 116.382 16.8389 116.885 17.3633C117.409 17.8666 117.779 18.2783 117.996 18.5983C118.265 18.9384 118.597 19.6787 118.991 20.8192C119.406 21.9698 119.604 22.7484 119.583 23.1549C119.593 23.5402 119.523 24.0412 119.372 24.6578C119.202 25.3476 118.87 26.0032 118.376 26.6245C117.881 27.225 117.464 27.6369 117.126 27.8602C116.829 28.0518 116.256 28.2731 115.409 28.5242C114.581 28.7437 113.771 28.8485 112.979 28.8384C112.249 28.8274 111.691 28.7881 111.303 28.7205C110.926 28.6527 110.328 28.4837 109.508 28.2136C108.668 27.9541 107.989 27.6873 107.471 27.4131ZM122.889 15.0318C122.998 14.822 123.161 14.6844 123.378 14.6189C123.606 14.5533 123.825 14.5764 124.036 14.6881C124.258 14.7997 124.403 14.9644 124.471 15.1822L124.608 15.6335C124.722 16.0174 124.765 16.4647 124.737 16.9755C124.727 17.4028 124.734 18.0641 124.757 18.9597C124.759 19.8347 124.764 20.4284 124.772 20.7408C124.801 21.0633 124.831 21.4066 124.861 21.7708C124.864 21.8958 124.879 22.057 124.905 22.2546C124.982 22.014 125.073 21.7315 125.18 21.4071C125.439 20.5702 125.728 19.8476 126.046 19.2391C126.374 18.6304 126.644 18.1945 126.856 17.9312C127.036 17.6683 127.345 17.3152 127.781 16.8717C128.258 16.3757 128.707 15.9946 129.127 15.7285C129.547 15.4415 129.959 15.2432 130.362 15.1336C130.786 15.0028 131.16 14.9457 131.483 14.9621C131.827 14.9783 132.189 15.0775 132.569 15.2599C132.938 15.4424 133.21 15.6522 133.382 15.8895C133.534 16.0958 133.748 16.5199 134.025 17.162C134.249 17.7528 134.401 18.2194 134.483 18.5621C134.555 18.9049 134.651 19.3932 134.771 20.0269C134.819 20.2659 134.872 20.4891 134.929 20.6967C135.045 20.3305 135.256 19.8381 135.563 19.2193C135.909 18.4854 136.172 17.9871 136.353 17.7242C136.533 17.4509 136.78 17.1351 137.094 16.7766C137.449 16.3864 137.759 16.1009 138.025 15.9202C138.301 15.7082 138.63 15.5474 139.013 15.4381C139.52 15.3062 140.043 15.372 140.581 15.6356C141.098 15.889 141.504 16.2585 141.797 16.7441C141.995 17.1476 142.145 17.4946 142.246 17.7849C142.316 18.0652 142.424 18.6106 142.57 19.4211C142.738 20.2522 142.842 20.8602 142.883 21.245C142.935 21.6193 143.012 22.1808 143.114 22.9294C143.196 23.6783 143.265 24.3076 143.32 24.8173C143.375 25.327 143.409 25.8369 143.422 26.3472C143.455 26.8363 143.487 27.263 143.518 27.6272C143.548 27.9913 143.576 28.2566 143.601 28.4229L143.639 28.688C143.666 28.9272 143.609 29.1364 143.468 29.3154C143.326 29.4944 143.136 29.5959 142.897 29.62C142.669 29.6439 142.459 29.5843 142.267 29.441C142.086 29.2872 141.972 29.0961 141.924 28.8675L141.918 28.6332C141.893 28.4461 141.854 28.1601 141.802 27.7754C141.771 27.3904 141.734 26.9326 141.689 26.4019C141.676 25.9125 141.642 25.4234 141.588 24.9345C141.534 24.4457 141.466 23.8424 141.385 23.1248C141.303 22.3967 141.237 21.8403 141.185 21.4556C141.134 21.0917 141.03 20.515 140.875 19.7254C140.729 18.9357 140.622 18.4371 140.554 18.2297C140.508 18.0637 140.419 17.8409 140.287 17.5615C140.199 17.396 140.055 17.2677 139.855 17.1767C139.707 17.0954 139.602 17.0655 139.54 17.0872C139.354 17.1314 139.194 17.2065 139.061 17.3124C138.877 17.4399 138.659 17.646 138.405 17.9307C138.111 18.2368 137.899 18.4949 137.769 18.705C137.639 18.9047 137.416 19.3348 137.099 19.9954C136.783 20.6455 136.586 21.1065 136.51 21.3784C136.435 21.6815 136.332 22.136 136.202 22.742C136.082 23.3373 135.988 23.9532 135.921 24.5895C135.836 25.3199 135.785 25.7581 135.768 25.9041C135.732 26.1442 135.673 26.4471 135.588 26.8128C135.514 27.1784 135.459 27.4448 135.421 27.612C135.401 27.6123 135.38 27.623 135.36 27.6441C135.339 27.6652 135.293 27.6919 135.221 27.7241C135.149 27.7563 135.072 27.7886 134.989 27.821C134.917 27.8532 134.829 27.8857 134.726 27.9183C134.623 27.951 134.524 27.9731 134.431 27.9848C134.348 27.9964 134.265 28.0027 134.181 28.0038C134.098 28.005 134.019 27.9904 133.946 27.9601C133.872 27.9299 133.808 27.8839 133.755 27.8221C133.711 27.7602 133.688 27.6772 133.686 27.573C133.681 27.4064 133.674 27.318 133.663 27.3077C133.652 27.287 133.656 27.2557 133.676 27.2138C133.696 27.1719 133.72 27.109 133.749 27.0253C133.786 26.8373 133.812 26.613 133.826 26.3524C133.839 26.0709 133.84 25.6959 133.828 25.2273C133.795 24.759 133.74 24.2389 133.662 23.667C133.564 23.0746 133.471 22.5186 133.385 21.9989C133.309 21.5103 133.212 20.9544 133.091 20.331C132.971 19.6972 132.87 19.2454 132.79 18.9757C132.742 18.7159 132.617 18.3218 132.416 17.7932C132.259 17.3683 132.132 17.094 132.035 16.9703C131.992 16.9292 131.907 16.8626 131.78 16.7706C131.653 16.7098 131.533 16.6802 131.418 16.6818C131.313 16.6624 131.148 16.6959 130.921 16.7823C130.641 16.8486 130.353 16.9827 130.056 17.1846C129.759 17.3762 129.428 17.6671 129.063 18.0575C128.646 18.4694 128.368 18.7857 128.228 19.0063C128.086 19.1749 127.876 19.5215 127.598 20.0461C127.32 20.5708 127.06 21.2097 126.82 21.963C126.558 22.7374 126.395 23.2865 126.331 23.6103C126.276 23.8923 126.19 24.4143 126.075 25.1763C125.99 25.9483 125.937 26.4855 125.913 26.7879C125.889 27.0799 125.873 27.4603 125.865 27.9292C125.856 28.398 125.854 28.7314 125.859 28.9292C125.86 28.9709 125.867 29.0177 125.879 29.0696C125.89 29.1215 125.909 29.2255 125.934 29.3814C125.958 29.5269 125.93 29.6366 125.848 29.7107C125.777 29.7845 125.67 29.8589 125.526 29.9338C125.382 30.0087 125.147 30.0066 124.822 29.9277C124.393 29.8502 124.119 29.7289 124 29.5639C123.881 29.3884 123.872 29.2375 123.973 29.1111L124.093 28.922C124.065 28.6619 124.039 28.4383 124.013 28.2512C123.987 28.0432 123.935 27.6376 123.857 27.0345C123.778 26.4314 123.709 25.9688 123.649 25.6467C123.598 25.314 123.509 24.7006 123.382 23.8065C123.255 22.9124 123.176 22.2728 123.145 21.8878C123.114 21.5237 123.084 21.1699 123.055 20.8265C123.046 20.4829 123.04 19.858 123.037 18.9518C123.014 18.0354 123.006 17.348 123.015 16.8895C123.028 16.5664 123.01 16.301 122.963 16.0933L122.828 15.6889C122.759 15.4503 122.779 15.2312 122.889 15.0318ZM157.569 21.0302L156.825 22.4934C155.719 24.8209 154.578 26.6229 153.402 27.8993C152.257 29.144 151.159 29.7735 150.107 29.7878C149.534 29.7956 148.92 29.4289 148.265 28.6878C147.599 27.9259 147.245 26.7224 147.202 25.0771C147.166 23.6818 147.435 21.5999 148.009 18.8317C148.492 16.5439 148.731 14.9052 148.726 13.9156C148.944 13.4856 149.282 13.2675 149.74 13.2612C150.053 13.257 150.306 13.363 150.499 13.5791C150.703 13.8055 150.808 14.0384 150.814 14.278C150.832 14.9548 150.612 15.9474 150.157 17.2557C149.236 19.9349 148.801 22.2325 148.851 24.1485C148.902 26.1166 149.453 27.0935 150.505 27.0792C151.547 27.0651 152.773 26.1474 154.185 24.3261C155.556 22.5471 156.732 20.0884 157.713 16.95C158.099 15.7573 158.418 14.9873 158.669 14.6401C158.86 14.3771 159.123 14.2434 159.456 14.2388C159.695 14.2356 159.869 14.3061 159.977 14.4505C160.085 14.5845 160.144 14.8493 160.154 15.245C160.147 15.3701 160.063 15.7358 159.901 16.3422C159.329 18.7979 159.072 21.1139 159.128 23.2903C159.198 25.9873 159.686 27.7463 160.593 28.5674C160.722 28.6906 160.824 28.809 160.9 28.9226C160.986 29.0256 161.04 29.103 161.062 29.1548C161.094 29.2064 161.111 29.2374 161.111 29.2479C161.115 29.3936 160.973 29.557 160.686 29.738C160.327 29.9616 160.013 30.0753 159.742 30.0789C159.19 30.0864 158.708 29.6086 158.298 28.6454C157.843 27.5682 157.587 25.9467 157.531 23.7807L157.517 23.234C157.512 23.0674 157.513 22.8955 157.519 22.7184L157.569 21.0302ZM170.289 7.6855C170.392 7.66326 170.594 7.61365 170.894 7.53666C171.205 7.45953 171.412 7.40984 171.516 7.3876C171.797 7.77963 171.99 8.21451 172.097 8.69224C172.202 9.15956 172.259 9.74734 172.267 10.4556C172.285 11.1533 172.308 11.6217 172.335 11.8609C173.296 11.9625 174.017 12.036 174.498 12.0816C174.736 12.4221 175.052 12.7876 175.448 13.1781C175.854 13.558 176.222 13.8916 176.552 14.1787C176.883 14.4555 177.215 14.8 177.548 15.2121C177.882 15.6243 178.127 16.0428 178.284 16.4678C178.31 16.6654 178.331 16.8786 178.348 17.1076C178.374 17.3364 178.39 17.5341 178.394 17.7007C178.409 17.8567 178.414 18.0702 178.411 18.3411C178.407 18.612 178.402 18.81 178.395 18.9351C178.388 19.0498 178.378 19.2686 178.365 19.5917C178.352 19.9044 178.347 20.1024 178.349 20.1857C178.059 21.0542 177.847 21.7082 177.713 22.1475C177.357 22.9023 177.115 23.4317 176.988 23.7355C176.489 24.5964 175.831 25.3137 175.012 25.8873C174.193 26.4505 173.286 26.8274 172.291 27.018C172.286 28.0493 172.305 28.971 172.347 29.7829C172.399 30.5947 172.428 31.511 172.434 32.5318C172.44 33.563 172.406 34.4801 172.333 35.2832L171.467 35.6231C171.2 34.9704 171.009 34.2439 170.894 33.4433C170.79 32.6426 170.75 31.888 170.773 31.1793C170.796 30.4706 170.803 29.7049 170.792 28.8821C170.791 28.0592 170.761 27.2992 170.701 26.6021C169.985 26.2993 169.319 25.9229 168.703 25.4729C168.087 25.0229 167.527 24.5149 167.022 23.9488C166.528 23.3722 166.136 22.7265 165.847 22.0116C165.557 21.2864 165.407 20.5384 165.398 19.7677C165.261 18.9362 165.27 18.0767 165.425 17.1891C165.589 16.3015 165.875 15.4851 166.283 14.74C166.691 13.9844 167.242 13.3415 167.937 12.8112C168.642 12.2704 169.425 11.9369 170.286 11.8106C170.289 11.4981 170.283 11.0658 170.268 10.5139C170.254 9.95164 170.246 9.44132 170.244 8.983C170.243 8.52468 170.258 8.09218 170.289 7.6855ZM172.346 13.4858C172.434 18.9014 172.52 22.8117 172.603 25.2169C173.461 24.9448 174.188 24.4402 174.783 23.7029C175.389 22.9551 175.851 22.0998 176.17 21.1372C176.208 20.97 176.278 20.6878 176.383 20.2905C176.487 19.8828 176.562 19.5641 176.608 19.3343C176.665 19.1044 176.714 18.8172 176.758 18.4729C176.811 18.1284 176.829 17.8053 176.811 17.5034C176.792 17.2016 176.748 16.9105 176.679 16.6302C176.377 16.2697 176.056 15.9303 175.714 15.612C175.383 15.2936 174.914 14.8885 174.308 14.3967C173.701 13.8945 173.338 13.5921 173.221 13.4896C172.783 13.4851 172.492 13.4838 172.346 13.4858ZM169.357 13.9482C169.276 14.0431 169.114 14.2068 168.87 14.4392C168.636 14.6612 168.458 14.8407 168.337 14.9777C168.215 15.1044 168.068 15.273 167.897 15.4837C167.735 15.6838 167.6 15.8888 167.491 16.0986C167.391 16.2979 167.314 16.5125 167.257 16.7424C167.132 17.1399 167.059 17.5472 167.039 17.9641C167.018 18.3811 167.056 18.8389 167.153 19.3376C167.259 19.8258 167.352 20.2151 167.433 20.5057C167.524 20.7857 167.659 21.2058 167.841 21.7658C168.118 22.3975 168.491 22.9445 168.962 23.4069C169.443 23.8691 169.999 24.2157 170.63 24.4468C170.617 23.1344 170.53 19.5887 170.369 13.8095C170.276 13.8212 170.1 13.8496 169.84 13.8948C169.591 13.9294 169.43 13.9472 169.357 13.9482ZM193.159 20.5473L192.416 22.0105C191.309 24.3381 190.168 26.14 188.993 27.4164C187.848 28.6611 186.749 29.2906 185.697 29.3049C185.124 29.3127 184.51 28.946 183.856 28.2049C183.19 27.4431 182.836 26.2395 182.793 24.5942C182.757 23.1989 183.026 21.1171 183.6 18.3488C184.082 16.061 184.321 14.4223 184.316 13.4328C184.534 13.0027 184.873 12.7846 185.331 12.7784C185.643 12.7741 185.896 12.8801 186.089 13.0962C186.293 13.3226 186.398 13.5556 186.404 13.7951C186.422 14.4719 186.203 15.4645 185.747 16.7728C184.827 19.452 184.391 21.7496 184.441 23.6656C184.492 25.6337 185.044 26.6106 186.096 26.5963C187.137 26.5822 188.364 25.6645 189.775 23.8432C191.146 22.0642 192.322 19.6055 193.304 16.4671C193.689 15.2744 194.008 14.5044 194.26 14.1573C194.451 13.8942 194.713 13.7605 195.046 13.756C195.286 13.7527 195.46 13.8233 195.568 13.9676C195.675 14.1016 195.734 14.3664 195.744 14.7621C195.737 14.8872 195.653 15.253 195.492 15.8593C194.92 18.315 194.662 20.6311 194.718 22.8074C194.788 25.5044 195.277 27.2634 196.184 28.0845C196.312 28.2078 196.414 28.3262 196.49 28.4397C196.576 28.5427 196.63 28.6201 196.652 28.6719C196.685 28.7235 196.701 28.7546 196.702 28.765C196.705 28.9108 196.564 29.0741 196.277 29.2551C195.918 29.4787 195.603 29.5924 195.332 29.5961C194.78 29.6036 194.299 29.1257 193.888 28.1625C193.433 27.0853 193.178 25.4638 193.121 23.2978L193.107 22.7511C193.103 22.5845 193.104 22.4127 193.109 22.2355L193.159 20.5473ZM203.15 20.693L203.632 20.6083C205.985 20.1285 208.036 18.4548 209.785 15.5873C210.565 14.3267 211.266 13.4317 211.888 12.9024C212.5 12.415 213.15 12.1666 213.838 12.1572C214.046 12.1544 214.273 12.2607 214.518 12.4761C214.752 12.6709 214.873 12.9036 214.88 13.1743C214.888 13.4867 214.505 13.768 213.73 14.0181C213.172 14.2027 212.654 14.5015 212.175 14.9142C211.727 15.3265 210.945 16.3059 209.828 17.8523C209.004 18.999 208.264 19.8059 207.609 20.2731C207.599 20.2732 207.583 20.2787 207.563 20.2894C207.553 20.2999 207.537 20.3105 207.517 20.3212C207.507 20.3318 207.491 20.3476 207.471 20.3687C207.451 20.3898 207.43 20.411 207.41 20.4321C207.4 20.453 207.385 20.4793 207.365 20.5108C207.356 20.5422 207.346 20.5788 207.337 20.6206C207.338 20.6622 207.339 20.7039 207.34 20.7455C207.341 20.7976 207.343 20.8444 207.344 20.8861C207.355 20.9172 207.366 20.9483 207.377 20.9794C207.399 21.0103 207.416 21.0414 207.427 21.0725C207.448 21.093 207.464 21.1136 207.475 21.1343C207.496 21.1444 207.518 21.1598 207.539 21.1803C207.57 21.1903 207.592 21.2004 207.602 21.2107C207.613 21.221 207.629 21.2312 207.65 21.2413C207.671 21.2514 207.682 21.2565 207.682 21.2565C208.327 21.6436 209.025 22.4258 209.774 23.6032C210.957 25.4309 211.873 26.5904 212.521 27.0816C213.222 27.5929 214.01 27.8426 214.885 27.8308L215.416 27.8079C215.468 27.8072 215.51 27.8067 215.541 27.8062C215.552 27.8373 215.558 27.8685 215.559 27.8997C215.566 28.1809 215.392 28.501 215.037 28.86C214.671 29.2191 214.025 29.405 213.098 29.4175C212.41 29.4269 211.746 29.113 211.104 28.4758C210.43 27.787 209.65 26.657 208.766 25.0856C208.23 24.1137 207.726 23.3705 207.254 22.8561C206.739 22.2901 206.17 22.0114 205.545 22.0199C205.399 22.0219 205.022 22.1416 204.413 22.379C204.155 22.4763 203.954 22.5571 203.81 22.6216C203.676 22.6755 203.537 22.7607 203.394 22.8772C203.262 22.9936 203.166 23.1251 203.108 23.2717C203.02 23.5229 202.978 24.3048 202.981 25.6172C202.972 26.8778 202.977 27.8934 202.997 28.6639C203.005 28.9451 202.876 29.2073 202.612 29.4504C202.326 29.6939 202.017 29.8179 201.683 29.8224C201.361 29.8268 201.108 29.7417 200.927 29.567C200.745 29.382 200.651 29.201 200.647 29.024C200.637 28.6595 200.755 27.7568 200.999 26.316C201.429 23.6226 201.814 19.2007 202.155 13.0501C202.174 12.5707 202.345 12.1361 202.668 11.7463C202.971 11.3776 203.305 11.1907 203.669 11.1858C203.794 11.1841 203.911 11.2658 204.02 11.431C204.161 11.6583 204.237 11.9646 204.247 12.3499C204.255 12.6831 204.213 13.0639 204.12 13.4922C203.573 15.6872 203.255 17.9207 203.168 20.1927L203.15 20.693ZM228.207 23.8218C228.098 23.6358 227.983 23.4551 227.864 23.2796C227.712 23.0421 227.539 22.7996 227.345 22.5523C227.172 22.315 226.767 21.9351 226.128 21.4125C225.563 20.9306 225.191 20.6596 225.013 20.5995C224.865 20.539 224.589 20.5323 224.184 20.5795C223.737 20.6272 223.344 20.7263 223.004 20.8768C222.622 21.0278 222.329 21.1776 222.125 21.3262C221.93 21.4642 221.752 21.6125 221.589 21.771C221.446 21.8771 221.249 22.1245 220.999 22.5134C220.728 22.9025 220.563 23.1807 220.505 23.3482C220.447 23.5365 220.391 23.782 220.336 24.0849C220.303 24.3874 220.298 24.6219 220.323 24.7882C220.328 24.9548 220.397 25.2351 220.533 25.6291C220.667 25.9919 220.804 26.2556 220.944 26.4204C221.116 26.6264 221.281 26.77 221.44 26.8512C221.588 26.9533 221.747 27.0554 221.916 27.1572C222.096 27.2485 222.38 27.3541 222.769 27.4738C223.115 27.5733 223.413 27.6265 223.664 27.6335C223.945 27.6297 224.178 27.5901 224.364 27.5147C224.571 27.4702 224.783 27.3944 224.999 27.2873C225.225 27.18 225.456 27.0519 225.692 26.9029C225.876 26.7754 226.222 26.4478 226.729 25.92C227.205 25.3823 227.493 25.0399 227.594 24.8927C227.693 24.7246 227.783 24.562 227.862 24.4046C227.973 24.2573 228.088 24.063 228.207 23.8218ZM229.729 24.6606C229.589 24.9021 229.48 25.0963 229.4 25.2432C229.321 25.4109 229.206 25.6052 229.056 25.826C228.916 26.0675 228.563 26.4993 227.995 27.1216C227.417 27.7441 226.97 28.1564 226.652 28.3586C226.355 28.5502 226.052 28.7157 225.743 28.8553C225.444 29.0052 225.151 29.1238 224.861 29.2111C224.54 29.2987 224.166 29.3455 223.739 29.3513C223.292 29.3782 222.8 29.3015 222.264 29.1213C221.771 28.9821 221.397 28.8414 221.144 28.699C220.901 28.5669 220.657 28.4139 220.413 28.2401C220.169 28.0768 219.918 27.8354 219.66 27.516C219.349 27.1764 219.103 26.7319 218.922 26.1822C218.741 25.6534 218.631 25.2278 218.592 24.9054C218.563 24.6037 218.58 24.2441 218.642 23.8266C218.715 23.4194 218.799 23.064 218.895 22.7606C218.992 22.4573 219.205 22.0481 219.536 21.5332C219.867 21.0391 220.165 20.6757 220.429 20.4429C220.664 20.2522 220.915 20.0717 221.181 19.9015C221.458 19.7206 221.817 19.5178 222.259 19.2931C222.764 19.0779 223.339 18.9295 223.983 18.8478C224.637 18.7764 225.17 18.8161 225.58 18.9668C225.948 19.0868 226.526 19.48 227.314 20.1464C227.179 19.742 227.071 19.4153 226.992 19.1664C226.857 18.8036 226.663 18.3479 226.409 17.7993C226.135 17.2717 225.9 16.8582 225.705 16.5588C225.51 16.2593 225.29 16.0071 225.045 15.8021C224.852 15.6172 224.487 15.3878 223.948 15.1138C223.41 14.8399 222.947 14.6639 222.559 14.5858C222.131 14.5291 221.786 14.4921 221.525 14.4748C221.265 14.4784 221.01 14.4923 220.76 14.5165C220.552 14.5401 220.17 14.6703 219.614 14.907C219.212 15.0792 218.95 15.2233 218.828 15.3396L218.647 15.592C218.527 15.7812 218.348 15.9034 218.109 15.9587C217.881 16.0035 217.661 15.9596 217.45 15.827C217.248 15.6839 217.118 15.4982 217.06 15.2698C217.012 15.0309 217.064 14.8166 217.215 14.6271L217.395 14.3434C217.626 13.9965 218.128 13.6563 218.901 13.3229C219.622 13.0111 220.175 12.8317 220.559 12.7848C220.881 12.7596 221.209 12.7447 221.542 12.7402C221.887 12.7564 222.326 12.8025 222.859 12.8786C223.414 12.9752 224.034 13.2012 224.721 13.5565C225.407 13.9117 225.911 14.2487 226.232 14.5672C226.542 14.8651 226.842 15.2048 227.133 15.5863C227.404 15.968 227.682 16.4643 227.969 17.075C228.266 17.6855 228.483 18.2034 228.619 18.6287C228.754 19.0331 228.936 19.6087 229.164 20.3557C229.392 21.1026 229.556 21.6212 229.657 21.9115C229.769 22.2121 229.872 22.5336 229.964 22.8761C230.066 23.2081 230.14 23.4414 230.185 23.5762L230.186 23.6075C230.294 23.7727 230.269 24.0074 230.11 24.3116L229.729 24.6606ZM233.472 13.5315C233.581 13.3217 233.745 13.184 233.962 13.1186C234.189 13.053 234.409 13.0761 234.62 13.1878C234.842 13.2994 234.987 13.4641 235.055 13.6819L235.192 14.1332C235.306 14.517 235.349 14.9644 235.32 15.4752C235.31 15.9024 235.317 16.5638 235.34 17.4593C235.342 18.3343 235.347 18.928 235.355 19.2404C235.384 19.5629 235.414 19.9063 235.444 20.2705C235.448 20.3954 235.462 20.5567 235.488 20.7542C235.565 20.5136 235.657 20.2311 235.763 19.9067C236.023 19.0699 236.312 18.3472 236.629 17.7387C236.957 17.1301 237.227 16.6941 237.439 16.4308C237.62 16.168 237.929 15.8148 238.365 15.3714C238.842 14.8753 239.29 14.4942 239.711 14.2281C240.131 13.9412 240.542 13.7429 240.946 13.6332C241.369 13.5025 241.743 13.4453 242.067 13.4618C242.411 13.4779 242.773 13.5772 243.153 13.7595C243.522 13.942 243.793 14.1519 243.966 14.3891C244.117 14.5954 244.331 15.0196 244.609 15.6617C244.832 16.2524 244.985 16.7191 245.067 17.0617C245.138 17.4045 245.234 17.8928 245.355 18.5266C245.403 18.7655 245.456 18.9888 245.513 19.1963C245.629 18.8302 245.84 18.3377 246.147 17.719C246.492 16.9851 246.756 16.4867 246.936 16.2239C247.117 15.9506 247.364 15.6347 247.678 15.2763C248.032 14.886 248.342 14.6006 248.609 14.4199C248.884 14.2078 249.214 14.0471 249.596 13.9377C250.104 13.8058 250.626 13.8717 251.164 14.1352C251.682 14.3886 252.087 14.7581 252.381 15.2437C252.579 15.6473 252.729 15.9942 252.83 16.2845C252.9 16.5648 253.008 17.1102 253.154 17.9208C253.321 18.7519 253.426 19.3598 253.467 19.7447C253.518 20.119 253.595 20.6805 253.698 21.4291C253.78 22.178 253.848 22.8073 253.903 23.3169C253.958 23.8266 253.992 24.3366 254.005 24.8468C254.039 25.336 254.071 25.7626 254.101 26.1268C254.132 26.491 254.159 26.7562 254.184 26.9226L254.223 27.1877C254.25 27.4269 254.192 27.636 254.051 27.815C253.91 27.994 253.72 28.0955 253.481 28.1196C253.252 28.1436 253.042 28.0839 252.851 27.9407C252.67 27.7869 252.556 27.5957 252.508 27.3672L252.502 27.1329C252.476 26.9457 252.438 26.6598 252.386 26.2751C252.355 25.8901 252.317 25.4322 252.272 24.9016C252.259 24.4122 252.226 23.923 252.172 23.4342C252.117 22.9453 252.049 22.3421 251.968 21.6244C251.887 20.8963 251.82 20.3399 251.769 19.9552C251.718 19.5913 251.614 19.0146 251.458 18.225C251.313 17.4353 251.206 16.9368 251.138 16.7294C251.092 16.5633 251.003 16.3406 250.871 16.0611C250.783 15.8956 250.639 15.7674 250.439 15.6763C250.291 15.595 250.186 15.5652 250.124 15.5868C249.937 15.631 249.778 15.7061 249.645 15.8121C249.461 15.9396 249.242 16.1457 248.989 16.4304C248.695 16.7365 248.483 16.9946 248.353 17.2047C248.222 17.4043 247.999 17.8345 247.683 18.495C247.366 19.1451 247.17 19.6062 247.094 19.878C247.018 20.1811 246.915 20.6357 246.785 21.2416C246.665 21.837 246.572 22.4529 246.505 23.0892C246.42 23.8195 246.368 24.2577 246.351 24.4038C246.316 24.6439 246.256 24.9468 246.172 25.3125C246.098 25.6781 246.042 25.9445 246.005 26.1116C245.984 26.1119 245.964 26.1226 245.943 26.1437C245.923 26.1648 245.877 26.1915 245.805 26.2237C245.733 26.256 245.655 26.2883 245.573 26.3206C245.501 26.3529 245.413 26.3853 245.31 26.418C245.206 26.4506 245.108 26.4728 245.014 26.4845C244.931 26.496 244.848 26.5023 244.765 26.5035C244.681 26.5046 244.603 26.49 244.529 26.4598C244.456 26.4295 244.392 26.3835 244.338 26.3218C244.295 26.2598 244.272 26.1768 244.269 26.0727C244.265 25.9061 244.257 25.8176 244.247 25.8074C244.236 25.7867 244.24 25.7554 244.26 25.7134C244.28 25.6715 244.304 25.6087 244.333 25.5249C244.37 25.3369 244.395 25.1126 244.409 24.852C244.423 24.5706 244.424 24.1956 244.411 23.727C244.378 23.2587 244.323 22.7386 244.246 22.1667C244.147 21.5743 244.055 21.0182 243.968 20.4986C243.893 20.01 243.795 19.454 243.675 18.8306C243.554 18.1969 243.454 17.7451 243.374 17.4753C243.326 17.2156 243.201 16.8214 243 16.2929C242.843 15.8679 242.716 15.5936 242.619 15.4699C242.576 15.4288 242.491 15.3623 242.363 15.2703C242.237 15.2095 242.116 15.1799 242.002 15.1814C241.897 15.162 241.731 15.1955 241.504 15.2819C241.225 15.3482 240.936 15.4823 240.639 15.6843C240.342 15.8758 240.011 16.1668 239.646 16.5571C239.23 16.969 238.951 17.2853 238.811 17.506C238.67 17.6746 238.46 18.0212 238.182 18.5458C237.904 19.0704 237.644 19.7094 237.403 20.4626C237.142 21.237 236.979 21.7861 236.914 22.1099C236.859 22.3919 236.774 22.9139 236.658 23.6759C236.574 24.4479 236.52 24.9851 236.497 25.2875C236.473 25.5795 236.457 25.9599 236.448 26.4288C236.44 26.8977 236.438 27.231 236.443 27.4289C236.444 27.4705 236.45 27.5173 236.462 27.5693C236.474 27.6212 236.492 27.7251 236.517 27.881C236.542 28.0265 236.513 28.1363 236.432 28.2103C236.361 28.2842 236.253 28.3586 236.109 28.4334C235.966 28.5083 235.731 28.5063 235.406 28.4274C234.977 28.3498 234.703 28.2286 234.584 28.0635C234.465 27.888 234.456 27.7371 234.556 27.6107L234.677 27.4216C234.649 27.1616 234.622 26.938 234.597 26.7508C234.57 26.5428 234.518 26.1373 234.44 25.5342C234.362 24.931 234.293 24.4684 234.232 24.1463C234.182 23.8137 234.093 23.2003 233.966 22.3062C233.838 21.4121 233.759 20.7725 233.728 20.3875C233.698 20.0233 233.668 19.6695 233.638 19.3262C233.629 18.9826 233.624 18.3576 233.621 17.4514C233.597 16.535 233.59 15.8476 233.599 15.3892C233.611 15.0661 233.594 14.8007 233.547 14.593L233.411 14.1886C233.343 13.9499 233.363 13.7309 233.472 13.5315ZM266.179 27.7911C266.038 28.0013 265.838 28.1186 265.578 28.143L265.08 28.2123C264.655 28.2805 264.117 28.2566 263.468 28.1404C262.83 28.0449 262.242 27.8601 261.704 27.5862C261.207 27.3325 260.794 27.0829 260.465 26.8373C260.114 26.5609 259.685 26.0875 259.178 25.4173C258.671 24.7679 258.314 24.2415 258.105 23.8381C257.907 23.4137 257.742 22.6659 257.61 21.5948C257.458 20.5551 257.407 19.8006 257.457 19.3312C257.529 18.9031 257.686 18.328 257.928 17.606C258.18 16.8734 258.45 16.2499 258.739 15.7356C259.038 15.2107 259.324 14.8005 259.598 14.5052C259.892 14.1991 260.331 13.839 260.914 13.4248C261.539 13.0101 262.297 12.7237 263.189 12.5658C264.061 12.4081 264.7 12.3474 265.107 12.3835C265.494 12.4408 266.056 12.6102 266.793 12.8919C267.509 13.1843 268.036 13.448 268.376 13.6829C268.726 13.9074 269.094 14.2357 269.48 14.668C269.866 15.1002 270.147 15.4975 270.324 15.8597C270.521 16.2424 270.719 16.8387 270.917 17.6485C271.104 18.4377 271.196 19.1604 271.192 19.8167C271.208 20.4311 271.19 20.9522 271.139 21.3799C271.108 21.8074 270.983 22.3977 270.763 23.1507C270.543 23.9245 270.294 24.5581 270.015 25.0515C269.705 25.5661 269.291 26.0509 268.771 26.5059C268.252 26.9609 267.832 27.2634 267.513 27.4136C267.215 27.5531 266.77 27.6789 266.179 27.7911ZM262.303 25.9843C262.558 25.7933 262.833 25.7479 263.128 25.8481L263.617 26.0289C263.879 26.1087 264.167 26.1673 264.481 26.2047C264.784 26.2215 265.194 26.1898 265.713 26.1099C266.232 26.0299 266.574 25.9472 266.738 25.8616C266.924 25.7757 267.22 25.5582 267.628 25.2089C268.026 24.8806 268.324 24.5328 268.523 24.1655C268.722 23.7982 268.912 23.2956 269.093 22.6577C269.285 21.9989 269.397 21.5077 269.43 21.1844C269.463 20.8402 269.477 20.3816 269.473 19.8088C269.459 19.2777 269.376 18.6799 269.223 18.0153C269.081 17.3609 268.944 16.9149 268.813 16.6771C268.681 16.4184 268.471 16.1296 268.181 15.8106C267.891 15.4812 267.63 15.24 267.396 15.0869C267.173 14.9232 266.762 14.7309 266.162 14.5099C265.583 14.2781 265.163 14.1432 264.902 14.1051C264.662 14.0875 264.204 14.1354 263.53 14.2487C262.897 14.3614 262.356 14.5719 261.905 14.8801C261.424 15.2096 261.092 15.4693 260.91 15.6593C260.728 15.8701 260.512 16.1907 260.263 16.6212C260.013 17.0412 259.776 17.5653 259.553 18.1933C259.34 18.8108 259.217 19.276 259.183 19.589C259.149 19.8915 259.186 20.49 259.292 21.3844C259.419 22.2577 259.554 22.834 259.696 23.1133C259.829 23.4136 260.106 23.8318 260.526 24.3677C260.947 24.9141 261.274 25.2847 261.508 25.4794C261.711 25.6538 261.976 25.822 262.303 25.9843ZM281.809 11.5788L282.315 11.8063C284.506 12.7141 285.648 14.9538 285.74 18.5255C285.811 21.2434 285.06 23.6286 283.488 25.6812C282.113 27.7103 280.624 28.7357 279.02 28.7575C277.509 28.778 276.284 28.1227 275.343 26.7917C274.38 25.4194 273.863 23.3743 273.793 20.6564C273.706 17.3138 274.181 13.9271 275.217 10.4963C276.247 7.22188 277.485 4.74671 278.932 3.07081C280.317 1.43741 281.754 0.610602 283.243 0.590394C284.181 0.577676 284.939 0.869483 285.517 1.46582C286.095 2.08297 286.399 2.95386 286.428 4.07849C286.452 4.98443 286.079 6.08325 285.31 7.37495C284.511 8.69832 283.476 9.95718 282.205 11.1515L281.809 11.5788ZM275.874 15.3469L276.716 14.6792C280.229 11.5169 282.416 9.24759 283.276 7.87132C284.24 6.46238 284.711 5.33619 284.689 4.49272C284.671 3.80545 284.495 3.26616 284.162 2.87484C283.829 2.48352 283.36 2.29196 282.756 2.30015C281.434 2.3181 280.16 3.41873 278.935 5.60205C277.75 7.71192 276.798 10.6103 276.081 14.2972L275.874 15.3469ZM283.659 19.0382L283.659 19.0069C283.614 17.2887 283.286 15.8973 282.675 14.8327C282.073 13.7054 281.407 13.1468 280.678 13.1566C280.615 13.1575 280.553 13.1688 280.491 13.1904C280.429 13.2121 280.357 13.2495 280.275 13.3027C280.193 13.3455 280.111 13.3935 280.029 13.4467C279.958 13.4998 279.861 13.5792 279.738 13.685C279.616 13.7804 279.503 13.8705 279.401 13.9552C279.3 14.0504 279.162 14.1772 278.989 14.3358C278.827 14.4943 278.685 14.6368 278.563 14.7635C278.441 14.8797 278.268 15.0435 278.044 15.2549C277.831 15.4661 277.643 15.6458 277.48 15.7938C276.96 16.2384 276.45 16.6516 275.949 17.0334L275.827 17.1288L275.8 17.301C275.659 18.2821 275.603 19.3558 275.633 20.5221C275.688 22.6151 276.031 24.199 276.663 25.2738C277.339 26.4209 278.182 26.9876 279.192 26.9739C280.546 26.9555 281.634 26.1022 282.455 24.414C283.308 22.7774 283.71 20.9854 283.659 19.0382ZM67.6838 56.4846C67.5434 56.6948 67.3433 56.8121 67.0834 56.8365L66.5851 56.9058C66.1597 56.974 65.6225 56.9501 64.9734 56.8339C64.3354 56.7384 63.7471 56.5536 63.2086 56.2797C62.7123 56.026 62.2995 55.7764 61.9701 55.5308C61.6191 55.2544 61.1901 54.781 60.683 54.1108C60.1764 53.4614 59.8189 52.935 59.6105 52.5316C59.4119 52.1072 59.2466 51.3594 59.1147 50.2883C58.9627 49.2486 58.9118 48.4941 58.9622 48.0247C59.0344 47.5966 59.1914 47.0215 59.4332 46.2995C59.6851 45.5669 59.9554 44.9434 60.2443 44.4291C60.5432 43.9042 60.8295 43.494 61.1032 43.1987C61.3974 42.8926 61.8361 42.5325 62.4193 42.1183C63.0441 41.7036 63.8025 41.4172 64.6945 41.2593C65.5656 41.1016 66.2048 41.0409 66.6121 41.077C66.9991 41.1343 67.5609 41.3037 68.2976 41.5854C69.0137 41.8778 69.5415 42.1415 69.881 42.3764C70.2307 42.6009 70.5987 42.9292 70.985 43.3615C71.3713 43.7937 71.6525 44.191 71.8286 44.5532C72.0261 44.9359 72.2239 45.5322 72.422 46.342C72.6092 47.1312 72.7009 47.8539 72.6971 48.5102C72.713 49.1246 72.6953 49.6457 72.6439 50.0734C72.6133 50.501 72.4879 51.0912 72.2678 51.8442C72.0482 52.618 71.799 53.2516 71.52 53.745C71.2104 54.2596 70.7958 54.7444 70.2762 55.1994C69.7566 55.6544 69.3373 55.9569 69.0181 56.1071C68.7196 56.2466 68.2748 56.3724 67.6838 56.4846ZM63.8079 54.6778C64.0634 54.4868 64.3383 54.4414 64.6327 54.5416L65.1219 54.7224C65.3844 54.8022 65.6725 54.8608 65.986 54.8982C66.2886 54.915 66.6994 54.8833 67.2182 54.8034C67.7371 54.7234 68.0788 54.6407 68.2433 54.5551C68.4286 54.4692 68.7252 54.2517 69.1329 53.9024C69.5307 53.5741 69.8291 53.2263 70.0279 52.859C70.2268 52.4917 70.4169 51.9891 70.5983 51.3512C70.7896 50.6924 70.9019 50.2012 70.9352 49.8779C70.968 49.5337 70.9821 49.0751 70.9777 48.5023C70.9639 47.9712 70.8807 47.3734 70.728 46.7088C70.586 46.0544 70.4494 45.6084 70.3182 45.3706C70.1864 45.1119 69.9758 44.8231 69.6862 44.5041C69.3963 44.1747 69.1348 43.9335 68.9016 43.7804C68.6785 43.6167 68.2672 43.4244 67.6675 43.2034C67.0884 42.9716 66.6682 42.8367 66.4067 42.7986C66.1666 42.781 65.7094 42.8289 65.0351 42.9422C64.4024 43.0549 63.8609 43.2654 63.4104 43.5736C62.9292 43.9031 62.5973 44.1628 62.4147 44.3528C62.2326 44.5636 62.0169 44.8842 61.7676 45.3147C61.518 45.7347 61.2816 46.2588 61.0582 46.8868C60.845 47.5043 60.7216 47.9695 60.6881 48.2825C60.6542 48.585 60.6906 49.1835 60.7971 50.0779C60.924 50.9512 61.0588 51.5275 61.2015 51.8068C61.3343 52.1071 61.6108 52.5253 62.0311 53.0612C62.4516 53.6076 62.779 53.9782 63.0133 54.1729C63.2158 54.3473 63.4806 54.5155 63.8079 54.6778ZM90.566 41.4708C90.696 41.2607 90.8697 41.1281 91.0871 41.0731C91.3149 41.0179 91.5296 41.0619 91.7313 41.205C91.9431 41.3375 92.0726 41.5076 92.1197 41.7153L92.2243 42.1358C92.2952 42.4578 92.3443 42.7435 92.3716 42.9932C92.3987 43.2324 92.4382 43.7527 92.4903 44.5541C92.5108 45.3455 92.5269 45.9651 92.5385 46.4128C92.5447 46.6523 92.5513 46.9075 92.5583 47.1782C92.5973 47.0735 92.6365 46.9792 92.676 46.8954C93.0163 45.9532 93.367 45.2141 93.7282 44.6779C94.1206 44.1413 94.4233 43.7622 94.6364 43.5406C94.9114 43.2973 95.322 43.0573 95.8681 42.8207C96.3938 42.6053 96.7917 42.4801 97.0617 42.4452C97.2701 42.4423 97.4836 42.4394 97.7023 42.4365C97.9841 42.4535 98.3627 42.589 98.8381 42.8429C99.335 43.1175 99.7517 43.5181 100.088 44.0448C100.381 44.4887 100.676 45.1983 100.972 46.1734C101.277 47.086 101.488 47.7758 101.604 48.243C101.699 48.7105 101.869 49.4217 102.113 50.3768C102.325 51.3531 102.492 52.1633 102.613 52.8075C102.712 53.4208 102.801 54.0393 102.88 54.6633C102.969 55.2767 103.026 55.6822 103.052 55.8797C103.057 56.0463 103.072 56.2336 103.098 56.4416L103.107 56.7696C103.134 57.0088 103.066 57.2129 102.904 57.3818C102.752 57.5505 102.556 57.6417 102.317 57.6554C102.088 57.6689 101.878 57.5936 101.686 57.4295C101.505 57.2757 101.401 57.0844 101.374 56.8556L101.367 56.5745C101.341 56.3665 101.325 56.174 101.321 55.997C101.295 55.8306 101.254 55.4458 101.197 54.8424C101.119 54.2705 101.031 53.6832 100.932 53.0803C100.812 52.4674 100.641 51.6936 100.419 50.7591C100.186 49.8039 100.022 49.103 99.9267 48.6564C99.8109 48.21 99.6115 47.5513 99.3284 46.6801C99.0672 45.8503 98.8385 45.2649 98.6421 44.9238C98.4687 44.6657 98.2712 44.4861 98.0498 44.3849C97.8591 44.2625 97.7062 44.1917 97.5911 44.1724C97.4869 44.1738 97.3723 44.1754 97.2473 44.177C97.1437 44.1993 96.9115 44.2858 96.5508 44.4365C96.1894 44.5664 95.9582 44.6893 95.857 44.8053C95.7144 44.9322 95.4875 45.2218 95.1762 45.6739C94.8639 46.0844 94.567 46.6874 94.2854 47.4829C93.9841 48.3203 93.8069 48.9165 93.7535 49.2714C93.6797 49.637 93.6223 50.2367 93.5814 51.0706C93.5202 51.9257 93.4971 52.6395 93.5119 53.2122C93.5268 53.785 93.528 54.2329 93.5155 54.556C93.525 54.9204 93.5125 55.2435 93.4782 55.5252C93.4792 55.5669 93.4806 55.619 93.4822 55.6814C93.4838 55.7439 93.4606 55.8536 93.4126 56.0105C93.3747 56.1569 93.3151 56.267 93.2336 56.3411C93.1522 56.4151 93.0236 56.4793 92.8479 56.5338C92.6826 56.5881 92.4731 56.5441 92.2193 56.4017C92.0927 56.3409 91.9816 56.2747 91.886 56.2031C91.8007 56.1313 91.7417 56.0644 91.7088 56.0024C91.6757 55.9299 91.6531 55.8625 91.6411 55.8002C91.629 55.7378 91.6225 55.6858 91.6214 55.6442L91.6198 55.5817C91.5275 55.2392 91.4564 54.9068 91.4064 54.5846C91.3563 54.2623 91.2847 53.7112 91.1915 52.9312C91.0871 52.1201 91.0105 51.3764 90.9617 50.6999C90.9127 50.0131 90.8768 49.2323 90.8541 48.3576C90.8325 47.5246 90.8159 46.8841 90.8043 46.4364C90.7926 45.9886 90.7766 45.369 90.756 44.5776C90.7152 43.8073 90.682 43.3286 90.6563 43.1415C90.6519 42.9748 90.6152 42.7618 90.5459 42.5023L90.4729 42.0971C90.405 41.8896 90.436 41.6809 90.566 41.4708ZM115.023 55.8423C114.883 56.0526 114.683 56.1699 114.423 56.1942L113.924 56.2635C113.499 56.3317 112.962 56.3078 112.313 56.1916C111.675 56.0961 111.087 55.9113 110.548 55.6374C110.052 55.3837 109.639 55.1341 109.31 54.8886C108.959 54.6121 108.529 54.1387 108.022 53.4685C107.516 52.8191 107.158 52.2927 106.95 51.8893C106.751 51.4649 106.586 50.7171 106.454 49.646C106.302 48.6064 106.251 47.8518 106.302 47.3824C106.374 46.9543 106.531 46.3793 106.773 45.6572C107.024 44.9246 107.295 44.3011 107.584 43.7868C107.883 43.2619 108.169 42.8518 108.443 42.5564C108.737 42.2503 109.175 41.8902 109.759 41.476C110.383 41.0613 111.142 40.7749 112.034 40.617C112.905 40.4593 113.544 40.3986 113.951 40.4347C114.338 40.492 114.9 40.6614 115.637 40.9431C116.353 41.2355 116.881 41.4992 117.22 41.7342C117.57 41.9586 117.938 42.2869 118.324 42.7192C118.711 43.1515 118.992 43.5487 119.168 43.9109C119.365 44.2936 119.563 44.8899 119.761 45.6997C119.949 46.4889 120.04 47.2116 120.036 47.8679C120.052 48.4823 120.035 49.0034 119.983 49.4312C119.953 49.8587 119.827 50.4489 119.607 51.2019C119.388 51.9757 119.138 52.6093 118.859 53.1027C118.55 53.6173 118.135 54.1021 117.616 54.5571C117.096 55.0121 116.677 55.3147 116.358 55.4648C116.059 55.6043 115.614 55.7301 115.023 55.8423ZM111.147 54.0355C111.403 53.8445 111.678 53.7991 111.972 53.8993L112.461 54.0802C112.724 54.1599 113.012 54.2185 113.325 54.2559C113.628 54.2727 114.039 54.2411 114.558 54.1611C115.077 54.0811 115.418 53.9984 115.583 53.9128C115.768 53.827 116.065 53.6094 116.472 53.2601C116.87 52.9318 117.168 52.584 117.367 52.2167C117.566 51.8494 117.756 51.3468 117.938 50.7089C118.129 50.0501 118.241 49.559 118.275 49.2356C118.307 48.8914 118.322 48.4329 118.317 47.86C118.303 47.3289 118.22 46.7311 118.067 46.0665C117.925 45.4121 117.789 44.9661 117.658 44.7283C117.526 44.4696 117.315 44.1808 117.026 43.8618C116.736 43.5324 116.474 43.2912 116.241 43.1381C116.018 42.9744 115.607 42.7821 115.007 42.5611C114.428 42.3293 114.008 42.1944 113.746 42.1563C113.506 42.1387 113.049 42.1866 112.374 42.2999C111.742 42.4127 111.2 42.6231 110.75 42.9313C110.269 43.2608 109.937 43.5205 109.754 43.7105C109.572 43.9213 109.356 44.2419 109.107 44.6724C108.857 45.0925 108.621 45.6165 108.398 46.2446C108.184 46.862 108.061 47.3273 108.027 47.6402C107.994 47.9428 108.03 48.5412 108.137 49.4356C108.263 50.3089 108.398 50.8852 108.541 51.1646C108.674 51.4648 108.95 51.883 109.37 52.4189C109.791 52.9653 110.118 53.3359 110.353 53.5306C110.555 53.705 110.82 53.8733 111.147 54.0355ZM130.654 39.63L131.16 39.8575C133.351 40.7653 134.492 43.005 134.585 46.5768C134.655 49.2946 133.905 51.6798 132.332 53.7324C130.958 55.7615 129.468 56.787 127.864 56.8087C126.354 56.8292 125.128 56.174 124.187 54.843C123.224 53.4706 122.708 51.4255 122.637 48.7076C122.55 45.365 123.025 41.9783 124.061 38.5475C125.091 35.2731 126.33 32.7979 127.776 31.122C129.161 29.4886 130.598 28.6618 132.088 28.6416C133.025 28.6289 133.783 28.9207 134.361 29.517C134.94 30.1342 135.244 31.0051 135.273 32.1297C135.296 33.0357 134.924 34.1345 134.155 35.4262C133.356 36.7495 132.32 38.0084 131.049 39.2027L130.654 39.63ZM124.719 43.3981L125.561 42.7304C129.074 39.5681 131.26 37.2988 132.12 35.9225C133.084 34.5136 133.555 33.3874 133.533 32.5439C133.515 31.8567 133.34 31.3174 133.007 30.9261C132.674 30.5347 132.205 30.3432 131.601 30.3514C130.278 30.3693 129.004 31.47 127.779 33.6533C126.594 35.7631 125.643 38.6615 124.926 42.3484L124.719 43.3981ZM132.504 47.0894L132.503 47.0581C132.459 45.34 132.131 43.9486 131.52 42.8839C130.917 41.7567 130.252 41.198 129.522 41.2079C129.46 41.2087 129.398 41.22 129.336 41.2416C129.274 41.2633 129.202 41.3008 129.12 41.354C129.038 41.3967 128.956 41.4447 128.874 41.4979C128.802 41.551 128.705 41.6304 128.583 41.7362C128.46 41.8317 128.348 41.9217 128.246 42.0064C128.144 42.1016 128.007 42.2284 127.834 42.387C127.671 42.5455 127.529 42.6881 127.407 42.8147C127.285 42.931 127.112 43.0948 126.889 43.3061C126.675 43.5174 126.487 43.697 126.324 43.845C125.805 44.2896 125.294 44.7028 124.794 45.0846L124.671 45.18L124.644 45.3522C124.503 46.3333 124.448 47.407 124.478 48.5733C124.532 50.6663 124.875 52.2503 125.508 53.325C126.183 54.4721 127.026 55.0388 128.037 55.0251C129.391 55.0067 130.478 54.1534 131.299 52.4652C132.153 50.8286 132.554 49.0366 132.504 47.0894ZM137.651 40.0663C137.645 39.8372 137.66 39.6131 137.696 39.3938C137.743 39.1744 137.815 38.9599 137.914 38.7502C138.013 38.5405 138.16 38.3875 138.355 38.2911C138.561 38.1946 138.801 38.1809 139.073 38.2501C139.131 38.8535 139.156 39.848 139.151 41.2335C139.155 42.6084 139.175 43.5978 139.212 44.2014C139.341 44.3455 139.534 44.5669 139.792 44.8655C140.224 44.6409 140.914 44.3242 141.862 43.9155C143.751 43.6607 145.256 43.6299 146.376 43.823C146.822 44.1399 147.14 44.3699 147.332 44.5132C147.523 44.6564 147.794 44.8767 148.146 45.174C148.497 45.4609 148.786 45.7487 149.012 46.0373C149.238 46.3155 149.433 46.6149 149.598 46.9356C149.699 47.2155 149.77 47.527 149.81 47.8702C149.85 48.203 149.862 48.4893 149.848 48.7291C149.843 48.9583 149.826 49.2867 149.795 49.7142C149.775 50.1311 149.762 50.423 149.755 50.5898C149.155 51.5354 148.357 52.3067 147.362 52.9035C146.366 53.4899 145.329 53.8842 144.251 54.0864C143.172 54.2781 142.054 54.3297 140.895 54.2413C140.549 54.1626 140.238 54.0418 139.963 53.8789C139.688 53.716 139.453 53.5108 139.26 53.2634C139.065 53.0057 138.897 52.7475 138.755 52.489C138.623 52.2304 138.506 51.9247 138.403 51.5719C138.3 51.2191 138.219 50.9077 138.16 50.6377C138.101 50.3677 138.041 50.056 137.979 49.7026C137.642 46.353 137.533 43.1409 137.651 40.0663ZM139.629 47.0083C139.636 48.9041 139.683 50.3254 139.771 51.2721C139.877 51.3436 140.037 51.4925 140.251 51.7187C140.465 51.9346 140.667 52.1037 140.858 52.2261C141.049 52.3485 141.259 52.4082 141.488 52.4051C142.177 52.4478 142.848 52.4283 143.502 52.3465C144.167 52.2541 144.819 52.0942 145.459 51.8668C146.11 51.6392 146.674 51.293 147.152 50.8282C147.639 50.3528 147.984 49.7804 148.185 49.111C148.161 48.5697 148.14 48.1689 148.123 47.9087C148.079 47.826 147.991 47.6605 147.86 47.4123C147.728 47.1537 147.64 46.983 147.597 46.9002C147.103 46.334 146.498 45.9203 145.783 45.6592C145.078 45.3979 144.361 45.2931 143.633 45.3446C142.905 45.3857 142.185 45.5518 141.474 45.8427C140.773 46.1334 140.158 46.522 139.629 47.0083ZM152.369 38.0853C152.464 38.1153 152.585 38.1605 152.732 38.221C152.89 38.271 153.058 38.3312 153.237 38.4017C153.426 38.4616 153.557 38.5015 153.631 38.5214C153.91 40.028 154.108 41.6556 154.226 43.404C154.344 45.142 154.396 46.7299 154.381 48.1676C154.366 49.5949 154.315 51.231 154.227 53.076C153.957 53.1109 153.33 53.2132 152.344 53.3828C152.322 52.5289 152.337 51.6902 152.388 50.8665C152.593 49.9158 152.711 48.8621 152.744 47.7054C152.776 46.5487 152.743 45.4814 152.645 44.5036C152.557 43.5256 152.483 42.4589 152.422 41.3034C152.36 40.1376 152.343 39.0649 152.369 38.0853ZM157.004 39.6006C157.307 39.659 157.768 39.7621 158.387 39.91C158.409 40.3472 158.431 41.0031 158.454 41.8779C158.476 42.7526 158.5 43.4606 158.524 44.0019C158.549 44.5329 158.607 45.1727 158.699 45.9215C158.791 46.6598 158.918 47.3352 159.08 47.9476C159.093 48.0307 159.121 48.322 159.165 48.8214C159.219 49.3103 159.265 49.6482 159.301 49.8352C159.337 50.0222 159.406 50.2869 159.509 50.6293C159.622 50.9611 159.76 51.2561 159.923 51.5143C160.044 51.7627 160.209 52.0938 160.417 52.5076C160.581 52.7867 160.826 52.9917 161.152 53.1227C161.478 53.2432 161.807 53.2804 162.14 53.2343C162.482 53.1775 162.781 53.0537 163.037 52.8627C163.28 52.6198 163.492 52.3513 163.672 52.0572C163.862 51.7525 164.066 51.3592 164.282 50.877C164.509 50.3844 164.657 50.0647 164.726 49.9179C164.641 48.6274 164.588 47.1801 164.567 45.5762C164.556 43.9618 164.623 42.5077 164.766 41.2141C164.994 41.1693 165.414 41.0907 166.026 40.9782C166.173 41.4137 166.289 41.8809 166.375 42.3798C166.461 42.8786 166.514 43.3258 166.535 43.7214C166.566 44.1168 166.573 44.6011 166.557 45.1742C166.551 45.7368 166.531 46.1902 166.498 46.5344C166.476 46.8681 166.436 47.353 166.38 47.9892C166.334 48.6148 166.298 49.0684 166.274 49.35C166.21 50.08 166.39 50.7912 166.814 51.4833C167.238 52.1651 167.788 52.6524 168.462 52.9454C168.912 53.033 169.339 52.996 169.741 52.8343C170.153 52.6724 170.496 52.4334 170.769 52.1172C171.042 51.7906 171.262 51.423 171.428 51.0145C171.605 50.5954 171.709 50.1721 171.739 49.7446C172.03 46.0844 172.197 43.2852 172.24 41.347C172.418 40.5634 172.557 39.9 172.658 39.357C173.276 39.4944 173.69 39.5878 173.9 39.637C173.95 40.3967 173.962 41.2247 173.933 42.121C173.904 43.0172 173.861 43.7782 173.804 44.404C173.748 45.0298 173.66 45.8747 173.542 46.9389C173.434 48.0028 173.36 48.7799 173.321 49.27C173.351 49.6029 173.422 49.9353 173.534 50.2671C173.658 50.5988 173.785 50.8887 173.917 51.137C174.048 51.3748 174.237 51.6587 174.486 51.9886C174.734 52.3082 174.933 52.5555 175.083 52.7305C175.234 52.9056 175.464 53.1681 175.776 53.518C176.097 53.8574 176.317 54.0888 176.434 54.2122C176.395 54.2961 176.311 54.4639 176.182 54.7157C176.063 54.9673 175.984 55.135 175.945 55.2189C175.642 55.1813 175.358 55.1018 175.095 54.9804C174.841 54.8484 174.597 54.6694 174.362 54.4435C174.137 54.2173 173.944 54.0116 173.783 53.8263C173.622 53.6306 173.428 53.3832 173.201 53.0842C172.974 52.7748 172.802 52.5427 172.683 52.3881C172.415 52.9021 172.045 53.3134 171.574 53.6219C171.103 53.92 170.586 54.1093 170.026 54.1898C169.465 54.2703 168.908 54.2883 168.355 54.2437C167.812 54.199 167.263 54.1023 166.706 53.9536C166.257 53.4805 165.754 53.0029 165.2 52.5209C165 53.2319 164.597 53.7739 163.992 54.1467C163.387 54.5195 162.725 54.7055 162.006 54.7049C161.287 54.6938 160.616 54.531 159.993 54.2165C159.058 53.5417 158.442 52.4615 158.143 50.976C158.086 50.7996 157.984 50.4781 157.836 50.0114C157.689 49.5446 157.57 49.1816 157.48 48.9224C157.357 48.2053 157.258 47.4046 157.183 46.5202C157.118 45.6356 157.079 44.9174 157.065 44.3655C157.05 43.8032 157.039 42.9648 157.031 41.8503C157.023 40.7358 157.014 39.9859 157.004 39.6006ZM181.646 46.0633C181.792 46.0613 181.938 46.0697 182.085 46.0886C182.251 46.0863 182.601 46.0972 183.133 46.1212C183.675 46.1347 184.066 46.1398 184.305 46.1366C184.545 46.1333 184.774 46.1198 184.992 46.096C185.21 46.0618 185.62 45.9989 186.222 45.9074C186.814 45.8369 187.192 45.7797 187.358 45.7358C187.534 45.6917 187.777 45.6051 188.086 45.4759C188.364 45.3679 188.545 45.2874 188.627 45.2342C188.687 45.1708 188.774 45.0759 188.885 44.9494C188.966 44.865 189.036 44.7442 189.094 44.5872C189.152 44.3989 189.19 44.263 189.209 44.1794C189.207 44.0961 189.17 43.9038 189.1 43.6027C189.03 43.3016 188.973 43.1096 188.929 43.0269C188.864 42.9444 188.73 42.8056 188.527 42.6105C188.334 42.4048 188.138 42.2616 187.938 42.181C187.695 42.0593 187.484 41.9736 187.306 41.9239C187.127 41.8638 186.824 41.8159 186.396 41.78C185.988 41.723 185.649 41.7172 185.379 41.7625C185.12 41.7869 184.815 41.8744 184.464 42.025C184.114 42.1651 183.866 42.2779 183.723 42.3632C183.58 42.4693 183.376 42.6647 183.113 42.9496C182.849 43.224 182.598 43.5972 182.36 44.0692C182.092 44.5624 181.929 44.9188 181.872 45.1383C181.814 45.3058 181.739 45.6141 181.646 46.0633ZM179.766 46.4794C179.803 46.3122 179.84 46.1294 179.877 45.931C180.006 45.2938 180.124 44.8339 180.232 44.5512C180.329 44.2686 180.531 43.8388 180.839 43.2617C181.167 42.6635 181.504 42.1693 181.848 41.7792C182.182 41.4101 182.467 41.1406 182.702 40.9707C182.958 40.7798 183.323 40.5925 183.797 40.409C184.282 40.2149 184.737 40.0889 185.163 40.0311C185.568 39.9839 186.037 39.988 186.57 40.0432C187.102 40.0985 187.505 40.1712 187.779 40.2612C188.052 40.3408 188.351 40.4514 188.678 40.5928C189.048 40.7753 189.393 41.031 189.714 41.36C190.067 41.6989 190.298 41.9719 190.407 42.1787C190.538 42.3853 190.666 42.7325 190.794 43.2204C190.911 43.7084 190.962 44.0723 190.947 44.312C190.932 44.5414 190.861 44.8288 190.735 45.1743C190.599 45.5407 190.43 45.8555 190.228 46.1187C190.025 46.3298 189.837 46.499 189.663 46.6264C189.479 46.7539 189.17 46.9091 188.737 47.0921C188.355 47.2223 188.045 47.3254 187.808 47.4016C187.58 47.4671 187.139 47.546 186.485 47.6383C185.873 47.7299 185.432 47.788 185.161 47.8125C184.891 47.837 184.621 47.8511 184.35 47.8547C184.11 47.858 183.709 47.853 183.146 47.8398C182.583 47.8266 182.213 47.816 182.035 47.808C181.868 47.7999 181.712 47.7968 181.566 47.7987C181.504 47.7996 181.426 47.8007 181.332 47.8019C181.315 47.9688 181.299 48.1305 181.282 48.287C181.267 48.4955 181.293 48.8962 181.36 49.4891C181.427 50.0715 181.484 50.4561 181.531 50.643C181.578 50.8507 181.651 51.0633 181.75 51.2807C181.818 51.4673 181.961 51.7674 182.18 52.1811C182.377 52.543 182.566 52.8165 182.748 53.0015C182.963 53.2382 183.15 53.4076 183.309 53.5096C183.436 53.612 183.695 53.7439 184.085 53.9053C184.475 54.0875 184.822 54.2234 185.127 54.313C185.431 54.3922 185.781 54.4396 186.178 54.455C186.606 54.4909 186.898 54.4973 187.053 54.4744C187.178 54.4727 187.421 54.3965 187.782 54.2458C188.102 54.1164 188.313 54.0146 188.415 53.9403C188.517 53.8556 188.608 53.7554 188.688 53.6397C188.769 53.524 188.883 53.3141 189.032 53.01C189.169 52.6853 189.267 52.4339 189.325 52.2561C189.382 52.0678 189.43 51.9005 189.468 51.7541L189.524 51.5033C189.559 51.2633 189.674 51.0794 189.869 50.9518C190.074 50.824 190.292 50.7794 190.522 50.8179C190.763 50.8563 190.948 50.9788 191.078 51.1854C191.219 51.3814 191.271 51.5942 191.236 51.8239L191.181 52.1215C191.124 52.3306 191.052 52.5608 190.964 52.8119C190.887 53.0526 190.76 53.3668 190.582 53.7546C190.406 54.1633 190.236 54.4729 190.075 54.6834C189.924 54.8834 189.752 55.068 189.558 55.2373C189.355 55.4276 188.99 55.6356 188.465 55.8615C187.938 56.0562 187.535 56.171 187.255 56.2061C186.995 56.2304 186.609 56.2252 186.098 56.1905C185.565 56.1561 185.095 56.0843 184.685 55.9753C184.276 55.8559 183.845 55.695 183.391 55.4929C182.896 55.26 182.526 55.0619 182.282 54.8985C182.069 54.7347 181.818 54.5038 181.529 54.2056C181.219 53.8869 180.932 53.4741 180.669 52.9673C180.396 52.5022 180.215 52.1296 180.124 51.8496C180.013 51.5907 179.923 51.3367 179.854 51.0876C179.784 50.8073 179.71 50.3292 179.63 49.6532C179.56 48.9666 179.536 48.4773 179.56 48.1853C179.574 47.9039 179.598 47.6223 179.632 47.3406C179.63 47.2781 179.639 47.2155 179.658 47.1527C179.657 47.0903 179.655 47.0382 179.654 46.9965C179.629 46.8198 179.666 46.6474 179.766 46.4794ZM205.018 45.0899C205.152 45.036 205.254 44.9773 205.326 44.9138C205.397 44.8504 205.452 44.7767 205.492 44.6928C205.541 44.5776 205.584 44.426 205.621 44.238C205.657 44.0395 205.696 43.7161 205.736 43.2676C205.787 42.8086 205.824 42.4175 205.847 42.0942C205.869 41.7606 205.911 41.1715 205.973 40.3269C206.095 38.6377 206.553 37.7877 207.344 37.777C207.678 37.7725 207.908 37.8318 208.037 37.9551C208.165 38.0783 208.233 38.3066 208.242 38.6398C208.246 38.8064 208.188 39.177 208.068 39.7516C207.347 43.2927 207.017 46.2607 207.08 48.6557C207.149 51.3423 207.638 53.1014 208.545 53.9328C208.673 54.0457 208.775 54.1589 208.851 54.2724C208.937 54.3754 208.991 54.4528 209.013 54.5046C209.046 54.5562 209.062 54.5873 209.062 54.5977C209.066 54.7539 208.925 54.9173 208.637 55.0878C208.278 55.3114 207.964 55.4251 207.693 55.4288C207.078 55.4371 206.568 54.8346 206.161 53.6214C205.755 52.4081 205.518 50.5259 205.452 47.9747C205.443 47.6206 205.337 47.3616 205.135 47.1977C205.007 47.0953 204.865 47.0451 204.709 47.0472C203.824 47.0593 202.747 47.1364 201.48 47.2786C200.191 47.4106 199.268 47.5794 198.711 47.7849C198.039 48.0023 197.613 48.2165 197.43 48.4273C197.249 48.6485 197.105 49.1452 197 49.9175C196.904 50.6167 196.865 51.3464 196.885 52.1066L196.937 54.1215C196.95 54.611 196.87 54.9558 196.699 55.1561C196.527 55.3667 196.238 55.4748 195.832 55.4803C195.519 55.4846 195.288 55.3887 195.137 55.1929C194.996 55.0073 194.92 54.6593 194.906 54.1491C194.887 53.3994 194.956 52.4453 195.113 51.2869C195.4 49.0954 195.647 45.3368 195.852 40.011C195.878 39.3961 195.915 39.0206 195.964 38.8845C196.003 38.7694 196.145 38.6269 196.39 38.4568C196.626 38.287 196.884 38.2002 197.165 38.1963C197.467 38.1922 197.666 38.2312 197.762 38.3132C197.858 38.3849 197.908 38.5196 197.913 38.7174C197.907 38.8738 197.807 39.6356 197.613 41.0028C197.405 42.6202 197.312 43.8767 197.336 44.7722C197.346 45.1575 197.437 45.4792 197.611 45.7373C197.784 45.9953 198.032 46.1222 198.355 46.1178C199.084 46.1079 200.393 45.9443 202.281 45.627C202.478 45.6035 202.717 45.569 202.997 45.5236C203.288 45.478 203.506 45.4438 203.651 45.421C203.807 45.398 203.988 45.3695 204.196 45.3354C204.403 45.291 204.558 45.2524 204.662 45.2197C204.775 45.1765 204.894 45.1333 205.018 45.0899ZM222.487 46.1498L221.744 47.613C220.637 49.9406 219.496 51.7425 218.321 53.0189C217.176 54.2636 216.077 54.8931 215.025 54.9074C214.452 54.9152 213.838 54.5485 213.183 53.8074C212.518 53.0456 212.163 51.842 212.121 50.1967C212.085 48.8014 212.354 46.7196 212.928 43.9513C213.41 41.6635 213.649 40.0248 213.644 39.0353C213.862 38.6052 214.2 38.3871 214.659 38.3809C214.971 38.3766 215.224 38.4826 215.417 38.6987C215.621 38.9251 215.726 39.1581 215.732 39.3976C215.75 40.0744 215.531 41.067 215.075 42.3753C214.155 45.0545 213.719 47.3521 213.769 49.2681C213.82 51.2362 214.372 52.2131 215.424 52.1988C216.465 52.1847 217.692 51.267 219.103 49.4457C220.474 47.6667 221.65 45.208 222.632 42.0696C223.017 40.8769 223.336 40.1069 223.587 39.7598C223.779 39.4967 224.041 39.363 224.374 39.3584C224.614 39.3552 224.787 39.4258 224.895 39.5701C225.003 39.7041 225.062 39.9689 225.072 40.3646C225.065 40.4897 224.981 40.8554 224.819 41.4618C224.248 43.9175 223.99 46.2336 224.046 48.4099C224.116 51.1069 224.605 52.8659 225.512 53.687C225.64 53.8102 225.742 53.9287 225.818 54.0422C225.904 54.1452 225.958 54.2226 225.98 54.2744C226.013 54.326 226.029 54.3571 226.029 54.3675C226.033 54.5133 225.892 54.6766 225.605 54.8576C225.246 55.0812 224.931 55.1949 224.66 55.1986C224.108 55.2061 223.627 54.7282 223.216 53.765C222.761 52.6878 222.505 51.0663 222.449 48.9003L222.435 48.3536C222.431 48.187 222.431 48.0151 222.437 47.838L222.487 46.1498ZM240.454 45.906L239.711 47.3692C238.604 49.6968 237.463 51.4988 236.288 52.7751C235.143 54.0199 234.044 54.6494 232.992 54.6636C232.419 54.6714 231.805 54.3047 231.151 53.5636C230.485 52.8018 230.131 51.5982 230.088 49.953C230.052 48.5576 230.321 46.4758 230.895 43.7075C231.377 41.4197 231.616 39.781 231.611 38.7915C231.829 38.3615 232.168 38.1433 232.626 38.1371C232.938 38.1329 233.191 38.2388 233.384 38.4549C233.588 38.6813 233.693 38.9143 233.699 39.1538C233.717 39.8307 233.498 40.8232 233.042 42.1315C232.122 44.8107 231.686 47.1083 231.736 49.0243C231.787 50.9924 232.339 51.9693 233.391 51.9551C234.432 51.9409 235.659 51.0232 237.07 49.202C238.441 47.4229 239.617 44.9642 240.599 41.8259C240.984 40.6331 241.303 39.8631 241.555 39.516C241.746 39.253 242.008 39.1192 242.341 39.1147C242.581 39.1114 242.755 39.182 242.862 39.3264C242.97 39.4603 243.029 39.7251 243.039 40.1208C243.032 40.2459 242.948 40.6117 242.787 41.218C242.215 43.6738 241.957 45.9898 242.013 48.1661C242.083 50.8632 242.572 52.6222 243.479 53.4432C243.607 53.5665 243.709 53.6849 243.785 53.7984C243.871 53.9014 243.925 53.9788 243.947 54.0306C243.98 54.0823 243.996 54.1133 243.997 54.1237C244 54.2695 243.859 54.4329 243.572 54.6139C243.213 54.8375 242.898 54.9511 242.627 54.9548C242.075 54.9623 241.594 54.4844 241.183 53.5212C240.728 52.4441 240.473 50.8225 240.416 48.6566L240.402 48.1099C240.398 47.9433 240.399 47.7714 240.404 47.5942L240.454 45.906ZM53.5907 74.723L54.073 74.6383C56.4257 74.1584 58.4766 72.4848 60.2256 69.6172C61.0056 68.3566 61.7066 67.4617 62.3284 66.9324C62.9409 66.4449 63.5909 66.1965 64.2783 66.1872C64.4867 66.1844 64.7134 66.2907 64.9587 66.5061C65.1929 66.7008 65.3136 66.9336 65.3206 67.2043C65.3287 67.5167 64.9453 67.798 64.1703 68.0481C63.6125 68.2327 63.094 68.5314 62.615 68.9442C62.1673 69.3565 61.3852 70.3359 60.2687 71.8823C59.4441 73.0289 58.7044 73.8359 58.0497 74.3031C58.0393 74.3032 58.0238 74.3086 58.0032 74.3193C57.9931 74.3299 57.9777 74.3405 57.9572 74.3512C57.947 74.3618 57.9318 74.3776 57.9115 74.3987C57.8912 74.4198 57.8709 74.4409 57.8506 74.462C57.8408 74.483 57.8258 74.5092 57.8058 74.5408C57.7962 74.5721 57.7867 74.6087 57.7774 74.6505C57.7785 74.6922 57.7796 74.7338 57.7806 74.7755C57.782 74.8276 57.7832 74.8744 57.7843 74.9161C57.7955 74.9472 57.8067 74.9783 57.818 75.0094C57.8396 75.0403 57.856 75.0713 57.8673 75.1024C57.8886 75.123 57.9048 75.1436 57.9158 75.1643C57.9369 75.1744 57.9581 75.1897 57.9795 75.2103C58.011 75.2203 58.0321 75.2304 58.0428 75.2407C58.0535 75.251 58.0693 75.2612 58.0904 75.2713C58.1115 75.2814 58.1221 75.2865 58.1221 75.2865C58.7677 75.6736 59.4653 76.4558 60.2148 77.6331C61.3979 79.4609 62.3136 80.6203 62.9619 81.1115C63.6629 81.6229 64.4508 81.8726 65.3257 81.8607L65.8565 81.8379C65.9086 81.8372 65.9503 81.8366 65.9815 81.8362C65.9927 81.8673 65.9987 81.8985 65.9996 81.9297C66.0069 82.2109 65.8328 82.5309 65.4775 82.8899C65.1117 83.2491 64.4653 83.4349 63.5383 83.4475C62.8508 83.4568 62.1863 83.1429 61.5446 82.5058C60.8703 81.817 60.0908 80.6869 59.2061 79.1156C58.6703 78.1437 58.1665 77.4005 57.6947 76.8861C57.1799 76.3201 56.61 76.0414 55.9851 76.0499C55.8393 76.0518 55.4621 76.1715 54.8535 76.409C54.5955 76.5062 54.3944 76.5871 54.2502 76.6515C54.1162 76.7054 53.9777 76.7907 53.8349 76.9072C53.7025 77.0236 53.6069 77.1551 53.5482 77.3017C53.4609 77.5529 53.4187 78.3347 53.4215 79.6472C53.4125 80.9078 53.418 81.9233 53.438 82.6939C53.4453 82.9751 53.3166 83.2372 53.052 83.4804C52.7666 83.7239 52.4572 83.8478 52.1239 83.8524C51.8011 83.8568 51.5488 83.7716 51.3671 83.597C51.1852 83.412 51.0919 83.2309 51.0873 83.0539C51.0779 82.6895 51.1951 81.7868 51.4391 80.346C51.8693 77.6526 52.2548 73.2306 52.5953 67.0801C52.6142 66.6007 52.7852 66.166 53.1085 65.7762C53.4115 65.4075 53.7453 65.2207 54.1099 65.2158C54.2349 65.2141 54.3516 65.2958 54.4601 65.461C54.6014 65.6883 54.6771 65.9945 54.6871 66.3798C54.6957 66.713 54.6535 67.0938 54.5604 67.5222C54.0131 69.7171 53.6959 71.9507 53.609 74.2227L53.5907 74.723ZM74.88 66.3871L75.3861 66.6146C77.5768 67.5224 78.7186 69.7622 78.8112 73.3339C78.8817 76.0517 78.1309 78.4369 76.5587 80.4896C75.1839 82.5187 73.6945 83.5441 72.0904 83.5658C70.5802 83.5863 69.3545 82.9311 68.4135 81.6001C67.4506 80.2277 66.9339 78.1826 66.8634 75.4648C66.7767 72.1221 67.2514 68.7354 68.2877 65.3047C69.3177 62.0302 70.5559 59.555 72.0024 57.8791C73.3875 56.2457 74.8247 55.4189 76.3142 55.3987C77.2516 55.386 78.0094 55.6778 78.5875 56.2742C79.1661 56.8913 79.47 57.7622 79.4992 58.8868C79.5227 59.7928 79.1501 60.8916 78.3813 62.1833C77.5821 63.5067 76.5467 64.7655 75.2753 65.9599L74.88 66.3871ZM68.945 70.1552L69.7872 69.4875C73.2999 66.3252 75.4864 64.0559 76.3468 62.6797C77.3105 61.2707 77.7814 60.1445 77.7595 59.3011C77.7417 58.6138 77.5662 58.0745 77.233 57.6832C76.8999 57.2919 76.4312 57.1003 75.8271 57.1085C74.5043 57.1264 73.2305 58.2271 72.0055 60.4104C70.8204 62.5203 69.8692 65.4186 69.1522 69.1055L68.945 70.1552ZM76.7302 73.8465L76.7294 73.8153C76.6848 72.0971 76.357 70.7057 75.7459 69.641C75.1436 68.5138 74.4779 67.9551 73.7488 67.965C73.6863 67.9658 73.6241 67.9771 73.5621 67.9988C73.5002 68.0204 73.4282 68.0579 73.3462 68.1111C73.264 68.1539 73.1819 68.2018 73.0999 68.255C73.0283 68.3081 72.9314 68.3875 72.8091 68.4934C72.6866 68.5888 72.5743 68.6788 72.4723 68.7636C72.3706 68.8587 72.2332 68.9856 72.0602 69.1442C71.8976 69.3026 71.7554 69.4452 71.6337 69.5718C71.5116 69.6881 71.3388 69.8519 71.115 70.0632C70.9017 70.2745 70.7136 70.4541 70.5507 70.6022C70.0309 71.0467 69.5206 71.4599 69.02 71.8417L68.8974 71.9371L68.8706 72.1094C68.7294 73.0905 68.6739 74.1641 68.7041 75.3304C68.7584 77.4235 69.1017 79.0074 69.7339 80.0821C70.4096 81.2292 71.2527 81.7959 72.263 81.7822C73.617 81.7639 74.7046 80.9105 75.5256 79.2223C76.3792 77.5857 76.7807 75.7938 76.7302 73.8465ZM93.4582 77.6509C93.3492 77.4648 93.2351 77.2841 93.1159 77.1086C92.9639 76.8711 92.7909 76.6286 92.5969 76.3813C92.4241 76.144 92.0183 75.7641 91.3796 75.2415C90.8148 74.7596 90.4431 74.4886 90.2644 74.4285C90.117 74.368 89.8407 74.3613 89.4356 74.4085C88.9888 74.4562 88.5954 74.5553 88.2555 74.7058C87.8739 74.8568 87.5808 75.0066 87.3763 75.1552C87.1819 75.2933 87.0034 75.4415 86.8408 75.6C86.6977 75.7061 86.5009 75.9536 86.2505 76.3424C85.9793 76.7315 85.8146 77.0098 85.7564 77.1772C85.6988 77.3655 85.6427 77.6111 85.588 77.9139C85.5542 78.2164 85.5498 78.4509 85.575 78.6172C85.5793 78.7838 85.6491 79.0641 85.7844 79.4581C85.9188 79.8209 86.0559 80.0847 86.1956 80.2494C86.3677 80.4554 86.5329 80.599 86.6913 80.6802C86.8398 80.7824 86.9987 80.8844 87.1681 80.9862C87.3476 81.0776 87.6316 81.1831 88.0203 81.3028C88.3667 81.4023 88.665 81.4555 88.9153 81.4625C89.1965 81.4587 89.4299 81.4191 89.6155 81.3437C89.8227 81.2992 90.0344 81.2234 90.2504 81.1163C90.4768 81.0091 90.7079 80.8809 90.9437 80.7319C91.128 80.6044 91.4737 80.2768 91.981 79.7491C92.4568 79.2113 92.7448 78.8689 92.8452 78.7217C92.945 78.5537 93.0346 78.391 93.1139 78.2337C93.2247 78.0863 93.3394 77.8921 93.4582 77.6509ZM94.9804 78.4896C94.8408 78.7311 94.7312 78.9253 94.6516 79.0722C94.5726 79.2399 94.4579 79.4342 94.3073 79.655C94.1677 79.8965 93.8142 80.3284 93.2469 80.9506C92.6691 81.5731 92.2214 81.9854 91.9036 82.1876C91.6064 82.3792 91.3033 82.5447 90.9944 82.6844C90.6961 82.8342 90.4022 82.9528 90.1127 83.0401C89.792 83.1278 89.4181 83.1745 88.9911 83.1803C88.5438 83.2072 88.0521 83.1305 87.516 82.9503C87.0227 82.8112 86.6491 82.6704 86.3954 82.528C86.1523 82.3959 85.9087 82.2429 85.6645 82.0692C85.4207 81.9058 85.1695 81.6644 84.9112 81.345C84.6002 81.0055 84.3542 80.5609 84.1733 80.0112C83.9928 79.4824 83.8828 79.0568 83.8432 78.7344C83.8145 78.4327 83.8313 78.0731 83.8934 77.6556C83.9662 77.2484 84.0507 76.8931 84.147 76.5897C84.2434 76.2863 84.4568 75.8771 84.7872 75.3622C85.1183 74.8681 85.4162 74.5047 85.6811 74.2719C85.9158 74.0813 86.1664 73.9008 86.4329 73.7305C86.7095 73.5496 87.0689 73.3468 87.5111 73.1221C88.0161 72.9069 88.5905 72.7585 89.2344 72.6768C89.8889 72.6055 90.4214 72.6451 90.8316 72.7958C91.1994 72.9158 91.7775 73.309 92.5658 73.9754C92.4303 73.571 92.3228 73.2443 92.2434 72.9954C92.109 72.6326 91.9148 72.1769 91.6609 71.6283C91.3868 71.1007 91.152 70.6872 90.9567 70.3878C90.7614 70.0884 90.5413 69.8361 90.2963 69.6311C90.1039 69.4462 89.7385 69.2168 89.2 68.9429C88.6615 68.6689 88.1985 68.4929 87.811 68.4148C87.3823 68.3581 87.0375 68.3212 86.7766 68.3039C86.5162 68.3074 86.2613 68.3213 86.0118 68.3455C85.8041 68.3691 85.4219 68.4993 84.8654 68.736C84.4635 68.9082 84.2016 69.0523 84.0796 69.1686L83.8986 69.421C83.7784 69.6102 83.5993 69.7324 83.361 69.7877C83.133 69.8325 82.913 69.7886 82.7012 69.656C82.4995 69.5129 82.3697 69.3272 82.3117 69.0988C82.2638 68.8599 82.3155 68.6456 82.4669 68.4561L82.6471 68.1724C82.8777 67.8255 83.3795 67.4854 84.1523 67.1519C84.8735 66.8401 85.4263 66.6607 85.8106 66.6138C86.133 66.5886 86.4608 66.5737 86.7941 66.5692C87.1384 66.5854 87.5772 66.6315 88.1105 66.7076C88.6653 66.8043 89.2859 67.0302 89.9723 67.3855C90.6588 67.7408 91.1625 68.0777 91.4833 68.3963C91.7932 68.6941 92.0938 69.0338 92.385 69.4153C92.6554 69.797 92.9339 70.2933 93.2207 70.904C93.5178 71.5145 93.7345 72.0324 93.8705 72.4577C94.006 72.8621 94.1877 73.4378 94.4155 74.1847C94.6432 74.9316 94.8078 75.4502 94.9091 75.7405C95.021 76.0411 95.1232 76.3626 95.2154 76.7051C95.3178 77.0371 95.3916 77.2704 95.4367 77.4053L95.4376 77.4365C95.546 77.6017 95.5209 77.8364 95.362 78.1407L94.9804 78.4896ZM106.9 68.6246C106.514 68.609 106.185 68.9989 105.914 69.7942C104.083 74.3087 102.688 77.3694 101.729 78.9762C101.628 79.1129 101.503 79.3126 101.354 79.575C100.967 80.3303 100.588 80.976 100.216 81.5123C99.8557 82.0693 99.5741 82.4586 99.3714 82.6801C99.1701 82.9536 99.0226 83.0911 98.9289 83.0923C98.6164 83.0966 98.4005 83.0058 98.281 82.8199C98.1517 82.655 98.0815 82.359 98.0705 81.9321C98.0561 81.3802 98.5094 80.5772 99.4302 79.523C100.397 78.2494 101.597 76.1081 103.03 73.099C104.417 70.3094 105.534 67.8046 106.383 65.5847C106.477 65.198 106.618 65.0034 106.805 65.0008C106.91 64.9994 107.13 65.0641 107.467 65.195C107.752 65.3474 107.928 65.4908 107.994 65.6253C108.105 65.8738 108.349 66.8497 108.726 68.5529C109.405 71.8354 110.108 74.4353 110.835 76.3526C111.566 78.3948 112.33 79.7594 113.13 80.4465C113.427 80.6612 113.602 80.7995 113.656 80.8612C113.677 80.861 113.687 80.8556 113.687 80.8452C113.695 81.168 113.625 81.4658 113.476 81.7387C113.326 82.0116 113.185 82.1802 113.051 82.2445C112.907 82.3193 112.564 82.3605 112.023 82.3678C111.789 82.2043 111.354 81.6737 110.716 80.7761C109.938 79.7138 109.001 76.7264 107.904 71.8141C107.63 70.4741 107.403 69.5709 107.225 69.1046L107.119 68.6373L106.9 68.6246ZM127.061 73.4449L126.318 74.9081C125.211 77.2357 124.07 79.0376 122.894 80.314C121.749 81.5587 120.651 82.1882 119.599 82.2025C119.026 82.2103 118.412 81.8436 117.757 81.1025C117.091 80.3407 116.737 79.1371 116.695 77.4918C116.658 76.0965 116.927 74.0147 117.502 71.2464C117.984 68.9586 118.223 67.3199 118.218 66.3304C118.436 65.9003 118.774 65.6822 119.232 65.676C119.545 65.6717 119.798 65.7777 119.991 65.9938C120.195 66.2202 120.3 66.4532 120.306 66.6927C120.324 67.3695 120.104 68.3621 119.649 69.6704C118.728 72.3496 118.293 74.6472 118.343 76.5632C118.394 78.5313 118.945 79.5082 119.997 79.4939C121.039 79.4798 122.265 78.5621 123.677 76.7409C125.048 74.9618 126.224 72.5031 127.205 69.3647C127.591 68.172 127.91 67.402 128.161 67.0549C128.352 66.7918 128.615 66.6581 128.948 66.6536C129.187 66.6503 129.361 66.7209 129.469 66.8652C129.577 66.9992 129.636 67.264 129.646 67.6597C129.639 67.7848 129.555 68.1506 129.393 68.7569C128.821 71.2126 128.564 73.5287 128.62 75.705C128.69 78.402 129.178 80.1611 130.085 80.9821C130.214 81.1054 130.316 81.2238 130.392 81.3373C130.478 81.4403 130.532 81.5177 130.554 81.5695C130.586 81.6211 130.603 81.6522 130.603 81.6626C130.607 81.8084 130.465 81.9717 130.178 82.1527C129.819 82.3764 129.505 82.49 129.234 82.4937C128.682 82.5012 128.2 82.0233 127.79 81.0601C127.335 79.9829 127.079 78.3614 127.023 76.1954L127.009 75.6488C127.004 75.4821 127.005 75.3103 127.011 75.1331L127.061 73.4449ZM139.781 60.1002C139.884 60.078 140.086 60.0284 140.386 59.9514C140.697 59.8743 140.904 59.8246 141.008 59.8023C141.289 60.1944 141.482 60.6292 141.589 61.107C141.694 61.5743 141.751 62.1621 141.759 62.8703C141.777 63.568 141.8 64.0364 141.827 64.2757C142.788 64.3772 143.509 64.4508 143.99 64.4963C144.228 64.8368 144.544 65.2023 144.94 65.5928C145.346 65.9727 145.714 66.3063 146.044 66.5935C146.375 66.8702 146.707 67.2147 147.04 67.6269C147.374 68.039 147.619 68.4576 147.776 68.8825C147.802 69.0801 147.823 69.2933 147.84 69.5223C147.866 69.7511 147.882 69.9488 147.886 70.1154C147.901 70.2715 147.906 70.4849 147.903 70.7558C147.9 71.0267 147.894 71.2247 147.887 71.3498C147.88 71.4645 147.87 71.6834 147.857 72.0065C147.844 72.3191 147.839 72.5171 147.841 72.6004C147.551 73.469 147.339 74.1229 147.205 74.5622C146.849 75.3171 146.608 75.8464 146.48 76.1502C145.981 77.0112 145.323 77.7284 144.504 78.3021C143.685 78.8653 142.778 79.2422 141.783 79.4327C141.778 80.4641 141.797 81.3857 141.839 82.1977C141.891 83.0095 141.92 83.9257 141.926 84.9465C141.932 85.9777 141.898 86.8948 141.825 87.6979L140.959 88.0378C140.692 87.3852 140.501 86.6586 140.386 85.858C140.282 85.0574 140.242 84.3027 140.265 83.594C140.288 82.8854 140.295 82.1196 140.284 81.2969C140.283 80.4739 140.253 79.7139 140.193 79.0168C139.477 78.714 138.811 78.3376 138.195 77.8876C137.579 77.4377 137.019 76.9296 136.514 76.3636C136.02 75.7869 135.628 75.1412 135.339 74.4263C135.049 73.7011 134.899 72.9531 134.89 72.1824C134.753 71.3509 134.762 70.4914 134.917 69.6039C135.081 68.7162 135.367 67.8998 135.775 67.1547C136.183 66.3991 136.734 65.7562 137.429 65.226C138.134 64.6851 138.917 64.3516 139.778 64.2253C139.781 63.9128 139.775 63.4806 139.76 62.9287C139.746 62.3664 139.738 61.856 139.736 61.3977C139.735 60.9394 139.75 60.5069 139.781 60.1002ZM141.838 65.9005C141.926 71.3161 142.012 75.2264 142.095 77.6316C142.953 77.3595 143.68 76.8549 144.275 76.1176C144.881 75.3698 145.343 74.5146 145.662 73.5519C145.7 73.3847 145.771 73.1025 145.875 72.7052C145.979 72.2976 146.054 71.9788 146.1 71.749C146.157 71.5191 146.207 71.232 146.25 70.8876C146.303 70.5431 146.321 70.22 146.303 69.9181C146.284 69.6163 146.24 69.3252 146.171 69.0449C145.87 68.6844 145.548 68.345 145.206 68.0267C144.875 67.7083 144.406 67.3032 143.8 66.8114C143.193 66.3092 142.831 66.0069 142.713 65.9043C142.276 65.8998 141.984 65.8986 141.838 65.9005ZM138.849 66.363C138.768 66.4578 138.606 66.6215 138.362 66.854C138.128 67.0759 137.95 67.2554 137.829 67.3925C137.707 67.5191 137.56 67.6878 137.389 67.8984C137.227 68.0985 137.092 68.3035 136.983 68.5133C136.884 68.7126 136.806 68.9272 136.749 69.1571C136.624 69.5547 136.551 69.9619 136.531 70.3789C136.51 70.7958 136.548 71.2536 136.645 71.7523C136.751 72.2405 136.844 72.6298 136.925 72.9204C137.016 73.2004 137.152 73.6205 137.333 74.1805C137.61 74.8122 137.983 75.3592 138.454 75.8216C138.935 76.2838 139.491 76.6305 140.122 76.8615C140.109 75.5491 140.022 72.0034 139.861 66.2242C139.768 66.2359 139.592 66.2644 139.332 66.3095C139.083 66.3442 138.922 66.362 138.849 66.363ZM162.651 72.962L161.908 74.4252C160.801 76.7528 159.66 78.5548 158.485 79.8311C157.34 81.0759 156.241 81.7054 155.189 81.7196C154.616 81.7274 154.002 81.3607 153.348 80.6196C152.682 79.8578 152.328 78.6542 152.285 77.009C152.249 75.6136 152.518 73.5318 153.092 70.7635C153.574 68.4757 153.813 66.837 153.808 65.8475C154.026 65.4175 154.365 65.1993 154.823 65.1931C155.135 65.1889 155.388 65.2948 155.581 65.5109C155.785 65.7373 155.89 65.9703 155.896 66.2098C155.914 66.8867 155.695 67.8792 155.239 69.1875C154.319 71.8667 153.884 74.1643 153.933 76.0803C153.984 78.0484 154.536 79.0253 155.588 79.0111C156.629 78.9969 157.856 78.0792 159.267 76.258C160.638 74.4789 161.814 72.0202 162.796 68.8819C163.182 67.6891 163.5 66.9192 163.752 66.572C163.943 66.309 164.205 66.1752 164.538 66.1707C164.778 66.1674 164.952 66.238 165.06 66.3824C165.167 66.5163 165.226 66.7811 165.236 67.1768C165.229 67.3019 165.145 67.6677 164.984 68.274C164.412 70.7298 164.154 73.0458 164.21 75.2221C164.28 77.9192 164.769 79.6782 165.676 80.4992C165.804 80.6225 165.906 80.7409 165.982 80.8544C166.068 80.9574 166.122 81.0348 166.144 81.0866C166.177 81.1383 166.193 81.1693 166.194 81.1797C166.197 81.3255 166.056 81.4889 165.769 81.6699C165.41 81.8935 165.095 82.0071 164.824 82.0108C164.272 82.0183 163.791 81.5404 163.38 80.5772C162.925 79.5001 162.67 77.8785 162.613 75.7126L162.599 75.1659C162.595 74.9993 162.596 74.8274 162.601 74.6502L162.651 72.962ZM172.642 73.1077L173.125 73.023C175.477 72.5432 177.528 70.8695 179.277 68.002C180.057 66.7414 180.758 65.8464 181.38 65.3172C181.992 64.8297 182.642 64.5813 183.33 64.572C183.538 64.5691 183.765 64.6754 184.01 64.8909C184.244 65.0856 184.365 65.3183 184.372 65.5891C184.38 65.9015 183.997 66.1827 183.222 66.4328C182.664 66.6175 182.146 66.9162 181.667 67.3289C181.219 67.7413 180.437 68.7206 179.32 70.2671C178.496 71.4137 177.756 72.2206 177.101 72.6878C177.091 72.688 177.075 72.6934 177.055 72.7041C177.045 72.7146 177.029 72.7253 177.009 72.736C176.999 72.7465 176.983 72.7624 176.963 72.7835C176.943 72.8046 176.922 72.8257 176.902 72.8468C176.892 72.8678 176.877 72.894 176.857 72.9255C176.848 72.9569 176.838 72.9935 176.829 73.0353C176.83 73.0769 176.831 73.1186 176.832 73.1602C176.834 73.2123 176.835 73.2592 176.836 73.3008C176.847 73.3319 176.858 73.363 176.87 73.3941C176.891 73.4251 176.908 73.4561 176.919 73.4872C176.94 73.5077 176.956 73.5284 176.967 73.549C176.988 73.5592 177.01 73.5745 177.031 73.5951C177.063 73.605 177.084 73.6152 177.094 73.6254C177.105 73.6357 177.121 73.6459 177.142 73.656C177.163 73.6662 177.174 73.6712 177.174 73.6712C177.819 74.0583 178.517 74.8405 179.266 76.0179C180.449 77.8456 181.365 79.0051 182.013 79.4963C182.714 80.0076 183.502 80.2574 184.377 80.2455L184.908 80.2227C184.96 80.222 185.002 80.2214 185.033 80.221C185.044 80.2521 185.05 80.2832 185.051 80.3145C185.058 80.5956 184.884 80.9157 184.529 81.2747C184.163 81.6338 183.517 81.8197 182.59 81.8323C181.902 81.8416 181.238 81.5277 180.596 80.8905C179.922 80.2018 179.142 79.0717 178.258 77.5003C177.722 76.5284 177.218 75.7853 176.746 75.2708C176.231 74.7049 175.662 74.4261 175.037 74.4346C174.891 74.4366 174.514 74.5563 173.905 74.7937C173.647 74.891 173.446 74.9718 173.302 75.0363C173.168 75.0902 173.029 75.1754 172.886 75.2919C172.754 75.4083 172.658 75.5398 172.6 75.6865C172.512 75.9376 172.47 76.7195 172.473 78.032C172.464 79.2925 172.47 80.3081 172.49 81.0787C172.497 81.3598 172.368 81.622 172.104 81.8652C171.818 82.1086 171.509 82.2326 171.175 82.2371C170.853 82.2415 170.6 82.1564 170.419 81.9818C170.237 81.7967 170.143 81.6157 170.139 81.4387C170.129 81.0742 170.247 80.1716 170.491 78.7307C170.921 76.0374 171.306 71.6154 171.647 65.4648C171.666 64.9854 171.837 64.5508 172.16 64.161C172.463 63.7923 172.797 63.6055 173.161 63.6005C173.286 63.5988 173.403 63.6806 173.512 63.8458C173.653 64.073 173.729 64.3793 173.739 64.7646C173.747 65.0978 173.705 65.4786 173.612 65.9069C173.065 68.1019 172.747 70.3354 172.661 72.6075L172.642 73.1077ZM197.699 76.2366C197.59 76.0505 197.476 75.8698 197.356 75.6943C197.204 75.4568 197.031 75.2144 196.837 74.967C196.664 74.7297 196.259 74.3498 195.62 73.8272C195.055 73.3453 194.684 73.0743 194.505 73.0142C194.357 72.9537 194.081 72.947 193.676 72.9942C193.229 73.0419 192.836 73.141 192.496 73.2915C192.114 73.4425 191.821 73.5923 191.617 73.7409C191.422 73.879 191.244 74.0272 191.081 74.1857C190.938 74.2918 190.741 74.5393 190.491 74.9281C190.22 75.3172 190.055 75.5955 189.997 75.7629C189.939 75.9512 189.883 76.1968 189.828 76.4996C189.795 76.8021 189.79 77.0366 189.815 77.2029C189.82 77.3695 189.89 77.6498 190.025 78.0438C190.159 78.4066 190.296 78.6704 190.436 78.8351C190.608 79.0411 190.773 79.1847 190.932 79.2659C191.08 79.3681 191.239 79.4701 191.408 79.572C191.588 79.6633 191.872 79.7688 192.261 79.8885C192.607 79.988 192.905 80.0412 193.156 80.0483C193.437 80.0444 193.67 80.0048 193.856 79.9294C194.063 79.8849 194.275 79.8091 194.491 79.702C194.717 79.5948 194.948 79.4666 195.184 79.3176C195.368 79.1901 195.714 78.8625 196.221 78.3348C196.697 77.797 196.985 77.4546 197.086 77.3074C197.185 77.1394 197.275 76.9767 197.354 76.8194C197.465 76.672 197.58 76.4778 197.699 76.2366ZM199.221 77.0753C199.081 77.3168 198.972 77.511 198.892 77.6579C198.813 77.8256 198.698 78.0199 198.548 78.2407C198.408 78.4822 198.055 78.9141 197.487 79.5364C196.91 80.1588 196.462 80.5711 196.144 80.7734C195.847 80.9649 195.544 81.1305 195.235 81.2701C194.937 81.42 194.643 81.5385 194.353 81.6258C194.032 81.7135 193.659 81.7602 193.231 81.766C192.784 81.7929 192.292 81.7162 191.756 81.536C191.263 81.3969 190.89 81.2561 190.636 81.1137C190.393 80.9816 190.149 80.8286 189.905 80.6549C189.661 80.4915 189.41 80.2501 189.152 79.9307C188.841 79.5912 188.595 79.1466 188.414 78.5969C188.233 78.0681 188.123 77.6425 188.084 77.3202C188.055 77.0185 188.072 76.6588 188.134 76.2413C188.207 75.8341 188.291 75.4788 188.387 75.1754C188.484 74.872 188.697 74.4628 189.028 73.9479C189.359 73.4538 189.657 73.0904 189.921 72.8577C190.156 72.667 190.407 72.4865 190.673 72.3162C190.95 72.1354 191.309 71.9326 191.752 71.7078C192.256 71.4926 192.831 71.3442 193.475 71.2625C194.129 71.1912 194.662 71.2308 195.072 71.3815C195.44 71.5015 196.018 71.8947 196.806 72.5611C196.671 72.1567 196.563 71.83 196.484 71.5811C196.349 71.2183 196.155 70.7626 195.901 70.214C195.627 69.6864 195.392 69.273 195.197 68.9735C195.002 68.6741 194.782 68.4219 194.537 68.2168C194.344 68.0319 193.979 67.8025 193.44 67.5286C192.902 67.2546 192.439 67.0786 192.051 67.0005C191.623 66.9439 191.278 66.9069 191.017 66.8896C190.757 66.8931 190.502 66.907 190.252 66.9312C190.044 66.9548 189.662 67.085 189.106 67.3218C188.704 67.4939 188.442 67.6381 188.32 67.7543L188.139 68.0068C188.019 68.1959 187.84 68.3181 187.601 68.3734C187.373 68.4182 187.153 68.3743 186.942 68.2418C186.74 68.0987 186.61 67.9129 186.552 67.6845C186.504 67.4456 186.556 67.2313 186.707 67.0418L186.888 66.7581C187.118 66.4112 187.62 66.0711 188.393 65.7377C189.114 65.4258 189.667 65.2464 190.051 65.1995C190.373 65.1743 190.701 65.1595 191.035 65.1549C191.379 65.1711 191.818 65.2172 192.351 65.2933C192.906 65.39 193.526 65.6159 194.213 65.9712C194.899 66.3265 195.403 66.6634 195.724 66.982C196.034 67.2798 196.334 67.6195 196.625 68.001C196.896 68.3827 197.174 68.879 197.461 69.4897C197.758 70.1002 197.975 70.6181 198.111 71.0434C198.246 71.4478 198.428 72.0235 198.656 72.7704C198.884 73.5173 199.048 74.0359 199.149 74.3262C199.261 74.6268 199.364 74.9483 199.456 75.2908C199.558 75.6228 199.632 75.8562 199.677 75.991L199.678 76.0222C199.786 76.1874 199.761 76.4221 199.602 76.7264L199.221 77.0753ZM202.883 68.838C202.943 68.733 203.002 68.602 203.06 68.4449C203.119 68.2879 203.167 68.1466 203.206 68.0211C203.244 67.906 203.304 67.775 203.383 67.6281C203.452 67.4813 203.528 67.3761 203.609 67.3125C203.701 67.2487 203.82 67.1898 203.964 67.1358C204.109 67.0922 204.271 67.1004 204.449 67.1605C204.653 67.3869 204.775 67.6508 204.814 67.9524C204.842 68.2541 204.831 68.6084 204.779 69.0154C204.727 69.4119 204.703 69.7039 204.708 69.8914C204.539 70.602 204.439 71.3898 204.41 72.2548C204.38 73.1198 204.394 73.8748 204.453 74.5199C204.511 75.165 204.605 75.9606 204.733 76.9068C205.231 77.6292 205.711 78.2477 206.173 78.7623C206.634 79.2873 207.151 79.7334 207.723 80.1006C208.591 79.8076 209.332 79.459 209.947 79.0548C210.561 78.6506 211.037 78.1233 211.375 77.4729C211.374 77.0562 211.395 76.6289 211.435 76.1908C211.476 75.7632 211.536 75.2519 211.614 74.6571C211.703 74.0621 211.76 73.6395 211.785 73.3892C211.836 72.951 211.853 72.4038 211.836 71.7478C211.829 71.0812 211.819 70.5084 211.807 70.0294C211.794 69.54 211.837 68.9977 211.937 68.4026C212.036 67.8075 212.204 67.2688 212.442 66.7864C212.495 66.8273 212.898 67.1187 213.652 67.6606C213.724 68.4305 213.786 69.414 213.838 70.6113C213.89 71.8085 213.932 72.834 213.965 73.6877C213.998 74.5519 214.101 75.5244 214.275 76.6054C214.449 77.6864 214.699 78.6726 215.024 79.5641C215.481 79.1099 216.066 78.5551 216.778 77.8996C217.295 78.1322 217.684 78.4707 217.945 78.915C218.207 79.3594 218.334 79.8473 218.327 80.3786C218.33 80.9098 218.271 81.4315 218.149 81.9436C217.989 82.5916 217.814 83.0783 217.624 83.4038C217.554 83.5194 217.439 83.7136 217.28 83.9866C217.13 84.2595 217.006 84.4747 216.906 84.6324C216.806 84.79 216.675 84.9844 216.515 85.2158C216.354 85.4471 216.197 85.6264 216.044 85.7534C215.88 85.8702 215.701 85.9821 215.506 86.0889C215.31 86.1853 215.093 86.2299 214.853 86.2227C214.623 86.2154 214.377 86.1563 214.114 86.0453C214.281 85.6888 214.56 85.1694 214.948 84.487C215.347 83.7941 215.669 83.1647 215.915 82.5989C216.171 82.0329 216.334 81.463 216.402 80.8891C215.708 81.0548 214.997 81.153 214.269 81.1837C214.054 80.9262 213.842 80.6166 213.635 80.2548C213.438 79.8929 213.29 79.6084 213.191 79.4014C213.102 79.1943 212.958 78.8473 212.758 78.3604C212.56 78.7589 212.36 79.1106 212.16 79.4154C211.959 79.7202 211.722 80.0255 211.449 80.3313C211.176 80.6371 210.864 80.8861 210.515 81.0784C210.166 81.2706 209.789 81.3955 209.384 81.4531C208.773 81.6072 208.169 81.6102 207.571 81.4621C206.974 81.3243 206.43 81.0661 205.941 80.6873C205.452 80.3085 205.014 79.8926 204.627 79.4395C203.832 78.5023 203.48 78.0019 203.572 77.9381C203.572 77.9381 203.555 77.8707 203.52 77.7357C203.507 77.6317 203.495 77.559 203.483 77.5175C203.244 76.729 203.005 75.9406 202.766 75.1522C202.788 74.4123 202.811 73.6724 202.833 72.9325C202.852 72.453 202.86 71.755 202.857 70.8384C202.864 69.9112 202.873 69.2444 202.883 68.838ZM231.926 72.0221L231.183 73.4854C230.076 75.8129 228.935 77.6149 227.76 78.8913C226.615 80.136 225.516 80.7655 224.464 80.7797C223.891 80.7875 223.277 80.4208 222.623 79.6797C221.957 78.9179 221.603 77.7144 221.56 76.0691C221.524 74.6737 221.793 72.5919 222.367 69.8237C222.849 67.5358 223.088 65.8971 223.083 64.9076C223.301 64.4776 223.64 64.2594 224.098 64.2532C224.41 64.249 224.663 64.3549 224.856 64.571C225.06 64.7975 225.165 65.0304 225.171 65.2699C225.189 65.9468 224.97 66.9393 224.514 68.2476C223.594 70.9268 223.158 73.2244 223.208 75.1404C223.259 77.1085 223.811 78.0854 224.863 78.0712C225.904 78.057 227.131 77.1393 228.542 75.3181C229.913 73.539 231.089 71.0803 232.071 67.942C232.456 66.7492 232.775 65.9793 233.027 65.6321C233.218 65.3691 233.48 65.2353 233.813 65.2308C234.053 65.2275 234.227 65.2981 234.334 65.4425C234.442 65.5764 234.501 65.8413 234.511 66.237C234.504 66.3621 234.42 66.7278 234.259 67.3342C233.687 69.7899 233.429 72.1059 233.485 74.2823C233.555 76.9793 234.044 78.7383 234.951 79.5593C235.079 79.6826 235.181 79.801 235.257 79.9146C235.343 80.0176 235.397 80.0949 235.419 80.1467C235.452 80.1984 235.468 80.2294 235.469 80.2398C235.472 80.3856 235.331 80.549 235.044 80.73C234.685 80.9536 234.37 81.0672 234.099 81.0709C233.547 81.0784 233.066 80.6005 232.655 79.6373C232.2 78.5602 231.944 76.9386 231.888 74.7727L231.874 74.226C231.87 74.0594 231.871 73.8875 231.876 73.7103L231.926 72.0221ZM249.893 71.7783L249.15 73.2416C248.043 75.5691 246.902 77.3711 245.727 78.6475C244.582 79.8922 243.483 80.5217 242.431 80.536C241.858 80.5437 241.244 80.1771 240.59 79.4359C239.924 78.6741 239.57 77.4706 239.527 75.8253C239.491 74.4299 239.76 72.3481 240.334 69.5799C240.816 67.2921 241.055 65.6534 241.05 64.6638C241.268 64.2338 241.607 64.0157 242.065 64.0094C242.377 64.0052 242.63 64.1111 242.823 64.3273C243.027 64.5537 243.132 64.7866 243.138 65.0261C243.156 65.703 242.937 66.6956 242.481 68.0039C241.561 70.683 241.125 72.9807 241.175 74.8967C241.226 76.8648 241.778 77.8417 242.83 77.8274C243.871 77.8133 245.098 76.8956 246.509 75.0743C247.88 73.2953 249.056 70.8366 250.038 67.6982C250.424 66.5054 250.742 65.7355 250.994 65.3883C251.185 65.1253 251.447 64.9915 251.78 64.987C252.02 64.9838 252.194 65.0543 252.302 65.1987C252.409 65.3327 252.468 65.5975 252.478 65.9932C252.471 66.1183 252.387 66.484 252.226 67.0904C251.654 69.5461 251.396 71.8621 251.452 74.0385C251.522 76.7355 252.011 78.4945 252.918 79.3156C253.046 79.4388 253.148 79.5572 253.224 79.6708C253.31 79.7738 253.364 79.8512 253.386 79.903C253.419 79.9546 253.435 79.9856 253.436 79.996C253.439 80.1418 253.298 80.3052 253.011 80.4862C252.652 80.7098 252.337 80.8235 252.066 80.8271C251.514 80.8346 251.033 80.3568 250.622 79.3936C250.167 78.3164 249.912 76.6948 249.855 74.5289L249.841 73.9822C249.837 73.8156 249.838 73.6437 249.843 73.4666L249.893 71.7783Z" fill="#242424"/>
</svg>
