<svg width="158" height="90" viewBox="0 0 158 90" fill="none" xmlns="http://www.w3.org/2000/svg">
<path d="M20.1279 17.4417C54.118 14.9438 137.189 24.8653 140.372 30.8602C144.352 38.3538 -13.5454 33.3863 24.5003 63.4025C45.4497 79.9306 81.3259 65.169 144 59.6737" stroke="#0CE9CA" stroke-width="28" stroke-linecap="round"/>
<path d="M43.8019 26.3621C44.1594 26.2558 44.5845 26.0772 45.0772 25.8265C45.5891 25.5537 45.9702 25.3467 46.2206 25.2054C46.4518 25.0862 46.8569 24.7837 47.4361 24.2979C47.9769 23.8562 48.4218 23.3894 48.7707 22.8974C49.1388 22.3833 49.3849 21.9814 49.509 21.6916C49.6539 21.4005 49.8302 20.7683 50.0379 19.7947C50.2647 18.7991 50.3843 18.1079 50.3965 17.7209C50.4279 17.3118 50.3903 16.6828 50.2836 15.8338C50.1561 14.9861 50.0178 14.2695 49.8686 13.6842C49.7002 13.1209 49.4255 12.4653 49.0445 11.7173C48.6635 10.9693 48.352 10.4465 48.1099 10.1489C47.879 9.86102 47.3535 9.40932 46.5334 8.79381C45.7557 8.18603 45.0199 7.78432 44.3259 7.58867C43.5784 7.37557 43.0268 7.26475 42.6709 7.25621C42.2831 7.23927 41.6262 7.32306 40.7001 7.50756C39.8156 7.6894 39.2478 7.84576 38.9967 7.97664C38.7063 8.14134 38.4124 8.32714 38.1148 8.53405C37.8052 8.72086 37.3112 9.15952 36.6327 9.85004C35.9727 10.5081 35.449 11.173 35.0616 11.8449C34.663 12.5071 34.3988 13.0145 34.2691 13.3673C34.1481 13.6986 34.0202 14.3486 33.8853 15.3175C33.7712 16.285 33.7229 16.9509 33.7403 17.315C33.7712 17.7201 33.892 18.3438 34.1026 19.1862C34.3117 20.0078 34.5456 20.6765 34.8043 21.1922C35.0527 21.7086 35.4086 22.2651 35.8721 22.8617C36.3659 23.4459 36.7483 23.8702 37.0192 24.1347C37.2781 24.379 37.7957 24.7269 38.5719 25.1782C39.3592 25.6392 39.8864 25.9082 40.1535 25.985C40.4421 26.0709 40.8562 26.1592 41.3959 26.2499C41.894 26.3433 42.3354 26.3777 42.72 26.3531L43.4217 26.3082C43.5472 26.3106 43.674 26.3286 43.8019 26.3621ZM39.7003 27.6422C39.2838 27.5227 38.6167 27.2001 37.699 26.6744C36.8014 26.1369 36.1783 25.7071 35.8299 25.385C35.5022 25.0615 35.0727 24.5671 34.5413 23.9018C33.9972 23.206 33.571 22.5497 33.2627 21.9327C32.9528 21.295 32.6786 20.5089 32.44 19.5744C32.223 18.6489 32.0855 17.9428 32.0274 17.456C31.9693 16.9691 32.0133 16.1783 32.1595 15.0835C32.316 13.988 32.4712 13.2162 32.625 12.768C32.8004 12.3288 33.115 11.7294 33.5688 10.9698C34.0322 10.1991 34.6511 9.41323 35.4256 8.61219C36.1825 7.85404 36.7497 7.34807 37.1273 7.09429C37.4752 6.86328 37.8244 6.64785 38.1747 6.448C38.5659 6.23511 39.2857 6.01684 40.3341 5.79319C41.3641 5.60204 42.151 5.50994 42.6947 5.51689C43.2073 5.52585 43.902 5.66404 44.7791 5.93147C45.6977 6.19625 46.6342 6.69471 47.5885 7.42687C48.4996 8.14092 49.1218 8.69603 49.455 9.09219C49.7667 9.4793 50.1377 10.0974 50.5682 10.9466C51.0092 11.7951 51.3294 12.5679 51.5289 13.2648C51.706 13.9423 51.8551 14.7312 51.9761 15.6315C52.1115 16.5831 52.1671 17.3101 52.1428 17.8127C52.1193 18.3256 51.9869 19.1221 51.7456 20.2021C51.5043 21.2821 51.2796 22.0323 51.0714 22.4527C50.8929 22.8503 50.6004 23.3283 50.1939 23.8866C49.7505 24.5099 49.1944 25.0934 48.5257 25.6372C47.8769 26.1692 47.4021 26.5179 47.1013 26.6833C46.8318 26.8467 46.421 27.0765 45.8691 27.3727C45.2964 27.6703 44.7906 27.8853 44.3515 28.0178C43.9124 28.1503 43.439 28.2432 42.9312 28.2965C42.4234 28.3499 42.0596 28.3732 41.8397 28.3664C41.599 28.3609 41.2384 28.2901 40.7579 28.1538L40.1331 27.9746C39.9613 27.9125 39.817 27.8017 39.7003 27.6422ZM55.2792 11.6941C55.3984 11.4777 55.5652 11.3366 55.7796 11.2707C56.0043 11.2041 56.221 11.2372 56.4296 11.37C56.6478 11.4917 56.7857 11.6551 56.8431 11.8602L56.9688 12.2748C57.0558 12.5928 57.1192 12.8758 57.1591 13.1237C57.1981 13.3613 57.2638 13.879 57.3561 14.6767C57.4164 15.4661 57.4636 16.0841 57.4978 16.5307C57.516 16.7696 57.5355 17.024 57.5561 17.2941C57.5897 17.1876 57.6242 17.0914 57.6594 17.0057C57.9518 16.0476 58.2649 15.2918 58.5986 14.7381C58.9636 14.1825 59.2469 13.7886 59.4485 13.5565C59.7109 13.2997 60.1089 13.0394 60.6424 12.7756C61.1567 12.534 61.5478 12.3889 61.8157 12.3404C62.0236 12.3271 62.2367 12.3135 62.455 12.2995C62.7373 12.3024 63.1222 12.4186 63.6098 12.6484C64.1199 12.8975 64.5562 13.2766 64.919 13.7857C65.2338 14.2144 65.5636 14.9082 65.9085 15.8673C66.259 16.7633 66.5041 17.4417 66.6438 17.9024C66.7627 18.3645 66.9678 19.0663 67.2591 20.0079C67.5208 20.9722 67.7283 21.7731 67.8814 22.4104C68.0114 23.0178 68.1314 23.6312 68.2414 24.2504C68.361 24.8585 68.4387 25.2606 68.4746 25.4566C68.4873 25.6228 68.512 25.8091 68.5487 26.0155L68.5737 26.3426C68.6127 26.5802 68.5554 26.7874 68.4018 26.9642C68.2586 27.1404 68.0678 27.2413 67.8295 27.267C67.6016 27.292 67.3877 27.2274 67.1879 27.0732C66.9993 26.9287 66.8858 26.7429 66.8476 26.5157L66.8262 26.2353C66.7895 26.0289 66.7644 25.8374 66.7509 25.6608C66.7174 25.496 66.6569 25.1137 66.5693 24.5139C66.4632 23.9467 66.3456 23.3645 66.2164 22.7674C66.0656 22.1612 65.8558 21.3971 65.5868 20.475C65.3059 19.5327 65.1068 18.841 64.9895 18.3997C64.8514 17.9597 64.6191 17.3118 64.2925 16.456C63.99 15.6404 63.732 15.0672 63.5187 14.7364C63.3325 14.4874 63.1263 14.3179 62.9001 14.228C62.7034 14.1154 62.5471 14.0523 62.4312 14.0389C62.3273 14.0455 62.2129 14.0528 62.0882 14.0608C61.9858 14.0882 61.7583 14.1863 61.4055 14.355C61.0512 14.5029 60.8264 14.6373 60.7312 14.7582C60.5952 14.8922 60.3831 15.1927 60.095 15.66C59.8037 16.0857 59.5375 16.7028 59.2963 17.5115C59.0376 18.363 58.8905 18.9674 58.8551 19.3245C58.7997 19.6933 58.7726 20.2952 58.7737 21.1301C58.7556 21.9871 58.7684 22.7012 58.8121 23.2725C58.8557 23.8437 58.8795 24.291 58.8833 24.6143C58.9111 24.9779 58.9149 25.3012 58.8947 25.5843C58.8979 25.6258 58.9019 25.6777 58.9066 25.7401C58.9114 25.8024 58.8937 25.9131 58.8537 26.0722C58.8232 26.2203 58.7692 26.3333 58.6915 26.4114C58.6139 26.4894 58.4888 26.56 58.316 26.6233C58.1536 26.6858 57.9422 26.6524 57.6816 26.523C57.5521 26.4686 57.4377 26.4081 57.3386 26.3414C57.2499 26.274 57.1876 26.2101 57.1516 26.1498C57.1149 26.0791 57.0889 26.0129 57.0738 25.9513C57.0586 25.8896 57.0495 25.838 57.0463 25.7965L57.0415 25.7341C56.9322 25.3967 56.8444 25.0683 56.7782 24.749C56.712 24.4297 56.6128 23.8829 56.4805 23.1086C56.3354 22.3038 56.2215 21.5648 56.1387 20.8917C56.0551 20.2082 55.98 19.4302 55.9134 18.5577C55.8499 17.7268 55.801 17.088 55.7669 16.6414C55.7328 16.1948 55.6856 15.5768 55.6252 14.7875C55.5457 14.0202 55.4884 13.5438 55.4533 13.3581C55.4406 13.192 55.3932 12.981 55.311 12.7254L55.2176 12.3243C55.1394 12.1205 55.1599 11.9105 55.2792 11.6941ZM70.3306 9.96388C70.3131 9.73538 70.3168 9.51074 70.3417 9.28997C70.377 9.06853 70.4387 8.85062 70.5268 8.63624C70.6149 8.42186 70.7541 8.26161 70.9445 8.15549C71.1453 8.04871 71.3836 8.02303 71.6594 8.07844C71.747 8.67819 71.8228 9.67009 71.8868 11.0541C71.9604 12.4271 72.0306 13.4142 72.0974 14.0153C72.2333 14.1527 72.4374 14.364 72.7099 14.6493C73.1299 14.4032 73.803 14.0522 74.7292 13.5964C76.6037 13.2468 78.105 13.1403 79.2332 13.2768C79.6944 13.5709 80.0241 13.7846 80.2224 13.9181C80.4206 14.0515 80.7027 14.2578 81.0688 14.5371C81.4341 14.806 81.737 15.0788 81.9775 15.3557C82.2172 15.6221 82.4274 15.9114 82.6079 16.2234C82.7229 16.4978 82.8091 16.8054 82.8665 17.1462C82.9231 17.4765 82.9501 17.7618 82.9475 18.0021C82.9546 18.2312 82.9536 18.5601 82.9446 18.9886C82.9451 19.406 82.9466 19.6982 82.9489 19.865C82.3966 20.8397 81.6385 21.6501 80.6746 22.2963C79.7099 22.932 78.6941 23.378 77.6273 23.6341C76.5596 23.8799 75.4449 23.9877 74.2831 23.9577C73.9337 23.8966 73.6175 23.7916 73.3345 23.6427C73.0515 23.4938 72.807 23.3007 72.6008 23.0634C72.3938 22.8157 72.2129 22.5663 72.0579 22.3153C71.9133 22.0637 71.7807 21.7642 71.6602 21.4171C71.5396 21.0699 71.4431 20.763 71.3705 20.4963C71.2978 20.2296 71.2221 19.9213 71.1431 19.5715C70.638 16.243 70.3672 13.0405 70.3306 9.96388ZM72.6547 16.7976C72.7576 18.6906 72.8764 20.1077 73.011 21.0489C73.1205 21.1149 73.2879 21.2555 73.5133 21.4707C73.7379 21.6755 73.9485 21.8343 74.1451 21.9469C74.3417 22.0596 74.5544 22.1086 74.7831 22.094C75.4732 22.102 76.1429 22.0487 76.7922 21.9341C77.4512 21.8085 78.0946 21.6159 78.7224 21.3566C79.3607 21.0966 79.9066 20.7224 80.3603 20.2342C80.8236 19.7348 81.139 19.1458 81.3065 18.4671C81.2548 17.9277 81.2138 17.5285 81.1836 17.2695C81.1357 17.1891 81.0398 17.0282 80.896 16.7869C80.7514 16.5353 80.6552 16.3692 80.6072 16.2888C80.0854 15.7481 79.4607 15.3654 78.7332 15.1406C78.0161 14.9151 77.2952 14.8464 76.5707 14.9345C75.8454 15.0122 75.1349 15.2143 74.439 15.5406C73.7536 15.8663 73.1588 16.2853 72.6547 16.7976ZM84.9303 7.24492C85.0263 7.27009 85.1494 7.30918 85.2997 7.36219C85.4596 7.40414 85.6307 7.45582 85.8129 7.51721C86.0048 7.56756 86.1379 7.60079 86.2123 7.61691C86.5665 9.10763 86.8466 10.7231 87.0527 12.4634C87.258 14.1933 87.3895 15.7765 87.447 17.2132C87.5038 18.6394 87.5348 20.2761 87.5402 22.1231C87.2723 22.1716 86.6505 22.3053 85.6749 22.5243C85.6098 21.6726 85.5823 20.8341 85.5923 20.009C85.7488 19.0492 85.8142 17.9908 85.7884 16.834C85.7627 15.6771 85.6762 14.6128 85.5288 13.6411C85.3918 12.6688 85.2637 11.6072 85.1444 10.4563C85.0243 9.29503 84.953 8.22457 84.9303 7.24492ZM89.8959 9.47907C89.9944 9.26403 90.1504 9.11836 90.3639 9.04208C90.5878 8.96512 90.8081 8.97712 91.0248 9.07807C91.2518 9.17835 91.4048 9.33555 91.4839 9.54968L91.6431 9.9935C91.7765 10.3711 91.8418 10.8158 91.8391 11.3274C91.8508 11.7545 91.8908 12.4147 91.9591 13.308C92.005 14.1817 92.0398 14.7744 92.0636 15.086C92.109 15.4067 92.156 15.7481 92.2046 16.1103C92.2141 16.2349 92.2368 16.3952 92.2727 16.5913C92.3376 16.3471 92.4149 16.0603 92.5047 15.731C92.7218 14.8821 92.9737 14.1459 93.2604 13.5222C93.5574 12.8978 93.8051 12.4488 94.0036 12.1752C94.1708 11.9035 94.4613 11.5353 94.875 11.0705C95.3263 10.5511 95.7551 10.1479 96.1615 9.86094C96.5662 9.55324 96.9674 9.33448 97.3649 9.20468C97.7815 9.05277 98.1518 8.97689 98.4757 8.97704C98.8203 8.97586 99.1869 9.05678 99.5754 9.21979C99.9535 9.38346 100.235 9.57942 100.419 9.80766C100.581 10.0061 100.816 10.419 101.125 11.0463C101.378 11.625 101.554 12.0834 101.653 12.4215C101.742 12.7603 101.862 13.2431 102.015 13.87C102.075 14.1062 102.138 14.3266 102.206 14.531C102.303 14.1595 102.489 13.657 102.765 13.0236C103.073 12.2732 103.311 11.7623 103.478 11.4906C103.645 11.2086 103.876 10.8807 104.171 10.507C104.505 10.0994 104.801 9.79867 105.058 9.60481C105.323 9.37912 105.643 9.20204 106.02 9.07356C106.52 8.91633 107.045 8.95578 107.596 9.1919C108.125 9.41896 108.549 9.7676 108.867 10.2378C109.085 10.6309 109.252 10.9699 109.368 11.2547C109.451 11.5311 109.587 12.0704 109.773 12.8726C109.982 13.6942 110.117 14.2961 110.178 14.6784C110.248 15.0497 110.353 15.6066 110.493 16.3491C110.613 17.0929 110.713 17.7179 110.793 18.2242C110.874 18.7305 110.933 19.2381 110.972 19.747C111.03 20.2338 111.084 20.6584 111.132 21.0205C111.181 21.3827 111.222 21.6463 111.255 21.8111L111.307 22.074C111.346 22.3115 111.299 22.5232 111.167 22.7091C111.035 22.895 110.851 23.006 110.613 23.0421C110.386 23.0775 110.173 23.0285 109.975 22.895C109.786 22.7505 109.663 22.5654 109.604 22.3395L109.586 22.1058C109.551 21.9202 109.498 21.6366 109.427 21.2549C109.376 20.872 109.316 20.4166 109.244 19.8889C109.207 19.4008 109.148 18.9139 109.07 18.4284C108.991 17.9429 108.893 17.3439 108.776 16.6312C108.658 15.9081 108.563 15.3558 108.492 14.9741C108.423 14.6133 108.29 14.0425 108.095 13.2618C107.91 12.4804 107.778 11.9878 107.7 11.7841C107.646 11.6206 107.546 11.4026 107.399 11.1301C107.303 10.9693 107.153 10.8484 106.949 10.7676C106.797 10.6938 106.69 10.6693 106.63 10.6941C106.446 10.7476 106.29 10.8306 106.163 10.9431C105.985 11.0797 105.777 11.2966 105.539 11.5936C105.26 11.9141 105.061 12.1825 104.942 12.3989C104.822 12.6049 104.621 13.0457 104.338 13.7213C104.055 14.3866 103.882 14.8569 103.819 15.1323C103.759 15.4388 103.679 15.8979 103.58 16.5096C103.49 17.1103 103.427 17.7301 103.393 18.369C103.344 19.1027 103.315 19.5429 103.306 19.6896C103.282 19.9312 103.238 20.2367 103.172 20.6062C103.117 20.9751 103.074 21.2439 103.046 21.4128C103.025 21.4141 103.005 21.4258 102.986 21.4479C102.966 21.47 102.922 21.499 102.851 21.5348C102.781 21.5706 102.705 21.6067 102.624 21.6432C102.554 21.679 102.468 21.7159 102.367 21.7537C102.265 21.7915 102.168 21.8186 102.075 21.8349C101.993 21.8506 101.91 21.8612 101.827 21.8665C101.744 21.8718 101.664 21.8612 101.589 21.8347C101.514 21.8082 101.448 21.7655 101.391 21.7065C101.345 21.6468 101.318 21.5651 101.31 21.4612C101.297 21.295 101.285 21.2071 101.274 21.1973C101.262 21.1772 101.265 21.1457 101.283 21.1029C101.3 21.06 101.321 20.996 101.346 20.9109C101.374 20.7213 101.388 20.496 101.389 20.235C101.388 19.9532 101.37 19.5787 101.334 19.1113C101.278 18.6452 101.196 18.1286 101.09 17.5613C100.962 16.9746 100.841 16.4239 100.729 15.9093C100.629 15.4251 100.504 14.8747 100.352 14.2582C100.2 13.6313 100.077 13.1851 99.9835 12.9197C99.9221 12.6627 99.7776 12.2754 99.55 11.7576C99.3719 11.3411 99.2313 11.0735 99.1282 10.9549C99.0835 10.916 98.9951 10.8538 98.8633 10.7683C98.7337 10.714 98.6118 10.6905 98.4975 10.6978C98.3919 10.6837 98.228 10.7255 98.0056 10.8232C97.7297 10.9035 97.4486 11.0519 97.1622 11.2685C96.875 11.4748 96.559 11.782 96.2141 12.1903C95.8189 12.6226 95.5568 12.9525 95.4279 13.1799C95.2951 13.3554 95.103 13.7121 94.8516 14.2501C94.6002 14.788 94.3731 15.4392 94.1704 16.2037C93.9485 16.9902 93.8134 17.5468 93.7652 17.8735C93.7243 18.1579 93.6652 18.6835 93.588 19.4504C93.5428 20.2256 93.5161 20.7648 93.5079 21.068C93.499 21.3609 93.502 21.7416 93.5169 22.2103C93.5318 22.6791 93.5468 23.0121 93.5619 23.2094C93.5651 23.251 93.5738 23.2974 93.5882 23.3486C93.6026 23.3999 93.6261 23.5028 93.6588 23.6572C93.6907 23.8013 93.6678 23.9124 93.5902 23.9904C93.523 24.0678 93.4194 24.1475 93.2794 24.2295C93.1395 24.3115 92.9052 24.3213 92.5766 24.2588C92.144 24.203 91.8642 24.0956 91.7372 23.9368C91.6093 23.7675 91.5926 23.6172 91.687 23.486L91.7975 23.291C91.7569 23.0327 91.719 22.8107 91.6839 22.6251C91.6473 22.4187 91.5747 22.0163 91.4663 21.4179C91.3579 20.8194 91.2654 20.3609 91.1888 20.0423C91.1219 19.7126 91.0023 19.1044 90.83 18.2178C90.6578 17.3313 90.5466 16.6965 90.4965 16.3135C90.4479 15.9513 90.4001 15.5995 90.3532 15.2581C90.327 14.9153 90.2897 14.2915 90.2415 13.3866C90.1716 12.4726 90.1296 11.7864 90.1155 11.3281C90.1117 11.0047 90.0811 10.7406 90.0236 10.5355L89.8679 10.1384C89.7873 9.90351 89.7966 9.68373 89.8959 9.47907ZM22.1533 49.822L22.3618 50.0905C22.4545 50.2098 22.6791 50.3467 23.0357 50.5014C23.4386 50.7156 24.023 50.9131 24.7889 51.0937C25.5364 51.3068 26.0629 51.4297 26.3683 51.4623C26.6842 51.4943 27.1703 51.4997 27.8268 51.4786C28.4209 51.4614 29.0439 51.3433 29.6957 51.1241C30.3675 50.8933 30.7826 50.7206 30.941 50.6061C31.0994 50.4916 31.3535 50.1935 31.7032 49.7119C32.0329 49.242 32.249 48.7898 32.3516 48.3553C32.4407 47.88 32.4757 47.5176 32.4566 47.2684C32.4384 47.0295 32.2428 46.4523 31.8699 45.5368C31.473 44.5811 31.1935 43.9989 31.0313 43.7901C30.8451 43.541 30.5222 43.2121 30.0627 42.8031C29.6039 42.4045 29.1947 42.1072 28.835 41.911C28.4969 41.7239 28.0835 41.5781 27.595 41.4737C27.1057 41.3589 26.7571 41.3081 26.5492 41.3214C26.3517 41.3341 25.9442 41.4697 25.3268 41.7284C24.7501 41.9741 24.2738 42.302 23.8977 42.7123C23.4801 43.1252 23.2032 43.4664 23.0671 43.7361C22.9222 44.0271 22.7328 44.6237 22.4988 45.5259C22.2448 46.4397 22.1084 47.1164 22.0898 47.556C22.0704 47.9851 22.0915 48.7405 22.1533 49.822ZM22.2923 52.0519C22.3122 52.3115 22.3389 52.5238 22.3723 52.6886C22.432 53.1962 22.5376 53.894 22.689 54.7819C22.8452 55.7321 23.0018 56.6197 23.1589 57.4446C23.3055 58.2702 23.4007 58.833 23.4446 59.1328C23.4868 59.4119 23.5357 59.7793 23.5915 60.235C23.6464 60.6803 23.6798 60.9808 23.6917 61.1366L23.7084 61.3547C23.7266 61.5936 23.6537 61.8018 23.4897 61.9793C23.3361 62.1561 23.1397 62.2522 22.9006 62.2675C22.6719 62.2821 22.4681 62.2117 22.289 62.0561C22.11 61.9006 22.0114 61.7034 21.9931 61.4645L21.9765 61.2464C21.9669 61.1217 21.9351 60.842 21.881 60.4071C21.8276 59.9826 21.7751 59.6363 21.7232 59.3682C21.681 59.0891 21.5866 58.5368 21.4399 57.7112C21.2917 56.8648 21.141 55.9873 20.988 55.0786C20.8319 54.1284 20.7231 53.3891 20.6619 52.8607C20.6117 52.4778 20.5581 51.9124 20.5009 51.1645C20.4779 50.8633 20.4521 50.5258 20.4235 50.1519C20.3675 48.8717 20.3504 47.9647 20.3723 47.431C20.3942 46.8973 20.5374 46.1054 20.8018 45.0552C21.0879 44.014 21.3314 43.3044 21.5323 42.9262C21.742 42.5266 22.1029 42.0547 22.615 41.5106C23.1463 40.9443 23.8266 40.4833 24.656 40.1275C25.4454 39.7952 26.0224 39.6226 26.3871 39.6097C26.7701 39.5643 27.291 39.6145 27.9498 39.7602C28.6086 39.9059 29.1886 40.1141 29.6899 40.3847C30.1599 40.6573 30.6594 41.0428 31.1885 41.5412C31.7367 42.0176 32.1271 42.4101 32.3596 42.7187C32.6457 43.0449 33.0143 43.7675 33.4655 44.8868C33.9382 46.015 34.1745 46.7827 34.1742 47.1898C34.2036 47.5741 34.1585 48.0779 34.039 48.7014C33.9043 49.3989 33.6057 50.0703 33.1431 50.7157C32.679 51.3403 32.2837 51.7726 31.9573 52.0127C31.6702 52.2189 31.1095 52.4688 30.2753 52.7622C29.4596 53.0232 28.6559 53.1685 27.8642 53.1983C27.135 53.2241 26.5752 53.2129 26.185 53.1648C25.8053 53.1161 25.1992 52.9774 24.367 52.7489C23.5147 52.5321 22.8231 52.2997 22.2923 52.0519ZM48.605 48.4112C48.4868 48.2309 48.3637 48.0561 48.2359 47.8869C48.0721 47.6573 47.8871 47.4239 47.681 47.1866C47.4964 46.9583 47.072 46.5993 46.4078 46.1095C45.8195 45.6566 45.4347 45.4047 45.2532 45.3536C45.1029 45.3006 44.8266 45.3079 44.4244 45.3754C43.9805 45.4455 43.5927 45.5643 43.2607 45.7316C42.8872 45.9017 42.602 46.066 42.4052 46.2247C42.218 46.3724 42.0472 46.5294 41.8928 46.6959C41.7552 46.8091 41.5712 47.0661 41.3406 47.467C41.0893 47.8693 40.9388 48.1555 40.8892 48.3257C40.8411 48.5166 40.7974 48.7647 40.758 49.0699C40.7394 49.3738 40.7469 49.6081 40.7804 49.773C40.7931 49.9392 40.8769 50.2156 41.0318 50.6023C41.1843 50.9578 41.3345 51.2144 41.4824 51.3719C41.6646 51.569 41.8368 51.7041 41.9991 51.7772C42.1525 51.8718 42.3164 51.9656 42.4907 52.0589C42.6745 52.141 42.9636 52.2321 43.3577 52.3322C43.7087 52.4141 44.0093 52.4522 44.2596 52.4467C44.5403 52.4287 44.7714 52.3774 44.953 52.2927C45.1577 52.2379 45.3652 52.1515 45.5756 52.0337C45.7964 51.9152 46.0207 51.7756 46.2487 51.6149C46.4263 51.4783 46.7552 51.1337 47.2352 50.5811C47.6834 50.0201 47.9538 49.6636 48.0467 49.5115C48.1379 49.3387 48.2192 49.1717 48.2904 49.0106C48.3937 48.8579 48.4985 48.6581 48.605 48.4112ZM50.1675 49.1723C50.0402 49.4205 49.9405 49.62 49.8685 49.7707C49.798 49.9422 49.6931 50.142 49.5539 50.3701C49.4266 50.6183 49.0953 51.0674 48.56 51.7175C48.0143 52.3682 47.5878 52.8025 47.2806 53.0205C46.9935 53.2267 46.6991 53.4073 46.3976 53.5623C46.1072 53.727 45.8197 53.8602 45.5349 53.9619C45.219 54.0657 44.848 54.1311 44.4218 54.1584C43.9763 54.2078 43.4814 54.156 42.937 54.0029C42.4373 53.8888 42.0571 53.767 41.7965 53.6375C41.5471 53.5178 41.2961 53.3773 41.0435 53.2161C40.7917 53.0652 40.5288 52.8367 40.2547 52.5307C39.927 52.2072 39.659 51.7756 39.4506 51.2358C39.2438 50.7167 39.1125 50.2972 39.0567 49.9772C39.0129 49.6773 39.0115 49.3173 39.0525 48.8972C39.1047 48.4868 39.1713 48.1277 39.2522 47.8198C39.3332 47.512 39.5257 47.0926 39.8299 46.5617C40.1356 46.0516 40.4149 45.6737 40.6677 45.4279C40.8925 45.2256 41.1337 45.0328 41.3913 44.8493C41.6585 44.6548 42.0073 44.4341 42.4376 44.1874C42.9311 43.9471 43.4973 43.77 44.1363 43.656C44.7864 43.5518 45.3202 43.5646 45.7375 43.6945C46.1109 43.7958 46.708 44.1594 47.5288 44.7853C47.3731 44.3882 47.2494 44.0674 47.1575 43.8228C47.005 43.4672 46.7882 43.0219 46.507 42.4867C46.2066 41.9736 45.9514 41.5725 45.7413 41.2832C45.5311 40.994 45.2986 40.7532 45.0436 40.5607C44.8422 40.3858 44.4657 40.175 43.9141 39.9285C43.3625 39.682 42.8912 39.5295 42.5002 39.471C42.0693 39.436 41.7231 39.4164 41.4616 39.4122C41.2017 39.4289 40.9478 39.4555 40.6999 39.4923C40.4936 39.5264 40.1185 39.6756 39.5746 39.94C39.1819 40.1322 38.9275 40.2893 38.8115 40.4116L38.6434 40.6728C38.5329 40.8677 38.3602 40.9988 38.125 41.0661C37.8995 41.1222 37.6776 41.0895 37.4594 40.9678C37.2508 40.835 37.1117 40.656 37.0423 40.4308C36.9825 40.1946 37.0234 39.978 37.165 39.7811L37.3307 39.4887C37.5436 39.1306 38.0276 38.7657 38.7826 38.3938C39.4873 38.0461 40.0304 37.8391 40.4118 37.7729C40.7325 37.7315 41.0591 37.7002 41.3918 37.6789C41.7364 37.6777 42.177 37.7017 42.7135 37.7509C43.2724 37.8195 43.9036 38.014 44.6071 38.3342C45.3106 38.6545 45.8305 38.9657 46.167 39.2677C46.4915 39.5496 46.8088 39.8737 47.1188 40.2401C47.4081 40.6077 47.7112 41.0893 48.0283 41.6848C48.3558 42.2797 48.5982 42.786 48.7555 43.2039C48.9112 43.601 49.1216 44.1668 49.3867 44.9013C49.6517 45.6358 49.8421 46.1455 49.9579 46.4303C50.0849 46.7249 50.203 47.0409 50.3124 47.3783C50.4314 47.7047 50.5168 47.934 50.5687 48.0664L50.5711 48.0976C50.6877 48.2571 50.6744 48.4928 50.5311 48.8046L50.1675 49.1723ZM56.1322 32.2895C56.7768 32.1125 57.8879 32.0258 59.4656 32.0292C61.0424 32.0222 62.1559 31.9667 62.8061 31.8624C63.0148 31.8595 63.2619 31.8124 63.5474 31.7211C63.8321 31.6193 64.0757 31.5255 64.278 31.4395C64.49 31.3424 64.7227 31.3119 64.9761 31.3478C65.2392 31.3728 65.4726 31.4883 65.6764 31.6944C65.6474 32.1346 65.6179 32.5697 65.5881 32.9995C64.9307 33.1459 64.1874 33.2613 63.3582 33.3457C62.5289 33.4301 61.776 33.4887 61.0995 33.5215C60.4334 33.5537 59.6858 33.612 58.8565 33.6964C59.4487 34.2012 60.0234 34.7489 60.5804 35.3395C61.1477 35.9294 61.7159 36.5976 62.2848 37.344C62.8641 38.0897 63.3295 38.7123 63.6811 39.2116C64.0422 39.6999 64.5336 40.3887 65.1552 41.2778C65.8375 42.2778 66.3804 43.6417 66.7841 45.3693C67.5365 46.8763 67.2287 48.7277 65.8609 50.9235C65.339 52.0215 64.5932 52.9251 63.6237 53.6342C62.6541 54.3434 61.6061 54.6401 60.4795 54.5243C59.7503 54.4144 59.0431 54.183 58.3581 53.8303C57.6842 53.4872 57.0771 53.0616 56.5369 52.5534C55.9966 52.0453 55.5188 51.4653 55.1034 50.8134C54.6879 50.1616 54.3697 49.4827 54.1486 48.7767C53.9275 48.0707 53.8092 47.3424 53.7936 46.5919C53.7772 45.8311 53.8836 45.1041 54.1127 44.411C54.6523 43.2701 55.3793 42.2582 56.2938 41.3751C57.2074 40.4817 58.2369 39.8052 59.3822 39.3458C60.2605 38.9452 61.2093 38.7853 62.2288 38.8662C61.7483 38.5942 61.2899 38.2687 60.8536 37.8896C60.4276 37.5098 59.9365 37.0298 59.3803 36.4496C58.8233 35.859 58.4321 35.4561 58.2067 35.2409C58.0813 35.1028 57.8719 34.8918 57.5786 34.6079C57.2957 34.3233 57.0691 34.0926 56.8989 33.9156C56.7279 33.7282 56.5633 33.4883 56.4052 33.1957C56.2462 32.8928 56.1552 32.5907 56.1322 32.2895ZM55.42 46.5505C55.4876 47.2976 55.6747 48.0371 55.9813 48.769C56.2983 49.5002 56.7046 50.1683 57.2 50.7732C57.6946 51.3678 58.2904 51.8515 58.9875 52.2244C59.6941 52.5863 60.4341 52.7685 61.2073 52.7712C61.4856 52.7221 61.7555 52.6318 62.0171 52.5002C62.2794 52.3791 62.5098 52.2495 62.7082 52.1116C62.9066 51.9736 63.1118 51.7883 63.3238 51.5556C63.5462 51.3221 63.7239 51.1177 63.8567 50.9422C63.9999 50.766 64.1648 50.5311 64.3513 50.2374C64.5369 49.9332 64.6758 49.6999 64.7679 49.5375C64.8695 49.364 65.0072 49.1151 65.1809 48.7909C65.2457 48.6824 65.2917 48.6012 65.319 48.5472C65.3635 47.4902 65.1946 46.4417 64.8122 45.4015C64.4402 44.3608 63.9051 43.2365 63.2069 42.0287C63.0375 41.7264 62.7898 41.4918 62.4636 41.3248C62.1471 41.1467 61.7798 40.9876 61.3616 40.8473C60.9539 40.7064 60.6449 40.5592 60.4347 40.4057C59.9052 40.7213 59.4369 41.0175 59.0297 41.294C58.6321 41.5595 58.1934 41.9007 57.7133 42.3176C57.2429 42.7234 56.8509 43.1295 56.5372 43.5357C56.2331 43.9309 55.971 44.3965 55.7508 44.9324C55.5402 45.4573 55.4299 45.9967 55.42 46.5505ZM79.3377 50.9379C79.208 51.155 79.0141 51.2822 78.7558 51.3196L78.2615 51.4138C77.8401 51.5034 77.3023 51.5065 76.6483 51.4231C76.0062 51.3598 75.4094 51.2049 74.8578 50.9584C74.3494 50.73 73.9245 50.5015 73.5832 50.2729C73.2187 50.0144 72.7664 49.5632 72.2262 48.9194C71.6877 48.2963 71.3041 47.7885 71.0757 47.3961C70.856 46.9822 70.6533 46.2437 70.4676 45.1806C70.2635 44.1499 70.1748 43.3989 70.2014 42.9275C70.252 42.4963 70.3799 41.9141 70.585 41.1808C70.7998 40.4365 71.0384 39.8002 71.301 39.272C71.5732 38.7327 71.8385 38.3087 72.0969 37.9999C72.3754 37.6794 72.7954 37.2977 73.357 36.8547C73.9601 36.409 74.7032 36.0849 75.5861 35.8823C76.4482 35.681 77.0835 35.5882 77.4921 35.6038C77.8815 35.6415 78.4512 35.7825 79.2011 36.0267C79.931 36.2827 80.4714 36.5195 80.8223 36.7371C81.1828 36.9436 81.5668 37.253 81.9744 37.6653C82.382 38.0776 82.6828 38.4602 82.8769 38.8131C83.0934 39.1854 83.321 39.771 83.5596 40.5698C83.7862 41.3485 83.9142 42.0657 83.9434 42.7214C83.9902 43.3342 83.9987 43.8555 83.9689 44.2853C83.9598 44.7138 83.8643 45.3097 83.6824 46.0728C83.502 46.8567 83.285 47.502 83.0312 48.0088C82.7478 48.5383 82.3581 49.0434 81.8621 49.5239C81.3661 50.0045 80.9625 50.3277 80.6513 50.4938C80.3602 50.6481 79.9223 50.7961 79.3377 50.9379ZM75.3757 49.3284C75.6213 49.1248 75.8936 49.0656 76.1926 49.1509L76.6903 49.3069C76.9565 49.3734 77.2472 49.4174 77.5622 49.439C77.8652 49.4405 78.2739 49.3882 78.7881 49.2823C79.3023 49.1763 79.6394 49.0764 79.7994 48.9827C79.9802 48.8877 80.2653 48.6554 80.655 48.2861C81.0358 47.9382 81.3163 47.5758 81.4964 47.199C81.6765 46.8221 81.8411 46.3106 81.9902 45.6644C82.1481 44.9968 82.2356 44.5006 82.2526 44.176C82.2679 43.8306 82.259 43.3719 82.2257 42.8C82.1853 42.2703 82.0721 41.6774 81.8861 41.0213C81.7114 40.375 81.5525 39.9363 81.4095 39.7054C81.2649 39.4537 81.04 39.1759 80.7347 38.8719C80.4286 38.5575 80.1553 38.3297 79.9147 38.1885C79.6837 38.0363 79.2632 37.8649 78.6532 37.6743C78.0632 37.472 77.6366 37.3584 77.3736 37.3335C77.1329 37.328 76.6787 37.3988 76.0109 37.5459C75.3847 37.6904 74.8545 37.9278 74.4201 38.2583C73.9561 38.6115 73.6377 38.8876 73.4649 39.0866C73.2936 39.3063 73.0943 39.6373 72.867 40.0798C72.6388 40.5119 72.429 41.0472 72.2376 41.6857C72.0557 42.3131 71.9559 42.7839 71.9381 43.0982C71.9195 43.4021 71.986 43.9979 72.1374 44.8859C72.308 45.7517 72.4716 46.3205 72.6282 46.5922C72.7759 46.8855 73.0732 47.2891 73.5199 47.8033C73.9673 48.3278 74.313 48.6815 74.5568 48.8642C74.7678 49.0281 75.0407 49.1828 75.3757 49.3284ZM86.9339 35.7198C87.0324 35.5047 87.1884 35.3591 87.402 35.2828C87.6259 35.2058 87.8462 35.2178 88.0628 35.3188C88.2899 35.4191 88.4429 35.5763 88.5219 35.7904L88.6812 36.2342C88.8145 36.6119 88.8798 37.0565 88.8772 37.5681C88.8889 37.9952 88.9289 38.6554 88.9972 39.5487C89.043 40.4225 89.0779 41.0151 89.1017 41.3267C89.1471 41.6474 89.1941 41.9888 89.2426 42.351C89.2522 42.4756 89.2749 42.636 89.3107 42.832C89.3757 42.5878 89.453 42.301 89.5427 41.9717C89.7599 41.1228 90.0118 40.3866 90.2984 39.7629C90.5954 39.1385 90.8432 38.6895 91.0416 38.4159C91.2089 38.1442 91.4994 37.776 91.913 37.3112C92.3643 36.7918 92.7931 36.3886 93.1995 36.1017C93.6043 35.7939 94.0054 35.5752 94.4029 35.4454C94.8196 35.2935 95.1899 35.2176 95.5137 35.2178C95.8584 35.2166 96.2249 35.2975 96.6135 35.4605C96.9916 35.6242 97.2729 35.8201 97.4575 36.0484C97.6189 36.2468 97.8542 36.6597 98.1633 37.287C98.4164 37.8657 98.5925 38.3241 98.6914 38.6622C98.78 39.001 98.9005 39.4838 99.0528 40.1107C99.1127 40.3469 99.1765 40.5673 99.2444 40.7717C99.3413 40.4002 99.5275 39.8977 99.803 39.2643C100.111 38.514 100.349 38.003 100.516 37.7313C100.683 37.4493 100.914 37.1214 101.209 36.7477C101.543 36.3401 101.839 36.0394 102.096 35.8455C102.361 35.6198 102.681 35.4427 103.058 35.3143C103.558 35.157 104.083 35.1965 104.634 35.4326C105.163 35.6597 105.587 36.0083 105.905 36.4785C106.123 36.8716 106.29 37.2106 106.406 37.4954C106.489 37.7718 106.625 38.3111 106.811 39.1133C107.02 39.9349 107.155 40.5368 107.216 40.9191C107.286 41.2904 107.391 41.8473 107.531 42.5898C107.651 43.3336 107.751 43.9586 107.831 44.4649C107.912 44.9712 107.972 45.4788 108.01 45.9877C108.068 46.4746 108.122 46.8991 108.17 47.2613C108.219 47.6235 108.26 47.887 108.293 48.0518L108.345 48.3147C108.384 48.5522 108.337 48.764 108.205 48.9498C108.073 49.1357 107.889 49.2467 107.651 49.2828C107.424 49.3182 107.211 49.2692 107.013 49.1357C106.824 48.9912 106.701 48.8061 106.642 48.5802L106.624 48.3465C106.589 48.1609 106.536 47.8773 106.465 47.4956C106.415 47.1127 106.354 46.6573 106.282 46.1296C106.245 45.6415 106.187 45.1546 106.108 44.6691C106.029 44.1836 105.931 43.5846 105.814 42.8719C105.696 42.1488 105.601 41.5965 105.53 41.2149C105.461 40.854 105.329 40.2832 105.133 39.5025C104.948 38.7211 104.816 38.2285 104.738 38.0248C104.684 37.8613 104.584 37.6433 104.437 37.3708C104.342 37.21 104.191 37.0891 103.987 37.0083C103.835 36.9345 103.728 36.91 103.668 36.9348C103.484 36.9883 103.328 37.0713 103.201 37.1838C103.023 37.3204 102.815 37.5373 102.577 37.8343C102.298 38.1548 102.1 38.4233 101.98 38.6396C101.86 38.8456 101.659 39.2864 101.376 39.9621C101.093 40.6273 100.92 41.0976 100.857 41.373C100.797 41.6795 100.717 42.1386 100.618 42.7503C100.528 43.351 100.466 43.9708 100.431 44.6097C100.382 45.3434 100.353 45.7836 100.344 45.9303C100.32 46.1719 100.276 46.4774 100.21 46.8469C100.155 47.2158 100.113 47.4846 100.084 47.6535C100.063 47.6548 100.043 47.6665 100.024 47.6886C100.004 47.7107 99.9597 47.7397 99.8893 47.7755C99.8189 47.8113 99.7433 47.8475 99.6625 47.8839C99.5921 47.9198 99.5061 47.9566 99.4046 47.9944C99.303 48.0322 99.2058 48.0593 99.1131 48.0757C99.0307 48.0914 98.9479 48.1019 98.8648 48.1072C98.7816 48.1125 98.7024 48.1019 98.6273 48.0754C98.5521 48.0489 98.4862 48.0062 98.4295 47.9472C98.3831 47.8875 98.356 47.8058 98.348 47.7019C98.3353 47.5357 98.3234 47.4478 98.3122 47.438C98.3002 47.4179 98.303 47.3864 98.3207 47.3436C98.3383 47.3007 98.3595 47.2367 98.3843 47.1516C98.4116 46.962 98.4258 46.7367 98.4267 46.4757C98.4261 46.194 98.4079 45.8194 98.3722 45.352C98.3157 44.8859 98.2344 44.3693 98.1284 43.802C98 43.2153 97.8795 42.6646 97.7671 42.15C97.6674 41.6658 97.5418 41.1154 97.3902 40.4989C97.2378 39.872 97.115 39.4258 97.0215 39.1605C96.9601 38.9035 96.8156 38.5161 96.588 37.9984C96.4099 37.5818 96.2694 37.3142 96.1663 37.1956C96.1215 37.1567 96.0332 37.0945 95.9013 37.009C95.7718 36.9547 95.6499 36.9312 95.5355 36.9385C95.43 36.9244 95.266 36.9662 95.0437 37.0639C94.7678 37.1442 94.4866 37.2926 94.2002 37.5093C93.9131 37.7155 93.597 38.0227 93.2522 38.431C92.8569 38.8633 92.5948 39.1932 92.466 39.4206C92.3331 39.5961 92.141 39.9529 91.8896 40.4908C91.6383 41.0287 91.4112 41.6799 91.2085 42.4444C90.9865 43.2309 90.8515 43.7875 90.8033 44.1142C90.7624 44.3986 90.7033 44.9242 90.6261 45.6911C90.5809 46.4663 90.5542 47.0056 90.546 47.3088C90.537 47.6016 90.54 47.9823 90.5549 48.4511C90.5699 48.9198 90.5849 49.2528 90.6 49.4501C90.6031 49.4917 90.6119 49.5381 90.6263 49.5894C90.6406 49.6406 90.6642 49.7435 90.6969 49.898C90.7288 50.042 90.7059 50.1531 90.6283 50.2311C90.5611 50.3085 90.4575 50.3882 90.3175 50.4702C90.1775 50.5522 89.9432 50.562 89.6146 50.4995C89.1821 50.4437 88.9023 50.3363 88.7752 50.1775C88.6474 50.0082 88.6307 49.858 88.7251 49.7267L88.8356 49.5317C88.7949 49.2734 88.7571 49.0514 88.722 48.8658C88.6853 48.6594 88.6128 48.257 88.5044 47.6586C88.396 47.0602 88.3035 46.6016 88.2269 46.283C88.1599 45.9533 88.0403 45.3451 87.8681 44.4585C87.6959 43.572 87.5847 42.9372 87.5346 42.5542C87.486 42.192 87.4382 41.8402 87.3912 41.4988C87.365 41.1561 87.3278 40.5322 87.2795 39.6273C87.2097 38.7133 87.1677 38.0271 87.1536 37.5688C87.1498 37.2455 87.1191 36.9813 87.0617 36.7762L86.906 36.3791C86.8253 36.1442 86.8347 35.9244 86.9339 35.7198ZM110.218 33.4627C110.201 33.2342 110.205 33.0096 110.23 32.7888C110.265 32.5674 110.327 32.3495 110.415 32.1351C110.503 31.9207 110.642 31.7605 110.832 31.6543C111.033 31.5476 111.271 31.5219 111.547 31.5773C111.635 32.177 111.711 33.1689 111.775 34.553C111.848 35.926 111.919 36.913 111.985 37.5141C112.121 37.6515 112.325 37.8629 112.598 38.1481C113.018 37.9021 113.691 37.5511 114.617 37.0952C116.492 36.7456 117.993 36.6391 119.121 36.7757C119.582 37.0697 119.912 37.2835 120.11 37.4169C120.309 37.5503 120.591 37.7567 120.957 38.0359C121.322 38.3048 121.625 38.5777 121.865 38.8545C122.105 39.121 122.315 39.4102 122.496 39.7222C122.611 39.9967 122.697 40.3043 122.754 40.645C122.811 40.9754 122.838 41.2607 122.835 41.5009C122.843 41.7301 122.842 42.0589 122.833 42.4874C122.833 42.9049 122.834 43.197 122.837 43.3639C122.285 44.3385 121.526 45.149 120.563 45.7951C119.598 46.4309 118.582 46.8768 117.515 47.133C116.448 47.3787 115.333 47.4866 114.171 47.4566C113.822 47.3954 113.505 47.2904 113.222 47.1415C112.939 46.9926 112.695 46.7995 112.489 46.5622C112.282 46.3145 112.101 46.0652 111.946 45.8142C111.801 45.5625 111.669 45.2631 111.548 44.9159C111.428 44.5688 111.331 44.2619 111.258 43.9951C111.186 43.7284 111.11 43.4202 111.031 43.0703C110.526 39.7419 110.255 36.5394 110.218 33.4627ZM112.543 40.2965C112.646 42.1895 112.764 43.6065 112.899 44.5477C113.008 44.6138 113.176 44.7544 113.401 44.9696C113.626 45.1744 113.836 45.3331 114.033 45.4458C114.23 45.5585 114.442 45.6075 114.671 45.5928C115.361 45.6009 116.031 45.5476 116.68 45.433C117.339 45.3073 117.983 45.1148 118.61 44.8554C119.249 44.5954 119.795 44.2213 120.248 43.733C120.711 43.2337 121.027 42.6447 121.194 41.966C121.143 41.4266 121.102 41.0274 121.072 40.7684C121.024 40.6879 120.928 40.5271 120.784 40.2858C120.639 40.0341 120.543 39.868 120.495 39.7876C119.973 39.247 119.349 38.8642 118.621 38.6394C117.904 38.4139 117.183 38.3453 116.459 38.4334C115.733 38.5111 115.023 38.7131 114.327 39.0394C113.641 39.3651 113.047 39.7841 112.543 40.2965ZM124.818 30.7438C124.914 30.7689 125.037 30.808 125.188 30.861C125.348 30.903 125.519 30.9547 125.701 31.0161C125.893 31.0664 126.026 31.0996 126.1 31.1158C126.454 32.6065 126.735 34.222 126.941 35.9622C127.146 37.6921 127.277 39.2754 127.335 40.712C127.392 42.1383 127.423 43.7749 127.428 45.622C127.16 45.6704 126.538 45.8041 125.563 46.0231C125.498 45.1714 125.47 44.333 125.48 43.5078C125.637 42.548 125.702 41.4897 125.676 40.3328C125.651 39.1759 125.564 38.1117 125.417 37.14C125.28 36.1677 125.152 35.1061 125.032 33.9552C124.912 32.7939 124.841 31.7234 124.818 30.7438ZM23.0609 67.2358C22.8378 67.3231 22.6179 67.3163 22.4012 67.2153C22.1942 67.1033 22.0512 66.9403 21.9721 66.7262C21.8923 66.5016 21.8964 66.2822 21.9845 66.0678L22.2103 65.5367C22.352 65.2041 22.4781 64.9403 22.5886 64.7454C22.6951 64.4985 22.9435 64.1278 23.334 63.6331C23.7422 63.0956 24.1714 62.6297 24.6218 62.2356C25.0618 61.8422 25.4114 61.5641 25.6706 61.4014C25.9386 61.2172 26.4021 60.9945 27.0611 60.7331C27.7705 60.4477 28.4147 60.3334 28.9936 60.3903C29.5925 60.4355 30.2001 60.6628 30.8163 61.0721C31.4014 61.4835 31.8058 61.8542 32.0295 62.1843C32.1981 62.4762 32.4017 62.9537 32.6404 63.6169C32.8607 64.3125 32.9899 64.9774 33.0279 65.6117C33.0539 66.2258 32.9783 66.9456 32.8012 67.771C32.6287 68.6588 32.2556 69.5176 31.6818 70.3476C31.1448 71.1125 30.5855 71.7902 30.0039 72.3806C29.4534 72.969 28.8797 73.5276 28.2829 74.0563C27.7469 74.5603 27.1581 75.125 26.5164 75.7506C25.874 76.3657 25.4463 76.7845 25.2335 77.0068C25.0303 77.2181 24.7606 77.5172 24.4246 77.904C24.0901 78.3116 23.8373 78.6252 23.666 78.8449C23.666 78.8449 23.6572 78.8664 23.6396 78.9092C23.8475 78.8959 24.0294 78.8843 24.1853 78.8743C24.4436 78.8369 24.7071 78.7992 24.9758 78.7611C25.2549 78.7224 25.8271 78.6231 26.6924 78.4634C27.5769 78.2816 28.1982 78.1426 28.5565 78.0467C28.9572 77.9584 29.3423 77.8711 29.7117 77.7849C30.114 77.7174 30.7497 77.6297 31.619 77.5219C32.4882 77.4141 33.0632 77.3512 33.3438 77.3333C33.6453 77.314 33.9744 77.3138 34.331 77.3327L34.8503 77.3621C35.091 77.3676 35.2968 77.464 35.4678 77.6514C35.6381 77.8284 35.7163 78.0321 35.7026 78.2626C35.6881 78.4827 35.5936 78.6818 35.4192 78.86C35.2544 79.0271 35.0568 79.1076 34.8265 79.1014L34.3072 79.072C33.9818 79.0511 33.7043 79.0428 33.4748 79.047C33.2149 79.0637 32.6715 79.1297 31.8447 79.2453C31.0274 79.3498 30.4384 79.4344 30.0778 79.4992C29.7171 79.5641 29.3572 79.6393 28.9982 79.7249C28.5975 79.8131 27.9549 79.9482 27.0705 80.13C26.1652 80.3132 25.5526 80.4307 25.2327 80.4825C24.9328 80.5225 24.659 80.5609 24.4111 80.5977C24.1304 80.6156 23.7665 80.6389 23.3195 80.6675C22.8829 80.6954 22.5547 80.706 22.3348 80.6992C22.0525 80.6964 21.7747 80.5472 21.5014 80.2515C21.2385 79.9552 21.1924 79.6242 21.3629 79.2584C21.4333 79.0869 21.5522 78.8654 21.7195 78.5937C21.8699 78.3754 22.0444 78.1294 22.2429 77.8557C22.4309 77.5828 22.7174 77.2305 23.1022 76.7988C23.4559 76.3691 23.744 76.0375 23.9664 75.8041C24.1984 75.5597 24.6353 75.1247 25.2769 74.4991C25.9282 73.8625 26.5426 73.2909 27.1202 72.7843C27.677 72.279 28.2263 71.7429 28.7679 71.1759C29.28 70.6317 29.7761 70.0155 30.2563 69.3272C30.6996 68.7039 30.9851 68.0647 31.1126 67.4094C31.2681 66.7106 31.328 66.1275 31.2923 65.6601C31.2774 65.1914 31.1817 64.6913 31.0053 64.1599C30.8289 63.6284 30.6767 63.2781 30.5489 63.1088C30.4754 62.9674 30.246 62.7681 29.8608 62.511C29.4963 62.2525 29.1785 62.1267 28.9074 62.1336C28.582 62.1127 28.1805 62.1906 27.7031 62.3672C27.1648 62.5687 26.8013 62.7328 26.6125 62.8597C26.4333 62.9756 26.1529 63.2022 25.7713 63.5398C25.4097 63.8656 25.0577 64.2482 24.7152 64.6876C24.3831 65.1263 24.1854 65.4104 24.1222 65.5396C24.0501 65.6904 23.9432 65.9321 23.8015 66.2647L23.5422 66.7666C23.4541 66.981 23.2937 67.1374 23.0609 67.2358ZM40.2473 65.5568C39.9986 65.5831 39.7803 65.5293 39.5925 65.3951C39.4142 65.25 39.3108 65.0583 39.2821 64.8201C39.2527 64.5715 39.32 64.3584 39.484 64.1809L39.7949 63.7383C40.0334 63.4413 40.367 63.0233 40.7959 62.4844C41.2633 61.9014 41.7585 61.4105 42.2817 61.0117C42.8049 60.6129 43.2564 60.37 43.6362 60.2831C44.0353 60.1741 44.6718 60.2325 45.5456 60.4584C46.3779 60.6869 46.9887 60.9558 47.3779 61.2648C47.7455 61.5649 48.1566 62.1596 48.6111 63.049C49.0624 63.8968 49.3286 64.6469 49.4098 65.2993C49.5246 65.9808 49.4918 66.6456 49.3115 67.2938C49.2001 67.7498 49.066 68.1132 48.9091 68.3842C49.1042 68.4761 49.2844 68.5793 49.4499 68.694C49.7488 68.9149 50.1028 69.3098 50.5119 69.8785C50.921 70.4472 51.2189 70.997 51.4057 71.5278C51.6125 72.0468 51.7205 72.6401 51.7297 73.3075C51.7405 73.9956 51.6755 74.5112 51.5346 74.8542C51.3928 75.1868 51.0919 75.6236 50.6318 76.1644C50.1806 76.6839 49.533 77.1637 48.6892 77.6038C47.8661 78.0427 47.223 78.3082 46.76 78.4005C46.2746 78.4733 45.5118 78.4021 44.4716 78.1868C43.4522 77.9702 42.7251 77.7506 42.2903 77.5279C41.9313 77.3422 41.4721 77.0741 40.9126 76.7237C40.3322 76.3747 39.9418 76.1179 39.7412 75.9533C39.4614 75.7102 39.2353 75.4168 39.0628 75.073L38.8771 74.6935C38.7757 74.4599 38.7582 74.2314 38.8247 74.008C38.8912 73.7845 39.0304 73.6243 39.2424 73.5272C39.4639 73.4191 39.6878 73.41 39.9141 73.4999C40.1499 73.5788 40.3174 73.7194 40.4164 73.9218L40.6021 74.3013C40.6756 74.4427 40.7511 74.5423 40.8286 74.5999C40.9629 74.7166 41.2878 74.9358 41.8034 75.2577C42.3405 75.5886 42.7774 75.8373 43.1139 76.0036C43.3865 76.1532 43.9426 76.3211 44.782 76.5074C45.6296 76.662 46.1825 76.7205 46.4408 76.6831C46.7198 76.6444 47.1953 76.4417 47.8672 76.0752C48.4991 75.7321 48.9835 75.3723 49.3203 74.9959C49.6564 74.6091 49.8501 74.341 49.9013 74.1916C49.9734 74.0409 50.0031 73.7467 49.9906 73.3092C49.9757 72.8404 49.9131 72.4322 49.803 72.0844C49.6712 71.7275 49.4368 71.325 49.0996 70.8769C48.7848 70.4482 48.5495 70.1711 48.3936 70.0454C48.2833 69.9689 47.9999 69.8827 47.5434 69.7866C47.4154 69.7531 47.2883 69.7299 47.162 69.7171C46.7677 69.8885 46.4406 69.9825 46.1807 69.9991C45.7337 70.0277 45.4987 69.8914 45.4757 69.5902C45.4518 69.2786 45.5376 68.9652 45.7329 68.65L46.0078 68.1471C46.2422 68.0695 46.4841 68.0227 46.7336 68.0067C46.9351 67.9103 47.1003 67.8163 47.2291 67.7245C47.2899 67.6998 47.3291 67.666 47.3467 67.6231C47.4219 67.5139 47.5216 67.2466 47.6458 66.8211C47.7588 66.386 47.789 65.9614 47.7365 65.5472C47.6592 65.0825 47.4428 64.5066 47.0874 63.8197C46.7335 63.1535 46.4671 62.7426 46.2881 62.587C46.0882 62.4328 45.7001 62.275 45.1237 62.1136C44.6016 61.98 44.2582 61.9289 44.0935 61.9603C43.9303 62.0125 43.6755 62.1645 43.3292 62.4163C42.9436 62.7019 42.5556 63.092 42.1651 63.5867C41.7362 64.1255 41.4025 64.5435 41.164 64.8406L40.8184 65.2384C40.6855 65.4139 40.4952 65.52 40.2473 65.5568ZM71.0969 77.4068C70.2313 76.8777 69.7227 76.1692 69.5713 75.2813L69.5139 74.9406C69.3434 73.9391 69.5683 72.8496 70.1886 71.6723C70.8074 70.4742 72.3819 69.0009 74.9121 67.2526C75.7129 66.6586 76.3485 66.0909 76.819 65.5493C77.3102 65.0065 77.5348 64.4598 77.4928 63.9093C77.4467 63.3069 77.1775 62.8597 76.6851 62.5677C76.2383 62.3249 75.8693 62.2128 75.5783 62.2314C74.8922 62.2753 73.6204 62.9255 71.763 64.182C71.683 64.2289 71.6178 64.2644 71.5674 64.2885C71.234 64.2994 71.0073 64.2722 70.8874 64.2068C70.7771 64.1303 70.7152 64.0038 70.7017 63.8273C70.6406 63.0275 71.3155 62.2902 72.7264 61.6155C74.019 60.8961 75.185 60.5032 76.2246 60.4366C76.9211 60.3921 77.681 60.6305 78.5043 61.1518C79.294 61.644 79.7234 62.3419 79.7925 63.2456C79.8552 64.0661 79.6664 64.8766 79.2261 65.6771C78.7667 66.4997 77.5666 67.6098 75.626 69.0073C74.2012 70.184 73.2195 71.1444 72.6809 71.8886C72.0224 72.7031 71.7304 73.5985 71.805 74.5748C71.8352 74.9695 71.9549 75.3062 72.1643 75.5851C72.3832 75.8529 72.669 76.0381 73.0215 76.1408C73.5684 76.325 73.9769 76.4084 74.2472 76.3911C75.8897 76.286 77.4636 75.7626 78.9691 74.8209C79.4186 74.5521 79.7421 74.4113 79.9396 74.3987C80.106 74.388 80.2175 74.4122 80.2742 74.4712C80.3414 74.5295 80.3833 74.6678 80.3999 74.8859C80.4563 75.6233 79.8506 76.3092 78.5828 76.9435C77.2663 77.6226 75.7036 78.0201 73.8948 78.1358C72.9384 78.197 72.0058 77.954 71.0969 77.4068ZM92.4522 76.1499C92.3226 76.367 92.1286 76.4942 91.8703 76.5316L91.3761 76.6258C90.9546 76.7154 90.4169 76.7185 89.7629 76.6351C89.1208 76.5718 88.524 76.4169 87.9724 76.1704C87.464 75.942 87.0391 75.7135 86.6978 75.4849C86.3333 75.2264 85.881 74.7752 85.3408 74.1314C84.8022 73.5083 84.4187 73.0005 84.1902 72.6081C83.9706 72.1942 83.7679 71.4557 83.5822 70.3926C83.3781 69.3619 83.2893 68.6109 83.316 68.1395C83.3666 67.7084 83.4945 67.1261 83.6996 66.3928C83.9143 65.6485 84.153 65.0122 84.4155 64.484C84.6877 63.9447 84.953 63.5207 85.2115 63.2119C85.4899 62.8914 85.91 62.5097 86.4715 62.0667C87.0747 61.6211 87.8177 61.2969 88.7006 61.0943C89.5627 60.893 90.1981 60.8002 90.6067 60.8158C90.9961 60.8535 91.5657 60.9945 92.3156 61.2387C93.0455 61.4947 93.5859 61.7315 93.9368 61.9491C94.2973 62.1556 94.6814 62.4651 95.089 62.8773C95.4965 63.2896 95.7974 63.6722 95.9915 64.0251C96.208 64.3974 96.4355 64.983 96.6741 65.7818C96.9008 66.5605 97.0287 67.2777 97.0579 67.9334C97.1048 68.5462 97.1133 69.0675 97.0834 69.4974C97.0744 69.9259 96.9789 70.5217 96.7969 71.2848C96.6166 72.0687 96.3995 72.714 96.1458 73.2208C95.8624 73.7504 95.4727 74.2554 94.9766 74.7359C94.4806 75.2165 94.077 75.5398 93.7659 75.7058C93.4747 75.8601 93.0368 76.0081 92.4522 76.1499ZM88.4903 74.5404C88.7359 74.3368 89.0082 74.2777 89.3072 74.3629L89.8048 74.5189C90.0711 74.5854 90.3617 74.6294 90.6768 74.651C90.9798 74.6525 91.3884 74.6002 91.9027 74.4943C92.4169 74.3883 92.754 74.2885 92.9139 74.1947C93.0947 74.0997 93.3799 73.8675 93.7695 73.4981C94.1503 73.1502 94.4308 72.7878 94.6109 72.411C94.7911 72.0341 94.9557 71.5226 95.1048 70.8764C95.2627 70.2088 95.3501 69.7126 95.3671 69.388C95.3825 69.0426 95.3736 68.5839 95.3403 68.012C95.2998 67.4823 95.1866 66.8894 95.0007 66.2333C94.8259 65.587 94.6671 65.1483 94.5241 64.9174C94.3795 64.6657 94.1545 64.3879 93.8493 64.0839C93.5432 63.7695 93.2698 63.5417 93.0292 63.4005C92.7982 63.2483 92.3777 63.0769 91.7677 62.8863C91.1777 62.684 90.7512 62.5704 90.4881 62.5455C90.2475 62.54 89.7932 62.6108 89.1255 62.7579C88.4993 62.9024 87.969 63.1398 87.5346 63.4703C87.0706 63.8236 86.7522 64.0996 86.5794 64.2986C86.4082 64.5183 86.2089 64.8494 85.9815 65.2918C85.7534 65.7239 85.5436 66.2592 85.3521 66.8977C85.1702 67.5251 85.0704 67.996 85.0527 68.3102C85.0341 68.6141 85.1005 69.21 85.2519 70.0979C85.4226 70.9637 85.5862 71.5325 85.7427 71.8042C85.8905 72.0975 86.1877 72.5012 86.6344 73.0153C87.0819 73.5398 87.4275 73.8935 87.6713 74.0762C87.8823 74.2401 88.1553 74.3948 88.4903 74.5404ZM101.38 62.3652C101.862 61.4263 102.603 60.7266 103.602 60.2661C104.6 59.7952 105.61 59.6888 106.633 59.9469C107.367 60.1191 108.138 60.3046 108.947 60.5033C109.352 60.874 109.895 61.4289 110.579 62.168C111.272 62.9064 111.771 63.4224 112.076 63.716C112.149 64.2645 112.267 65.6034 112.43 67.7326C112.603 69.8611 112.827 71.4907 113.101 72.6212C114.005 72.96 114.682 73.2141 115.134 73.3835C114.032 74.0072 113.466 74.3252 113.436 74.3376C113.547 75.5099 113.641 76.7407 113.718 78.0299C113.654 78.4202 113.591 78.753 113.528 79.0284C113.466 79.3141 113.387 79.6428 113.29 80.0143C113.194 80.3962 113.078 80.7219 112.942 80.9916C112.806 81.2716 112.645 81.5533 112.458 81.8366C112.271 82.1304 112.045 82.3849 111.78 82.6002C111.525 82.8252 111.237 83.0159 110.915 83.1722C110.051 83.4884 109.167 83.6754 108.262 83.7333C107.369 83.8009 106.475 83.7224 105.581 83.4978C104.696 83.2726 103.879 82.897 103.128 82.371C102.537 81.4695 101.962 80.4365 101.403 79.272C101.413 79.2609 101.448 79.1803 101.51 79.0303C101.572 78.8906 101.608 78.8048 101.616 78.773C101.635 78.7509 101.671 78.6756 101.724 78.5469C101.787 78.4176 101.833 78.3312 101.861 78.2877C101.889 78.2545 101.931 78.184 101.985 78.0762C102.05 77.9676 102.102 77.8913 102.14 77.8471C102.189 77.8022 102.247 77.7411 102.314 77.6637C102.392 77.5857 102.46 77.5239 102.519 77.4784C102.579 77.4432 102.649 77.397 102.728 77.3398C102.819 77.2922 102.91 77.2551 103.002 77.2283C104.417 76.6055 107.274 75.4468 111.574 73.7522C111.379 72.4287 111.251 71.5759 111.19 71.1936C108.819 73.798 106.542 74.7578 104.359 74.073C103.865 74.0315 103.395 73.8998 102.95 73.6778C102.514 73.4447 102.12 73.136 101.767 72.7515C101.424 72.3664 101.128 71.9887 100.881 71.6184C100.632 71.2377 100.38 70.805 100.124 70.3205C99.3923 68.1337 99.8112 65.4819 101.38 62.3652ZM104.086 61.8946C103.787 62.0807 103.512 62.3123 103.262 62.5892C103.021 62.8551 102.81 63.1661 102.628 63.5221C102.446 63.8678 102.298 64.1852 102.184 64.4743C102.069 64.753 101.939 65.1005 101.793 65.5169C101.595 66.1976 101.467 66.8528 101.411 67.4827C101.354 68.1021 101.419 68.7503 101.607 69.4271C101.793 70.0936 102.129 70.6566 102.613 71.1162C102.892 71.4845 103.228 71.7813 103.621 72.0066C104.025 72.2313 104.444 72.3819 104.878 72.4585C105.312 72.5351 105.752 72.5539 106.199 72.5149C106.654 72.4649 107.096 72.3636 107.523 72.211C108.304 71.7748 108.963 71.1691 109.499 70.3937C110.045 69.6073 110.378 68.7667 110.498 67.8719C110.628 66.9764 110.492 66.0875 110.09 65.2052C110.065 65.1546 109.833 64.5067 109.393 63.2615C108.726 62.5945 108.036 62.0489 107.325 61.6247C107.138 61.6367 106.799 61.6479 106.309 61.6584C105.829 61.6578 105.417 61.6737 105.075 61.7061C104.733 61.7384 104.403 61.8012 104.086 61.8946ZM103.492 79.1383C103.464 79.4532 103.508 79.7478 103.623 80.0223C103.738 80.3071 103.882 80.5432 104.053 80.7306C104.235 80.9277 104.474 81.1159 104.77 81.2953C105.066 81.4851 105.328 81.6301 105.555 81.7304C105.782 81.8306 106.052 81.9438 106.365 82.07C106.951 82.0846 107.803 82.0928 108.921 82.0943C109.618 81.7887 110.203 81.4486 110.676 81.0739C111.159 80.6986 111.52 80.2267 111.759 79.6583C111.781 79.4063 111.792 79.1395 111.791 78.8577C111.802 78.5857 111.81 78.3451 111.815 78.1361C111.82 77.927 111.815 77.656 111.8 77.3229C111.785 77.0003 111.772 76.7559 111.759 76.5897C111.758 76.4332 111.747 76.1625 111.728 75.7776C111.71 75.403 111.697 75.1586 111.688 75.0443C111.035 75.3888 110.152 75.7897 109.038 76.2472C107.924 76.7046 106.893 77.162 105.946 77.6192C105.01 78.0757 104.192 78.5821 103.492 79.1383ZM128.427 69.3548C128.309 69.1745 128.186 68.9997 128.058 68.8305C127.894 68.6009 127.709 68.3675 127.503 68.1302C127.318 67.9019 126.894 67.5429 126.23 67.0531C125.641 66.6002 125.257 66.3482 125.075 66.2972C124.925 66.2442 124.648 66.2515 124.246 66.3189C123.802 66.3891 123.415 66.5078 123.083 66.6752C122.709 66.8452 122.424 67.0096 122.227 67.1683C122.04 67.316 121.869 67.473 121.715 67.6395C121.577 67.7526 121.393 68.0097 121.163 68.4106C120.911 68.8129 120.761 69.0991 120.711 69.2693C120.663 69.4602 120.619 69.7083 120.58 70.0135C120.561 70.3173 120.569 70.5517 120.602 70.7165C120.615 70.8827 120.699 71.1592 120.854 71.5459C121.006 71.9014 121.156 72.1579 121.304 72.3155C121.486 72.5126 121.659 72.6477 121.821 72.7208C121.974 72.8153 122.138 72.9092 122.313 73.0024C122.496 73.0846 122.785 73.1757 123.18 73.2757C123.531 73.3576 123.831 73.3958 124.081 73.3902C124.362 73.3723 124.593 73.321 124.775 73.2363C124.98 73.1814 125.187 73.0951 125.397 72.9773C125.618 72.8588 125.843 72.7191 126.071 72.5584C126.248 72.4218 126.577 72.0772 127.057 71.5247C127.505 70.9637 127.776 70.6072 127.869 70.4551C127.96 70.2823 128.041 70.1153 128.112 69.9542C128.216 69.8015 128.32 69.6017 128.427 69.3548ZM129.989 70.1159C129.862 70.3641 129.762 70.5635 129.69 70.7143C129.62 70.8858 129.515 71.0856 129.376 71.3137C129.248 71.5619 128.917 72.011 128.382 72.661C127.836 73.3118 127.41 73.7461 127.103 73.9641C126.815 74.1703 126.521 74.3509 126.219 74.5059C125.929 74.6706 125.642 74.8038 125.357 74.9055C125.041 75.0092 124.67 75.0747 124.244 75.102C123.798 75.1514 123.303 75.0995 122.759 74.9465C122.259 74.8324 121.879 74.7106 121.618 74.5811C121.369 74.4614 121.118 74.3209 120.865 74.1596C120.614 74.0087 120.351 73.7803 120.077 73.4743C119.749 73.1508 119.481 72.7192 119.272 72.1793C119.066 71.6603 118.934 71.2408 118.879 70.9208C118.835 70.6209 118.833 70.2609 118.874 69.8408C118.927 69.4304 118.993 69.0713 119.074 68.7634C119.155 68.4556 119.348 68.0362 119.652 67.5053C119.958 66.9952 120.237 66.6172 120.49 66.3714C120.714 66.1692 120.956 65.9763 121.213 65.7929C121.48 65.5983 121.829 65.3777 122.259 65.131C122.753 64.8907 123.319 64.7135 123.958 64.5996C124.608 64.4954 125.142 64.5082 125.559 64.638C125.933 64.7394 126.53 65.103 127.351 65.7289C127.195 65.3318 127.071 65.011 126.979 64.7663C126.827 64.4108 126.61 63.9654 126.329 63.4303C126.029 62.9172 125.773 62.516 125.563 62.2268C125.353 61.9376 125.12 61.6967 124.865 61.5043C124.664 61.3293 124.288 61.1186 123.736 60.8721C123.184 60.6256 122.713 60.4731 122.322 60.4146C121.891 60.3795 121.545 60.36 121.283 60.3558C121.024 60.3724 120.77 60.3991 120.522 60.4359C120.315 60.4699 119.94 60.6192 119.396 60.8836C119.004 61.0757 118.749 61.2329 118.633 61.3551L118.465 61.6164C118.355 61.8113 118.182 61.9424 117.947 62.0096C117.721 62.0658 117.5 62.033 117.281 61.9113C117.073 61.7786 116.934 61.5996 116.864 61.3744C116.804 61.1382 116.845 60.9216 116.987 60.7247L117.153 60.4323C117.365 60.0742 117.849 59.7093 118.605 59.3374C119.309 58.9896 119.852 58.7827 120.234 58.7165C120.554 58.6751 120.881 58.6438 121.214 58.6225C121.558 58.6213 121.999 58.6453 122.535 58.6945C123.094 58.7631 123.725 58.9575 124.429 59.2778C125.132 59.5981 125.652 59.9093 125.989 60.2113C126.313 60.4932 126.631 60.8173 126.941 61.1837C127.23 61.5513 127.533 62.0329 127.85 62.6284C128.178 63.2232 128.42 63.7296 128.577 64.1475C128.733 64.5445 128.943 65.1103 129.209 65.8449C129.474 66.5794 129.664 67.089 129.78 67.3739C129.907 67.6684 130.025 67.9844 130.134 68.3219C130.253 68.6482 130.339 68.8776 130.391 69.01L130.393 69.0411C130.51 69.2007 130.496 69.4363 130.353 69.7482L129.989 70.1159Z" fill="#242424"/>
</svg>
