<svg width="250" height="82" viewBox="0 0 250 82" fill="none" xmlns="http://www.w3.org/2000/svg">
<path d="M14.5 21.7728C48.49 19.2749 172.505 -2.38364 234.5 39.7728C247 48.2728 54.5 40.7728 21.5 45.2728" stroke="#0CE9CA" stroke-width="28" stroke-linecap="round"/>
<path d="M44.125 15.695C44.2038 15.9231 44.1887 16.1421 44.0795 16.3519C43.9805 16.5512 43.812 16.6837 43.5741 16.7494C43.3465 16.815 43.1377 16.797 42.9475 16.6954L42.6943 16.5738C42.5463 16.4925 42.3615 16.396 42.1398 16.2845C41.9501 16.2037 41.692 16.0926 41.3653 15.9512C41.0392 15.8306 40.8025 15.7453 40.6553 15.6952C40.4876 15.6558 40.3045 15.6271 40.1061 15.6089C39.9389 15.5904 39.7043 15.5831 39.4022 15.5872C39.121 15.591 38.8872 15.615 38.7008 15.6592C38.5144 15.7034 38.323 15.7581 38.1267 15.8233C37.9617 15.888 37.6899 16.0532 37.3113 16.3187C36.9321 16.5635 36.6364 16.8123 36.4241 17.0651C36.171 17.3498 35.974 17.5869 35.8331 17.7763C35.7135 17.9863 35.5943 18.2118 35.4755 18.453C35.3768 18.6627 35.2117 19.1285 34.9804 19.8504C34.749 20.5723 34.6155 21.0481 34.5798 21.2777C34.5662 21.5592 34.5579 21.8405 34.5548 22.1218C34.5514 22.3927 34.5635 22.6582 34.5911 22.9182C34.6187 23.1783 34.6787 23.4848 34.7712 23.8377C34.8854 24.2215 35.068 24.6357 35.3192 25.0803C35.5709 25.5456 35.7723 25.8762 35.9232 26.0721C36.0739 26.2575 36.2399 26.4324 36.4213 26.5966C36.5704 26.7196 36.7982 26.8675 37.1049 27.0404C37.4107 27.1821 37.8099 27.3069 38.3024 27.4148C38.8149 27.4912 39.1861 27.5383 39.4157 27.556C39.697 27.5522 39.9626 27.5486 40.2125 27.5452C40.4203 27.5215 40.69 27.4762 41.0217 27.4092C41.3013 27.3429 41.574 27.209 41.8396 27.0075C42.1155 26.7954 42.294 26.6471 42.3751 26.5627C42.476 26.4363 42.5664 26.3049 42.6462 26.1684C42.7263 26.0423 42.8106 25.8797 42.8993 25.6806L43.0474 25.366C43.1461 25.1564 43.3093 25.0187 43.5368 24.9531C43.7745 24.877 43.9936 24.8897 44.1942 24.9911C44.4052 25.0924 44.5502 25.2571 44.629 25.4852C44.7076 25.7029 44.6976 25.9218 44.5992 26.1419L44.451 26.4564C44.3328 26.7184 44.2186 26.9335 44.1083 27.1017C43.9876 27.27 43.8671 27.4435 43.7467 27.6222C43.5646 27.833 43.2588 28.0924 42.8291 28.4003C42.3896 28.7292 41.9369 28.9489 41.4709 29.0594C41.0465 29.1693 40.6681 29.2421 40.3356 29.2779C40.0336 29.282 39.7315 29.2861 39.4295 29.2902C39.0852 29.274 38.6147 29.2127 38.0181 29.1062C37.3586 28.9902 36.8019 28.8154 36.3478 28.582C35.8937 28.3486 35.5332 28.1087 35.2664 27.8623C35.0006 27.6575 34.7652 27.4211 34.5603 27.1531C34.3551 26.8746 34.0939 26.4459 33.7767 25.8668C33.4812 25.3187 33.2646 24.8008 33.1269 24.3131C32.9897 23.8462 32.906 23.4307 32.8757 23.0665C32.8465 22.744 32.8328 22.416 32.8346 22.0827C32.8361 21.7389 32.8532 21.3949 32.886 21.0507C32.9187 20.7065 33.0601 20.1317 33.3101 19.3262C33.5702 18.5101 33.7693 17.9501 33.9073 17.6462C34.0667 17.3628 34.2316 17.0949 34.4022 16.8426C34.5824 16.5589 34.8193 16.2536 35.113 15.9267C35.4265 15.5578 35.8343 15.2137 36.3366 14.8944C36.8177 14.565 37.208 14.3461 37.5073 14.2379C37.765 14.1302 38.0285 14.0433 38.2977 13.9772C38.5778 13.9317 38.9206 13.8906 39.326 13.8538C39.7114 13.8486 40.0293 13.8547 40.2798 13.8722C40.5205 13.9106 40.7665 13.9541 41.0178 14.0028C41.2803 14.0825 41.6062 14.1927 41.9954 14.3333C42.3642 14.4949 42.6647 14.6315 42.8968 14.7429C43.1079 14.8442 43.3033 14.9457 43.483 15.0475L43.7054 15.1851C43.9164 15.2864 44.0563 15.4564 44.125 15.695ZM50.0583 19.6927C50.2041 19.6907 50.3502 19.6992 50.4966 19.718C50.6632 19.7157 51.0126 19.7266 51.5446 19.7507C52.0867 19.7641 52.4776 19.7693 52.7172 19.766C52.9567 19.7628 53.1856 19.7492 53.4038 19.7254C53.6217 19.6912 54.0316 19.6284 54.6336 19.5369C55.2257 19.4663 55.6045 19.4091 55.7701 19.3652C55.9461 19.3212 56.1887 19.2345 56.4979 19.1053C56.7764 18.9974 56.9567 18.9168 57.0386 18.8636C57.0995 18.8003 57.1856 18.7054 57.2969 18.5789C57.3781 18.4944 57.4479 18.3737 57.5064 18.2166C57.564 18.0283 57.6021 17.8924 57.6208 17.8088C57.6186 17.7255 57.5824 17.5333 57.5121 17.2322C57.4417 16.931 57.3847 16.7391 57.3408 16.6564C57.2762 16.5739 57.1423 16.4351 56.9393 16.2399C56.7464 16.0342 56.55 15.891 56.3499 15.8104C56.1071 15.6887 55.8965 15.603 55.7181 15.5534C55.5394 15.4933 55.236 15.4453 54.8078 15.4095C54.4 15.3525 54.0612 15.3467 53.7915 15.392C53.5317 15.4163 53.2266 15.5038 52.8762 15.6544C52.5256 15.7946 52.2784 15.9073 52.1348 15.9926C51.9917 16.0987 51.7883 16.2942 51.5248 16.579C51.261 16.8534 51.0102 17.2266 50.7724 17.6986C50.5039 18.1918 50.3412 18.5482 50.2844 18.7677C50.2262 18.9352 50.1509 19.2435 50.0583 19.6927ZM48.178 20.1088C48.2153 19.9417 48.2523 19.7589 48.2888 19.5605C48.4182 18.9233 48.5365 18.4633 48.6437 18.1806C48.7406 17.8981 48.9431 17.4682 49.2511 16.8911C49.5794 16.2929 49.9156 15.7987 50.2598 15.4087C50.594 15.0395 50.8788 14.77 51.114 14.6002C51.3696 14.4092 51.7346 14.222 52.2091 14.0384C52.6938 13.8444 53.149 13.7184 53.5747 13.6605C53.9798 13.6134 54.4488 13.6174 54.9816 13.6727C55.5144 13.728 55.9175 13.8006 56.1907 13.8907C56.4637 13.9703 56.7635 14.0808 57.0902 14.2222C57.4596 14.4047 57.8048 14.6604 58.1259 14.9894C58.4786 15.3284 58.7097 15.6013 58.8192 15.8082C58.9496 16.0147 59.0785 16.3619 59.2057 16.8498C59.3226 17.3378 59.3737 17.7017 59.3591 17.9415C59.3442 18.1709 59.2735 18.4583 59.147 18.8038C59.0106 19.1702 58.8417 19.485 58.6401 19.7481C58.4372 19.9592 58.2488 20.1285 58.075 20.2558C57.8908 20.3833 57.5822 20.5386 57.1493 20.7215C56.7672 20.8517 56.4573 20.9549 56.2196 21.031C55.9921 21.0966 55.5513 21.1755 54.8973 21.2677C54.2849 21.3593 53.8436 21.4174 53.5734 21.4419C53.3031 21.4664 53.0325 21.4805 52.7617 21.4842C52.5222 21.4874 52.1209 21.4825 51.5579 21.4693C50.9949 21.4561 50.6248 21.4455 50.4474 21.4375C50.2805 21.4293 50.1241 21.4262 49.9783 21.4282C49.9158 21.429 49.8377 21.4301 49.744 21.4314C49.7274 21.5983 49.7108 21.76 49.694 21.9164C49.6786 22.125 49.7046 22.5257 49.7721 23.1185C49.8393 23.7009 49.8962 24.0856 49.9427 24.2725C49.9898 24.4802 50.063 24.6927 50.1624 24.9101C50.2298 25.0967 50.373 25.3969 50.5921 25.8106C50.7891 26.1725 50.9785 26.446 51.1604 26.631C51.375 26.8677 51.5617 27.037 51.7206 27.139C51.8483 27.2415 52.107 27.3734 52.4967 27.5347C52.887 27.717 53.2343 27.8529 53.5388 27.9425C53.843 28.0217 54.1933 28.069 54.5896 28.0845C55.0178 28.1203 55.3097 28.1268 55.4654 28.1039C55.5904 28.1022 55.8332 28.0259 56.194 27.8752C56.5136 27.7459 56.7246 27.6441 56.8269 27.5697C56.9289 27.485 57.02 27.3848 57.1004 27.2692C57.1807 27.1535 57.2951 26.9436 57.4435 26.6395C57.581 26.3147 57.6786 26.0634 57.7366 25.8855C57.7942 25.6972 57.8419 25.5299 57.8798 25.3836L57.9358 25.1328C57.9713 24.8927 58.0863 24.7089 58.281 24.5812C58.4861 24.4534 58.7037 24.4088 58.9339 24.4474C59.1746 24.4858 59.3601 24.6082 59.4905 24.8148C59.631 25.0108 59.6834 25.2237 59.6477 25.4533L59.5929 25.7509C59.5358 25.9601 59.4637 26.1902 59.3764 26.4414C59.2993 26.682 59.172 26.9963 58.9945 27.3841C58.8175 27.7927 58.6484 28.1023 58.4872 28.3129C58.3361 28.5128 58.1638 28.6975 57.9702 28.8668C57.7667 29.057 57.4022 29.2651 56.8767 29.491C56.3504 29.6856 55.947 29.8005 55.6666 29.8355C55.4067 29.8599 55.0211 29.8547 54.5096 29.82C53.9773 29.7855 53.5066 29.7138 53.0974 29.6048C52.688 29.4853 52.2566 29.3245 51.8033 29.1223C51.3076 28.8894 50.9378 28.6913 50.6939 28.528C50.4812 28.3642 50.2304 28.1332 49.9413 27.835C49.6309 27.5163 49.3441 27.1036 49.0809 26.5967C48.8083 26.1316 48.6267 25.7591 48.5361 25.4791C48.4252 25.2202 48.3353 24.9662 48.2663 24.7171C48.1965 24.4368 48.1216 23.9586 48.0415 23.2826C47.9716 22.5961 47.9485 22.1068 47.9722 21.8148C47.9857 21.5334 48.0097 21.2518 48.0441 20.9701C48.0424 20.9076 48.0512 20.845 48.0704 20.7822C48.0688 20.7197 48.0675 20.6676 48.0664 20.626C48.041 20.4493 48.0782 20.2769 48.178 20.1088ZM64.7417 23.6029L64.9365 23.8815C65.023 24.0054 65.2405 24.1535 65.5888 24.3258C65.9804 24.5601 66.5541 24.7867 67.31 25.0056C68.0458 25.256 68.5655 25.4052 68.8689 25.4532C69.1827 25.501 69.668 25.5309 70.3247 25.5428C70.9189 25.5556 71.547 25.469 72.2091 25.2829C72.8916 25.0861 73.3149 24.9345 73.4788 24.8282C73.6428 24.7218 73.9115 24.4369 74.285 23.9735C74.6379 23.5207 74.8766 23.08 75.0009 22.6512C75.1137 22.1809 75.1669 21.8208 75.1604 21.5709C75.1542 21.3314 74.9879 20.7451 74.6616 19.812C74.3133 18.8376 74.0634 18.242 73.9119 18.0253C73.7385 17.7672 73.4326 17.4224 72.9942 16.9909C72.5561 16.5697 72.1623 16.2521 71.8129 16.0381C71.4847 15.8342 71.0792 15.6679 70.5966 15.539C70.1137 15.3997 69.768 15.3315 69.5597 15.3343C69.3618 15.337 68.948 15.452 68.3184 15.6793C67.7301 15.8956 67.2378 16.1992 66.8416 16.59C66.4037 16.9813 66.11 17.3082 65.9605 17.5707C65.8012 17.8541 65.582 18.4404 65.3029 19.3296C65.0032 20.2295 64.833 20.8985 64.7923 21.3366C64.7513 21.7642 64.7344 22.5197 64.7417 23.6029ZM64.7684 25.837C64.7751 26.0973 64.7911 26.3106 64.8162 26.477C64.8503 26.9869 64.9206 27.6891 65.0272 28.5835C65.1353 29.5404 65.2471 30.4347 65.3625 31.2665C65.4674 32.0984 65.5342 32.6652 65.5629 32.9669C65.591 33.2478 65.6214 33.6172 65.6541 34.0751C65.6866 34.5226 65.7048 34.8244 65.7089 34.9806L65.7145 35.1993C65.7208 35.4388 65.6375 35.643 65.4647 35.8121C65.3024 35.9809 65.1015 36.067 64.8619 36.0702C64.6328 36.0733 64.4327 35.9927 64.2617 35.8284C64.0908 35.664 64.0022 35.4621 63.996 35.2226L63.9903 35.0039C63.987 34.879 63.9693 34.598 63.9372 34.1609C63.9052 33.7342 63.8702 33.3857 63.8319 33.1154C63.8038 32.8345 63.7372 32.2781 63.6323 31.4462C63.5268 30.5935 63.4205 29.7095 63.3134 28.7943C63.2053 27.8374 63.1339 27.0935 63.0993 26.5628C63.0684 26.1778 63.0433 25.6104 63.0238 24.8606C63.016 24.5586 63.0072 24.2202 62.9975 23.8453C63.0059 22.564 63.0345 21.6573 63.0832 21.1254C63.132 20.5935 63.3148 19.8097 63.6318 18.7742C63.9699 17.7487 64.2487 17.0522 64.4684 16.6847C64.698 16.2961 65.0822 15.843 65.621 15.3252C66.1801 14.7864 66.8827 14.3602 67.729 14.0466C68.5341 13.7544 69.1191 13.6111 69.4839 13.6166C69.8688 13.5905 70.3865 13.6668 71.0371 13.8455C71.6878 14.0242 72.2566 14.2612 72.7435 14.5567C73.1992 14.8526 73.6787 15.2628 74.1821 15.7872C74.7057 16.2905 75.0758 16.7022 75.2925 17.0222C75.5618 17.3623 75.8936 18.1026 76.2879 19.2431C76.7032 20.3937 76.9005 21.1723 76.8798 21.5788C76.8898 21.9641 76.8195 22.4651 76.6688 23.0817C76.4991 23.7715 76.1671 24.4271 75.6726 25.0484C75.1777 25.6489 74.7611 26.0608 74.4231 26.2841C74.1259 26.4757 73.5534 26.697 72.7055 26.9481C71.8776 27.1676 71.0676 27.2724 70.2755 27.2623C69.5459 27.2513 68.9874 27.212 68.6001 27.1444C68.2233 27.0766 67.625 26.9076 66.8053 26.6375C65.965 26.378 65.286 26.1112 64.7684 25.837ZM80.1856 13.4557C80.2948 13.2459 80.458 13.1083 80.6751 13.0428C80.9026 12.9773 81.122 13.0003 81.3333 13.112C81.555 13.2236 81.6999 13.3883 81.7681 13.6061L81.9048 14.0574C82.019 14.4413 82.0618 14.8886 82.0334 15.3994C82.0237 15.8267 82.0304 16.488 82.0536 17.3836C82.0555 18.2586 82.0605 18.8523 82.0686 19.1647C82.0978 19.4872 82.1275 19.8305 82.1578 20.1947C82.1611 20.3197 82.1757 20.4809 82.2016 20.6785C82.2787 20.4379 82.3704 20.1554 82.4766 19.831C82.7362 18.9941 83.0248 18.2715 83.3425 17.663C83.6705 17.0543 83.9405 16.6184 84.1525 16.3551C84.3332 16.0922 84.6419 15.7391 85.0784 15.2956C85.5552 14.7996 86.0038 14.4185 86.4241 14.1524C86.8438 13.8654 87.2555 13.6671 87.659 13.5575C88.0828 13.4267 88.4564 13.3696 88.7798 13.386C89.1241 13.4022 89.4861 13.5014 89.866 13.6838C90.2354 13.8663 90.5065 14.0761 90.6794 14.3134C90.8306 14.5197 91.0448 14.9438 91.3219 15.5859C91.5456 16.1767 91.6984 16.6433 91.7802 16.986C91.8516 17.3288 91.9476 17.8171 92.0683 18.4508C92.1162 18.6898 92.1688 18.913 92.2263 19.1206C92.3419 18.7544 92.5531 18.262 92.86 17.6432C93.2057 16.9093 93.4689 16.411 93.6496 16.1481C93.8301 15.8748 94.0771 15.559 94.3908 15.2005C94.7454 14.8103 95.0558 14.5248 95.322 14.3441C95.5978 14.1321 95.9271 13.9713 96.3098 13.862C96.8169 13.7301 97.3396 13.7959 97.8778 14.0595C98.3949 14.3129 98.8004 14.6824 99.0943 15.168C99.2924 15.5715 99.442 15.9185 99.5433 16.2088C99.6131 16.4891 99.721 17.0345 99.8671 17.845C100.035 18.6761 100.139 19.2841 100.18 19.6689C100.231 20.0432 100.309 20.6047 100.411 21.3533C100.493 22.1022 100.562 22.7315 100.617 23.2412C100.672 23.7509 100.706 24.2608 100.719 24.7711C100.752 25.2602 100.784 25.6869 100.815 26.0511C100.845 26.4152 100.873 26.6805 100.898 26.8468L100.936 27.1119C100.963 27.3511 100.906 27.5603 100.765 27.7393C100.623 27.9183 100.433 28.0198 100.194 28.0439C99.9656 28.0678 99.7556 28.0082 99.5644 27.8649C99.3833 27.7111 99.2689 27.52 99.2213 27.2914L99.2152 27.0571C99.1895 26.87 99.1508 26.584 99.0992 26.1993C99.0684 25.8143 99.0304 25.3565 98.9854 24.8258C98.9727 24.3364 98.9392 23.8473 98.8848 23.3584C98.8305 22.8696 98.7627 22.2663 98.6816 21.5487C98.6002 20.8206 98.5337 20.2642 98.482 19.8795C98.4309 19.5156 98.3274 18.9389 98.1714 18.1493C98.0259 17.3596 97.9192 16.861 97.8513 16.6536C97.8053 16.4876 97.7162 16.2648 97.5839 15.9854C97.4963 15.8199 97.3523 15.6916 97.1519 15.6006C97.004 15.5193 96.899 15.4894 96.837 15.5111C96.6506 15.5553 96.4911 15.6304 96.3584 15.7363C96.1741 15.8639 95.9555 16.0699 95.7024 16.3546C95.4081 16.6607 95.196 16.9188 95.066 17.1289C94.9358 17.3286 94.7125 17.7587 94.3962 18.4193C94.0796 19.0694 93.8832 19.5304 93.8069 19.8023C93.7314 20.1054 93.6286 20.5599 93.4984 21.1659C93.3784 21.7612 93.285 22.3771 93.2182 23.0134C93.1329 23.7438 93.0818 24.182 93.0647 24.328C93.0293 24.5681 92.9694 24.871 92.8851 25.2367C92.8112 25.6023 92.7556 25.8687 92.7183 26.0359C92.6975 26.0362 92.6769 26.0469 92.6566 26.068C92.6363 26.0891 92.5901 26.1158 92.518 26.148C92.4459 26.1802 92.3686 26.2125 92.2861 26.2449C92.214 26.2771 92.1263 26.3096 92.0229 26.3422C91.9196 26.3749 91.8212 26.397 91.7277 26.4087C91.6446 26.4203 91.5615 26.4266 91.4781 26.4277C91.3948 26.4289 91.3163 26.4143 91.2426 26.384C91.1688 26.3538 91.1051 26.3078 91.0514 26.246C91.0081 26.1841 90.9852 26.1011 90.9825 25.9969C90.9781 25.8303 90.9706 25.7419 90.9599 25.7316C90.949 25.7109 90.9534 25.6796 90.9731 25.6377C90.9929 25.5958 91.0173 25.5329 91.0464 25.4492C91.0832 25.2612 91.1086 25.0369 91.1227 24.7763C91.1362 24.4948 91.1369 24.1198 91.1248 23.6512C91.0918 23.1829 91.0366 22.6628 90.9593 22.0909C90.8606 21.4985 90.768 20.9425 90.6816 20.4228C90.6064 19.9342 90.5086 19.3783 90.3882 18.7549C90.2676 18.1211 90.1673 17.6693 90.0874 17.3996C90.039 17.1398 89.9141 16.7457 89.7129 16.2171C89.556 15.7922 89.429 15.5179 89.332 15.3942C89.2893 15.3531 89.2042 15.2865 89.0768 15.1945C88.9502 15.1337 88.8296 15.1041 88.715 15.1057C88.6103 15.0863 88.4445 15.1198 88.2175 15.2062C87.9379 15.2725 87.6496 15.4066 87.3527 15.6085C87.0555 15.8001 86.7244 16.091 86.3595 16.4814C85.943 16.8933 85.6646 17.2096 85.5245 17.4302C85.383 17.5988 85.1732 17.9454 84.895 18.47C84.6169 18.9947 84.3574 19.6336 84.1164 20.3869C83.8552 21.1613 83.6923 21.7104 83.6278 22.0342C83.5726 22.3162 83.4871 22.8382 83.3714 23.6002C83.2873 24.3722 83.2335 24.9094 83.2101 25.2118C83.1864 25.5038 83.1702 25.8842 83.1615 26.3531C83.1529 26.8219 83.1511 27.1553 83.1562 27.3531C83.1573 27.3948 83.1637 27.4416 83.1755 27.4935C83.1873 27.5454 83.2056 27.6494 83.2305 27.8053C83.2551 27.9508 83.2267 28.0605 83.1452 28.1346C83.0742 28.2084 82.9667 28.2828 82.8228 28.3577C82.6789 28.4326 82.4444 28.4305 82.1193 28.3516C81.6901 28.2741 81.4161 28.1528 81.2972 27.9878C81.178 27.8123 81.1689 27.6614 81.2698 27.535L81.3899 27.3459C81.3624 27.0858 81.3357 26.8622 81.31 26.6751C81.2838 26.4671 81.2316 26.0615 81.1534 25.4584C81.0753 24.8553 81.006 24.3927 80.9455 24.0706C80.8952 23.7379 80.8064 23.1245 80.679 22.2304C80.5516 21.3363 80.4725 20.6967 80.4416 20.3117C80.4114 19.9476 80.3813 19.5938 80.3516 19.2504C80.3427 18.9068 80.3369 18.2819 80.3342 17.3757C80.3105 16.4593 80.303 15.7719 80.312 15.3134C80.3244 14.9903 80.3071 14.7249 80.2601 14.5172L80.1246 14.1128C80.0558 13.8742 80.0762 13.6551 80.1856 13.4557ZM114.866 19.4541L114.122 20.9173C113.016 23.2448 111.875 25.0468 110.699 26.3232C109.554 27.5679 108.456 28.1974 107.404 28.2117C106.831 28.2195 106.217 27.8528 105.562 27.1117C104.896 26.3498 104.542 25.1463 104.499 23.501C104.463 22.1057 104.732 20.0238 105.306 17.2556C105.789 14.9678 106.028 13.3291 106.023 12.3396C106.241 11.9095 106.579 11.6914 107.037 11.6852C107.35 11.6809 107.603 11.7869 107.796 12.003C108 12.2294 108.105 12.4623 108.111 12.7019C108.128 13.3787 107.909 14.3713 107.454 15.6796C106.533 18.3588 106.098 20.6564 106.148 22.5724C106.199 24.5405 106.75 25.5174 107.802 25.5031C108.844 25.489 110.07 24.5713 111.482 22.75C112.853 20.971 114.029 18.5123 115.01 15.3739C115.396 14.1812 115.715 13.4112 115.966 13.064C116.157 12.801 116.419 12.6673 116.753 12.6627C116.992 12.6595 117.166 12.73 117.274 12.8744C117.382 13.0084 117.441 13.2732 117.451 13.6689C117.444 13.794 117.359 14.1597 117.198 14.7661C116.626 17.2218 116.368 19.5378 116.425 21.7142C116.495 24.4112 116.983 26.1702 117.89 26.9913C118.018 27.1145 118.121 27.2329 118.196 27.3465C118.282 27.4495 118.337 27.5269 118.359 27.5787C118.391 27.6303 118.408 27.6613 118.408 27.6718C118.412 27.8175 118.27 27.9809 117.983 28.1619C117.624 28.3855 117.309 28.4992 117.039 28.5028C116.487 28.5103 116.005 28.0325 115.595 27.0693C115.14 25.9921 114.884 24.3706 114.828 22.2046L114.814 21.6579C114.809 21.4913 114.81 21.3194 114.816 21.1423L114.866 19.4541ZM127.586 6.1094C127.689 6.08716 127.891 6.03755 128.191 5.96056C128.502 5.88343 128.709 5.83374 128.813 5.8115C129.094 6.20353 129.287 6.63841 129.393 7.11614C129.499 7.58346 129.556 8.17124 129.564 8.87948C129.582 9.57716 129.605 10.0456 129.632 10.2848C130.593 10.3864 131.314 10.4599 131.794 10.5055C132.032 10.846 132.349 11.2115 132.745 11.602C133.151 11.9819 133.519 12.3155 133.849 12.6026C134.18 12.8794 134.511 13.2239 134.845 13.636C135.179 14.0482 135.424 14.4667 135.581 14.8917C135.607 15.0893 135.628 15.3025 135.645 15.5315C135.671 15.7603 135.687 15.958 135.691 16.1246C135.706 16.2806 135.711 16.4941 135.708 16.765C135.704 17.0359 135.699 17.2339 135.692 17.359C135.684 17.4737 135.675 17.6925 135.662 18.0156C135.649 18.3283 135.644 18.5263 135.646 18.6096C135.356 19.4781 135.144 20.1321 135.009 20.5714C134.654 21.3262 134.412 21.8556 134.285 22.1594C133.786 23.0203 133.128 23.7376 132.309 24.3112C131.49 24.8744 130.583 25.2513 129.587 25.4419C129.583 26.4732 129.602 27.3949 129.644 28.2068C129.696 29.0186 129.725 29.9349 129.73 30.9557C129.736 31.9869 129.703 32.904 129.63 33.7071L128.764 34.047C128.497 33.3943 128.306 32.6678 128.191 31.8672C128.087 31.0665 128.047 30.3119 128.07 29.6032C128.093 28.8945 128.099 28.1288 128.089 27.306C128.088 26.4831 128.058 25.7231 127.998 25.026C127.282 24.7232 126.616 24.3468 126 23.8968C125.384 23.4468 124.823 22.9388 124.319 22.3727C123.825 21.7961 123.433 21.1504 123.143 20.4355C122.854 19.7103 122.704 18.9623 122.695 18.1916C122.558 17.3601 122.567 16.5006 122.721 15.613C122.886 14.7254 123.172 13.909 123.58 13.1639C123.988 12.4083 124.539 11.7654 125.234 11.2351C125.938 10.6943 126.722 10.3608 127.583 10.2345C127.585 9.92196 127.579 9.48975 127.565 8.93785C127.551 8.37554 127.543 7.86522 127.541 7.4069C127.54 6.94858 127.554 6.51608 127.586 6.1094ZM129.643 11.9097C129.731 17.3253 129.817 21.2356 129.9 23.6408C130.758 23.3687 131.485 22.8641 132.08 22.1268C132.686 21.379 133.148 20.5237 133.467 19.5611C133.505 19.3939 133.575 19.1117 133.68 18.7144C133.784 18.3068 133.859 17.988 133.905 17.7582C133.961 17.5283 134.011 17.2411 134.055 16.8968C134.108 16.5523 134.126 16.2292 134.108 15.9273C134.089 15.6255 134.045 15.3344 133.975 15.0541C133.674 14.6936 133.353 14.3542 133.011 14.0359C132.68 13.7175 132.211 13.3124 131.604 12.8206C130.997 12.3184 130.635 12.016 130.518 11.9135C130.08 11.909 129.789 11.9077 129.643 11.9097ZM126.654 12.3721C126.573 12.467 126.411 12.6307 126.167 12.8631C125.933 13.0851 125.755 13.2646 125.634 13.4016C125.512 13.5283 125.365 13.6969 125.193 13.9076C125.032 14.1077 124.897 14.3127 124.787 14.5225C124.688 14.7218 124.611 14.9364 124.554 15.1663C124.429 15.5638 124.356 15.9711 124.336 16.388C124.315 16.805 124.353 17.2628 124.449 17.7615C124.556 18.2497 124.649 18.639 124.73 18.9296C124.82 19.2096 124.956 19.6297 125.138 20.1897C125.414 20.8214 125.788 21.3684 126.259 21.8308C126.739 22.293 127.295 22.6396 127.927 22.8707C127.913 21.5583 127.827 18.0126 127.666 12.2334C127.573 12.2451 127.396 12.2735 127.137 12.3187C126.888 12.3533 126.727 12.3712 126.654 12.3721ZM150.456 18.9712L149.713 20.4344C148.606 22.762 147.465 24.5639 146.29 25.8403C145.145 27.085 144.046 27.7145 142.994 27.7288C142.421 27.7366 141.807 27.3699 141.153 26.6288C140.487 25.867 140.133 24.6634 140.09 23.0181C140.054 21.6228 140.323 19.541 140.897 16.7727C141.379 14.4849 141.618 12.8462 141.613 11.8567C141.831 11.4266 142.17 11.2085 142.628 11.2023C142.94 11.198 143.193 11.304 143.386 11.5201C143.59 11.7465 143.695 11.9795 143.701 12.219C143.719 12.8958 143.5 13.8884 143.044 15.1967C142.124 17.8759 141.688 20.1735 141.738 22.0895C141.789 24.0576 142.341 25.0345 143.393 25.0202C144.434 25.0061 145.661 24.0884 147.072 22.2671C148.443 20.4881 149.619 18.0294 150.601 14.891C150.986 13.6983 151.305 12.9283 151.557 12.5812C151.748 12.3181 152.01 12.1844 152.343 12.1799C152.583 12.1766 152.756 12.2472 152.864 12.3915C152.972 12.5255 153.031 12.7903 153.041 13.186C153.034 13.3111 152.95 13.6769 152.788 14.2832C152.217 16.7389 151.959 19.055 152.015 21.2313C152.085 23.9283 152.574 25.6874 153.481 26.5084C153.609 26.6317 153.711 26.7501 153.787 26.8636C153.873 26.9666 153.927 27.044 153.949 27.0958C153.982 27.1474 153.998 27.1785 153.998 27.1889C154.002 27.3347 153.861 27.498 153.574 27.679C153.215 27.9026 152.9 28.0163 152.629 28.02C152.077 28.0275 151.596 27.5496 151.185 26.5864C150.73 25.5092 150.474 23.8877 150.418 21.7217L150.404 21.1751C150.4 21.0084 150.401 20.8366 150.406 20.6594L150.456 18.9712ZM160.447 19.1169L160.929 19.0322C163.282 18.5524 165.333 16.8787 167.082 14.0112C167.862 12.7506 168.563 11.8556 169.185 11.3263C169.797 10.8389 170.447 10.5905 171.135 10.5811C171.343 10.5783 171.57 10.6846 171.815 10.9C172.049 11.0948 172.17 11.3275 172.177 11.5983C172.185 11.9106 171.802 12.1919 171.027 12.442C170.469 12.6266 169.95 12.9254 169.471 13.3381C169.024 13.7504 168.242 14.7298 167.125 16.2762C166.3 17.4229 165.561 18.2298 164.906 18.697C164.896 18.6971 164.88 18.7026 164.86 18.7133C164.849 18.7238 164.834 18.7344 164.814 18.7451C164.803 18.7557 164.788 18.7715 164.768 18.7926C164.748 18.8137 164.727 18.8349 164.707 18.856C164.697 18.8769 164.682 18.9032 164.662 18.9347C164.653 18.9661 164.643 19.0027 164.634 19.0445C164.635 19.0861 164.636 19.1278 164.637 19.1694C164.638 19.2215 164.64 19.2683 164.641 19.31C164.652 19.3411 164.663 19.3722 164.674 19.4033C164.696 19.4342 164.712 19.4653 164.724 19.4964C164.745 19.5169 164.761 19.5375 164.772 19.5582C164.793 19.5683 164.814 19.5837 164.836 19.6042C164.867 19.6142 164.888 19.6243 164.899 19.6346C164.91 19.6449 164.926 19.6551 164.947 19.6652C164.968 19.6754 164.978 19.6804 164.978 19.6804C165.624 20.0675 166.322 20.8497 167.071 22.0271C168.254 23.8548 169.17 25.0143 169.818 25.5055C170.519 26.0168 171.307 26.2665 172.182 26.2547L172.713 26.2318C172.765 26.2311 172.807 26.2306 172.838 26.2301C172.849 26.2612 172.855 26.2924 172.856 26.3236C172.863 26.6048 172.689 26.9249 172.334 27.2839C171.968 27.643 171.322 27.8289 170.395 27.8414C169.707 27.8508 169.043 27.5369 168.401 26.8997C167.727 26.2109 166.947 25.0809 166.062 23.5095C165.527 22.5376 165.023 21.7944 164.551 21.28C164.036 20.714 163.466 20.4353 162.841 20.4438C162.696 20.4458 162.318 20.5655 161.71 20.8029C161.452 20.9002 161.251 20.981 161.107 21.0455C160.973 21.0994 160.834 21.1846 160.691 21.3011C160.559 21.4175 160.463 21.549 160.405 21.6956C160.317 21.9468 160.275 22.7287 160.278 24.0411C160.269 25.3017 160.274 26.3173 160.294 27.0878C160.302 27.369 160.173 27.6312 159.908 27.8743C159.623 28.1178 159.314 28.2418 158.98 28.2463C158.657 28.2507 158.405 28.1656 158.224 27.9909C158.042 27.8059 157.948 27.6249 157.944 27.4479C157.934 27.0834 158.052 26.1807 158.295 24.7399C158.726 22.0465 159.111 17.6246 159.452 11.474C159.471 10.9946 159.642 10.56 159.965 10.1702C160.268 9.80146 160.602 9.61464 160.966 9.60969C161.091 9.608 161.208 9.68975 161.316 9.85495C161.458 10.0822 161.533 10.3885 161.543 10.7738C161.552 11.107 161.51 11.4878 161.417 11.9161C160.869 14.1111 160.552 16.3446 160.465 18.6166L160.447 19.1169ZM185.503 22.2457C185.394 22.0597 185.28 21.879 185.161 21.7035C185.009 21.466 184.836 21.2235 184.642 20.9762C184.469 20.7389 184.064 20.359 183.425 19.8364C182.86 19.3545 182.488 19.0835 182.31 19.0234C182.162 18.9629 181.886 18.9562 181.481 19.0034C181.034 19.0511 180.641 19.1502 180.301 19.3007C179.919 19.4517 179.626 19.6015 179.422 19.7501C179.227 19.8881 179.049 20.0364 178.886 20.1949C178.743 20.301 178.546 20.5484 178.296 20.9373C178.025 21.3264 177.86 21.6046 177.802 21.7721C177.744 21.9604 177.688 22.2059 177.633 22.5088C177.599 22.8113 177.595 23.0458 177.62 23.2121C177.625 23.3787 177.694 23.659 177.83 24.053C177.964 24.4158 178.101 24.6795 178.241 24.8443C178.413 25.0503 178.578 25.1939 178.737 25.2751C178.885 25.3772 179.044 25.4793 179.213 25.5811C179.393 25.6724 179.677 25.778 180.066 25.8977C180.412 25.9972 180.71 26.0504 180.961 26.0574C181.242 26.0536 181.475 26.014 181.661 25.9386C181.868 25.8941 182.08 25.8183 182.296 25.7112C182.522 25.6039 182.753 25.4758 182.989 25.3268C183.173 25.1993 183.519 24.8717 184.026 24.3439C184.502 23.8062 184.79 23.4638 184.89 23.3166C184.99 23.1485 185.08 22.9859 185.159 22.8285C185.27 22.6812 185.385 22.4869 185.503 22.2457ZM187.026 23.0845C186.886 23.326 186.776 23.5202 186.697 23.6671C186.618 23.8348 186.503 24.0291 186.353 24.2499C186.213 24.4914 185.859 24.9232 185.292 25.5455C184.714 26.168 184.267 26.5803 183.949 26.7825C183.652 26.9741 183.349 27.1396 183.04 27.2792C182.741 27.4291 182.447 27.5477 182.158 27.635C181.837 27.7226 181.463 27.7694 181.036 27.7752C180.589 27.8021 180.097 27.7254 179.561 27.5452C179.068 27.406 178.694 27.2653 178.441 27.1229C178.198 26.9908 177.954 26.8378 177.71 26.664C177.466 26.5007 177.215 26.2593 176.956 25.9399C176.645 25.6003 176.399 25.1558 176.219 24.6061C176.038 24.0773 175.928 23.6517 175.888 23.3293C175.86 23.0276 175.877 22.668 175.939 22.2505C176.011 21.8433 176.096 21.4879 176.192 21.1845C176.289 20.8812 176.502 20.472 176.832 19.9571C177.164 19.463 177.461 19.0996 177.726 18.8668C177.961 18.6761 178.212 18.4957 178.478 18.3254C178.755 18.1445 179.114 17.9417 179.556 17.717C180.061 17.5018 180.636 17.3534 181.28 17.2717C181.934 17.2003 182.467 17.24 182.877 17.3907C183.245 17.5107 183.823 17.9039 184.611 18.5703C184.476 18.1659 184.368 17.8392 184.289 17.5903C184.154 17.2275 183.96 16.7718 183.706 16.2232C183.432 15.6956 183.197 15.2821 183.002 14.9827C182.807 14.6832 182.587 14.431 182.342 14.226C182.149 14.0411 181.784 13.8117 181.245 13.5377C180.707 13.2638 180.244 13.0878 179.856 13.0097C179.428 12.953 179.083 12.916 178.822 12.8987C178.561 12.9023 178.307 12.9162 178.057 12.9404C177.849 12.964 177.467 13.0942 176.911 13.3309C176.509 13.5031 176.247 13.6472 176.125 13.7635L175.944 14.0159C175.824 14.2051 175.645 14.3273 175.406 14.3826C175.178 14.4274 174.958 14.3835 174.746 14.2509C174.545 14.1078 174.415 13.9221 174.357 13.6937C174.309 13.4548 174.361 13.2405 174.512 13.051L174.692 12.7673C174.923 12.4204 175.425 12.0802 176.198 11.7468C176.919 11.435 177.472 11.2556 177.856 11.2087C178.178 11.1835 178.506 11.1686 178.839 11.1641C179.184 11.1803 179.622 11.2264 180.156 11.3025C180.711 11.3991 181.331 11.6251 182.018 11.9804C182.704 12.3356 183.208 12.6726 183.529 12.9911C183.838 13.289 184.139 13.6287 184.43 14.0102C184.701 14.3919 184.979 14.8882 185.266 15.4989C185.563 16.1094 185.78 16.6273 185.916 17.0526C186.051 17.457 186.233 18.0326 186.461 18.7796C186.688 19.5265 186.853 20.0451 186.954 20.3354C187.066 20.636 187.168 20.9575 187.261 21.3C187.363 21.632 187.437 21.8653 187.482 22.0001L187.483 22.0314C187.591 22.1966 187.566 22.4313 187.407 22.7355L187.026 23.0845ZM190.769 11.9554C190.878 11.7456 191.042 11.6079 191.259 11.5425C191.486 11.4769 191.706 11.5 191.917 11.6117C192.139 11.7233 192.283 11.888 192.352 12.1058L192.488 12.5571C192.603 12.9409 192.645 13.3883 192.617 13.8991C192.607 14.3263 192.614 14.9877 192.637 15.8832C192.639 16.7582 192.644 17.3519 192.652 17.6643C192.681 17.9868 192.711 18.3302 192.741 18.6944C192.745 18.8193 192.759 18.9806 192.785 19.1781C192.862 18.9375 192.954 18.655 193.06 18.3307C193.32 17.4938 193.608 16.7711 193.926 16.1626C194.254 15.554 194.524 15.118 194.736 14.8547C194.917 14.5919 195.225 14.2387 195.662 13.7953C196.139 13.2992 196.587 12.9181 197.008 12.652C197.427 12.3651 197.839 12.1668 198.243 12.0571C198.666 11.9264 199.04 11.8692 199.363 11.8857C199.708 11.9018 200.07 12.0011 200.45 12.1834C200.819 12.3659 201.09 12.5758 201.263 12.813C201.414 13.0193 201.628 13.4435 201.905 14.0856C202.129 14.6763 202.282 15.143 202.364 15.4856C202.435 15.8284 202.531 16.3167 202.652 16.9505C202.7 17.1894 202.752 17.4127 202.81 17.6202C202.925 17.2541 203.137 16.7616 203.444 16.1429C203.789 15.409 204.052 14.9106 204.233 14.6478C204.414 14.3745 204.661 14.0586 204.974 13.7002C205.329 13.31 205.639 13.0245 205.906 12.8438C206.181 12.6317 206.511 12.471 206.893 12.3616C207.4 12.2297 207.923 12.2956 208.461 12.5591C208.978 12.8125 209.384 13.182 209.678 13.6676C209.876 14.0712 210.026 14.4181 210.127 14.7084C210.197 14.9887 210.305 15.5341 210.451 16.3447C210.618 17.1758 210.722 17.7837 210.764 18.1686C210.815 18.5429 210.892 19.1044 210.995 19.853C211.077 20.6019 211.145 21.2312 211.2 21.7408C211.255 22.2505 211.289 22.7605 211.302 23.2707C211.336 23.7599 211.368 24.1865 211.398 24.5507C211.428 24.9149 211.456 25.1801 211.481 25.3465L211.519 25.6116C211.546 25.8508 211.489 26.0599 211.348 26.2389C211.207 26.4179 211.017 26.5194 210.778 26.5435C210.549 26.5675 210.339 26.5078 210.148 26.3646C209.967 26.2108 209.852 26.0196 209.805 25.7911L209.799 25.5568C209.773 25.3696 209.734 25.0837 209.683 24.699C209.652 24.314 209.614 23.8561 209.569 23.3255C209.556 22.8361 209.523 22.3469 209.468 21.8581C209.414 21.3692 209.346 20.766 209.265 20.0483C209.184 19.3202 209.117 18.7638 209.066 18.3791C209.014 18.0152 208.911 17.4385 208.755 16.6489C208.609 15.8592 208.503 15.3607 208.435 15.1533C208.389 14.9872 208.3 14.7645 208.167 14.485C208.08 14.3195 207.936 14.1913 207.735 14.1002C207.588 14.0189 207.483 13.9891 207.421 14.0108C207.234 14.0549 207.075 14.13 206.942 14.236C206.758 14.3635 206.539 14.5696 206.286 14.8543C205.992 15.1604 205.78 15.4185 205.65 15.6286C205.519 15.8282 205.296 16.2584 204.98 16.9189C204.663 17.569 204.467 18.0301 204.39 18.3019C204.315 18.605 204.212 19.0596 204.082 19.6655C203.962 20.2609 203.869 20.8768 203.802 21.5131C203.716 22.2434 203.665 22.6816 203.648 22.8277C203.613 23.0678 203.553 23.3707 203.469 23.7364C203.395 24.102 203.339 24.3684 203.302 24.5355C203.281 24.5358 203.26 24.5465 203.24 24.5676C203.22 24.5887 203.174 24.6154 203.102 24.6476C203.029 24.6799 202.952 24.7122 202.87 24.7445C202.798 24.7768 202.71 24.8092 202.606 24.8419C202.503 24.8745 202.405 24.8967 202.311 24.9084C202.228 24.9199 202.145 24.9262 202.062 24.9274C201.978 24.9285 201.9 24.9139 201.826 24.8837C201.752 24.8534 201.689 24.8074 201.635 24.7457C201.592 24.6837 201.569 24.6007 201.566 24.4966C201.562 24.33 201.554 24.2415 201.544 24.2313C201.533 24.2106 201.537 24.1793 201.557 24.1373C201.576 24.0954 201.601 24.0326 201.63 23.9488C201.667 23.7608 201.692 23.5365 201.706 23.2759C201.72 22.9945 201.721 22.6195 201.708 22.1509C201.675 21.6826 201.62 21.1625 201.543 20.5906C201.444 19.9982 201.352 19.4421 201.265 18.9225C201.19 18.4339 201.092 17.8779 200.972 17.2545C200.851 16.6208 200.751 16.169 200.671 15.8992C200.623 15.6395 200.498 15.2453 200.296 14.7168C200.14 14.2918 200.013 14.0175 199.916 13.8938C199.873 13.8527 199.788 13.7862 199.66 13.6942C199.534 13.6334 199.413 13.6038 199.299 13.6053C199.194 13.5859 199.028 13.6194 198.801 13.7058C198.521 13.7721 198.233 13.9062 197.936 14.1082C197.639 14.2997 197.308 14.5907 196.943 14.981C196.527 15.393 196.248 15.7092 196.108 15.9299C195.967 16.0985 195.757 16.4451 195.479 16.9697C195.2 17.4943 194.941 18.1333 194.7 18.8865C194.439 19.6609 194.276 20.21 194.211 20.5338C194.156 20.8158 194.071 21.3378 193.955 22.0998C193.871 22.8718 193.817 23.409 193.794 23.7114C193.77 24.0034 193.754 24.3838 193.745 24.8527C193.736 25.3216 193.735 25.6549 193.74 25.8528C193.741 25.8944 193.747 25.9412 193.759 25.9932C193.771 26.0451 193.789 26.149 193.814 26.3049C193.839 26.4504 193.81 26.5602 193.729 26.6342C193.658 26.7081 193.55 26.7825 193.406 26.8573C193.262 26.9322 193.028 26.9302 192.703 26.8513C192.274 26.7737 192 26.6525 191.881 26.4874C191.762 26.3119 191.752 26.161 191.853 26.0346L191.974 25.8455C191.946 25.5855 191.919 25.3619 191.894 25.1747C191.867 24.9667 191.815 24.5612 191.737 23.9581C191.659 23.3549 191.59 22.8923 191.529 22.5702C191.479 22.2376 191.39 21.6242 191.263 20.7301C191.135 19.836 191.056 19.1964 191.025 18.8114C190.995 18.4472 190.965 18.0934 190.935 17.7501C190.926 17.4065 190.92 16.7815 190.918 15.8753C190.894 14.9589 190.887 14.2715 190.896 13.8131C190.908 13.49 190.891 13.2246 190.844 13.0169L190.708 12.6125C190.639 12.3738 190.66 12.1548 190.769 11.9554ZM21.7697 36.5611C21.599 36.4072 21.5105 36.2105 21.5043 35.971C21.4978 35.7211 21.5758 35.5117 21.7381 35.3428C21.9002 35.1635 22.101 35.0723 22.3405 35.069L22.6842 35.0643C22.9238 35.0611 23.2568 35.0462 23.6833 35.0195C24.1301 34.9718 24.4369 34.9468 24.6035 34.9445C24.7696 34.9215 25.0714 34.9069 25.5089 34.901C25.9562 34.8741 26.5082 34.8666 27.165 34.8785C27.8212 34.8696 28.3005 34.8736 28.6031 34.8903C28.6448 34.8897 28.6969 34.889 28.7594 34.8882C28.8755 34.5428 29.1207 34.3572 29.4951 34.3313C29.9216 34.3047 30.2131 34.4934 30.3694 34.8976C30.859 34.8909 31.3899 34.8733 31.9622 34.8447C32.7111 34.7929 33.2257 34.7494 33.5061 34.7144C33.7969 34.6792 34.0617 34.6443 34.3005 34.6099C34.5494 34.5648 34.8969 34.508 35.3432 34.4395C35.8097 34.3498 36.1623 34.2825 36.4007 34.2376L36.7897 34.1698C36.9975 34.1462 37.2021 34.2007 37.4035 34.3334C37.6153 34.4659 37.74 34.6517 37.7774 34.8908C37.8146 35.1195 37.7629 35.3337 37.6222 35.5336C37.4916 35.7228 37.3123 35.8398 37.0843 35.8846L36.7257 35.9207C36.4872 35.9656 36.1401 36.038 35.6842 36.138C35.2177 36.2276 34.8494 36.2899 34.5794 36.3248C34.3198 36.3596 34.0342 36.3947 33.7225 36.4302C33.4109 36.4657 32.8598 36.5096 32.0693 36.562C31.5178 36.5903 31.0077 36.6077 30.539 36.614C30.5906 36.9988 30.6204 37.3421 30.6282 37.6441C30.659 38.0291 30.7293 38.7313 30.8391 39.7506C30.9281 40.7703 31.0483 41.9874 31.1996 43.4021C31.3194 44.8067 31.4066 45.7587 31.4612 46.2579C31.5158 46.7572 31.5912 47.4541 31.6874 48.3486C31.7939 49.243 31.8999 50.1166 32.0054 50.9694C32.1317 51.8218 32.2083 52.3625 32.235 52.5913C32.2631 52.8722 32.271 53.1741 32.2585 53.4972L32.2378 53.9038C32.244 54.1433 32.1556 54.3476 31.9724 54.5168C31.7994 54.6754 31.593 54.7511 31.3531 54.7439C31.1237 54.7366 30.9234 54.6456 30.7521 54.4708C30.591 54.2855 30.5074 54.0731 30.5012 53.8336L30.5219 53.427C30.5365 53.1873 30.531 52.9738 30.5053 52.7866C30.4782 52.5474 30.412 52.0014 30.3065 51.1487C30.201 50.2959 30.095 49.4224 29.9884 48.5279C29.8819 47.6335 29.7959 46.9316 29.7306 46.422C29.6757 45.9124 29.5881 44.9448 29.4678 43.5193C29.3277 42.1358 29.2136 40.9498 29.1254 39.9614C29.0354 38.9001 28.9642 38.1667 28.912 37.7611C28.9037 37.4383 28.8676 37.0534 28.8039 36.6063C28.7206 36.6075 28.6477 36.6085 28.5852 36.6093C28.3035 36.5923 27.8345 36.5882 27.1783 36.5971C26.5424 36.5849 26.0216 36.592 25.6159 36.6183C25.2097 36.6238 24.9183 36.6382 24.7418 36.6614C24.5752 36.6637 24.2684 36.6887 23.8217 36.7364C23.3743 36.7633 23.0205 36.7786 22.7601 36.7821L22.3851 36.7872C22.1455 36.7904 21.9404 36.7151 21.7697 36.5611ZM42.9588 55.0865C42.7537 55.2142 42.5356 55.2432 42.3046 55.1735C42.0843 55.1139 41.9089 54.9809 41.7785 54.7743C41.6583 54.5572 41.6319 54.344 41.6994 54.1348L41.8134 53.7113C41.8502 53.5233 41.8735 53.2157 41.8833 52.7885C41.8914 52.2988 41.8945 51.8144 41.8925 51.3352C41.8904 50.8561 41.8803 50.2625 41.8619 49.5544C41.8435 48.8463 41.8031 48.0916 41.7406 47.2904C41.6779 46.4787 41.6409 45.8542 41.6295 45.4168C41.6182 44.9795 41.5876 44.2038 41.5379 43.0899C41.489 42.0072 41.4537 41.0494 41.4321 40.2163C41.4105 39.3833 41.3924 38.6856 41.3778 38.1233C41.3632 37.561 41.348 36.9726 41.332 36.3582C41.3158 35.7334 41.3123 35.197 41.3215 34.749C41.3099 34.3012 41.3109 33.9366 41.3244 33.6552L41.3459 33.2799C41.3606 33.0401 41.4597 32.846 41.6434 32.6977C41.8373 32.5388 42.0489 32.463 42.2783 32.4703C42.5181 32.4775 42.7135 32.579 42.8645 32.7749C43.0256 32.9602 43.0936 33.1728 43.0686 33.4128L43.0471 33.788C43.0324 34.0278 43.0307 34.3612 43.0417 34.7881C43.032 35.2154 43.0348 35.7257 43.0502 36.3193C43.0661 36.9337 43.0815 37.5272 43.0964 38.0999C43.111 38.6623 43.1288 39.3495 43.1499 40.1618C43.171 40.974 43.2054 41.9006 43.2533 42.9416C43.4137 42.6999 43.6198 42.4106 43.8715 42.0739C44.2239 41.6003 44.5867 41.1266 44.96 40.6528C45.3332 40.179 45.6709 39.7421 45.9731 39.3422C46.2857 38.9421 46.6489 38.484 47.0628 37.968C47.4563 37.4731 47.8292 36.9888 48.1816 36.5153C48.534 36.0418 48.8 35.6527 48.9797 35.3482C49.139 35.0648 49.3035 34.7761 49.473 34.4821C49.4511 34.4408 49.4183 34.3839 49.3748 34.3116C49.2852 34.0732 49.2898 33.8492 49.3886 33.6395C49.4874 33.4298 49.645 33.2819 49.8616 33.1956L50.1704 33.0508C50.5109 32.9211 50.8468 33.0155 51.178 33.334C51.5197 33.6523 51.6222 33.9894 51.4856 34.3454C51.3876 34.5864 51.234 34.8905 51.0248 35.258C50.8462 35.6041 50.6516 35.9349 50.441 36.2503C50.2416 36.5967 49.9555 37.0173 49.5828 37.5119C49.231 38.0063 48.8484 38.5219 48.4352 39.0588C48.0213 39.5748 47.658 40.0277 47.3451 40.4173C47.0426 40.8069 46.7048 41.2385 46.3315 41.7124C45.9583 42.1862 45.6057 42.6493 45.2736 43.1017C45.2127 43.1651 45.1626 43.2439 45.1234 43.3382C45.2938 43.4817 45.4492 43.6462 45.5894 43.8318C45.7399 44.0069 45.9281 44.2335 46.1541 44.5117C46.3483 44.7695 46.5797 45.0528 46.8482 45.3617C47.1175 45.7018 47.3275 45.9645 47.4782 46.15C47.5867 46.3152 47.818 46.5985 48.1723 47C48.5057 47.4017 48.9257 47.9273 49.4323 48.5766C49.9385 49.2156 50.2892 49.6796 50.4842 49.9686C50.679 50.2473 50.955 50.6446 51.3123 51.1606C51.6692 51.6661 51.9938 52.1305 52.2861 52.5536C52.5362 52.9565 52.7098 53.2198 52.8068 53.3434L52.9835 53.5285C53.1133 53.7143 53.1659 53.9323 53.1411 54.1827C53.1163 54.433 53.0068 54.6272 52.8124 54.7653C52.6284 54.9032 52.4162 54.9581 52.1759 54.9301C51.9459 54.902 51.7504 54.7953 51.5893 54.61L51.427 54.3778C51.319 54.2334 51.1186 53.9393 50.8258 53.4953C50.5543 53.0719 50.2455 52.6126 49.8992 52.1172C49.5633 51.6218 49.2931 51.2452 49.0884 50.9876C48.8939 50.7194 48.5489 50.271 48.0533 49.6422C47.5574 49.0031 47.148 48.4826 46.825 48.0808C46.4702 47.6585 46.2229 47.365 46.0832 47.2002C45.9539 47.0353 45.7599 46.7879 45.5013 46.4581C45.232 46.118 44.9897 45.814 44.7743 45.546C44.5795 45.2674 44.4123 45.0457 44.2726 44.881C44.2293 44.8191 44.1759 44.7677 44.1123 44.7269C44.0722 44.7899 44.027 44.8531 43.9765 44.9162L43.7342 45.2164C43.6328 45.3219 43.5048 45.407 43.3501 45.4716C43.382 45.8983 43.4231 46.4759 43.4732 47.2044C43.536 48.016 43.5769 48.7915 43.5961 49.5308C43.615 50.2598 43.6256 50.869 43.6279 51.3586C43.6302 51.8481 43.6272 52.3378 43.6191 52.8275C43.6126 53.3796 43.5669 53.8282 43.4821 54.1731L43.368 54.5965C43.311 54.8056 43.1745 54.9689 42.9588 55.0865ZM56.2978 36.0927C56.1271 35.9387 56.0386 35.742 56.0324 35.5025C56.0259 35.2526 56.1038 35.0432 56.2662 34.8743C56.4282 34.6951 56.629 34.6038 56.8686 34.6005L57.2123 34.5959C57.4519 34.5926 57.7849 34.5777 58.2114 34.5511C58.6582 34.5033 58.9649 34.4783 59.1316 34.4761C59.2977 34.453 59.5995 34.4385 60.0369 34.4326C60.4843 34.4056 61.0363 34.3982 61.693 34.4101C62.3492 34.4012 62.8286 34.4051 63.1312 34.4218C63.1729 34.4213 63.225 34.4205 63.2874 34.4197C63.4035 34.0744 63.6488 33.8887 64.0232 33.8628C64.4497 33.8362 64.7411 34.025 64.8975 34.4291C65.387 34.4225 65.918 34.4048 66.4903 34.3762C67.2391 34.3244 67.7538 34.281 68.0342 34.2459C68.325 34.2107 68.5898 34.1759 68.8285 34.1414C69.0774 34.0963 69.425 34.0395 69.8713 33.971C70.3378 33.8813 70.6903 33.814 70.9288 33.7691L71.3178 33.7014C71.5256 33.6777 71.7301 33.7322 71.9316 33.8649C72.1434 33.9975 72.268 34.1833 72.3055 34.4223C72.3427 34.651 72.2909 34.8653 72.1502 35.0651C72.0197 35.2544 71.8404 35.3714 71.6123 35.4161L71.2538 35.4523C71.0153 35.4972 70.6681 35.5696 70.2123 35.6695C69.7457 35.7592 69.3775 35.8215 69.1075 35.8564C68.8479 35.8912 68.5623 35.9263 68.2506 35.9618C67.9389 35.9972 67.3879 36.0412 66.5973 36.0936C66.0459 36.1219 65.5358 36.1392 65.067 36.1456C65.1187 36.5303 65.1484 36.8737 65.1563 37.1756C65.1871 37.5606 65.2574 38.2628 65.3672 39.2822C65.4562 40.3018 65.5763 41.519 65.7276 42.9336C65.8474 44.3382 65.9346 45.2902 65.9893 45.7895C66.0439 46.2887 66.1193 46.9856 66.2154 47.8802C66.322 48.7746 66.428 49.6482 66.5335 50.5009C66.6598 51.3534 66.7363 51.894 66.7631 52.1228C66.7912 52.4037 66.7991 52.7057 66.7866 53.0288L66.7659 53.4353C66.7721 53.6748 66.6836 53.8791 66.5005 54.0483C66.3274 54.2069 66.121 54.2826 65.8812 54.2754C65.6518 54.2681 65.4514 54.1771 65.2802 54.0023C65.1191 53.817 65.0355 53.6046 65.0292 53.3651L65.05 52.9586C65.0646 52.7188 65.059 52.5053 65.0333 52.3182C65.0063 52.0789 64.94 51.533 64.8346 50.6802C64.7291 49.8275 64.6231 48.9539 64.5165 48.0595C64.41 47.1651 64.324 46.4631 64.2587 45.9536C64.2038 45.4439 64.1162 44.4763 63.9959 43.0508C63.8558 41.6673 63.7416 40.4813 63.6535 39.4929C63.5634 38.4316 63.4923 37.6982 63.4401 37.2927C63.4317 36.9699 63.3957 36.5849 63.332 36.1379C63.2487 36.139 63.1758 36.14 63.1133 36.1408C62.8315 36.1238 62.3625 36.1198 61.7064 36.1287C61.0705 36.1165 60.5497 36.1235 60.144 36.1499C59.7378 36.1554 59.4464 36.1698 59.2699 36.193C59.1032 36.1952 58.7965 36.2202 58.3497 36.268C57.9024 36.2949 57.5485 36.3101 57.2881 36.3136L56.9132 36.3187C56.6736 36.322 56.4685 36.2466 56.2978 36.0927ZM105.334 35.1774C105.433 35.3948 105.444 35.6186 105.367 35.8488C105.289 36.0686 105.142 36.2321 104.926 36.3392C104.72 36.4357 104.502 36.4439 104.27 36.3637L103.592 36.1073C103.139 35.9467 102.803 35.8367 102.583 35.7772C102.394 35.7173 102.027 35.6233 101.482 35.4953C100.968 35.3981 100.352 35.3439 99.6331 35.3328C98.9034 35.3219 98.3983 35.3288 98.1176 35.3534C97.8583 35.3986 97.4605 35.529 96.9243 35.7446C96.4188 35.939 95.9012 36.2689 95.3714 36.7344C94.8107 37.2108 94.3651 37.7064 94.0347 38.2214C93.6833 38.7365 93.4438 39.1408 93.3159 39.4342C93.1881 39.7277 93.0002 40.3188 92.7524 41.2075C92.515 42.0962 92.3644 42.718 92.3007 43.0731C92.2482 43.4592 92.2164 44.043 92.2054 44.8244C92.1944 45.6058 92.2169 46.2722 92.2729 46.8235C92.3278 47.3332 92.4527 47.9305 92.6476 48.6153C92.8307 49.2483 92.9882 49.6941 93.1199 49.9527C93.2618 50.2008 93.5955 50.6129 94.121 51.1891C94.604 51.7347 95.0938 52.1395 95.5904 52.4036C96.0872 52.6781 96.4669 52.8552 96.7294 52.935C97.0337 53.0142 97.4054 53.0873 97.8448 53.1543C98.2948 53.2315 98.8112 53.2557 99.394 53.227C100.008 53.2187 100.549 53.1801 101.016 53.1112C101.463 53.0427 101.794 52.9705 102.011 52.8946C102.176 52.8299 102.33 52.7549 102.474 52.6696L102.798 52.5089C102.982 52.3814 103.19 52.3422 103.42 52.3911C103.661 52.4399 103.847 52.5676 103.977 52.7742C104.118 52.9702 104.16 53.1884 104.104 53.4287C104.047 53.6587 103.921 53.8375 103.727 53.9651L103.419 54.1568C103.142 54.3064 102.843 54.4406 102.523 54.5596C102.244 54.6467 101.829 54.7252 101.279 54.7952C100.75 54.8857 100.147 54.9356 99.4698 54.9447C98.7829 54.9749 98.1623 54.9521 97.6081 54.8763C97.0742 54.7793 96.6341 54.6811 96.2877 54.5817C95.8996 54.4828 95.3938 54.2657 94.7704 53.9304C94.1256 53.5745 93.4812 53.0364 92.8374 52.3159C92.2259 51.6367 91.8166 51.1214 91.6095 50.7701C91.4125 50.4082 91.2048 49.8328 90.9864 49.0441C90.7581 48.2764 90.6149 47.5752 90.5568 46.9405C90.4992 46.3267 90.4804 45.603 90.5004 44.7694C90.5205 43.9358 90.556 43.2947 90.6068 42.8461C90.6577 42.3974 90.8164 41.6869 91.0829 40.7146C91.3599 39.742 91.5769 39.0724 91.7341 38.7057C91.9017 38.3388 92.1914 37.8557 92.603 37.2564C93.0136 36.6154 93.5553 36.0091 94.2281 35.4374C94.9215 34.8551 95.6034 34.4292 96.2736 34.1597C96.9231 33.8904 97.4397 33.722 97.8234 33.6543C98.2072 33.5865 98.8161 33.5627 99.6502 33.5826C100.484 33.6025 101.2 33.6866 101.798 33.8347C102.394 33.9308 102.824 34.0187 103.086 34.0985C103.328 34.1785 103.68 34.304 104.143 34.4748L104.822 34.7468C105.064 34.806 105.234 34.9496 105.334 35.1774ZM120.059 49.1341C119.95 48.948 119.836 48.7673 119.717 48.5918C119.564 48.3543 119.391 48.1119 119.198 47.8645C119.025 47.6272 118.619 47.2473 117.98 46.7247C117.415 46.2428 117.044 45.9718 116.865 45.9117C116.718 45.8512 116.441 45.8446 116.036 45.8917C115.589 45.9394 115.196 46.0385 114.856 46.189C114.474 46.34 114.181 46.4898 113.977 46.6384C113.782 46.7765 113.604 46.9247 113.441 47.0832C113.298 47.1893 113.102 47.4368 112.851 47.8256C112.58 48.2147 112.415 48.493 112.357 48.6604C112.299 48.8487 112.243 49.0943 112.189 49.3971C112.155 49.6996 112.15 49.9341 112.176 50.1004C112.18 50.267 112.25 50.5473 112.385 50.9413C112.519 51.3041 112.656 51.5679 112.796 51.7326C112.968 51.9386 113.133 52.0822 113.292 52.1634C113.44 52.2656 113.599 52.3676 113.769 52.4695C113.948 52.5608 114.232 52.6663 114.621 52.786C114.967 52.8855 115.266 52.9387 115.516 52.9458C115.797 52.9419 116.03 52.9023 116.216 52.8269C116.423 52.7824 116.635 52.7066 116.851 52.5995C117.077 52.4923 117.309 52.3641 117.544 52.2151C117.729 52.0876 118.074 51.76 118.582 51.2323C119.057 50.6946 119.345 50.3521 119.446 50.2049C119.546 50.0369 119.635 49.8742 119.714 49.7169C119.825 49.5695 119.94 49.3753 120.059 49.1341ZM121.581 49.9728C121.441 50.2143 121.332 50.4085 121.252 50.5554C121.173 50.7231 121.058 50.9174 120.908 51.1382C120.768 51.3797 120.415 51.8116 119.847 52.4339C119.27 53.0563 118.822 53.4686 118.504 53.6709C118.207 53.8624 117.904 54.028 117.595 54.1676C117.297 54.3175 117.003 54.436 116.713 54.5233C116.393 54.611 116.019 54.6577 115.592 54.6635C115.144 54.6904 114.653 54.6137 114.117 54.4335C113.623 54.2944 113.25 54.1536 112.996 54.0112C112.753 53.8791 112.509 53.7261 112.265 53.5524C112.021 53.389 111.77 53.1476 111.512 52.8282C111.201 52.4887 110.955 52.0441 110.774 51.4945C110.593 50.9656 110.483 50.54 110.444 50.2177C110.415 49.916 110.432 49.5564 110.494 49.1388C110.567 48.7316 110.651 48.3763 110.748 48.0729C110.844 47.7695 111.057 47.3603 111.388 46.8454C111.719 46.3513 112.017 45.9879 112.282 45.7552C112.516 45.5645 112.767 45.384 113.033 45.2137C113.31 45.0329 113.669 44.8301 114.112 44.6053C114.617 44.3901 115.191 44.2417 115.835 44.16C116.49 44.0887 117.022 44.1283 117.432 44.279C117.8 44.399 118.378 44.7922 119.166 45.4586C119.031 45.0542 118.923 44.7275 118.844 44.4786C118.71 44.1158 118.515 43.6601 118.262 43.1115C117.987 42.5839 117.753 42.1705 117.557 41.871C117.362 41.5716 117.142 41.3194 116.897 41.1143C116.705 40.9294 116.339 40.7 115.801 40.4261C115.262 40.1521 114.799 39.9761 114.412 39.898C113.983 39.8414 113.638 39.8044 113.377 39.7871C113.117 39.7906 112.862 39.8045 112.612 39.8287C112.405 39.8524 112.023 39.9825 111.466 40.2193C111.064 40.3914 110.802 40.5356 110.68 40.6518L110.499 40.9043C110.379 41.0934 110.2 41.2156 109.962 41.2709C109.734 41.3157 109.514 41.2718 109.302 41.1393C109.1 40.9962 108.97 40.8104 108.912 40.582C108.864 40.3431 108.916 40.1289 109.067 39.9393L109.248 39.6556C109.478 39.3087 109.98 38.9686 110.753 38.6352C111.474 38.3233 112.027 38.1439 112.411 38.097C112.734 38.0718 113.061 38.057 113.395 38.0524C113.739 38.0686 114.178 38.1147 114.711 38.1908C115.266 38.2875 115.886 38.5134 116.573 38.8687C117.259 39.224 117.763 39.5609 118.084 39.8795C118.394 40.1773 118.694 40.517 118.986 40.8985C119.256 41.2803 119.535 41.7765 119.821 42.3872C120.118 42.9977 120.335 43.5156 120.471 43.9409C120.607 44.3453 120.788 44.921 121.016 45.6679C121.244 46.4148 121.408 46.9334 121.51 47.2237C121.622 47.5243 121.724 47.8458 121.816 48.1883C121.918 48.5203 121.992 48.7537 122.037 48.8885L122.038 48.9197C122.147 49.0849 122.121 49.3196 121.963 49.6239L121.581 49.9728ZM125.309 38.8439C125.418 38.6341 125.581 38.4965 125.798 38.431C126.026 38.3654 126.245 38.3885 126.457 38.5002C126.678 38.6118 126.823 38.7765 126.891 38.9943L127.028 39.4456C127.142 39.8295 127.185 40.2768 127.157 40.7876C127.147 41.2149 127.154 41.8762 127.177 42.7718C127.179 43.6468 127.184 44.2404 127.192 44.5528C127.221 44.8754 127.251 45.2187 127.281 45.5829C127.284 45.7079 127.299 45.8691 127.325 46.0667C127.402 45.8261 127.494 45.5436 127.6 45.2192C127.859 44.3823 128.148 43.6596 128.466 43.0512C128.794 42.4425 129.064 42.0066 129.276 41.7433C129.457 41.4804 129.765 41.1273 130.202 40.6838C130.679 40.1878 131.127 39.8067 131.547 39.5405C131.967 39.2536 132.379 39.0553 132.782 38.9457C133.206 38.8149 133.58 38.7578 133.903 38.7742C134.247 38.7904 134.609 38.8896 134.989 39.072C135.359 39.2545 135.63 39.4643 135.803 39.7016C135.954 39.9079 136.168 40.332 136.445 40.9741C136.669 41.5648 136.822 42.0315 136.903 42.3742C136.975 42.717 137.071 43.2052 137.192 43.839C137.239 44.078 137.292 44.3012 137.35 44.5088C137.465 44.1426 137.676 43.6502 137.983 43.0314C138.329 42.2975 138.592 41.7992 138.773 41.5363C138.953 41.263 139.2 40.9472 139.514 40.5887C139.869 40.1985 140.179 39.913 140.445 39.7323C140.721 39.5203 141.05 39.3595 141.433 39.2502C141.94 39.1183 142.463 39.1841 143.001 39.4476C143.518 39.7011 143.924 40.0706 144.218 40.5562C144.416 40.9597 144.565 41.3067 144.667 41.597C144.736 41.8773 144.844 42.4227 144.99 43.2332C145.158 44.0643 145.262 44.6723 145.303 45.0571C145.355 45.4314 145.432 45.9929 145.535 46.7415C145.617 47.4904 145.685 48.1197 145.74 48.6294C145.795 49.1391 145.829 49.649 145.842 50.1593C145.876 50.6484 145.908 51.0751 145.938 51.4392C145.968 51.8034 145.996 52.0687 146.021 52.235L146.059 52.5001C146.086 52.7393 146.029 52.9484 145.888 53.1274C145.747 53.3064 145.556 53.408 145.317 53.4321C145.089 53.456 144.879 53.3963 144.688 53.2531C144.507 53.0993 144.392 52.9082 144.345 52.6796L144.338 52.4453C144.313 52.2582 144.274 51.9722 144.222 51.5875C144.192 51.2025 144.154 50.7447 144.109 50.214C144.096 49.7246 144.062 49.2355 144.008 48.7466C143.954 48.2578 143.886 47.6545 143.805 46.9369C143.723 46.2088 143.657 45.6524 143.605 45.2677C143.554 44.9038 143.451 44.327 143.295 43.5375C143.149 42.7478 143.042 42.2492 142.975 42.0418C142.929 41.8758 142.839 41.653 142.707 41.3735C142.62 41.2081 142.476 41.0798 142.275 40.9888C142.127 40.9074 142.022 40.8776 141.96 40.8993C141.774 40.9435 141.614 41.0186 141.482 41.1245C141.297 41.252 141.079 41.4581 140.826 41.7428C140.531 42.0489 140.319 42.307 140.189 42.5171C140.059 42.7168 139.836 43.1469 139.519 43.8075C139.203 44.4576 139.006 44.9186 138.93 45.1905C138.855 45.4936 138.752 45.9481 138.622 46.5541C138.502 47.1494 138.408 47.7653 138.341 48.4016C138.256 49.132 138.205 49.5702 138.188 49.7162C138.153 49.9563 138.093 50.2592 138.008 50.6249C137.935 50.9905 137.879 51.2569 137.842 51.4241C137.821 51.4244 137.8 51.4351 137.78 51.4562C137.76 51.4773 137.713 51.504 137.641 51.5362C137.569 51.5684 137.492 51.6007 137.409 51.6331C137.337 51.6653 137.25 51.6977 137.146 51.7304C137.043 51.7631 136.944 51.7852 136.851 51.7969C136.768 51.8085 136.685 51.8148 136.601 51.8159C136.518 51.817 136.44 51.8025 136.366 51.7722C136.292 51.742 136.228 51.696 136.175 51.6342C136.131 51.5723 136.108 51.4893 136.106 51.3851C136.101 51.2185 136.094 51.1301 136.083 51.1198C136.072 51.0991 136.077 51.0678 136.096 51.0259C136.116 50.9839 136.141 50.9211 136.17 50.8374C136.206 50.6494 136.232 50.4251 136.246 50.1645C136.26 49.883 136.26 49.508 136.248 49.0394C136.215 48.5711 136.16 48.051 136.083 47.4791C135.984 46.8867 135.891 46.3307 135.805 45.811C135.73 45.3224 135.632 44.7665 135.512 44.1431C135.391 43.5093 135.291 43.0575 135.211 42.7878C135.162 42.528 135.037 42.1339 134.836 41.6053C134.679 41.1804 134.552 40.906 134.455 40.7824C134.413 40.7413 134.328 40.6747 134.2 40.5827C134.073 40.5219 133.953 40.4923 133.838 40.4939C133.734 40.4744 133.568 40.5079 133.341 40.5944C133.061 40.6607 132.773 40.7948 132.476 40.9967C132.179 41.1883 131.848 41.4792 131.483 41.8696C131.066 42.2815 130.788 42.5978 130.648 42.8184C130.506 42.987 130.296 43.3336 130.018 43.8582C129.74 44.3828 129.481 45.0218 129.24 45.7751C128.978 46.5495 128.816 47.0986 128.751 47.4224C128.696 47.7044 128.61 48.2264 128.495 48.9884C128.411 49.7603 128.357 50.2975 128.333 50.6C128.31 50.8919 128.293 51.2724 128.285 51.7413C128.276 52.2101 128.274 52.5435 128.279 52.7413C128.281 52.783 128.287 52.8298 128.299 52.8817C128.311 52.9336 128.329 53.0375 128.354 53.1935C128.378 53.339 128.35 53.4487 128.269 53.5228C128.197 53.5966 128.09 53.671 127.946 53.7459C127.802 53.8207 127.568 53.8187 127.243 53.7398C126.813 53.6623 126.539 53.541 126.42 53.3759C126.301 53.2005 126.292 53.0496 126.393 52.9232L126.513 52.7341C126.486 52.474 126.459 52.2504 126.433 52.0633C126.407 51.8553 126.355 51.4497 126.277 50.8466C126.199 50.2435 126.129 49.7809 126.069 49.4588C126.018 49.1261 125.93 48.5127 125.802 47.6186C125.675 46.7245 125.596 46.0849 125.565 45.6999C125.535 45.3358 125.505 44.982 125.475 44.6386C125.466 44.295 125.46 43.6701 125.458 42.7638C125.434 41.8475 125.426 41.1601 125.435 40.7016C125.448 40.3785 125.43 40.1131 125.383 39.9054L125.248 39.501C125.179 39.2624 125.199 39.0433 125.309 38.8439ZM150.294 32.0048C150.489 31.8668 150.701 31.817 150.931 31.8556C151.172 31.894 151.363 32.0164 151.503 32.2228C151.654 32.4187 151.712 32.6314 151.676 32.8611L151.579 33.3468C151.525 33.6704 151.462 34.0567 151.391 34.5056C151.338 34.8918 151.304 35.1995 151.29 35.4289C151.276 35.7103 151.264 36.0438 151.253 36.4294C151.242 36.8046 151.242 37.216 151.254 37.6638C151.265 38.1115 151.276 38.5072 151.285 38.8509C151.294 39.1945 151.32 39.6056 151.363 40.0842C151.407 40.5628 151.448 41.1143 151.485 41.7388C151.513 42.0405 151.531 42.3268 151.538 42.5975C151.601 42.5967 151.652 42.5855 151.694 42.5641C151.901 42.5197 152.181 42.4846 152.535 42.459C152.877 42.4127 153.247 42.3868 153.642 42.3814C154.111 42.3543 154.628 42.4097 155.194 42.5479C155.771 42.6859 156.276 42.8718 156.709 43.1055C157.121 43.3395 157.466 43.5692 157.743 43.7946C158.008 43.9993 158.307 44.2817 158.64 44.6418C158.973 45.0227 159.259 45.4147 159.499 45.8177C159.75 46.2622 159.944 46.7283 160.082 47.216C160.22 47.7038 160.292 48.0778 160.299 48.3381C160.303 48.5255 160.3 48.812 160.29 49.1976C160.259 49.6251 160.206 49.9904 160.131 50.2935C160.065 50.5861 159.954 50.9262 159.798 51.3137C159.641 51.7221 159.418 52.1314 159.126 52.5416C158.814 52.9729 158.556 53.2733 158.352 53.4427C158.168 53.5702 157.896 53.725 157.536 53.9069C157.156 54.0996 156.795 54.2451 156.453 54.3435C156.132 54.4104 155.758 54.4467 155.331 54.4525C154.884 54.4794 154.455 54.4383 154.046 54.3293C153.637 54.2307 153.332 54.1254 153.131 54.0136C152.931 53.9017 152.643 53.6764 152.27 53.3377C151.897 53.0199 151.587 52.7168 151.34 52.4285C151.317 52.3663 151.285 52.3094 151.242 52.2579C151.226 52.4456 151.219 52.5968 151.222 52.7113L151.197 52.9304C151.161 53.1705 151.052 53.3647 150.868 53.513C150.695 53.6716 150.488 53.7317 150.247 53.6933C150.017 53.6652 149.822 53.5585 149.661 53.3731C149.51 53.1877 149.447 52.975 149.472 52.7351L149.499 52.5472C149.516 52.422 149.532 52.2082 149.545 51.9059C149.557 51.5828 149.567 51.3483 149.573 51.2024C149.58 51.0461 149.599 50.801 149.632 50.4672C149.665 50.123 149.707 49.7162 149.757 49.2468C149.808 48.7982 149.849 48.3601 149.879 47.9326C149.91 47.5051 149.938 47.1714 149.963 46.9314C149.957 46.7232 149.947 46.3431 149.933 45.7912C149.918 45.2185 149.908 44.8124 149.901 44.5729C149.895 44.3334 149.886 43.9689 149.873 43.4795C149.86 42.9901 149.82 42.4489 149.753 41.8561C149.717 41.2628 149.676 40.7113 149.632 40.2015C149.587 39.6812 149.56 39.2493 149.551 38.9056C149.542 38.5412 149.531 38.1247 149.519 37.6561C149.507 37.1875 149.506 36.75 149.516 36.3436C149.547 35.9369 149.57 35.5981 149.583 35.327C149.597 35.0456 149.634 34.6701 149.695 34.2005C149.767 33.7724 149.83 33.4018 149.885 33.0885L149.965 32.5718C150.001 32.3317 150.11 32.1427 150.294 32.0048ZM151.521 49.1603C151.649 49.2836 151.726 49.4284 151.751 49.5947L151.82 49.8594C151.843 49.9424 151.888 50.0564 151.954 50.2013C152.042 50.3877 152.141 50.5634 152.249 50.7286C152.368 50.8832 152.524 51.0895 152.718 51.3472C152.891 51.5845 153.122 51.8262 153.409 52.0723C153.676 52.3082 153.851 52.4465 153.936 52.487C154.02 52.5275 154.194 52.5877 154.456 52.6674C154.697 52.7267 154.964 52.7439 155.255 52.7191C155.557 52.715 155.811 52.6907 156.019 52.6462C156.226 52.6018 156.458 52.5153 156.715 52.3868C156.993 52.2372 157.182 52.1252 157.285 52.0509C157.366 51.9665 157.502 51.7928 157.693 51.5298C157.925 51.2245 158.1 50.9253 158.217 50.632C158.334 50.3283 158.416 50.0772 158.463 49.8787C158.51 49.6697 158.54 49.4193 158.553 49.1274C158.565 48.7835 158.569 48.5282 158.564 48.3616C158.562 48.2575 158.504 48.0239 158.39 47.6609C158.298 47.3184 158.164 46.9868 157.989 46.6663C157.815 46.3666 157.604 46.0725 157.357 45.7842C157.089 45.5066 156.859 45.2858 156.667 45.1217C156.476 44.9576 156.211 44.7893 155.873 44.6168C155.567 44.4752 155.214 44.3393 154.815 44.2093C154.385 44.111 154.02 44.0743 153.718 44.0992C153.354 44.1041 153.026 44.119 152.735 44.1438C152.455 44.1893 152.242 44.2234 152.097 44.2462C152.014 44.2682 151.895 44.3166 151.741 44.3916L151.618 44.4558C151.618 44.4767 151.619 44.4975 151.619 44.5183L151.62 44.5495C151.626 44.789 151.637 45.1952 151.652 45.7679C151.667 46.3614 151.678 46.7832 151.684 47.0331C151.67 47.2729 151.647 47.6169 151.617 48.0653C151.585 48.4095 151.552 48.7745 151.521 49.1603ZM165.416 44.3624C165.419 44.5082 165.433 44.633 165.457 44.7368C165.682 44.1817 165.853 43.7523 165.97 43.4486C166.107 43.0821 166.269 42.7206 166.458 42.3638C166.635 41.976 166.974 41.3828 167.474 40.5844C167.964 39.7861 168.321 39.2708 168.544 39.0386C168.798 38.7956 169.095 38.5884 169.434 38.4171L169.836 38.2242C170.042 38.138 170.26 38.1299 170.491 38.1997C170.722 38.2694 170.888 38.413 170.987 38.6304C171.086 38.8374 171.102 39.056 171.035 39.286C170.968 39.5057 170.827 39.6691 170.61 39.7762L170.209 39.9691C170.045 40.0547 169.907 40.1555 169.795 40.2716C169.652 40.3986 169.366 40.8191 168.937 41.5333C168.487 42.2686 168.178 42.7936 168.009 43.1084C167.851 43.4543 167.698 43.8001 167.551 44.1459C167.414 44.4811 167.194 45.0362 166.891 45.8111C166.569 46.6697 166.287 47.2412 166.045 47.5258C165.923 47.6732 165.791 47.7896 165.647 47.8749C165.652 48.0623 165.655 48.1821 165.657 48.2342C165.688 48.6192 165.718 48.9885 165.748 49.3423C165.778 49.7065 165.797 50.0396 165.805 50.3416C165.813 50.6435 165.811 50.9821 165.8 51.3573L165.814 51.904C165.8 52.1437 165.706 52.3429 165.533 52.5015C165.37 52.66 165.169 52.7408 164.93 52.7441C164.701 52.7472 164.495 52.6614 164.314 52.4868C164.142 52.3121 164.064 52.1048 164.079 51.865L164.064 51.3183C164.076 50.9536 164.078 50.6358 164.071 50.3651C164.064 50.1048 164.046 49.8029 164.016 49.4596C163.985 49.0746 163.955 48.7052 163.925 48.3514C163.914 47.9453 163.875 47.2427 163.808 46.2436C163.747 45.4944 163.71 44.8959 163.699 44.4482C163.671 44.1881 163.643 43.902 163.614 43.5899C163.549 42.695 163.511 42.0236 163.499 41.5758C163.487 41.1281 163.497 40.68 163.527 40.2317C163.526 40.2109 163.525 40.1796 163.524 40.138C163.523 40.0859 163.536 40.0024 163.565 39.8874C163.593 39.7724 163.627 39.6626 163.666 39.5579C163.704 39.4428 163.759 39.3379 163.829 39.2432C163.9 39.1485 163.981 39.0797 164.074 39.0367C164.177 38.9937 164.297 38.9868 164.433 39.0162C164.569 39.0456 164.727 39.1112 164.907 39.2129C165.172 39.3968 165.338 39.5717 165.405 39.7374C165.472 39.8928 165.459 40.0023 165.367 40.0661L165.275 40.1611C165.285 40.5255 165.296 40.9421 165.308 41.4107C165.32 41.9001 165.332 42.3478 165.343 42.754C165.353 43.1392 165.363 43.5454 165.374 43.9723C165.398 44.0866 165.412 44.2166 165.416 44.3624ZM175.227 35.1979C174.696 35.1842 174.404 34.9747 174.351 34.5691C174.324 34.3091 174.35 34.1056 174.429 33.9587C174.406 33.8756 174.404 33.7923 174.423 33.7087C174.457 33.4062 174.597 33.1908 174.844 33.0624C174.881 32.8952 174.956 32.7536 175.067 32.6375C175.229 32.4686 175.425 32.3826 175.654 32.3795C175.894 32.3763 176.104 32.4567 176.286 32.621L176.382 32.729C176.65 32.9858 176.72 33.2922 176.594 33.648C176.659 33.7513 176.693 33.8654 176.696 33.9904C176.766 34.2499 176.731 34.5056 176.591 34.7575C176.452 34.999 176.273 35.1524 176.056 35.2179C175.809 35.3254 175.533 35.3187 175.227 35.1979ZM177.07 52.6106C176.897 52.7692 176.691 52.8449 176.451 52.8378C176.211 52.8306 176.011 52.7448 175.85 52.5803C175.689 52.4054 175.606 52.1982 175.6 51.9587L175.623 51.6459C175.617 51.4376 175.608 51.0784 175.595 50.5681C175.581 50.0475 175.57 49.6257 175.562 49.3029C175.554 49.0009 175.533 48.5898 175.499 48.0694C175.464 47.5178 175.415 46.8674 175.354 46.1182C175.272 45.3485 175.206 44.6306 175.158 43.9646C175.098 43.2779 175.048 42.7317 175.006 42.326C174.964 41.9099 174.916 41.4886 174.864 41.0623C174.81 40.6151 174.771 40.3083 174.746 40.142C174.743 40.017 174.718 39.8767 174.673 39.7211L174.634 39.4403C174.586 39.2014 174.628 38.9873 174.758 38.798C174.888 38.5983 175.068 38.4761 175.296 38.4314C175.534 38.3865 175.754 38.4356 175.956 38.5787C176.168 38.7112 176.287 38.8919 176.314 39.1207L176.384 39.4166C176.41 39.6246 176.441 39.8117 176.477 39.9779C176.48 40.1236 176.519 40.4148 176.593 40.8513C176.646 41.2985 176.694 41.7354 176.736 42.1619C176.779 42.5884 176.83 43.1502 176.89 43.8473C176.927 44.5031 176.982 45.2159 177.054 45.9857C177.127 46.7556 177.18 47.4163 177.215 47.968C177.25 48.5092 177.272 48.936 177.28 49.2484C177.288 49.5712 177.299 49.9981 177.313 50.5292C177.327 51.0602 177.337 51.4455 177.343 51.685L177.32 51.9979C177.326 52.2374 177.243 52.4416 177.07 52.6106ZM192.842 52.0998C192.754 52.3197 192.607 52.4832 192.402 52.5901C192.196 52.6867 191.977 52.6896 191.745 52.599C191.524 52.4979 191.364 52.3438 191.265 52.1368L191.165 51.9194C191.121 51.8158 191.087 51.7173 191.064 51.6239C190.944 51.813 190.798 52.0285 190.627 52.2704C190.376 52.6176 190.139 52.9177 189.916 53.1707C189.643 53.4973 189.363 53.7512 189.076 53.9321C188.798 54.0609 188.545 54.1581 188.318 54.2237C188.08 54.2894 187.795 54.3349 187.462 54.3603C187.139 54.3647 186.868 54.3475 186.648 54.3088C186.501 54.29 186.344 54.2609 186.177 54.2215C186.008 54.1613 185.714 54.0715 185.294 53.9522C184.842 53.7917 184.388 53.5582 183.932 53.2519C183.434 52.9149 183.018 52.5508 182.685 52.1594C182.394 51.7988 182.199 51.515 182.1 51.308C181.991 51.122 181.853 50.8217 181.686 50.4073C181.53 50.024 181.346 49.5474 181.133 48.9773C180.93 48.3655 180.775 47.6124 180.668 46.718C180.54 45.803 180.54 44.9905 180.667 44.2804C180.794 43.5495 181.002 42.9373 181.292 42.4438C181.602 41.95 181.935 41.5444 182.292 41.2271C182.658 40.8992 183.115 40.6118 183.66 40.3648C184.227 40.1175 184.781 39.9746 185.322 39.936C185.768 39.8882 186.106 39.8576 186.335 39.8441C186.616 39.8403 187.066 39.9227 187.686 40.0914C188.283 40.2291 188.714 40.3691 188.978 40.5114C189.22 40.6123 189.581 40.847 190.059 41.2155C190.101 41.2357 190.144 41.2664 190.187 41.3075C190.154 40.8392 190.112 40.4231 190.06 40.0592C190.03 39.6742 189.997 39.2371 189.964 38.748C189.93 38.2588 189.91 37.8841 189.903 37.6238C189.897 37.3843 189.885 37.098 189.866 36.7649C189.846 36.4214 189.831 36.0258 189.819 35.578C189.787 35.1305 189.768 34.8131 189.763 34.6256C189.737 34.4385 189.708 34.116 189.676 33.6581C189.664 33.2103 189.646 32.9241 189.622 32.7994C189.618 32.6536 189.614 32.4922 189.609 32.3152L189.571 32.0345C189.565 31.795 189.638 31.5908 189.789 31.4221C189.941 31.243 190.131 31.1414 190.36 31.1175C190.599 31.0934 190.809 31.1635 190.99 31.3277C191.182 31.4813 191.281 31.6779 191.287 31.9174L191.326 32.1981C191.33 32.3856 191.335 32.5574 191.339 32.7136C191.363 32.8383 191.381 33.1245 191.392 33.5723C191.425 34.0406 191.455 34.3631 191.48 34.5398C191.485 34.7273 191.504 35.0447 191.536 35.4922C191.548 35.94 191.563 36.3408 191.583 36.6947C191.603 37.0486 191.616 37.3505 191.622 37.6005C191.628 37.84 191.648 38.1939 191.681 38.6622C191.714 39.1305 191.751 39.5467 191.791 39.9107C191.843 40.2954 191.891 40.7479 191.936 41.2681C191.981 41.7884 192.006 42.1787 192.013 42.439C192.02 42.6889 192.037 42.9543 192.065 43.2352C192.069 43.3809 192.075 43.6152 192.083 43.9381L192.151 44.1246C192.262 44.4044 192.248 44.6598 192.108 44.8909C192.121 45.4011 192.131 45.7656 192.136 45.9842C192.164 46.2235 192.18 46.468 192.187 46.7179C192.194 46.9783 192.219 47.3738 192.264 47.9044C192.309 48.4351 192.345 48.794 192.37 48.9811C192.375 49.1685 192.391 49.3506 192.416 49.5274C192.441 49.6937 192.491 50.0003 192.565 50.4472C192.638 50.8525 192.691 51.1122 192.726 51.2263L192.825 51.4437C192.935 51.6506 192.94 51.8693 192.842 52.0998ZM190.358 44.3052C190.248 44.0671 190.095 43.7932 189.899 43.4833C189.724 43.1628 189.446 42.8697 189.064 42.604C188.671 42.3281 188.39 42.1392 188.221 42.0373C188.073 41.9768 187.763 41.882 187.291 41.753C186.819 41.6344 186.515 41.5761 186.38 41.5779C186.193 41.5804 185.896 41.6053 185.491 41.6525C185.148 41.6779 184.776 41.782 184.374 41.9645C183.972 42.1366 183.654 42.3284 183.42 42.5399C183.196 42.7409 182.984 43.0042 182.784 43.3298C182.605 43.676 182.465 44.0998 182.364 44.6012C182.273 45.1337 182.269 45.7744 182.351 46.5233C182.454 47.2927 182.591 47.9315 182.76 48.4396C182.961 48.9681 183.129 49.4138 183.264 49.7766C183.397 50.0977 183.502 50.3306 183.579 50.4754C183.665 50.5992 183.822 50.8002 184.048 51.0784C184.242 51.3362 184.514 51.5773 184.864 51.8018C185.214 52.0366 185.536 52.2041 185.83 52.3043C186.198 52.4243 186.444 52.4939 186.57 52.513C186.696 52.5529 186.827 52.5876 186.963 52.617C187.047 52.6367 187.183 52.6453 187.37 52.6428C187.558 52.6402 187.708 52.6173 187.822 52.5741C187.946 52.5516 188.085 52.4924 188.239 52.3966C188.342 52.3327 188.464 52.2269 188.606 52.0791C188.787 51.8371 188.994 51.5686 189.226 51.2738C189.426 50.969 189.576 50.7118 189.675 50.5021C189.784 50.2818 189.867 50.062 189.923 49.8424C190.001 49.6018 190.053 49.424 190.082 49.309C190.1 49.2255 190.108 49.1368 190.106 49.0431L190.1 48.8244C190.091 48.4808 190.241 48.2235 190.549 48.0527C190.549 48.0527 190.549 48.0423 190.548 48.0214C190.513 47.4698 190.482 47.064 190.454 46.8039C190.447 46.5436 190.431 46.2991 190.404 46.0702C190.397 45.7891 190.384 45.3101 190.367 44.6332C190.364 44.5187 190.361 44.4093 190.358 44.3052ZM206.377 44.2754C206.134 44.1328 205.988 43.9369 205.94 43.6876L205.827 42.9391C205.775 42.5544 205.651 42.2071 205.456 41.8972C205.28 41.5558 205.081 41.2877 204.857 41.0928C204.633 40.8875 204.357 40.709 204.03 40.5572C203.713 40.3948 203.492 40.304 203.367 40.2849C203.179 40.2666 202.834 40.2296 202.332 40.1739C201.862 40.1386 201.565 40.1219 201.44 40.1235C201.336 40.125 201.165 40.1794 200.928 40.2867C200.65 40.3947 200.418 40.5072 200.234 40.6243C200.05 40.7518 199.902 40.8684 199.79 40.9741C199.708 41.0377 199.567 41.2219 199.366 41.5267C199.167 41.8523 198.963 42.2509 198.757 42.7225C198.561 43.2147 198.43 43.5707 198.362 43.7904C198.284 43.9789 198.198 44.2874 198.105 44.7157C198.011 45.1233 197.945 45.5617 197.905 46.031C197.875 46.4793 197.885 46.875 197.936 47.2181C198.006 47.5192 198.199 47.9333 198.515 48.4602C198.83 48.9456 199.051 49.2499 199.179 49.3731C199.328 49.4961 199.472 49.6087 199.61 49.711C199.737 49.7926 200.017 49.9191 200.448 50.0903C200.838 50.2725 201.097 50.3784 201.222 50.4079C201.348 50.427 201.572 50.424 201.894 50.3988C202.216 50.3736 202.45 50.3444 202.595 50.3112C202.74 50.2675 203.013 50.1701 203.416 50.0188C203.777 49.8889 204.009 49.792 204.112 49.7281C204.193 49.6645 204.402 49.4689 204.737 49.1415C205.072 48.7932 205.29 48.5454 205.39 48.3982C205.49 48.251 205.585 48.0935 205.675 47.9256C205.774 47.7472 205.902 47.4537 206.058 47.0454C206.214 46.637 206.325 46.2917 206.391 46.0096C206.39 45.9888 206.4 45.947 206.419 45.8842C206.387 45.4576 206.377 45.0827 206.39 44.7596C206.386 44.6242 206.382 44.4628 206.377 44.2754ZM207.196 41.5142C207.499 41.5309 207.72 41.6009 207.858 41.724C208.007 41.8366 208.083 41.9449 208.085 42.049L208.057 42.1744C208.125 42.3818 208.186 42.7144 208.24 43.172C208.271 43.5986 208.29 43.9213 208.296 44.14C208.301 44.3482 208.289 44.6869 208.26 45.1561C208.226 45.4586 208.191 45.7352 208.156 45.9856C208.184 46.2665 208.2 46.4798 208.204 46.6256C208.208 46.7922 208.249 47.1354 208.325 47.6553C208.4 48.1438 208.451 48.4921 208.477 48.7001C208.524 48.9078 208.585 49.2403 208.659 49.6976C208.733 50.1445 208.785 50.5449 208.815 50.8987C208.845 51.242 208.876 51.6374 208.908 52.0849C208.921 52.5535 208.93 52.9075 208.936 53.147C208.943 53.4074 208.932 53.8034 208.904 54.335C208.877 54.8875 208.816 55.3675 208.723 55.775C208.649 56.1614 208.594 56.4382 208.557 56.6054C208.479 56.8148 208.336 57.1136 208.127 57.5018C207.898 57.9112 207.61 58.2797 207.265 58.6073C206.888 58.9353 206.478 59.1961 206.035 59.3896C205.673 59.5195 205.41 59.6221 205.246 59.6972C205.08 59.7411 204.836 59.7861 204.514 59.8321C204.152 59.8996 203.746 59.9363 203.298 59.9424C202.85 59.9276 202.516 59.9113 202.297 59.8935C202.108 59.8544 201.83 59.78 201.463 59.6704C201.095 59.5712 200.775 59.461 200.501 59.3397C200.237 59.2183 199.952 59.0607 199.644 58.867C199.317 58.6839 198.992 58.4331 198.672 58.1145C198.34 57.7961 198.065 57.4248 197.846 57.0007C197.627 56.5974 197.478 56.2713 197.398 56.0224C197.351 55.8147 197.314 55.5912 197.287 55.352L197.281 55.1021C197.253 54.8629 197.321 54.6484 197.483 54.4587C197.655 54.2793 197.856 54.1828 198.085 54.1693C198.324 54.1556 198.529 54.2258 198.7 54.3797C198.871 54.544 198.969 54.7406 198.996 54.9694L199.003 55.235C199.028 55.3805 199.057 55.5155 199.092 55.64C199.115 55.723 199.203 55.9041 199.356 56.1833C199.488 56.4628 199.656 56.6949 199.859 56.8796C200.104 57.0847 200.332 57.2638 200.545 57.4172C200.788 57.5597 201.005 57.6766 201.194 57.7678C201.384 57.8485 201.621 57.9287 201.904 58.0082C202.208 58.0874 202.423 58.1365 202.549 58.1557C202.674 58.1748 202.914 58.1872 203.268 58.1928C203.623 58.1984 203.925 58.1787 204.173 58.1336C204.454 58.0881 204.645 58.0439 204.748 58.0008C204.852 57.9786 205.064 57.9028 205.383 57.7734C205.621 57.6869 205.851 57.5327 206.074 57.3109C206.309 57.1202 206.486 56.9043 206.605 56.6631C206.764 56.3797 206.853 56.1962 206.872 56.1126C206.91 55.9663 206.971 55.731 207.057 55.407C207.111 55.0833 207.152 54.6765 207.181 54.1865C207.21 53.6965 207.222 53.3578 207.217 53.1704C207.211 52.9309 207.203 52.5976 207.191 52.1707C207.16 51.744 207.129 51.3747 207.1 51.0625C207.071 50.74 207.02 50.3657 206.946 49.9396C206.92 49.7316 206.889 49.5394 206.853 49.3628C206.853 49.3628 206.843 49.3733 206.822 49.3944C206.662 49.6362 206.373 49.9526 205.956 50.3437C205.561 50.7553 205.271 51.0249 205.086 51.1524C204.881 51.2802 204.531 51.4412 204.036 51.6354C203.572 51.8083 203.226 51.9224 202.998 51.9776C202.76 52.0433 202.428 52.0895 202.001 52.1161C201.575 52.1427 201.236 52.1369 200.985 52.0987C200.723 52.0605 200.324 51.9253 199.787 51.693C199.27 51.4605 198.89 51.2781 198.647 51.146C198.456 51.0027 198.259 50.844 198.056 50.6696C197.812 50.4854 197.483 50.042 197.069 49.3393C196.623 48.6369 196.352 48.0208 196.255 47.4909C196.18 47.0231 196.156 46.4922 196.182 45.8981C196.209 45.3248 196.289 44.7873 196.422 44.2854C196.534 43.7943 196.634 43.4336 196.722 43.2032C196.799 42.9626 196.945 42.5752 197.161 42.041C197.407 41.4856 197.649 41.0031 197.889 40.5936C198.18 40.1626 198.417 39.8573 198.6 39.6777C198.762 39.5297 198.982 39.3704 199.259 39.2C199.536 39.0087 199.875 38.8323 200.277 38.6706C200.679 38.5193 201.021 38.4313 201.302 38.4066C201.541 38.3826 201.932 38.3981 202.475 38.4532C202.987 38.5088 203.363 38.5558 203.604 38.5942C203.907 38.6317 204.296 38.7671 204.771 39.0002C205.246 39.2229 205.654 39.4987 205.996 39.8274C206.348 40.1559 206.672 40.563 206.965 41.0486C207.053 41.1932 207.13 41.3485 207.196 41.5142ZM214.233 43.4657C214.379 43.4637 214.525 43.4721 214.671 43.491C214.838 43.4887 215.187 43.4996 215.719 43.5236C216.262 43.5371 216.652 43.5422 216.892 43.539C217.132 43.5357 217.36 43.5222 217.579 43.4984C217.797 43.4642 218.206 43.4013 218.808 43.3098C219.4 43.2393 219.779 43.1821 219.945 43.1382C220.121 43.0941 220.363 43.0075 220.673 42.8783C220.951 42.7703 221.131 42.6898 221.213 42.6366C221.274 42.5732 221.36 42.4783 221.472 42.3518C221.553 42.2674 221.623 42.1466 221.681 41.9896C221.739 41.8013 221.777 41.6654 221.796 41.5818C221.793 41.4985 221.757 41.3062 221.687 41.0051C221.617 40.704 221.559 40.512 221.516 40.4293C221.451 40.3468 221.317 40.208 221.114 40.0129C220.921 39.8071 220.725 39.664 220.525 39.5834C220.282 39.4617 220.071 39.376 219.893 39.3263C219.714 39.2662 219.411 39.2183 218.983 39.1824C218.575 39.1254 218.236 39.1196 217.966 39.1649C217.706 39.1893 217.401 39.2768 217.051 39.4274C216.7 39.5675 216.453 39.6803 216.31 39.7656C216.166 39.8717 215.963 40.0671 215.7 40.352C215.436 40.6264 215.185 40.9996 214.947 41.4716C214.679 41.9648 214.516 42.3212 214.459 42.5407C214.401 42.7082 214.326 43.0165 214.233 43.4657ZM212.353 43.8818C212.39 43.7146 212.427 43.5318 212.464 43.3334C212.593 42.6962 212.711 42.2363 212.819 41.9536C212.915 41.671 213.118 41.2412 213.426 40.6641C213.754 40.0658 214.09 39.5717 214.435 39.1816C214.769 38.8125 215.054 38.543 215.289 38.3731C215.544 38.1822 215.909 37.9949 216.384 37.8114C216.869 37.6173 217.324 37.4913 217.749 37.4335C218.155 37.3863 218.624 37.3904 219.156 37.4456C219.689 37.5009 220.092 37.5736 220.366 37.6636C220.638 37.7432 220.938 37.8538 221.265 37.9952C221.634 38.1777 221.98 38.4334 222.301 38.7624C222.653 39.1013 222.884 39.3743 222.994 39.5811C223.124 39.7877 223.253 40.1349 223.381 40.6228C223.497 41.1108 223.549 41.4747 223.534 41.7144C223.519 41.9438 223.448 42.2312 223.322 42.5767C223.185 42.9431 223.016 43.2579 222.815 43.5211C222.612 43.7322 222.424 43.9014 222.25 44.0288C222.066 44.1563 221.757 44.3115 221.324 44.4945C220.942 44.6247 220.632 44.7278 220.394 44.804C220.167 44.8695 219.726 44.9484 219.072 45.0407C218.46 45.1323 218.018 45.1904 217.748 45.2149C217.478 45.2394 217.207 45.2535 216.937 45.2571C216.697 45.2604 216.296 45.2554 215.733 45.2422C215.17 45.229 214.8 45.2184 214.622 45.2104C214.455 45.2023 214.299 45.1992 214.153 45.2011C214.091 45.202 214.013 45.2031 213.919 45.2043C213.902 45.3712 213.886 45.5329 213.869 45.6894C213.853 45.8979 213.879 46.2986 213.947 46.8915C214.014 47.4739 214.071 47.8585 214.118 48.0454C214.165 48.2531 214.238 48.4657 214.337 48.6831C214.405 48.8697 214.548 49.1698 214.767 49.5835C214.964 49.9454 215.153 50.2189 215.335 50.4039C215.55 50.6406 215.736 50.81 215.895 50.912C216.023 51.0144 216.282 51.1463 216.672 51.3077C217.062 51.4899 217.409 51.6258 217.714 51.7154C218.018 51.7946 218.368 51.842 218.764 51.8574C219.193 51.8933 219.484 51.8997 219.64 51.8768C219.765 51.8751 220.008 51.7989 220.369 51.6482C220.688 51.5188 220.899 51.417 221.002 51.3427C221.104 51.258 221.195 51.1578 221.275 51.0421C221.356 50.9264 221.47 50.7165 221.618 50.4124C221.756 50.0877 221.853 49.8363 221.911 49.6585C221.969 49.4702 222.017 49.3029 222.055 49.1565L222.111 48.9057C222.146 48.6657 222.261 48.4818 222.456 48.3542C222.661 48.2264 222.879 48.1818 223.109 48.2203C223.349 48.2587 223.535 48.3812 223.665 48.5878C223.806 48.7838 223.858 48.9966 223.823 49.2263L223.768 49.5239C223.711 49.733 223.638 49.9632 223.551 50.2143C223.474 50.455 223.347 50.7692 223.169 51.157C222.992 51.5657 222.823 51.8753 222.662 52.0858C222.511 52.2858 222.339 52.4704 222.145 52.6397C221.942 52.83 221.577 53.038 221.052 53.2639C220.525 53.4586 220.122 53.5734 219.841 53.6085C219.582 53.6328 219.196 53.6276 218.684 53.5929C218.152 53.5585 217.681 53.4867 217.272 53.3777C216.863 53.2583 216.431 53.0974 215.978 52.8953C215.482 52.6624 215.113 52.4643 214.869 52.3009C214.656 52.1371 214.405 51.9062 214.116 51.608C213.806 51.2893 213.519 50.8765 213.256 50.3696C212.983 49.9046 212.802 49.532 212.711 49.252C212.6 48.9931 212.51 48.7391 212.441 48.49C212.371 48.2097 212.296 47.7316 212.216 47.0556C212.146 46.369 212.123 45.8797 212.147 45.5877C212.161 45.3063 212.184 45.0247 212.219 44.743C212.217 44.6805 212.226 44.6179 212.245 44.5551C212.244 44.4927 212.242 44.4406 212.241 44.3989C212.216 44.2222 212.253 44.0498 212.353 43.8818Z" fill="#242424"/>
</svg>
