<svg width="290" height="90" viewBox="0 0 290 90" fill="none" xmlns="http://www.w3.org/2000/svg">
<path d="M47.5001 20.91C81.4902 18.4121 165 12.41 235.5 37.91C243.479 40.7959 12.9544 37.1978 51.0001 67.214C71.9496 83.742 193.826 72.7093 256.5 67.214" stroke="#0CE9CA" stroke-width="28" stroke-linecap="round"/>
<path d="M66.6015 15.9074C66.3518 15.9212 66.1365 15.8564 65.9556 15.713C65.7849 15.5591 65.6913 15.3625 65.6746 15.1231C65.6577 14.8733 65.7357 14.6639 65.9084 14.4949L66.2412 14.0685C66.4943 13.7838 66.8486 13.3832 67.304 12.8666C67.8001 12.3078 68.3194 11.8424 68.862 11.4704C69.4046 11.0985 69.8677 10.8786 70.2515 10.8109C70.6555 10.7221 71.2883 10.8125 72.1496 11.0821C72.9694 11.3522 73.5658 11.6514 73.939 11.9797C74.2911 12.2978 74.6717 12.9125 75.0809 13.8236C75.4889 14.6931 75.7171 15.4556 75.7654 16.1112C75.8457 16.7976 75.7795 17.46 75.5669 18.0983C75.4327 18.5481 75.2804 18.9043 75.1101 19.167C75.3003 19.2686 75.4751 19.3808 75.6346 19.5037C75.922 19.7393 76.2557 20.1515 76.6356 20.7401C77.0156 21.3287 77.2855 21.8928 77.4454 22.4323C77.6258 22.9611 77.7038 23.559 77.6795 24.226C77.6556 24.9138 77.5647 25.4255 77.4067 25.761C77.2484 26.086 76.9259 26.5071 76.4392 27.0241C75.9624 27.5202 75.2915 27.9668 74.4265 28.3639C73.5825 28.7608 72.9269 28.9937 72.4598 29.0625C71.9713 29.1108 71.2131 29.0013 70.185 28.734C69.1778 28.4664 68.4627 28.2105 68.0396 27.9662C67.6905 27.7626 67.2453 27.4718 66.7041 27.0937C66.1421 26.7159 65.765 26.4398 65.5729 26.2653C65.3058 26.0085 65.0947 25.704 64.9397 25.352L64.7734 24.9636C64.6838 24.7252 64.6779 24.4961 64.7555 24.2763C64.8332 24.0565 64.9803 23.9035 65.1969 23.8172C65.4236 23.7204 65.6476 23.7226 65.8691 23.8237C66.1007 23.9143 66.2608 24.0632 66.3495 24.2703L66.5159 24.6587C66.5822 24.8036 66.6526 24.9069 66.7271 24.9683C66.8553 25.0916 67.1688 25.3269 67.6675 25.6743C68.1874 26.0319 68.6111 26.3022 68.9389 26.4852C69.2036 26.6483 69.7505 26.844 70.5796 27.0724C71.4182 27.2693 71.9675 27.3556 72.2273 27.3313C72.508 27.3066 72.9931 27.1282 73.6826 26.7959C74.3309 26.485 74.8328 26.1501 75.1881 25.7911C75.5432 25.4217 75.7501 25.1636 75.8089 25.017C75.8884 24.8701 75.9329 24.5778 75.9424 24.1402C75.9511 23.6713 75.9092 23.2604 75.8166 22.9075C75.703 22.5444 75.4891 22.1307 75.1749 21.6662C74.8821 21.2222 74.661 20.9336 74.5117 20.8002C74.4053 20.7183 74.1266 20.6179 73.6755 20.499C73.5494 20.4591 73.4236 20.4295 73.2981 20.4104C72.8957 20.5617 72.5643 20.6391 72.3039 20.6426C71.856 20.6487 71.6281 20.5007 71.6203 20.1988C71.6122 19.8864 71.7136 19.5777 71.9245 19.2727L72.2244 18.7843C72.4623 18.7186 72.7063 18.684 72.9563 18.6806C73.1624 18.5945 73.3321 18.5088 73.4654 18.4237C73.5273 18.402 73.5682 18.3702 73.5879 18.3283C73.6686 18.223 73.7816 17.9611 73.927 17.5424C74.0618 17.1135 74.1133 16.6909 74.0817 16.2747C74.0279 15.8067 73.8407 15.2206 73.5203 14.5166C73.2004 13.8335 72.955 13.4097 72.784 13.2454C72.5922 13.0813 72.2125 12.9042 71.6449 12.7139C71.1303 12.5542 70.7899 12.4859 70.6237 12.509C70.4582 12.553 70.1961 12.6919 69.8375 12.926C69.438 13.1918 69.0308 13.5619 68.616 14.0363C68.1605 14.5529 67.8062 14.9536 67.5531 15.2382L67.1879 15.6182C67.0464 15.7868 66.8509 15.8832 66.6015 15.9074ZM88.6941 28.2954C88.7769 28.2734 88.8701 28.2513 88.9737 28.2291C89.1184 28.1854 89.447 27.9987 89.9594 27.6688C90.4411 27.3602 90.7475 27.1217 90.8786 26.9532C91.0097 26.7848 91.216 26.3028 91.4975 25.5073C91.8196 24.6696 92.0173 24.0575 92.0907 23.6711C92.1635 23.2638 92.2401 22.6013 92.3204 21.6836C92.4112 20.7656 92.4506 20.0724 92.4384 19.6038C92.4465 19.1141 92.4206 18.5155 92.3606 17.808C92.3219 17.121 92.2034 16.3674 92.005 15.5471C91.8172 14.7372 91.6562 14.1508 91.5217 13.788C91.4097 13.4875 91.0958 13.0334 90.5799 12.4258C90.0744 11.818 89.7265 11.4582 89.536 11.3462C89.3244 11.224 88.9775 11.1038 88.4951 10.9853C88.0648 10.8661 87.6889 10.8348 87.3674 10.8912C87.0563 10.9475 86.6803 11.1141 86.2394 11.3909C85.7786 11.6992 85.4517 11.9537 85.259 12.1542C85.0769 12.365 84.7727 12.89 84.3465 13.7291C83.8999 14.5894 83.6191 15.213 83.5041 15.6C83.3688 16.008 83.2141 16.6716 83.04 17.5907C82.8768 18.5304 82.7748 19.2141 82.7337 19.6417C82.6823 20.0695 82.6805 20.8039 82.7284 21.845C82.7752 22.8443 82.9064 23.6863 83.1221 24.3709C83.3058 25.0247 83.5171 25.5374 83.7559 25.9092C84.0052 26.2808 84.3695 26.6665 84.8487 27.0663C85.2639 27.4044 85.76 27.6529 86.3372 27.8117C86.9555 27.9492 87.3428 28.0168 87.499 28.0147L87.92 27.9777C88.2216 27.9528 88.4796 28.0587 88.6941 28.2954ZM86.1001 29.5181C86.0376 29.5189 85.9853 29.5092 85.9431 29.489C85.1036 29.2608 84.3645 28.8854 83.7258 28.3628C83.1402 27.8811 82.6741 27.3822 82.3273 26.8661C81.9906 26.3394 81.7022 25.6662 81.4622 24.8466C81.2015 24.0376 81.051 23.0552 81.0106 21.8995C80.9603 20.7648 80.9601 19.9522 81.0099 19.462C81.0597 18.9717 81.176 18.2358 81.359 17.2541C81.5211 16.2727 81.6846 15.5465 81.8495 15.0755C81.9831 14.605 82.2979 13.8871 82.7939 12.9221C83.3002 11.9568 83.6849 11.3214 83.9479 11.0157C84.2415 10.6888 84.6906 10.3286 85.2952 9.93494C85.9408 9.51993 86.5386 9.26702 87.0885 9.17623C87.6488 9.08529 88.2646 9.12902 88.9361 9.30741C89.5549 9.46568 90.0388 9.64141 90.3876 9.8346C90.7584 10.0692 91.2609 10.5623 91.8952 11.3142C92.5297 12.0764 92.9418 12.701 93.1316 13.1881C93.2885 13.613 93.4778 14.2823 93.6994 15.196C93.8898 16.1101 94.0159 16.9522 94.0775 17.7222C94.1387 18.4713 94.1654 19.1012 94.1578 19.6117C94.1716 20.1428 94.1339 20.8985 94.0447 21.8789C93.9553 22.8489 93.8749 23.5688 93.8038 24.0385C93.7118 24.5085 93.4954 25.2041 93.1546 26.1254C92.7941 27.0887 92.4826 27.7335 92.2202 28.06C91.9679 28.376 91.5238 28.7309 90.8881 29.125C90.2841 29.5394 89.8217 29.7905 89.501 29.8782C89.2219 29.9653 88.9578 30.0262 88.7086 30.0608C88.4077 30.1066 88.001 30.0965 87.4888 30.0305L86.8154 29.9771C86.513 29.9708 86.2746 29.8178 86.1001 29.5181ZM97.9646 20.5601C97.7632 20.4274 97.6283 20.2469 97.5599 20.0187C97.5016 19.7799 97.5376 19.5607 97.6678 19.361C97.8083 19.1507 97.9873 19.0233 98.2049 18.9787L98.5783 18.9111C98.8579 18.8448 99.2628 18.7872 99.7929 18.7384C100.302 18.669 100.676 18.6327 100.915 18.6294C101.124 18.6266 101.358 18.6234 101.618 18.6199C101.827 18.617 102.295 18.6003 103.024 18.5695C103.575 18.5204 104.011 18.478 104.333 18.4424C104.333 18.4424 104.333 18.432 104.332 18.4112C104.292 17.6409 104.256 17.0788 104.226 16.7251C104.217 16.3814 104.195 15.9234 104.159 15.351C104.125 14.841 104.107 14.5288 104.104 14.4142C104.079 14.2479 104.048 14.092 104.013 13.9467L103.976 13.7128C103.949 13.4736 104.011 13.2644 104.163 13.0853C104.325 12.906 104.52 12.8044 104.749 12.7804C104.988 12.7563 105.198 12.8212 105.379 12.975C105.57 13.1182 105.68 13.3043 105.706 13.5331L105.743 13.7513C105.746 13.8763 105.76 13.9959 105.784 14.1102C105.809 14.2765 105.84 14.6719 105.877 15.2964C105.914 15.9105 105.936 16.3685 105.944 16.6705C105.974 17.0139 106.009 17.5655 106.049 18.3254C106.091 18.304 106.127 18.2931 106.158 18.2926C106.886 18.2411 107.427 18.2129 107.781 18.2081C108.125 18.2035 108.677 18.196 109.437 18.1857C110.187 18.1755 110.682 18.1688 110.922 18.1655C111.11 18.1838 111.303 18.1916 111.5 18.1889L111.813 18.1847C112.052 18.1814 112.253 18.2672 112.413 18.4422C112.574 18.6066 112.658 18.8138 112.664 19.0638C112.67 19.3033 112.587 19.5075 112.414 19.6765C112.252 19.835 112.056 19.9158 111.827 19.9189L111.499 19.9233C111.259 19.9266 111.035 19.9192 110.826 19.9012C110.659 19.9035 110.211 19.9096 109.482 19.9194C108.691 19.9302 108.149 19.9375 107.857 19.9415C107.514 19.9462 106.993 19.974 106.297 20.0252C106.255 20.0257 106.198 20.0369 106.126 20.0587C106.128 20.1629 106.131 20.267 106.134 20.3711C106.169 20.9436 106.222 21.5731 106.292 22.2596C106.351 22.9151 106.394 23.3833 106.422 23.6641C106.43 23.9661 106.429 24.3411 106.42 24.7892L106.437 25.4296C106.422 25.6694 106.323 25.8686 106.14 26.0274C105.967 26.186 105.76 26.2617 105.521 26.2545C105.291 26.2472 105.091 26.1614 104.92 25.9971C104.759 25.8222 104.686 25.62 104.701 25.3906L104.716 24.7498C104.706 24.3645 104.697 24.0417 104.691 23.7814C104.663 23.5213 104.619 23.048 104.56 22.3613C104.5 21.6746 104.463 21.0396 104.448 20.4565C104.425 20.3735 104.412 20.2799 104.409 20.1758C104.087 20.201 103.671 20.2379 103.162 20.2864C102.413 20.3175 101.913 20.3346 101.663 20.338C101.403 20.3416 101.179 20.3446 100.991 20.3472C100.804 20.3497 100.471 20.375 99.9929 20.4232C99.5252 20.4712 99.188 20.5227 98.981 20.5776L98.6241 20.6761C98.3856 20.7211 98.1658 20.6824 97.9646 20.5601ZM133.359 20.9549L133.841 20.8702C136.194 20.3904 138.245 18.7167 139.994 15.8492C140.774 14.5886 141.475 13.6936 142.097 13.1643C142.709 12.6769 143.359 12.4285 144.047 12.4191C144.255 12.4163 144.482 12.5226 144.727 12.738C144.961 12.9328 145.082 13.1655 145.089 13.4363C145.097 13.7486 144.714 14.0299 143.939 14.28C143.381 14.4647 142.862 14.7634 142.383 15.1761C141.936 15.5884 141.154 16.5678 140.037 18.1142C139.213 19.2609 138.473 20.0678 137.818 20.535C137.808 20.5352 137.792 20.5406 137.772 20.5513C137.761 20.5618 137.746 20.5724 137.726 20.5831C137.715 20.5937 137.7 20.6095 137.68 20.6306C137.66 20.6517 137.639 20.6729 137.619 20.694C137.609 20.7149 137.594 20.7412 137.574 20.7727C137.565 20.8041 137.555 20.8407 137.546 20.8825C137.547 20.9241 137.548 20.9658 137.549 21.0074C137.55 21.0595 137.552 21.1063 137.553 21.148C137.564 21.1791 137.575 21.2102 137.586 21.2413C137.608 21.2722 137.624 21.3033 137.636 21.3344C137.657 21.3549 137.673 21.3755 137.684 21.3962C137.705 21.4063 137.726 21.4217 137.748 21.4422C137.779 21.4522 137.8 21.4623 137.811 21.4726C137.822 21.4829 137.838 21.4931 137.859 21.5032C137.88 21.5134 137.891 21.5184 137.891 21.5184C138.536 21.9055 139.234 22.6877 139.983 23.8651C141.166 25.6928 142.082 26.8523 142.73 27.3435C143.431 27.8548 144.219 28.1045 145.094 28.0927L145.625 28.0698C145.677 28.0691 145.719 28.0686 145.75 28.0681C145.761 28.0992 145.767 28.1304 145.768 28.1616C145.775 28.4428 145.601 28.7629 145.246 29.1219C144.88 29.481 144.234 29.6669 143.307 29.6794C142.619 29.6888 141.955 29.3749 141.313 28.7377C140.639 28.0489 139.859 26.9189 138.974 25.3475C138.439 24.3756 137.935 23.6324 137.463 23.118C136.948 22.5521 136.378 22.2733 135.753 22.2818C135.608 22.2838 135.23 22.4035 134.622 22.6409C134.364 22.7382 134.163 22.819 134.019 22.8835C133.885 22.9374 133.746 23.0226 133.603 23.1391C133.471 23.2555 133.375 23.387 133.317 23.5336C133.229 23.7848 133.187 24.5667 133.19 25.8791C133.181 27.1397 133.186 28.1553 133.206 28.9258C133.214 29.207 133.085 29.4692 132.82 29.7123C132.535 29.9558 132.226 30.0798 131.892 30.0843C131.569 30.0887 131.317 30.0036 131.136 29.8289C130.954 29.6439 130.86 29.4629 130.856 29.2859C130.846 28.9214 130.964 28.0188 131.207 26.5779C131.638 23.8845 132.023 19.4626 132.364 13.312C132.383 12.8326 132.554 12.398 132.877 12.0082C133.18 11.6395 133.514 11.4526 133.878 11.4477C134.003 11.446 134.12 11.5278 134.228 11.693C134.37 11.9202 134.445 12.2265 134.455 12.6118C134.464 12.945 134.422 13.3258 134.329 13.7541C133.781 15.9491 133.464 18.1826 133.377 20.4546L133.359 20.9549ZM157.566 15.4233C157.793 15.3368 158.012 15.3443 158.223 15.4456C158.444 15.5468 158.594 15.7114 158.673 15.9395C158.762 16.157 158.757 16.3759 158.659 16.5959L158.465 16.9423C158.367 17.1833 158.228 17.4768 158.05 17.823C157.881 18.1586 157.743 18.4417 157.634 18.6724C157.525 18.8926 157.318 19.3277 157.012 19.9777C156.705 20.6173 156.414 21.2411 156.138 21.849C155.872 22.4255 155.67 22.897 155.534 23.2634C155.376 23.6093 155.111 24.2275 154.738 25.118C154.494 25.7359 154.293 26.2439 154.137 26.6418C154.245 26.807 154.348 26.9619 154.446 27.1064L154.61 27.401C154.719 27.5871 154.74 27.8003 154.673 28.0408C154.606 28.2709 154.481 28.4445 154.296 28.5616C154.019 28.732 153.738 28.7358 153.453 28.573C153.414 28.6777 153.385 28.7719 153.366 28.8554C153.085 29.6509 152.788 30.4675 152.476 31.3051C152.174 32.1008 151.853 32.9698 151.512 33.9119C151.172 34.8541 150.963 35.4194 150.884 35.608C150.826 35.7754 150.759 35.9899 150.682 36.2513C150.644 36.3769 150.615 36.4866 150.597 36.5806L150.602 36.7681C150.608 37.0076 150.525 37.2066 150.352 37.3652C150.189 37.5237 149.988 37.6045 149.748 37.6078C149.519 37.6109 149.314 37.5251 149.132 37.3505C148.961 37.1862 148.873 36.9895 148.867 36.7604L148.862 36.5729C148.877 36.3331 148.931 36.0407 149.027 35.6957C149.103 35.4342 149.186 35.1987 149.274 34.9892C149.353 34.8006 149.562 34.2353 149.902 33.2931C150.242 32.351 150.558 31.4717 150.85 30.6552C151.152 29.8595 151.444 29.0638 151.725 28.2683C151.918 27.6511 152.087 27.1592 152.234 26.7926C151.963 26.3692 151.75 26.0179 151.597 25.7388C151.423 25.4599 151.254 25.1757 151.091 24.8863C150.916 24.5657 150.735 24.24 150.55 23.9092C150.395 23.5884 150.116 23.0453 149.71 22.2799C149.305 21.5146 148.992 20.9095 148.772 20.4645C148.521 20.02 148.238 19.5343 147.922 19.0073L147.463 18.1854C147.353 17.9785 147.327 17.7601 147.383 17.5302C147.44 17.3003 147.571 17.1266 147.776 17.0092C147.992 16.8917 148.21 16.8627 148.43 16.9222C148.661 16.9816 148.842 17.1198 148.972 17.3368L149.447 18.1585C149.763 18.6854 150.041 19.1817 150.283 19.6471C150.535 20.1333 150.858 20.7487 151.253 21.4934C151.658 22.2587 151.938 22.807 152.092 23.1383C152.247 23.4591 152.416 23.7693 152.601 24.0689C152.733 24.3275 152.869 24.5705 153.011 24.7977C153.07 24.6719 153.109 24.562 153.127 24.468C153.51 23.5461 153.78 22.907 153.937 22.5507C154.073 22.1843 154.285 21.7074 154.572 21.1202C154.837 20.502 155.123 19.8679 155.429 19.2179C155.745 18.5574 155.963 18.1117 156.082 17.8809C156.211 17.6396 156.35 17.3617 156.498 17.0471C156.656 16.7221 156.795 16.4389 156.914 16.1977L157.092 15.8516C157.191 15.6419 157.349 15.4991 157.566 15.4233ZM164.048 23.7261L164.243 24.0047C164.33 24.1285 164.547 24.2766 164.895 24.449C165.287 24.6832 165.861 24.9098 166.617 25.1287C167.352 25.3792 167.872 25.5284 168.175 25.5763C168.489 25.6242 168.975 25.654 169.631 25.666C170.226 25.6787 170.854 25.5921 171.516 25.406C172.198 25.2093 172.622 25.0577 172.785 24.9513C172.949 24.8449 173.218 24.56 173.592 24.0966C173.945 23.6439 174.183 23.2031 174.308 22.7744C174.42 22.3041 174.474 21.944 174.467 21.694C174.461 21.4545 174.295 20.8683 173.968 19.9352C173.62 18.9607 173.37 18.3651 173.219 18.1484C173.045 17.8904 172.739 17.5456 172.301 17.114C171.863 16.6928 171.469 16.3753 171.12 16.1613C170.791 15.9574 170.386 15.791 169.903 15.6621C169.42 15.5228 169.075 15.4546 168.866 15.4574C168.668 15.4601 168.255 15.5751 167.625 15.8024C167.037 16.0187 166.544 16.3223 166.148 16.7131C165.71 17.1045 165.417 17.4314 165.267 17.6938C165.108 17.9772 164.889 18.5635 164.609 19.4528C164.31 20.3527 164.14 21.0217 164.099 21.4597C164.058 21.8874 164.041 22.6428 164.048 23.7261ZM164.075 25.9601C164.082 26.2204 164.098 26.4338 164.123 26.6001C164.157 27.1101 164.227 27.8122 164.334 28.7066C164.442 29.6635 164.554 30.5579 164.669 31.3896C164.774 32.2216 164.841 32.7884 164.869 33.0901C164.898 33.3709 164.928 33.7403 164.961 34.1982C164.993 34.6457 165.011 34.9475 165.016 35.1037L165.021 35.3224C165.027 35.5619 164.944 35.7662 164.771 35.9352C164.609 36.1041 164.408 36.1901 164.169 36.1934C163.939 36.1965 163.739 36.1159 163.568 35.9515C163.397 35.7872 163.309 35.5852 163.303 35.3457L163.297 35.1271C163.294 35.0021 163.276 34.7211 163.244 34.284C163.212 33.8574 163.177 33.5089 163.139 33.2386C163.11 32.9577 163.044 32.4013 162.939 31.5694C162.833 30.7166 162.727 29.8326 162.62 28.9174C162.512 27.9605 162.44 27.2167 162.406 26.6859C162.375 26.3009 162.35 25.7335 162.33 24.9838C162.323 24.6818 162.314 24.3434 162.304 23.9685C162.313 22.6871 162.341 21.7804 162.39 21.2485C162.439 20.7166 162.621 19.9329 162.938 18.8973C163.276 17.8719 163.555 17.1754 163.775 16.8078C164.005 16.4192 164.389 15.9661 164.928 15.4484C165.487 14.9095 166.189 14.4833 167.036 14.1698C167.841 13.8776 168.426 13.7342 168.791 13.7397C169.175 13.7136 169.693 13.7899 170.344 13.9686C170.994 14.1473 171.563 14.3844 172.05 14.6799C172.506 14.9758 172.985 15.3859 173.489 15.9104C174.012 16.4137 174.382 16.8253 174.599 17.1453C174.868 17.4854 175.2 18.2257 175.594 19.3662C176.01 20.5168 176.207 21.2954 176.186 21.702C176.196 22.0873 176.126 22.5882 175.975 23.2049C175.806 23.8947 175.474 24.5502 174.979 25.1715C174.484 25.772 174.068 26.1839 173.73 26.4073C173.433 26.5988 172.86 26.8201 172.012 27.0712C171.184 27.2908 170.374 27.3955 169.582 27.3854C168.853 27.3745 168.294 27.3352 167.907 27.2675C167.53 27.1997 166.932 27.0307 166.112 26.7606C165.272 26.5012 164.593 26.2343 164.075 25.9601ZM190.896 15.1742C190.975 15.4023 190.96 15.6212 190.851 15.8311C190.751 16.0303 190.583 16.1628 190.345 16.2285C190.118 16.2941 189.909 16.2761 189.719 16.1745L189.465 16.053C189.317 15.9716 189.132 15.8752 188.911 15.7636C188.721 15.6829 188.463 15.5718 188.136 15.4304C187.81 15.3098 187.574 15.2245 187.426 15.1744C187.259 15.135 187.076 15.1062 186.877 15.0881C186.71 15.0695 186.475 15.0623 186.173 15.0664C185.892 15.0702 185.658 15.0942 185.472 15.1384C185.285 15.1826 185.094 15.2373 184.898 15.3024C184.733 15.3672 184.461 15.5323 184.082 15.7979C183.703 16.0426 183.407 16.2914 183.195 16.5443C182.942 16.829 182.745 17.066 182.604 17.2555C182.484 17.4654 182.365 17.691 182.247 17.9322C182.148 18.1419 181.983 18.6077 181.751 19.3296C181.52 20.0515 181.387 20.5272 181.351 20.7569C181.337 21.0383 181.329 21.3197 181.326 21.601C181.322 21.8719 181.335 22.1373 181.362 22.3974C181.39 22.6574 181.45 22.9639 181.542 23.3168C181.656 23.7007 181.839 24.1149 182.09 24.5594C182.342 25.0248 182.543 25.3554 182.694 25.5512C182.845 25.7367 183.011 25.9115 183.192 26.0757C183.341 26.1987 183.569 26.3467 183.876 26.5196C184.182 26.6613 184.581 26.7861 185.073 26.894C185.586 26.9704 185.957 27.0174 186.187 27.0351C186.468 27.0313 186.734 27.0277 186.984 27.0243C187.191 27.0007 187.461 26.9553 187.793 26.8883C188.072 26.822 188.345 26.6881 188.611 26.4866C188.886 26.2745 189.065 26.1263 189.146 26.0418C189.247 25.9155 189.337 25.784 189.417 25.6475C189.497 25.5214 189.582 25.3588 189.67 25.1597L189.818 24.8452C189.917 24.6355 190.08 24.4979 190.308 24.4323C190.545 24.3562 190.765 24.3688 190.965 24.4703C191.176 24.5716 191.321 24.7363 191.4 24.9644C191.479 25.1821 191.469 25.4009 191.37 25.621L191.222 25.9355C191.104 26.1976 190.99 26.4127 190.879 26.5808C190.759 26.7491 190.638 26.9226 190.518 27.1014C190.336 27.3122 190.03 27.5715 189.6 27.8795C189.161 28.2083 188.708 28.428 188.242 28.5385C187.818 28.6484 187.439 28.7213 187.107 28.757C186.805 28.7611 186.503 28.7652 186.2 28.7693C185.856 28.7532 185.386 28.6919 184.789 28.5854C184.13 28.4693 183.573 28.2946 183.119 28.0611C182.665 27.8277 182.304 27.5878 182.037 27.3414C181.772 27.1367 181.536 26.9003 181.331 26.6322C181.126 26.3538 180.865 25.925 180.548 25.346C180.252 24.7979 180.036 24.28 179.898 23.7923C179.761 23.3254 179.677 22.9098 179.647 22.5457C179.618 22.2231 179.604 21.8952 179.606 21.5618C179.607 21.2181 179.624 20.8741 179.657 20.5299C179.69 20.1857 179.831 19.6108 180.081 18.8053C180.341 17.9893 180.54 17.4293 180.678 17.1253C180.838 16.8419 181.003 16.574 181.173 16.3217C181.353 16.038 181.59 15.7327 181.884 15.4058C182.197 15.037 182.605 14.6929 183.108 14.3736C183.589 14.0441 183.979 13.8253 184.278 13.7171C184.536 13.6094 184.799 13.5225 185.069 13.4563C185.349 13.4109 185.692 13.3698 186.097 13.333C186.482 13.3278 186.8 13.3339 187.051 13.3513C187.291 13.3897 187.537 13.4333 187.789 13.4819C188.051 13.5617 188.377 13.6719 188.766 13.8124C189.135 13.9741 189.436 14.1106 189.668 14.2221C189.879 14.3234 190.074 14.4249 190.254 14.5266L190.476 14.6642C190.687 14.7655 190.827 14.9355 190.896 15.1742ZM203.45 27.9572C203.309 28.1674 203.109 28.2847 202.849 28.3091L202.351 28.3783C201.925 28.4466 201.388 28.4227 200.739 28.3065C200.101 28.2109 199.513 28.0262 198.974 27.7523C198.478 27.4986 198.065 27.249 197.736 27.0034C197.385 26.7269 196.956 26.2536 196.449 25.5834C195.942 24.934 195.585 24.4076 195.376 24.0042C195.178 23.5798 195.012 22.832 194.88 21.7608C194.728 20.7212 194.678 19.9667 194.728 19.4973C194.8 19.0692 194.957 18.4941 195.199 17.7721C195.451 17.0395 195.721 16.416 196.01 15.9017C196.309 15.3768 196.595 14.9666 196.869 14.6713C197.163 14.3652 197.602 14.0051 198.185 13.5909C198.81 13.1762 199.568 12.8898 200.46 12.7319C201.331 12.5742 201.97 12.5135 202.378 12.5496C202.765 12.6069 203.327 12.7763 204.063 13.058C204.779 13.3504 205.307 13.614 205.647 13.849C205.996 14.0735 206.364 14.4018 206.751 14.8341C207.137 15.2663 207.418 15.6636 207.594 16.0258C207.792 16.4085 207.99 17.0048 208.188 17.8146C208.375 18.6038 208.467 19.3265 208.463 19.9828C208.479 20.5972 208.461 21.1182 208.41 21.546C208.379 21.9735 208.254 22.5638 208.033 23.3168C207.814 24.0906 207.565 24.7242 207.286 25.2176C206.976 25.7322 206.561 26.217 206.042 26.672C205.522 27.127 205.103 27.4295 204.784 27.5797C204.485 27.7192 204.041 27.845 203.45 27.9572ZM199.574 26.1504C199.829 25.9594 200.104 25.914 200.398 26.0142L200.888 26.195C201.15 26.2748 201.438 26.3334 201.752 26.3708C202.054 26.3875 202.465 26.3559 202.984 26.276C203.503 26.196 203.845 26.1133 204.009 26.0277C204.194 25.9418 204.491 25.7243 204.899 25.375C205.296 25.0467 205.595 24.6989 205.794 24.3316C205.992 23.9643 206.183 23.4617 206.364 22.8238C206.555 22.165 206.668 21.6738 206.701 21.3505C206.734 21.0063 206.748 20.5477 206.743 19.9749C206.73 19.4438 206.646 18.846 206.494 18.1814C206.352 17.527 206.215 17.0809 206.084 16.8431C205.952 16.5845 205.741 16.2957 205.452 15.9767C205.162 15.6473 204.9 15.4061 204.667 15.253C204.444 15.0893 204.033 14.897 203.433 14.6759C202.854 14.4442 202.434 14.3093 202.172 14.2712C201.932 14.2536 201.475 14.3015 200.801 14.4148C200.168 14.5275 199.627 14.738 199.176 15.0462C198.695 15.3757 198.363 15.6354 198.18 15.8254C197.998 16.0362 197.783 16.3568 197.533 16.7873C197.284 17.2073 197.047 17.7314 196.824 18.3594C196.611 18.9769 196.487 19.4421 196.454 19.7551C196.42 20.0576 196.456 20.6561 196.563 21.5505C196.69 22.4238 196.824 23.0001 196.967 23.2794C197.1 23.5797 197.377 23.9978 197.797 24.5338C198.217 25.0802 198.545 25.4508 198.779 25.6455C198.981 25.8199 199.246 25.9881 199.574 26.1504ZM219.08 11.7449L219.586 11.9724C221.777 12.8802 222.919 15.1199 223.011 18.6916C223.082 21.4095 222.331 23.7947 220.759 25.8473C219.384 27.8764 217.894 28.9018 216.29 28.9236C214.78 28.9441 213.554 28.2888 212.613 26.9578C211.651 25.5855 211.134 23.5404 211.063 20.8225C210.977 17.4799 211.451 14.0932 212.488 10.6624C213.518 7.38797 214.756 4.9128 216.202 3.2369C217.587 1.6035 219.025 0.776694 220.514 0.756486C221.452 0.743767 222.209 1.03557 222.787 1.63191C223.366 2.24907 223.67 3.11996 223.699 4.24458C223.723 5.15052 223.35 6.24935 222.581 7.54105C221.782 8.86441 220.747 10.1233 219.475 11.3176L219.08 11.7449ZM213.145 15.5129L213.987 14.8453C217.5 11.683 219.686 9.41368 220.547 8.03741C221.51 6.62848 221.981 5.50228 221.959 4.65881C221.942 3.97154 221.766 3.43225 221.433 3.04093C221.1 2.64961 220.631 2.45805 220.027 2.46625C218.704 2.48419 217.43 3.58483 216.206 5.76815C215.02 7.87801 214.069 10.7764 213.352 14.4632L213.145 15.5129ZM220.93 19.2043L220.929 19.173C220.885 17.4548 220.557 16.0634 219.946 14.9988C219.344 13.8715 218.678 13.3128 217.949 13.3227C217.886 13.3236 217.824 13.3348 217.762 13.3565C217.7 13.3782 217.628 13.4156 217.546 13.4688C217.464 13.5116 217.382 13.5596 217.3 13.6128C217.228 13.6659 217.131 13.7453 217.009 13.8511C216.887 13.9465 216.774 14.0366 216.672 14.1213C216.571 14.2164 216.433 14.3433 216.26 14.5019C216.098 14.6604 215.955 14.8029 215.834 14.9296C215.712 15.0458 215.539 15.2096 215.315 15.421C215.102 15.6322 214.914 15.8119 214.751 15.9599C214.231 16.4045 213.721 16.8177 213.22 17.1995L213.097 17.2949L213.071 17.4671C212.929 18.4482 212.874 19.5219 212.904 20.6882C212.958 22.7812 213.302 24.3651 213.934 25.4399C214.61 26.587 215.453 27.1537 216.463 27.14C217.817 27.1216 218.905 26.2683 219.726 24.5801C220.579 22.9434 220.981 21.1515 220.93 19.2043ZM69.4267 41.0726C69.5567 40.8625 69.7304 40.7299 69.9478 40.6749C70.1756 40.6197 70.3903 40.6637 70.592 40.8068C70.8038 40.9393 70.9333 41.1094 70.9803 41.3171L71.085 41.7376C71.1559 42.0596 71.205 42.3454 71.2323 42.595C71.2593 42.8342 71.2989 43.3545 71.3509 44.1559C71.3715 44.9473 71.3875 45.5669 71.3991 46.0147C71.4054 46.2542 71.412 46.5093 71.419 46.78C71.458 46.6753 71.4972 46.581 71.5367 46.4972C71.8769 45.555 72.2276 44.8159 72.5888 44.2797C72.9813 43.7432 73.284 43.364 73.4971 43.1424C73.7721 42.8991 74.1826 42.6591 74.7287 42.4226C75.2545 42.2071 75.6524 42.0819 75.9224 42.047C76.1307 42.0442 76.3443 42.0413 76.563 42.0383C76.8448 42.0553 77.2234 42.1908 77.6988 42.4448C78.1957 42.7193 78.6124 43.1199 78.9491 43.6466C79.2419 44.0905 79.5364 44.8001 79.8326 45.7752C80.1376 46.6878 80.3483 47.3776 80.4646 47.8448C80.5601 48.3123 80.7296 49.0235 80.9732 49.9786C81.1861 50.9549 81.353 51.7651 81.4739 52.4093C81.5731 53.0226 81.6621 53.6412 81.7408 54.2651C81.8297 54.8785 81.8871 55.284 81.913 55.4815C81.9173 55.6482 81.9326 55.8354 81.9589 56.0434L81.9674 56.3714C81.9944 56.6107 81.9268 56.8147 81.7644 56.9836C81.6125 57.1523 81.4169 57.2435 81.1776 57.2572C80.9488 57.2707 80.7384 57.1954 80.5466 57.0314C80.3655 56.8776 80.2615 56.6863 80.2348 56.4574L80.2275 56.1763C80.2012 55.9683 80.1858 55.7758 80.1812 55.5988C80.1561 55.4325 80.1148 55.0476 80.0575 54.4442C79.9802 53.8723 79.892 53.285 79.793 52.6821C79.6729 52.0692 79.5017 51.2954 79.2795 50.3609C79.0464 49.4058 78.8823 48.7048 78.7874 48.2582C78.6716 47.8119 78.4722 47.1531 78.1891 46.2819C77.9279 45.4521 77.6991 44.8667 77.5027 44.5256C77.3293 44.2675 77.1319 44.0879 76.9105 43.9867C76.7198 43.8643 76.5668 43.7935 76.4517 43.7742C76.3476 43.7756 76.233 43.7772 76.108 43.7789C76.0044 43.8011 75.7722 43.8876 75.4114 44.0383C75.0501 44.1682 74.8189 44.2912 74.7177 44.4071C74.5751 44.5341 74.3482 44.8236 74.0369 45.2757C73.7246 45.6862 73.4276 46.2892 73.1461 47.0847C72.8448 47.9222 72.6675 48.5183 72.6142 48.8732C72.5404 49.2388 72.483 49.8386 72.4421 50.6725C72.3809 51.5275 72.3578 52.2413 72.3726 52.8141C72.3875 53.3868 72.3887 53.8347 72.3762 54.1578C72.3857 54.5222 72.3732 54.8453 72.3388 55.1271C72.3399 55.1687 72.3413 55.2208 72.3429 55.2833C72.3445 55.3457 72.3213 55.4554 72.2733 55.6123C72.2354 55.7587 72.1757 55.8689 72.0943 55.9429C72.0129 56.0169 71.8843 56.0812 71.7086 56.1356C71.5433 56.1899 71.3338 56.1459 71.08 56.0035C70.9534 55.9427 70.8423 55.8765 70.7466 55.8049C70.6614 55.7332 70.6024 55.6662 70.5695 55.6042C70.5364 55.5317 70.5138 55.4643 70.5017 55.402C70.4897 55.3396 70.4831 55.2877 70.4821 55.246L70.4804 55.1835C70.3882 54.841 70.3171 54.5086 70.267 54.1864C70.217 53.8642 70.1454 53.313 70.0522 52.533C69.9478 51.7219 69.8712 50.9782 69.8224 50.3017C69.7733 49.6149 69.7375 48.8341 69.7148 47.9594C69.6932 47.1264 69.6765 46.486 69.6649 46.0382C69.6533 45.5904 69.6372 44.9708 69.6167 44.1794C69.5759 43.4092 69.5426 42.9304 69.5169 42.7433C69.5126 42.5767 69.4758 42.3636 69.4066 42.1041L69.3336 41.6989C69.2657 41.4915 69.2967 41.2827 69.4267 41.0726ZM93.8839 55.4441C93.7435 55.6544 93.5434 55.7717 93.2835 55.796L92.7852 55.8653C92.3598 55.9336 91.8225 55.9096 91.1735 55.7934C90.5355 55.6979 89.9472 55.5132 89.4087 55.2392C88.9124 54.9855 88.4996 54.7359 88.1702 54.4904C87.8192 54.2139 87.3901 53.7405 86.883 53.0703C86.3765 52.4209 86.019 51.8945 85.8105 51.4911C85.612 51.0667 85.4467 50.3189 85.3147 49.2478C85.1627 48.2082 85.1119 47.4536 85.1622 46.9842C85.2345 46.5561 85.3915 45.9811 85.6332 45.259C85.8851 44.5264 86.1555 43.903 86.4443 43.3886C86.7433 42.8637 87.0296 42.4536 87.3033 42.1582C87.5975 41.8521 88.0362 41.492 88.6193 41.0778C89.2442 40.6631 90.0026 40.3768 90.8945 40.2188C91.7657 40.0612 92.4049 40.0004 92.8122 40.0366C93.1992 40.0938 93.761 40.2633 94.4977 40.5449C95.2138 40.8373 95.7416 41.101 96.0811 41.336C96.4308 41.5604 96.7987 41.8887 97.1851 42.321C97.5714 42.7533 97.8526 43.1505 98.0287 43.5127C98.2262 43.8954 98.424 44.4917 98.6221 45.3016C98.8093 46.0907 98.901 46.8134 98.8972 47.4697C98.9131 48.0841 98.8953 48.6052 98.8439 49.033C98.8133 49.4605 98.688 50.0507 98.4679 50.8037C98.2483 51.5776 97.9991 52.2112 97.7201 52.7045C97.4105 53.2192 96.9958 53.704 96.4763 54.1589C95.9567 54.6139 95.5373 54.9165 95.2182 55.0666C94.9197 55.2061 94.4749 55.3319 93.8839 55.4441ZM90.0079 53.6373C90.2635 53.4463 90.5384 53.4009 90.8327 53.5011L91.3219 53.682C91.5845 53.7618 91.8725 53.8203 92.1861 53.8578C92.4887 53.8745 92.8994 53.8429 93.4183 53.7629C93.9372 53.683 94.2789 53.6002 94.4434 53.5146C94.6287 53.4288 94.9252 53.2112 95.3329 52.8619C95.7308 52.5336 96.0291 52.1858 96.228 51.8185C96.4269 51.4512 96.617 50.9486 96.7984 50.3108C96.9897 49.6519 97.102 49.1608 97.1353 48.8374C97.168 48.4932 97.1822 48.0347 97.1778 47.4618C97.164 46.9307 97.0807 46.3329 96.928 45.6683C96.786 45.014 96.6494 44.5679 96.5182 44.3301C96.3865 44.0715 96.1758 43.7826 95.8862 43.4636C95.5964 43.1342 95.3348 42.893 95.1016 42.7399C94.8786 42.5763 94.4672 42.3839 93.8676 42.1629C93.2885 41.9312 92.8682 41.7962 92.6068 41.7581C92.3667 41.7405 91.9095 41.7884 91.2351 41.9017C90.6025 42.0145 90.0609 42.225 89.6105 42.5332C89.1293 42.8626 88.7974 43.1223 88.6148 43.3123C88.4327 43.5231 88.217 43.8437 87.9677 44.2742C87.7181 44.6943 87.4816 45.2183 87.2583 45.8464C87.0451 46.4639 86.9217 46.9291 86.8881 47.242C86.8543 47.5446 86.8907 48.1431 86.9972 49.0375C87.1241 49.9108 87.2588 50.4871 87.4015 50.7664C87.5344 51.0667 87.8109 51.4848 88.2312 52.0208C88.6517 52.5672 88.9791 52.9377 89.2134 53.1325C89.4159 53.3068 89.6807 53.4751 90.0079 53.6373ZM109.514 39.2318L110.02 39.4593C112.211 40.3671 113.353 42.6069 113.446 46.1786C113.516 48.8964 112.765 51.2816 111.193 53.3343C109.818 55.3634 108.329 56.3888 106.725 56.4105C105.215 56.431 103.989 55.7758 103.048 54.4448C102.085 53.0724 101.568 51.0273 101.498 48.3095C101.411 44.9668 101.886 41.5801 102.922 38.1494C103.952 34.8749 105.19 32.3997 106.637 30.7238C108.022 29.0904 109.459 28.2636 110.949 28.2434C111.886 28.2307 112.644 28.5225 113.222 29.1189C113.8 29.736 114.104 30.6069 114.134 31.7315C114.157 32.6375 113.784 33.7363 113.016 35.028C112.216 36.3514 111.181 37.6102 109.91 38.8046L109.514 39.2318ZM103.579 42.9999L104.422 42.3322C107.934 39.1699 110.121 36.9006 110.981 35.5244C111.945 34.1154 112.416 32.9892 112.394 32.1458C112.376 31.4585 112.201 30.9192 111.867 30.5279C111.534 30.1366 111.066 29.945 110.462 29.9532C109.139 29.9711 107.865 31.0718 106.64 33.2551C105.455 35.365 104.504 38.2633 103.787 41.9502L103.579 42.9999ZM111.365 46.6912L111.364 46.66C111.319 44.9418 110.991 43.5504 110.38 42.4857C109.778 41.3585 109.112 40.7998 108.383 40.8097C108.321 40.8105 108.258 40.8218 108.196 40.8435C108.135 40.8651 108.063 40.9026 107.981 40.9558C107.898 40.9986 107.816 41.0465 107.734 41.0997C107.663 41.1528 107.566 41.2322 107.443 41.3381C107.321 41.4335 107.209 41.5235 107.107 41.6083C107.005 41.7034 106.868 41.8303 106.695 41.9889C106.532 42.1473 106.39 42.2899 106.268 42.4165C106.146 42.5328 105.973 42.6966 105.749 42.9079C105.536 43.1192 105.348 43.2988 105.185 43.4469C104.665 43.8914 104.155 44.3046 103.654 44.6864L103.532 44.7818L103.505 44.9541C103.364 45.9352 103.308 47.0088 103.338 48.1751C103.393 50.2682 103.736 51.8521 104.368 52.9268C105.044 54.0739 105.887 54.6406 106.897 54.6269C108.251 54.6086 109.339 53.7552 110.16 52.067C111.014 50.4304 111.415 48.6385 111.365 46.6912ZM116.512 39.6681C116.506 39.439 116.521 39.2149 116.557 38.9956C116.603 38.7762 116.676 38.5617 116.775 38.352C116.873 38.1424 117.021 37.9893 117.216 37.8929C117.422 37.7964 117.661 37.7827 117.934 37.8519C117.991 38.4553 118.017 39.4498 118.011 40.8353C118.016 42.2103 118.036 43.1996 118.073 43.8033C118.201 43.9474 118.395 44.1687 118.653 44.4673C119.084 44.2427 119.774 43.926 120.722 43.5173C122.612 43.2625 124.117 43.2317 125.237 43.4248C125.682 43.7417 126.001 43.9717 126.192 44.115C126.384 44.2582 126.655 44.4785 127.006 44.7758C127.358 45.0627 127.647 45.3505 127.873 45.6391C128.099 45.9173 128.294 46.2167 128.459 46.5374C128.56 46.8173 128.63 47.1288 128.671 47.472C128.71 47.8048 128.723 48.0911 128.708 48.3309C128.704 48.5601 128.686 48.8885 128.656 49.316C128.635 49.733 128.622 50.0248 128.616 50.1916C128.015 51.1372 127.218 51.9085 126.222 52.5053C125.227 53.0918 124.19 53.486 123.112 53.6882C122.033 53.8799 120.914 53.9315 119.755 53.8431C119.409 53.7645 119.099 53.6437 118.824 53.4807C118.549 53.3178 118.314 53.1126 118.12 52.8653C117.926 52.6075 117.758 52.3493 117.616 52.0908C117.484 51.8322 117.367 51.5265 117.264 51.1737C117.161 50.821 117.08 50.5096 117.021 50.2395C116.961 49.9695 116.901 49.6578 116.84 49.3045C116.503 45.9548 116.394 42.7427 116.512 39.6681ZM118.489 46.6102C118.497 48.5059 118.544 49.9272 118.631 50.8739C118.737 50.9454 118.897 51.0943 119.112 51.3205C119.326 51.5364 119.528 51.7055 119.719 51.8279C119.909 51.9503 120.119 52.01 120.349 52.0069C121.037 52.0496 121.709 52.0301 122.363 51.9483C123.028 51.856 123.68 51.6961 124.32 51.4686C124.97 51.241 125.535 50.8948 126.012 50.43C126.5 49.9547 126.845 49.3823 127.046 48.7128C127.022 48.1715 127.001 47.7707 126.984 47.5106C126.94 47.4278 126.852 47.2623 126.721 47.0141C126.589 46.7555 126.501 46.5848 126.457 46.5021C125.963 45.9358 125.359 45.5221 124.643 45.261C123.939 44.9997 123.222 44.8949 122.494 44.9464C121.766 44.9876 121.046 45.1536 120.335 45.4445C119.634 45.7352 119.019 46.1238 118.489 46.6102ZM131.23 37.6872C131.325 37.7171 131.446 37.7624 131.593 37.8229C131.751 37.8728 131.919 37.933 132.098 38.0035C132.287 38.0635 132.418 38.1033 132.492 38.1232C132.77 39.6298 132.969 41.2574 133.087 43.0058C133.205 44.7438 133.257 46.3317 133.242 47.7694C133.227 49.1967 133.176 50.8328 133.088 52.6778C132.818 52.7127 132.19 52.815 131.205 52.9846C131.183 52.1307 131.197 51.292 131.249 50.4684C131.454 49.5176 131.572 48.4639 131.605 47.3072C131.637 46.1505 131.604 45.0832 131.506 44.1054C131.418 43.1274 131.343 42.0607 131.282 40.9053C131.221 39.7394 131.203 38.6667 131.23 37.6872ZM135.864 39.2024C136.168 39.2608 136.629 39.3639 137.248 39.5118C137.269 39.949 137.292 40.605 137.314 41.4797C137.337 42.3544 137.361 43.0624 137.385 43.6037C137.409 44.1347 137.467 44.7745 137.56 45.5233C137.652 46.2616 137.779 46.937 137.941 47.5494C137.953 47.6326 137.982 47.9238 138.026 48.4233C138.08 48.9121 138.125 49.25 138.162 49.4371C138.198 49.6241 138.267 49.8888 138.37 50.2311C138.482 50.5629 138.62 50.8579 138.783 51.1161C138.904 51.3645 139.069 51.6956 139.278 52.1094C139.442 52.3885 139.686 52.5935 140.013 52.7245C140.339 52.8451 140.668 52.8823 141 52.8361C141.343 52.7794 141.642 52.6555 141.897 52.4645C142.141 52.2216 142.353 51.9531 142.533 51.659C142.723 51.3544 142.926 50.961 143.143 50.4789C143.37 49.9862 143.518 49.6665 143.587 49.5197C143.501 48.2292 143.448 46.782 143.427 45.178C143.417 43.5636 143.483 42.1095 143.627 40.8159C143.855 40.7711 144.275 40.6925 144.887 40.58C145.033 41.0156 145.15 41.4827 145.236 41.9816C145.321 42.4804 145.375 42.9276 145.395 43.3232C145.427 43.7186 145.434 44.2029 145.418 44.776C145.411 45.3386 145.392 45.792 145.359 46.1362C145.336 46.4699 145.297 46.9548 145.24 47.591C145.194 48.2166 145.159 48.6702 145.135 48.9518C145.071 49.6819 145.251 50.393 145.675 51.0851C146.099 51.7669 146.648 52.2542 147.323 52.5472C147.773 52.6348 148.199 52.5978 148.601 52.4361C149.014 52.2742 149.357 52.0352 149.63 51.719C149.903 51.3924 150.122 51.0248 150.289 50.6163C150.466 50.1972 150.569 49.7739 150.6 49.3464C150.89 45.6862 151.057 42.887 151.101 40.9489C151.279 40.1652 151.418 39.5018 151.518 38.9588C152.137 39.0962 152.551 39.1896 152.76 39.2388C152.811 39.9986 152.822 40.8266 152.793 41.7228C152.765 42.619 152.722 43.38 152.665 44.0058C152.608 44.6316 152.521 45.4765 152.403 46.5407C152.295 47.6046 152.221 48.3817 152.182 48.8718C152.211 49.2048 152.282 49.5371 152.395 49.8689C152.518 50.2006 152.646 50.4906 152.777 50.7388C152.908 50.9766 153.098 51.2605 153.346 51.5904C153.594 51.91 153.793 52.1573 153.944 52.3323C154.094 52.5074 154.325 52.7699 154.636 53.1198C154.958 53.4592 155.177 53.6906 155.295 53.814C155.256 53.8979 155.171 54.0657 155.042 54.3175C154.924 54.5691 154.845 54.7368 154.805 54.8207C154.502 54.7831 154.219 54.7037 153.955 54.5822C153.702 54.4502 153.458 54.2713 153.222 54.0453C152.998 53.8192 152.805 53.6134 152.644 53.4281C152.482 53.2324 152.288 52.985 152.062 52.686C151.835 52.3766 151.662 52.1445 151.544 51.9899C151.276 52.504 150.906 52.9152 150.435 53.2237C149.963 53.5218 149.447 53.7111 148.887 53.7916C148.326 53.8721 147.769 53.8901 147.216 53.8455C146.673 53.8008 146.123 53.7041 145.567 53.5554C145.117 53.0823 144.615 52.6048 144.061 52.1227C143.86 52.8337 143.458 53.3757 142.853 53.7485C142.248 54.1213 141.586 54.3073 140.867 54.3067C140.147 54.2956 139.476 54.1328 138.853 53.8184C137.919 53.1435 137.302 52.0633 137.003 50.5778C136.947 50.4015 136.844 50.0799 136.697 49.6132C136.549 49.1464 136.431 48.7834 136.34 48.5242C136.218 47.8071 136.119 47.0064 136.044 46.122C135.979 45.2374 135.94 44.5192 135.925 43.9673C135.911 43.405 135.899 42.5666 135.891 41.4521C135.883 40.3376 135.874 39.5877 135.864 39.2024ZM160.507 45.6651C160.653 45.6631 160.799 45.6715 160.945 45.6904C161.112 45.6881 161.461 45.699 161.993 45.723C162.535 45.7365 162.926 45.7416 163.166 45.7384C163.405 45.7351 163.634 45.7216 163.852 45.6978C164.07 45.6636 164.48 45.6007 165.082 45.5092C165.674 45.4387 166.053 45.3815 166.219 45.3376C166.395 45.2935 166.637 45.2069 166.947 45.0777C167.225 44.9697 167.405 44.8892 167.487 44.836C167.548 44.7727 167.634 44.6777 167.746 44.5512C167.827 44.4668 167.897 44.346 167.955 44.189C168.013 44.0007 168.051 43.8648 168.069 43.7812C168.067 43.6979 168.031 43.5057 167.961 43.2045C167.89 42.9034 167.833 42.7115 167.79 42.6287C167.725 42.5463 167.591 42.4075 167.388 42.2123C167.195 42.0066 166.999 41.8634 166.799 41.7828C166.556 41.6611 166.345 41.5754 166.167 41.5257C165.988 41.4656 165.685 41.4177 165.257 41.3818C164.849 41.3249 164.51 41.319 164.24 41.3644C163.98 41.3887 163.675 41.4762 163.325 41.6268C162.974 41.767 162.727 41.8797 162.583 41.965C162.44 42.0711 162.237 42.2665 161.973 42.5514C161.71 42.8258 161.459 43.199 161.221 43.671C160.953 44.1642 160.79 44.5206 160.733 44.7401C160.675 44.9076 160.6 45.2159 160.507 45.6651ZM158.627 46.0812C158.664 45.914 158.701 45.7312 158.737 45.5328C158.867 44.8956 158.985 44.4357 159.092 44.153C159.189 43.8704 159.392 43.4406 159.7 42.8635C160.028 42.2653 160.364 41.7711 160.708 41.381C161.043 41.0119 161.327 40.7424 161.563 40.5725C161.818 40.3816 162.183 40.1943 162.658 40.0108C163.142 39.8167 163.598 39.6908 164.023 39.6329C164.428 39.5857 164.897 39.5898 165.43 39.6451C165.963 39.7003 166.366 39.773 166.639 39.863C166.912 39.9427 167.212 40.0532 167.539 40.1946C167.908 40.3771 168.253 40.6328 168.575 40.9618C168.927 41.3008 169.158 41.5737 169.268 41.7805C169.398 41.9871 169.527 42.3343 169.654 42.8222C169.771 43.3102 169.822 43.6741 169.808 43.9139C169.793 44.1432 169.722 44.4307 169.596 44.7761C169.459 45.1426 169.29 45.4574 169.089 45.7205C168.886 45.9316 168.697 46.1008 168.524 46.2282C168.339 46.3557 168.031 46.5109 167.598 46.6939C167.216 46.8241 166.906 46.9272 166.668 47.0034C166.441 47.069 166 47.1479 165.346 47.2401C164.734 47.3317 164.292 47.3898 164.022 47.4143C163.752 47.4388 163.481 47.4529 163.21 47.4565C162.971 47.4598 162.57 47.4548 162.007 47.4416C161.444 47.4284 161.073 47.4178 160.896 47.4098C160.729 47.4017 160.573 47.3986 160.427 47.4006C160.364 47.4014 160.286 47.4025 160.193 47.4037C160.176 47.5706 160.159 47.7323 160.143 47.8888C160.127 48.0973 160.153 48.498 160.221 49.0909C160.288 49.6733 160.345 50.058 160.391 50.2448C160.438 50.4525 160.512 50.6651 160.611 50.8825C160.678 51.0691 160.822 51.3692 161.041 51.7829C161.238 52.1448 161.427 52.4183 161.609 52.6034C161.824 52.84 162.01 53.0094 162.169 53.1114C162.297 53.2138 162.556 53.3457 162.945 53.5071C163.336 53.6893 163.683 53.8252 163.987 53.9149C164.292 53.9941 164.642 54.0414 165.038 54.0569C165.466 54.0927 165.758 54.0992 165.914 54.0762C166.039 54.0745 166.282 53.9983 166.643 53.8476C166.962 53.7182 167.173 53.6164 167.276 53.5421C167.378 53.4574 167.469 53.3572 167.549 53.2415C167.629 53.1258 167.744 52.916 167.892 52.6119C168.03 52.2871 168.127 52.0357 168.185 51.8579C168.243 51.6696 168.291 51.5023 168.328 51.3559L168.384 51.1052C168.42 50.8651 168.535 50.6812 168.73 50.5536C168.935 50.4258 169.152 50.3812 169.383 50.4197C169.623 50.4581 169.809 50.5806 169.939 50.7872C170.08 50.9832 170.132 51.196 170.096 51.4257L170.042 51.7233C169.984 51.9324 169.912 52.1626 169.825 52.4138C169.748 52.6544 169.621 52.9686 169.443 53.3565C169.266 53.7651 169.097 54.0747 168.936 54.2852C168.785 54.4852 168.612 54.6698 168.419 54.8391C168.215 55.0294 167.851 55.2375 167.325 55.4633C166.799 55.658 166.396 55.7728 166.115 55.8079C165.855 55.8323 165.47 55.8271 164.958 55.7923C164.426 55.7579 163.955 55.6862 163.546 55.5771C163.137 55.4577 162.705 55.2969 162.252 55.0947C161.756 54.8618 161.386 54.6637 161.143 54.5003C160.93 54.3366 160.679 54.1056 160.39 53.8074C160.08 53.4887 159.793 53.0759 159.53 52.5691C159.257 52.104 159.075 51.7315 158.985 51.4514C158.874 51.1925 158.784 50.9385 158.715 50.6895C158.645 50.4092 158.57 49.931 158.49 49.255C158.42 48.5684 158.397 48.0792 158.421 47.7872C158.434 47.5057 158.458 47.2241 158.493 46.9424C158.491 46.8799 158.5 46.8173 158.519 46.7546C158.517 46.6921 158.516 46.64 158.515 46.5984C158.49 46.4216 158.527 46.2492 158.627 46.0812ZM183.878 44.6917C184.012 44.6378 184.115 44.5791 184.186 44.5157C184.258 44.4522 184.313 44.3785 184.353 44.2947C184.402 44.1794 184.445 44.0278 184.481 43.8398C184.518 43.6414 184.557 43.3179 184.597 42.8694C184.648 42.4104 184.684 42.0193 184.707 41.6961C184.73 41.3624 184.772 40.7733 184.833 39.9287C184.956 38.2395 185.413 37.3895 186.205 37.3788C186.538 37.3743 186.769 37.4336 186.897 37.5569C187.026 37.6802 187.094 37.9084 187.103 38.2416C187.107 38.4082 187.049 38.7788 186.928 39.3534C186.207 42.8945 185.878 45.8625 185.94 48.2576C186.01 50.9441 186.498 52.7032 187.406 53.5346C187.534 53.6475 187.635 53.7607 187.711 53.8742C187.797 53.9772 187.851 54.0546 187.874 54.1064C187.906 54.1581 187.923 54.1891 187.923 54.1995C187.927 54.3557 187.785 54.5191 187.498 54.6896C187.139 54.9133 186.824 55.0269 186.554 55.0306C185.939 55.0389 185.428 54.4365 185.022 53.2232C184.615 52.01 184.379 50.1277 184.313 47.5765C184.304 47.2224 184.198 46.9635 183.996 46.7995C183.868 46.6971 183.726 46.6469 183.57 46.6491C182.684 46.6611 181.608 46.7382 180.341 46.8804C179.052 47.0124 178.129 47.1812 177.572 47.3867C176.9 47.6042 176.473 47.8183 176.291 48.0291C176.109 48.2503 175.966 48.7471 175.861 49.5193C175.764 50.2186 175.726 50.9483 175.746 51.7084L175.798 53.7234C175.811 54.2128 175.731 54.5576 175.559 54.7579C175.388 54.9685 175.099 55.0766 174.692 55.0821C174.38 55.0864 174.148 54.9906 173.997 54.7947C173.857 54.6091 173.78 54.2612 173.767 53.7509C173.748 53.0012 173.817 52.0471 173.974 50.8887C174.261 48.6973 174.507 44.9387 174.713 39.6129C174.739 38.9979 174.776 38.6224 174.825 38.4863C174.863 38.3712 175.005 38.2287 175.251 38.0587C175.486 37.8888 175.745 37.802 176.026 37.7982C176.328 37.7941 176.527 37.833 176.623 37.9151C176.718 37.9867 176.769 38.1214 176.774 38.3193C176.767 38.4756 176.667 39.2374 176.474 40.6046C176.266 42.2221 176.173 43.4785 176.196 44.3741C176.206 44.7594 176.298 45.081 176.471 45.3391C176.645 45.5972 176.893 45.724 177.216 45.7196C177.945 45.7097 179.254 45.5461 181.142 45.2289C181.339 45.2053 181.578 45.1709 181.858 45.1254C182.148 45.0798 182.366 45.0456 182.512 45.0228C182.667 44.9998 182.849 44.9713 183.056 44.9373C183.264 44.8928 183.419 44.8542 183.522 44.8216C183.636 44.7783 183.755 44.7351 183.878 44.6917ZM201.348 45.7516L200.604 47.2148C199.498 49.5424 198.357 51.3443 197.181 52.6207C196.036 53.8655 194.938 54.495 193.886 54.5092C193.313 54.517 192.699 54.1503 192.044 53.4092C191.378 52.6474 191.024 51.4438 190.981 49.7986C190.945 48.4032 191.214 46.3214 191.788 43.5531C192.271 41.2653 192.51 39.6266 192.505 38.6371C192.723 38.207 193.061 37.9889 193.519 37.9827C193.832 37.9784 194.085 38.0844 194.278 38.3005C194.482 38.5269 194.587 38.7599 194.593 38.9994C194.611 39.6762 194.391 40.6688 193.936 41.9771C193.015 44.6563 192.58 46.9539 192.63 48.8699C192.681 50.838 193.232 51.8149 194.284 51.8007C195.326 51.7865 196.552 50.8688 197.964 49.0476C199.335 47.2685 200.511 44.8098 201.492 41.6715C201.878 40.4787 202.197 39.7087 202.448 39.3616C202.639 39.0986 202.902 38.9648 203.235 38.9603C203.474 38.957 203.648 39.0276 203.756 39.1719C203.864 39.3059 203.923 39.5707 203.933 39.9664C203.926 40.0915 203.842 40.4573 203.68 41.0636C203.108 43.5193 202.851 45.8354 202.907 48.0117C202.977 50.7087 203.465 52.4678 204.372 53.2888C204.501 53.4121 204.603 53.5305 204.679 53.644C204.765 53.747 204.819 53.8244 204.841 53.8762C204.873 53.9278 204.89 53.9589 204.89 53.9693C204.894 54.1151 204.752 54.2785 204.465 54.4594C204.106 54.6831 203.792 54.7967 203.521 54.8004C202.969 54.8079 202.487 54.33 202.077 53.3668C201.622 52.2896 201.366 50.6681 201.31 48.5022L201.296 47.9555C201.291 47.7889 201.292 47.617 201.298 47.4398L201.348 45.7516ZM211.736 37.7199C212.2 37.5157 212.664 37.3531 213.13 37.2322C213.596 37.1113 214.084 37.037 214.593 37.0093C215.113 36.9709 215.605 37.0424 216.068 37.2236C216.541 37.3943 216.94 37.6806 217.263 38.0824C217.408 38.07 217.699 38.0557 218.137 38.0393C218.574 38.023 218.865 38.0138 219.011 38.0118C219.633 43.1076 219.887 48.0678 219.772 52.8924C219.658 52.9147 219.425 52.97 219.073 53.0581C218.731 53.1357 218.504 53.1908 218.39 53.2236C218.346 52.3388 218.302 51.6415 218.258 51.1316C218.223 50.6217 218.155 49.9924 218.052 49.2438C217.96 48.4846 217.848 47.7934 217.717 47.1702C216.874 48.0149 216.199 48.696 215.691 49.2133C215.194 49.7305 214.596 50.3792 213.898 51.1595C213.209 51.9293 212.598 52.6564 212.063 53.3407C211.974 53.519 211.858 53.656 211.714 53.7517C211.581 53.8368 211.426 53.8754 211.249 53.8674C211.071 53.8594 210.909 53.8408 210.763 53.8115C210.616 53.7822 210.438 53.7378 210.228 53.6781C210.018 53.6081 209.86 53.5633 209.755 53.5439C209.796 53.5121 209.888 53.4536 210.032 53.3683C210.176 53.283 210.268 53.2244 210.309 53.1926C210.536 52.7208 210.847 52.2374 211.24 51.7425C211.634 51.2475 212.013 50.8205 212.379 50.4614C212.745 50.1022 213.146 49.6801 213.581 49.1951C214.017 48.71 214.369 48.2573 214.64 47.8369C214.067 47.8447 213.498 47.7951 212.932 47.6882C212.367 47.5709 211.815 47.3961 211.278 47.1638C210.751 46.9313 210.284 46.6043 209.877 46.1828C209.47 45.7612 209.181 45.2755 209.011 44.7257C208.416 43.4734 208.467 42.03 209.164 40.3955C209.915 39.2186 210.772 38.3267 211.736 37.7199ZM212.666 39.2229C212.348 39.4148 212.03 39.6014 211.711 39.7828C210.272 41.3336 209.855 42.7195 210.46 43.9404C210.761 44.7176 211.313 45.3091 212.115 45.7149C212.918 46.1207 213.723 46.2452 214.532 46.0884C215.802 45.6544 216.857 44.937 217.696 43.936C217.695 43.8944 217.702 43.7797 217.718 43.592C217.744 43.4041 217.757 43.2841 217.756 43.2321C217.764 43.1695 217.777 43.0495 217.793 42.8722C217.809 42.6949 217.817 42.5698 217.815 42.4969C217.813 42.424 217.815 42.3094 217.821 42.153C217.828 41.9863 217.824 41.8613 217.812 41.7782C217.809 41.6844 217.801 41.57 217.787 41.4347C217.773 41.2891 217.754 41.1696 217.731 41.0761C217.707 40.9723 217.673 40.8634 217.629 40.7494C217.594 40.6248 217.555 40.5056 217.51 40.3916C217.265 40.1658 216.897 39.8583 216.408 39.4691C215.928 39.0693 215.593 38.7874 215.401 38.6233C214.818 38.6208 214.308 38.659 213.872 38.7378C213.437 38.8166 213.035 38.9783 212.666 39.2229ZM46.5907 74.1329L47.073 74.0483C49.4257 73.5684 51.4766 71.8947 53.2256 69.0272C54.0056 67.7666 54.7066 66.8717 55.3284 66.3424C55.9409 65.8549 56.5909 65.6065 57.2783 65.5972C57.4867 65.5943 57.7134 65.7006 57.9587 65.9161C58.1929 66.1108 58.3136 66.3436 58.3206 66.6143C58.3287 66.9267 57.9453 67.2079 57.1703 67.458C56.6125 67.6427 56.094 67.9414 55.615 68.3542C55.1673 68.7665 54.3852 69.7459 53.2687 71.2923C52.4441 72.4389 51.7044 73.2458 51.0497 73.7131C51.0393 73.7132 51.0238 73.7186 51.0032 73.7293C50.9931 73.7399 50.9777 73.7505 50.9572 73.7612C50.947 73.7717 50.9318 73.7876 50.9115 73.8087C50.8912 73.8298 50.8709 73.8509 50.8506 73.872C50.8408 73.893 50.8258 73.9192 50.8058 73.9507C50.7962 73.9821 50.7867 74.0187 50.7774 74.0605C50.7785 74.1022 50.7796 74.1438 50.7806 74.1855C50.782 74.2375 50.7832 74.2844 50.7843 74.326C50.7955 74.3571 50.8067 74.3882 50.818 74.4193C50.8396 74.4503 50.856 74.4813 50.8673 74.5124C50.8886 74.533 50.9048 74.5536 50.9158 74.5743C50.9369 74.5844 50.9581 74.5997 50.9795 74.6203C51.011 74.6303 51.0321 74.6404 51.0428 74.6507C51.0535 74.6609 51.0693 74.6711 51.0904 74.6813C51.1115 74.6914 51.1221 74.6965 51.1221 74.6965C51.7677 75.0835 52.4653 75.8658 53.2148 77.0431C54.3979 78.8708 55.3136 80.0303 55.9619 80.5215C56.6629 81.0328 57.4508 81.2826 58.3257 81.2707L58.8565 81.2479C58.9086 81.2472 58.9503 81.2466 58.9815 81.2462C58.9927 81.2773 58.9987 81.3085 58.9996 81.3397C59.0069 81.6208 58.8328 81.9409 58.4775 82.2999C58.1117 82.6591 57.4653 82.8449 56.5383 82.8575C55.8508 82.8668 55.1863 82.5529 54.5446 81.9158C53.8703 81.227 53.0908 80.0969 52.2061 78.5256C51.6703 77.5537 51.1665 76.8105 50.6947 76.296C50.1799 75.7301 49.61 75.4514 48.9851 75.4598C48.8393 75.4618 48.4621 75.5815 47.8535 75.819C47.5955 75.9162 47.3944 75.9971 47.2502 76.0615C47.1162 76.1154 46.9777 76.2006 46.8349 76.3172C46.7025 76.4335 46.6069 76.565 46.5482 76.7117C46.4609 76.9629 46.4187 77.7447 46.4215 79.0572C46.4125 80.3177 46.418 81.3333 46.438 82.1039C46.4453 82.385 46.3166 82.6472 46.052 82.8904C45.7666 83.1338 45.4572 83.2578 45.1239 83.2624C44.8011 83.2667 44.5488 83.1816 44.3671 83.007C44.1852 82.822 44.0919 82.6409 44.0873 82.4639C44.0779 82.0994 44.1951 81.1968 44.4391 79.756C44.8693 77.0626 45.2548 72.6406 45.5953 66.4901C45.6142 66.0106 45.7852 65.576 46.1085 65.1862C46.4115 64.8175 46.7453 64.6307 47.1099 64.6257C47.2349 64.624 47.3516 64.7058 47.4601 64.871C47.6014 65.0982 47.6771 65.4045 47.6871 65.7898C47.6957 66.123 47.6535 66.5038 47.5604 66.9322C47.0131 69.1271 46.6959 71.3606 46.609 73.6327L46.5907 74.1329ZM67.88 65.7971L68.3861 66.0246C70.5768 66.9324 71.7186 69.1721 71.8112 72.7439C71.8817 75.4617 71.1309 77.8469 69.5587 79.8995C68.1839 81.9286 66.6945 82.9541 65.0904 82.9758C63.5802 82.9963 62.3545 82.3411 61.4135 81.0101C60.4506 79.6377 59.9339 77.5926 59.8634 74.8747C59.7767 71.5321 60.2514 68.1454 61.2877 64.7146C62.3177 61.4402 63.5559 58.965 65.0024 57.2891C66.3875 55.6557 67.8247 54.8289 69.3142 54.8087C70.2516 54.796 71.0094 55.0878 71.5875 55.6841C72.1661 56.3013 72.47 57.1722 72.4992 58.2968C72.5227 59.2027 72.1501 60.3016 71.3813 61.5933C70.5821 62.9166 69.5467 64.1755 68.2753 65.3698L67.88 65.7971ZM61.945 69.5652L62.7872 68.8975C66.2999 65.7352 68.4864 63.4659 69.3468 62.0896C70.3105 60.6807 70.7814 59.5545 70.7595 58.711C70.7417 58.0238 70.5662 57.4845 70.233 57.0932C69.8999 56.7018 69.4312 56.5103 68.8271 56.5185C67.5043 56.5364 66.2305 57.6371 65.0055 59.8204C63.8204 61.9302 62.8692 64.8286 62.1522 68.5155L61.945 69.5652ZM69.7302 73.2565L69.7294 73.2252C69.6848 71.5071 69.357 70.1157 68.7459 69.051C68.1436 67.9238 67.4779 67.3651 66.7488 67.375C66.6863 67.3758 66.6241 67.3871 66.5621 67.4087C66.5002 67.4304 66.4282 67.4679 66.3462 67.5211C66.264 67.5638 66.1819 67.6118 66.0999 67.665C66.0283 67.7181 65.9314 67.7975 65.8091 67.9033C65.6866 67.9988 65.5743 68.0888 65.4723 68.1735C65.3706 68.2687 65.2332 68.3955 65.0602 68.5541C64.8976 68.7126 64.7554 68.8552 64.6337 68.9818C64.5116 69.0981 64.3388 69.2619 64.115 69.4732C63.9017 69.6845 63.7136 69.8641 63.5507 70.0121C63.0309 70.4567 62.5206 70.8699 62.02 71.2517L61.8974 71.3471L61.8706 71.5193C61.7294 72.5004 61.6739 73.5741 61.7041 74.7404C61.7584 76.8334 62.1017 78.4174 62.7339 79.4921C63.4096 80.6392 64.2527 81.2059 65.263 81.1922C66.617 81.1738 67.7046 80.3205 68.5256 78.6323C69.3792 76.9957 69.7807 75.2037 69.7302 73.2565ZM86.4582 77.0608C86.3492 76.8748 86.2351 76.6941 86.1159 76.5186C85.9639 76.2811 85.7909 76.0386 85.5969 75.7912C85.4241 75.554 85.0183 75.1741 84.3796 74.6515C83.8148 74.1696 83.4431 73.8986 83.2644 73.8385C83.117 73.778 82.8407 73.7713 82.4356 73.8185C81.9888 73.8662 81.5954 73.9653 81.2555 74.1158C80.8739 74.2668 80.5808 74.4166 80.3763 74.5652C80.1819 74.7032 80.0034 74.8515 79.8408 75.01C79.6977 75.1161 79.5009 75.3635 79.2505 75.7524C78.9793 76.1415 78.8146 76.4197 78.7564 76.5872C78.6988 76.7755 78.6427 77.021 78.588 77.3239C78.5542 77.6264 78.5498 77.8609 78.575 78.0272C78.5793 78.1938 78.6491 78.4741 78.7844 78.8681C78.9188 79.2309 79.0559 79.4946 79.1956 79.6594C79.3677 79.8654 79.5329 80.009 79.6913 80.0902C79.8398 80.1923 79.9987 80.2944 80.1681 80.3962C80.3476 80.4875 80.6316 80.5931 81.0203 80.7128C81.3667 80.8123 81.665 80.8655 81.9153 80.8725C82.1965 80.8687 82.4299 80.8291 82.6155 80.7537C82.8227 80.7092 83.0344 80.6334 83.2504 80.5263C83.4768 80.419 83.7079 80.2909 83.9437 80.1419C84.128 80.0144 84.4737 79.6868 84.981 79.159C85.4568 78.6213 85.7448 78.2789 85.8452 78.1317C85.945 77.9636 86.0346 77.801 86.1139 77.6436C86.2247 77.4963 86.3394 77.302 86.4582 77.0608ZM87.9804 77.8996C87.8408 78.1411 87.7312 78.3352 87.6516 78.4822C87.5726 78.6499 87.4579 78.8442 87.3073 79.065C87.1677 79.3065 86.8142 79.7383 86.2469 80.3606C85.6691 80.9831 85.2214 81.3954 84.9036 81.5976C84.6064 81.7892 84.3033 81.9547 83.9944 82.0943C83.6961 82.2442 83.4022 82.3628 83.1127 82.4501C82.792 82.5377 82.4181 82.5845 81.9911 82.5903C81.5438 82.6172 81.0521 82.5405 80.516 82.3603C80.0227 82.2211 79.6491 82.0804 79.3954 81.938C79.1523 81.8059 78.9087 81.6529 78.6645 81.4791C78.4207 81.3158 78.1695 81.0744 77.9112 80.755C77.6002 80.4154 77.3542 79.9709 77.1733 79.4212C76.9928 78.8924 76.8828 78.4668 76.8432 78.1444C76.8145 77.8427 76.8313 77.4831 76.8934 77.0656C76.9662 76.6584 77.0507 76.303 77.147 75.9996C77.2434 75.6963 77.4568 75.2871 77.7872 74.7722C78.1183 74.2781 78.4162 73.9147 78.6811 73.6819C78.9158 73.4912 79.1664 73.3107 79.4329 73.1405C79.7095 72.9596 80.0689 72.7568 80.5111 72.5321C81.0161 72.3169 81.5905 72.1685 82.2344 72.0868C82.8889 72.0154 83.4214 72.0551 83.8316 72.2058C84.1994 72.3258 84.7775 72.719 85.5658 73.3854C85.4303 72.981 85.3228 72.6543 85.2434 72.4054C85.109 72.0426 84.9148 71.5869 84.6609 71.0382C84.3868 70.5107 84.152 70.0972 83.9567 69.7978C83.7614 69.4983 83.5413 69.2461 83.2963 69.0411C83.1039 68.8562 82.7385 68.6268 82.2 68.3528C81.6615 68.0789 81.1985 67.9029 80.811 67.8248C80.3823 67.7681 80.0375 67.7311 79.7766 67.7138C79.5162 67.7174 79.2613 67.7312 79.0118 67.7555C78.8041 67.7791 78.4219 67.9093 77.8654 68.146C77.4635 68.3181 77.2016 68.4623 77.0796 68.5786L76.8986 68.831C76.7784 69.0202 76.5993 69.1424 76.361 69.1977C76.133 69.2425 75.913 69.1986 75.7012 69.066C75.4995 68.9229 75.3697 68.7372 75.3117 68.5088C75.2638 68.2699 75.3155 68.0556 75.4669 67.8661L75.6471 67.5824C75.8777 67.2355 76.3795 66.8953 77.1523 66.5619C77.8735 66.2501 78.4263 66.0707 78.8106 66.0238C79.133 65.9986 79.4608 65.9837 79.7941 65.9792C80.1384 65.9954 80.5772 66.0415 81.1105 66.1176C81.6653 66.2142 82.2859 66.4402 82.9723 66.7955C83.6588 67.1507 84.1625 67.4877 84.4833 67.8062C84.7932 68.1041 85.0938 68.4438 85.385 68.8253C85.6554 69.207 85.9339 69.7032 86.2207 70.314C86.5178 70.9245 86.7345 71.4424 86.8705 71.8677C87.006 72.2721 87.1877 72.8477 87.4155 73.5947C87.6432 74.3416 87.8078 74.8602 87.9091 75.1505C88.021 75.4511 88.1232 75.7726 88.2154 76.1151C88.3178 76.4471 88.3916 76.6804 88.4367 76.8152L88.4376 76.8465C88.546 77.0117 88.5209 77.2464 88.362 77.5506L87.9804 77.8996ZM99.8995 68.0346C99.5136 68.019 99.1851 68.4089 98.914 69.2042C97.0826 73.7187 95.6877 76.7794 94.7291 78.3861C94.6285 78.5229 94.5034 78.7225 94.3539 78.985C93.9672 79.7402 93.588 80.386 93.2164 80.9223C92.8557 81.4793 92.5741 81.8686 92.3714 82.0901C92.1701 82.3636 92.0226 82.501 91.9289 82.5023C91.6164 82.5066 91.4005 82.4157 91.281 82.2299C91.1517 82.0649 91.0815 81.769 91.0705 81.3421C91.0561 80.7902 91.5094 79.9871 92.4302 78.933C93.3974 77.6594 94.5974 75.5181 96.0302 72.509C97.4165 69.7193 98.5341 67.2146 99.383 64.9947C99.4772 64.608 99.618 64.4133 99.8055 64.4108C99.9097 64.4094 100.13 64.4741 100.467 64.605C100.752 64.7573 100.928 64.9008 100.994 65.0353C101.105 65.2838 101.349 66.2597 101.726 67.9629C102.405 71.2454 103.108 73.8453 103.835 75.7626C104.566 77.8048 105.33 79.1694 106.13 79.8565C106.427 80.0712 106.602 80.2095 106.656 80.2712C106.677 80.2709 106.687 80.2656 106.687 80.2552C106.695 80.578 106.625 80.8758 106.476 81.1487C106.326 81.4215 106.185 81.5901 106.051 81.6545C105.907 81.7293 105.564 81.7704 105.023 81.7778C104.789 81.6143 104.354 81.0837 103.716 80.1861C102.938 79.1237 102.001 76.1364 100.904 71.2241C100.63 69.8841 100.403 68.9809 100.225 68.5146L100.119 68.0472L99.8995 68.0346ZM120.061 72.8549L119.318 74.3181C118.211 76.6457 117.07 78.4476 115.894 79.724C114.749 80.9687 113.651 81.5982 112.599 81.6125C112.026 81.6203 111.412 81.2536 110.757 80.5125C110.091 79.7507 109.737 78.5471 109.695 76.9018C109.658 75.5065 109.927 73.4247 110.502 70.6564C110.984 68.3686 111.223 66.7299 111.218 65.7404C111.436 65.3103 111.774 65.0922 112.232 65.086C112.545 65.0817 112.798 65.1877 112.991 65.4038C113.195 65.6302 113.3 65.8632 113.306 66.1027C113.324 66.7795 113.104 67.7721 112.649 69.0804C111.728 71.7596 111.293 74.0572 111.343 75.9732C111.394 77.9413 111.945 78.9182 112.997 78.9039C114.039 78.8898 115.265 77.9721 116.677 76.1508C118.048 74.3718 119.224 71.9131 120.205 68.7747C120.591 67.582 120.91 66.812 121.161 66.4648C121.352 66.2018 121.615 66.0681 121.948 66.0635C122.187 66.0603 122.361 66.1308 122.469 66.2752C122.577 66.4092 122.636 66.674 122.646 67.0697C122.639 67.1948 122.555 67.5605 122.393 68.1669C121.821 70.6226 121.564 72.9386 121.62 75.115C121.69 77.812 122.178 79.571 123.085 80.3921C123.214 80.5153 123.316 80.6337 123.392 80.7473C123.478 80.8503 123.532 80.9277 123.554 80.9795C123.586 81.0311 123.603 81.0621 123.603 81.0726C123.607 81.2183 123.465 81.3817 123.178 81.5627C122.819 81.7863 122.505 81.9 122.234 81.9037C121.682 81.9111 121.2 81.4333 120.79 80.4701C120.335 79.3929 120.079 77.7714 120.023 75.6054L120.009 75.0587C120.004 74.8921 120.005 74.7202 120.011 74.5431L120.061 72.8549ZM132.781 59.5102C132.884 59.488 133.086 59.4384 133.386 59.3614C133.697 59.2842 133.904 59.2345 134.008 59.2123C134.289 59.6043 134.482 60.0392 134.589 60.5169C134.694 60.9843 134.751 61.572 134.759 62.2803C134.777 62.978 134.8 63.4464 134.827 63.6856C135.788 63.7872 136.509 63.8607 136.99 63.9063C137.228 64.2468 137.544 64.6123 137.94 65.0028C138.346 65.3827 138.714 65.7163 139.044 66.0035C139.375 66.2802 139.707 66.6247 140.04 67.0368C140.374 67.449 140.619 67.8675 140.776 68.2925C140.802 68.4901 140.823 68.7033 140.84 68.9323C140.866 69.1611 140.882 69.3588 140.886 69.5254C140.901 69.6815 140.906 69.8949 140.903 70.1658C140.9 70.4367 140.894 70.6347 140.887 70.7598C140.88 70.8745 140.87 71.0934 140.857 71.4164C140.844 71.7291 140.839 71.9271 140.841 72.0104C140.551 72.879 140.339 73.5329 140.205 73.9722C139.849 74.727 139.608 75.2564 139.48 75.5602C138.981 76.4211 138.323 77.1384 137.504 77.712C136.685 78.2752 135.778 78.6521 134.783 78.8427C134.778 79.8741 134.797 80.7957 134.839 81.6076C134.891 82.4194 134.92 83.3357 134.926 84.3565C134.932 85.3877 134.898 86.3048 134.825 87.1079L133.959 87.4478C133.692 86.7952 133.501 86.0686 133.386 85.268C133.282 84.4673 133.242 83.7127 133.265 83.004C133.288 82.2953 133.295 81.5296 133.284 80.7068C133.283 79.8839 133.253 79.1239 133.193 78.4268C132.477 78.124 131.811 77.7476 131.195 77.2976C130.579 76.8476 130.019 76.3396 129.514 75.7735C129.02 75.1969 128.628 74.5512 128.339 73.8363C128.049 73.1111 127.899 72.3631 127.89 71.5924C127.753 70.7609 127.762 69.9014 127.917 69.0139C128.081 68.1262 128.367 67.3098 128.775 66.5647C129.183 65.8091 129.734 65.1662 130.429 64.636C131.134 64.0951 131.917 63.7616 132.778 63.6353C132.781 63.3228 132.775 62.8906 132.76 62.3387C132.746 61.7763 132.738 61.266 132.736 60.8077C132.735 60.3494 132.75 59.9169 132.781 59.5102ZM134.838 65.3105C134.926 70.7261 135.012 74.6364 135.095 77.0416C135.953 76.7695 136.68 76.2649 137.275 75.5276C137.881 74.7798 138.343 73.9245 138.662 72.9619C138.7 72.7947 138.771 72.5125 138.875 72.1152C138.979 71.7076 139.054 71.3888 139.1 71.159C139.157 70.9291 139.207 70.642 139.25 70.2976C139.303 69.9531 139.321 69.63 139.303 69.3281C139.284 69.0263 139.24 68.7352 139.171 68.4549C138.87 68.0944 138.548 67.755 138.206 67.4367C137.875 67.1183 137.406 66.7132 136.8 66.2214C136.193 65.7192 135.831 65.4168 135.713 65.3143C135.276 65.3098 134.984 65.3085 134.838 65.3105ZM131.849 65.7729C131.768 65.8678 131.606 66.0315 131.362 66.2639C131.128 66.4859 130.95 66.6654 130.829 66.8024C130.707 66.9291 130.56 67.0977 130.389 67.3084C130.227 67.5085 130.092 67.7135 129.983 67.9233C129.884 68.1226 129.806 68.3372 129.749 68.5671C129.624 68.9646 129.551 69.3719 129.531 69.7888C129.51 70.2058 129.548 70.6636 129.645 71.1623C129.751 71.6505 129.844 72.0398 129.925 72.3304C130.016 72.6104 130.152 73.0305 130.333 73.5905C130.61 74.2222 130.983 74.7692 131.454 75.2316C131.935 75.6938 132.491 76.0404 133.122 76.2715C133.109 74.9591 133.022 71.4134 132.861 65.6342C132.768 65.6459 132.592 65.6743 132.332 65.7195C132.083 65.7541 131.922 65.772 131.849 65.7729ZM155.651 72.372L154.908 73.8352C153.801 76.1628 152.66 77.9647 151.485 79.2411C150.34 80.4859 149.241 81.1153 148.189 81.1296C147.616 81.1374 147.002 80.7707 146.348 80.0296C145.682 79.2678 145.328 78.0642 145.285 76.4189C145.249 75.0236 145.518 72.9418 146.092 70.1735C146.574 67.8857 146.813 66.247 146.808 65.2575C147.026 64.8274 147.365 64.6093 147.823 64.6031C148.135 64.5988 148.388 64.7048 148.581 64.9209C148.785 65.1473 148.89 65.3803 148.896 65.6198C148.914 66.2966 148.695 67.2892 148.239 68.5975C147.319 71.2767 146.884 73.5743 146.933 75.4903C146.984 77.4584 147.536 78.4353 148.588 78.421C149.629 78.4069 150.856 77.4892 152.267 75.668C153.638 73.8889 154.814 71.4302 155.796 68.2918C156.182 67.0991 156.5 66.3291 156.752 65.982C156.943 65.719 157.205 65.5852 157.538 65.5807C157.778 65.5774 157.952 65.648 158.06 65.7923C158.167 65.9263 158.226 66.1911 158.236 66.5868C158.229 66.7119 158.145 67.0777 157.984 67.684C157.412 70.1397 157.154 72.4558 157.21 74.6321C157.28 77.3291 157.769 79.0882 158.676 79.9092C158.804 80.0325 158.906 80.1509 158.982 80.2644C159.068 80.3674 159.122 80.4448 159.144 80.4966C159.177 80.5482 159.193 80.5793 159.194 80.5897C159.197 80.7355 159.056 80.8989 158.769 81.0798C158.41 81.3035 158.095 81.4171 157.824 81.4208C157.272 81.4283 156.791 80.9504 156.38 79.9872C155.925 78.91 155.67 77.2885 155.613 75.1225L155.599 74.5759C155.595 74.4092 155.596 74.2374 155.601 74.0602L155.651 72.372ZM165.642 72.5177L166.125 72.433C168.477 71.9532 170.528 70.2795 172.277 67.412C173.057 66.1514 173.758 65.2564 174.38 64.7272C174.992 64.2397 175.642 63.9913 176.33 63.9819C176.538 63.9791 176.765 64.0854 177.01 64.3008C177.244 64.4956 177.365 64.7283 177.372 64.9991C177.38 65.3115 176.997 65.5927 176.222 65.8428C175.664 66.0275 175.146 66.3262 174.667 66.7389C174.219 67.1512 173.437 68.1306 172.32 69.677C171.496 70.8237 170.756 71.6306 170.101 72.0978C170.091 72.098 170.075 72.1034 170.055 72.1141C170.045 72.1246 170.029 72.1353 170.009 72.1459C169.999 72.1565 169.983 72.1723 169.963 72.1934C169.943 72.2146 169.922 72.2357 169.902 72.2568C169.892 72.2777 169.877 72.304 169.857 72.3355C169.848 72.3669 169.838 72.4035 169.829 72.4453C169.83 72.4869 169.831 72.5286 169.832 72.5702C169.834 72.6223 169.835 72.6691 169.836 72.7108C169.847 72.7419 169.858 72.773 169.87 72.8041C169.891 72.8351 169.908 72.8661 169.919 72.8972C169.94 72.9177 169.956 72.9383 169.967 72.959C169.988 72.9692 170.01 72.9845 170.031 73.005C170.063 73.015 170.084 73.0252 170.094 73.0354C170.105 73.0457 170.121 73.0559 170.142 73.066C170.163 73.0762 170.174 73.0812 170.174 73.0812C170.819 73.4683 171.517 74.2505 172.266 75.4279C173.449 77.2556 174.365 78.4151 175.013 78.9063C175.714 79.4176 176.502 79.6673 177.377 79.6555L177.908 79.6326C177.96 79.6319 178.002 79.6314 178.033 79.6309C178.044 79.662 178.05 79.6932 178.051 79.7245C178.058 80.0056 177.884 80.3257 177.529 80.6847C177.163 81.0438 176.517 81.2297 175.59 81.2422C174.902 81.2516 174.238 80.9377 173.596 80.3005C172.922 79.6117 172.142 78.4817 171.258 76.9103C170.722 75.9384 170.218 75.1952 169.746 74.6808C169.231 74.1149 168.662 73.8361 168.037 73.8446C167.891 73.8466 167.514 73.9663 166.905 74.2037C166.647 74.301 166.446 74.3818 166.302 74.4463C166.168 74.5002 166.029 74.5854 165.886 74.7019C165.754 74.8183 165.658 74.9498 165.6 75.0964C165.512 75.3476 165.47 76.1295 165.473 77.4419C165.464 78.7025 165.47 79.7181 165.49 80.4886C165.497 80.7698 165.368 81.032 165.104 81.2751C164.818 81.5186 164.509 81.6426 164.175 81.6471C163.853 81.6515 163.6 81.5664 163.419 81.3918C163.237 81.2067 163.143 81.0257 163.139 80.8487C163.129 80.4842 163.247 79.5816 163.491 78.1407C163.921 75.4473 164.306 71.0254 164.647 64.8748C164.666 64.3954 164.837 63.9608 165.16 63.571C165.463 63.2023 165.797 63.0154 166.161 63.0105C166.286 63.0088 166.403 63.0906 166.512 63.2558C166.653 63.483 166.729 63.7893 166.739 64.1746C166.747 64.5078 166.705 64.8886 166.612 65.3169C166.065 67.5119 165.747 69.7454 165.661 72.0174L165.642 72.5177ZM190.699 75.6465C190.59 75.4605 190.476 75.2798 190.356 75.1043C190.204 74.8668 190.031 74.6243 189.837 74.377C189.664 74.1397 189.259 73.7598 188.62 73.2372C188.055 72.7553 187.684 72.4843 187.505 72.4242C187.357 72.3637 187.081 72.357 186.676 72.4042C186.229 72.4519 185.836 72.551 185.496 72.7015C185.114 72.8525 184.821 73.0023 184.617 73.1509C184.422 73.289 184.244 73.4372 184.081 73.5957C183.938 73.7018 183.741 73.9492 183.491 74.3381C183.22 74.7272 183.055 75.0054 182.997 75.1729C182.939 75.3612 182.883 75.6067 182.828 75.9096C182.795 76.2121 182.79 76.4466 182.815 76.6129C182.82 76.7795 182.89 77.0598 183.025 77.4538C183.159 77.8166 183.296 78.0803 183.436 78.2451C183.608 78.4511 183.773 78.5947 183.932 78.6759C184.08 78.7781 184.239 78.8801 184.408 78.9819C184.588 79.0733 184.872 79.1788 185.261 79.2985C185.607 79.398 185.905 79.4512 186.156 79.4582C186.437 79.4544 186.67 79.4148 186.856 79.3394C187.063 79.2949 187.275 79.2191 187.491 79.112C187.717 79.0048 187.948 78.8766 188.184 78.7276C188.368 78.6001 188.714 78.2725 189.221 77.7447C189.697 77.207 189.985 76.8646 190.086 76.7174C190.185 76.5494 190.275 76.3867 190.354 76.2293C190.465 76.082 190.58 75.8877 190.699 75.6465ZM192.221 76.4853C192.081 76.7268 191.972 76.921 191.892 77.0679C191.813 77.2356 191.698 77.4299 191.548 77.6507C191.408 77.8922 191.055 78.324 190.487 78.9463C189.91 79.5688 189.462 79.9811 189.144 80.1833C188.847 80.3749 188.544 80.5404 188.235 80.68C187.937 80.8299 187.643 80.9485 187.353 81.0358C187.032 81.1235 186.659 81.1702 186.231 81.176C185.784 81.2029 185.292 81.1262 184.756 80.946C184.263 80.8069 183.89 80.6661 183.636 80.5237C183.393 80.3916 183.149 80.2386 182.905 80.0649C182.661 79.9015 182.41 79.6601 182.152 79.3407C181.841 79.0012 181.595 78.5566 181.414 78.0069C181.233 77.4781 181.123 77.0525 181.084 76.7301C181.055 76.4284 181.072 76.0688 181.134 75.6513C181.207 75.2441 181.291 74.8888 181.387 74.5854C181.484 74.282 181.697 73.8728 182.028 73.3579C182.359 72.8638 182.657 72.5004 182.921 72.2676C183.156 72.0769 183.407 71.8965 183.673 71.7262C183.95 71.5453 184.309 71.3425 184.752 71.1178C185.256 70.9026 185.831 70.7542 186.475 70.6725C187.129 70.6011 187.662 70.6408 188.072 70.7915C188.44 70.9115 189.018 71.3047 189.806 71.9711C189.671 71.5667 189.563 71.24 189.484 70.9911C189.349 70.6283 189.155 70.1726 188.901 69.624C188.627 69.0964 188.392 68.6829 188.197 68.3835C188.002 68.0841 187.782 67.8318 187.537 67.6268C187.344 67.4419 186.979 67.2125 186.44 66.9386C185.902 66.6646 185.439 66.4886 185.051 66.4105C184.623 66.3538 184.278 66.3168 184.017 66.2996C183.757 66.3031 183.502 66.317 183.252 66.3412C183.044 66.3648 182.662 66.495 182.106 66.7317C181.704 66.9039 181.442 67.048 181.32 67.1643L181.139 67.4167C181.019 67.6059 180.84 67.7281 180.601 67.7834C180.373 67.8282 180.153 67.7843 179.942 67.6517C179.74 67.5086 179.61 67.3229 179.552 67.0945C179.504 66.8556 179.556 66.6413 179.707 66.4518L179.888 66.1681C180.118 65.8212 180.62 65.481 181.393 65.1476C182.114 64.8358 182.667 64.6564 183.051 64.6095C183.373 64.5843 183.701 64.5694 184.035 64.5649C184.379 64.5811 184.818 64.6272 185.351 64.7033C185.906 64.7999 186.526 65.0259 187.213 65.3812C187.899 65.7365 188.403 66.0734 188.724 66.3919C189.034 66.6898 189.334 67.0295 189.625 67.411C189.896 67.7927 190.174 68.289 190.461 68.8997C190.758 69.5102 190.975 70.0281 191.111 70.4534C191.246 70.8578 191.428 71.4335 191.656 72.1804C191.884 72.9273 192.048 73.4459 192.149 73.7362C192.261 74.0368 192.364 74.3583 192.456 74.7008C192.558 75.0328 192.632 75.2661 192.677 75.4009L192.678 75.4322C192.786 75.5974 192.761 75.8321 192.602 76.1363L192.221 76.4853ZM195.883 68.248C195.943 68.143 196.002 68.012 196.06 67.8549C196.119 67.6979 196.167 67.5566 196.206 67.4311C196.244 67.316 196.304 67.185 196.383 67.038C196.452 66.8913 196.528 66.7861 196.609 66.7225C196.701 66.6587 196.82 66.5998 196.964 66.5458C197.109 66.5021 197.271 66.5104 197.449 66.5704C197.653 66.7968 197.775 67.0608 197.814 67.3624C197.842 67.6641 197.831 68.0184 197.779 68.4254C197.727 68.8219 197.703 69.1139 197.708 69.3013C197.539 70.012 197.439 70.7998 197.41 71.6648C197.38 72.5298 197.394 73.2848 197.453 73.9299C197.511 74.5749 197.605 75.3706 197.733 76.3167C198.231 77.0392 198.711 77.6577 199.173 78.1722C199.634 78.6972 200.151 79.1434 200.723 79.5106C201.591 79.2176 202.332 78.869 202.947 78.4648C203.561 78.0606 204.037 77.5333 204.375 76.8829C204.374 76.4662 204.395 76.0389 204.435 75.6008C204.476 75.1731 204.536 74.6619 204.614 74.0671C204.703 73.4721 204.76 73.0495 204.785 72.7991C204.836 72.3609 204.853 71.8138 204.836 71.1578C204.829 70.4912 204.819 69.9184 204.807 69.4394C204.794 68.95 204.837 68.4077 204.937 67.8126C205.036 67.2175 205.204 66.6788 205.442 66.1964C205.495 66.2373 205.898 66.5287 206.652 67.0706C206.724 67.8405 206.786 68.824 206.838 70.0212C206.89 71.2185 206.932 72.244 206.965 73.0977C206.998 73.9618 207.101 74.9344 207.275 76.0154C207.449 77.0964 207.699 78.0826 208.024 78.974C208.481 78.5199 209.066 77.9651 209.778 77.3096C210.295 77.5422 210.684 77.8806 210.945 78.325C211.207 78.7694 211.334 79.2573 211.327 79.7886C211.33 80.3198 211.271 80.8415 211.149 81.3536C210.989 82.0016 210.814 82.4883 210.624 82.8138C210.554 82.9294 210.439 83.1236 210.28 83.3966C210.13 83.6695 210.006 83.8847 209.906 84.0423C209.806 84.1999 209.675 84.3944 209.515 84.6258C209.354 84.8571 209.197 85.0363 209.044 85.1634C208.88 85.2802 208.701 85.392 208.506 85.4989C208.31 85.5953 208.093 85.6399 207.853 85.6327C207.623 85.6254 207.377 85.5663 207.114 85.4552C207.281 85.0988 207.56 84.5794 207.948 83.897C208.347 83.2041 208.669 82.5747 208.915 82.0089C209.171 81.4429 209.334 80.873 209.402 80.2991C208.708 80.4648 207.997 80.563 207.269 80.5937C207.054 80.3362 206.842 80.0265 206.635 79.6648C206.438 79.3028 206.29 79.0184 206.191 78.8114C206.102 78.6043 205.958 78.2573 205.758 77.7704C205.56 78.1689 205.36 78.5206 205.16 78.8254C204.959 79.1302 204.722 79.4355 204.449 79.7413C204.176 80.0471 203.864 80.2961 203.515 80.4884C203.166 80.6806 202.789 80.8055 202.384 80.8631C201.773 81.0172 201.169 81.0202 200.571 80.8721C199.974 80.7343 199.43 80.4761 198.941 80.0973C198.452 79.7185 198.014 79.3026 197.627 78.8495C196.832 77.9123 196.48 77.4119 196.572 77.3481C196.572 77.3481 196.555 77.2807 196.52 77.1457C196.507 77.0417 196.495 76.969 196.483 76.9275C196.244 76.139 196.005 75.3506 195.766 74.5622C195.788 73.8223 195.811 73.0824 195.833 72.3425C195.852 71.863 195.86 71.165 195.857 70.2484C195.864 69.3212 195.873 68.6544 195.883 68.248ZM224.926 71.4321L224.183 72.8953C223.076 75.2229 221.935 77.0249 220.76 78.3012C219.615 79.546 218.516 80.1755 217.464 80.1897C216.891 80.1975 216.277 79.8308 215.623 79.0897C214.957 78.3279 214.603 77.1243 214.56 75.4791C214.524 74.0837 214.793 72.0019 215.367 69.2336C215.849 66.9458 216.088 65.3071 216.083 64.3176C216.301 63.8875 216.64 63.6694 217.098 63.6632C217.41 63.6589 217.663 63.7649 217.856 63.981C218.06 64.2074 218.165 64.4404 218.171 64.6799C218.189 65.3567 217.97 66.3493 217.514 67.6576C216.594 70.3368 216.158 72.6344 216.208 74.5504C216.259 76.5185 216.811 77.4954 217.863 77.4812C218.904 77.467 220.131 76.5493 221.542 74.7281C222.913 72.949 224.089 70.4903 225.071 67.352C225.456 66.1592 225.775 65.3892 226.027 65.0421C226.218 64.7791 226.48 64.6453 226.813 64.6408C227.053 64.6375 227.227 64.7081 227.334 64.8524C227.442 64.9864 227.501 65.2512 227.511 65.6469C227.504 65.772 227.42 66.1378 227.259 66.7441C226.687 69.1998 226.429 71.5159 226.485 73.6922C226.555 76.3892 227.044 78.1483 227.951 78.9693C228.079 79.0926 228.181 79.211 228.257 79.3245C228.343 79.4275 228.397 79.5049 228.419 79.5567C228.452 79.6084 228.468 79.6394 228.469 79.6498C228.472 79.7956 228.331 79.959 228.044 80.1399C227.685 80.3636 227.37 80.4772 227.099 80.4809C226.547 80.4884 226.066 80.0105 225.655 79.0473C225.2 77.9702 224.944 76.3486 224.888 74.1827L224.874 73.636C224.87 73.4694 224.871 73.2975 224.876 73.1203L224.926 71.4321ZM242.893 71.1883L242.15 72.6516C241.043 74.9791 239.902 76.7811 238.727 78.0575C237.582 79.3022 236.483 79.9317 235.431 79.946C234.858 79.9537 234.244 79.5871 233.59 78.8459C232.924 78.0841 232.57 76.8806 232.527 75.2353C232.491 73.8399 232.76 71.7581 233.334 68.9899C233.816 66.702 234.055 65.0634 234.05 64.0738C234.268 63.6438 234.607 63.4256 235.065 63.4194C235.377 63.4152 235.63 63.5211 235.823 63.7373C236.027 63.9637 236.132 64.1966 236.138 64.4361C236.156 65.113 235.937 66.1055 235.481 67.4138C234.561 70.093 234.125 72.3906 234.175 74.3067C234.226 76.2747 234.778 77.2517 235.83 77.2374C236.871 77.2233 238.098 76.3056 239.509 74.4843C240.88 72.7052 242.056 70.2465 243.038 67.1082C243.424 65.9154 243.742 65.1455 243.994 64.7983C244.185 64.5353 244.447 64.4015 244.78 64.397C245.02 64.3937 245.194 64.4643 245.302 64.6087C245.409 64.7426 245.468 65.0075 245.478 65.4032C245.471 65.5283 245.387 65.894 245.226 66.5004C244.654 68.9561 244.396 71.2721 244.452 73.4485C244.522 76.1455 245.011 77.9045 245.918 78.7255C246.046 78.8488 246.148 78.9672 246.224 79.0808C246.31 79.1838 246.364 79.2612 246.386 79.3129C246.419 79.3646 246.435 79.3956 246.436 79.406C246.439 79.5518 246.298 79.7152 246.011 79.8962C245.652 80.1198 245.337 80.2334 245.066 80.2371C244.514 80.2446 244.033 79.7668 243.622 78.8036C243.167 77.7264 242.912 76.1048 242.855 73.9389L242.841 73.3922C242.837 73.2256 242.838 73.0537 242.843 72.8765L242.893 71.1883Z" fill="#242424"/>
</svg>
