<svg width="290" height="90" viewBox="0 0 290 90" fill="none" xmlns="http://www.w3.org/2000/svg">
<path d="M47.5001 20.91C81.4902 18.4121 165 12.41 235.5 37.91C243.479 40.7959 12.9544 37.1978 51.0001 67.214C71.9496 83.742 193.826 72.7093 256.5 67.214" stroke="#0CE9CA" stroke-width="28" stroke-linecap="round"/>
<path d="M66.4758 16.4873C66.2486 16.5633 66.0293 16.5454 65.818 16.4337C65.6169 16.3114 65.4822 16.1414 65.4141 15.9235C65.3456 15.6953 65.3608 15.4763 65.4595 15.2666L65.7118 14.7476C65.8701 14.4225 66.0093 14.1654 66.1294 13.9763C66.2482 13.7351 66.515 13.3773 66.9299 12.9029C67.3645 12.3866 67.8167 11.9429 68.2863 11.572C68.7456 11.2012 69.1087 10.941 69.3758 10.7916C69.6527 10.6211 70.1268 10.422 70.7981 10.1941C71.521 9.94474 72.1701 9.86302 72.7454 9.94896C73.3413 10.0242 73.9366 10.2818 74.5315 10.7216C75.0952 11.1619 75.4804 11.5525 75.6872 11.8935C75.8409 12.1935 76.0202 12.6806 76.2253 13.3549C76.4103 14.0608 76.5058 14.7314 76.5119 15.3667C76.507 15.9814 76.3953 16.6964 76.1768 17.5119C75.9599 18.3899 75.5441 19.2288 74.9293 20.0289C74.3545 20.7658 73.7618 21.4145 73.1511 21.9749C72.5718 22.5348 71.9707 23.0638 71.3481 23.5619C70.7874 24.0382 70.1709 24.5727 69.4986 25.1651C68.826 25.7472 68.3778 26.1439 68.1541 26.3553C67.9405 26.5561 67.6561 26.8412 67.301 27.2106C66.9465 27.6008 66.6782 27.9013 66.4961 28.1122C66.4961 28.1122 66.4862 28.1331 66.4665 28.1751C66.6748 28.1722 66.857 28.1698 67.0133 28.1676C67.2731 28.1433 67.5382 28.1189 67.8085 28.0944C68.0891 28.0697 68.6656 27.9994 69.5378 27.8834C70.4303 27.7463 71.0579 27.6388 71.4206 27.561C71.8252 27.493 72.2141 27.4252 72.5875 27.3576C72.9926 27.3105 73.632 27.2549 74.5055 27.191C75.3791 27.127 75.9565 27.0932 76.2377 27.0893C76.5398 27.0852 76.8684 27.1016 77.2236 27.1385L77.7408 27.194C77.9809 27.2115 78.1817 27.3182 78.343 27.5139C78.5041 27.6992 78.572 27.9066 78.5467 28.1362C78.5211 28.3553 78.4168 28.5494 78.2336 28.7185C78.0606 28.8771 77.8592 28.9476 77.6296 28.9299L77.1124 28.8744C76.7884 28.8371 76.5117 28.8148 76.2823 28.8075C76.0219 28.8111 75.4759 28.8497 74.6442 28.9235C73.8227 28.9867 73.2303 29.0416 72.8668 29.0882C72.5033 29.1348 72.1401 29.1918 71.7772 29.2593C71.3726 29.3273 70.7241 29.4298 69.8316 29.5669C68.9182 29.7043 68.3005 29.7908 67.9784 29.8264C67.6769 29.8514 67.4014 29.8759 67.152 29.9002C66.8708 29.904 66.5062 29.9089 66.0583 29.915C65.6209 29.9209 65.2925 29.915 65.0733 29.8971C64.7915 29.8801 64.5216 29.7171 64.2635 29.4081C64.0158 29.0989 63.9863 28.766 64.1751 28.4093C64.2541 28.2415 64.3839 28.0262 64.5647 27.7634C64.7259 27.5528 64.9125 27.3159 65.1245 27.0526C65.3261 26.7895 65.6299 26.452 66.036 26.0402C66.4108 25.6289 66.7152 25.3123 66.9491 25.0903C67.1931 24.8579 67.6513 24.4454 68.3236 23.8529C69.006 23.2499 69.6485 22.7099 70.2508 22.233C70.8324 21.7564 71.4079 21.2485 71.9774 20.7095C72.5162 20.1918 73.0427 19.6013 73.5569 18.9381C74.031 18.3379 74.3482 17.7138 74.5086 17.0658C74.699 16.3757 74.7882 15.7963 74.7761 15.3277C74.7847 14.8589 74.7143 14.3546 74.5649 13.815C74.4154 13.2753 74.2811 12.9178 74.162 12.7423C74.0957 12.5974 73.8766 12.3868 73.5048 12.1106C73.1538 11.8341 72.8427 11.6925 72.5716 11.6857C72.2477 11.6484 71.8428 11.706 71.3571 11.8585C70.8094 12.0326 70.438 12.1782 70.2431 12.2954C70.0583 12.4021 69.7669 12.6144 69.3688 12.9323C68.9912 13.2395 68.6204 13.6039 68.2562 14.0256C67.9025 14.447 67.6908 14.7207 67.6211 14.8467C67.5415 14.9936 67.4226 15.2296 67.2644 15.5547L66.9801 16.0429C66.8813 16.2526 66.7132 16.4007 66.4758 16.4873ZM89.444 28.2852C89.5268 28.2632 89.62 28.2411 89.7236 28.2189C89.8684 28.1753 90.1969 27.9885 90.7094 27.6586C91.1911 27.35 91.4975 27.1115 91.6285 26.943C91.7596 26.7746 91.9659 26.2926 92.2475 25.4971C92.5696 24.6594 92.7673 24.0473 92.8406 23.6609C92.9134 23.2537 92.99 22.5912 93.0704 21.6734C93.1612 20.7555 93.2005 20.0622 93.1883 19.5936C93.1965 19.1039 93.1705 18.5053 93.1105 17.7978C93.0718 17.1108 92.9533 16.3572 92.7549 15.5369C92.5672 14.727 92.4061 14.1406 92.2717 13.7779C92.1597 13.4773 91.8457 13.0232 91.3298 12.4156C90.8244 11.8079 90.4764 11.448 90.2859 11.336C90.0744 11.2139 89.7274 11.0936 89.2451 10.9751C88.8148 10.856 88.4389 10.8246 88.1173 10.881C87.8062 10.9374 87.4302 11.1039 86.9894 11.3807C86.5285 11.6891 86.2017 11.9435 86.0089 12.144C85.8268 12.3549 85.5226 12.8798 85.0964 13.719C84.6498 14.5792 84.3691 15.2028 84.2541 15.5898C84.1188 15.9979 83.9641 16.6614 83.7899 17.5805C83.6268 18.5202 83.5247 19.2039 83.4837 19.6315C83.4323 20.0593 83.4305 20.7937 83.4783 21.8348C83.5251 22.8342 83.6563 23.6761 83.8721 24.3607C84.0557 25.0145 84.267 25.5273 84.5059 25.899C84.7551 26.2707 85.1194 26.6563 85.5987 27.0561C86.0138 27.3942 86.5099 27.6427 87.0871 27.8015C87.7054 27.939 88.0927 28.0066 88.2489 28.0045L88.67 27.9676C88.9715 27.9426 89.2295 28.0485 89.444 28.2852ZM86.8501 29.5079C86.7876 29.5088 86.7352 29.499 86.693 29.4788C85.8536 29.2506 85.1145 28.8752 84.4757 28.3526C83.8902 27.871 83.424 27.3721 83.0772 26.8559C82.7405 26.3292 82.4522 25.6561 82.2121 24.8364C81.9515 24.0274 81.8009 23.0451 81.7605 21.8893C81.7103 20.7546 81.71 19.9421 81.7598 19.4518C81.8096 18.9615 81.926 18.2256 82.1089 17.2439C82.271 16.2625 82.4345 15.5363 82.5994 15.0653C82.7331 14.5948 83.0479 13.877 83.5438 12.9119C84.0501 11.9467 84.4348 11.3112 84.6978 11.0056C84.9915 10.6787 85.4406 10.3184 86.0451 9.92477C86.6908 9.50975 87.2885 9.25685 87.8384 9.16605C88.3987 9.07512 89.0146 9.11884 89.686 9.29724C90.3049 9.45551 90.7887 9.63124 91.1376 9.82443C91.5083 10.059 92.0108 10.5522 92.6451 11.304C93.2796 12.0662 93.6917 12.6909 93.8815 13.1779C94.0384 13.6028 94.2277 14.2722 94.4494 15.1858C94.6398 16.0999 94.7658 16.942 94.8275 17.712C94.8886 18.4612 94.9153 19.091 94.9077 19.6016C94.9215 20.1326 94.8838 20.8884 94.7946 21.8687C94.7052 22.8387 94.6249 23.5586 94.5537 24.0283C94.4617 24.4983 94.2453 25.194 93.9045 26.1153C93.544 27.0785 93.2325 27.7234 92.9701 28.0498C92.7178 28.3658 92.2738 28.7208 91.638 29.1148C91.034 29.5293 90.5716 29.7803 90.2509 29.868C89.9719 29.9551 89.7077 30.016 89.4586 30.0506C89.1576 30.0964 88.751 30.0863 88.2387 30.0203L87.5653 29.967C87.263 29.9606 87.0246 29.8076 86.8501 29.5079ZM98.7146 20.5499C98.5132 20.4172 98.3782 20.2368 98.3098 20.0085C98.2515 19.7697 98.2875 19.5505 98.4178 19.3508C98.5582 19.1406 98.7372 19.0131 98.9549 18.9685L99.3282 18.9009C99.6078 18.8346 100.013 18.7771 100.543 18.7282C101.052 18.6588 101.426 18.6225 101.665 18.6192C101.874 18.6164 102.108 18.6132 102.368 18.6097C102.577 18.6069 103.045 18.5901 103.774 18.5594C104.325 18.5102 104.761 18.4679 105.083 18.4322C105.083 18.4322 105.083 18.4218 105.082 18.401C105.042 17.6307 105.006 17.0687 104.976 16.7149C104.967 16.3713 104.945 15.9132 104.909 15.3408C104.875 14.8308 104.857 14.5186 104.854 14.404C104.829 14.2377 104.798 14.0819 104.763 13.9365L104.726 13.7026C104.699 13.4634 104.761 13.2542 104.913 13.0751C105.075 12.8958 105.27 12.7942 105.499 12.7703C105.738 12.7462 105.948 12.811 106.129 12.9648C106.32 13.1081 106.429 13.2941 106.456 13.5229L106.493 13.7412C106.496 13.8661 106.51 13.9857 106.534 14.1C106.559 14.2663 106.59 14.6617 106.627 15.2862C106.664 15.9003 106.686 16.3584 106.694 16.6603C106.724 17.0037 106.759 17.5553 106.799 18.3152C106.84 18.2938 106.877 18.2829 106.908 18.2825C107.636 18.2309 108.177 18.2028 108.531 18.1979C108.875 18.1933 109.427 18.1858 110.187 18.1755C110.937 18.1653 111.432 18.1586 111.671 18.1553C111.859 18.1736 112.052 18.1814 112.25 18.1787L112.563 18.1745C112.802 18.1712 113.003 18.2571 113.163 18.432C113.324 18.5965 113.407 18.8037 113.414 19.0536C113.42 19.2931 113.337 19.4973 113.164 19.6664C113.002 19.8248 112.806 19.9056 112.577 19.9087L112.248 19.9132C112.009 19.9164 111.785 19.909 111.576 19.891C111.409 19.8933 110.961 19.8994 110.232 19.9093C109.441 19.92 108.899 19.9274 108.607 19.9313C108.264 19.936 107.743 19.9639 107.047 20.015C107.005 20.0156 106.948 20.0267 106.876 20.0486C106.878 20.1527 106.881 20.2568 106.884 20.361C106.919 20.9334 106.972 21.5629 107.042 22.2495C107.101 22.9049 107.144 23.3731 107.172 23.654C107.18 23.9559 107.179 24.331 107.17 24.779L107.187 25.4194C107.172 25.6592 107.073 25.8585 106.89 26.0172C106.717 26.1758 106.51 26.2515 106.27 26.2444C106.041 26.2371 105.841 26.1512 105.67 25.9869C105.509 25.812 105.436 25.6098 105.451 25.3805L105.466 24.7396C105.456 24.3544 105.447 24.0315 105.44 23.7712C105.413 23.5112 105.369 23.0378 105.31 22.3511C105.25 21.6644 105.213 21.0295 105.198 20.4463C105.175 20.3633 105.162 20.2697 105.159 20.1656C104.837 20.1908 104.421 20.2277 103.912 20.2763C103.163 20.3073 102.663 20.3245 102.413 20.3279C102.153 20.3314 101.929 20.3344 101.741 20.337C101.554 20.3395 101.221 20.3649 100.743 20.413C100.275 20.461 99.9379 20.5125 99.7309 20.5674L99.374 20.666C99.1355 20.7109 98.9157 20.6722 98.7146 20.5499ZM134.109 20.9447L134.591 20.86C136.944 20.3802 138.995 18.7065 140.744 15.839C141.524 14.5784 142.225 13.6834 142.847 13.1542C143.459 12.6667 144.109 12.4183 144.797 12.409C145.005 12.4061 145.232 12.5124 145.477 12.7279C145.711 12.9226 145.832 13.1553 145.839 13.4261C145.847 13.7385 145.464 14.0197 144.689 14.2698C144.131 14.4545 143.612 14.7532 143.133 15.1659C142.686 15.5783 141.904 16.5576 140.787 18.1041C139.962 19.2507 139.223 20.0576 138.568 20.5248C138.558 20.525 138.542 20.5304 138.522 20.5411C138.511 20.5516 138.496 20.5623 138.476 20.573C138.465 20.5835 138.45 20.5994 138.43 20.6205C138.41 20.6416 138.389 20.6627 138.369 20.6838C138.359 20.7048 138.344 20.731 138.324 20.7625C138.315 20.7939 138.305 20.8305 138.296 20.8723C138.297 20.9139 138.298 20.9556 138.299 20.9972C138.3 21.0493 138.302 21.0962 138.303 21.1378C138.314 21.1689 138.325 21.2 138.336 21.2311C138.358 21.2621 138.374 21.2931 138.386 21.3242C138.407 21.3447 138.423 21.3654 138.434 21.386C138.455 21.3962 138.476 21.4115 138.498 21.4321C138.529 21.442 138.55 21.4522 138.561 21.4624C138.572 21.4727 138.588 21.4829 138.609 21.493C138.63 21.5032 138.64 21.5082 138.64 21.5082C139.286 21.8953 139.984 22.6775 140.733 23.8549C141.916 25.6826 142.832 26.8421 143.48 27.3333C144.181 27.8446 144.969 28.0944 145.844 28.0825L146.375 28.0597C146.427 28.059 146.469 28.0584 146.5 28.058C146.511 28.0891 146.517 28.1202 146.518 28.1515C146.525 28.4326 146.351 28.7527 145.996 29.1117C145.63 29.4708 144.984 29.6567 144.057 29.6693C143.369 29.6786 142.705 29.3647 142.063 28.7275C141.389 28.0388 140.609 26.9087 139.724 25.3373C139.189 24.3654 138.685 23.6223 138.213 23.1078C137.698 22.5419 137.128 22.2631 136.503 22.2716C136.358 22.2736 135.98 22.3933 135.372 22.6307C135.114 22.728 134.913 22.8088 134.769 22.8733C134.635 22.9272 134.496 23.0124 134.353 23.1289C134.221 23.2453 134.125 23.3768 134.067 23.5235C133.979 23.7746 133.937 24.5565 133.94 25.869C133.931 27.1295 133.936 28.1451 133.956 28.9157C133.964 29.1968 133.835 29.459 133.57 29.7022C133.285 29.9456 132.976 30.0696 132.642 30.0741C132.319 30.0785 132.067 29.9934 131.885 29.8188C131.704 29.6337 131.61 29.4527 131.606 29.2757C131.596 28.9112 131.713 28.0086 131.957 26.5677C132.388 23.8744 132.773 19.4524 133.114 13.3019C133.132 12.8224 133.304 12.3878 133.627 11.998C133.93 11.6293 134.264 11.4425 134.628 11.4375C134.753 11.4358 134.87 11.5176 134.978 11.6828C135.12 11.91 135.195 12.2163 135.205 12.6016C135.214 12.9348 135.172 13.3156 135.079 13.7439C134.531 15.9389 134.214 18.1724 134.127 20.4445L134.109 20.9447ZM158.316 15.4131C158.543 15.3267 158.762 15.3341 158.973 15.4354C159.194 15.5366 159.344 15.7012 159.423 15.9293C159.512 16.1469 159.507 16.3657 159.409 16.5858L159.215 16.9322C159.117 17.1731 158.978 17.4666 158.8 17.8128C158.631 18.1484 158.493 18.4316 158.384 18.6622C158.275 18.8824 158.068 19.3175 157.762 19.9675C157.455 20.6071 157.164 21.2309 156.888 21.8388C156.622 22.4153 156.42 22.8868 156.284 23.2533C156.126 23.5992 155.861 24.2174 155.488 25.1078C155.244 25.7258 155.043 26.2337 154.887 26.6317C154.995 26.7968 155.098 26.9517 155.196 27.0962L155.36 27.3909C155.469 27.5769 155.49 27.7902 155.423 28.0306C155.356 28.2607 155.231 28.4343 155.046 28.5514C154.769 28.7218 154.488 28.7256 154.202 28.5628C154.163 28.6675 154.135 28.7617 154.116 28.8453C153.834 29.6408 153.538 30.4573 153.226 31.2949C152.924 32.0907 152.603 32.9596 152.262 33.9017C151.922 34.8439 151.713 35.4092 151.634 35.5978C151.576 35.7653 151.509 35.9797 151.432 36.2412C151.394 36.3667 151.365 36.4765 151.347 36.5705L151.352 36.7579C151.358 36.9974 151.275 37.1965 151.102 37.3551C150.939 37.5135 150.738 37.5944 150.498 37.5976C150.269 37.6007 150.064 37.515 149.882 37.3403C149.711 37.176 149.623 36.9793 149.617 36.7502L149.612 36.5628C149.626 36.323 149.681 36.0305 149.777 35.6855C149.853 35.424 149.936 35.1885 150.024 34.979C150.102 34.7904 150.312 34.2251 150.652 33.283C150.992 32.3408 151.308 31.4615 151.6 30.6451C151.902 29.8493 152.194 29.0536 152.475 28.2581C152.668 27.6409 152.837 27.1491 152.984 26.7825C152.713 26.3591 152.5 26.0078 152.347 25.7286C152.173 25.4497 152.004 25.1655 151.841 24.8761C151.666 24.5555 151.485 24.2299 151.299 23.899C151.145 23.5782 150.865 23.0351 150.46 22.2698C150.055 21.5044 149.742 20.8993 149.522 20.4543C149.271 20.0098 148.987 19.5241 148.672 18.9971L148.213 18.1752C148.103 17.9683 148.077 17.75 148.133 17.52C148.19 17.2901 148.321 17.1164 148.526 16.9991C148.742 16.8815 148.96 16.8525 149.18 16.9121C149.411 16.9714 149.592 17.1096 149.722 17.3266L150.197 18.1483C150.513 18.6752 150.791 19.1715 151.033 19.637C151.285 20.1231 151.608 20.7385 152.003 21.4832C152.408 22.2485 152.688 22.7968 152.842 23.1281C152.997 23.4489 153.166 23.7591 153.351 24.0587C153.483 24.3173 153.619 24.5603 153.761 24.7875C153.82 24.6617 153.859 24.5518 153.877 24.4578C154.26 23.5359 154.53 22.8969 154.687 22.5406C154.823 22.1741 155.035 21.6973 155.322 21.11C155.587 20.4918 155.873 19.8578 156.179 19.2078C156.495 18.5472 156.713 18.1015 156.832 17.8708C156.961 17.6294 157.1 17.3515 157.248 17.037C157.406 16.7119 157.545 16.4288 157.664 16.1876L157.842 15.8414C157.941 15.6317 158.099 15.4889 158.316 15.4131ZM164.798 23.7159L164.993 23.9945C165.08 24.1183 165.297 24.2664 165.645 24.4388C166.037 24.6731 166.611 24.8996 167.367 25.1186C168.102 25.369 168.622 25.5182 168.925 25.5662C169.239 25.614 169.725 25.6439 170.381 25.6558C170.975 25.6686 171.604 25.5819 172.266 25.3958C172.948 25.1991 173.371 25.0475 173.535 24.9411C173.699 24.8347 173.968 24.5498 174.342 24.0864C174.695 23.6337 174.933 23.193 175.057 22.7642C175.17 22.2939 175.223 21.9338 175.217 21.6839C175.211 21.4444 175.044 20.8581 174.718 19.925C174.37 18.9505 174.12 18.355 173.968 18.1383C173.795 17.8802 173.489 17.5354 173.051 17.1038C172.613 16.6827 172.219 16.3651 171.87 16.1511C171.541 15.9472 171.136 15.7808 170.653 15.652C170.17 15.5127 169.825 15.4444 169.616 15.4473C169.418 15.4499 169.005 15.5649 168.375 15.7922C167.787 16.0086 167.294 16.3121 166.898 16.7029C166.46 17.0943 166.167 17.4212 166.017 17.6836C165.858 17.967 165.639 18.5534 165.359 19.4426C165.06 20.3425 164.89 21.0115 164.849 21.4495C164.808 21.8772 164.791 22.6326 164.798 23.7159ZM164.825 25.9499C164.832 26.2103 164.848 26.4236 164.873 26.5899C164.907 27.0999 164.977 27.8021 165.084 28.6965C165.192 29.6533 165.304 30.5477 165.419 31.3795C165.524 32.2114 165.591 32.7782 165.619 33.0799C165.648 33.3608 165.678 33.7301 165.711 34.188C165.743 34.6355 165.761 34.9374 165.765 35.0936L165.771 35.3122C165.777 35.5517 165.694 35.756 165.521 35.925C165.359 36.0939 165.158 36.1799 164.918 36.1832C164.689 36.1863 164.489 36.1057 164.318 35.9413C164.147 35.777 164.059 35.5751 164.053 35.3356L164.047 35.1169C164.044 34.9919 164.026 34.7109 163.994 34.2738C163.962 33.8472 163.927 33.4987 163.888 33.2284C163.86 32.9475 163.794 32.3911 163.689 31.5592C163.583 30.7064 163.477 29.8224 163.37 28.9072C163.262 27.9503 163.19 27.2065 163.156 26.6757C163.125 26.2907 163.1 25.7233 163.08 24.9736C163.073 24.6716 163.064 24.3332 163.054 23.9583C163.063 22.6769 163.091 21.7703 163.14 21.2383C163.189 20.7064 163.371 19.9227 163.688 18.8871C164.026 17.8617 164.305 17.1652 164.525 16.7976C164.755 16.4091 165.139 15.9559 165.678 15.4382C166.237 14.8994 166.939 14.4732 167.786 14.1596C168.591 13.8674 169.176 13.724 169.54 13.7295C169.925 13.7035 170.443 13.7798 171.094 13.9584C171.744 14.1371 172.313 14.3742 172.8 14.6697C173.256 14.9656 173.735 15.3758 174.239 15.9002C174.762 16.4035 175.132 16.8152 175.349 17.1351C175.618 17.4752 175.95 18.2155 176.344 19.356C176.76 20.5067 176.957 21.2853 176.936 21.6918C176.946 22.0771 176.876 22.578 176.725 23.1947C176.556 23.8845 176.224 24.5401 175.729 25.1614C175.234 25.7618 174.818 26.1737 174.48 26.3971C174.182 26.5886 173.61 26.8099 172.762 27.061C171.934 27.2806 171.124 27.3853 170.332 27.3752C169.602 27.3643 169.044 27.325 168.657 27.2573C168.28 27.1895 167.682 27.0206 166.862 26.7504C166.022 26.491 165.343 26.2242 164.825 25.9499ZM191.646 15.164C191.725 15.3921 191.71 15.6111 191.6 15.8209C191.501 16.0201 191.333 16.1526 191.095 16.2184C190.867 16.284 190.659 16.266 190.468 16.1644L190.215 16.0428C190.067 15.9615 189.882 15.865 189.661 15.7534C189.471 15.6727 189.213 15.5616 188.886 15.4202C188.56 15.2996 188.323 15.2143 188.176 15.1642C188.009 15.1248 187.825 15.096 187.627 15.0779C187.46 15.0593 187.225 15.0521 186.923 15.0562C186.642 15.06 186.408 15.084 186.222 15.1282C186.035 15.1724 185.844 15.2271 185.648 15.2923C185.483 15.357 185.211 15.5221 184.832 15.7877C184.453 16.0324 184.157 16.2812 183.945 16.5341C183.692 16.8188 183.495 17.0559 183.354 17.2453C183.234 17.4552 183.115 17.6808 182.996 17.922C182.898 18.1317 182.733 18.5975 182.501 19.3194C182.27 20.0413 182.136 20.5171 182.101 20.7467C182.087 21.0282 182.079 21.3095 182.076 21.5908C182.072 21.8617 182.084 22.1272 182.112 22.3872C182.14 22.6473 182.2 22.9537 182.292 23.3067C182.406 23.6905 182.589 24.1047 182.84 24.5492C183.092 25.0146 183.293 25.3452 183.444 25.5411C183.595 25.7265 183.761 25.9014 183.942 26.0656C184.091 26.1885 184.319 26.3365 184.626 26.5094C184.932 26.6511 185.331 26.7759 185.823 26.8838C186.336 26.9602 186.707 27.0072 186.937 27.025C187.218 27.0211 187.484 27.0175 187.733 27.0141C187.941 26.9905 188.211 26.9452 188.543 26.8782C188.822 26.8119 189.095 26.678 189.361 26.4764C189.636 26.2644 189.815 26.1161 189.896 26.0317C189.997 25.9053 190.087 25.7739 190.167 25.6374C190.247 25.5113 190.332 25.3487 190.42 25.1495L190.568 24.835C190.667 24.6253 190.83 24.4877 191.058 24.4221C191.295 24.346 191.515 24.3586 191.715 24.4601C191.926 24.5614 192.071 24.7261 192.15 24.9542C192.229 25.1719 192.219 25.3908 192.12 25.6109L191.972 25.9254C191.854 26.1874 191.739 26.4025 191.629 26.5707C191.509 26.739 191.388 26.9125 191.268 27.0912C191.086 27.302 190.78 27.5614 190.35 27.8693C189.911 28.1982 189.458 28.4179 188.992 28.5283C188.567 28.6383 188.189 28.7111 187.857 28.7469C187.555 28.751 187.252 28.7551 186.95 28.7592C186.606 28.743 186.136 28.6817 185.539 28.5752C184.88 28.4591 184.323 28.2844 183.869 28.051C183.415 27.8175 183.054 27.5776 182.787 27.3313C182.521 27.1265 182.286 26.8901 182.081 26.6221C181.876 26.3436 181.615 25.9148 181.298 25.3358C181.002 24.7877 180.786 24.2698 180.648 23.7821C180.511 23.3152 180.427 22.8997 180.397 22.5355C180.367 22.213 180.354 21.885 180.356 21.5517C180.357 21.2079 180.374 20.8639 180.407 20.5197C180.44 20.1755 180.581 19.6006 180.831 18.7952C181.091 17.9791 181.29 17.4191 181.428 17.1152C181.588 16.8317 181.753 16.5639 181.923 16.3116C182.103 16.0279 182.34 15.7226 182.634 15.3956C182.947 15.0268 183.355 14.6827 183.858 14.3634C184.339 14.034 184.729 13.8151 185.028 13.7069C185.286 13.5992 185.549 13.5123 185.819 13.4462C186.099 13.4007 186.442 13.3596 186.847 13.3228C187.232 13.3176 187.55 13.3237 187.801 13.3411C188.041 13.3795 188.287 13.4231 188.539 13.4718C188.801 13.5515 189.127 13.6617 189.516 13.8022C189.885 13.9639 190.186 14.1005 190.418 14.2119C190.629 14.3132 190.824 14.4147 191.004 14.5165L191.226 14.6541C191.437 14.7554 191.577 14.9253 191.646 15.164ZM204.199 27.947C204.059 28.1572 203.859 28.2745 203.599 28.2989L203.101 28.3682C202.675 28.4364 202.138 28.4125 201.489 28.2963C200.851 28.2008 200.263 28.016 199.724 27.7421C199.228 27.4884 198.815 27.2388 198.486 26.9933C198.135 26.7168 197.706 26.2434 197.199 25.5732C196.692 24.9238 196.335 24.3974 196.126 23.994C195.928 23.5696 195.762 22.8218 195.63 21.7507C195.478 20.7111 195.427 19.9565 195.478 19.4871C195.55 19.059 195.707 18.484 195.949 17.7619C196.201 17.0293 196.471 16.4058 196.76 15.8915C197.059 15.3666 197.345 14.9565 197.619 14.6611C197.913 14.355 198.352 13.9949 198.935 13.5807C199.56 13.166 200.318 12.8796 201.21 12.7217C202.081 12.564 202.72 12.5033 203.128 12.5394C203.515 12.5967 204.077 12.7661 204.813 13.0478C205.529 13.3402 206.057 13.6039 206.397 13.8389C206.746 14.0633 207.114 14.3916 207.501 14.8239C207.887 15.2562 208.168 15.6534 208.344 16.0156C208.542 16.3983 208.74 16.9946 208.938 17.8044C209.125 18.5936 209.217 19.3163 209.213 19.9726C209.229 20.587 209.211 21.1081 209.159 21.5359C209.129 21.9634 209.004 22.5536 208.783 23.3066C208.564 24.0804 208.315 24.714 208.036 25.2074C207.726 25.722 207.311 26.2068 206.792 26.6618C206.272 27.1168 205.853 27.4194 205.534 27.5695C205.235 27.709 204.79 27.8348 204.199 27.947ZM200.323 26.1402C200.579 25.9492 200.854 25.9038 201.148 26.004L201.637 26.1849C201.9 26.2646 202.188 26.3232 202.502 26.3606C202.804 26.3774 203.215 26.3458 203.734 26.2658C204.253 26.1858 204.594 26.1031 204.759 26.0175C204.944 25.9317 205.241 25.7141 205.648 25.3648C206.046 25.0365 206.345 24.6887 206.544 24.3214C206.742 23.9541 206.933 23.4515 207.114 22.8136C207.305 22.1548 207.418 21.6637 207.451 21.3403C207.484 20.9961 207.498 20.5376 207.493 19.9647C207.48 19.4336 207.396 18.8358 207.244 18.1712C207.102 17.5168 206.965 17.0708 206.834 16.833C206.702 16.5743 206.491 16.2855 206.202 15.9665C205.912 15.6371 205.65 15.3959 205.417 15.2428C205.194 15.0791 204.783 14.8868 204.183 14.6658C203.604 14.434 203.184 14.2991 202.922 14.261C202.682 14.2434 202.225 14.2913 201.551 14.4046C200.918 14.5174 200.376 14.7278 199.926 15.036C199.445 15.3655 199.113 15.6252 198.93 15.8152C198.748 16.026 198.533 16.3466 198.283 16.7771C198.034 17.1972 197.797 17.7212 197.574 18.3492C197.361 18.9667 197.237 19.432 197.204 19.7449C197.17 20.0475 197.206 20.6459 197.313 21.5403C197.44 22.4136 197.574 22.9899 197.717 23.2693C197.85 23.5695 198.126 23.9877 198.547 24.5236C198.967 25.07 199.295 25.4406 199.529 25.6353C199.731 25.8097 199.996 25.978 200.323 26.1402ZM219.83 11.7347L220.336 11.9622C222.527 12.87 223.668 15.1097 223.761 18.6815C223.832 21.3993 223.081 23.7845 221.509 25.8371C220.134 27.8662 218.644 28.8917 217.04 28.9134C215.53 28.9339 214.304 28.2787 213.363 26.9477C212.4 25.5753 211.884 23.5302 211.813 20.8123C211.727 17.4697 212.201 14.083 213.238 10.6522C214.268 7.3778 215.506 4.90263 216.952 3.22672C218.337 1.59332 219.775 0.766519 221.264 0.746311C222.201 0.733593 222.959 1.0254 223.537 1.62173C224.116 2.23889 224.42 3.10978 224.449 4.2344C224.473 5.14035 224.1 6.23917 223.331 7.53087C222.532 8.85424 221.497 10.1131 220.225 11.3074L219.83 11.7347ZM213.895 15.5028L214.737 14.8351C218.25 11.6728 220.436 9.40351 221.297 8.02723C222.26 6.6183 222.731 5.4921 222.709 4.64864C222.692 3.96137 222.516 3.42207 222.183 3.03076C221.85 2.63944 221.381 2.44787 220.777 2.45607C219.454 2.47402 218.18 3.57465 216.955 5.75797C215.77 7.86783 214.819 10.7662 214.102 14.4531L213.895 15.5028ZM221.68 19.1941L221.679 19.1628C221.635 17.4447 221.307 16.0533 220.696 14.9886C220.093 13.8614 219.428 13.3027 218.699 13.3126C218.636 13.3134 218.574 13.3247 218.512 13.3463C218.45 13.368 218.378 13.4055 218.296 13.4587C218.214 13.5014 218.132 13.5494 218.05 13.6026C217.978 13.6557 217.881 13.7351 217.759 13.8409C217.636 13.9364 217.524 14.0264 217.422 14.1111C217.32 14.2063 217.183 14.3331 217.01 14.4917C216.847 14.6502 216.705 14.7928 216.584 14.9194C216.462 15.0356 216.289 15.1995 216.065 15.4108C215.852 15.6221 215.663 15.8017 215.501 15.9497C214.981 16.3943 214.471 16.8075 213.97 17.1893L213.847 17.2847L213.821 17.4569C213.679 18.438 213.624 19.5117 213.654 20.678C213.708 22.771 214.052 24.3549 214.684 25.4297C215.36 26.5768 216.203 27.1435 217.213 27.1298C218.567 27.1114 219.654 26.2581 220.475 24.5699C221.329 22.9333 221.731 21.1413 221.68 19.1941ZM69.4267 41.0726C69.5567 40.8625 69.7304 40.7299 69.9478 40.6749C70.1756 40.6197 70.3903 40.6637 70.592 40.8068C70.8038 40.9393 70.9333 41.1094 70.9803 41.3171L71.085 41.7376C71.1559 42.0596 71.205 42.3454 71.2323 42.595C71.2593 42.8342 71.2989 43.3545 71.3509 44.1559C71.3715 44.9473 71.3875 45.5669 71.3991 46.0147C71.4054 46.2542 71.412 46.5093 71.419 46.78C71.458 46.6753 71.4972 46.581 71.5367 46.4972C71.8769 45.555 72.2276 44.8159 72.5888 44.2797C72.9813 43.7432 73.284 43.364 73.4971 43.1424C73.7721 42.8991 74.1826 42.6591 74.7287 42.4226C75.2545 42.2071 75.6524 42.0819 75.9224 42.047C76.1307 42.0442 76.3443 42.0413 76.563 42.0383C76.8448 42.0553 77.2234 42.1908 77.6988 42.4448C78.1957 42.7193 78.6124 43.1199 78.9491 43.6466C79.2419 44.0905 79.5364 44.8001 79.8326 45.7752C80.1376 46.6878 80.3483 47.3776 80.4646 47.8448C80.5601 48.3123 80.7296 49.0235 80.9732 49.9786C81.1861 50.9549 81.353 51.7651 81.4739 52.4093C81.5731 53.0226 81.6621 53.6412 81.7408 54.2651C81.8297 54.8785 81.8871 55.284 81.913 55.4815C81.9173 55.6482 81.9326 55.8354 81.9589 56.0434L81.9674 56.3714C81.9944 56.6107 81.9268 56.8147 81.7644 56.9836C81.6125 57.1523 81.4169 57.2435 81.1776 57.2572C80.9488 57.2707 80.7384 57.1954 80.5466 57.0314C80.3655 56.8776 80.2615 56.6863 80.2348 56.4574L80.2275 56.1763C80.2012 55.9683 80.1858 55.7758 80.1812 55.5988C80.1561 55.4325 80.1148 55.0476 80.0575 54.4442C79.9802 53.8723 79.892 53.285 79.793 52.6821C79.6729 52.0692 79.5017 51.2954 79.2795 50.3609C79.0464 49.4058 78.8823 48.7048 78.7874 48.2582C78.6716 47.8119 78.4722 47.1531 78.1891 46.2819C77.9279 45.4521 77.6991 44.8667 77.5027 44.5256C77.3293 44.2675 77.1319 44.0879 76.9105 43.9867C76.7198 43.8643 76.5668 43.7935 76.4517 43.7742C76.3476 43.7756 76.233 43.7772 76.108 43.7789C76.0044 43.8011 75.7722 43.8876 75.4114 44.0383C75.0501 44.1682 74.8189 44.2912 74.7177 44.4071C74.5751 44.5341 74.3482 44.8236 74.0369 45.2757C73.7246 45.6862 73.4276 46.2892 73.1461 47.0847C72.8448 47.9222 72.6675 48.5183 72.6142 48.8732C72.5404 49.2388 72.483 49.8386 72.4421 50.6725C72.3809 51.5275 72.3578 52.2413 72.3726 52.8141C72.3875 53.3868 72.3887 53.8347 72.3762 54.1578C72.3857 54.5222 72.3732 54.8453 72.3388 55.1271C72.3399 55.1687 72.3413 55.2208 72.3429 55.2833C72.3445 55.3457 72.3213 55.4554 72.2733 55.6123C72.2354 55.7587 72.1757 55.8689 72.0943 55.9429C72.0129 56.0169 71.8843 56.0812 71.7086 56.1356C71.5433 56.1899 71.3338 56.1459 71.08 56.0035C70.9534 55.9427 70.8423 55.8765 70.7466 55.8049C70.6614 55.7332 70.6024 55.6662 70.5695 55.6042C70.5364 55.5317 70.5138 55.4643 70.5017 55.402C70.4897 55.3396 70.4831 55.2877 70.4821 55.246L70.4804 55.1835C70.3882 54.841 70.3171 54.5086 70.267 54.1864C70.217 53.8642 70.1454 53.313 70.0522 52.533C69.9478 51.7219 69.8712 50.9782 69.8224 50.3017C69.7733 49.6149 69.7375 48.8341 69.7148 47.9594C69.6932 47.1264 69.6765 46.486 69.6649 46.0382C69.6533 45.5904 69.6372 44.9708 69.6167 44.1794C69.5759 43.4092 69.5426 42.9304 69.5169 42.7433C69.5126 42.5767 69.4758 42.3636 69.4066 42.1041L69.3336 41.6989C69.2657 41.4915 69.2967 41.2827 69.4267 41.0726ZM93.8839 55.4441C93.7435 55.6544 93.5434 55.7717 93.2835 55.796L92.7852 55.8653C92.3598 55.9336 91.8225 55.9096 91.1735 55.7934C90.5355 55.6979 89.9472 55.5132 89.4087 55.2392C88.9124 54.9855 88.4996 54.7359 88.1702 54.4904C87.8192 54.2139 87.3901 53.7405 86.883 53.0703C86.3765 52.4209 86.019 51.8945 85.8105 51.4911C85.612 51.0667 85.4467 50.3189 85.3147 49.2478C85.1627 48.2082 85.1119 47.4536 85.1622 46.9842C85.2345 46.5561 85.3915 45.9811 85.6332 45.259C85.8851 44.5264 86.1555 43.903 86.4443 43.3886C86.7433 42.8637 87.0296 42.4536 87.3033 42.1582C87.5975 41.8521 88.0362 41.492 88.6193 41.0778C89.2442 40.6631 90.0026 40.3768 90.8945 40.2188C91.7657 40.0612 92.4049 40.0004 92.8122 40.0366C93.1992 40.0938 93.761 40.2633 94.4977 40.5449C95.2138 40.8373 95.7416 41.101 96.0811 41.336C96.4308 41.5604 96.7987 41.8887 97.1851 42.321C97.5714 42.7533 97.8526 43.1505 98.0287 43.5127C98.2262 43.8954 98.424 44.4917 98.6221 45.3016C98.8093 46.0907 98.901 46.8134 98.8972 47.4697C98.9131 48.0841 98.8953 48.6052 98.8439 49.033C98.8133 49.4605 98.688 50.0507 98.4679 50.8037C98.2483 51.5776 97.9991 52.2112 97.7201 52.7045C97.4105 53.2192 96.9958 53.704 96.4763 54.1589C95.9567 54.6139 95.5373 54.9165 95.2182 55.0666C94.9197 55.2061 94.4749 55.3319 93.8839 55.4441ZM90.0079 53.6373C90.2635 53.4463 90.5384 53.4009 90.8327 53.5011L91.3219 53.682C91.5845 53.7618 91.8725 53.8203 92.1861 53.8578C92.4887 53.8745 92.8994 53.8429 93.4183 53.7629C93.9372 53.683 94.2789 53.6002 94.4434 53.5146C94.6287 53.4288 94.9252 53.2112 95.3329 52.8619C95.7308 52.5336 96.0291 52.1858 96.228 51.8185C96.4269 51.4512 96.617 50.9486 96.7984 50.3108C96.9897 49.6519 97.102 49.1608 97.1353 48.8374C97.168 48.4932 97.1822 48.0347 97.1778 47.4618C97.164 46.9307 97.0807 46.3329 96.928 45.6683C96.786 45.014 96.6494 44.5679 96.5182 44.3301C96.3865 44.0715 96.1758 43.7826 95.8862 43.4636C95.5964 43.1342 95.3348 42.893 95.1016 42.7399C94.8786 42.5763 94.4672 42.3839 93.8676 42.1629C93.2885 41.9312 92.8682 41.7962 92.6068 41.7581C92.3667 41.7405 91.9095 41.7884 91.2351 41.9017C90.6025 42.0145 90.0609 42.225 89.6105 42.5332C89.1293 42.8626 88.7974 43.1223 88.6148 43.3123C88.4327 43.5231 88.217 43.8437 87.9677 44.2742C87.7181 44.6943 87.4816 45.2183 87.2583 45.8464C87.0451 46.4639 86.9217 46.9291 86.8881 47.242C86.8543 47.5446 86.8907 48.1431 86.9972 49.0375C87.1241 49.9108 87.2588 50.4871 87.4015 50.7664C87.5344 51.0667 87.8109 51.4848 88.2312 52.0208C88.6517 52.5672 88.9791 52.9377 89.2134 53.1325C89.4159 53.3068 89.6807 53.4751 90.0079 53.6373ZM109.514 39.2318L110.02 39.4593C112.211 40.3671 113.353 42.6069 113.446 46.1786C113.516 48.8964 112.765 51.2816 111.193 53.3343C109.818 55.3634 108.329 56.3888 106.725 56.4105C105.215 56.431 103.989 55.7758 103.048 54.4448C102.085 53.0724 101.568 51.0273 101.498 48.3095C101.411 44.9668 101.886 41.5801 102.922 38.1494C103.952 34.8749 105.19 32.3997 106.637 30.7238C108.022 29.0904 109.459 28.2636 110.949 28.2434C111.886 28.2307 112.644 28.5225 113.222 29.1189C113.8 29.736 114.104 30.6069 114.134 31.7315C114.157 32.6375 113.784 33.7363 113.016 35.028C112.216 36.3514 111.181 37.6102 109.91 38.8046L109.514 39.2318ZM103.579 42.9999L104.422 42.3322C107.934 39.1699 110.121 36.9006 110.981 35.5244C111.945 34.1154 112.416 32.9892 112.394 32.1458C112.376 31.4585 112.201 30.9192 111.867 30.5279C111.534 30.1366 111.066 29.945 110.462 29.9532C109.139 29.9711 107.865 31.0718 106.64 33.2551C105.455 35.365 104.504 38.2633 103.787 41.9502L103.579 42.9999ZM111.365 46.6912L111.364 46.66C111.319 44.9418 110.991 43.5504 110.38 42.4857C109.778 41.3585 109.112 40.7998 108.383 40.8097C108.321 40.8105 108.258 40.8218 108.196 40.8435C108.135 40.8651 108.063 40.9026 107.981 40.9558C107.898 40.9986 107.816 41.0465 107.734 41.0997C107.663 41.1528 107.566 41.2322 107.443 41.3381C107.321 41.4335 107.209 41.5235 107.107 41.6083C107.005 41.7034 106.868 41.8303 106.695 41.9889C106.532 42.1473 106.39 42.2899 106.268 42.4165C106.146 42.5328 105.973 42.6966 105.749 42.9079C105.536 43.1192 105.348 43.2988 105.185 43.4469C104.665 43.8914 104.155 44.3046 103.654 44.6864L103.532 44.7818L103.505 44.9541C103.364 45.9352 103.308 47.0088 103.338 48.1751C103.393 50.2682 103.736 51.8521 104.368 52.9268C105.044 54.0739 105.887 54.6406 106.897 54.6269C108.251 54.6086 109.339 53.7552 110.16 52.067C111.014 50.4304 111.415 48.6385 111.365 46.6912ZM116.512 39.6681C116.506 39.439 116.521 39.2149 116.557 38.9956C116.603 38.7762 116.676 38.5617 116.775 38.352C116.873 38.1424 117.021 37.9893 117.216 37.8929C117.422 37.7964 117.661 37.7827 117.934 37.8519C117.991 38.4553 118.017 39.4498 118.011 40.8353C118.016 42.2103 118.036 43.1996 118.073 43.8033C118.201 43.9474 118.395 44.1687 118.653 44.4673C119.084 44.2427 119.774 43.926 120.722 43.5173C122.612 43.2625 124.117 43.2317 125.237 43.4248C125.682 43.7417 126.001 43.9717 126.192 44.115C126.384 44.2582 126.655 44.4785 127.006 44.7758C127.358 45.0627 127.647 45.3505 127.873 45.6391C128.099 45.9173 128.294 46.2167 128.459 46.5374C128.56 46.8173 128.63 47.1288 128.671 47.472C128.71 47.8048 128.723 48.0911 128.708 48.3309C128.704 48.5601 128.686 48.8885 128.656 49.316C128.635 49.733 128.622 50.0248 128.616 50.1916C128.015 51.1372 127.218 51.9085 126.222 52.5053C125.227 53.0918 124.19 53.486 123.112 53.6882C122.033 53.8799 120.914 53.9315 119.755 53.8431C119.409 53.7645 119.099 53.6437 118.824 53.4807C118.549 53.3178 118.314 53.1126 118.12 52.8653C117.926 52.6075 117.758 52.3493 117.616 52.0908C117.484 51.8322 117.367 51.5265 117.264 51.1737C117.161 50.821 117.08 50.5096 117.021 50.2395C116.961 49.9695 116.901 49.6578 116.84 49.3045C116.503 45.9548 116.394 42.7427 116.512 39.6681ZM118.489 46.6102C118.497 48.5059 118.544 49.9272 118.631 50.8739C118.737 50.9454 118.897 51.0943 119.112 51.3205C119.326 51.5364 119.528 51.7055 119.719 51.8279C119.909 51.9503 120.119 52.01 120.349 52.0069C121.037 52.0496 121.709 52.0301 122.363 51.9483C123.028 51.856 123.68 51.6961 124.32 51.4686C124.97 51.241 125.535 50.8948 126.012 50.43C126.5 49.9547 126.845 49.3823 127.046 48.7128C127.022 48.1715 127.001 47.7707 126.984 47.5106C126.94 47.4278 126.852 47.2623 126.721 47.0141C126.589 46.7555 126.501 46.5848 126.457 46.5021C125.963 45.9358 125.359 45.5221 124.643 45.261C123.939 44.9997 123.222 44.8949 122.494 44.9464C121.766 44.9876 121.046 45.1536 120.335 45.4445C119.634 45.7352 119.019 46.1238 118.489 46.6102ZM131.23 37.6872C131.325 37.7171 131.446 37.7624 131.593 37.8229C131.751 37.8728 131.919 37.933 132.098 38.0035C132.287 38.0635 132.418 38.1033 132.492 38.1232C132.77 39.6298 132.969 41.2574 133.087 43.0058C133.205 44.7438 133.257 46.3317 133.242 47.7694C133.227 49.1967 133.176 50.8328 133.088 52.6778C132.818 52.7127 132.19 52.815 131.205 52.9846C131.183 52.1307 131.197 51.292 131.249 50.4684C131.454 49.5176 131.572 48.4639 131.605 47.3072C131.637 46.1505 131.604 45.0832 131.506 44.1054C131.418 43.1274 131.343 42.0607 131.282 40.9053C131.221 39.7394 131.203 38.6667 131.23 37.6872ZM135.864 39.2024C136.168 39.2608 136.629 39.3639 137.248 39.5118C137.269 39.949 137.292 40.605 137.314 41.4797C137.337 42.3544 137.361 43.0624 137.385 43.6037C137.409 44.1347 137.467 44.7745 137.56 45.5233C137.652 46.2616 137.779 46.937 137.941 47.5494C137.953 47.6326 137.982 47.9238 138.026 48.4233C138.08 48.9121 138.125 49.25 138.162 49.4371C138.198 49.6241 138.267 49.8888 138.37 50.2311C138.482 50.5629 138.62 50.8579 138.783 51.1161C138.904 51.3645 139.069 51.6956 139.278 52.1094C139.442 52.3885 139.686 52.5935 140.013 52.7245C140.339 52.8451 140.668 52.8823 141 52.8361C141.343 52.7794 141.642 52.6555 141.897 52.4645C142.141 52.2216 142.353 51.9531 142.533 51.659C142.723 51.3544 142.926 50.961 143.143 50.4789C143.37 49.9862 143.518 49.6665 143.587 49.5197C143.501 48.2292 143.448 46.782 143.427 45.178C143.417 43.5636 143.483 42.1095 143.627 40.8159C143.855 40.7711 144.275 40.6925 144.887 40.58C145.033 41.0156 145.15 41.4827 145.236 41.9816C145.321 42.4804 145.375 42.9276 145.395 43.3232C145.427 43.7186 145.434 44.2029 145.418 44.776C145.411 45.3386 145.392 45.792 145.359 46.1362C145.336 46.4699 145.297 46.9548 145.24 47.591C145.194 48.2166 145.159 48.6702 145.135 48.9518C145.071 49.6819 145.251 50.393 145.675 51.0851C146.099 51.7669 146.648 52.2542 147.323 52.5472C147.773 52.6348 148.199 52.5978 148.601 52.4361C149.014 52.2742 149.357 52.0352 149.63 51.719C149.903 51.3924 150.122 51.0248 150.289 50.6163C150.466 50.1972 150.569 49.7739 150.6 49.3464C150.89 45.6862 151.057 42.887 151.101 40.9489C151.279 40.1652 151.418 39.5018 151.518 38.9588C152.137 39.0962 152.551 39.1896 152.76 39.2388C152.811 39.9986 152.822 40.8266 152.793 41.7228C152.765 42.619 152.722 43.38 152.665 44.0058C152.608 44.6316 152.521 45.4765 152.403 46.5407C152.295 47.6046 152.221 48.3817 152.182 48.8718C152.211 49.2048 152.282 49.5371 152.395 49.8689C152.518 50.2006 152.646 50.4906 152.777 50.7388C152.908 50.9766 153.098 51.2605 153.346 51.5904C153.594 51.91 153.793 52.1573 153.944 52.3323C154.094 52.5074 154.325 52.7699 154.636 53.1198C154.958 53.4592 155.177 53.6906 155.295 53.814C155.256 53.8979 155.171 54.0657 155.042 54.3175C154.924 54.5691 154.845 54.7368 154.805 54.8207C154.502 54.7831 154.219 54.7037 153.955 54.5822C153.702 54.4502 153.458 54.2713 153.222 54.0453C152.998 53.8192 152.805 53.6134 152.644 53.4281C152.482 53.2324 152.288 52.985 152.062 52.686C151.835 52.3766 151.662 52.1445 151.544 51.9899C151.276 52.504 150.906 52.9152 150.435 53.2237C149.963 53.5218 149.447 53.7111 148.887 53.7916C148.326 53.8721 147.769 53.8901 147.216 53.8455C146.673 53.8008 146.123 53.7041 145.567 53.5554C145.117 53.0823 144.615 52.6048 144.061 52.1227C143.86 52.8337 143.458 53.3757 142.853 53.7485C142.248 54.1213 141.586 54.3073 140.867 54.3067C140.147 54.2956 139.476 54.1328 138.853 53.8184C137.919 53.1435 137.302 52.0633 137.003 50.5778C136.947 50.4015 136.844 50.0799 136.697 49.6132C136.549 49.1464 136.431 48.7834 136.34 48.5242C136.218 47.8071 136.119 47.0064 136.044 46.122C135.979 45.2374 135.94 44.5192 135.925 43.9673C135.911 43.405 135.899 42.5666 135.891 41.4521C135.883 40.3376 135.874 39.5877 135.864 39.2024ZM160.507 45.6651C160.653 45.6631 160.799 45.6715 160.945 45.6904C161.112 45.6881 161.461 45.699 161.993 45.723C162.535 45.7365 162.926 45.7416 163.166 45.7384C163.405 45.7351 163.634 45.7216 163.852 45.6978C164.07 45.6636 164.48 45.6007 165.082 45.5092C165.674 45.4387 166.053 45.3815 166.219 45.3376C166.395 45.2935 166.637 45.2069 166.947 45.0777C167.225 44.9697 167.405 44.8892 167.487 44.836C167.548 44.7727 167.634 44.6777 167.746 44.5512C167.827 44.4668 167.897 44.346 167.955 44.189C168.013 44.0007 168.051 43.8648 168.069 43.7812C168.067 43.6979 168.031 43.5057 167.961 43.2045C167.89 42.9034 167.833 42.7115 167.79 42.6287C167.725 42.5463 167.591 42.4075 167.388 42.2123C167.195 42.0066 166.999 41.8634 166.799 41.7828C166.556 41.6611 166.345 41.5754 166.167 41.5257C165.988 41.4656 165.685 41.4177 165.257 41.3818C164.849 41.3249 164.51 41.319 164.24 41.3644C163.98 41.3887 163.675 41.4762 163.325 41.6268C162.974 41.767 162.727 41.8797 162.583 41.965C162.44 42.0711 162.237 42.2665 161.973 42.5514C161.71 42.8258 161.459 43.199 161.221 43.671C160.953 44.1642 160.79 44.5206 160.733 44.7401C160.675 44.9076 160.6 45.2159 160.507 45.6651ZM158.627 46.0812C158.664 45.914 158.701 45.7312 158.737 45.5328C158.867 44.8956 158.985 44.4357 159.092 44.153C159.189 43.8704 159.392 43.4406 159.7 42.8635C160.028 42.2653 160.364 41.7711 160.708 41.381C161.043 41.0119 161.327 40.7424 161.563 40.5725C161.818 40.3816 162.183 40.1943 162.658 40.0108C163.142 39.8167 163.598 39.6908 164.023 39.6329C164.428 39.5857 164.897 39.5898 165.43 39.6451C165.963 39.7003 166.366 39.773 166.639 39.863C166.912 39.9427 167.212 40.0532 167.539 40.1946C167.908 40.3771 168.253 40.6328 168.575 40.9618C168.927 41.3008 169.158 41.5737 169.268 41.7805C169.398 41.9871 169.527 42.3343 169.654 42.8222C169.771 43.3102 169.822 43.6741 169.808 43.9139C169.793 44.1432 169.722 44.4307 169.596 44.7761C169.459 45.1426 169.29 45.4574 169.089 45.7205C168.886 45.9316 168.697 46.1008 168.524 46.2282C168.339 46.3557 168.031 46.5109 167.598 46.6939C167.216 46.8241 166.906 46.9272 166.668 47.0034C166.441 47.069 166 47.1479 165.346 47.2401C164.734 47.3317 164.292 47.3898 164.022 47.4143C163.752 47.4388 163.481 47.4529 163.21 47.4565C162.971 47.4598 162.57 47.4548 162.007 47.4416C161.444 47.4284 161.073 47.4178 160.896 47.4098C160.729 47.4017 160.573 47.3986 160.427 47.4006C160.364 47.4014 160.286 47.4025 160.193 47.4037C160.176 47.5706 160.159 47.7323 160.143 47.8888C160.127 48.0973 160.153 48.498 160.221 49.0909C160.288 49.6733 160.345 50.058 160.391 50.2448C160.438 50.4525 160.512 50.6651 160.611 50.8825C160.678 51.0691 160.822 51.3692 161.041 51.7829C161.238 52.1448 161.427 52.4183 161.609 52.6034C161.824 52.84 162.01 53.0094 162.169 53.1114C162.297 53.2138 162.556 53.3457 162.945 53.5071C163.336 53.6893 163.683 53.8252 163.987 53.9149C164.292 53.9941 164.642 54.0414 165.038 54.0569C165.466 54.0927 165.758 54.0992 165.914 54.0762C166.039 54.0745 166.282 53.9983 166.643 53.8476C166.962 53.7182 167.173 53.6164 167.276 53.5421C167.378 53.4574 167.469 53.3572 167.549 53.2415C167.629 53.1258 167.744 52.916 167.892 52.6119C168.03 52.2871 168.127 52.0357 168.185 51.8579C168.243 51.6696 168.291 51.5023 168.328 51.3559L168.384 51.1052C168.42 50.8651 168.535 50.6812 168.73 50.5536C168.935 50.4258 169.152 50.3812 169.383 50.4197C169.623 50.4581 169.809 50.5806 169.939 50.7872C170.08 50.9832 170.132 51.196 170.096 51.4257L170.042 51.7233C169.984 51.9324 169.912 52.1626 169.825 52.4138C169.748 52.6544 169.621 52.9686 169.443 53.3565C169.266 53.7651 169.097 54.0747 168.936 54.2852C168.785 54.4852 168.612 54.6698 168.419 54.8391C168.215 55.0294 167.851 55.2375 167.325 55.4633C166.799 55.658 166.396 55.7728 166.115 55.8079C165.855 55.8323 165.47 55.8271 164.958 55.7923C164.426 55.7579 163.955 55.6862 163.546 55.5771C163.137 55.4577 162.705 55.2969 162.252 55.0947C161.756 54.8618 161.386 54.6637 161.143 54.5003C160.93 54.3366 160.679 54.1056 160.39 53.8074C160.08 53.4887 159.793 53.0759 159.53 52.5691C159.257 52.104 159.075 51.7315 158.985 51.4514C158.874 51.1925 158.784 50.9385 158.715 50.6895C158.645 50.4092 158.57 49.931 158.49 49.255C158.42 48.5684 158.397 48.0792 158.421 47.7872C158.434 47.5057 158.458 47.2241 158.493 46.9424C158.491 46.8799 158.5 46.8173 158.519 46.7546C158.517 46.6921 158.516 46.64 158.515 46.5984C158.49 46.4216 158.527 46.2492 158.627 46.0812ZM183.878 44.6917C184.012 44.6378 184.115 44.5791 184.186 44.5157C184.258 44.4522 184.313 44.3785 184.353 44.2947C184.402 44.1794 184.445 44.0278 184.481 43.8398C184.518 43.6414 184.557 43.3179 184.597 42.8694C184.648 42.4104 184.684 42.0193 184.707 41.6961C184.73 41.3624 184.772 40.7733 184.833 39.9287C184.956 38.2395 185.413 37.3895 186.205 37.3788C186.538 37.3743 186.769 37.4336 186.897 37.5569C187.026 37.6802 187.094 37.9084 187.103 38.2416C187.107 38.4082 187.049 38.7788 186.928 39.3534C186.207 42.8945 185.878 45.8625 185.94 48.2576C186.01 50.9441 186.498 52.7032 187.406 53.5346C187.534 53.6475 187.635 53.7607 187.711 53.8742C187.797 53.9772 187.851 54.0546 187.874 54.1064C187.906 54.1581 187.923 54.1891 187.923 54.1995C187.927 54.3557 187.785 54.5191 187.498 54.6896C187.139 54.9133 186.824 55.0269 186.554 55.0306C185.939 55.0389 185.428 54.4365 185.022 53.2232C184.615 52.01 184.379 50.1277 184.313 47.5765C184.304 47.2224 184.198 46.9635 183.996 46.7995C183.868 46.6971 183.726 46.6469 183.57 46.6491C182.684 46.6611 181.608 46.7382 180.341 46.8804C179.052 47.0124 178.129 47.1812 177.572 47.3867C176.9 47.6042 176.473 47.8183 176.291 48.0291C176.109 48.2503 175.966 48.7471 175.861 49.5193C175.764 50.2186 175.726 50.9483 175.746 51.7084L175.798 53.7234C175.811 54.2128 175.731 54.5576 175.559 54.7579C175.388 54.9685 175.099 55.0766 174.692 55.0821C174.38 55.0864 174.148 54.9906 173.997 54.7947C173.857 54.6091 173.78 54.2612 173.767 53.7509C173.748 53.0012 173.817 52.0471 173.974 50.8887C174.261 48.6973 174.507 44.9387 174.713 39.6129C174.739 38.9979 174.776 38.6224 174.825 38.4863C174.863 38.3712 175.005 38.2287 175.251 38.0587C175.486 37.8888 175.745 37.802 176.026 37.7982C176.328 37.7941 176.527 37.833 176.623 37.9151C176.718 37.9867 176.769 38.1214 176.774 38.3193C176.767 38.4756 176.667 39.2374 176.474 40.6046C176.266 42.2221 176.173 43.4785 176.196 44.3741C176.206 44.7594 176.298 45.081 176.471 45.3391C176.645 45.5972 176.893 45.724 177.216 45.7196C177.945 45.7097 179.254 45.5461 181.142 45.2289C181.339 45.2053 181.578 45.1709 181.858 45.1254C182.148 45.0798 182.366 45.0456 182.512 45.0228C182.667 44.9998 182.849 44.9713 183.056 44.9373C183.264 44.8928 183.419 44.8542 183.522 44.8216C183.636 44.7783 183.755 44.7351 183.878 44.6917ZM201.348 45.7516L200.604 47.2148C199.498 49.5424 198.357 51.3443 197.181 52.6207C196.036 53.8655 194.938 54.495 193.886 54.5092C193.313 54.517 192.699 54.1503 192.044 53.4092C191.378 52.6474 191.024 51.4438 190.981 49.7986C190.945 48.4032 191.214 46.3214 191.788 43.5531C192.271 41.2653 192.51 39.6266 192.505 38.6371C192.723 38.207 193.061 37.9889 193.519 37.9827C193.832 37.9784 194.085 38.0844 194.278 38.3005C194.482 38.5269 194.587 38.7599 194.593 38.9994C194.611 39.6762 194.391 40.6688 193.936 41.9771C193.015 44.6563 192.58 46.9539 192.63 48.8699C192.681 50.838 193.232 51.8149 194.284 51.8007C195.326 51.7865 196.552 50.8688 197.964 49.0476C199.335 47.2685 200.511 44.8098 201.492 41.6715C201.878 40.4787 202.197 39.7087 202.448 39.3616C202.639 39.0986 202.902 38.9648 203.235 38.9603C203.474 38.957 203.648 39.0276 203.756 39.1719C203.864 39.3059 203.923 39.5707 203.933 39.9664C203.926 40.0915 203.842 40.4573 203.68 41.0636C203.108 43.5193 202.851 45.8354 202.907 48.0117C202.977 50.7087 203.465 52.4678 204.372 53.2888C204.501 53.4121 204.603 53.5305 204.679 53.644C204.765 53.747 204.819 53.8244 204.841 53.8762C204.873 53.9278 204.89 53.9589 204.89 53.9693C204.894 54.1151 204.752 54.2785 204.465 54.4594C204.106 54.6831 203.792 54.7967 203.521 54.8004C202.969 54.8079 202.487 54.33 202.077 53.3668C201.622 52.2896 201.366 50.6681 201.31 48.5022L201.296 47.9555C201.291 47.7889 201.292 47.617 201.298 47.4398L201.348 45.7516ZM211.736 37.7199C212.2 37.5157 212.664 37.3531 213.13 37.2322C213.596 37.1113 214.084 37.037 214.593 37.0093C215.113 36.9709 215.605 37.0424 216.068 37.2236C216.541 37.3943 216.94 37.6806 217.263 38.0824C217.408 38.07 217.699 38.0557 218.137 38.0393C218.574 38.023 218.865 38.0138 219.011 38.0118C219.633 43.1076 219.887 48.0678 219.772 52.8924C219.658 52.9147 219.425 52.97 219.073 53.0581C218.731 53.1357 218.504 53.1908 218.39 53.2236C218.346 52.3388 218.302 51.6415 218.258 51.1316C218.223 50.6217 218.155 49.9924 218.052 49.2438C217.96 48.4846 217.848 47.7934 217.717 47.1702C216.874 48.0149 216.199 48.696 215.691 49.2133C215.194 49.7305 214.596 50.3792 213.898 51.1595C213.209 51.9293 212.598 52.6564 212.063 53.3407C211.974 53.519 211.858 53.656 211.714 53.7517C211.581 53.8368 211.426 53.8754 211.249 53.8674C211.071 53.8594 210.909 53.8408 210.763 53.8115C210.616 53.7822 210.438 53.7378 210.228 53.6781C210.018 53.6081 209.86 53.5633 209.755 53.5439C209.796 53.5121 209.888 53.4536 210.032 53.3683C210.176 53.283 210.268 53.2244 210.309 53.1926C210.536 52.7208 210.847 52.2374 211.24 51.7425C211.634 51.2475 212.013 50.8205 212.379 50.4614C212.745 50.1022 213.146 49.6801 213.581 49.1951C214.017 48.71 214.369 48.2573 214.64 47.8369C214.067 47.8447 213.498 47.7951 212.932 47.6882C212.367 47.5709 211.815 47.3961 211.278 47.1638C210.751 46.9313 210.284 46.6043 209.877 46.1828C209.47 45.7612 209.181 45.2755 209.011 44.7257C208.416 43.4734 208.467 42.03 209.164 40.3955C209.915 39.2186 210.772 38.3267 211.736 37.7199ZM212.666 39.2229C212.348 39.4148 212.03 39.6014 211.711 39.7828C210.272 41.3336 209.855 42.7195 210.46 43.9404C210.761 44.7176 211.313 45.3091 212.115 45.7149C212.918 46.1207 213.723 46.2452 214.532 46.0884C215.802 45.6544 216.857 44.937 217.696 43.936C217.695 43.8944 217.702 43.7797 217.718 43.592C217.744 43.4041 217.757 43.2841 217.756 43.2321C217.764 43.1695 217.777 43.0495 217.793 42.8722C217.809 42.6949 217.817 42.5698 217.815 42.4969C217.813 42.424 217.815 42.3094 217.821 42.153C217.828 41.9863 217.824 41.8613 217.812 41.7782C217.809 41.6844 217.801 41.57 217.787 41.4347C217.773 41.2891 217.754 41.1696 217.731 41.0761C217.707 40.9723 217.673 40.8634 217.629 40.7494C217.594 40.6248 217.555 40.5056 217.51 40.3916C217.265 40.1658 216.897 39.8583 216.408 39.4691C215.928 39.0693 215.593 38.7874 215.401 38.6233C214.818 38.6208 214.308 38.659 213.872 38.7378C213.437 38.8166 213.035 38.9783 212.666 39.2229ZM46.5907 74.1329L47.073 74.0483C49.4257 73.5684 51.4766 71.8947 53.2256 69.0272C54.0056 67.7666 54.7066 66.8717 55.3284 66.3424C55.9409 65.8549 56.5909 65.6065 57.2783 65.5972C57.4867 65.5943 57.7134 65.7006 57.9587 65.9161C58.1929 66.1108 58.3136 66.3436 58.3206 66.6143C58.3287 66.9267 57.9453 67.2079 57.1703 67.458C56.6125 67.6427 56.094 67.9414 55.615 68.3542C55.1673 68.7665 54.3852 69.7459 53.2687 71.2923C52.4441 72.4389 51.7044 73.2458 51.0497 73.7131C51.0393 73.7132 51.0238 73.7186 51.0032 73.7293C50.9931 73.7399 50.9777 73.7505 50.9572 73.7612C50.947 73.7717 50.9318 73.7876 50.9115 73.8087C50.8912 73.8298 50.8709 73.8509 50.8506 73.872C50.8408 73.893 50.8258 73.9192 50.8058 73.9507C50.7962 73.9821 50.7867 74.0187 50.7774 74.0605C50.7785 74.1022 50.7796 74.1438 50.7806 74.1855C50.782 74.2375 50.7832 74.2844 50.7843 74.326C50.7955 74.3571 50.8067 74.3882 50.818 74.4193C50.8396 74.4503 50.856 74.4813 50.8673 74.5124C50.8886 74.533 50.9048 74.5536 50.9158 74.5743C50.9369 74.5844 50.9581 74.5997 50.9795 74.6203C51.011 74.6303 51.0321 74.6404 51.0428 74.6507C51.0535 74.6609 51.0693 74.6711 51.0904 74.6813C51.1115 74.6914 51.1221 74.6965 51.1221 74.6965C51.7677 75.0835 52.4653 75.8658 53.2148 77.0431C54.3979 78.8708 55.3136 80.0303 55.9619 80.5215C56.6629 81.0328 57.4508 81.2826 58.3257 81.2707L58.8565 81.2479C58.9086 81.2472 58.9503 81.2466 58.9815 81.2462C58.9927 81.2773 58.9987 81.3085 58.9996 81.3397C59.0069 81.6208 58.8328 81.9409 58.4775 82.2999C58.1117 82.6591 57.4653 82.8449 56.5383 82.8575C55.8508 82.8668 55.1863 82.5529 54.5446 81.9158C53.8703 81.227 53.0908 80.0969 52.2061 78.5256C51.6703 77.5537 51.1665 76.8105 50.6947 76.296C50.1799 75.7301 49.61 75.4514 48.9851 75.4598C48.8393 75.4618 48.4621 75.5815 47.8535 75.819C47.5955 75.9162 47.3944 75.9971 47.2502 76.0615C47.1162 76.1154 46.9777 76.2006 46.8349 76.3172C46.7025 76.4335 46.6069 76.565 46.5482 76.7117C46.4609 76.9629 46.4187 77.7447 46.4215 79.0572C46.4125 80.3177 46.418 81.3333 46.438 82.1039C46.4453 82.385 46.3166 82.6472 46.052 82.8904C45.7666 83.1338 45.4572 83.2578 45.1239 83.2624C44.8011 83.2667 44.5488 83.1816 44.3671 83.007C44.1852 82.822 44.0919 82.6409 44.0873 82.4639C44.0779 82.0994 44.1951 81.1968 44.4391 79.756C44.8693 77.0626 45.2548 72.6406 45.5953 66.4901C45.6142 66.0106 45.7852 65.576 46.1085 65.1862C46.4115 64.8175 46.7453 64.6307 47.1099 64.6257C47.2349 64.624 47.3516 64.7058 47.4601 64.871C47.6014 65.0982 47.6771 65.4045 47.6871 65.7898C47.6957 66.123 47.6535 66.5038 47.5604 66.9322C47.0131 69.1271 46.6959 71.3606 46.609 73.6327L46.5907 74.1329ZM67.88 65.7971L68.3861 66.0246C70.5768 66.9324 71.7186 69.1721 71.8112 72.7439C71.8817 75.4617 71.1309 77.8469 69.5587 79.8995C68.1839 81.9286 66.6945 82.9541 65.0904 82.9758C63.5802 82.9963 62.3545 82.3411 61.4135 81.0101C60.4506 79.6377 59.9339 77.5926 59.8634 74.8747C59.7767 71.5321 60.2514 68.1454 61.2877 64.7146C62.3177 61.4402 63.5559 58.965 65.0024 57.2891C66.3875 55.6557 67.8247 54.8289 69.3142 54.8087C70.2516 54.796 71.0094 55.0878 71.5875 55.6841C72.1661 56.3013 72.47 57.1722 72.4992 58.2968C72.5227 59.2027 72.1501 60.3016 71.3813 61.5933C70.5821 62.9166 69.5467 64.1755 68.2753 65.3698L67.88 65.7971ZM61.945 69.5652L62.7872 68.8975C66.2999 65.7352 68.4864 63.4659 69.3468 62.0896C70.3105 60.6807 70.7814 59.5545 70.7595 58.711C70.7417 58.0238 70.5662 57.4845 70.233 57.0932C69.8999 56.7018 69.4312 56.5103 68.8271 56.5185C67.5043 56.5364 66.2305 57.6371 65.0055 59.8204C63.8204 61.9302 62.8692 64.8286 62.1522 68.5155L61.945 69.5652ZM69.7302 73.2565L69.7294 73.2252C69.6848 71.5071 69.357 70.1157 68.7459 69.051C68.1436 67.9238 67.4779 67.3651 66.7488 67.375C66.6863 67.3758 66.6241 67.3871 66.5621 67.4087C66.5002 67.4304 66.4282 67.4679 66.3462 67.5211C66.264 67.5638 66.1819 67.6118 66.0999 67.665C66.0283 67.7181 65.9314 67.7975 65.8091 67.9033C65.6866 67.9988 65.5743 68.0888 65.4723 68.1735C65.3706 68.2687 65.2332 68.3955 65.0602 68.5541C64.8976 68.7126 64.7554 68.8552 64.6337 68.9818C64.5116 69.0981 64.3388 69.2619 64.115 69.4732C63.9017 69.6845 63.7136 69.8641 63.5507 70.0121C63.0309 70.4567 62.5206 70.8699 62.02 71.2517L61.8974 71.3471L61.8706 71.5193C61.7294 72.5004 61.6739 73.5741 61.7041 74.7404C61.7584 76.8334 62.1017 78.4174 62.7339 79.4921C63.4096 80.6392 64.2527 81.2059 65.263 81.1922C66.617 81.1738 67.7046 80.3205 68.5256 78.6323C69.3792 76.9957 69.7807 75.2037 69.7302 73.2565ZM86.4582 77.0608C86.3492 76.8748 86.2351 76.6941 86.1159 76.5186C85.9639 76.2811 85.7909 76.0386 85.5969 75.7912C85.4241 75.554 85.0183 75.1741 84.3796 74.6515C83.8148 74.1696 83.4431 73.8986 83.2644 73.8385C83.117 73.778 82.8407 73.7713 82.4356 73.8185C81.9888 73.8662 81.5954 73.9653 81.2555 74.1158C80.8739 74.2668 80.5808 74.4166 80.3763 74.5652C80.1819 74.7032 80.0034 74.8515 79.8408 75.01C79.6977 75.1161 79.5009 75.3635 79.2505 75.7524C78.9793 76.1415 78.8146 76.4197 78.7564 76.5872C78.6988 76.7755 78.6427 77.021 78.588 77.3239C78.5542 77.6264 78.5498 77.8609 78.575 78.0272C78.5793 78.1938 78.6491 78.4741 78.7844 78.8681C78.9188 79.2309 79.0559 79.4946 79.1956 79.6594C79.3677 79.8654 79.5329 80.009 79.6913 80.0902C79.8398 80.1923 79.9987 80.2944 80.1681 80.3962C80.3476 80.4875 80.6316 80.5931 81.0203 80.7128C81.3667 80.8123 81.665 80.8655 81.9153 80.8725C82.1965 80.8687 82.4299 80.8291 82.6155 80.7537C82.8227 80.7092 83.0344 80.6334 83.2504 80.5263C83.4768 80.419 83.7079 80.2909 83.9437 80.1419C84.128 80.0144 84.4737 79.6868 84.981 79.159C85.4568 78.6213 85.7448 78.2789 85.8452 78.1317C85.945 77.9636 86.0346 77.801 86.1139 77.6436C86.2247 77.4963 86.3394 77.302 86.4582 77.0608ZM87.9804 77.8996C87.8408 78.1411 87.7312 78.3352 87.6516 78.4822C87.5726 78.6499 87.4579 78.8442 87.3073 79.065C87.1677 79.3065 86.8142 79.7383 86.2469 80.3606C85.6691 80.9831 85.2214 81.3954 84.9036 81.5976C84.6064 81.7892 84.3033 81.9547 83.9944 82.0943C83.6961 82.2442 83.4022 82.3628 83.1127 82.4501C82.792 82.5377 82.4181 82.5845 81.9911 82.5903C81.5438 82.6172 81.0521 82.5405 80.516 82.3603C80.0227 82.2211 79.6491 82.0804 79.3954 81.938C79.1523 81.8059 78.9087 81.6529 78.6645 81.4791C78.4207 81.3158 78.1695 81.0744 77.9112 80.755C77.6002 80.4154 77.3542 79.9709 77.1733 79.4212C76.9928 78.8924 76.8828 78.4668 76.8432 78.1444C76.8145 77.8427 76.8313 77.4831 76.8934 77.0656C76.9662 76.6584 77.0507 76.303 77.147 75.9996C77.2434 75.6963 77.4568 75.2871 77.7872 74.7722C78.1183 74.2781 78.4162 73.9147 78.6811 73.6819C78.9158 73.4912 79.1664 73.3107 79.4329 73.1405C79.7095 72.9596 80.0689 72.7568 80.5111 72.5321C81.0161 72.3169 81.5905 72.1685 82.2344 72.0868C82.8889 72.0154 83.4214 72.0551 83.8316 72.2058C84.1994 72.3258 84.7775 72.719 85.5658 73.3854C85.4303 72.981 85.3228 72.6543 85.2434 72.4054C85.109 72.0426 84.9148 71.5869 84.6609 71.0382C84.3868 70.5107 84.152 70.0972 83.9567 69.7978C83.7614 69.4983 83.5413 69.2461 83.2963 69.0411C83.1039 68.8562 82.7385 68.6268 82.2 68.3528C81.6615 68.0789 81.1985 67.9029 80.811 67.8248C80.3823 67.7681 80.0375 67.7311 79.7766 67.7138C79.5162 67.7174 79.2613 67.7312 79.0118 67.7555C78.8041 67.7791 78.4219 67.9093 77.8654 68.146C77.4635 68.3181 77.2016 68.4623 77.0796 68.5786L76.8986 68.831C76.7784 69.0202 76.5993 69.1424 76.361 69.1977C76.133 69.2425 75.913 69.1986 75.7012 69.066C75.4995 68.9229 75.3697 68.7372 75.3117 68.5088C75.2638 68.2699 75.3155 68.0556 75.4669 67.8661L75.6471 67.5824C75.8777 67.2355 76.3795 66.8953 77.1523 66.5619C77.8735 66.2501 78.4263 66.0707 78.8106 66.0238C79.133 65.9986 79.4608 65.9837 79.7941 65.9792C80.1384 65.9954 80.5772 66.0415 81.1105 66.1176C81.6653 66.2142 82.2859 66.4402 82.9723 66.7955C83.6588 67.1507 84.1625 67.4877 84.4833 67.8062C84.7932 68.1041 85.0938 68.4438 85.385 68.8253C85.6554 69.207 85.9339 69.7032 86.2207 70.314C86.5178 70.9245 86.7345 71.4424 86.8705 71.8677C87.006 72.2721 87.1877 72.8477 87.4155 73.5947C87.6432 74.3416 87.8078 74.8602 87.9091 75.1505C88.021 75.4511 88.1232 75.7726 88.2154 76.1151C88.3178 76.4471 88.3916 76.6804 88.4367 76.8152L88.4376 76.8465C88.546 77.0117 88.5209 77.2464 88.362 77.5506L87.9804 77.8996ZM99.8995 68.0346C99.5136 68.019 99.1851 68.4089 98.914 69.2042C97.0826 73.7187 95.6877 76.7794 94.7291 78.3861C94.6285 78.5229 94.5034 78.7225 94.3539 78.985C93.9672 79.7402 93.588 80.386 93.2164 80.9223C92.8557 81.4793 92.5741 81.8686 92.3714 82.0901C92.1701 82.3636 92.0226 82.501 91.9289 82.5023C91.6164 82.5066 91.4005 82.4157 91.281 82.2299C91.1517 82.0649 91.0815 81.769 91.0705 81.3421C91.0561 80.7902 91.5094 79.9871 92.4302 78.933C93.3974 77.6594 94.5974 75.5181 96.0302 72.509C97.4165 69.7193 98.5341 67.2146 99.383 64.9947C99.4772 64.608 99.618 64.4133 99.8055 64.4108C99.9097 64.4094 100.13 64.4741 100.467 64.605C100.752 64.7573 100.928 64.9008 100.994 65.0353C101.105 65.2838 101.349 66.2597 101.726 67.9629C102.405 71.2454 103.108 73.8453 103.835 75.7626C104.566 77.8048 105.33 79.1694 106.13 79.8565C106.427 80.0712 106.602 80.2095 106.656 80.2712C106.677 80.2709 106.687 80.2656 106.687 80.2552C106.695 80.578 106.625 80.8758 106.476 81.1487C106.326 81.4215 106.185 81.5901 106.051 81.6545C105.907 81.7293 105.564 81.7704 105.023 81.7778C104.789 81.6143 104.354 81.0837 103.716 80.1861C102.938 79.1237 102.001 76.1364 100.904 71.2241C100.63 69.8841 100.403 68.9809 100.225 68.5146L100.119 68.0472L99.8995 68.0346ZM120.061 72.8549L119.318 74.3181C118.211 76.6457 117.07 78.4476 115.894 79.724C114.749 80.9687 113.651 81.5982 112.599 81.6125C112.026 81.6203 111.412 81.2536 110.757 80.5125C110.091 79.7507 109.737 78.5471 109.695 76.9018C109.658 75.5065 109.927 73.4247 110.502 70.6564C110.984 68.3686 111.223 66.7299 111.218 65.7404C111.436 65.3103 111.774 65.0922 112.232 65.086C112.545 65.0817 112.798 65.1877 112.991 65.4038C113.195 65.6302 113.3 65.8632 113.306 66.1027C113.324 66.7795 113.104 67.7721 112.649 69.0804C111.728 71.7596 111.293 74.0572 111.343 75.9732C111.394 77.9413 111.945 78.9182 112.997 78.9039C114.039 78.8898 115.265 77.9721 116.677 76.1508C118.048 74.3718 119.224 71.9131 120.205 68.7747C120.591 67.582 120.91 66.812 121.161 66.4648C121.352 66.2018 121.615 66.0681 121.948 66.0635C122.187 66.0603 122.361 66.1308 122.469 66.2752C122.577 66.4092 122.636 66.674 122.646 67.0697C122.639 67.1948 122.555 67.5605 122.393 68.1669C121.821 70.6226 121.564 72.9386 121.62 75.115C121.69 77.812 122.178 79.571 123.085 80.3921C123.214 80.5153 123.316 80.6337 123.392 80.7473C123.478 80.8503 123.532 80.9277 123.554 80.9795C123.586 81.0311 123.603 81.0621 123.603 81.0726C123.607 81.2183 123.465 81.3817 123.178 81.5627C122.819 81.7863 122.505 81.9 122.234 81.9037C121.682 81.9111 121.2 81.4333 120.79 80.4701C120.335 79.3929 120.079 77.7714 120.023 75.6054L120.009 75.0587C120.004 74.8921 120.005 74.7202 120.011 74.5431L120.061 72.8549ZM132.781 59.5102C132.884 59.488 133.086 59.4384 133.386 59.3614C133.697 59.2842 133.904 59.2345 134.008 59.2123C134.289 59.6043 134.482 60.0392 134.589 60.5169C134.694 60.9843 134.751 61.572 134.759 62.2803C134.777 62.978 134.8 63.4464 134.827 63.6856C135.788 63.7872 136.509 63.8607 136.99 63.9063C137.228 64.2468 137.544 64.6123 137.94 65.0028C138.346 65.3827 138.714 65.7163 139.044 66.0035C139.375 66.2802 139.707 66.6247 140.04 67.0368C140.374 67.449 140.619 67.8675 140.776 68.2925C140.802 68.4901 140.823 68.7033 140.84 68.9323C140.866 69.1611 140.882 69.3588 140.886 69.5254C140.901 69.6815 140.906 69.8949 140.903 70.1658C140.9 70.4367 140.894 70.6347 140.887 70.7598C140.88 70.8745 140.87 71.0934 140.857 71.4164C140.844 71.7291 140.839 71.9271 140.841 72.0104C140.551 72.879 140.339 73.5329 140.205 73.9722C139.849 74.727 139.608 75.2564 139.48 75.5602C138.981 76.4211 138.323 77.1384 137.504 77.712C136.685 78.2752 135.778 78.6521 134.783 78.8427C134.778 79.8741 134.797 80.7957 134.839 81.6076C134.891 82.4194 134.92 83.3357 134.926 84.3565C134.932 85.3877 134.898 86.3048 134.825 87.1079L133.959 87.4478C133.692 86.7952 133.501 86.0686 133.386 85.268C133.282 84.4673 133.242 83.7127 133.265 83.004C133.288 82.2953 133.295 81.5296 133.284 80.7068C133.283 79.8839 133.253 79.1239 133.193 78.4268C132.477 78.124 131.811 77.7476 131.195 77.2976C130.579 76.8476 130.019 76.3396 129.514 75.7735C129.02 75.1969 128.628 74.5512 128.339 73.8363C128.049 73.1111 127.899 72.3631 127.89 71.5924C127.753 70.7609 127.762 69.9014 127.917 69.0139C128.081 68.1262 128.367 67.3098 128.775 66.5647C129.183 65.8091 129.734 65.1662 130.429 64.636C131.134 64.0951 131.917 63.7616 132.778 63.6353C132.781 63.3228 132.775 62.8906 132.76 62.3387C132.746 61.7763 132.738 61.266 132.736 60.8077C132.735 60.3494 132.75 59.9169 132.781 59.5102ZM134.838 65.3105C134.926 70.7261 135.012 74.6364 135.095 77.0416C135.953 76.7695 136.68 76.2649 137.275 75.5276C137.881 74.7798 138.343 73.9245 138.662 72.9619C138.7 72.7947 138.771 72.5125 138.875 72.1152C138.979 71.7076 139.054 71.3888 139.1 71.159C139.157 70.9291 139.207 70.642 139.25 70.2976C139.303 69.9531 139.321 69.63 139.303 69.3281C139.284 69.0263 139.24 68.7352 139.171 68.4549C138.87 68.0944 138.548 67.755 138.206 67.4367C137.875 67.1183 137.406 66.7132 136.8 66.2214C136.193 65.7192 135.831 65.4168 135.713 65.3143C135.276 65.3098 134.984 65.3085 134.838 65.3105ZM131.849 65.7729C131.768 65.8678 131.606 66.0315 131.362 66.2639C131.128 66.4859 130.95 66.6654 130.829 66.8024C130.707 66.9291 130.56 67.0977 130.389 67.3084C130.227 67.5085 130.092 67.7135 129.983 67.9233C129.884 68.1226 129.806 68.3372 129.749 68.5671C129.624 68.9646 129.551 69.3719 129.531 69.7888C129.51 70.2058 129.548 70.6636 129.645 71.1623C129.751 71.6505 129.844 72.0398 129.925 72.3304C130.016 72.6104 130.152 73.0305 130.333 73.5905C130.61 74.2222 130.983 74.7692 131.454 75.2316C131.935 75.6938 132.491 76.0404 133.122 76.2715C133.109 74.9591 133.022 71.4134 132.861 65.6342C132.768 65.6459 132.592 65.6743 132.332 65.7195C132.083 65.7541 131.922 65.772 131.849 65.7729ZM155.651 72.372L154.908 73.8352C153.801 76.1628 152.66 77.9647 151.485 79.2411C150.34 80.4859 149.241 81.1153 148.189 81.1296C147.616 81.1374 147.002 80.7707 146.348 80.0296C145.682 79.2678 145.328 78.0642 145.285 76.4189C145.249 75.0236 145.518 72.9418 146.092 70.1735C146.574 67.8857 146.813 66.247 146.808 65.2575C147.026 64.8274 147.365 64.6093 147.823 64.6031C148.135 64.5988 148.388 64.7048 148.581 64.9209C148.785 65.1473 148.89 65.3803 148.896 65.6198C148.914 66.2966 148.695 67.2892 148.239 68.5975C147.319 71.2767 146.884 73.5743 146.933 75.4903C146.984 77.4584 147.536 78.4353 148.588 78.421C149.629 78.4069 150.856 77.4892 152.267 75.668C153.638 73.8889 154.814 71.4302 155.796 68.2918C156.182 67.0991 156.5 66.3291 156.752 65.982C156.943 65.719 157.205 65.5852 157.538 65.5807C157.778 65.5774 157.952 65.648 158.06 65.7923C158.167 65.9263 158.226 66.1911 158.236 66.5868C158.229 66.7119 158.145 67.0777 157.984 67.684C157.412 70.1397 157.154 72.4558 157.21 74.6321C157.28 77.3291 157.769 79.0882 158.676 79.9092C158.804 80.0325 158.906 80.1509 158.982 80.2644C159.068 80.3674 159.122 80.4448 159.144 80.4966C159.177 80.5482 159.193 80.5793 159.194 80.5897C159.197 80.7355 159.056 80.8989 158.769 81.0798C158.41 81.3035 158.095 81.4171 157.824 81.4208C157.272 81.4283 156.791 80.9504 156.38 79.9872C155.925 78.91 155.67 77.2885 155.613 75.1225L155.599 74.5759C155.595 74.4092 155.596 74.2374 155.601 74.0602L155.651 72.372ZM165.642 72.5177L166.125 72.433C168.477 71.9532 170.528 70.2795 172.277 67.412C173.057 66.1514 173.758 65.2564 174.38 64.7272C174.992 64.2397 175.642 63.9913 176.33 63.9819C176.538 63.9791 176.765 64.0854 177.01 64.3008C177.244 64.4956 177.365 64.7283 177.372 64.9991C177.38 65.3115 176.997 65.5927 176.222 65.8428C175.664 66.0275 175.146 66.3262 174.667 66.7389C174.219 67.1512 173.437 68.1306 172.32 69.677C171.496 70.8237 170.756 71.6306 170.101 72.0978C170.091 72.098 170.075 72.1034 170.055 72.1141C170.045 72.1246 170.029 72.1353 170.009 72.1459C169.999 72.1565 169.983 72.1723 169.963 72.1934C169.943 72.2146 169.922 72.2357 169.902 72.2568C169.892 72.2777 169.877 72.304 169.857 72.3355C169.848 72.3669 169.838 72.4035 169.829 72.4453C169.83 72.4869 169.831 72.5286 169.832 72.5702C169.834 72.6223 169.835 72.6691 169.836 72.7108C169.847 72.7419 169.858 72.773 169.87 72.8041C169.891 72.8351 169.908 72.8661 169.919 72.8972C169.94 72.9177 169.956 72.9383 169.967 72.959C169.988 72.9692 170.01 72.9845 170.031 73.005C170.063 73.015 170.084 73.0252 170.094 73.0354C170.105 73.0457 170.121 73.0559 170.142 73.066C170.163 73.0762 170.174 73.0812 170.174 73.0812C170.819 73.4683 171.517 74.2505 172.266 75.4279C173.449 77.2556 174.365 78.4151 175.013 78.9063C175.714 79.4176 176.502 79.6673 177.377 79.6555L177.908 79.6326C177.96 79.6319 178.002 79.6314 178.033 79.6309C178.044 79.662 178.05 79.6932 178.051 79.7245C178.058 80.0056 177.884 80.3257 177.529 80.6847C177.163 81.0438 176.517 81.2297 175.59 81.2422C174.902 81.2516 174.238 80.9377 173.596 80.3005C172.922 79.6117 172.142 78.4817 171.258 76.9103C170.722 75.9384 170.218 75.1952 169.746 74.6808C169.231 74.1149 168.662 73.8361 168.037 73.8446C167.891 73.8466 167.514 73.9663 166.905 74.2037C166.647 74.301 166.446 74.3818 166.302 74.4463C166.168 74.5002 166.029 74.5854 165.886 74.7019C165.754 74.8183 165.658 74.9498 165.6 75.0964C165.512 75.3476 165.47 76.1295 165.473 77.4419C165.464 78.7025 165.47 79.7181 165.49 80.4886C165.497 80.7698 165.368 81.032 165.104 81.2751C164.818 81.5186 164.509 81.6426 164.175 81.6471C163.853 81.6515 163.6 81.5664 163.419 81.3918C163.237 81.2067 163.143 81.0257 163.139 80.8487C163.129 80.4842 163.247 79.5816 163.491 78.1407C163.921 75.4473 164.306 71.0254 164.647 64.8748C164.666 64.3954 164.837 63.9608 165.16 63.571C165.463 63.2023 165.797 63.0154 166.161 63.0105C166.286 63.0088 166.403 63.0906 166.512 63.2558C166.653 63.483 166.729 63.7893 166.739 64.1746C166.747 64.5078 166.705 64.8886 166.612 65.3169C166.065 67.5119 165.747 69.7454 165.661 72.0174L165.642 72.5177ZM190.699 75.6465C190.59 75.4605 190.476 75.2798 190.356 75.1043C190.204 74.8668 190.031 74.6243 189.837 74.377C189.664 74.1397 189.259 73.7598 188.62 73.2372C188.055 72.7553 187.684 72.4843 187.505 72.4242C187.357 72.3637 187.081 72.357 186.676 72.4042C186.229 72.4519 185.836 72.551 185.496 72.7015C185.114 72.8525 184.821 73.0023 184.617 73.1509C184.422 73.289 184.244 73.4372 184.081 73.5957C183.938 73.7018 183.741 73.9492 183.491 74.3381C183.22 74.7272 183.055 75.0054 182.997 75.1729C182.939 75.3612 182.883 75.6067 182.828 75.9096C182.795 76.2121 182.79 76.4466 182.815 76.6129C182.82 76.7795 182.89 77.0598 183.025 77.4538C183.159 77.8166 183.296 78.0803 183.436 78.2451C183.608 78.4511 183.773 78.5947 183.932 78.6759C184.08 78.7781 184.239 78.8801 184.408 78.9819C184.588 79.0733 184.872 79.1788 185.261 79.2985C185.607 79.398 185.905 79.4512 186.156 79.4582C186.437 79.4544 186.67 79.4148 186.856 79.3394C187.063 79.2949 187.275 79.2191 187.491 79.112C187.717 79.0048 187.948 78.8766 188.184 78.7276C188.368 78.6001 188.714 78.2725 189.221 77.7447C189.697 77.207 189.985 76.8646 190.086 76.7174C190.185 76.5494 190.275 76.3867 190.354 76.2293C190.465 76.082 190.58 75.8877 190.699 75.6465ZM192.221 76.4853C192.081 76.7268 191.972 76.921 191.892 77.0679C191.813 77.2356 191.698 77.4299 191.548 77.6507C191.408 77.8922 191.055 78.324 190.487 78.9463C189.91 79.5688 189.462 79.9811 189.144 80.1833C188.847 80.3749 188.544 80.5404 188.235 80.68C187.937 80.8299 187.643 80.9485 187.353 81.0358C187.032 81.1235 186.659 81.1702 186.231 81.176C185.784 81.2029 185.292 81.1262 184.756 80.946C184.263 80.8069 183.89 80.6661 183.636 80.5237C183.393 80.3916 183.149 80.2386 182.905 80.0649C182.661 79.9015 182.41 79.6601 182.152 79.3407C181.841 79.0012 181.595 78.5566 181.414 78.0069C181.233 77.4781 181.123 77.0525 181.084 76.7301C181.055 76.4284 181.072 76.0688 181.134 75.6513C181.207 75.2441 181.291 74.8888 181.387 74.5854C181.484 74.282 181.697 73.8728 182.028 73.3579C182.359 72.8638 182.657 72.5004 182.921 72.2676C183.156 72.0769 183.407 71.8965 183.673 71.7262C183.95 71.5453 184.309 71.3425 184.752 71.1178C185.256 70.9026 185.831 70.7542 186.475 70.6725C187.129 70.6011 187.662 70.6408 188.072 70.7915C188.44 70.9115 189.018 71.3047 189.806 71.9711C189.671 71.5667 189.563 71.24 189.484 70.9911C189.349 70.6283 189.155 70.1726 188.901 69.624C188.627 69.0964 188.392 68.6829 188.197 68.3835C188.002 68.0841 187.782 67.8318 187.537 67.6268C187.344 67.4419 186.979 67.2125 186.44 66.9386C185.902 66.6646 185.439 66.4886 185.051 66.4105C184.623 66.3538 184.278 66.3168 184.017 66.2996C183.757 66.3031 183.502 66.317 183.252 66.3412C183.044 66.3648 182.662 66.495 182.106 66.7317C181.704 66.9039 181.442 67.048 181.32 67.1643L181.139 67.4167C181.019 67.6059 180.84 67.7281 180.601 67.7834C180.373 67.8282 180.153 67.7843 179.942 67.6517C179.74 67.5086 179.61 67.3229 179.552 67.0945C179.504 66.8556 179.556 66.6413 179.707 66.4518L179.888 66.1681C180.118 65.8212 180.62 65.481 181.393 65.1476C182.114 64.8358 182.667 64.6564 183.051 64.6095C183.373 64.5843 183.701 64.5694 184.035 64.5649C184.379 64.5811 184.818 64.6272 185.351 64.7033C185.906 64.7999 186.526 65.0259 187.213 65.3812C187.899 65.7365 188.403 66.0734 188.724 66.3919C189.034 66.6898 189.334 67.0295 189.625 67.411C189.896 67.7927 190.174 68.289 190.461 68.8997C190.758 69.5102 190.975 70.0281 191.111 70.4534C191.246 70.8578 191.428 71.4335 191.656 72.1804C191.884 72.9273 192.048 73.4459 192.149 73.7362C192.261 74.0368 192.364 74.3583 192.456 74.7008C192.558 75.0328 192.632 75.2661 192.677 75.4009L192.678 75.4322C192.786 75.5974 192.761 75.8321 192.602 76.1363L192.221 76.4853ZM195.883 68.248C195.943 68.143 196.002 68.012 196.06 67.8549C196.119 67.6979 196.167 67.5566 196.206 67.4311C196.244 67.316 196.304 67.185 196.383 67.038C196.452 66.8913 196.528 66.7861 196.609 66.7225C196.701 66.6587 196.82 66.5998 196.964 66.5458C197.109 66.5021 197.271 66.5104 197.449 66.5704C197.653 66.7968 197.775 67.0608 197.814 67.3624C197.842 67.6641 197.831 68.0184 197.779 68.4254C197.727 68.8219 197.703 69.1139 197.708 69.3013C197.539 70.012 197.439 70.7998 197.41 71.6648C197.38 72.5298 197.394 73.2848 197.453 73.9299C197.511 74.5749 197.605 75.3706 197.733 76.3167C198.231 77.0392 198.711 77.6577 199.173 78.1722C199.634 78.6972 200.151 79.1434 200.723 79.5106C201.591 79.2176 202.332 78.869 202.947 78.4648C203.561 78.0606 204.037 77.5333 204.375 76.8829C204.374 76.4662 204.395 76.0389 204.435 75.6008C204.476 75.1731 204.536 74.6619 204.614 74.0671C204.703 73.4721 204.76 73.0495 204.785 72.7991C204.836 72.3609 204.853 71.8138 204.836 71.1578C204.829 70.4912 204.819 69.9184 204.807 69.4394C204.794 68.95 204.837 68.4077 204.937 67.8126C205.036 67.2175 205.204 66.6788 205.442 66.1964C205.495 66.2373 205.898 66.5287 206.652 67.0706C206.724 67.8405 206.786 68.824 206.838 70.0212C206.89 71.2185 206.932 72.244 206.965 73.0977C206.998 73.9618 207.101 74.9344 207.275 76.0154C207.449 77.0964 207.699 78.0826 208.024 78.974C208.481 78.5199 209.066 77.9651 209.778 77.3096C210.295 77.5422 210.684 77.8806 210.945 78.325C211.207 78.7694 211.334 79.2573 211.327 79.7886C211.33 80.3198 211.271 80.8415 211.149 81.3536C210.989 82.0016 210.814 82.4883 210.624 82.8138C210.554 82.9294 210.439 83.1236 210.28 83.3966C210.13 83.6695 210.006 83.8847 209.906 84.0423C209.806 84.1999 209.675 84.3944 209.515 84.6258C209.354 84.8571 209.197 85.0363 209.044 85.1634C208.88 85.2802 208.701 85.392 208.506 85.4989C208.31 85.5953 208.093 85.6399 207.853 85.6327C207.623 85.6254 207.377 85.5663 207.114 85.4552C207.281 85.0988 207.56 84.5794 207.948 83.897C208.347 83.2041 208.669 82.5747 208.915 82.0089C209.171 81.4429 209.334 80.873 209.402 80.2991C208.708 80.4648 207.997 80.563 207.269 80.5937C207.054 80.3362 206.842 80.0265 206.635 79.6648C206.438 79.3028 206.29 79.0184 206.191 78.8114C206.102 78.6043 205.958 78.2573 205.758 77.7704C205.56 78.1689 205.36 78.5206 205.16 78.8254C204.959 79.1302 204.722 79.4355 204.449 79.7413C204.176 80.0471 203.864 80.2961 203.515 80.4884C203.166 80.6806 202.789 80.8055 202.384 80.8631C201.773 81.0172 201.169 81.0202 200.571 80.8721C199.974 80.7343 199.43 80.4761 198.941 80.0973C198.452 79.7185 198.014 79.3026 197.627 78.8495C196.832 77.9123 196.48 77.4119 196.572 77.3481C196.572 77.3481 196.555 77.2807 196.52 77.1457C196.507 77.0417 196.495 76.969 196.483 76.9275C196.244 76.139 196.005 75.3506 195.766 74.5622C195.788 73.8223 195.811 73.0824 195.833 72.3425C195.852 71.863 195.86 71.165 195.857 70.2484C195.864 69.3212 195.873 68.6544 195.883 68.248ZM224.926 71.4321L224.183 72.8953C223.076 75.2229 221.935 77.0249 220.76 78.3012C219.615 79.546 218.516 80.1755 217.464 80.1897C216.891 80.1975 216.277 79.8308 215.623 79.0897C214.957 78.3279 214.603 77.1243 214.56 75.4791C214.524 74.0837 214.793 72.0019 215.367 69.2336C215.849 66.9458 216.088 65.3071 216.083 64.3176C216.301 63.8875 216.64 63.6694 217.098 63.6632C217.41 63.6589 217.663 63.7649 217.856 63.981C218.06 64.2074 218.165 64.4404 218.171 64.6799C218.189 65.3567 217.97 66.3493 217.514 67.6576C216.594 70.3368 216.158 72.6344 216.208 74.5504C216.259 76.5185 216.811 77.4954 217.863 77.4812C218.904 77.467 220.131 76.5493 221.542 74.7281C222.913 72.949 224.089 70.4903 225.071 67.352C225.456 66.1592 225.775 65.3892 226.027 65.0421C226.218 64.7791 226.48 64.6453 226.813 64.6408C227.053 64.6375 227.227 64.7081 227.334 64.8524C227.442 64.9864 227.501 65.2512 227.511 65.6469C227.504 65.772 227.42 66.1378 227.259 66.7441C226.687 69.1998 226.429 71.5159 226.485 73.6922C226.555 76.3892 227.044 78.1483 227.951 78.9693C228.079 79.0926 228.181 79.211 228.257 79.3245C228.343 79.4275 228.397 79.5049 228.419 79.5567C228.452 79.6084 228.468 79.6394 228.469 79.6498C228.472 79.7956 228.331 79.959 228.044 80.1399C227.685 80.3636 227.37 80.4772 227.099 80.4809C226.547 80.4884 226.066 80.0105 225.655 79.0473C225.2 77.9702 224.944 76.3486 224.888 74.1827L224.874 73.636C224.87 73.4694 224.871 73.2975 224.876 73.1203L224.926 71.4321ZM242.893 71.1883L242.15 72.6516C241.043 74.9791 239.902 76.7811 238.727 78.0575C237.582 79.3022 236.483 79.9317 235.431 79.946C234.858 79.9537 234.244 79.5871 233.59 78.8459C232.924 78.0841 232.57 76.8806 232.527 75.2353C232.491 73.8399 232.76 71.7581 233.334 68.9899C233.816 66.702 234.055 65.0634 234.05 64.0738C234.268 63.6438 234.607 63.4256 235.065 63.4194C235.377 63.4152 235.63 63.5211 235.823 63.7373C236.027 63.9637 236.132 64.1966 236.138 64.4361C236.156 65.113 235.937 66.1055 235.481 67.4138C234.561 70.093 234.125 72.3906 234.175 74.3067C234.226 76.2747 234.778 77.2517 235.83 77.2374C236.871 77.2233 238.098 76.3056 239.509 74.4843C240.88 72.7052 242.056 70.2465 243.038 67.1082C243.424 65.9154 243.742 65.1455 243.994 64.7983C244.185 64.5353 244.447 64.4015 244.78 64.397C245.02 64.3937 245.194 64.4643 245.302 64.6087C245.409 64.7426 245.468 65.0075 245.478 65.4032C245.471 65.5283 245.387 65.894 245.226 66.5004C244.654 68.9561 244.396 71.2721 244.452 73.4485C244.522 76.1455 245.011 77.9045 245.918 78.7255C246.046 78.8488 246.148 78.9672 246.224 79.0808C246.31 79.1838 246.364 79.2612 246.386 79.3129C246.419 79.3646 246.435 79.3956 246.436 79.406C246.439 79.5518 246.298 79.7152 246.011 79.8962C245.652 80.1198 245.337 80.2334 245.066 80.2371C244.514 80.2446 244.033 79.7668 243.622 78.8036C243.167 77.7264 242.912 76.1048 242.855 73.9389L242.841 73.3922C242.837 73.2256 242.838 73.0537 242.843 72.8765L242.893 71.1883Z" fill="#242424"/>
</svg>
