<svg width="158" height="86" viewBox="0 0 158 86" fill="none" xmlns="http://www.w3.org/2000/svg">
<path d="M20.1279 17.4729C54.118 14.975 137.189 24.8966 140.372 30.8915C144.352 38.3851 -13.5454 33.4176 24.5003 63.4338C45.4497 79.9618 81.3259 65.2003 144 59.7049" stroke="#0CE9CA" stroke-width="28" stroke-linecap="round"/>
<path d="M43.8019 26.3934C44.1594 26.287 44.5845 26.1085 45.0772 25.8578C45.5891 25.585 45.9702 25.3779 46.2206 25.2367C46.4518 25.1175 46.8569 24.815 47.4361 24.3291C47.9769 23.8875 48.4218 23.4206 48.7707 22.9286C49.1388 22.4145 49.3849 22.0126 49.509 21.7229C49.6539 21.4318 49.8302 20.7995 50.0379 19.826C50.2647 18.8304 50.3843 18.1391 50.3965 17.7521C50.4279 17.3431 50.3903 16.714 50.2836 15.865C50.1561 15.0173 50.0178 14.3008 49.8686 13.7154C49.7002 13.1522 49.4255 12.4965 49.0445 11.7486C48.6635 11.0006 48.352 10.4778 48.1099 10.1802C47.879 9.89227 47.3535 9.44057 46.5334 8.82506C45.7557 8.21728 45.0199 7.81557 44.3259 7.61992C43.5784 7.40682 43.0268 7.296 42.6709 7.28746C42.2831 7.27052 41.6262 7.35431 40.7001 7.53881C39.8156 7.72065 39.2478 7.87701 38.9967 8.00789C38.7063 8.17259 38.4124 8.35839 38.1148 8.5653C37.8052 8.75211 37.3112 9.19077 36.6327 9.88129C35.9727 10.5393 35.449 11.2043 35.0616 11.8762C34.663 12.5383 34.3988 13.0458 34.2691 13.3985C34.1481 13.7298 34.0202 14.3799 33.8853 15.3487C33.7712 16.3163 33.7229 16.9821 33.7403 17.3463C33.7712 17.7514 33.892 18.3751 34.1026 19.2175C34.3117 20.0391 34.5456 20.7077 34.8043 21.2235C35.0527 21.7399 35.4086 22.2964 35.8721 22.8929C36.3659 23.4771 36.7483 23.9015 37.0192 24.1659C37.2781 24.4103 37.7957 24.7581 38.5719 25.2094C39.3592 25.6705 39.8864 25.9394 40.1535 26.0163C40.4421 26.1022 40.8562 26.1905 41.3959 26.2812C41.894 26.3746 42.3354 26.409 42.72 26.3843L43.4217 26.3394C43.5472 26.3418 43.674 26.3598 43.8019 26.3934ZM39.7003 27.6735C39.2838 27.554 38.6167 27.2314 37.699 26.7056C36.8014 26.1681 36.1783 25.7383 35.8299 25.4162C35.5022 25.0927 35.0727 24.5984 34.5413 23.9331C33.9972 23.2373 33.571 22.5809 33.2627 21.964C32.9528 21.3263 32.6786 20.5402 32.44 19.6056C32.223 18.6802 32.0855 17.974 32.0274 17.4872C31.9693 17.0004 32.0133 16.2096 32.1595 15.1147C32.316 14.0193 32.4712 13.2474 32.625 12.7992C32.8004 12.3601 33.115 11.7607 33.5688 11.001C34.0322 10.2303 34.6511 9.44448 35.4256 8.64344C36.1825 7.88529 36.7497 7.37932 37.1273 7.12554C37.4752 6.89453 37.8244 6.6791 38.1747 6.47925C38.5659 6.26636 39.2857 6.04809 40.3341 5.82444C41.3641 5.63329 42.151 5.54119 42.6947 5.54814C43.2073 5.5571 43.902 5.69529 44.7791 5.96272C45.6977 6.2275 46.6342 6.72596 47.5885 7.45812C48.4996 8.17217 49.1218 8.72728 49.455 9.12344C49.7667 9.51055 50.1377 10.1287 50.5682 10.9779C51.0092 11.8264 51.3294 12.5991 51.5289 13.2961C51.706 13.9736 51.8551 14.7625 51.9761 15.6628C52.1115 16.6143 52.1671 17.3414 52.1428 17.8439C52.1193 18.3569 51.9869 19.1533 51.7456 20.2334C51.5043 21.3134 51.2796 22.0636 51.0714 22.484C50.8929 22.8816 50.6004 23.3595 50.1939 23.9178C49.7505 24.5411 49.1944 25.1246 48.5257 25.6684C47.8769 26.2005 47.4021 26.5492 47.1013 26.7146C46.8318 26.8779 46.421 27.1077 45.8691 27.404C45.2964 27.7016 44.7906 27.9166 44.3515 28.049C43.9124 28.1815 43.439 28.2744 42.9312 28.3278C42.4234 28.3812 42.0596 28.4044 41.8397 28.3976C41.599 28.3922 41.2384 28.3213 40.7579 28.1851L40.1331 28.0059C39.9613 27.9438 39.817 27.833 39.7003 27.6735ZM55.2792 11.7254C55.3984 11.509 55.5652 11.3679 55.7796 11.3019C56.0043 11.2354 56.221 11.2685 56.4296 11.4013C56.6478 11.523 56.7857 11.6864 56.8431 11.8914L56.9688 12.3061C57.0558 12.6241 57.1192 12.9071 57.1591 13.155C57.1981 13.3926 57.2638 13.9102 57.3561 14.708C57.4164 15.4973 57.4636 16.1153 57.4978 16.5619C57.516 16.8008 57.5355 17.0553 57.5561 17.3253C57.5897 17.2188 57.6242 17.1227 57.6594 17.0369C57.9518 16.0789 58.2649 15.323 58.5986 14.7694C58.9636 14.2137 59.2469 13.8198 59.4485 13.5878C59.7109 13.3309 60.1089 13.0706 60.6424 12.8069C61.1567 12.5652 61.5478 12.4202 61.8157 12.3717C62.0236 12.3584 62.2367 12.3448 62.455 12.3308C62.7373 12.3336 63.1222 12.4499 63.6098 12.6796C64.1199 12.9288 64.5562 13.3079 64.919 13.817C65.2338 14.2456 65.5636 14.9395 65.9085 15.8985C66.259 16.7945 66.5041 17.4729 66.6438 17.9337C66.7627 18.3957 66.9678 19.0976 67.2591 20.0391C67.5208 21.0035 67.7283 21.8043 67.8814 22.4416C68.0114 23.0491 68.1314 23.6624 68.2414 24.2816C68.361 24.8898 68.4387 25.2918 68.4746 25.4878C68.4873 25.654 68.512 25.8403 68.5487 26.0467L68.5737 26.3739C68.6127 26.6114 68.5554 26.8186 68.4018 26.9955C68.2586 27.1716 68.0678 27.2725 67.8295 27.2982C67.6016 27.3232 67.3877 27.2586 67.1879 27.1044C66.9993 26.96 66.8858 26.7741 66.8476 26.547L66.8262 26.2665C66.7895 26.0601 66.7644 25.8686 66.7509 25.6921C66.7174 25.5272 66.6569 25.1449 66.5693 24.5452C66.4632 23.9779 66.3456 23.3957 66.2164 22.7986C66.0656 22.1925 65.8558 21.4284 65.5868 20.5062C65.3059 19.564 65.1068 18.8722 64.9895 18.4309C64.8514 17.991 64.6191 17.3431 64.2925 16.4872C63.99 15.6716 63.732 15.0984 63.5187 14.7676C63.3325 14.5186 63.1263 14.3492 62.9001 14.2593C62.7034 14.1466 62.5471 14.0836 62.4312 14.0701C62.3273 14.0768 62.2129 14.0841 62.0882 14.0921C61.9858 14.1195 61.7583 14.2175 61.4055 14.3862C61.0512 14.5341 60.8264 14.6686 60.7312 14.7895C60.5952 14.9234 60.3831 15.224 60.095 15.6912C59.8037 16.1169 59.5375 16.7341 59.2963 17.5427C59.0376 18.3943 58.8905 18.9986 58.8551 19.3557C58.7997 19.7246 58.7726 20.3265 58.7737 21.1614C58.7556 22.0184 58.7684 22.7325 58.8121 23.3037C58.8557 23.875 58.8795 24.3223 58.8833 24.6456C58.9111 25.0091 58.9149 25.3324 58.8947 25.6155C58.8979 25.6571 58.9019 25.709 58.9066 25.7713C58.9114 25.8336 58.8937 25.9443 58.8537 26.1035C58.8232 26.2515 58.7692 26.3646 58.6915 26.4426C58.6139 26.5206 58.4888 26.5913 58.316 26.6545C58.1536 26.7171 57.9422 26.6836 57.6816 26.5542C57.5521 26.4999 57.4377 26.4393 57.3386 26.3726C57.2499 26.3052 57.1876 26.2414 57.1516 26.1811C57.1149 26.1104 57.0889 26.0442 57.0738 25.9825C57.0586 25.9209 57.0495 25.8693 57.0463 25.8277L57.0415 25.7654C56.9322 25.428 56.8444 25.0996 56.7782 24.7803C56.712 24.461 56.6128 23.9141 56.4805 23.1398C56.3354 22.335 56.2215 21.596 56.1387 20.9229C56.0551 20.2394 55.98 19.4614 55.9134 18.589C55.8499 17.7581 55.801 17.1193 55.7669 16.6727C55.7328 16.2261 55.6856 15.6081 55.6252 14.8187C55.5457 14.0515 55.4884 13.575 55.4533 13.3894C55.4406 13.2232 55.3932 13.0123 55.311 12.7566L55.2176 12.3555C55.1394 12.1518 55.1599 11.9417 55.2792 11.7254ZM70.3306 9.99513C70.3131 9.76663 70.3168 9.54199 70.3417 9.32122C70.377 9.09978 70.4387 8.88187 70.5268 8.66749C70.6149 8.45311 70.7541 8.29286 70.9445 8.18674C71.1453 8.07996 71.3836 8.05428 71.6594 8.10969C71.747 8.70944 71.8228 9.70134 71.8868 11.0854C71.9604 12.4584 72.0306 13.4454 72.0974 14.0465C72.2333 14.1839 72.4374 14.3953 72.7099 14.6805C73.1299 14.4345 73.803 14.0835 74.7292 13.6276C76.6037 13.278 78.105 13.1715 79.2332 13.3081C79.6944 13.6021 80.0241 13.8159 80.2224 13.9493C80.4206 14.0827 80.7027 14.2891 81.0688 14.5683C81.4341 14.8372 81.737 15.1101 81.9775 15.3869C82.2172 15.6534 82.4274 15.9426 82.6079 16.2546C82.7229 16.5291 82.8091 16.8367 82.8665 17.1774C82.9231 17.5078 82.9501 17.7931 82.9475 18.0333C82.9546 18.2625 82.9536 18.5913 82.9446 19.0198C82.9451 19.4373 82.9466 19.7294 82.9489 19.8963C82.3966 20.8709 81.6385 21.6814 80.6746 22.3275C79.7099 22.9633 78.6941 23.4092 77.6273 23.6654C76.5596 23.9111 75.4449 24.019 74.2831 23.989C73.9337 23.9278 73.6175 23.8228 73.3345 23.6739C73.0515 23.525 72.807 23.3319 72.6008 23.0946C72.3938 22.8469 72.2129 22.5976 72.0579 22.3466C71.9133 22.0949 71.7807 21.7955 71.6602 21.4483C71.5396 21.1012 71.4431 20.7943 71.3705 20.5275C71.2978 20.2608 71.2221 19.9526 71.1431 19.6027C70.638 16.2743 70.3672 13.0718 70.3306 9.99513ZM72.6547 16.8289C72.7576 18.7219 72.8764 20.1389 73.011 21.0801C73.1205 21.1462 73.2879 21.2868 73.5133 21.502C73.7379 21.7068 73.9485 21.8655 74.1451 21.9782C74.3417 22.0909 74.5544 22.1399 74.7831 22.1252C75.4732 22.1333 76.1429 22.08 76.7922 21.9654C77.4512 21.8397 78.0946 21.6472 78.7224 21.3878C79.3607 21.1278 79.9066 20.7537 80.3603 20.2654C80.8236 19.7661 81.139 19.1771 81.3065 18.4984C81.2548 17.959 81.2138 17.5598 81.1836 17.3008C81.1357 17.2203 81.0398 17.0595 80.896 16.8182C80.7514 16.5665 80.6552 16.4004 80.6072 16.32C80.0854 15.7794 79.4607 15.3966 78.7332 15.1718C78.0161 14.9463 77.2952 14.8777 76.5707 14.9658C75.8454 15.0435 75.1349 15.2455 74.439 15.5718C73.7536 15.8975 73.1588 16.3165 72.6547 16.8289ZM84.9303 7.27617C85.0263 7.30134 85.1494 7.34043 85.2997 7.39344C85.4596 7.43539 85.6307 7.48707 85.8129 7.54846C86.0048 7.59881 86.1379 7.63204 86.2123 7.64816C86.5665 9.13888 86.8466 10.7544 87.0527 12.4946C87.258 14.2245 87.3895 15.8078 87.447 17.2444C87.5038 18.6707 87.5348 20.3073 87.5402 22.1544C87.2723 22.2028 86.6505 22.3365 85.6749 22.5555C85.6098 21.7038 85.5823 20.8654 85.5923 20.0402C85.7488 19.0804 85.8142 18.0221 85.7884 16.8652C85.7627 15.7083 85.6762 14.6441 85.5288 13.6724C85.3918 12.7001 85.2637 11.6385 85.1444 10.4876C85.0243 9.32628 84.953 8.25582 84.9303 7.27617ZM89.8959 9.51032C89.9944 9.29528 90.1504 9.14961 90.3639 9.07333C90.5878 8.99637 90.8081 9.00837 91.0248 9.10932C91.2518 9.2096 91.4048 9.3668 91.4839 9.58093L91.6431 10.0248C91.7765 10.4024 91.8418 10.847 91.8391 11.3586C91.8508 11.7858 91.8908 12.446 91.9591 13.3392C92.005 14.213 92.0398 14.8057 92.0636 15.1173C92.109 15.4379 92.156 15.7793 92.2046 16.1415C92.2141 16.2662 92.2368 16.4265 92.2727 16.6225C92.3376 16.3783 92.4149 16.0915 92.5047 15.7623C92.7218 14.9134 92.9737 14.1771 93.2604 13.5534C93.5574 12.929 93.8051 12.48 94.0036 12.2064C94.1708 11.9348 94.4613 11.5666 94.875 11.1017C95.3263 10.5823 95.7551 10.1791 96.1615 9.89219C96.5662 9.58449 96.9674 9.36573 97.3649 9.23593C97.7815 9.08402 98.1518 9.00814 98.4757 9.00829C98.8203 9.00711 99.1869 9.08803 99.5754 9.25104C99.9535 9.41471 100.235 9.61067 100.419 9.83891C100.581 10.0373 100.816 10.4502 101.125 11.0775C101.378 11.6562 101.554 12.1147 101.653 12.4527C101.742 12.7915 101.862 13.2743 102.015 13.9013C102.075 14.1375 102.138 14.3578 102.206 14.5622C102.303 14.1907 102.489 13.6882 102.765 13.0548C103.073 12.3045 103.311 11.7935 103.478 11.5219C103.645 11.2399 103.876 10.912 104.171 10.5382C104.505 10.1306 104.801 9.82992 105.058 9.63606C105.323 9.41037 105.643 9.23329 106.02 9.10481C106.52 8.94758 107.045 8.98703 107.596 9.22315C108.125 9.45021 108.549 9.79885 108.867 10.269C109.085 10.6621 109.252 11.0011 109.368 11.2859C109.451 11.5624 109.587 12.1017 109.773 12.9038C109.982 13.7254 110.117 14.3274 110.178 14.7097C110.248 15.0809 110.353 15.6378 110.493 16.3803C110.613 17.1241 110.713 17.7492 110.793 18.2555C110.874 18.7617 110.933 19.2693 110.972 19.7783C111.03 20.2651 111.084 20.6896 111.132 21.0518C111.181 21.414 111.222 21.6775 111.255 21.8424L111.307 22.1052C111.346 22.3428 111.299 22.5545 111.167 22.7404C111.035 22.9263 110.851 23.0372 110.613 23.0733C110.386 23.1087 110.173 23.0597 109.975 22.9263C109.786 22.7818 109.663 22.5966 109.604 22.3708L109.586 22.1371C109.551 21.9515 109.498 21.6678 109.427 21.2862C109.376 20.9032 109.316 20.4479 109.244 19.9202C109.207 19.432 109.148 18.9452 109.07 18.4597C108.991 17.9742 108.893 17.3751 108.776 16.6624C108.658 15.9394 108.563 15.387 108.492 15.0054C108.423 14.6445 108.29 14.0737 108.095 13.293C107.91 12.5116 107.778 12.0191 107.7 11.8153C107.646 11.6518 107.546 11.4338 107.399 11.1614C107.303 11.0005 107.153 10.8797 106.949 10.7988C106.797 10.7251 106.69 10.7006 106.63 10.7253C106.446 10.7788 106.29 10.8618 106.163 10.9744C105.985 11.111 105.777 11.3278 105.539 11.6249C105.26 11.9454 105.061 12.2138 104.942 12.4302C104.822 12.6362 104.621 13.077 104.338 13.7526C104.055 14.4178 103.882 14.8881 103.819 15.1635C103.759 15.47 103.679 15.9292 103.58 16.5409C103.49 17.1416 103.427 17.7613 103.393 18.4002C103.344 19.1339 103.315 19.5741 103.306 19.7209C103.282 19.9624 103.238 20.268 103.172 20.6375C103.117 21.0063 103.074 21.2752 103.046 21.444C103.025 21.4453 103.005 21.4571 102.986 21.4792C102.966 21.5013 102.922 21.5302 102.851 21.566C102.781 21.6018 102.705 21.638 102.624 21.6745C102.554 21.7103 102.468 21.7471 102.367 21.7849C102.265 21.8227 102.168 21.8498 102.075 21.8662C101.993 21.8819 101.91 21.8924 101.827 21.8977C101.744 21.9031 101.664 21.8925 101.589 21.866C101.514 21.8395 101.448 21.7967 101.391 21.7377C101.345 21.6781 101.318 21.5963 101.31 21.4924C101.297 21.3263 101.285 21.2383 101.274 21.2286C101.262 21.2085 101.265 21.177 101.283 21.1341C101.3 21.0912 101.321 21.0273 101.346 20.9422C101.374 20.7525 101.388 20.5272 101.389 20.2663C101.388 19.9845 101.37 19.6099 101.334 19.1425C101.278 18.6765 101.196 18.1598 101.09 17.5926C100.962 17.0059 100.841 16.4552 100.729 15.9405C100.629 15.4563 100.504 14.906 100.352 14.2895C100.2 13.6625 100.077 13.2164 99.9835 12.951C99.9221 12.694 99.7776 12.3066 99.55 11.7889C99.3719 11.3724 99.2313 11.1048 99.1282 10.9861C99.0835 10.9472 98.9951 10.8851 98.8633 10.7996C98.7337 10.7452 98.6118 10.7217 98.4975 10.729C98.3919 10.7149 98.228 10.7567 98.0056 10.8544C97.7297 10.9347 97.4486 11.0832 97.1622 11.2998C96.875 11.506 96.559 11.8133 96.2141 12.2215C95.8189 12.6539 95.5568 12.9838 95.4279 13.2112C95.2951 13.3867 95.103 13.7434 94.8516 14.2813C94.6002 14.8193 94.3731 15.4705 94.1704 16.2349C93.9485 17.0215 93.8134 17.5781 93.7652 17.9047C93.7243 18.1891 93.6652 18.7148 93.588 19.4816C93.5428 20.2569 93.5161 20.7961 93.5079 21.0993C93.499 21.3921 93.502 21.7729 93.5169 22.2416C93.5318 22.7103 93.5468 23.0433 93.5619 23.2407C93.5651 23.2822 93.5738 23.3286 93.5882 23.3799C93.6026 23.4312 93.6261 23.534 93.6588 23.6885C93.6907 23.8326 93.6678 23.9436 93.5902 24.0217C93.523 24.099 93.4194 24.1787 93.2794 24.2607C93.1395 24.3427 92.9052 24.3525 92.5766 24.29C92.144 24.2342 91.8642 24.1269 91.7372 23.968C91.6093 23.7988 91.5926 23.6485 91.687 23.5172L91.7975 23.3223C91.7569 23.0639 91.719 22.842 91.6839 22.6563C91.6473 22.4499 91.5747 22.0475 91.4663 21.4491C91.3579 20.8507 91.2654 20.3922 91.1888 20.0735C91.1219 19.7438 91.0023 19.1357 90.83 18.2491C90.6578 17.3625 90.5466 16.7277 90.4965 16.3448C90.4479 15.9826 90.4001 15.6308 90.3532 15.2893C90.327 14.9466 90.2897 14.3228 90.2415 13.4178C90.1716 12.5038 90.1296 11.8176 90.1155 11.3593C90.1117 11.036 90.0811 10.7718 90.0236 10.5667L89.8679 10.1697C89.7873 9.93476 89.7966 9.71498 89.8959 9.51032ZM22.1533 49.8533L22.3618 50.1217C22.4545 50.241 22.6791 50.378 23.0357 50.5326C23.4386 50.7469 24.023 50.9443 24.7889 51.1249C25.5364 51.338 26.0629 51.4609 26.3683 51.4935C26.6842 51.5255 27.1703 51.5309 27.8268 51.5098C28.4209 51.4927 29.0439 51.3745 29.6957 51.1554C30.3675 50.9245 30.7826 50.7518 30.941 50.6373C31.0994 50.5228 31.3535 50.2248 31.7032 49.7432C32.0329 49.2733 32.249 48.8211 32.3516 48.3866C32.4407 47.9112 32.4757 47.5489 32.4566 47.2996C32.4384 47.0607 32.2428 46.4835 31.8699 45.5681C31.473 44.6124 31.1935 44.0301 31.0313 43.8213C30.8451 43.5723 30.5222 43.2433 30.0627 42.8344C29.6039 42.4358 29.1947 42.1384 28.835 41.9423C28.4969 41.7551 28.0835 41.6094 27.595 41.505C27.1057 41.3901 26.7571 41.3394 26.5492 41.3527C26.3517 41.3653 25.9442 41.501 25.3268 41.7597C24.7501 42.0053 24.2738 42.3333 23.8977 42.7435C23.4801 43.1564 23.2032 43.4977 23.0671 43.7673C22.9222 44.0584 22.7328 44.655 22.4988 45.5571C22.2448 46.471 22.1084 47.1477 22.0898 47.5872C22.0704 48.0164 22.0915 48.7717 22.1533 49.8533ZM22.2923 52.0831C22.3122 52.3428 22.3389 52.555 22.3723 52.7199C22.432 53.2275 22.5376 53.9253 22.689 54.8132C22.8452 55.7634 23.0018 56.651 23.1589 57.4759C23.3055 58.3015 23.4007 58.8642 23.4446 59.1641C23.4868 59.4432 23.5357 59.8106 23.5915 60.2662C23.6464 60.7115 23.6798 61.0121 23.6917 61.1679L23.7084 61.386C23.7266 61.6249 23.6537 61.833 23.4897 62.0105C23.3361 62.1874 23.1397 62.2834 22.9006 62.2987C22.6719 62.3134 22.4681 62.2429 22.289 62.0874C22.11 61.9318 22.0114 61.7346 21.9931 61.4957L21.9765 61.2776C21.9669 61.153 21.9351 60.8732 21.881 60.4383C21.8276 60.0138 21.7751 59.6675 21.7232 59.3995C21.681 59.1204 21.5866 58.568 21.4399 57.7424C21.2917 56.8961 21.141 56.0185 20.988 55.1099C20.8319 54.1596 20.7231 53.4203 20.6619 52.892C20.6117 52.509 20.5581 51.9436 20.5009 51.1958C20.4779 50.8946 20.4521 50.557 20.4235 50.1831C20.3675 48.9029 20.3504 47.996 20.3723 47.4623C20.3942 46.9286 20.5374 46.1366 20.8018 45.0864C21.0879 44.0453 21.3314 43.3356 21.5323 42.9575C21.742 42.5579 22.1029 42.086 22.615 41.5418C23.1463 40.9755 23.8266 40.5145 24.656 40.1588C25.4454 39.8264 26.0224 39.6538 26.3871 39.6409C26.7701 39.5956 27.291 39.6457 27.9498 39.7914C28.6086 39.9371 29.1886 40.1453 29.6899 40.4159C30.1599 40.6885 30.6594 41.074 31.1885 41.5725C31.7367 42.0488 32.1271 42.4413 32.3596 42.75C32.6457 43.0761 33.0143 43.7988 33.4655 44.918C33.9382 46.0463 34.1745 46.814 34.1742 47.221C34.2036 47.6053 34.1585 48.1092 34.039 48.7326C33.9043 49.4301 33.6057 50.1015 33.1431 50.7469C32.679 51.3715 32.2837 51.8039 31.9573 52.044C31.6702 52.2502 31.1095 52.5 30.2753 52.7935C29.4596 53.0544 28.6559 53.1998 27.8642 53.2295C27.135 53.2553 26.5752 53.2442 26.185 53.1961C25.8053 53.1473 25.1992 53.0087 24.367 52.7801C23.5147 52.5633 22.8231 52.331 22.2923 52.0831ZM48.605 48.4425C48.4868 48.2622 48.3637 48.0874 48.2359 47.9181C48.0721 47.6886 47.8871 47.4551 47.681 47.2178C47.4964 46.9896 47.072 46.6306 46.4078 46.1408C45.8195 45.6879 45.4347 45.4359 45.2532 45.3849C45.1029 45.3319 44.8266 45.3391 44.4244 45.4066C43.9805 45.4768 43.5927 45.5955 43.2607 45.7629C42.8872 45.9329 42.602 46.0973 42.4052 46.256C42.218 46.4036 42.0472 46.5607 41.8928 46.7271C41.7552 46.8403 41.5712 47.0974 41.3406 47.4983C41.0893 47.9005 40.9388 48.1868 40.8892 48.3569C40.8411 48.5479 40.7974 48.7959 40.758 49.1011C40.7394 49.405 40.7469 49.6394 40.7804 49.8042C40.7931 49.9704 40.8769 50.2468 41.0318 50.6335C41.1843 50.9891 41.3345 51.2456 41.4824 51.4032C41.6646 51.6002 41.8368 51.7353 41.9991 51.8085C42.1525 51.903 42.3164 51.9969 42.4907 52.0901C42.6745 52.1723 42.9636 52.2634 43.3577 52.3634C43.7087 52.4453 44.0093 52.4835 44.2596 52.4779C44.5403 52.4599 44.7714 52.4086 44.953 52.324C45.1577 52.2691 45.3652 52.1828 45.5756 52.0649C45.7964 51.9464 46.0207 51.8068 46.2487 51.6461C46.4263 51.5095 46.7552 51.1649 47.2352 50.6123C47.6834 50.0514 47.9538 49.6949 48.0467 49.5428C48.1379 49.37 48.2192 49.203 48.2904 49.0419C48.3937 48.8891 48.4985 48.6893 48.605 48.4425ZM50.1675 49.2036C50.0402 49.4518 49.9405 49.6512 49.8685 49.802C49.798 49.9735 49.6931 50.1733 49.5539 50.4014C49.4266 50.6496 49.0953 51.0987 48.56 51.7487C48.0143 52.3994 47.5878 52.8338 47.2806 53.0517C46.9935 53.258 46.6991 53.4386 46.3976 53.5936C46.1072 53.7583 45.8197 53.8915 45.5349 53.9932C45.219 54.0969 44.848 54.1624 44.4218 54.1897C43.9763 54.239 43.4814 54.1872 42.937 54.0342C42.4373 53.92 42.0571 53.7982 41.7965 53.6688C41.5471 53.5491 41.2961 53.4086 41.0435 53.2473C40.7917 53.0964 40.5288 52.868 40.2547 52.562C39.927 52.2385 39.659 51.8069 39.4506 51.267C39.2438 50.748 39.1125 50.3284 39.0567 50.0084C39.0129 49.7086 39.0115 49.3486 39.0525 48.9285C39.1047 48.5181 39.1713 48.159 39.2522 47.8511C39.3332 47.5432 39.5257 47.1239 39.8299 46.593C40.1356 46.0829 40.4149 45.7049 40.6677 45.4591C40.8925 45.2569 41.1337 45.064 41.3913 44.8805C41.6585 44.686 42.0073 44.4654 42.4376 44.2187C42.9311 43.9783 43.4973 43.8012 44.1363 43.6873C44.7864 43.583 45.3202 43.5959 45.7375 43.7257C46.1109 43.8271 46.708 44.1907 47.5288 44.8166C47.3731 44.4195 47.2494 44.0986 47.1575 43.854C47.005 43.4985 46.7882 43.0531 46.507 42.5179C46.2066 42.0049 45.9514 41.6037 45.7413 41.3145C45.5311 41.0252 45.2986 40.7844 45.0436 40.592C44.8422 40.417 44.4657 40.2063 43.9141 39.9598C43.3625 39.7132 42.8912 39.5608 42.5002 39.5023C42.0693 39.4672 41.7231 39.4476 41.4616 39.4435C41.2017 39.4601 40.9478 39.4868 40.6999 39.5235C40.4936 39.5576 40.1185 39.7069 39.5746 39.9713C39.1819 40.1634 38.9275 40.3206 38.8115 40.4428L38.6434 40.7041C38.5329 40.899 38.3602 41.0301 38.125 41.0973C37.8995 41.1535 37.6776 41.1207 37.4594 40.999C37.2508 40.8662 37.1117 40.6873 37.0423 40.4621C36.9825 40.2259 37.0234 40.0093 37.165 39.8123L37.3307 39.5199C37.5436 39.1619 38.0276 38.7969 38.7826 38.4251C39.4873 38.0773 40.0304 37.8703 40.4118 37.8042C40.7325 37.7628 41.0591 37.7314 41.3918 37.7102C41.7364 37.709 42.177 37.733 42.7135 37.7821C43.2724 37.8508 43.9036 38.0452 44.6071 38.3655C45.3106 38.6858 45.8305 38.9969 46.167 39.299C46.4915 39.5809 46.8088 39.905 47.1188 40.2713C47.4081 40.639 47.7112 41.1206 48.0283 41.7161C48.3558 42.3109 48.5982 42.8173 48.7555 43.2351C48.9112 43.6322 49.1216 44.198 49.3867 44.9325C49.6517 45.6671 49.8421 46.1767 49.9579 46.4616C50.0849 46.7561 50.203 47.0721 50.3124 47.4095C50.4314 47.7359 50.5168 47.9653 50.5687 48.0976L50.5711 48.1288C50.6877 48.2883 50.6744 48.524 50.5311 48.8359L50.1675 49.2036ZM56.1322 32.3207C56.7768 32.1438 57.8879 32.057 59.4656 32.0605C61.0424 32.0535 62.1559 31.9979 62.8061 31.8937C63.0148 31.8908 63.2619 31.8436 63.5474 31.7523C63.8321 31.6506 64.0757 31.5567 64.278 31.4707C64.49 31.3737 64.7227 31.3431 64.9761 31.3791C65.2392 31.404 65.4726 31.5195 65.6764 31.7257C65.6474 32.1659 65.6179 32.6009 65.5881 33.0307C64.9307 33.1772 64.1874 33.2926 63.3582 33.377C62.5289 33.4613 61.776 33.5199 61.0995 33.5528C60.4334 33.585 59.6858 33.6433 58.8565 33.7276C59.4487 34.2325 60.0234 34.7802 60.5804 35.3708C61.1477 35.9607 61.7159 36.6289 62.2848 37.3752C62.8641 38.121 63.3295 38.7435 63.6811 39.2429C64.0422 39.7312 64.5336 40.4199 65.1552 41.309C65.8375 42.3091 66.3804 43.6729 66.7841 45.4005C67.5365 46.9075 67.2287 48.759 65.8609 50.9548C65.339 52.0528 64.5932 52.9563 63.6237 53.6655C62.6541 54.3746 61.6061 54.6713 60.4795 54.5555C59.7503 54.4456 59.0431 54.2143 58.3581 53.8615C57.6842 53.5185 57.0771 53.0929 56.5369 52.5847C55.9966 52.0765 55.5188 51.4965 55.1034 50.8447C54.6879 50.1929 54.3697 49.5139 54.1486 48.8079C53.9275 48.1019 53.8092 47.3737 53.7936 46.6232C53.7772 45.8623 53.8836 45.1353 54.1127 44.4423C54.6523 43.3014 55.3793 42.2894 56.2938 41.4064C57.2074 40.5129 58.2369 39.8365 59.3822 39.377C60.2605 38.9764 61.2093 38.8165 62.2288 38.8974C61.7483 38.6255 61.2899 38.3 60.8536 37.9208C60.4276 37.541 59.9365 37.061 59.3803 36.4808C58.8233 35.8903 58.4321 35.4874 58.2067 35.2722C58.0813 35.1341 57.8719 34.9231 57.5786 34.6392C57.2957 34.3546 57.0691 34.1238 56.8989 33.9468C56.7279 33.7595 56.5633 33.5195 56.4052 33.2269C56.2462 32.924 56.1552 32.6219 56.1322 32.3207ZM55.42 46.5817C55.4876 47.3289 55.6747 48.0684 55.9813 48.8002C56.2983 49.5314 56.7046 50.1995 57.2 50.8045C57.6946 51.3991 58.2904 51.8828 58.9875 52.2557C59.6941 52.6175 60.4341 52.7998 61.2073 52.8025C61.4856 52.7534 61.7555 52.663 62.0171 52.5315C62.2794 52.4103 62.5098 52.2808 62.7082 52.1428C62.9066 52.0049 63.1118 51.8196 63.3238 51.5868C63.5462 51.3534 63.7239 51.1489 63.8567 50.9734C63.9999 50.7973 64.1648 50.5623 64.3513 50.2686C64.5369 49.9645 64.6758 49.7312 64.7679 49.5687C64.8695 49.3952 65.0072 49.1464 65.1809 48.8222C65.2457 48.7136 65.2917 48.6324 65.319 48.5785C65.3635 47.5215 65.1946 46.4729 64.8122 45.4328C64.4402 44.392 63.9051 43.2677 63.2069 42.0599C63.0375 41.7577 62.7898 41.523 62.4636 41.356C62.1471 41.178 61.7798 41.0188 61.3616 40.8786C60.9539 40.7377 60.6449 40.5904 60.4347 40.4369C59.9052 40.7526 59.4369 41.0487 59.0297 41.3253C58.6321 41.5907 58.1934 41.9319 57.7133 42.3488C57.2429 42.7547 56.8509 43.1607 56.5372 43.567C56.2331 43.9621 55.971 44.4277 55.7508 44.9637C55.5402 45.4886 55.4299 46.0279 55.42 46.5817ZM79.3377 50.9692C79.208 51.1862 79.0141 51.3134 78.7558 51.3508L78.2615 51.4451C77.8401 51.5347 77.3023 51.5378 76.6483 51.4544C76.0062 51.3911 75.4094 51.2362 74.8578 50.9897C74.3494 50.7613 73.9245 50.5328 73.5832 50.3041C73.2187 50.0456 72.7664 49.5945 72.2262 48.9506C71.6877 48.3275 71.3041 47.8198 71.0757 47.4273C70.856 47.0135 70.6533 46.275 70.4676 45.2118C70.2635 44.1812 70.1748 43.4301 70.2014 42.9588C70.252 42.5276 70.3799 41.9454 70.585 41.2121C70.7998 40.4677 71.0384 39.8315 71.301 39.3032C71.5732 38.764 71.8385 38.3399 72.0969 38.0312C72.3754 37.7107 72.7954 37.3289 73.357 36.8859C73.9601 36.4403 74.7032 36.1162 75.5861 35.9135C76.4482 35.7123 77.0835 35.6194 77.4921 35.635C77.8815 35.6727 78.4512 35.8137 79.2011 36.058C79.931 36.3139 80.4714 36.5507 80.8223 36.7683C81.1828 36.9749 81.5668 37.2843 81.9744 37.6966C82.382 38.1089 82.6828 38.4914 82.8769 38.8443C83.0934 39.2166 83.321 39.8022 83.5596 40.6011C83.7862 41.3798 83.9142 42.097 83.9434 42.7526C83.9902 43.3654 83.9987 43.8868 83.9689 44.3166C83.9598 44.7451 83.8643 45.3409 83.6824 46.104C83.502 46.8879 83.285 47.5333 83.0312 48.04C82.7478 48.5696 82.3581 49.0746 81.8621 49.5552C81.3661 50.0357 80.9625 50.359 80.6513 50.525C80.3602 50.6793 79.9223 50.8274 79.3377 50.9692ZM75.3757 49.3596C75.6213 49.1561 75.8936 49.0969 76.1926 49.1821L76.6903 49.3382C76.9565 49.4046 77.2472 49.4486 77.5622 49.4702C77.8652 49.4717 78.2739 49.4195 78.7881 49.3135C79.3023 49.2075 79.6394 49.1077 79.7994 49.014C79.9802 48.9189 80.2653 48.6867 80.655 48.3173C81.0358 47.9694 81.3163 47.607 81.4964 47.2302C81.6765 46.8534 81.8411 46.3419 81.9902 45.6957C82.1481 45.028 82.2356 44.5319 82.2526 44.2072C82.2679 43.8618 82.259 43.4032 82.2257 42.8312C82.1853 42.3015 82.0721 41.7086 81.8861 41.0526C81.7114 40.4062 81.5525 39.9676 81.4095 39.7367C81.2649 39.485 81.04 39.2071 80.7347 38.9031C80.4286 38.5887 80.1553 38.3609 79.9147 38.2198C79.6837 38.0676 79.2632 37.8962 78.6532 37.7056C78.0632 37.5033 77.6366 37.3897 77.3736 37.3647C77.1329 37.3593 76.6787 37.4301 76.0109 37.5772C75.3847 37.7216 74.8545 37.9591 74.4201 38.2896C73.9561 38.6428 73.6377 38.9189 73.4649 39.1178C73.2936 39.3375 73.0943 39.6686 72.867 40.1111C72.6388 40.5432 72.429 41.0784 72.2376 41.7169C72.0557 42.3443 71.9559 42.8152 71.9381 43.1294C71.9195 43.4333 71.986 44.0292 72.1374 44.9171C72.308 45.7829 72.4716 46.3517 72.6282 46.6235C72.7759 46.9167 73.0732 47.3204 73.5199 47.8345C73.9673 48.3591 74.313 48.7127 74.5568 48.8954C74.7678 49.0593 75.0407 49.2141 75.3757 49.3596ZM86.9339 35.751C87.0324 35.536 87.1884 35.3903 87.402 35.314C87.6259 35.2371 87.8462 35.2491 88.0628 35.35C88.2899 35.4503 88.4429 35.6075 88.5219 35.8216L88.6812 36.2655C88.8145 36.6431 88.8798 37.0877 88.8772 37.5993C88.8889 38.0265 88.9289 38.6867 88.9972 39.5799C89.043 40.4537 89.0779 41.0464 89.1017 41.358C89.1471 41.6786 89.1941 42.0201 89.2426 42.3822C89.2522 42.5069 89.2749 42.6672 89.3107 42.8632C89.3757 42.619 89.453 42.3323 89.5427 42.003C89.7599 41.1541 90.0118 40.4178 90.2984 39.7941C90.5954 39.1698 90.8432 38.7208 91.0416 38.4471C91.2089 38.1755 91.4994 37.8073 91.913 37.3424C92.3643 36.823 92.7931 36.4198 93.1995 36.1329C93.6043 35.8252 94.0054 35.6064 94.4029 35.4766C94.8196 35.3247 95.1899 35.2488 95.5137 35.249C95.8584 35.2478 96.2249 35.3287 96.6135 35.4917C96.9916 35.6554 97.2729 35.8514 97.4575 36.0796C97.6189 36.278 97.8542 36.6909 98.1633 37.3182C98.4164 37.897 98.5925 38.3554 98.6914 38.6935C98.78 39.0322 98.9005 39.5151 99.0528 40.142C99.1127 40.3782 99.1765 40.5985 99.2444 40.8029C99.3413 40.4314 99.5275 39.9289 99.803 39.2955C100.111 38.5452 100.349 38.0342 100.516 37.7626C100.683 37.4806 100.914 37.1527 101.209 36.7789C101.543 36.3713 101.839 36.0706 102.096 35.8768C102.361 35.6511 102.681 35.474 103.058 35.3455C103.558 35.1883 104.083 35.2277 104.634 35.4639C105.163 35.6909 105.587 36.0396 105.905 36.5098C106.123 36.9029 106.29 37.2418 106.406 37.5266C106.489 37.8031 106.625 38.3424 106.811 39.1445C107.02 39.9661 107.155 40.5681 107.216 40.9504C107.286 41.3216 107.391 41.8785 107.531 42.621C107.651 43.3648 107.751 43.9899 107.831 44.4962C107.912 45.0024 107.972 45.51 108.01 46.019C108.068 46.5058 108.122 46.9303 108.17 47.2925C108.219 47.6547 108.26 47.9182 108.293 48.0831L108.345 48.3459C108.384 48.5835 108.337 48.7952 108.205 48.9811C108.073 49.167 107.889 49.2779 107.651 49.314C107.424 49.3494 107.211 49.3004 107.013 49.167C106.824 49.0225 106.701 48.8373 106.642 48.6115L106.624 48.3778C106.589 48.1922 106.536 47.9085 106.465 47.5269C106.415 47.1439 106.354 46.6886 106.282 46.1609C106.245 45.6727 106.187 45.1859 106.108 44.7004C106.029 44.2149 105.931 43.6158 105.814 42.9031C105.696 42.1801 105.601 41.6277 105.53 41.2461C105.461 40.8852 105.329 40.3145 105.133 39.5337C104.948 38.7524 104.816 38.2598 104.738 38.0561C104.684 37.8925 104.584 37.6745 104.437 37.4021C104.342 37.2412 104.191 37.1204 103.987 37.0395C103.835 36.9658 103.728 36.9413 103.668 36.966C103.484 37.0195 103.328 37.1026 103.201 37.2151C103.023 37.3517 102.815 37.5685 102.577 37.8656C102.298 38.1861 102.1 38.4545 101.98 38.6709C101.86 38.8769 101.659 39.3177 101.376 39.9933C101.093 40.6585 100.92 41.1289 100.857 41.4042C100.797 41.7107 100.717 42.1699 100.618 42.7816C100.528 43.3823 100.466 44.002 100.431 44.6409C100.382 45.3746 100.353 45.8149 100.344 45.9616C100.32 46.2031 100.276 46.5087 100.21 46.8782C100.155 47.247 100.113 47.5159 100.084 47.6847C100.063 47.686 100.043 47.6978 100.024 47.7199C100.004 47.742 99.9597 47.7709 99.8893 47.8067C99.8189 47.8426 99.7433 47.8787 99.6625 47.9152C99.5921 47.951 99.5061 47.9878 99.4046 48.0256C99.303 48.0634 99.2058 48.0905 99.1131 48.1069C99.0307 48.1226 98.9479 48.1331 98.8648 48.1384C98.7816 48.1438 98.7024 48.1332 98.6273 48.1067C98.5521 48.0802 98.4862 48.0374 98.4295 47.9784C98.3831 47.9188 98.356 47.837 98.348 47.7331C98.3353 47.567 98.3234 47.479 98.3122 47.4693C98.3002 47.4492 98.303 47.4177 98.3207 47.3748C98.3383 47.3319 98.3595 47.268 98.3843 47.1829C98.4116 46.9933 98.4258 46.768 98.4267 46.507C98.4261 46.2252 98.4079 45.8506 98.3722 45.3832C98.3157 44.9172 98.2344 44.4005 98.1284 43.8333C98 43.2466 97.8795 42.6959 97.7671 42.1812C97.6674 41.697 97.5418 41.1467 97.3902 40.5302C97.2378 39.9032 97.115 39.4571 97.0215 39.1917C96.9601 38.9347 96.8156 38.5473 96.588 38.0296C96.4099 37.6131 96.2694 37.3455 96.1663 37.2268C96.1215 37.188 96.0332 37.1258 95.9013 37.0403C95.7718 36.9859 95.6499 36.9624 95.5355 36.9697C95.43 36.9556 95.266 36.9974 95.0437 37.0951C94.7678 37.1754 94.4866 37.3239 94.2002 37.5405C93.9131 37.7468 93.597 38.054 93.2522 38.4622C92.8569 38.8946 92.5948 39.2245 92.466 39.4519C92.3331 39.6274 92.141 39.9841 91.8896 40.5221C91.6383 41.06 91.4112 41.7112 91.2085 42.4756C90.9865 43.2622 90.8515 43.8188 90.8033 44.1454C90.7624 44.4298 90.7033 44.9555 90.6261 45.7223C90.5809 46.4976 90.5542 47.0368 90.546 47.34C90.537 47.6328 90.54 48.0136 90.5549 48.4823C90.5699 48.951 90.5849 49.284 90.6 49.4814C90.6031 49.5229 90.6119 49.5693 90.6263 49.6206C90.6406 49.6719 90.6642 49.7747 90.6969 49.9292C90.7288 50.0733 90.7059 50.1843 90.6283 50.2624C90.5611 50.3397 90.4575 50.4194 90.3175 50.5014C90.1775 50.5834 89.9432 50.5932 89.6146 50.5308C89.1821 50.4749 88.9023 50.3676 88.7752 50.2087C88.6474 50.0395 88.6307 49.8892 88.7251 49.7579L88.8356 49.563C88.7949 49.3046 88.7571 49.0827 88.722 48.897C88.6853 48.6906 88.6128 48.2882 88.5044 47.6898C88.396 47.0914 88.3035 46.6329 88.2269 46.3142C88.1599 45.9845 88.0403 45.3764 87.8681 44.4898C87.6959 43.6032 87.5847 42.9684 87.5346 42.5855C87.486 42.2233 87.4382 41.8715 87.3912 41.5301C87.365 41.1873 87.3278 40.5635 87.2795 39.6585C87.2097 38.7445 87.1677 38.0583 87.1536 37.6C87.1498 37.2767 87.1191 37.0125 87.0617 36.8075L86.906 36.4104C86.8253 36.1755 86.8347 35.9557 86.9339 35.751ZM110.218 33.494C110.201 33.2655 110.205 33.0408 110.23 32.8201C110.265 32.5986 110.327 32.3807 110.415 32.1663C110.503 31.952 110.642 31.7917 110.832 31.6856C111.033 31.5788 111.271 31.5531 111.547 31.6085C111.635 32.2083 111.711 33.2002 111.775 34.5842C111.848 35.9572 111.919 36.9443 111.985 37.5454C112.121 37.6828 112.325 37.8941 112.598 38.1794C113.018 37.9333 113.691 37.5823 114.617 37.1265C116.492 36.7769 117.993 36.6704 119.121 36.8069C119.582 37.101 119.912 37.3147 120.11 37.4482C120.309 37.5816 120.591 37.7879 120.957 38.0672C121.322 38.3361 121.625 38.6089 121.865 38.8858C122.105 39.1522 122.315 39.4415 122.496 39.7535C122.611 40.0279 122.697 40.3355 122.754 40.6763C122.811 41.0066 122.838 41.2919 122.835 41.5322C122.843 41.7613 122.842 42.0902 122.833 42.5187C122.833 42.9361 122.834 43.2283 122.837 43.3951C122.285 44.3698 121.526 45.1802 120.563 45.8264C119.598 46.4621 118.582 46.9081 117.515 47.1642C116.448 47.41 115.333 47.5178 114.171 47.4878C113.822 47.4267 113.505 47.3217 113.222 47.1728C112.939 47.0239 112.695 46.8308 112.489 46.5935C112.282 46.3458 112.101 46.0964 111.946 45.8454C111.801 45.5938 111.669 45.2943 111.548 44.9472C111.428 44.6 111.331 44.2931 111.258 44.0264C111.186 43.7597 111.11 43.4514 111.031 43.1016C110.526 39.7731 110.255 36.5706 110.218 33.494ZM112.543 40.3277C112.646 42.2207 112.764 43.6378 112.899 44.579C113.008 44.645 113.176 44.7856 113.401 45.0008C113.626 45.2056 113.836 45.3644 114.033 45.477C114.23 45.5897 114.442 45.6387 114.671 45.6241C115.361 45.6321 116.031 45.5788 116.68 45.4642C117.339 45.3386 117.983 45.146 118.61 44.8867C119.249 44.6267 119.795 44.2525 120.248 43.7643C120.711 43.2649 121.027 42.6759 121.194 41.9972C121.143 41.4578 121.102 41.0586 121.072 40.7996C121.024 40.7192 120.928 40.5583 120.784 40.317C120.639 40.0654 120.543 39.8993 120.495 39.8189C119.973 39.2782 119.349 38.8955 118.621 38.6707C117.904 38.4452 117.183 38.3765 116.459 38.4646C115.733 38.5423 115.023 38.7444 114.327 39.0707C113.641 39.3964 113.047 39.8154 112.543 40.3277ZM124.818 30.775C124.914 30.8002 125.037 30.8393 125.188 30.8923C125.348 30.9342 125.519 30.9859 125.701 31.0473C125.893 31.0977 126.026 31.1309 126.1 31.147C126.454 32.6377 126.735 34.2532 126.941 35.9935C127.146 37.7233 127.277 39.3066 127.335 40.7433C127.392 42.1695 127.423 43.8062 127.428 45.6532C127.16 45.7017 126.538 45.8354 125.563 46.0544C125.498 45.2027 125.47 44.3642 125.48 43.5391C125.637 42.5793 125.702 41.5209 125.676 40.3641C125.651 39.2072 125.564 38.1429 125.417 37.1712C125.28 36.1989 125.152 35.1373 125.032 33.9864C124.912 32.8251 124.841 31.7547 124.818 30.775ZM26.2914 66.481C26.0427 66.5074 25.8245 66.4535 25.6366 66.3194C25.4584 66.1742 25.355 65.9826 25.3263 65.7443C25.2969 65.4957 25.3641 65.2827 25.5282 65.1052L25.8391 64.6626C26.0775 64.3655 26.4112 63.9476 26.8401 63.4087C27.3074 62.8256 27.8027 62.3347 28.3258 61.9359C28.849 61.5371 29.3005 61.2943 29.6804 61.2074C30.0795 61.0983 30.7159 61.1568 31.5898 61.3826C32.4221 61.6112 33.0328 61.88 33.4221 62.1891C33.7897 62.4891 34.2008 63.0838 34.6553 63.9732C35.1066 64.8211 35.3728 65.5712 35.454 66.2235C35.5687 66.905 35.536 67.5699 35.3557 68.2181C35.2443 68.674 35.1101 69.0375 34.9533 69.3084C35.1483 69.4003 35.3286 69.5036 35.494 69.6182C35.793 69.8392 36.147 70.234 36.556 70.8027C36.9651 71.3715 37.2631 71.9213 37.4499 72.452C37.6567 72.9711 37.7647 73.5643 37.7739 74.2317C37.7847 74.9199 37.7197 75.4355 37.5787 75.7785C37.437 76.1111 37.1361 76.5478 36.676 77.0887C36.2247 77.6081 35.5772 78.0879 34.7333 78.5281C33.9103 78.9669 33.2672 79.2325 32.8042 79.3247C32.3188 79.3975 31.556 79.3263 30.5158 79.1111C29.4964 78.8945 28.7693 78.6749 28.3344 78.4522C27.9755 78.2664 27.5163 77.9983 26.9567 77.648C26.3764 77.2989 25.9859 77.0421 25.7853 76.8775C25.5056 76.6345 25.2795 76.3411 25.107 75.9972L24.9213 75.6177C24.8198 75.3842 24.8024 75.1557 24.8689 74.9322C24.9354 74.7088 25.0746 74.5485 25.2866 74.4515C25.5081 74.3434 25.732 74.3343 25.9583 74.4242C26.1941 74.503 26.3615 74.6436 26.4606 74.846L26.6463 75.2255C26.7198 75.367 26.7953 75.4665 26.8728 75.5242C27.0071 75.6408 27.332 75.8601 27.8475 76.182C28.3847 76.5129 28.8216 76.7615 29.1581 76.9279C29.4307 77.0774 29.9867 77.2454 30.8262 77.4317C31.6737 77.5862 32.2266 77.6448 32.4849 77.6074C32.764 77.5686 33.2395 77.366 33.9114 76.9994C34.5433 76.6563 35.0276 76.2966 35.3645 75.9201C35.7006 75.5333 35.8942 75.2652 35.9455 75.1158C36.0175 74.9651 36.0473 74.671 36.0347 74.2334C36.0198 73.7647 35.9573 73.3564 35.8471 73.0086C35.7154 72.6517 35.4809 72.2492 35.1438 71.8012C34.8289 71.3725 34.5936 71.0953 34.4378 70.9696C34.3275 70.8932 34.044 70.8069 33.5875 70.7109C33.4596 70.6773 33.3325 70.6542 33.2061 70.6414C32.8118 70.8127 32.4847 70.9067 32.2249 70.9233C31.7778 70.9519 31.5428 70.8156 31.5198 70.5144C31.496 70.2028 31.5817 69.8895 31.777 69.5743L32.052 69.0714C32.2863 68.9937 32.5282 68.947 32.7777 68.931C32.9793 68.8346 33.1445 68.7405 33.2732 68.6488C33.334 68.624 33.3732 68.5902 33.3908 68.5473C33.4661 68.4381 33.5658 68.1708 33.69 67.7454C33.803 67.3102 33.8332 66.8856 33.7806 66.4715C33.7033 66.0068 33.487 65.4309 33.1315 64.7439C32.7777 64.0777 32.5113 63.6668 32.3322 63.5113C32.1324 63.3571 31.7443 63.1993 31.1679 63.0378C30.6458 62.9043 30.3024 62.8532 30.1376 62.8846C29.9745 62.9368 29.7197 63.0888 29.3733 63.3405C28.9878 63.6261 28.5997 64.0163 28.2092 64.5109C27.7803 65.0498 27.4466 65.4678 27.2082 65.7648L26.8625 66.1627C26.7297 66.3382 26.5393 66.4443 26.2914 66.481ZM46.8543 70.8483C46.6649 70.6934 46.561 70.4965 46.5428 70.2577C46.5237 70.0084 46.591 69.7953 46.7446 69.6185C46.9079 69.4306 47.1038 69.3294 47.3325 69.3147L48.0342 69.2698C48.4604 69.2426 48.7611 69.2129 48.9363 69.1808C49.0818 69.1715 49.2941 69.1475 49.5732 69.1087C49.6037 68.9607 49.6337 68.8074 49.6634 68.649C50.016 67.3844 50.3472 66.2516 50.6573 65.2507C50.9673 64.2498 51.234 63.4342 51.4575 62.8041C51.6705 62.1747 51.8972 61.5183 52.1375 60.835C52.2568 60.4829 52.3745 60.1779 52.4906 59.92C52.2355 59.999 51.9856 60.0776 51.7409 60.1559C51.1626 60.3807 50.4356 60.6412 49.5599 60.9373C48.6833 61.223 48.0347 61.4158 47.6141 61.5158C47.1926 61.6054 46.61 61.7053 45.8663 61.8155C45.121 61.905 44.3697 61.9843 43.6125 62.0537C42.8224 62.1042 42.2966 62.1274 42.0352 62.1233C41.8673 62.1132 41.663 62.1054 41.4223 62.0999L41.048 62.1238C40.8074 62.1184 40.5971 62.0327 40.4173 61.8667C40.2471 61.6898 40.1636 61.4863 40.167 61.2565C40.1799 61.0156 40.2688 60.8116 40.4336 60.6445C40.5976 60.467 40.8 60.381 41.0406 60.3865L41.3861 60.3957C41.646 60.3791 41.8858 60.3742 42.1057 60.381C42.2736 60.3911 42.7214 60.3729 43.4491 60.3263C44.196 60.2577 44.9161 60.1803 45.6094 60.0942C46.3115 59.9866 46.8481 59.9001 47.2192 59.8346C47.5783 59.749 48.1749 59.5595 49.0091 59.2661C49.8664 59.0025 50.5742 58.7641 51.1325 58.5509C51.7107 58.3261 52.2758 58.1333 52.8276 57.9728C52.9299 57.9454 53.0803 57.9305 53.2786 57.9283C53.4873 57.9254 53.7192 57.9523 53.9742 58.009C54.2397 58.0651 54.4275 58.1992 54.5377 58.4113C54.6575 58.6124 54.6638 58.899 54.5564 59.2712C54.4355 59.6025 54.3366 59.8802 54.2597 60.1043C54.1828 60.3284 54.0234 60.7717 53.7815 61.4343C53.5389 62.0865 53.3058 62.7276 53.0824 63.3577C52.8685 63.9768 52.6066 64.7867 52.2966 65.7877C52.001 66.7042 51.7041 67.7408 51.406 68.8975C51.5931 68.8856 51.807 68.8823 52.0477 68.8878C52.5171 68.8786 52.9193 68.9468 53.2542 69.0924L53.566 69.276C53.761 69.3679 53.8989 69.5312 53.9795 69.7661C54.0593 69.9907 54.05 70.2104 53.9515 70.4255C53.8523 70.6301 53.6855 70.7713 53.4511 70.8489C53.2272 70.9258 53.0013 70.909 52.7735 70.7983L52.4809 70.6605C52.4154 70.6229 52.2942 70.6098 52.1175 70.6211C51.7937 70.621 51.4974 70.6399 51.2287 70.678C51.1455 70.6833 51.052 70.6893 50.948 70.6959C50.8542 71.109 50.7781 71.4113 50.7196 71.6029C50.629 72.0575 50.5095 72.681 50.3611 73.4733C50.2223 74.2545 50.1341 74.8081 50.0963 75.1341C50.0362 75.4406 49.9699 75.8727 49.8977 76.4305C49.8166 77.0098 49.7724 77.3883 49.7651 77.5662L49.7553 77.8487C49.7528 78.0889 49.6583 78.288 49.4719 78.4461C49.2959 78.6034 49.0876 78.6794 48.8469 78.6739C48.6166 78.6678 48.4163 78.5762 48.2461 78.3992C48.0855 78.2112 48.0173 78.0016 48.0414 77.7705L48.0499 77.4725C48.0525 77.2322 48.0991 76.817 48.1898 76.2267C48.2485 75.628 48.3067 75.1598 48.3645 74.8222C48.4231 74.4949 48.5213 73.9354 48.6593 73.1438C48.8069 72.3411 48.9312 71.7121 49.0322 71.2569C49.0451 71.1517 49.0675 71.0354 49.0996 70.9082C48.8933 70.9422 48.5822 70.9726 48.1664 70.9992L47.4959 71.0421C47.2568 71.0574 47.0429 70.9928 46.8543 70.8483ZM81.192 63.5473C80.8058 63.5512 80.4973 63.9571 80.2666 64.7651C78.6647 69.366 77.4255 72.4929 76.549 74.1459C76.4554 74.2876 76.3405 74.4932 76.2044 74.7629C75.8562 75.5366 75.5099 76.2007 75.1658 76.755C74.8336 77.3294 74.5719 77.7323 74.3807 77.9638C74.1934 78.2471 74.053 78.3918 73.9594 78.3978C73.6476 78.4177 73.4273 78.3379 73.2987 78.1582C73.1612 78 73.0762 77.708 73.0437 77.2822C73.0016 76.7317 73.4139 75.9069 74.2805 74.8077C75.1824 73.4871 76.2732 71.2881 77.5527 68.2108C78.7969 65.3549 79.7871 62.797 80.5233 60.5373C80.5979 60.1463 80.7287 59.9448 80.9158 59.9329C81.0198 59.9262 81.2432 59.9798 81.5862 60.0935C81.8788 60.2313 82.0614 60.3658 82.1341 60.4968C82.2571 60.7394 82.55 61.7018 83.0129 63.3839C83.8562 66.628 84.6891 69.1892 85.5117 71.0675C86.3437 73.0704 87.1762 74.3948 88.009 75.0408C88.3168 75.2403 88.499 75.3695 88.5557 75.4285C88.5765 75.4272 88.5865 75.4213 88.5857 75.411C88.6103 75.7329 88.555 76.0339 88.4197 76.314C88.2844 76.594 88.1516 76.7695 88.0212 76.8404C87.8812 76.9225 87.5409 76.9808 87.0004 77.0154C86.759 76.8638 86.2971 76.3559 85.6147 75.4915C84.7845 74.4696 83.6983 71.5332 82.3561 66.6823C82.0146 65.3577 81.7428 64.4671 81.5408 64.0103L81.4115 63.5489L81.192 63.5473ZM92.9611 67.2561C93.1066 67.2468 93.253 67.2479 93.4001 67.2594C93.5664 67.2487 93.9158 67.242 94.4484 67.2393C94.9905 67.2254 95.3812 67.2109 95.6203 67.1956C95.8593 67.1803 96.0873 67.1553 96.304 67.1205C96.5199 67.0754 96.9261 66.992 97.5227 66.8703C98.1105 66.7701 98.486 66.6939 98.6491 66.6417C98.8227 66.5888 99.0606 66.4901 99.3629 66.3455C99.6357 66.2237 99.8117 66.1342 99.8908 66.0769C99.9485 66.0106 100.03 65.9115 100.135 65.7795C100.211 65.6911 100.275 65.567 100.325 65.4072C100.374 65.2163 100.405 65.0786 100.419 64.9942C100.413 64.9111 100.367 64.7209 100.282 64.4237C100.196 64.1265 100.13 63.9377 100.082 63.8572C100.013 63.7781 99.8722 63.6462 99.6597 63.4615C99.4567 63.2658 99.2532 63.1327 99.0494 63.0622C98.8008 62.9529 98.5861 62.8779 98.4054 62.8373C98.2239 62.7863 97.9185 62.7536 97.4891 62.7394C97.0789 62.703 96.7403 62.7142 96.4732 62.7731C96.2149 62.8105 95.9146 62.9132 95.5722 63.0812C95.2291 63.2388 94.9879 63.3639 94.8488 63.4563C94.7112 63.5694 94.5179 63.7749 94.2691 64.0726C94.0194 64.36 93.7877 64.7453 93.574 65.2287C93.3306 65.7348 93.186 66.0989 93.1403 66.321C93.0907 66.4912 93.0309 66.8029 92.9611 67.2561ZM91.1041 67.7664C91.133 67.5975 91.1607 67.4131 91.1872 67.2131C91.2843 66.5702 91.3793 66.1049 91.4722 65.8172C91.5547 65.5301 91.7353 65.0906 92.0139 64.4987C92.3117 63.8847 92.6227 63.3743 92.9467 62.9674C93.262 62.5819 93.5328 62.2984 93.7592 62.117C94.0048 61.9134 94.36 61.708 94.8247 61.5008C95.299 61.2826 95.7472 61.1339 96.1695 61.0547C96.5717 60.9872 97.0403 60.9677 97.5753 60.9961C98.1102 61.0244 98.5164 61.0767 98.7938 61.1529C99.0704 61.2187 99.3754 61.314 99.7088 61.4388C100.087 61.6025 100.445 61.8405 100.782 62.1529C101.151 62.4737 101.396 62.7347 101.515 62.9357C101.656 63.1355 101.802 63.4758 101.954 63.9566C102.095 64.4381 102.164 64.799 102.162 65.0392C102.159 65.269 102.102 65.5597 101.994 65.9111C101.876 66.2839 101.723 66.6068 101.535 66.8798C101.343 67.1008 101.163 67.2793 100.996 67.4152C100.818 67.5518 100.518 67.7224 100.095 67.9269C99.7198 68.0761 99.4155 68.1948 99.1819 68.2828C98.958 68.3597 98.5217 68.4607 97.8732 68.5857C97.2662 68.708 96.8284 68.7882 96.5597 68.8263C96.291 68.8644 96.0215 68.892 95.7512 68.9093C95.5121 68.9246 95.1111 68.9399 94.5482 68.955C93.9852 68.9702 93.615 68.9782 93.4375 68.9791C93.2704 68.9794 93.114 68.9842 92.9685 68.9935C92.9061 68.9975 92.8282 69.0024 92.7346 69.0084C92.7265 69.1759 92.718 69.3383 92.7091 69.4954C92.7042 69.7044 92.7504 70.1033 92.8476 70.692C92.944 71.2703 93.0202 71.6516 93.076 71.8359C93.1335 72.041 93.2173 72.2496 93.3275 72.4617C93.4042 72.6447 93.5624 72.9372 93.802 73.3394C94.0169 73.6909 94.2199 73.9545 94.4109 74.1302C94.637 74.3558 94.8321 74.5155 94.9959 74.6094C95.1286 74.7053 95.3936 74.824 95.7909 74.9656C96.1899 75.1279 96.5436 75.2462 96.8522 75.3204C97.16 75.3842 97.5123 75.4138 97.9089 75.4093C98.3383 75.4236 98.6301 75.4154 98.7845 75.3846C98.9092 75.3766 99.148 75.2883 99.5007 75.1196C99.8134 74.9743 100.019 74.862 100.117 74.7827C100.215 74.6929 100.301 74.5883 100.375 74.4687C100.45 74.3491 100.554 74.1338 100.686 73.8226C100.807 73.4913 100.892 73.2354 100.941 73.0548C100.989 72.8638 101.029 72.6943 101.059 72.5463L101.102 72.293C101.126 72.0515 101.231 71.862 101.419 71.7248C101.618 71.5868 101.833 71.5313 102.065 71.5582C102.307 71.5845 102.498 71.6975 102.639 71.8972C102.789 72.0859 102.852 72.2958 102.828 72.527L102.788 72.827C102.742 73.0387 102.681 73.2722 102.607 73.5275C102.542 73.7717 102.431 74.0919 102.273 74.4882C102.117 74.9052 101.963 75.2229 101.813 75.4413C101.672 75.6486 101.509 75.8417 101.324 76.0205C101.131 76.2208 100.777 76.4469 100.264 76.699C99.7479 76.9198 99.3508 77.0548 99.0726 77.104C98.8143 77.1414 98.4288 77.1556 97.9163 77.1466C97.3829 77.139 96.9092 77.091 96.495 77.0027C96.0801 76.904 95.6412 76.7651 95.1783 76.586C94.6715 76.3784 94.2922 76.1991 94.0404 76.0482C93.8198 75.8954 93.5576 75.6773 93.2539 75.3941C92.9278 75.0914 92.6206 74.6935 92.3322 74.2006C92.0366 73.7498 91.8365 73.3869 91.7319 73.1118C91.6081 72.8588 91.5055 72.6096 91.4241 72.3643C91.3403 72.0879 91.2414 71.6141 91.1275 70.943C91.0231 70.2608 90.9754 69.7733 90.9844 69.4805C90.9837 69.1987 90.9935 68.9163 91.0136 68.6332C91.0089 68.5709 91.0145 68.5079 91.0305 68.4443C91.0258 68.382 91.0218 68.33 91.0186 68.2885C90.9843 68.1132 91.0128 67.9392 91.1041 67.7664ZM105.428 60.6188C105.527 60.4038 105.683 60.2581 105.896 60.1818C106.12 60.1049 106.34 60.1169 106.557 60.2178C106.784 60.3181 106.937 60.4753 107.016 60.6894L107.175 61.1332C107.309 61.5109 107.374 61.9555 107.371 62.4671C107.383 62.8943 107.423 63.5545 107.491 64.4477C107.537 65.3215 107.572 65.9142 107.596 66.2258C107.641 66.5464 107.688 66.8878 107.737 67.25C107.746 67.3747 107.769 67.535 107.805 67.731C107.87 67.4868 107.947 67.2 108.037 66.8707C108.254 66.0219 108.506 65.2856 108.793 64.6619C109.09 64.0375 109.337 63.5885 109.536 63.3149C109.703 63.0433 109.994 62.675 110.407 62.2102C110.859 61.6908 111.287 61.2876 111.694 61.0007C112.098 60.693 112.5 60.4742 112.897 60.3444C113.314 60.1925 113.684 60.1166 114.008 60.1168C114.353 60.1156 114.719 60.1965 115.108 60.3595C115.486 60.5232 115.767 60.7192 115.952 60.9474C116.113 61.1458 116.348 61.5587 116.657 62.186C116.911 62.7647 117.087 63.2231 117.186 63.5612C117.274 63.9 117.395 64.3828 117.547 65.0098C117.607 65.246 117.671 65.4663 117.739 65.6707C117.836 65.2992 118.022 64.7967 118.297 64.1633C118.605 63.413 118.843 62.902 119.01 62.6304C119.177 62.3484 119.408 62.0205 119.703 61.6467C120.038 61.2391 120.333 60.9384 120.59 60.7445C120.855 60.5189 121.176 60.3418 121.552 60.2133C122.052 60.0561 122.577 60.0955 123.128 60.3316C123.657 60.5587 124.081 60.9073 124.399 61.3775C124.617 61.7706 124.784 62.1096 124.9 62.3944C124.984 62.6709 125.119 63.2102 125.305 64.0123C125.515 64.8339 125.649 65.4359 125.71 65.8182C125.78 66.1894 125.885 66.7463 126.026 67.4888C126.145 68.2326 126.245 68.8577 126.326 69.3639C126.406 69.8702 126.466 70.3778 126.505 70.8868C126.563 71.3736 126.616 71.7981 126.665 72.1603C126.713 72.5225 126.754 72.786 126.788 72.9509L126.839 73.2137C126.878 73.4513 126.832 73.663 126.7 73.8489C126.568 74.0348 126.383 74.1457 126.145 74.1818C125.918 74.2172 125.705 74.1682 125.507 74.0348C125.319 73.8903 125.195 73.7051 125.136 73.4793L125.118 73.2456C125.083 73.0599 125.03 72.7763 124.959 72.3947C124.909 72.0117 124.848 71.5564 124.776 71.0287C124.739 70.5405 124.681 70.0537 124.602 69.5682C124.523 69.0827 124.425 68.4836 124.308 67.7709C124.19 67.0479 124.095 66.4955 124.024 66.1139C123.955 65.753 123.823 65.1822 123.627 64.4015C123.442 63.6201 123.311 63.1276 123.232 62.9238C123.178 62.7603 123.078 62.5423 122.932 62.2699C122.836 62.109 122.685 61.9882 122.481 61.9073C122.329 61.8336 122.223 61.809 122.162 61.8338C121.978 61.8873 121.822 61.9703 121.695 62.0829C121.518 62.2195 121.309 62.4363 121.071 62.7334C120.793 63.0539 120.594 63.3223 120.474 63.5387C120.354 63.7447 120.153 64.1855 119.87 64.8611C119.587 65.5263 119.414 65.9966 119.351 66.272C119.291 66.5785 119.211 67.0377 119.112 67.6494C119.022 68.25 118.96 68.8698 118.925 69.5087C118.877 70.2424 118.848 70.6826 118.838 70.8294C118.815 71.0709 118.77 71.3765 118.704 71.746C118.649 72.1148 118.607 72.3837 118.578 72.5525C118.557 72.5538 118.537 72.5655 118.518 72.5876C118.499 72.6097 118.454 72.6387 118.383 72.6745C118.313 72.7103 118.237 72.7465 118.157 72.783C118.086 72.8188 118 72.8556 117.899 72.8934C117.797 72.9312 117.7 72.9583 117.607 72.9747C117.525 72.9904 117.442 73.0009 117.359 73.0062C117.276 73.0115 117.197 73.001 117.121 72.9745C117.046 72.948 116.98 72.9052 116.924 72.8462C116.877 72.7866 116.85 72.7048 116.842 72.6009C116.83 72.4347 116.818 72.3468 116.806 72.3371C116.794 72.317 116.797 72.2855 116.815 72.2426C116.832 72.1997 116.854 72.1357 116.879 72.0507C116.906 71.861 116.92 71.6357 116.921 71.3747C116.92 71.093 116.902 70.7184 116.866 70.251C116.81 69.785 116.729 69.2683 116.623 68.701C116.494 68.1143 116.374 67.5637 116.261 67.049C116.162 66.5648 116.036 66.0145 115.884 65.3979C115.732 64.771 115.609 64.3249 115.516 64.0595C115.454 63.8025 115.31 63.4151 115.082 62.8974C114.904 62.4809 114.764 62.2133 114.66 62.0946C114.616 62.0557 114.527 61.9935 114.395 61.9081C114.266 61.8537 114.144 61.8302 114.03 61.8375C113.924 61.8234 113.76 61.8652 113.538 61.9629C113.262 62.0432 112.981 62.1917 112.694 62.4083C112.407 62.6145 112.091 62.9218 111.746 63.33C111.351 63.7624 111.089 64.0922 110.96 64.3197C110.827 64.4952 110.635 64.8519 110.384 65.3898C110.132 65.9278 109.905 66.579 109.703 67.3434C109.481 68.13 109.346 68.6866 109.297 69.0132C109.257 69.2976 109.197 69.8233 109.12 70.5901C109.075 71.3654 109.048 71.9046 109.04 72.2078C109.031 72.5006 109.034 72.8814 109.049 73.3501C109.064 73.8188 109.079 74.1518 109.094 74.3492C109.097 74.3907 109.106 74.4371 109.12 74.4884C109.135 74.5397 109.158 74.6425 109.191 74.797C109.223 74.9411 109.2 75.0521 109.122 75.1301C109.055 75.2075 108.952 75.2872 108.812 75.3692C108.672 75.4512 108.437 75.461 108.109 75.3985C107.676 75.3427 107.396 75.2354 107.269 75.0765C107.142 74.9073 107.125 74.757 107.219 74.6257L107.33 74.4308C107.289 74.1724 107.251 73.9505 107.216 73.7648C107.179 73.5584 107.107 73.156 106.999 72.5576C106.89 71.9592 106.798 71.5007 106.721 71.182C106.654 70.8523 106.534 70.2442 106.362 69.3576C106.19 68.471 106.079 67.8362 106.029 67.4533C105.98 67.0911 105.932 66.7393 105.885 66.3978C105.859 66.0551 105.822 65.4312 105.774 64.5263C105.704 63.6123 105.662 62.9261 105.648 62.4678C105.644 62.1445 105.613 61.8803 105.556 61.6752L105.4 61.2781C105.32 61.0433 105.329 60.8235 105.428 60.6188Z" fill="#242424"/>
</svg>
