<svg width="158" height="86" viewBox="0 0 158 86" fill="none" xmlns="http://www.w3.org/2000/svg">
<path d="M20.1279 17.4417C54.118 14.9438 137.189 24.8653 140.372 30.8602C144.352 38.3538 -13.5454 33.3863 24.5003 63.4025C45.4497 79.9306 81.3259 65.169 144 59.6737" stroke="#0CE9CA" stroke-width="28" stroke-linecap="round"/>
<path d="M43.8019 26.3621C44.1594 26.2558 44.5845 26.0772 45.0772 25.8265C45.5891 25.5537 45.9702 25.3467 46.2206 25.2054C46.4518 25.0862 46.8569 24.7837 47.4361 24.2979C47.9769 23.8562 48.4218 23.3894 48.7707 22.8974C49.1388 22.3833 49.3849 21.9814 49.509 21.6916C49.6539 21.4005 49.8302 20.7683 50.0379 19.7947C50.2647 18.7991 50.3843 18.1079 50.3965 17.7209C50.4279 17.3118 50.3903 16.6828 50.2836 15.8338C50.1561 14.9861 50.0178 14.2695 49.8686 13.6842C49.7002 13.1209 49.4255 12.4653 49.0445 11.7173C48.6635 10.9693 48.352 10.4465 48.1099 10.1489C47.879 9.86102 47.3535 9.40932 46.5334 8.79381C45.7557 8.18603 45.0199 7.78432 44.3259 7.58867C43.5784 7.37557 43.0268 7.26475 42.6709 7.25621C42.2831 7.23927 41.6262 7.32306 40.7001 7.50756C39.8156 7.6894 39.2478 7.84576 38.9967 7.97664C38.7063 8.14134 38.4124 8.32714 38.1148 8.53405C37.8052 8.72086 37.3112 9.15952 36.6327 9.85004C35.9727 10.5081 35.449 11.173 35.0616 11.8449C34.663 12.5071 34.3988 13.0145 34.2691 13.3673C34.1481 13.6986 34.0202 14.3486 33.8853 15.3175C33.7712 16.285 33.7229 16.9509 33.7403 17.315C33.7712 17.7201 33.892 18.3438 34.1026 19.1862C34.3117 20.0078 34.5456 20.6765 34.8043 21.1922C35.0527 21.7086 35.4086 22.2651 35.8721 22.8617C36.3659 23.4459 36.7483 23.8702 37.0192 24.1347C37.2781 24.379 37.7957 24.7269 38.5719 25.1782C39.3592 25.6392 39.8864 25.9082 40.1535 25.985C40.4421 26.0709 40.8562 26.1592 41.3959 26.2499C41.894 26.3433 42.3354 26.3777 42.72 26.3531L43.4217 26.3082C43.5472 26.3106 43.674 26.3286 43.8019 26.3621ZM39.7003 27.6422C39.2838 27.5227 38.6167 27.2001 37.699 26.6744C36.8014 26.1369 36.1783 25.7071 35.8299 25.385C35.5022 25.0615 35.0727 24.5671 34.5413 23.9018C33.9972 23.206 33.571 22.5497 33.2627 21.9327C32.9528 21.295 32.6786 20.5089 32.44 19.5744C32.223 18.6489 32.0855 17.9428 32.0274 17.456C31.9693 16.9691 32.0133 16.1783 32.1595 15.0835C32.316 13.988 32.4712 13.2162 32.625 12.768C32.8004 12.3288 33.115 11.7294 33.5688 10.9698C34.0322 10.1991 34.6511 9.41323 35.4256 8.61219C36.1825 7.85404 36.7497 7.34807 37.1273 7.09429C37.4752 6.86328 37.8244 6.64785 38.1747 6.448C38.5659 6.23511 39.2857 6.01684 40.3341 5.79319C41.3641 5.60204 42.151 5.50994 42.6947 5.51689C43.2073 5.52585 43.902 5.66404 44.7791 5.93147C45.6977 6.19625 46.6342 6.69471 47.5885 7.42687C48.4996 8.14092 49.1218 8.69603 49.455 9.09219C49.7667 9.4793 50.1377 10.0974 50.5682 10.9466C51.0092 11.7951 51.3294 12.5679 51.5289 13.2648C51.706 13.9423 51.8551 14.7312 51.9761 15.6315C52.1115 16.5831 52.1671 17.3101 52.1428 17.8127C52.1193 18.3256 51.9869 19.1221 51.7456 20.2021C51.5043 21.2821 51.2796 22.0323 51.0714 22.4527C50.8929 22.8503 50.6004 23.3283 50.1939 23.8866C49.7505 24.5099 49.1944 25.0934 48.5257 25.6372C47.8769 26.1692 47.4021 26.5179 47.1013 26.6833C46.8318 26.8467 46.421 27.0765 45.8691 27.3727C45.2964 27.6703 44.7906 27.8853 44.3515 28.0178C43.9124 28.1503 43.439 28.2432 42.9312 28.2965C42.4234 28.3499 42.0596 28.3732 41.8397 28.3664C41.599 28.3609 41.2384 28.2901 40.7579 28.1538L40.1331 27.9746C39.9613 27.9125 39.817 27.8017 39.7003 27.6422ZM55.2792 11.6941C55.3984 11.4777 55.5652 11.3366 55.7796 11.2707C56.0043 11.2041 56.221 11.2372 56.4296 11.37C56.6478 11.4917 56.7857 11.6551 56.8431 11.8602L56.9688 12.2748C57.0558 12.5928 57.1192 12.8758 57.1591 13.1237C57.1981 13.3613 57.2638 13.879 57.3561 14.6767C57.4164 15.4661 57.4636 16.0841 57.4978 16.5307C57.516 16.7696 57.5355 17.024 57.5561 17.2941C57.5897 17.1876 57.6242 17.0914 57.6594 17.0057C57.9518 16.0476 58.2649 15.2918 58.5986 14.7381C58.9636 14.1825 59.2469 13.7886 59.4485 13.5565C59.7109 13.2997 60.1089 13.0394 60.6424 12.7756C61.1567 12.534 61.5478 12.3889 61.8157 12.3404C62.0236 12.3271 62.2367 12.3135 62.455 12.2995C62.7373 12.3024 63.1222 12.4186 63.6098 12.6484C64.1199 12.8975 64.5562 13.2766 64.919 13.7857C65.2338 14.2144 65.5636 14.9082 65.9085 15.8673C66.259 16.7633 66.5041 17.4417 66.6438 17.9024C66.7627 18.3645 66.9678 19.0663 67.2591 20.0079C67.5208 20.9722 67.7283 21.7731 67.8814 22.4104C68.0114 23.0178 68.1314 23.6312 68.2414 24.2504C68.361 24.8585 68.4387 25.2606 68.4746 25.4566C68.4873 25.6228 68.512 25.8091 68.5487 26.0155L68.5737 26.3426C68.6127 26.5802 68.5554 26.7874 68.4018 26.9642C68.2586 27.1404 68.0678 27.2413 67.8295 27.267C67.6016 27.292 67.3877 27.2274 67.1879 27.0732C66.9993 26.9287 66.8858 26.7429 66.8476 26.5157L66.8262 26.2353C66.7895 26.0289 66.7644 25.8374 66.7509 25.6608C66.7174 25.496 66.6569 25.1137 66.5693 24.5139C66.4632 23.9467 66.3456 23.3645 66.2164 22.7674C66.0656 22.1612 65.8558 21.3971 65.5868 20.475C65.3059 19.5327 65.1068 18.841 64.9895 18.3997C64.8514 17.9597 64.6191 17.3118 64.2925 16.456C63.99 15.6404 63.732 15.0672 63.5187 14.7364C63.3325 14.4874 63.1263 14.3179 62.9001 14.228C62.7034 14.1154 62.5471 14.0523 62.4312 14.0389C62.3273 14.0455 62.2129 14.0528 62.0882 14.0608C61.9858 14.0882 61.7583 14.1863 61.4055 14.355C61.0512 14.5029 60.8264 14.6373 60.7312 14.7582C60.5952 14.8922 60.3831 15.1927 60.095 15.66C59.8037 16.0857 59.5375 16.7028 59.2963 17.5115C59.0376 18.363 58.8905 18.9674 58.8551 19.3245C58.7997 19.6933 58.7726 20.2952 58.7737 21.1301C58.7556 21.9871 58.7684 22.7012 58.8121 23.2725C58.8557 23.8437 58.8795 24.291 58.8833 24.6143C58.9111 24.9779 58.9149 25.3012 58.8947 25.5843C58.8979 25.6258 58.9019 25.6777 58.9066 25.7401C58.9114 25.8024 58.8937 25.9131 58.8537 26.0722C58.8232 26.2203 58.7692 26.3333 58.6915 26.4114C58.6139 26.4894 58.4888 26.56 58.316 26.6233C58.1536 26.6858 57.9422 26.6524 57.6816 26.523C57.5521 26.4686 57.4377 26.4081 57.3386 26.3414C57.2499 26.274 57.1876 26.2101 57.1516 26.1498C57.1149 26.0791 57.0889 26.0129 57.0738 25.9513C57.0586 25.8896 57.0495 25.838 57.0463 25.7965L57.0415 25.7341C56.9322 25.3967 56.8444 25.0683 56.7782 24.749C56.712 24.4297 56.6128 23.8829 56.4805 23.1086C56.3354 22.3038 56.2215 21.5648 56.1387 20.8917C56.0551 20.2082 55.98 19.4302 55.9134 18.5577C55.8499 17.7268 55.801 17.088 55.7669 16.6414C55.7328 16.1948 55.6856 15.5768 55.6252 14.7875C55.5457 14.0202 55.4884 13.5438 55.4533 13.3581C55.4406 13.192 55.3932 12.981 55.311 12.7254L55.2176 12.3243C55.1394 12.1205 55.1599 11.9105 55.2792 11.6941ZM70.3306 9.96388C70.3131 9.73538 70.3168 9.51074 70.3417 9.28997C70.377 9.06853 70.4387 8.85062 70.5268 8.63624C70.6149 8.42186 70.7541 8.26161 70.9445 8.15549C71.1453 8.04871 71.3836 8.02303 71.6594 8.07844C71.747 8.67819 71.8228 9.67009 71.8868 11.0541C71.9604 12.4271 72.0306 13.4142 72.0974 14.0153C72.2333 14.1527 72.4374 14.364 72.7099 14.6493C73.1299 14.4032 73.803 14.0522 74.7292 13.5964C76.6037 13.2468 78.105 13.1403 79.2332 13.2768C79.6944 13.5709 80.0241 13.7846 80.2224 13.9181C80.4206 14.0515 80.7027 14.2578 81.0688 14.5371C81.4341 14.806 81.737 15.0788 81.9775 15.3557C82.2172 15.6221 82.4274 15.9114 82.6079 16.2234C82.7229 16.4978 82.8091 16.8054 82.8665 17.1462C82.9231 17.4765 82.9501 17.7618 82.9475 18.0021C82.9546 18.2312 82.9536 18.5601 82.9446 18.9886C82.9451 19.406 82.9466 19.6982 82.9489 19.865C82.3966 20.8397 81.6385 21.6501 80.6746 22.2963C79.7099 22.932 78.6941 23.378 77.6273 23.6341C76.5596 23.8799 75.4449 23.9877 74.2831 23.9577C73.9337 23.8966 73.6175 23.7916 73.3345 23.6427C73.0515 23.4938 72.807 23.3007 72.6008 23.0634C72.3938 22.8157 72.2129 22.5663 72.0579 22.3153C71.9133 22.0637 71.7807 21.7642 71.6602 21.4171C71.5396 21.0699 71.4431 20.763 71.3705 20.4963C71.2978 20.2296 71.2221 19.9213 71.1431 19.5715C70.638 16.243 70.3672 13.0405 70.3306 9.96388ZM72.6547 16.7976C72.7576 18.6906 72.8764 20.1077 73.011 21.0489C73.1205 21.1149 73.2879 21.2555 73.5133 21.4707C73.7379 21.6755 73.9485 21.8343 74.1451 21.9469C74.3417 22.0596 74.5544 22.1086 74.7831 22.094C75.4732 22.102 76.1429 22.0487 76.7922 21.9341C77.4512 21.8085 78.0946 21.6159 78.7224 21.3566C79.3607 21.0966 79.9066 20.7224 80.3603 20.2342C80.8236 19.7348 81.139 19.1458 81.3065 18.4671C81.2548 17.9277 81.2138 17.5285 81.1836 17.2695C81.1357 17.1891 81.0398 17.0282 80.896 16.7869C80.7514 16.5353 80.6552 16.3692 80.6072 16.2888C80.0854 15.7481 79.4607 15.3654 78.7332 15.1406C78.0161 14.9151 77.2952 14.8464 76.5707 14.9345C75.8454 15.0122 75.1349 15.2143 74.439 15.5406C73.7536 15.8663 73.1588 16.2853 72.6547 16.7976ZM84.9303 7.24492C85.0263 7.27009 85.1494 7.30918 85.2997 7.36219C85.4596 7.40414 85.6307 7.45582 85.8129 7.51721C86.0048 7.56756 86.1379 7.60079 86.2123 7.61691C86.5665 9.10763 86.8466 10.7231 87.0527 12.4634C87.258 14.1933 87.3895 15.7765 87.447 17.2132C87.5038 18.6394 87.5348 20.2761 87.5402 22.1231C87.2723 22.1716 86.6505 22.3053 85.6749 22.5243C85.6098 21.6726 85.5823 20.8341 85.5923 20.009C85.7488 19.0492 85.8142 17.9908 85.7884 16.834C85.7627 15.6771 85.6762 14.6128 85.5288 13.6411C85.3918 12.6688 85.2637 11.6072 85.1444 10.4563C85.0243 9.29503 84.953 8.22457 84.9303 7.24492ZM89.8959 9.47907C89.9944 9.26403 90.1504 9.11836 90.3639 9.04208C90.5878 8.96512 90.8081 8.97712 91.0248 9.07807C91.2518 9.17835 91.4048 9.33555 91.4839 9.54968L91.6431 9.9935C91.7765 10.3711 91.8418 10.8158 91.8391 11.3274C91.8508 11.7545 91.8908 12.4147 91.9591 13.308C92.005 14.1817 92.0398 14.7744 92.0636 15.086C92.109 15.4067 92.156 15.7481 92.2046 16.1103C92.2141 16.2349 92.2368 16.3952 92.2727 16.5913C92.3376 16.3471 92.4149 16.0603 92.5047 15.731C92.7218 14.8821 92.9737 14.1459 93.2604 13.5222C93.5574 12.8978 93.8051 12.4488 94.0036 12.1752C94.1708 11.9035 94.4613 11.5353 94.875 11.0705C95.3263 10.5511 95.7551 10.1479 96.1615 9.86094C96.5662 9.55324 96.9674 9.33448 97.3649 9.20468C97.7815 9.05277 98.1518 8.97689 98.4757 8.97704C98.8203 8.97586 99.1869 9.05678 99.5754 9.21979C99.9535 9.38346 100.235 9.57942 100.419 9.80766C100.581 10.0061 100.816 10.419 101.125 11.0463C101.378 11.625 101.554 12.0834 101.653 12.4215C101.742 12.7603 101.862 13.2431 102.015 13.87C102.075 14.1062 102.138 14.3266 102.206 14.531C102.303 14.1595 102.489 13.657 102.765 13.0236C103.073 12.2732 103.311 11.7623 103.478 11.4906C103.645 11.2086 103.876 10.8807 104.171 10.507C104.505 10.0994 104.801 9.79867 105.058 9.60481C105.323 9.37912 105.643 9.20204 106.02 9.07356C106.52 8.91633 107.045 8.95578 107.596 9.1919C108.125 9.41896 108.549 9.7676 108.867 10.2378C109.085 10.6309 109.252 10.9699 109.368 11.2547C109.451 11.5311 109.587 12.0704 109.773 12.8726C109.982 13.6942 110.117 14.2961 110.178 14.6784C110.248 15.0497 110.353 15.6066 110.493 16.3491C110.613 17.0929 110.713 17.7179 110.793 18.2242C110.874 18.7305 110.933 19.2381 110.972 19.747C111.03 20.2338 111.084 20.6584 111.132 21.0205C111.181 21.3827 111.222 21.6463 111.255 21.8111L111.307 22.074C111.346 22.3115 111.299 22.5232 111.167 22.7091C111.035 22.895 110.851 23.006 110.613 23.0421C110.386 23.0775 110.173 23.0285 109.975 22.895C109.786 22.7505 109.663 22.5654 109.604 22.3395L109.586 22.1058C109.551 21.9202 109.498 21.6366 109.427 21.2549C109.376 20.872 109.316 20.4166 109.244 19.8889C109.207 19.4008 109.148 18.9139 109.07 18.4284C108.991 17.9429 108.893 17.3439 108.776 16.6312C108.658 15.9081 108.563 15.3558 108.492 14.9741C108.423 14.6133 108.29 14.0425 108.095 13.2618C107.91 12.4804 107.778 11.9878 107.7 11.7841C107.646 11.6206 107.546 11.4026 107.399 11.1301C107.303 10.9693 107.153 10.8484 106.949 10.7676C106.797 10.6938 106.69 10.6693 106.63 10.6941C106.446 10.7476 106.29 10.8306 106.163 10.9431C105.985 11.0797 105.777 11.2966 105.539 11.5936C105.26 11.9141 105.061 12.1825 104.942 12.3989C104.822 12.6049 104.621 13.0457 104.338 13.7213C104.055 14.3866 103.882 14.8569 103.819 15.1323C103.759 15.4388 103.679 15.8979 103.58 16.5096C103.49 17.1103 103.427 17.7301 103.393 18.369C103.344 19.1027 103.315 19.5429 103.306 19.6896C103.282 19.9312 103.238 20.2367 103.172 20.6062C103.117 20.9751 103.074 21.2439 103.046 21.4128C103.025 21.4141 103.005 21.4258 102.986 21.4479C102.966 21.47 102.922 21.499 102.851 21.5348C102.781 21.5706 102.705 21.6067 102.624 21.6432C102.554 21.679 102.468 21.7159 102.367 21.7537C102.265 21.7915 102.168 21.8186 102.075 21.8349C101.993 21.8506 101.91 21.8612 101.827 21.8665C101.744 21.8718 101.664 21.8612 101.589 21.8347C101.514 21.8082 101.448 21.7655 101.391 21.7065C101.345 21.6468 101.318 21.5651 101.31 21.4612C101.297 21.295 101.285 21.2071 101.274 21.1973C101.262 21.1772 101.265 21.1457 101.283 21.1029C101.3 21.06 101.321 20.996 101.346 20.9109C101.374 20.7213 101.388 20.496 101.389 20.235C101.388 19.9532 101.37 19.5787 101.334 19.1113C101.278 18.6452 101.196 18.1286 101.09 17.5613C100.962 16.9746 100.841 16.4239 100.729 15.9093C100.629 15.4251 100.504 14.8747 100.352 14.2582C100.2 13.6313 100.077 13.1851 99.9835 12.9197C99.9221 12.6627 99.7776 12.2754 99.55 11.7576C99.3719 11.3411 99.2313 11.0735 99.1282 10.9549C99.0835 10.916 98.9951 10.8538 98.8633 10.7683C98.7337 10.714 98.6118 10.6905 98.4975 10.6978C98.3919 10.6837 98.228 10.7255 98.0056 10.8232C97.7297 10.9035 97.4486 11.0519 97.1622 11.2685C96.875 11.4748 96.559 11.782 96.2141 12.1903C95.8189 12.6226 95.5568 12.9525 95.4279 13.1799C95.2951 13.3554 95.103 13.7121 94.8516 14.2501C94.6002 14.788 94.3731 15.4392 94.1704 16.2037C93.9485 16.9902 93.8134 17.5468 93.7652 17.8735C93.7243 18.1579 93.6652 18.6835 93.588 19.4504C93.5428 20.2256 93.5161 20.7648 93.5079 21.068C93.499 21.3609 93.502 21.7416 93.5169 22.2103C93.5318 22.6791 93.5468 23.0121 93.5619 23.2094C93.5651 23.251 93.5738 23.2974 93.5882 23.3486C93.6026 23.3999 93.6261 23.5028 93.6588 23.6572C93.6907 23.8013 93.6678 23.9124 93.5902 23.9904C93.523 24.0678 93.4194 24.1475 93.2794 24.2295C93.1395 24.3115 92.9052 24.3213 92.5766 24.2588C92.144 24.203 91.8642 24.0956 91.7372 23.9368C91.6093 23.7675 91.5926 23.6172 91.687 23.486L91.7975 23.291C91.7569 23.0327 91.719 22.8107 91.6839 22.6251C91.6473 22.4187 91.5747 22.0163 91.4663 21.4179C91.3579 20.8194 91.2654 20.3609 91.1888 20.0423C91.1219 19.7126 91.0023 19.1044 90.83 18.2178C90.6578 17.3313 90.5466 16.6965 90.4965 16.3135C90.4479 15.9513 90.4001 15.5995 90.3532 15.2581C90.327 14.9153 90.2897 14.2915 90.2415 13.3866C90.1716 12.4726 90.1296 11.7864 90.1155 11.3281C90.1117 11.0047 90.0811 10.7406 90.0236 10.5355L89.8679 10.1384C89.7873 9.90351 89.7966 9.68373 89.8959 9.47907ZM22.1533 49.822L22.3618 50.0905C22.4545 50.2098 22.6791 50.3467 23.0357 50.5014C23.4386 50.7156 24.023 50.9131 24.7889 51.0937C25.5364 51.3068 26.0629 51.4297 26.3683 51.4623C26.6842 51.4943 27.1703 51.4997 27.8268 51.4786C28.4209 51.4614 29.0439 51.3433 29.6957 51.1241C30.3675 50.8933 30.7826 50.7206 30.941 50.6061C31.0994 50.4916 31.3535 50.1935 31.7032 49.7119C32.0329 49.242 32.249 48.7898 32.3516 48.3553C32.4407 47.88 32.4757 47.5176 32.4566 47.2684C32.4384 47.0295 32.2428 46.4523 31.8699 45.5368C31.473 44.5811 31.1935 43.9989 31.0313 43.7901C30.8451 43.541 30.5222 43.2121 30.0627 42.8031C29.6039 42.4045 29.1947 42.1072 28.835 41.911C28.4969 41.7239 28.0835 41.5781 27.595 41.4737C27.1057 41.3589 26.7571 41.3081 26.5492 41.3214C26.3517 41.3341 25.9442 41.4697 25.3268 41.7284C24.7501 41.9741 24.2738 42.302 23.8977 42.7123C23.4801 43.1252 23.2032 43.4664 23.0671 43.7361C22.9222 44.0271 22.7328 44.6237 22.4988 45.5259C22.2448 46.4397 22.1084 47.1164 22.0898 47.556C22.0704 47.9851 22.0915 48.7405 22.1533 49.822ZM22.2923 52.0519C22.3122 52.3115 22.3389 52.5238 22.3723 52.6886C22.432 53.1962 22.5376 53.894 22.689 54.7819C22.8452 55.7321 23.0018 56.6197 23.1589 57.4446C23.3055 58.2702 23.4007 58.833 23.4446 59.1328C23.4868 59.4119 23.5357 59.7793 23.5915 60.235C23.6464 60.6803 23.6798 60.9808 23.6917 61.1366L23.7084 61.3547C23.7266 61.5936 23.6537 61.8018 23.4897 61.9793C23.3361 62.1561 23.1397 62.2522 22.9006 62.2675C22.6719 62.2821 22.4681 62.2117 22.289 62.0561C22.11 61.9006 22.0114 61.7034 21.9931 61.4645L21.9765 61.2464C21.9669 61.1217 21.9351 60.842 21.881 60.4071C21.8276 59.9826 21.7751 59.6363 21.7232 59.3682C21.681 59.0891 21.5866 58.5368 21.4399 57.7112C21.2917 56.8648 21.141 55.9873 20.988 55.0786C20.8319 54.1284 20.7231 53.3891 20.6619 52.8607C20.6117 52.4778 20.5581 51.9124 20.5009 51.1645C20.4779 50.8633 20.4521 50.5258 20.4235 50.1519C20.3675 48.8717 20.3504 47.9647 20.3723 47.431C20.3942 46.8973 20.5374 46.1054 20.8018 45.0552C21.0879 44.014 21.3314 43.3044 21.5323 42.9262C21.742 42.5266 22.1029 42.0547 22.615 41.5106C23.1463 40.9443 23.8266 40.4833 24.656 40.1275C25.4454 39.7952 26.0224 39.6226 26.3871 39.6097C26.7701 39.5643 27.291 39.6145 27.9498 39.7602C28.6086 39.9059 29.1886 40.1141 29.6899 40.3847C30.1599 40.6573 30.6594 41.0428 31.1885 41.5412C31.7367 42.0176 32.1271 42.4101 32.3596 42.7187C32.6457 43.0449 33.0143 43.7675 33.4655 44.8868C33.9382 46.015 34.1745 46.7827 34.1742 47.1898C34.2036 47.5741 34.1585 48.0779 34.039 48.7014C33.9043 49.3989 33.6057 50.0703 33.1431 50.7157C32.679 51.3403 32.2837 51.7726 31.9573 52.0127C31.6702 52.2189 31.1095 52.4688 30.2753 52.7622C29.4596 53.0232 28.6559 53.1685 27.8642 53.1983C27.135 53.2241 26.5752 53.2129 26.185 53.1648C25.8053 53.1161 25.1992 52.9774 24.367 52.7489C23.5147 52.5321 22.8231 52.2997 22.2923 52.0519ZM48.605 48.4112C48.4868 48.2309 48.3637 48.0561 48.2359 47.8869C48.0721 47.6573 47.8871 47.4239 47.681 47.1866C47.4964 46.9583 47.072 46.5993 46.4078 46.1095C45.8195 45.6566 45.4347 45.4047 45.2532 45.3536C45.1029 45.3006 44.8266 45.3079 44.4244 45.3754C43.9805 45.4455 43.5927 45.5643 43.2607 45.7316C42.8872 45.9017 42.602 46.066 42.4052 46.2247C42.218 46.3724 42.0472 46.5294 41.8928 46.6959C41.7552 46.8091 41.5712 47.0661 41.3406 47.467C41.0893 47.8693 40.9388 48.1555 40.8892 48.3257C40.8411 48.5166 40.7974 48.7647 40.758 49.0699C40.7394 49.3738 40.7469 49.6081 40.7804 49.773C40.7931 49.9392 40.8769 50.2156 41.0318 50.6023C41.1843 50.9578 41.3345 51.2144 41.4824 51.3719C41.6646 51.569 41.8368 51.7041 41.9991 51.7772C42.1525 51.8718 42.3164 51.9656 42.4907 52.0589C42.6745 52.141 42.9636 52.2321 43.3577 52.3322C43.7087 52.4141 44.0093 52.4522 44.2596 52.4467C44.5403 52.4287 44.7714 52.3774 44.953 52.2927C45.1577 52.2379 45.3652 52.1515 45.5756 52.0337C45.7964 51.9152 46.0207 51.7756 46.2487 51.6149C46.4263 51.4783 46.7552 51.1337 47.2352 50.5811C47.6834 50.0201 47.9538 49.6636 48.0467 49.5115C48.1379 49.3387 48.2192 49.1717 48.2904 49.0106C48.3937 48.8579 48.4985 48.6581 48.605 48.4112ZM50.1675 49.1723C50.0402 49.4205 49.9405 49.62 49.8685 49.7707C49.798 49.9422 49.6931 50.142 49.5539 50.3701C49.4266 50.6183 49.0953 51.0674 48.56 51.7175C48.0143 52.3682 47.5878 52.8025 47.2806 53.0205C46.9935 53.2267 46.6991 53.4073 46.3976 53.5623C46.1072 53.727 45.8197 53.8602 45.5349 53.9619C45.219 54.0657 44.848 54.1311 44.4218 54.1584C43.9763 54.2078 43.4814 54.156 42.937 54.0029C42.4373 53.8888 42.0571 53.767 41.7965 53.6375C41.5471 53.5178 41.2961 53.3773 41.0435 53.2161C40.7917 53.0652 40.5288 52.8367 40.2547 52.5307C39.927 52.2072 39.659 51.7756 39.4506 51.2358C39.2438 50.7167 39.1125 50.2972 39.0567 49.9772C39.0129 49.6773 39.0115 49.3173 39.0525 48.8972C39.1047 48.4868 39.1713 48.1277 39.2522 47.8198C39.3332 47.512 39.5257 47.0926 39.8299 46.5617C40.1356 46.0516 40.4149 45.6737 40.6677 45.4279C40.8925 45.2256 41.1337 45.0328 41.3913 44.8493C41.6585 44.6548 42.0073 44.4341 42.4376 44.1874C42.9311 43.9471 43.4973 43.77 44.1363 43.656C44.7864 43.5518 45.3202 43.5646 45.7375 43.6945C46.1109 43.7958 46.708 44.1594 47.5288 44.7853C47.3731 44.3882 47.2494 44.0674 47.1575 43.8228C47.005 43.4672 46.7882 43.0219 46.507 42.4867C46.2066 41.9736 45.9514 41.5725 45.7413 41.2832C45.5311 40.994 45.2986 40.7532 45.0436 40.5607C44.8422 40.3858 44.4657 40.175 43.9141 39.9285C43.3625 39.682 42.8912 39.5295 42.5002 39.471C42.0693 39.436 41.7231 39.4164 41.4616 39.4122C41.2017 39.4289 40.9478 39.4555 40.6999 39.4923C40.4936 39.5264 40.1185 39.6756 39.5746 39.94C39.1819 40.1322 38.9275 40.2893 38.8115 40.4116L38.6434 40.6728C38.5329 40.8677 38.3602 40.9988 38.125 41.0661C37.8995 41.1222 37.6776 41.0895 37.4594 40.9678C37.2508 40.835 37.1117 40.656 37.0423 40.4308C36.9825 40.1946 37.0234 39.978 37.165 39.7811L37.3307 39.4887C37.5436 39.1306 38.0276 38.7657 38.7826 38.3938C39.4873 38.0461 40.0304 37.8391 40.4118 37.7729C40.7325 37.7315 41.0591 37.7002 41.3918 37.6789C41.7364 37.6777 42.177 37.7017 42.7135 37.7509C43.2724 37.8195 43.9036 38.014 44.6071 38.3342C45.3106 38.6545 45.8305 38.9657 46.167 39.2677C46.4915 39.5496 46.8088 39.8737 47.1188 40.2401C47.4081 40.6077 47.7112 41.0893 48.0283 41.6848C48.3558 42.2797 48.5982 42.786 48.7555 43.2039C48.9112 43.601 49.1216 44.1668 49.3867 44.9013C49.6517 45.6358 49.8421 46.1455 49.9579 46.4303C50.0849 46.7249 50.203 47.0409 50.3124 47.3783C50.4314 47.7047 50.5168 47.934 50.5687 48.0664L50.5711 48.0976C50.6877 48.2571 50.6744 48.4928 50.5311 48.8046L50.1675 49.1723ZM56.1322 32.2895C56.7768 32.1125 57.8879 32.0258 59.4656 32.0292C61.0424 32.0222 62.1559 31.9667 62.8061 31.8624C63.0148 31.8595 63.2619 31.8124 63.5474 31.7211C63.8321 31.6193 64.0757 31.5255 64.278 31.4395C64.49 31.3424 64.7227 31.3119 64.9761 31.3478C65.2392 31.3728 65.4726 31.4883 65.6764 31.6944C65.6474 32.1346 65.6179 32.5697 65.5881 32.9995C64.9307 33.1459 64.1874 33.2613 63.3582 33.3457C62.5289 33.4301 61.776 33.4887 61.0995 33.5215C60.4334 33.5537 59.6858 33.612 58.8565 33.6964C59.4487 34.2012 60.0234 34.7489 60.5804 35.3395C61.1477 35.9294 61.7159 36.5976 62.2848 37.344C62.8641 38.0897 63.3295 38.7123 63.6811 39.2116C64.0422 39.6999 64.5336 40.3887 65.1552 41.2778C65.8375 42.2778 66.3804 43.6417 66.7841 45.3693C67.5365 46.8763 67.2287 48.7277 65.8609 50.9235C65.339 52.0215 64.5932 52.9251 63.6237 53.6342C62.6541 54.3434 61.6061 54.6401 60.4795 54.5243C59.7503 54.4144 59.0431 54.183 58.3581 53.8303C57.6842 53.4872 57.0771 53.0616 56.5369 52.5534C55.9966 52.0453 55.5188 51.4653 55.1034 50.8134C54.6879 50.1616 54.3697 49.4827 54.1486 48.7767C53.9275 48.0707 53.8092 47.3424 53.7936 46.5919C53.7772 45.8311 53.8836 45.1041 54.1127 44.411C54.6523 43.2701 55.3793 42.2582 56.2938 41.3751C57.2074 40.4817 58.2369 39.8052 59.3822 39.3458C60.2605 38.9452 61.2093 38.7853 62.2288 38.8662C61.7483 38.5942 61.2899 38.2687 60.8536 37.8896C60.4276 37.5098 59.9365 37.0298 59.3803 36.4496C58.8233 35.859 58.4321 35.4561 58.2067 35.2409C58.0813 35.1028 57.8719 34.8918 57.5786 34.6079C57.2957 34.3233 57.0691 34.0926 56.8989 33.9156C56.7279 33.7282 56.5633 33.4883 56.4052 33.1957C56.2462 32.8928 56.1552 32.5907 56.1322 32.2895ZM55.42 46.5505C55.4876 47.2976 55.6747 48.0371 55.9813 48.769C56.2983 49.5002 56.7046 50.1683 57.2 50.7732C57.6946 51.3678 58.2904 51.8515 58.9875 52.2244C59.6941 52.5863 60.4341 52.7685 61.2073 52.7712C61.4856 52.7221 61.7555 52.6318 62.0171 52.5002C62.2794 52.3791 62.5098 52.2495 62.7082 52.1116C62.9066 51.9736 63.1118 51.7883 63.3238 51.5556C63.5462 51.3221 63.7239 51.1177 63.8567 50.9422C63.9999 50.766 64.1648 50.5311 64.3513 50.2374C64.5369 49.9332 64.6758 49.6999 64.7679 49.5375C64.8695 49.364 65.0072 49.1151 65.1809 48.7909C65.2457 48.6824 65.2917 48.6012 65.319 48.5472C65.3635 47.4902 65.1946 46.4417 64.8122 45.4015C64.4402 44.3608 63.9051 43.2365 63.2069 42.0287C63.0375 41.7264 62.7898 41.4918 62.4636 41.3248C62.1471 41.1467 61.7798 40.9876 61.3616 40.8473C60.9539 40.7064 60.6449 40.5592 60.4347 40.4057C59.9052 40.7213 59.4369 41.0175 59.0297 41.294C58.6321 41.5595 58.1934 41.9007 57.7133 42.3176C57.2429 42.7234 56.8509 43.1295 56.5372 43.5357C56.2331 43.9309 55.971 44.3965 55.7508 44.9324C55.5402 45.4573 55.4299 45.9967 55.42 46.5505ZM79.3377 50.9379C79.208 51.155 79.0141 51.2822 78.7558 51.3196L78.2615 51.4138C77.8401 51.5034 77.3023 51.5065 76.6483 51.4231C76.0062 51.3598 75.4094 51.2049 74.8578 50.9584C74.3494 50.73 73.9245 50.5015 73.5832 50.2729C73.2187 50.0144 72.7664 49.5632 72.2262 48.9194C71.6877 48.2963 71.3041 47.7885 71.0757 47.3961C70.856 46.9822 70.6533 46.2437 70.4676 45.1806C70.2635 44.1499 70.1748 43.3989 70.2014 42.9275C70.252 42.4963 70.3799 41.9141 70.585 41.1808C70.7998 40.4365 71.0384 39.8002 71.301 39.272C71.5732 38.7327 71.8385 38.3087 72.0969 37.9999C72.3754 37.6794 72.7954 37.2977 73.357 36.8547C73.9601 36.409 74.7032 36.0849 75.5861 35.8823C76.4482 35.681 77.0835 35.5882 77.4921 35.6038C77.8815 35.6415 78.4512 35.7825 79.2011 36.0267C79.931 36.2827 80.4714 36.5195 80.8223 36.7371C81.1828 36.9436 81.5668 37.253 81.9744 37.6653C82.382 38.0776 82.6828 38.4602 82.8769 38.8131C83.0934 39.1854 83.321 39.771 83.5596 40.5698C83.7862 41.3485 83.9142 42.0657 83.9434 42.7214C83.9902 43.3342 83.9987 43.8555 83.9689 44.2853C83.9598 44.7138 83.8643 45.3097 83.6824 46.0728C83.502 46.8567 83.285 47.502 83.0312 48.0088C82.7478 48.5383 82.3581 49.0434 81.8621 49.5239C81.3661 50.0045 80.9625 50.3277 80.6513 50.4938C80.3602 50.6481 79.9223 50.7961 79.3377 50.9379ZM75.3757 49.3284C75.6213 49.1248 75.8936 49.0656 76.1926 49.1509L76.6903 49.3069C76.9565 49.3734 77.2472 49.4174 77.5622 49.439C77.8652 49.4405 78.2739 49.3882 78.7881 49.2823C79.3023 49.1763 79.6394 49.0764 79.7994 48.9827C79.9802 48.8877 80.2653 48.6554 80.655 48.2861C81.0358 47.9382 81.3163 47.5758 81.4964 47.199C81.6765 46.8221 81.8411 46.3106 81.9902 45.6644C82.1481 44.9968 82.2356 44.5006 82.2526 44.176C82.2679 43.8306 82.259 43.3719 82.2257 42.8C82.1853 42.2703 82.0721 41.6774 81.8861 41.0213C81.7114 40.375 81.5525 39.9363 81.4095 39.7054C81.2649 39.4537 81.04 39.1759 80.7347 38.8719C80.4286 38.5575 80.1553 38.3297 79.9147 38.1885C79.6837 38.0363 79.2632 37.8649 78.6532 37.6743C78.0632 37.472 77.6366 37.3584 77.3736 37.3335C77.1329 37.328 76.6787 37.3988 76.0109 37.5459C75.3847 37.6904 74.8545 37.9278 74.4201 38.2583C73.9561 38.6115 73.6377 38.8876 73.4649 39.0866C73.2936 39.3063 73.0943 39.6373 72.867 40.0798C72.6388 40.5119 72.429 41.0472 72.2376 41.6857C72.0557 42.3131 71.9559 42.7839 71.9381 43.0982C71.9195 43.4021 71.986 43.9979 72.1374 44.8859C72.308 45.7517 72.4716 46.3205 72.6282 46.5922C72.7759 46.8855 73.0732 47.2891 73.5199 47.8033C73.9673 48.3278 74.313 48.6815 74.5568 48.8642C74.7678 49.0281 75.0407 49.1828 75.3757 49.3284ZM86.9339 35.7198C87.0324 35.5047 87.1884 35.3591 87.402 35.2828C87.6259 35.2058 87.8462 35.2178 88.0628 35.3188C88.2899 35.4191 88.4429 35.5763 88.5219 35.7904L88.6812 36.2342C88.8145 36.6119 88.8798 37.0565 88.8772 37.5681C88.8889 37.9952 88.9289 38.6554 88.9972 39.5487C89.043 40.4225 89.0779 41.0151 89.1017 41.3267C89.1471 41.6474 89.1941 41.9888 89.2426 42.351C89.2522 42.4756 89.2749 42.636 89.3107 42.832C89.3757 42.5878 89.453 42.301 89.5427 41.9717C89.7599 41.1228 90.0118 40.3866 90.2984 39.7629C90.5954 39.1385 90.8432 38.6895 91.0416 38.4159C91.2089 38.1442 91.4994 37.776 91.913 37.3112C92.3643 36.7918 92.7931 36.3886 93.1995 36.1017C93.6043 35.7939 94.0054 35.5752 94.4029 35.4454C94.8196 35.2935 95.1899 35.2176 95.5137 35.2178C95.8584 35.2166 96.2249 35.2975 96.6135 35.4605C96.9916 35.6242 97.2729 35.8201 97.4575 36.0484C97.6189 36.2468 97.8542 36.6597 98.1633 37.287C98.4164 37.8657 98.5925 38.3241 98.6914 38.6622C98.78 39.001 98.9005 39.4838 99.0528 40.1107C99.1127 40.3469 99.1765 40.5673 99.2444 40.7717C99.3413 40.4002 99.5275 39.8977 99.803 39.2643C100.111 38.514 100.349 38.003 100.516 37.7313C100.683 37.4493 100.914 37.1214 101.209 36.7477C101.543 36.3401 101.839 36.0394 102.096 35.8455C102.361 35.6198 102.681 35.4427 103.058 35.3143C103.558 35.157 104.083 35.1965 104.634 35.4326C105.163 35.6597 105.587 36.0083 105.905 36.4785C106.123 36.8716 106.29 37.2106 106.406 37.4954C106.489 37.7718 106.625 38.3111 106.811 39.1133C107.02 39.9349 107.155 40.5368 107.216 40.9191C107.286 41.2904 107.391 41.8473 107.531 42.5898C107.651 43.3336 107.751 43.9586 107.831 44.4649C107.912 44.9712 107.972 45.4788 108.01 45.9877C108.068 46.4746 108.122 46.8991 108.17 47.2613C108.219 47.6235 108.26 47.887 108.293 48.0518L108.345 48.3147C108.384 48.5522 108.337 48.764 108.205 48.9498C108.073 49.1357 107.889 49.2467 107.651 49.2828C107.424 49.3182 107.211 49.2692 107.013 49.1357C106.824 48.9912 106.701 48.8061 106.642 48.5802L106.624 48.3465C106.589 48.1609 106.536 47.8773 106.465 47.4956C106.415 47.1127 106.354 46.6573 106.282 46.1296C106.245 45.6415 106.187 45.1546 106.108 44.6691C106.029 44.1836 105.931 43.5846 105.814 42.8719C105.696 42.1488 105.601 41.5965 105.53 41.2149C105.461 40.854 105.329 40.2832 105.133 39.5025C104.948 38.7211 104.816 38.2285 104.738 38.0248C104.684 37.8613 104.584 37.6433 104.437 37.3708C104.342 37.21 104.191 37.0891 103.987 37.0083C103.835 36.9345 103.728 36.91 103.668 36.9348C103.484 36.9883 103.328 37.0713 103.201 37.1838C103.023 37.3204 102.815 37.5373 102.577 37.8343C102.298 38.1548 102.1 38.4233 101.98 38.6396C101.86 38.8456 101.659 39.2864 101.376 39.9621C101.093 40.6273 100.92 41.0976 100.857 41.373C100.797 41.6795 100.717 42.1386 100.618 42.7503C100.528 43.351 100.466 43.9708 100.431 44.6097C100.382 45.3434 100.353 45.7836 100.344 45.9303C100.32 46.1719 100.276 46.4774 100.21 46.8469C100.155 47.2158 100.113 47.4846 100.084 47.6535C100.063 47.6548 100.043 47.6665 100.024 47.6886C100.004 47.7107 99.9597 47.7397 99.8893 47.7755C99.8189 47.8113 99.7433 47.8475 99.6625 47.8839C99.5921 47.9198 99.5061 47.9566 99.4046 47.9944C99.303 48.0322 99.2058 48.0593 99.1131 48.0757C99.0307 48.0914 98.9479 48.1019 98.8648 48.1072C98.7816 48.1125 98.7024 48.1019 98.6273 48.0754C98.5521 48.0489 98.4862 48.0062 98.4295 47.9472C98.3831 47.8875 98.356 47.8058 98.348 47.7019C98.3353 47.5357 98.3234 47.4478 98.3122 47.438C98.3002 47.4179 98.303 47.3864 98.3207 47.3436C98.3383 47.3007 98.3595 47.2367 98.3843 47.1516C98.4116 46.962 98.4258 46.7367 98.4267 46.4757C98.4261 46.194 98.4079 45.8194 98.3722 45.352C98.3157 44.8859 98.2344 44.3693 98.1284 43.802C98 43.2153 97.8795 42.6646 97.7671 42.15C97.6674 41.6658 97.5418 41.1154 97.3902 40.4989C97.2378 39.872 97.115 39.4258 97.0215 39.1605C96.9601 38.9035 96.8156 38.5161 96.588 37.9984C96.4099 37.5818 96.2694 37.3142 96.1663 37.1956C96.1215 37.1567 96.0332 37.0945 95.9013 37.009C95.7718 36.9547 95.6499 36.9312 95.5355 36.9385C95.43 36.9244 95.266 36.9662 95.0437 37.0639C94.7678 37.1442 94.4866 37.2926 94.2002 37.5093C93.9131 37.7155 93.597 38.0227 93.2522 38.431C92.8569 38.8633 92.5948 39.1932 92.466 39.4206C92.3331 39.5961 92.141 39.9529 91.8896 40.4908C91.6383 41.0287 91.4112 41.6799 91.2085 42.4444C90.9865 43.2309 90.8515 43.7875 90.8033 44.1142C90.7624 44.3986 90.7033 44.9242 90.6261 45.6911C90.5809 46.4663 90.5542 47.0056 90.546 47.3088C90.537 47.6016 90.54 47.9823 90.5549 48.4511C90.5699 48.9198 90.5849 49.2528 90.6 49.4501C90.6031 49.4917 90.6119 49.5381 90.6263 49.5894C90.6406 49.6406 90.6642 49.7435 90.6969 49.898C90.7288 50.042 90.7059 50.1531 90.6283 50.2311C90.5611 50.3085 90.4575 50.3882 90.3175 50.4702C90.1775 50.5522 89.9432 50.562 89.6146 50.4995C89.1821 50.4437 88.9023 50.3363 88.7752 50.1775C88.6474 50.0082 88.6307 49.858 88.7251 49.7267L88.8356 49.5317C88.7949 49.2734 88.7571 49.0514 88.722 48.8658C88.6853 48.6594 88.6128 48.257 88.5044 47.6586C88.396 47.0602 88.3035 46.6016 88.2269 46.283C88.1599 45.9533 88.0403 45.3451 87.8681 44.4585C87.6959 43.572 87.5847 42.9372 87.5346 42.5542C87.486 42.192 87.4382 41.8402 87.3912 41.4988C87.365 41.1561 87.3278 40.5322 87.2795 39.6273C87.2097 38.7133 87.1677 38.0271 87.1536 37.5688C87.1498 37.2455 87.1191 36.9813 87.0617 36.7762L86.906 36.3791C86.8253 36.1442 86.8347 35.9244 86.9339 35.7198ZM110.218 33.4627C110.201 33.2342 110.205 33.0096 110.23 32.7888C110.265 32.5674 110.327 32.3495 110.415 32.1351C110.503 31.9207 110.642 31.7605 110.832 31.6543C111.033 31.5476 111.271 31.5219 111.547 31.5773C111.635 32.177 111.711 33.1689 111.775 34.553C111.848 35.926 111.919 36.913 111.985 37.5141C112.121 37.6515 112.325 37.8629 112.598 38.1481C113.018 37.9021 113.691 37.5511 114.617 37.0952C116.492 36.7456 117.993 36.6391 119.121 36.7757C119.582 37.0697 119.912 37.2835 120.11 37.4169C120.309 37.5503 120.591 37.7567 120.957 38.0359C121.322 38.3048 121.625 38.5777 121.865 38.8545C122.105 39.121 122.315 39.4102 122.496 39.7222C122.611 39.9967 122.697 40.3043 122.754 40.645C122.811 40.9754 122.838 41.2607 122.835 41.5009C122.843 41.7301 122.842 42.0589 122.833 42.4874C122.833 42.9049 122.834 43.197 122.837 43.3639C122.285 44.3385 121.526 45.149 120.563 45.7951C119.598 46.4309 118.582 46.8768 117.515 47.133C116.448 47.3787 115.333 47.4866 114.171 47.4566C113.822 47.3954 113.505 47.2904 113.222 47.1415C112.939 46.9926 112.695 46.7995 112.489 46.5622C112.282 46.3145 112.101 46.0652 111.946 45.8142C111.801 45.5625 111.669 45.2631 111.548 44.9159C111.428 44.5688 111.331 44.2619 111.258 43.9951C111.186 43.7284 111.11 43.4202 111.031 43.0703C110.526 39.7419 110.255 36.5394 110.218 33.4627ZM112.543 40.2965C112.646 42.1895 112.764 43.6065 112.899 44.5477C113.008 44.6138 113.176 44.7544 113.401 44.9696C113.626 45.1744 113.836 45.3331 114.033 45.4458C114.23 45.5585 114.442 45.6075 114.671 45.5928C115.361 45.6009 116.031 45.5476 116.68 45.433C117.339 45.3073 117.983 45.1148 118.61 44.8554C119.249 44.5954 119.795 44.2213 120.248 43.733C120.711 43.2337 121.027 42.6447 121.194 41.966C121.143 41.4266 121.102 41.0274 121.072 40.7684C121.024 40.6879 120.928 40.5271 120.784 40.2858C120.639 40.0341 120.543 39.868 120.495 39.7876C119.973 39.247 119.349 38.8642 118.621 38.6394C117.904 38.4139 117.183 38.3453 116.459 38.4334C115.733 38.5111 115.023 38.7131 114.327 39.0394C113.641 39.3651 113.047 39.7841 112.543 40.2965ZM124.818 30.7438C124.914 30.7689 125.037 30.808 125.188 30.861C125.348 30.903 125.519 30.9547 125.701 31.0161C125.893 31.0664 126.026 31.0996 126.1 31.1158C126.454 32.6065 126.735 34.222 126.941 35.9622C127.146 37.6921 127.277 39.2754 127.335 40.712C127.392 42.1383 127.423 43.7749 127.428 45.622C127.16 45.6704 126.538 45.8041 125.563 46.0231C125.498 45.1714 125.47 44.333 125.48 43.5078C125.637 42.548 125.702 41.4897 125.676 40.3328C125.651 39.1759 125.564 38.1117 125.417 37.14C125.28 36.1677 125.152 35.1061 125.032 33.9552C124.912 32.7939 124.841 31.7234 124.818 30.7438ZM26.6629 67.0053C26.4398 67.0926 26.2199 67.0858 26.0033 66.9849C25.7962 66.8729 25.6532 66.7098 25.5741 66.4957C25.4943 66.2712 25.4984 66.0517 25.5865 65.8373L25.8123 65.3063C25.954 64.9736 26.0801 64.7099 26.1906 64.5149C26.2971 64.268 26.5456 63.8973 26.936 63.4026C27.3442 62.8651 27.7734 62.3993 28.2238 62.0051C28.6638 61.6117 29.0134 61.3336 29.2726 61.1709C29.5406 60.9868 30.0041 60.764 30.6631 60.5027C31.3725 60.2172 32.0167 60.1029 32.5956 60.1598C33.1945 60.205 33.8021 60.4323 34.4183 60.8416C35.0034 61.253 35.4078 61.6237 35.6315 61.9538C35.8001 62.2457 36.0037 62.7233 36.2424 63.3864C36.4627 64.082 36.5919 64.747 36.6299 65.3812C36.6559 65.9953 36.5803 66.7151 36.4032 67.5405C36.2307 68.4283 35.8576 69.2871 35.2838 70.1171C34.7469 70.882 34.1875 71.5597 33.6059 72.1501C33.0554 72.7385 32.4818 73.2971 31.8849 73.8258C31.3489 74.3298 30.7601 74.8945 30.1184 75.5201C29.476 76.1352 29.0483 76.554 28.8355 76.7763C28.6323 76.9877 28.3627 77.2867 28.0266 77.6735C27.6921 78.0811 27.4393 78.3947 27.268 78.6144C27.268 78.6144 27.2592 78.6359 27.2416 78.6787C27.4495 78.6654 27.6314 78.6538 27.7874 78.6438C28.0457 78.6064 28.3091 78.5687 28.5778 78.5306C28.8569 78.4919 29.4291 78.3927 30.2944 78.2329C31.1789 78.0511 31.8003 77.9122 32.1585 77.8162C32.5592 77.7279 32.9443 77.6406 33.3137 77.5544C33.716 77.4869 34.3517 77.3992 35.221 77.2914C36.0902 77.1836 36.6652 77.1208 36.9459 77.1028C37.2473 77.0835 37.5764 77.0833 37.933 77.1023L38.4523 77.1316C38.693 77.1371 38.8988 77.2335 39.0699 77.4209C39.2401 77.5979 39.3183 77.8016 39.3046 78.0321C39.2901 78.2522 39.1956 78.4514 39.0212 78.6295C38.8564 78.7966 38.6588 78.8771 38.4285 78.871L37.9092 78.8416C37.5838 78.8206 37.3063 78.8123 37.0768 78.8165C36.8169 78.8332 36.2735 78.8993 35.4467 79.0148C34.6294 79.1193 34.0404 79.2039 33.6798 79.2688C33.3191 79.3336 32.9592 79.4088 32.6002 79.4944C32.1995 79.5827 31.5569 79.7177 30.6725 79.8995C29.7672 80.0827 29.1546 80.2002 28.8347 80.252C28.5349 80.292 28.261 80.3304 28.0131 80.3672C27.7324 80.3851 27.3685 80.4084 26.9215 80.437C26.4849 80.465 26.1567 80.4755 25.9368 80.4687C25.6545 80.4659 25.3768 80.3167 25.1035 80.0211C24.8405 79.7248 24.7944 79.3937 24.9649 79.028C25.0353 78.8564 25.1542 78.6349 25.3215 78.3632C25.4719 78.1449 25.6464 77.8989 25.8449 77.6252C26.0329 77.3523 26.3194 77 26.7043 76.5683C27.0579 76.1386 27.346 75.8071 27.5684 75.5736C27.8004 75.3292 28.2373 74.8942 28.8789 74.2686C29.5302 73.6321 30.1446 73.0604 30.7222 72.5538C31.279 72.0485 31.8283 71.5124 32.37 70.9454C32.882 70.4012 33.3781 69.785 33.8583 69.0967C34.3016 68.4735 34.5871 67.8342 34.7146 67.1789C34.8701 66.4801 34.93 65.897 34.8943 65.4296C34.8794 64.9609 34.7837 64.4608 34.6073 63.9294C34.4309 63.3979 34.2787 63.0476 34.1509 62.8783C34.0774 62.7369 33.848 62.5376 33.4628 62.2805C33.0983 62.022 32.7805 61.8962 32.5094 61.9031C32.184 61.8822 31.7826 61.9601 31.3051 62.1367C30.7668 62.3382 30.4033 62.5023 30.2145 62.6292C30.0353 62.7451 29.7549 62.9718 29.3733 63.3093C29.0117 63.6351 28.6597 64.0177 28.3172 64.4571C27.9851 64.8959 27.7874 65.1799 27.7242 65.3092C27.6521 65.4599 27.5452 65.7016 27.4035 66.0342L27.1442 66.5361C27.0561 66.7505 26.8957 66.9069 26.6629 67.0053ZM53.6602 59.6104C53.84 59.7763 53.9339 59.9791 53.9417 60.2186C53.9488 60.4478 53.8699 60.6459 53.7051 60.813C53.5403 60.9801 53.3384 61.0713 53.0993 61.0866L52.6447 61.0844C52.3224 61.105 51.8946 61.1115 51.3613 61.1039C50.8087 61.1184 50.3601 61.1262 50.0155 61.1274C49.7125 61.1259 49.1095 61.1645 48.2067 61.2431C47.2935 61.3224 46.6822 61.3876 46.3727 61.4388C46.0632 61.4899 45.6865 61.5505 45.2427 61.6206C44.8405 61.6881 44.4966 61.7675 44.2111 61.8589C44.1966 61.9433 44.1838 62.0485 44.1725 62.1745C44.1508 62.4368 44.1218 62.6735 44.0857 62.8845C44.0569 63.0534 44.0143 63.4527 43.9579 64.0825C43.8992 64.6812 43.8702 65.1214 43.8708 65.4032C43.8522 65.7071 43.8212 66.1892 43.7776 66.8495C43.7237 67.5105 43.6986 68.0026 43.7024 68.3259C43.6848 68.3688 43.678 68.4162 43.682 68.4681C43.7843 68.4407 43.9003 68.3863 44.0299 68.305C44.3234 68.1818 44.6813 68.0128 45.1037 67.7979C45.578 67.5797 46.097 67.3325 46.6609 67.0564C47.2168 66.8121 47.7339 66.6068 48.2121 66.4405C48.6896 66.2638 49.2498 66.1445 49.8927 66.0825C50.598 66.0164 51.2541 66.058 51.8609 66.207C52.5109 66.3742 53.0629 66.6259 53.5169 66.9621C53.9501 67.2997 54.374 67.7892 54.7887 68.4307C55.2217 69.0396 55.5001 69.5384 55.6238 69.9271C55.7475 70.3158 55.8411 70.9256 55.9046 71.7565C55.9473 72.5888 55.9206 73.1959 55.8244 73.5777C55.7051 73.9298 55.4474 74.3847 55.0512 74.9423C54.6655 75.4993 54.1346 76.0708 53.4586 76.6568C52.8114 77.2096 52.339 77.5895 52.0414 77.7964C51.7535 77.9922 51.4547 78.1836 51.1451 78.3704C50.7924 78.5391 50.233 78.7366 49.4668 78.9631C48.6671 79.1604 47.9745 79.2569 47.3892 79.2526C46.7935 79.249 46.3402 79.1945 46.0292 79.0891C45.6766 78.9864 45.2138 78.6716 44.6408 78.1447C44.1117 77.6462 43.7725 77.24 43.6232 76.926C43.4546 76.6341 43.2945 76.2478 43.1428 75.7669C43.0016 75.2854 42.9095 74.8999 42.8664 74.6104C42.8355 74.2054 42.8865 73.8472 43.0194 73.536C43.1283 73.3203 43.2979 73.1477 43.5282 73.0182C43.7682 72.8776 43.9929 72.811 44.2024 72.8185L44.5323 72.8287C44.7745 72.8549 44.976 72.962 45.1366 73.1501C45.2964 73.3277 45.3647 73.5373 45.3413 73.7789C45.3348 73.9671 45.2592 74.139 45.1143 74.2944C44.9791 74.4387 44.8188 74.5272 44.6332 74.56C44.6667 74.7248 44.7269 74.9663 44.8139 75.2843C44.9265 75.6632 45.0307 75.9331 45.1265 76.094C45.2 76.2354 45.4341 76.497 45.8289 76.8788C46.155 77.1815 46.394 77.3697 46.5459 77.4435C46.6962 77.4965 46.98 77.5201 47.3974 77.5143C47.8268 77.5285 48.3538 77.4531 48.9784 77.2879C49.6238 77.1213 50.062 76.9785 50.2932 76.8593C50.5644 76.7167 50.8187 76.5595 51.0563 76.3878C51.3035 76.205 51.7263 75.8596 52.3247 75.3516C52.8831 74.8671 53.3176 74.4009 53.6281 73.9531C53.921 73.5482 54.0911 73.2451 54.1383 73.0437C54.188 72.8736 54.199 72.471 54.1714 71.8361C54.1214 71.1818 54.0553 70.7268 53.9731 70.4711C53.8909 70.2155 53.696 69.8522 53.3884 69.3813C53.0496 68.9125 52.7412 68.5669 52.463 68.3446C52.2081 68.1522 51.8675 68.0018 51.4414 67.8934C51.0248 67.7739 50.5731 67.7402 50.0861 67.7922C49.5783 67.8456 49.1464 67.9358 48.7905 68.063C48.3931 68.1928 47.9376 68.3837 47.4241 68.6357C46.889 68.8787 46.3795 69.1149 45.8956 69.3441C45.4229 69.5831 45.0454 69.7691 44.763 69.9019C44.4487 70.0264 44.2048 70.1151 44.0312 70.1679C43.8281 70.2436 43.5854 70.28 43.3031 70.2771C43.0224 70.2951 42.7762 70.2169 42.5644 70.0426C42.3518 69.8579 42.2056 69.6533 42.1257 69.4288C42.0164 69.0914 41.9654 68.698 41.9729 68.2487C41.9883 67.9033 42.0126 67.4008 42.0457 66.7411C42.0805 66.1022 42.1071 65.6309 42.1257 65.327C42.1235 65.0245 42.1657 64.5521 42.2524 63.9099C42.308 63.2696 42.3482 62.8391 42.3731 62.6184C42.402 62.4495 42.4265 62.2236 42.4467 61.9405C42.486 61.6353 42.5285 61.3716 42.5743 61.1495C42.7257 60.6701 43.1085 60.3482 43.7227 60.1836C44.0609 60.0994 44.4616 60.0111 44.9246 59.9189C45.3893 59.8474 45.7871 59.7906 46.1182 59.7486C46.4492 59.7065 47.0914 59.6341 48.0446 59.5314C48.9786 59.4507 49.6283 59.4091 49.9937 59.4066C50.3383 59.4055 50.7869 59.3976 51.3395 59.3832C51.8728 59.3908 52.285 59.3853 52.5761 59.3666L53.0307 59.3689C53.2698 59.3536 53.4796 59.4341 53.6602 59.6104ZM81.4727 63.4981C81.0865 63.502 80.778 63.9079 80.5473 64.7159C78.9454 69.3168 77.7062 72.4437 76.8297 74.0967C76.7361 74.2384 76.6212 74.444 76.4851 74.7137C76.1368 75.4874 75.7906 76.1515 75.4465 76.7058C75.1143 77.2802 74.8526 77.6831 74.6614 77.9146C74.4741 78.1979 74.3337 78.3426 74.2401 78.3486C73.9282 78.3685 73.708 78.2887 73.5794 78.109C73.4419 77.9508 73.3569 77.6588 73.3244 77.233C73.2823 76.6825 73.6946 75.8577 74.5612 74.7585C75.4631 73.4379 76.5539 71.2389 77.8334 68.1616C79.0776 65.3057 80.0678 62.7478 80.8039 60.488C80.8785 60.0971 81.0094 59.8956 81.1965 59.8837C81.3005 59.877 81.5239 59.9306 81.8669 60.0443C82.1595 60.1821 82.3421 60.3166 82.4148 60.4476C82.5378 60.6902 82.8307 61.6526 83.2935 63.3346C84.1369 66.5788 84.9698 69.14 85.7924 71.0183C86.6244 73.0212 87.4569 74.3456 88.2897 74.9916C88.5974 75.1911 88.7797 75.3203 88.8364 75.3793C88.8572 75.378 88.8672 75.3721 88.8664 75.3618C88.891 75.6837 88.8357 75.9847 88.7004 76.2648C88.5651 76.5448 88.4322 76.7203 88.3019 76.7912C88.1619 76.8733 87.8216 76.9316 87.2811 76.9661C87.0397 76.8146 86.5778 76.3066 85.8954 75.4423C85.0652 74.4204 83.979 71.484 82.6368 66.6331C82.2953 65.3085 82.0235 64.4179 81.8215 63.9611L81.6922 63.4997L81.4727 63.4981ZM93.2418 67.2069C93.3873 67.1976 93.5336 67.1987 93.6808 67.2102C93.8471 67.1995 94.1965 67.1928 94.7291 67.19C95.2712 67.1762 95.6618 67.1617 95.9009 67.1464C96.14 67.1311 96.3679 67.1061 96.5846 67.0713C96.8006 67.0262 97.2068 66.9428 97.8034 66.8211C98.3912 66.7209 98.7666 66.6447 98.9298 66.5925C99.1033 66.5396 99.3413 66.4409 99.6436 66.2963C99.9164 66.1745 100.092 66.085 100.172 66.0277C100.229 65.9614 100.31 65.8623 100.415 65.7303C100.492 65.6419 100.556 65.5178 100.606 65.358C100.654 65.1671 100.685 65.0294 100.7 64.945C100.694 64.8619 100.648 64.6717 100.562 64.3745C100.477 64.0773 100.41 63.8885 100.362 63.808C100.294 63.7289 100.153 63.597 99.9403 63.4123C99.7373 63.2166 99.5339 63.0835 99.33 63.013C99.0814 62.9037 98.8668 62.8287 98.6861 62.7881C98.5046 62.7371 98.1992 62.7044 97.7698 62.6901C97.3596 62.6538 97.0209 62.665 96.7538 62.7238C96.4955 62.7612 96.1952 62.864 95.8529 63.032C95.5098 63.1896 95.2686 63.3146 95.1294 63.407C94.9918 63.5202 94.7986 63.7257 94.5498 64.0234C94.3001 64.3107 94.0684 64.6961 93.8546 65.1794C93.6113 65.6856 93.4667 66.0497 93.421 66.2718C93.3713 66.442 93.3116 66.7537 93.2418 67.2069ZM91.3848 67.7172C91.4136 67.5483 91.4413 67.3639 91.4678 67.1639C91.565 66.521 91.66 66.0557 91.7529 65.7679C91.8354 65.4809 92.016 65.0414 92.2946 64.4495C92.5924 63.8355 92.9033 63.3251 93.2274 62.9182C93.5427 62.5327 93.8135 62.2492 94.0399 62.0677C94.2855 61.8642 94.6407 61.6588 95.1054 61.4516C95.5797 61.2334 96.0279 61.0847 96.4502 61.0055C96.8524 60.938 97.321 60.9185 97.8559 60.9468C98.3909 60.9752 98.797 61.0275 99.0745 61.1037C99.3511 61.1695 99.6561 61.2648 99.9895 61.3896C100.368 61.5533 100.725 61.7913 101.063 62.1037C101.432 62.4245 101.676 62.6855 101.796 62.8865C101.937 63.0863 102.083 63.4266 102.235 63.9074C102.376 64.3889 102.445 64.7498 102.443 64.99C102.439 65.2198 102.383 65.5104 102.274 65.8618C102.156 66.2347 102.004 66.5576 101.815 66.8305C101.623 67.0516 101.444 67.2301 101.277 67.366C101.099 67.5026 100.799 67.6732 100.376 67.8777C100 68.0269 99.6961 68.1456 99.4626 68.2336C99.2387 68.3105 98.8024 68.4115 98.1539 68.5365C97.5469 68.6588 97.109 68.739 96.8404 68.7771C96.5717 68.8152 96.3022 68.8428 96.0319 68.8601C95.7928 68.8754 95.3918 68.8907 94.8288 68.9058C94.2659 68.9209 93.8957 68.929 93.7182 68.9299C93.551 68.9302 93.3947 68.9349 93.2492 68.9443C93.1868 68.9482 93.1088 68.9532 93.0153 68.9592C93.0072 69.1267 92.9987 69.2891 92.9898 69.4462C92.9849 69.6552 93.031 70.0541 93.1283 70.6428C93.2247 71.2211 93.3008 71.6024 93.3567 71.7867C93.4142 71.9918 93.498 72.2004 93.6082 72.4125C93.6849 72.5955 93.843 72.888 94.0827 73.2902C94.2976 73.6417 94.5005 73.9053 94.6916 74.081C94.9177 74.3066 95.1127 74.4663 95.2766 74.5602C95.4093 74.6561 95.6743 74.7748 96.0716 74.9164C96.4705 75.0787 96.8243 75.197 97.1329 75.2712C97.4407 75.335 97.7929 75.3646 98.1896 75.3601C98.6189 75.3744 98.9108 75.3661 99.0651 75.3354C99.1899 75.3274 99.4286 75.2391 99.7814 75.0704C100.094 74.9251 100.3 74.8128 100.398 74.7335C100.496 74.6437 100.582 74.5391 100.656 74.4195C100.731 74.2999 100.834 74.0845 100.967 73.7734C101.088 73.4421 101.173 73.1861 101.222 73.0056C101.27 72.8146 101.309 72.6451 101.34 72.4971L101.383 72.2438C101.406 72.0022 101.512 71.8128 101.7 71.6756C101.898 71.5376 102.113 71.4821 102.345 71.509C102.588 71.5353 102.779 71.6483 102.92 71.848C103.07 72.0367 103.133 72.2466 103.109 72.4778L103.069 72.7778C103.023 72.9895 102.962 73.223 102.888 73.4783C102.823 73.7225 102.711 74.0427 102.554 74.439C102.397 74.856 102.244 75.1737 102.094 75.3921C101.953 75.5994 101.79 75.7925 101.605 75.9713C101.412 76.1716 101.058 76.3977 100.544 76.6497C100.029 76.8706 99.6315 77.0056 99.3532 77.0547C99.0949 77.0921 98.7095 77.1064 98.197 77.0974C97.6636 77.0898 97.1899 77.0418 96.7757 76.9535C96.3608 76.8548 95.9219 76.7159 95.459 76.5368C94.9521 76.3292 94.5728 76.1499 94.321 75.999C94.1004 75.8462 93.8383 75.6281 93.5346 75.3449C93.2085 75.0422 92.9013 74.6443 92.6129 74.1514C92.3173 73.7006 92.1172 73.3377 92.0126 73.0626C91.8888 72.8096 91.7862 72.5604 91.7048 72.3151C91.621 72.0387 91.5221 71.5649 91.4081 70.8938C91.3038 70.2116 91.2561 69.7241 91.265 69.4313C91.2644 69.1495 91.2742 68.8671 91.2943 68.584C91.2896 68.5217 91.2952 68.4587 91.3112 68.3951C91.3065 68.3327 91.3025 68.2808 91.2993 68.2393C91.265 68.064 91.2935 67.89 91.3848 67.7172ZM105.709 60.5696C105.807 60.3546 105.963 60.2089 106.177 60.1326C106.401 60.0557 106.621 60.0677 106.838 60.1686C107.065 60.2689 107.218 60.4261 107.297 60.6402L107.456 61.084C107.589 61.4617 107.655 61.9063 107.652 62.4179C107.664 62.8451 107.704 63.5053 107.772 64.3985C107.818 65.2723 107.853 65.865 107.877 66.1766C107.922 66.4972 107.969 66.8386 108.018 67.2008C108.027 67.3255 108.05 67.4858 108.086 67.6818C108.151 67.4376 108.228 67.1508 108.318 66.8215C108.535 65.9727 108.787 65.2364 109.073 64.6127C109.37 63.9883 109.618 63.5393 109.816 63.2657C109.984 62.9941 110.274 62.6258 110.688 62.161C111.139 61.6416 111.568 61.2384 111.974 60.9515C112.379 60.6438 112.78 60.425 113.178 60.2952C113.594 60.1433 113.965 60.0674 114.289 60.0676C114.633 60.0664 115 60.1473 115.388 60.3103C115.766 60.474 116.048 60.67 116.232 60.8982C116.394 61.0966 116.629 61.5095 116.938 62.1368C117.191 62.7155 117.367 63.1739 117.466 63.512C117.555 63.8508 117.675 64.3336 117.828 64.9605C117.888 65.1968 117.951 65.4171 118.019 65.6215C118.116 65.25 118.302 64.7475 118.578 64.1141C118.886 63.3638 119.124 62.8528 119.291 62.5812C119.458 62.2991 119.689 61.9713 119.984 61.5975C120.318 61.1899 120.614 60.8892 120.871 60.6953C121.135 60.4697 121.456 60.2926 121.833 60.1641C122.333 60.0069 122.858 60.0463 123.409 60.2824C123.938 60.5095 124.362 60.8581 124.68 61.3283C124.898 61.7214 125.065 62.0604 125.18 62.3452C125.264 62.6217 125.399 63.161 125.586 63.9631C125.795 64.7847 125.93 65.3867 125.991 65.769C126.061 66.1402 126.166 66.6971 126.306 67.4396C126.426 68.1834 126.526 68.8085 126.606 69.3147C126.687 69.821 126.746 70.3286 126.785 70.8375C126.843 71.3244 126.897 71.7489 126.945 72.1111C126.994 72.4733 127.035 72.7368 127.068 72.9016L127.12 73.1645C127.159 73.4021 127.112 73.6138 126.98 73.7997C126.848 73.9855 126.663 74.0965 126.426 74.1326C126.199 74.168 125.986 74.119 125.788 73.9855C125.599 73.8411 125.475 73.6559 125.416 73.4301L125.399 73.1964C125.363 73.0107 125.31 72.7271 125.24 72.3455C125.189 71.9625 125.128 71.5072 125.057 70.9795C125.019 70.4913 124.961 70.0045 124.883 69.519C124.804 69.0335 124.706 68.4344 124.588 67.7217C124.471 66.9987 124.376 66.4463 124.305 66.0647C124.236 65.7038 124.103 65.133 123.908 64.3523C123.723 63.5709 123.591 63.0784 123.513 62.8746C123.459 62.7111 123.358 62.4931 123.212 62.2207C123.116 62.0598 122.966 61.939 122.761 61.8581C122.61 61.7843 122.503 61.7598 122.442 61.7846C122.259 61.8381 122.103 61.9211 121.976 62.0336C121.798 62.1703 121.59 62.3871 121.352 62.6841C121.073 63.0046 120.874 63.2731 120.755 63.4895C120.635 63.6954 120.434 64.1363 120.151 64.8119C119.868 65.4771 119.695 65.9474 119.632 66.2228C119.572 66.5293 119.492 66.9884 119.393 67.6002C119.303 68.2008 119.24 68.8206 119.206 69.4595C119.157 70.1932 119.128 70.6334 119.119 70.7802C119.095 71.0217 119.051 71.3272 118.985 71.6968C118.93 72.0656 118.887 72.3344 118.858 72.5033C118.838 72.5046 118.818 72.5163 118.799 72.5384C118.779 72.5605 118.735 72.5895 118.664 72.6253C118.594 72.6611 118.518 72.6973 118.437 72.7338C118.367 72.7696 118.281 72.8064 118.179 72.8442C118.078 72.882 117.981 72.9091 117.888 72.9255C117.806 72.9412 117.723 72.9517 117.64 72.957C117.556 72.9623 117.477 72.9517 117.402 72.9252C117.327 72.8987 117.261 72.856 117.204 72.797C117.158 72.7373 117.131 72.6556 117.123 72.5517C117.11 72.3855 117.098 72.2976 117.087 72.2879C117.075 72.2678 117.078 72.2363 117.096 72.1934C117.113 72.1505 117.134 72.0865 117.159 72.0014C117.186 71.8118 117.201 71.5865 117.202 71.3255C117.201 71.0438 117.183 70.6692 117.147 70.2018C117.091 69.7358 117.009 69.2191 116.903 68.6518C116.775 68.0651 116.654 67.5145 116.542 66.9998C116.442 66.5156 116.317 65.9653 116.165 65.3487C116.013 64.7218 115.89 64.2757 115.796 64.0103C115.735 63.7533 115.59 63.3659 115.363 62.8482C115.185 62.4317 115.044 62.1641 114.941 62.0454C114.896 62.0065 114.808 61.9443 114.676 61.8588C114.547 61.8045 114.425 61.781 114.31 61.7883C114.205 61.7742 114.041 61.816 113.819 61.9137C113.543 61.994 113.261 62.1425 112.975 62.3591C112.688 62.5653 112.372 62.8726 112.027 63.2808C111.632 63.7132 111.37 64.043 111.241 64.2705C111.108 64.446 110.916 64.8027 110.664 65.3406C110.413 65.8786 110.186 66.5298 109.983 67.2942C109.761 68.0808 109.626 68.6374 109.578 68.964C109.537 69.2484 109.478 69.7741 109.401 70.5409C109.356 71.3162 109.329 71.8554 109.321 72.1586C109.312 72.4514 109.315 72.8322 109.33 73.3009C109.345 73.7696 109.36 74.1026 109.375 74.3C109.378 74.3415 109.387 74.3879 109.401 74.4392C109.415 74.4904 109.439 74.5933 109.472 74.7478C109.504 74.8919 109.481 75.0029 109.403 75.0809C109.336 75.1583 109.232 75.238 109.092 75.32C108.952 75.402 108.718 75.4118 108.389 75.3493C107.957 75.2935 107.677 75.1862 107.55 75.0273C107.422 74.858 107.406 74.7078 107.5 74.5765L107.61 74.3816C107.57 74.1232 107.532 73.9012 107.497 73.7156C107.46 73.5092 107.388 73.1068 107.279 72.5084C107.171 71.91 107.078 71.4514 107.002 71.1328C106.935 70.8031 106.815 70.1949 106.643 69.3084C106.471 68.4218 106.36 67.787 106.309 67.4041C106.261 67.0419 106.213 66.6901 106.166 66.3486C106.14 66.0059 106.103 65.382 106.054 64.4771C105.985 63.5631 105.943 62.8769 105.928 62.4186C105.925 62.0953 105.894 61.8311 105.837 61.626L105.681 61.2289C105.6 60.994 105.61 60.7743 105.709 60.5696Z" fill="#242424"/>
</svg>
