<svg width="229" height="100" viewBox="0 0 229 100" fill="none" xmlns="http://www.w3.org/2000/svg">
<path d="M14 31.0122C74.1666 22.6789 195.107 9.69783 201 23.0122C217 59.1626 34 38.6626 17.5002 71.1625C8.91109 88.0807 134 67.6626 215 75.6626" stroke="#0CE9CA" stroke-width="28" stroke-linecap="round"/>
<path d="M37.9789 31.3057C37.7906 31.1517 37.688 30.9553 37.6713 30.7163C37.6538 30.4669 37.7223 30.2533 37.8769 30.0754C38.0412 29.8865 38.2376 29.784 38.4663 29.7681L39.1677 29.7192C39.5937 29.6895 39.8944 29.6581 40.0695 29.625C40.215 29.6148 40.4273 29.5896 40.7064 29.5492C40.7378 29.4009 40.7688 29.2473 40.7994 29.0885C41.1595 27.8208 41.4976 26.6852 41.8136 25.6816C42.1295 24.678 42.4011 23.8603 42.6283 23.2284C42.8451 22.5972 43.0757 21.9389 43.32 21.2536C43.4414 20.9006 43.5609 20.5946 43.6785 20.3358C43.4231 20.4163 43.1729 20.4964 42.9279 20.5761C42.3487 20.8045 41.6206 21.0693 40.7437 21.3706C39.8661 21.6615 39.2168 21.8582 38.7959 21.9606C38.3742 22.0527 37.7914 22.1559 37.0476 22.2705C36.3023 22.3642 35.5512 22.4479 34.794 22.5216C34.0043 22.5766 33.4788 22.6028 33.2175 22.6001C33.0498 22.591 32.8457 22.5843 32.6053 22.5802L32.2312 22.6063C31.9907 22.6021 31.7812 22.5176 31.6025 22.3525C31.4335 22.1763 31.3514 21.9732 31.3562 21.7432C31.3706 21.502 31.4606 21.2973 31.6264 21.1291C31.7914 20.9506 31.9941 20.8633 32.2345 20.8674L32.5796 20.8747C32.8394 20.8566 33.0792 20.8503 33.2988 20.8559C33.4666 20.8651 33.9141 20.8443 34.6415 20.7936C35.3883 20.7207 36.1083 20.6391 36.8016 20.549C37.5038 20.4374 38.0405 20.3478 38.4117 20.2801C38.771 20.1924 39.3684 19.9994 40.2037 19.701C41.062 19.4323 41.7707 19.1897 42.3299 18.9732C42.9091 18.7449 43.4749 18.5488 44.0273 18.385C44.1297 18.3569 44.28 18.3412 44.4782 18.3379C44.6868 18.3338 44.9183 18.3594 45.1728 18.4147C45.4377 18.4694 45.6245 18.6025 45.7333 18.8142C45.8518 19.0148 45.8563 19.3016 45.7467 19.6747C45.6238 20.007 45.5233 20.2855 45.445 20.5103C45.3668 20.735 45.2048 21.1796 44.9591 21.8442C44.7125 22.4983 44.4757 23.1413 44.2485 23.7733C44.031 24.3941 43.7643 25.2062 43.4483 26.2098C43.1472 27.1288 42.8442 28.168 42.5392 29.3275C42.7262 29.3144 42.94 29.31 43.1804 29.3141C43.6495 29.3023 44.0509 29.3683 44.3847 29.5121L44.6951 29.694C44.8894 29.7849 45.0261 29.9477 45.1053 30.1823C45.1836 30.4066 45.173 30.6266 45.0732 30.8424C44.9728 31.0478 44.8052 31.19 44.5706 31.269C44.3464 31.3473 44.1208 31.3317 43.8938 31.2222L43.6023 31.0859C43.537 31.0487 43.4161 31.0362 43.2394 31.0486C42.9158 31.0502 42.6197 31.0709 42.3509 31.1105C42.2678 31.1163 42.1743 31.1228 42.0704 31.1301C41.9741 31.544 41.8961 31.847 41.8365 32.0392C41.7432 32.4947 41.6199 33.1193 41.4667 33.9132C41.3232 34.6959 41.2316 35.2505 41.1918 35.5769C41.1298 35.8841 41.061 36.317 40.9853 36.8757C40.9007 37.4559 40.8542 37.8351 40.8458 38.0132L40.8343 38.2959C40.8303 38.5363 40.7346 38.7362 40.5474 38.8954C40.3706 39.0539 40.1619 39.1311 39.9215 39.127C39.6914 39.1222 39.4919 39.0317 39.3229 38.8555C39.1635 38.6682 39.0966 38.4588 39.1222 38.2273L39.1326 37.929C39.1366 37.6885 39.1858 37.2727 39.28 36.6813C39.3424 36.0818 39.4035 35.6129 39.4633 35.2746C39.5239 34.9466 39.6255 34.3861 39.7683 33.593C39.9207 32.7888 40.0488 32.1586 40.1526 31.7023C40.1661 31.597 40.1892 31.4805 40.2221 31.3529C40.0157 31.3882 39.7047 31.4203 39.289 31.4493L38.6188 31.496C38.3798 31.5127 38.1665 31.4492 37.9789 31.3057ZM57.9848 36.9435C58.0665 36.9169 58.1586 36.8896 58.261 36.8616C58.4036 36.8099 58.7234 36.6049 59.2203 36.2465C59.6876 35.9111 59.983 35.6556 60.1064 35.4799C60.2298 35.3042 60.4145 34.811 60.6605 34.0003C60.9451 33.1451 61.1155 32.5223 61.1717 32.1321C61.2264 31.721 61.2736 31.0547 61.3134 30.133C61.3636 29.2106 61.3723 28.5156 61.3395 28.048C61.326 27.5582 61.2737 26.9614 61.1826 26.2577C61.1137 25.5733 60.9621 24.8269 60.7279 24.0183C60.5048 23.2194 60.3182 22.6424 60.168 22.2874C60.0429 21.9933 59.7095 21.5571 59.1677 20.9788C58.6363 20.3998 58.2731 20.0596 58.078 19.9584C57.8614 19.8482 57.5098 19.7474 57.023 19.656C56.5882 19.561 56.2116 19.5508 55.8931 19.6252C55.585 19.6989 55.217 19.8864 54.7891 20.1877C54.3426 20.5216 54.0276 20.7942 53.844 21.0054C53.6715 21.2263 53.391 21.7679 53.0025 22.6304C52.5947 23.515 52.3419 24.154 52.2441 24.5471C52.1271 24.9625 52.0019 25.6343 51.8686 26.5625C51.7471 27.5108 51.6754 28.1997 51.6533 28.6294C51.6208 29.0598 51.6514 29.7938 51.7451 30.8314C51.8358 31.8275 52.0039 32.6616 52.2495 33.3337C52.4617 33.9767 52.6952 34.4773 52.95 34.8355C53.2153 35.1929 53.5959 35.5579 54.0919 35.9306C54.5212 36.2452 55.0275 36.4657 55.6107 36.5922C56.234 36.6949 56.6236 36.7408 56.7794 36.7299L57.1981 36.6694C57.498 36.6276 57.7602 36.719 57.9848 36.9435ZM55.4493 38.3107C55.3869 38.315 55.3342 38.3082 55.2912 38.2904C54.4431 38.1093 53.6888 37.7756 53.0281 37.2891C52.4223 36.8406 51.935 36.3681 51.566 35.8717C51.2067 35.3642 50.8891 34.7076 50.6134 33.902C50.3175 33.1081 50.1239 32.1348 50.0327 30.9822C49.9324 29.851 49.8964 29.039 49.9245 28.5463C49.9526 28.0536 50.0363 27.3116 50.1756 26.3203C50.2942 25.3305 50.4254 24.5956 50.5692 24.1157C50.6819 23.638 50.9645 22.903 51.417 21.9108C51.88 20.9178 52.2359 20.2613 52.485 19.9411C52.7637 19.598 53.1962 19.2128 53.7823 18.7856C54.4086 18.3347 54.9941 18.0485 55.5391 17.9269C56.0944 17.8047 56.7111 17.8139 57.3893 17.9546C58.014 18.0781 58.5048 18.2266 58.8615 18.4001C59.242 18.6138 59.7654 19.0785 60.4317 19.7943C61.0987 20.5205 61.5377 21.1216 61.7486 21.5977C61.9239 22.0136 62.1424 22.6718 62.404 23.5725C62.6344 24.4753 62.7973 25.3098 62.8928 26.0758C62.9868 26.8211 63.0413 27.449 63.0562 27.9596C63.0934 28.4896 63.0891 29.2469 63.0433 30.2317C62.9968 31.206 62.9483 31.9299 62.898 32.4033C62.8269 32.8781 62.6415 33.5854 62.3419 34.5252C62.0245 35.508 61.742 36.1699 61.4944 36.5108C61.2565 36.8407 60.8289 37.2203 60.2116 37.6497C59.6269 38.0977 59.1764 38.3745 58.8601 38.4801C58.5854 38.5828 58.3244 38.6584 58.0772 38.707C57.7787 38.7695 57.3724 38.7822 56.8581 38.745L56.1835 38.7294C55.8814 38.74 55.6367 38.6004 55.4493 38.3107ZM74.5384 35.7894C74.6201 35.7628 74.7121 35.7355 74.8146 35.7074C74.9572 35.6557 75.2769 35.4507 75.7739 35.0924C76.2412 34.757 76.5365 34.5014 76.6599 34.3258C76.7834 34.1501 76.9681 33.6569 77.214 32.8461C77.4987 31.9909 77.6691 31.3682 77.7252 30.9779C77.7799 30.5669 77.8272 29.9005 77.867 28.9789C77.9171 28.0565 77.9258 27.3615 77.893 26.8939C77.8796 26.404 77.8273 25.8073 77.7361 25.1036C77.6673 24.4192 77.5157 23.6727 77.2815 22.8641C77.0584 22.0652 76.8717 21.4883 76.7215 21.1333C76.5965 20.8392 76.2631 20.403 75.7213 19.8247C75.1899 19.2456 74.8266 18.9055 74.6316 18.8042C74.415 18.694 74.0633 18.5933 73.5766 18.5019C73.1418 18.4069 72.7652 18.3966 72.4467 18.471C72.1386 18.5447 71.7706 18.7322 71.3427 19.0335C70.8962 19.3675 70.5812 19.6401 70.3976 19.8513C70.2251 20.0721 69.9446 20.6138 69.5561 21.4762C69.1482 22.3609 68.8954 22.9998 68.7977 23.393C68.6806 23.8084 68.5555 24.4802 68.4221 25.4084C68.3007 26.3566 68.2289 27.0456 68.2068 27.4752C68.1744 27.9056 68.205 28.6396 68.2986 29.6773C68.3894 30.6734 68.5575 31.5075 68.803 32.1795C69.0152 32.8226 69.2487 33.3232 69.5036 33.6813C69.7688 34.0387 70.1495 34.4038 70.6455 34.7764C71.0748 35.0911 71.5811 35.3116 72.1642 35.438C72.7875 35.5407 73.1771 35.5867 73.333 35.5758L73.7517 35.5153C74.0516 35.4735 74.3138 35.5648 74.5384 35.7894ZM72.0028 37.1565C71.9405 37.1609 71.8878 37.1541 71.8448 37.1362C70.9967 36.9552 70.2423 36.6214 69.5817 36.1349C68.9759 35.6864 68.4885 35.214 68.1196 34.7176C67.7603 34.2101 67.4427 33.5535 67.1669 32.7478C66.8711 31.954 66.6775 30.9807 66.5862 29.828C66.486 28.6968 66.4499 27.8849 66.478 27.3921C66.5061 26.8994 66.5899 26.1574 66.7292 25.1662C66.8477 24.1763 66.9789 23.4415 67.1228 22.9616C67.2355 22.4838 67.5181 21.7488 67.9706 20.7566C68.4335 19.7637 68.7895 19.1071 69.0385 18.787C69.3173 18.4438 69.7498 18.0586 70.3359 17.6314C70.9621 17.1805 71.5477 16.8943 72.0926 16.7728C72.6479 16.6505 73.2647 16.6597 73.9428 16.8004C74.5676 16.9239 75.0583 17.0724 75.4151 17.246C75.7956 17.4596 76.319 17.9243 76.9852 18.6401C77.6523 19.3663 78.0912 19.9675 78.3021 20.4435C78.4775 20.8594 78.696 21.5177 78.9575 22.4184C79.1879 23.3212 79.3509 24.1556 79.4464 24.9217C79.5404 25.6669 79.5949 26.2949 79.6098 26.8055C79.647 27.3354 79.6427 28.0928 79.5969 29.0775C79.5503 30.0519 79.5019 30.7757 79.4515 31.2491C79.3804 31.724 79.1951 32.4313 78.8955 33.3711C78.5781 34.3539 78.2956 35.0157 78.048 35.3567C77.8101 35.6866 77.3824 36.0662 76.7651 36.4956C76.1805 36.9436 75.73 37.2204 75.4137 37.3259C75.1389 37.4286 74.878 37.5043 74.6307 37.5528C74.3323 37.6154 73.9259 37.6281 73.4117 37.5908L72.737 37.5752C72.435 37.5858 72.1902 37.4463 72.0028 37.1565ZM83.4519 27.54C83.2449 27.4187 83.1023 27.2459 83.0239 27.0217C82.9552 26.7863 82.9815 26.5652 83.1027 26.3583C83.2336 26.1404 83.4067 26.003 83.622 25.9462L83.9917 25.8578C84.2679 25.7759 84.6696 25.6957 85.1966 25.6172C85.7014 25.5193 86.0733 25.4621 86.3123 25.4454C86.5202 25.4309 86.754 25.4146 87.0137 25.3965C87.2216 25.382 87.6885 25.339 88.4144 25.2675C88.9622 25.1875 89.3961 25.1207 89.7161 25.0671C89.7161 25.0671 89.7153 25.0567 89.7139 25.0359C89.6392 24.2684 89.579 23.7088 89.5335 23.3569C89.5094 23.014 89.467 22.5575 89.4061 21.9875C89.3496 21.4797 89.3174 21.1687 89.3093 21.0544C89.2769 20.8896 89.24 20.7356 89.1986 20.5923L89.151 20.3606C89.1135 20.1231 89.1665 19.9106 89.31 19.723C89.4638 19.5348 89.6543 19.4223 89.8815 19.3856C90.119 19.3482 90.3316 19.4012 90.5192 19.5448C90.7164 19.6772 90.8335 19.857 90.8703 20.0841L90.9168 20.3002C90.9255 20.4249 90.9443 20.5437 90.9731 20.6565C91.0055 20.8213 91.054 21.2147 91.1185 21.8367C91.1823 22.4484 91.2247 22.9049 91.2459 23.2062C91.2907 23.5477 91.3501 24.0969 91.4241 24.854C91.4642 24.8304 91.4999 24.8174 91.531 24.8153C92.2555 24.723 92.7944 24.6645 93.1477 24.6399C93.4906 24.616 94.0414 24.5776 94.8 24.5247C95.5481 24.4725 96.0417 24.4381 96.2807 24.4215C96.4692 24.4292 96.6622 24.4262 96.8596 24.4124L97.1714 24.3907C97.4104 24.374 97.614 24.4486 97.7823 24.6144C97.9498 24.7698 98.0423 24.9721 98.0598 25.2215C98.0766 25.4605 98.0025 25.6693 97.8375 25.8479C97.6821 26.0153 97.4902 26.107 97.2616 26.123L96.9342 26.1458C96.6952 26.1625 96.4711 26.1677 96.2618 26.1614C96.0955 26.173 95.6487 26.2041 94.9213 26.2548C94.1315 26.3099 93.5912 26.3476 93.3002 26.3679C92.9573 26.3918 92.4392 26.4488 91.7459 26.5389C91.7043 26.5418 91.6479 26.5561 91.5766 26.582C91.5839 26.6859 91.5912 26.7898 91.5985 26.8937C91.6593 27.4638 91.7398 28.0899 91.8399 28.7721C91.9273 29.4239 91.9913 29.8893 92.0318 30.1684C92.0529 30.4697 92.0687 30.8446 92.0793 31.2928L92.1241 31.9319C92.1201 32.1723 92.03 32.377 91.8539 32.5459C91.6882 32.7141 91.4855 32.8013 91.2457 32.8076C91.0164 32.8131 90.8128 32.7386 90.6348 32.5839C90.4666 32.4181 90.3848 32.2202 90.3896 31.9902L90.3759 31.3489C90.349 30.9645 90.3264 30.6423 90.3081 30.3826C90.2691 30.1242 90.2048 29.6536 90.1151 28.9707C90.0255 28.2878 89.9602 27.6554 89.9194 27.0735C89.8928 26.9918 89.8759 26.899 89.8686 26.7951C89.5479 26.8383 89.1344 26.8985 88.6282 26.9755C87.8814 27.0485 87.3834 27.0936 87.134 27.111C86.8742 27.1291 86.6508 27.1447 86.4637 27.1578C86.2767 27.1708 85.9456 27.2148 85.4705 27.2897C85.0058 27.3638 84.6714 27.4341 84.4672 27.5006L84.1153 27.6191C83.8792 27.6773 83.658 27.651 83.4519 27.54ZM126.453 23.3672L125.736 24.0907C124.358 25.586 123.017 26.7916 121.714 27.7074C120.44 28.6002 119.439 29.072 118.711 29.1227C117.828 29.1843 117.126 28.8469 116.604 28.1106C116.037 27.3148 115.714 26.361 115.636 25.2491C115.526 23.6801 115.668 21.9107 116.063 19.941C116.25 19.0403 116.527 18.3736 116.893 17.9408C117.27 17.5073 117.734 17.2714 118.285 17.233C118.42 17.2236 118.552 17.3188 118.681 17.5186C118.856 17.7883 118.957 18.1102 118.983 18.4843C119.021 19.0142 118.807 19.7705 118.344 20.753C117.681 22.1672 117.384 23.3678 117.453 24.355C117.494 24.9369 117.633 25.5015 117.869 26.0488C118.006 26.3526 118.194 26.59 118.436 26.7611C118.678 26.9323 118.949 27.0073 119.251 26.9863C120.332 26.9109 121.602 26.1958 123.063 24.8409C124.576 23.4824 125.512 22.3051 125.87 21.309C126.218 20.3137 126.372 19.5406 126.334 18.9899C126.317 18.7509 126.275 18.5293 126.209 18.3251C126.166 18.161 126.138 17.9907 126.126 17.814C126.103 17.4919 126.19 17.0942 126.387 16.6211C126.548 16.234 126.768 16.0306 127.049 16.0111C127.465 15.9821 127.74 16.036 127.875 16.1728C127.908 16.2018 127.944 16.2723 127.984 16.3845C128.023 16.4966 128.061 16.6714 128.099 16.909C128.146 17.1354 128.18 17.3941 128.2 17.6851C128.243 18.2981 128.245 19.6607 128.205 21.7728C128.197 22.2536 128.203 22.7075 128.222 23.1342C128.246 24.5109 128.163 26.5424 127.976 29.2286C127.919 30.0575 127.852 30.814 127.775 31.4981C127.698 32.1822 127.629 32.6934 127.569 33.0317C127.52 33.3693 127.476 33.5655 127.438 33.6204C127.318 33.8376 127.127 33.9553 126.868 33.9734C126.442 34.0031 126.147 33.9715 125.984 33.8784C125.832 33.795 125.749 33.6494 125.734 33.4416C125.714 33.1507 125.732 32.8936 125.79 32.6703C125.916 32.2334 126.119 29.473 126.399 24.3891L126.453 23.3672ZM142.862 27.7521C142.745 27.5724 142.623 27.3981 142.497 27.2294C142.334 27.0006 142.151 26.768 141.947 26.5316C141.763 26.3042 141.342 25.9473 140.681 25.4608C140.096 25.0108 139.713 24.7608 139.532 24.7108C139.382 24.6586 139.106 24.6674 138.704 24.7372C138.26 24.8099 137.871 24.931 137.539 25.1004C137.164 25.2727 136.878 25.4388 136.681 25.5987C136.493 25.7476 136.321 25.9057 136.166 26.0732C136.028 26.1873 135.842 26.4456 135.609 26.8482C135.356 27.2522 135.204 27.5395 135.153 27.7101C135.104 27.9015 135.058 28.1501 135.017 28.4557C134.997 28.76 135.003 28.9945 135.035 29.1593C135.047 29.3256 135.129 29.6018 135.281 29.988C135.432 30.343 135.58 30.5989 135.727 30.7557C135.908 30.9519 136.079 31.0862 136.241 31.1585C136.393 31.2522 136.557 31.3453 136.73 31.4376C136.913 31.5188 137.202 31.6083 137.595 31.7062C137.945 31.7862 138.245 31.8227 138.495 31.8157C138.776 31.7962 139.007 31.7435 139.189 31.6577C139.394 31.6017 139.602 31.5141 139.813 31.3949C140.034 31.2751 140.259 31.1341 140.488 30.972C140.666 30.8342 140.997 30.4875 141.48 29.9317C141.931 29.3677 142.204 29.0093 142.298 28.8566C142.39 28.6831 142.472 28.5155 142.544 28.3539C142.648 28.2004 142.754 27.9998 142.862 27.7521ZM144.419 28.5051C144.29 28.7542 144.189 28.9544 144.116 29.1057C144.045 29.2778 143.939 29.4783 143.798 29.7074C143.67 29.9565 143.336 30.4079 142.797 31.0616C142.247 31.716 141.819 32.1531 141.51 32.373C141.222 32.581 140.927 32.7635 140.625 32.9203C140.333 33.0868 140.045 33.2217 139.76 33.3252C139.444 33.4307 139.073 33.4984 138.647 33.5281C138.201 33.58 137.707 33.531 137.164 33.3809C136.665 33.2694 136.286 33.1497 136.027 33.0216C135.778 32.9032 135.528 32.764 135.277 32.604C135.026 32.4544 134.765 32.2272 134.493 31.9225C134.167 31.6006 133.902 31.1701 133.697 30.6309C133.494 30.1126 133.365 29.6934 133.312 29.3735C133.27 29.0736 133.271 28.7133 133.314 28.2926C133.369 27.8815 133.438 27.5217 133.52 27.2131C133.603 26.9045 133.798 26.4837 134.105 25.9506C134.414 25.4383 134.695 25.0584 134.95 24.811C135.175 24.6073 135.418 24.4129 135.676 24.2278C135.944 24.0316 136.294 23.8088 136.726 23.5594C137.22 23.3161 137.787 23.1356 138.426 23.018C139.077 22.91 139.61 22.9198 140.026 23.0474C140.399 23.1467 140.993 23.5073 141.809 24.1291C141.656 23.7325 141.535 23.4121 141.444 23.1678C141.294 22.8128 141.08 22.3683 140.803 21.8342C140.506 21.3224 140.253 20.9223 140.045 20.634C139.837 20.3457 139.606 20.106 139.352 19.9148C139.152 19.7408 138.777 19.532 138.228 19.2884C137.678 19.0448 137.208 18.8948 136.818 18.8385C136.387 18.8058 136.041 18.7882 135.78 18.7855C135.52 18.8036 135.266 18.8318 135.019 18.8699C134.812 18.9052 134.436 19.0567 133.891 19.3244C133.498 19.519 133.243 19.6777 133.126 19.8007L132.956 20.0631C132.845 20.2589 132.671 20.3911 132.436 20.4597C132.21 20.5172 131.989 20.4856 131.771 20.365C131.564 20.2333 131.426 20.055 131.358 19.83C131.3 19.5939 131.342 19.3769 131.485 19.179L131.652 18.8854C131.867 18.5258 132.353 18.1578 133.11 17.7813C133.816 17.4293 134.36 17.2191 134.741 17.1507C135.062 17.1074 135.389 17.0742 135.721 17.051C136.065 17.0479 136.506 17.0694 137.041 17.1156C137.599 17.1811 138.229 17.3722 138.93 17.6888C139.631 18.0054 140.148 18.3139 140.483 18.6143C140.805 18.8946 141.12 19.2172 141.428 19.5821C141.715 19.9485 142.015 20.4288 142.328 21.023C142.651 21.6165 142.89 22.122 143.045 22.5393C143.198 22.9359 143.405 23.501 143.665 24.2347C143.925 24.9683 144.112 25.4774 144.226 25.7618C144.351 26.0559 144.468 26.3715 144.575 26.7086C144.692 27.0346 144.775 27.2637 144.827 27.3959L144.829 27.4271C144.944 27.5861 144.93 27.8221 144.784 28.135L144.419 28.5051ZM159.12 18.1294C159.208 18.3529 159.203 18.5726 159.103 18.7883C159.013 18.993 158.851 19.1349 158.616 19.2139C158.392 19.2922 158.182 19.2859 157.988 19.195L157.73 19.0877C157.579 19.0147 157.39 18.9287 157.164 18.8296C156.971 18.7595 156.708 18.6629 156.376 18.5399C156.045 18.4377 155.805 18.3657 155.656 18.3239C155.487 18.2939 155.303 18.2754 155.104 18.2684C154.936 18.2592 154.702 18.2651 154.4 18.2861C154.12 18.3057 153.887 18.3428 153.703 18.3974C153.519 18.452 153.33 18.5173 153.137 18.5934C152.975 18.6674 152.711 18.8476 152.345 19.1342C151.977 19.4 151.693 19.6652 151.492 19.9298C151.252 20.2285 151.066 20.4764 150.934 20.6736C150.824 20.8901 150.715 21.1222 150.607 21.3699C150.517 21.585 150.373 22.0597 150.174 22.7941C149.975 23.5285 149.863 24.0114 149.837 24.2429C149.836 24.5249 149.84 24.8066 149.849 25.0879C149.858 25.3588 149.882 25.6234 149.921 25.8817C149.96 26.14 150.033 26.4429 150.141 26.7904C150.272 27.1677 150.472 27.5714 150.743 28.0015C151.015 28.4525 151.23 28.7716 151.389 28.9589C151.548 29.1358 151.722 29.3012 151.91 29.4551C152.064 29.5697 152.298 29.7048 152.612 29.8604C152.923 29.9849 153.327 30.0872 153.824 30.1675C154.339 30.2151 154.711 30.2413 154.941 30.2462C155.222 30.2266 155.487 30.2081 155.736 30.1908C155.943 30.1555 156.21 30.0951 156.538 30.0095C156.814 29.9276 157.081 29.7785 157.337 29.5623C157.603 29.3349 157.775 29.1767 157.852 29.0878C157.947 28.9559 158.031 28.8195 158.105 28.6786C158.179 28.5481 158.256 28.3809 158.336 28.1769L158.47 27.8543C158.559 27.6393 158.716 27.4926 158.941 27.4143C159.174 27.3249 159.394 27.3253 159.598 27.4154C159.814 27.5048 159.966 27.6613 160.054 27.8848C160.142 28.098 160.142 28.3173 160.053 28.5427L159.919 28.8653C159.813 29.1338 159.708 29.3552 159.606 29.5294C159.493 29.7043 159.38 29.8845 159.268 30.0698C159.095 30.2907 158.801 30.567 158.386 30.8988C157.962 31.2521 157.52 31.497 157.059 31.6335C156.64 31.7671 156.266 31.8611 155.936 31.9154C155.634 31.9365 155.333 31.9575 155.032 31.9785C154.687 31.9816 154.215 31.9467 153.614 31.8737C152.951 31.7946 152.388 31.6512 151.924 31.4433C151.46 31.2355 151.09 31.0159 150.813 30.7846C150.538 30.5949 150.293 30.3719 150.077 30.1155C149.859 29.8487 149.58 29.4348 149.238 28.8739C148.918 28.3428 148.679 27.8373 148.52 27.3577C148.363 26.8987 148.261 26.4882 148.215 26.1259C148.171 25.8053 148.143 25.4783 148.13 25.1451C148.117 24.8014 148.119 24.4567 148.136 24.1109C148.154 23.7651 148.269 23.1827 148.483 22.3638C148.707 21.5337 148.881 20.9629 149.006 20.6514C149.152 20.3593 149.305 20.0823 149.464 19.8206C149.632 19.527 149.855 19.2087 150.133 18.8655C150.43 18.4794 150.822 18.1127 151.309 17.7654C151.775 17.4093 152.155 17.1687 152.449 17.0438C152.702 16.9218 152.961 16.8202 153.227 16.739C153.504 16.6779 153.845 16.6176 154.248 16.5582C154.632 16.5313 154.95 16.5196 155.201 16.523C155.443 16.5479 155.69 16.5777 155.943 16.6122C156.209 16.6773 156.539 16.7691 156.934 16.8878C157.309 17.0287 157.615 17.1483 157.852 17.2467C158.067 17.3361 158.266 17.4266 158.45 17.5182L158.678 17.6433C158.893 17.7327 159.04 17.8947 159.12 18.1294ZM172.215 30.2009C172.084 30.4189 171.889 30.5473 171.631 30.5862L171.137 30.6833C170.715 30.7754 170.178 30.7815 169.525 30.7017C168.883 30.642 168.288 30.4903 167.738 30.2467C167.232 30.021 166.809 29.7947 166.469 29.5678C166.106 29.3111 165.657 28.8621 165.121 28.2207C164.587 27.6001 164.207 27.0941 163.981 26.7026C163.764 26.2896 163.566 25.5516 163.387 24.4885C163.19 23.4581 163.106 22.7069 163.135 22.235C163.189 21.8032 163.32 21.2197 163.529 20.4846C163.749 19.7384 163.991 19.1002 164.257 18.57C164.532 18.0287 164.8 17.6028 165.06 17.2923C165.34 16.9699 165.762 16.5855 166.326 16.1389C166.931 15.6895 167.676 15.3609 168.559 15.1531C169.422 14.9467 170.058 14.8502 170.466 14.8635C170.855 14.8991 171.423 15.037 172.171 15.2772C172.898 15.5293 173.437 15.7632 173.786 15.979C174.145 16.1837 174.527 16.4913 174.932 16.9016C175.336 17.3119 175.635 17.6932 175.826 18.0453C176.04 18.4167 176.264 19.0015 176.498 19.7997C176.719 20.5778 176.843 21.2949 176.868 21.951C176.911 22.5641 176.916 23.0858 176.884 23.5162C176.872 23.9452 176.773 24.542 176.586 25.3069C176.401 26.0925 176.18 26.7396 175.924 27.2483C175.637 27.7799 175.245 28.2876 174.746 28.7714C174.247 29.2552 173.842 29.581 173.53 29.7489C173.238 29.905 172.8 30.0557 172.215 30.2009ZM168.266 28.6123C168.513 28.4072 168.785 28.3464 169.083 28.43L169.58 28.5834C169.845 28.6484 170.135 28.6908 170.45 28.7107C170.753 28.7104 171.161 28.6558 171.676 28.5469C172.19 28.4379 172.528 28.3361 172.688 28.2413C172.87 28.1452 173.156 27.9111 173.548 27.5393C173.93 27.1889 174.213 26.8246 174.395 26.4464C174.577 26.0682 174.745 25.5553 174.898 24.9077C175.06 24.2386 175.15 23.7415 175.169 23.4165C175.187 23.0707 175.181 22.6116 175.151 22.0394C175.114 21.5095 175.004 20.9167 174.823 20.2611C174.652 19.6151 174.496 19.177 174.355 18.9467C174.212 18.6956 173.989 18.4188 173.686 18.1162C173.382 17.8033 173.11 17.5768 172.87 17.4369C172.64 17.2858 172.221 17.1167 171.613 16.9294C171.025 16.7302 170.599 16.6189 170.337 16.5955C170.096 16.5913 169.642 16.6648 168.974 16.8158C168.347 16.9639 167.816 17.2046 167.38 17.5378C166.914 17.894 166.594 18.1721 166.42 18.3722C166.248 18.593 166.046 18.9255 165.816 19.3697C165.586 19.8035 165.373 20.3404 165.178 20.9805C164.992 21.6095 164.889 22.0814 164.87 22.396C164.849 22.7002 164.912 23.2963 165.058 24.1841C165.223 25.0497 165.383 25.6181 165.537 25.8893C165.683 26.1819 165.978 26.5843 166.421 27.0964C166.865 27.6188 167.208 27.9708 167.451 28.1523C167.66 28.3152 167.932 28.4685 168.266 28.6123ZM187.104 13.124L187.619 13.323C189.846 14.1075 191.084 16.2819 191.334 19.846C191.524 22.5581 190.88 24.9838 189.401 27.1231C188.118 29.2278 186.676 30.336 185.076 30.4476C183.569 30.5526 182.317 29.9664 181.319 28.689C180.297 27.3715 179.691 25.3567 179.501 22.6446C179.267 19.309 179.592 15.898 180.475 12.4114C181.359 9.08148 182.486 6.53861 183.856 4.78281C185.166 3.07292 186.565 2.16618 188.051 2.06257C188.986 1.99737 189.755 2.24655 190.359 2.81011C190.964 3.39446 191.305 4.24775 191.384 5.36999C191.447 6.27402 191.124 7.39299 190.413 8.72688C189.674 10.0941 188.696 11.4101 187.479 12.6749L187.104 13.124ZM181.345 17.2219L182.156 16.5075C185.523 13.1506 187.606 10.7604 188.404 9.33685C189.304 7.87489 189.725 6.72306 189.666 5.88138C189.618 5.19556 189.419 4.66645 189.069 4.29405C188.719 3.92165 188.243 3.75645 187.64 3.79848C186.32 3.89049 185.097 5.06173 183.97 7.3122C182.88 9.48704 182.059 12.4368 181.505 16.1613L181.345 17.2219ZM189.279 20.4748L189.277 20.4437C189.157 18.7291 188.768 17.357 188.111 16.3273C187.46 15.2345 186.771 14.7135 186.044 14.7642C185.981 14.7685 185.92 14.7833 185.859 14.8084C185.798 14.8335 185.728 14.875 185.648 14.9327C185.568 14.9801 185.488 15.0326 185.409 15.0904C185.34 15.1474 185.246 15.2322 185.129 15.3448C185.011 15.447 184.903 15.5433 184.805 15.6337C184.707 15.7345 184.576 15.8689 184.41 16.0371C184.255 16.2046 184.119 16.355 184.003 16.4884C183.886 16.6114 183.721 16.7848 183.507 17.0085C183.303 17.2316 183.124 17.4216 182.968 17.5787C182.468 18.0521 181.977 18.4936 181.494 18.9031L181.376 19.0054L181.357 19.179C181.259 20.1673 181.251 21.2434 181.333 22.4072C181.479 24.4959 181.892 26.0595 182.57 27.0981C183.295 28.2066 184.162 28.7258 185.17 28.6555C186.521 28.5613 187.569 27.6476 188.314 25.9145C189.094 24.2312 189.416 22.418 189.279 20.4748ZM38.3633 50.8576C38.4838 50.6403 38.6514 50.4981 38.866 50.4309C39.0909 50.363 39.3072 50.3949 39.5149 50.5267C39.7322 50.6473 39.8689 50.81 39.925 51.0149L40.0481 51.4293C40.133 51.747 40.1946 52.0299 40.2329 52.2778C40.2704 52.5154 40.3328 53.0331 40.4201 53.8311C40.4755 54.6208 40.5189 55.2391 40.5502 55.6859C40.567 55.9249 40.5848 56.1795 40.6038 56.4496C40.6381 56.3428 40.6731 56.2464 40.7088 56.1604C41.0069 55.1998 41.3244 54.4415 41.6614 53.8855C42.0295 53.3273 42.315 52.9315 42.5179 52.698C42.7817 52.4395 43.181 52.1767 43.7157 51.9097C44.2311 51.6649 44.6227 51.5175 44.8907 51.4675C45.0986 51.453 45.3116 51.4382 45.5298 51.423C45.8118 51.4242 46.1958 51.5384 46.6816 51.7656C47.1897 52.0121 47.6234 52.3891 47.9827 52.8966C48.2946 53.3238 48.6199 54.0164 48.9585 54.9743C49.3032 55.8692 49.5439 56.5468 49.6807 57.0072C49.7966 57.469 49.9972 58.1703 50.2824 59.111C50.538 60.0748 50.7403 60.8751 50.8894 61.5121C51.0155 62.1194 51.1316 62.7326 51.2377 63.3517C51.3534 63.9597 51.4286 64.3617 51.4633 64.5577C51.4749 64.724 51.4984 64.9103 51.5338 65.1167L51.5567 65.444C51.5943 65.6815 51.5358 65.8892 51.3812 66.0671C51.2369 66.2442 51.0457 66.3463 50.8074 66.3734C50.5795 66.3997 50.3662 66.3362 50.1675 66.183C49.98 66.0395 49.8678 65.8541 49.8309 65.627L49.8113 65.3464C49.7759 65.14 49.752 64.9485 49.7396 64.7719C49.7072 64.6071 49.6491 64.2248 49.5652 63.625C49.4628 63.0578 49.3489 62.4758 49.2235 61.8789C49.0766 61.2731 48.8716 60.5094 48.6086 59.588C48.3337 58.6465 48.139 57.9552 48.0246 57.5142C47.8893 57.0746 47.6612 56.4275 47.3402 55.5727C47.0429 54.7581 46.7887 54.1859 46.5776 53.856C46.3931 53.6078 46.1881 53.4394 45.9626 53.3507C45.7668 53.239 45.611 53.1768 45.4953 53.164C45.3914 53.1712 45.2771 53.1792 45.1524 53.1879C45.0499 53.2159 44.8219 53.3153 44.4684 53.4862C44.1135 53.6362 43.888 53.772 43.7921 53.8936C43.6554 54.0284 43.4416 54.3305 43.1508 54.7997C42.8571 55.2275 42.5873 55.8467 42.3413 56.6574C42.0775 57.5112 41.9268 58.1169 41.8892 58.4745C41.8316 58.844 41.8008 59.4466 41.7967 60.2822C41.7733 61.1401 41.7817 61.8548 41.8218 62.4263C41.8619 62.9978 41.8828 63.4453 41.8846 63.7689C41.9101 64.1326 41.9119 64.4562 41.89 64.7396C41.8929 64.7812 41.8966 64.8331 41.901 64.8955C41.9053 64.9578 41.887 65.0688 41.846 65.2282C41.8146 65.3766 41.7599 65.4901 41.6819 65.5686C41.6039 65.6471 41.4783 65.7185 41.3053 65.7828C41.1427 65.8464 40.9316 65.8141 40.672 65.686C40.5429 65.6324 40.4291 65.5724 40.3305 65.5062C40.2422 65.4393 40.1803 65.3757 40.1448 65.3155C40.1085 65.245 40.083 65.1789 40.0682 65.1173C40.0535 65.0556 40.0446 65.004 40.0417 64.9625L40.0373 64.9001C39.9302 64.563 39.8445 64.2348 39.7803 63.9156C39.7162 63.5964 39.6204 63.0496 39.493 62.2754C39.353 61.4707 39.2438 60.7317 39.1652 60.0584C39.086 59.3748 39.0157 58.5965 38.9545 57.7237C38.8962 56.8924 38.8514 56.2533 38.82 55.8065C38.7887 55.3597 38.7453 54.7414 38.69 53.9517C38.6152 53.1842 38.5609 52.7077 38.527 52.5221C38.5154 52.3558 38.4693 52.145 38.3887 51.8895L38.2979 51.4886C38.221 51.2852 38.2428 51.0748 38.3633 50.8576ZM63.4118 63.8499C63.2809 64.0679 63.0862 64.1963 62.8279 64.2352L62.3335 64.3324C61.9118 64.4244 61.3745 64.4306 60.7215 64.3508C60.0803 64.2911 59.4849 64.1394 58.9353 63.8958C58.4286 63.6701 58.0055 63.4437 57.6659 63.2168C57.3033 62.9602 56.8541 62.5111 56.3184 61.8698C55.784 61.2492 55.404 60.7431 55.1781 60.3517C54.9612 59.9387 54.7632 59.2006 54.5843 58.1376C54.3867 57.1072 54.3027 56.356 54.3322 55.884C54.3855 55.4522 54.5169 54.8687 54.7264 54.1336C54.9455 53.3874 55.1879 52.7492 55.4536 52.219C55.7289 51.6778 55.9966 51.2519 56.2568 50.9413C56.537 50.619 56.959 50.2345 57.5229 49.788C58.1284 49.3385 58.8728 49.0099 59.7563 48.8021C60.619 48.5958 61.2544 48.4993 61.6626 48.5126C62.0515 48.5481 62.6198 48.686 63.3676 48.9263C64.0953 49.1783 64.6339 49.4123 64.9832 49.6281C65.3421 49.8328 65.7239 50.1403 66.1286 50.5507C66.5333 50.961 66.8316 51.3422 67.0233 51.6943C67.2373 52.0657 67.4611 52.6506 67.6946 53.4488C67.9162 54.2269 68.0396 54.944 68.0648 55.6001C68.1078 56.2132 68.113 56.7349 68.0805 57.1653C68.0689 57.5942 67.9698 58.1911 67.7832 58.9559C67.5981 59.7415 67.3773 60.3887 67.1205 60.8973C66.8341 61.429 66.4416 61.9367 65.943 62.4204C65.4443 62.9042 65.0391 63.2301 64.7271 63.398C64.4352 63.5541 63.9968 63.7047 63.4118 63.8499ZM59.4628 62.2614C59.7095 62.0562 59.982 61.9955 60.2802 62.0791L60.7765 62.2324C61.0421 62.2975 61.3323 62.3399 61.6469 62.3597C61.9497 62.3595 62.3584 62.3049 62.8729 62.1959C63.3873 62.087 63.7248 61.9851 63.8852 61.8904C64.0664 61.7942 64.3528 61.5602 64.7445 61.1883C65.1271 60.8379 65.4096 60.4736 65.5919 60.0955C65.7743 59.7173 65.9419 59.2044 66.0949 58.5568C66.2568 57.8876 66.3473 57.3905 66.3662 57.0655C66.3838 56.7197 66.3777 56.2607 66.348 55.6885C66.3108 55.1585 66.2014 54.5657 66.0196 53.9101C65.849 53.2642 65.693 52.826 65.5515 52.5957C65.4086 52.3447 65.1856 52.0678 64.8824 51.7653C64.5785 51.4523 64.3068 51.2259 64.0673 51.0859C63.8374 50.9349 63.4183 50.7657 62.8099 50.5784C62.2216 50.3793 61.7962 50.268 61.5334 50.2445C61.293 50.2404 60.8387 50.3138 60.1705 50.4648C59.5439 50.613 59.0126 50.8536 58.5765 51.1868C58.1107 51.543 57.7908 51.8211 57.6169 52.0212C57.4444 52.2421 57.2432 52.5746 57.0133 53.0187C56.7827 53.4525 56.5697 53.9895 56.3745 54.6296C56.1889 55.2586 56.0862 55.7304 56.0665 56.0451C56.0461 56.3493 56.1087 56.9453 56.2545 57.8332C56.4197 58.6988 56.5796 59.2672 56.7344 59.5383C56.8802 59.831 57.1747 60.2333 57.6179 60.7454C58.0618 61.2679 58.4049 61.6199 58.6474 61.8014C58.8572 61.9642 59.129 62.1176 59.4628 62.2614ZM78.3004 46.773L78.8156 46.9721C81.0426 47.7566 82.2811 49.9309 82.5311 53.4951C82.7213 56.2072 82.0769 58.6329 80.5979 60.7721C79.315 62.8769 77.8733 63.9851 76.273 64.0966C74.7663 64.2017 73.5139 63.6155 72.5158 62.3381C71.494 61.0205 70.8881 59.0057 70.6979 56.2936C70.4639 52.9581 70.7886 49.547 71.6718 46.0605C72.5556 42.7305 73.6825 40.1877 75.0527 38.4319C76.3633 36.722 77.7616 35.8152 79.2476 35.7116C80.1829 35.6464 80.9522 35.8956 81.5556 36.4592C82.1604 37.0435 82.5022 37.8968 82.5809 39.019C82.6443 39.9231 82.3208 41.042 81.6103 42.3759C80.8708 43.7432 79.8927 45.0592 78.6762 46.3239L78.3004 46.773ZM72.5418 50.871L73.3531 50.1566C76.7203 46.7997 78.803 44.4095 79.6012 42.9859C80.5011 41.5239 80.9215 40.3721 80.8625 39.5304C80.8144 38.8446 80.6154 38.3155 80.2656 37.9431C79.9158 37.5707 79.4395 37.4055 78.8368 37.4475C77.5171 37.5395 76.294 38.7108 75.1674 40.9613C74.0773 43.1361 73.2556 46.0858 72.7023 49.8104L72.5418 50.871ZM80.4763 54.1239L80.4741 54.0927C80.3538 52.3782 79.9652 51.006 79.3082 49.9763C78.6573 48.8835 77.9681 48.3625 77.2407 48.4132C77.1783 48.4176 77.1167 48.4323 77.0558 48.4574C76.9949 48.4826 76.9248 48.524 76.8453 48.5818C76.765 48.6291 76.6852 48.6817 76.6057 48.7394C76.5366 48.7965 76.4434 48.8813 76.3259 48.9939C76.2078 49.0961 76.0997 49.1924 76.0016 49.2828C75.9043 49.3835 75.7727 49.518 75.607 49.6862C75.4517 49.8536 75.316 50.0041 75.2001 50.1375C75.0834 50.2605 74.918 50.4338 74.704 50.6576C74.5003 50.8806 74.3205 51.0707 74.1644 51.2278C73.6651 51.7011 73.1739 52.1426 72.691 52.5522L72.5728 52.6544L72.5537 52.828C72.4559 53.8164 72.4479 54.8925 72.5295 56.0563C72.676 58.1449 73.0885 59.7085 73.7669 60.7472C74.4921 61.8557 75.3587 62.3748 76.3666 62.3045C77.7175 62.2103 78.7656 61.2967 79.5107 59.5636C80.2907 57.8803 80.6125 56.067 80.4763 54.1239ZM85.305 46.8172C85.289 46.5886 85.2941 46.3637 85.3204 46.1426C85.357 45.9208 85.42 45.7023 85.5094 45.4873C85.5987 45.2722 85.7388 45.111 85.9297 45.0037C86.131 44.8957 86.3692 44.8687 86.6445 44.9226C86.7284 45.5224 86.798 46.5147 86.8533 47.8996C86.9183 49.2734 86.9824 50.261 87.0454 50.8622C87.1803 50.999 87.383 51.2094 87.6536 51.4933C88.0747 51.2447 88.7494 50.8896 89.6778 50.4281C91.553 50.0676 93.0538 49.9525 94.1803 50.0828C94.6393 50.3745 94.9674 50.5866 95.1647 50.719C95.3619 50.8515 95.6426 51.0564 96.0066 51.3338C96.3699 51.6009 96.6709 51.8723 96.9095 52.148C97.1474 52.4133 97.3556 52.7016 97.5341 53.0129C97.6473 53.2869 97.7315 53.5943 97.7867 53.9351C97.8412 54.2654 97.8665 54.5508 97.8624 54.7912C97.8681 55.0206 97.865 55.3497 97.8534 55.7786C97.8513 56.1965 97.851 56.4889 97.8522 56.6558C97.2943 57.6345 96.5318 58.4499 95.5646 59.1021C94.5968 59.7439 93.579 60.196 92.5114 60.4584C91.4431 60.7104 90.3286 60.8246 89.1678 60.8012C88.8191 60.7419 88.5038 60.6386 88.222 60.4912C87.9401 60.3438 87.6969 60.1519 87.4924 59.9155C87.2871 59.6688 87.1078 59.4203 86.9545 59.1699C86.8116 58.9188 86.681 58.6199 86.5627 58.2731C86.4444 57.9263 86.3498 57.6197 86.2789 57.3531C86.208 57.0866 86.1342 56.7785 86.0574 56.4288C85.5734 53.1002 85.3226 49.8964 85.305 46.8172ZM87.5851 53.6439C87.6762 55.538 87.786 56.9557 87.9147 57.8969C88.0237 57.9624 88.1902 58.1022 88.414 58.3163C88.6372 58.52 88.8466 58.6777 89.0424 58.7894C89.2382 58.901 89.4504 58.9489 89.679 58.933C90.3685 58.9371 91.038 58.88 91.6876 58.7616C92.3468 58.6321 92.9909 58.4358 93.6198 58.1726C94.2592 57.9088 94.8071 57.5312 95.2634 57.04C95.7294 56.5376 96.0482 55.9463 96.2197 55.266C96.1715 54.7264 96.133 54.3271 96.1044 54.068C96.057 53.9878 95.9622 53.8273 95.82 53.5866C95.6771 53.3355 95.582 53.1699 95.5346 53.0897C95.0165 52.5515 94.3946 52.1719 93.6691 51.951C92.9539 51.7294 92.2341 51.6647 91.5096 51.757C90.7844 51.8389 90.0731 52.0451 89.3758 52.3757C88.6888 52.7055 88.0919 53.1282 87.5851 53.6439ZM99.9103 44.0133C100.006 44.038 100.129 44.0764 100.279 44.1286C100.438 44.1697 100.609 44.2205 100.791 44.2809C100.982 44.3302 101.115 44.3627 101.189 44.3784C101.534 45.8685 101.804 47.4838 101.999 49.2244C102.193 50.9547 102.315 52.5386 102.363 53.9762C102.411 55.4034 102.432 57.0414 102.426 58.89C102.158 58.94 101.536 59.0774 100.56 59.3021C100.5 58.45 100.478 57.611 100.493 56.785C100.655 55.8235 100.727 54.7638 100.708 53.6061C100.69 52.4483 100.61 51.3836 100.469 50.4119C100.338 49.4394 100.216 48.3776 100.104 47.2264C99.9915 46.0647 99.9268 44.9937 99.9103 44.0133ZM104.603 45.2681C104.909 45.3094 105.374 45.3866 105.998 45.4998C106.039 45.9355 106.09 46.5898 106.151 47.4626C106.212 48.3355 106.267 49.0417 106.316 49.5813C106.363 50.1105 106.449 50.7467 106.575 51.4898C106.699 52.2225 106.856 52.8903 107.044 53.4932C107.06 53.5756 107.102 53.8651 107.168 54.3617C107.243 54.8472 107.304 55.1824 107.348 55.3673C107.392 55.5521 107.473 55.8128 107.591 56.1492C107.718 56.4744 107.869 56.7615 108.043 57.0104C108.174 57.2518 108.354 57.5735 108.58 57.9754C108.756 58.2451 109.009 58.4362 109.341 58.5489C109.672 58.6511 110.002 58.6698 110.332 58.6051C110.671 58.5292 110.964 58.3887 111.211 58.1836C111.443 57.9272 111.643 57.647 111.81 57.343C111.986 57.0279 112.172 56.6234 112.367 56.1294C112.571 55.6244 112.705 55.2966 112.768 55.146C112.625 53.8612 112.508 52.4179 112.417 50.8162C112.335 49.2034 112.337 47.7466 112.424 46.4458C112.649 46.3883 113.065 46.2862 113.671 46.1395C113.837 46.5665 113.973 47.0269 114.081 47.5206C114.189 48.0143 114.262 48.4582 114.3 48.8524C114.348 49.2458 114.377 49.7293 114.386 50.303C114.404 50.8656 114.405 51.3198 114.387 51.6656C114.38 52.0003 114.361 52.4871 114.333 53.126C114.315 53.7538 114.299 54.2091 114.288 54.4918C114.256 55.225 114.467 55.9256 114.921 56.5935C115.374 57.2511 115.944 57.7073 116.63 57.9623C117.084 58.0247 117.508 57.9638 117.902 57.7797C118.307 57.5948 118.638 57.3368 118.897 57.0055C119.155 56.6638 119.358 56.2841 119.506 55.8666C119.664 55.4379 119.749 55.0091 119.761 54.5801C119.889 50.906 119.933 48.0994 119.891 46.1601C120.033 45.367 120.143 44.6963 120.219 44.148C120.843 44.2507 121.26 44.3208 121.472 44.3583C121.556 45.1146 121.604 45.9415 121.614 46.8387C121.625 47.736 121.616 48.4989 121.587 49.1274C121.558 49.756 121.508 50.6053 121.437 51.6753C121.376 52.7446 121.337 53.5253 121.319 54.0173C121.363 54.3483 121.449 54.6765 121.576 55.0018C121.714 55.3263 121.853 55.609 121.996 55.8497C122.137 56.08 122.339 56.353 122.601 56.6689C122.863 56.9743 123.073 57.2103 123.23 57.3768C123.388 57.5433 123.63 57.7927 123.956 58.125C124.292 58.4462 124.522 58.6651 124.645 58.7819C124.609 58.8679 124.532 59.0403 124.415 59.2991C124.308 59.5572 124.236 59.7293 124.2 59.8153C123.896 59.7947 123.61 59.7312 123.341 59.6246C123.082 59.5069 122.831 59.3417 122.586 59.129C122.352 58.9156 122.15 58.7209 121.981 58.5447C121.811 58.3581 121.607 58.1218 121.367 57.8357C121.127 57.5391 120.945 57.3169 120.819 57.169C120.575 57.6978 120.224 58.1295 119.767 58.4641C119.309 58.7884 118.802 59.0065 118.246 59.1183C117.69 59.2302 117.135 59.2794 116.581 59.2658C116.037 59.2515 115.484 59.1856 114.922 59.0682C114.452 58.6206 113.93 58.1715 113.355 57.7208C113.187 58.4426 112.809 59.0067 112.221 59.4131C111.633 59.8196 110.981 60.0426 110.263 60.0822C109.545 60.1114 108.867 59.9863 108.232 59.7069C107.269 59.0849 106.606 58.0399 106.242 56.5721C106.178 56.3991 106.061 56.0835 105.894 55.6253C105.726 55.1671 105.591 54.811 105.49 54.5571C105.336 53.8473 105.201 53.0526 105.088 52.173C104.984 51.2926 104.913 50.5771 104.874 50.0264C104.835 49.4653 104.787 48.628 104.73 47.5147C104.672 46.4014 104.63 45.6526 104.603 45.2681ZM129.488 50.3464C129.634 50.3363 129.78 50.3365 129.927 50.3472C130.093 50.3356 130.442 50.3269 130.975 50.3211C131.516 50.3042 131.907 50.2875 132.146 50.2708C132.385 50.2541 132.613 50.2278 132.829 50.1918C133.045 50.1454 133.452 50.0596 134.049 49.9345C134.637 49.8308 135.012 49.7524 135.176 49.6993C135.349 49.6454 135.588 49.5453 135.891 49.3988C136.164 49.2754 136.341 49.1847 136.42 49.127C136.478 49.0603 136.56 48.9606 136.665 48.828C136.743 48.739 136.807 48.6145 136.858 48.4542C136.908 48.2629 136.94 48.1249 136.955 48.0403C136.949 47.9572 136.904 47.7671 136.821 47.4701C136.737 47.1731 136.672 46.9845 136.624 46.9043C136.556 46.8255 136.416 46.6943 136.205 46.5106C136.004 46.3158 135.801 46.1837 135.598 46.1144C135.35 46.0063 135.136 45.9325 134.956 45.8929C134.775 45.8428 134.47 45.8119 134.041 45.8C133.631 45.7659 133.293 45.7791 133.025 45.8395C132.767 45.8784 132.466 45.9829 132.123 46.153C131.779 46.3127 131.538 46.4392 131.398 46.5325C131.26 46.6465 131.066 46.8533 130.815 47.1527C130.564 47.4417 130.33 47.8287 130.113 48.3137C129.867 48.8216 129.72 49.1869 129.673 49.4094C129.623 49.58 129.561 49.8924 129.488 50.3464ZM127.63 50.8676C127.66 50.6984 127.688 50.5137 127.716 50.3134C127.817 49.6694 127.915 49.2031 128.01 48.9146C128.094 48.6268 128.277 48.1859 128.559 47.5919C128.86 46.9757 129.174 46.463 129.501 46.0539C129.818 45.6663 130.09 45.3811 130.318 45.1982C130.564 44.993 130.921 44.7854 131.386 44.5755C131.861 44.3544 132.31 44.203 132.733 44.1213C133.135 44.0515 133.603 44.0293 134.138 44.0547C134.672 44.0801 135.078 44.1301 135.354 44.2048C135.63 44.2691 135.934 44.3628 136.267 44.4858C136.644 44.6475 137 44.8837 137.335 45.1945C137.702 45.5135 137.944 45.7733 138.063 45.9738C138.202 46.173 138.346 46.5127 138.495 46.9932C138.633 47.4743 138.7 47.8351 138.696 48.0755C138.691 48.3056 138.633 48.5968 138.522 48.9491C138.402 49.3229 138.247 49.647 138.058 49.9213C137.864 50.1436 137.684 50.3232 137.516 50.4602C137.338 50.598 137.036 50.7704 136.612 50.9775C136.237 51.129 135.932 51.2494 135.698 51.3388C135.474 51.4171 135.037 51.5206 134.388 51.6494C133.781 51.7753 133.343 51.858 133.074 51.8976C132.806 51.9373 132.536 51.9665 132.266 51.9853C132.027 52.002 131.626 52.0195 131.064 52.0378C130.501 52.0562 130.131 52.0663 129.954 52.0682C129.787 52.0694 129.63 52.0751 129.485 52.0853C129.423 52.0896 129.345 52.095 129.251 52.1016C129.242 52.2693 129.233 52.4318 129.223 52.5891C129.216 52.7984 129.26 53.1973 129.354 53.786C129.446 54.3643 129.52 54.7455 129.575 54.9296C129.631 55.1346 129.713 55.3429 129.822 55.5546C129.898 55.7373 130.054 56.0292 130.291 56.4303C130.503 56.781 130.705 57.0437 130.894 57.2184C131.119 57.4429 131.313 57.6017 131.476 57.6947C131.608 57.7899 131.872 57.9073 132.268 58.0467C132.666 58.207 133.019 58.3233 133.327 58.3958C133.634 58.458 133.985 58.4856 134.382 58.4789C134.811 58.4908 135.102 58.4809 135.257 58.4492C135.382 58.4405 135.621 58.3508 135.974 58.1799C136.288 58.0328 136.494 57.9192 136.592 57.8392C136.691 57.7488 136.777 57.6436 136.852 57.5235C136.927 57.4034 137.032 57.1873 137.167 56.875C137.29 56.5428 137.376 56.2861 137.426 56.1051C137.476 55.9138 137.516 55.7439 137.547 55.5955L137.592 55.3418C137.617 55.0999 137.724 54.9097 137.912 54.7712C138.111 54.6321 138.327 54.5753 138.558 54.6009C138.8 54.6258 138.991 54.7378 139.13 54.9369C139.279 55.125 139.341 55.3347 139.315 55.5662L139.274 55.8667C139.226 56.0789 139.164 56.3129 139.088 56.5688C139.021 56.8136 138.908 57.1348 138.748 57.5323C138.59 57.9506 138.434 58.2694 138.283 58.4889C138.141 58.6972 137.977 58.8913 137.791 59.0713C137.596 59.2729 137.242 59.5012 136.727 59.7564C136.21 59.9804 135.812 60.1177 135.534 60.1685C135.276 60.2074 134.891 60.2238 134.378 60.2177C133.846 60.2131 133.372 60.1678 132.959 60.0817C132.545 59.9853 132.107 59.8487 131.646 59.6721C131.141 59.4671 130.763 59.2899 130.512 59.1403C130.293 58.9885 130.032 58.7717 129.731 58.4899C129.407 58.1888 129.102 57.7924 128.817 57.3006C128.524 56.8511 128.327 56.489 128.224 56.2142C128.102 55.9617 128.001 55.7129 127.921 55.4679C127.839 55.1916 127.743 54.718 127.633 54.0469C127.533 53.3647 127.489 52.8771 127.499 52.5839C127.5 52.3019 127.512 52.0192 127.534 51.7357C127.529 51.6734 127.536 51.6103 127.552 51.5465C127.548 51.4842 127.544 51.4322 127.541 51.3907C127.508 51.2155 127.537 51.0411 127.63 50.8676ZM152.776 48.0649C152.908 48.0035 153.008 47.9391 153.076 47.8717C153.144 47.8043 153.197 47.7276 153.232 47.6415C153.276 47.5236 153.312 47.3697 153.341 47.1798C153.369 46.9794 153.393 46.654 153.413 46.2036C153.444 45.742 153.463 45.3491 153.472 45.0248C153.48 44.6901 153.496 44.099 153.52 43.2516C153.568 41.5566 153.987 40.6816 154.777 40.6265C155.109 40.6033 155.342 40.6498 155.475 40.7658C155.609 40.8818 155.687 41.106 155.711 41.4385C155.722 41.6048 155.681 41.9784 155.586 42.5593C155.022 46.1384 154.824 49.123 154.992 51.5129C155.18 54.1938 155.745 55.9243 156.687 56.7044C156.82 56.81 156.927 56.9175 157.007 57.0267C157.098 57.1248 157.155 57.1991 157.18 57.2496C157.215 57.2994 157.232 57.3295 157.233 57.3399C157.244 57.4958 157.11 57.667 156.831 57.8535C156.482 58.0971 156.173 58.2283 155.903 58.2471C155.29 58.2899 154.753 57.7164 154.294 56.5267C153.835 55.337 153.516 53.4693 153.337 50.9235C153.312 50.5702 153.195 50.3173 152.986 50.1648C152.854 50.0695 152.71 50.0274 152.555 50.0382C151.671 50.0998 150.6 50.2372 149.341 50.4502C148.061 50.6544 147.147 50.8747 146.599 51.1113C145.939 51.3662 145.522 51.6041 145.349 51.825C145.178 52.0562 145.056 52.5607 144.986 53.3383C144.92 54.0425 144.914 54.7738 144.967 55.5324L145.108 57.5431C145.142 58.0315 145.078 58.3805 144.915 58.5903C144.753 58.8104 144.47 58.9346 144.064 58.9629C143.753 58.9846 143.517 58.9018 143.358 58.7145C143.21 58.5369 143.118 58.1935 143.082 57.6844C143.029 56.9362 143.056 55.9789 143.162 54.8124C143.352 52.6064 143.432 48.8365 143.403 43.5027C143.402 42.8867 143.422 42.5094 143.465 42.3707C143.498 42.2535 143.634 42.103 143.872 41.9194C144.099 41.7365 144.353 41.6352 144.633 41.6157C144.935 41.5946 145.135 41.6224 145.234 41.6991C145.333 41.7653 145.389 41.8971 145.403 42.0945C145.404 42.2511 145.337 43.018 145.204 44.3952C145.068 46.0232 145.031 47.284 145.094 48.1777C145.121 48.5621 145.226 48.8785 145.411 49.1267C145.595 49.3748 145.849 49.4877 146.171 49.4652C146.898 49.4145 148.197 49.1778 150.068 48.755C150.264 48.7204 150.501 48.6726 150.778 48.6114C151.067 48.5496 151.283 48.5032 151.427 48.4723C151.581 48.4406 151.761 48.402 151.967 48.3563C152.172 48.3003 152.325 48.253 152.427 48.2146C152.538 48.1651 152.655 48.1152 152.776 48.0649ZM170.262 48.1458L169.585 49.6497C168.583 52.0377 167.523 53.9023 166.406 55.2437C165.318 56.5517 164.249 57.2423 163.199 57.3155C162.628 57.3554 161.999 57.0233 161.312 56.3193C160.614 55.5953 160.207 54.4124 160.092 52.7706C159.995 51.3782 160.171 49.2827 160.623 46.4841C161.003 44.1708 161.169 42.5198 161.121 41.5312C161.32 41.0892 161.648 40.8523 162.105 40.8204C162.417 40.7987 162.674 40.8904 162.876 41.0956C163.09 41.3104 163.205 41.5373 163.221 41.7763C163.269 42.4517 163.094 43.4559 162.697 44.7889C161.896 47.5178 161.563 49.8383 161.697 51.7503C161.834 53.7142 162.428 54.6596 163.478 54.5864C164.517 54.5139 165.701 53.5282 167.029 51.6291C168.32 49.7744 169.385 47.2515 170.226 44.0603C170.559 42.8467 170.843 42.0594 171.079 41.6984C171.258 41.4248 171.514 41.2765 171.847 41.2533C172.086 41.2366 172.262 41.2974 172.376 41.4356C172.49 41.5635 172.56 41.8248 172.588 42.2197C172.586 42.3451 172.518 42.7153 172.384 43.3303C171.921 45.8164 171.766 48.1454 171.918 50.3171C172.107 53.0084 172.672 54.7389 173.614 55.5086C173.747 55.6246 173.854 55.7372 173.935 55.8465C174.026 55.9446 174.083 56.0189 174.107 56.0694C174.142 56.1192 174.16 56.1493 174.161 56.1597C174.171 56.3051 174.037 56.4763 173.758 56.6733C173.41 56.9169 173.101 57.0481 172.83 57.0669C172.28 57.1053 171.778 56.6547 171.326 55.7151C170.824 54.6642 170.497 53.058 170.346 50.8966L170.307 50.3511C170.296 50.1849 170.289 50.013 170.287 49.8357L170.262 48.1458ZM180.278 39.5377C180.732 39.3076 181.189 39.1192 181.649 38.9722C182.108 38.8253 182.592 38.7237 183.099 38.6675C183.617 38.6001 184.111 38.6439 184.581 38.7991C185.061 38.9432 185.471 39.2069 185.811 39.5905C185.956 39.5699 186.246 39.5392 186.682 39.4984C187.118 39.4576 187.408 39.4321 187.554 39.422C188.399 44.4796 188.871 49.4223 188.97 54.25C188.857 54.2788 188.627 54.347 188.279 54.4548C187.941 54.5515 187.716 54.6194 187.604 54.6585C187.522 53.7767 187.447 53.0823 187.38 52.5753C187.323 52.0676 187.227 51.4426 187.092 50.7002C186.966 49.9467 186.824 49.2622 186.666 48.6467C185.862 49.5381 185.218 50.2565 184.734 50.8019C184.26 51.3466 183.692 52.0284 183.029 52.8473C182.375 53.6552 181.797 54.416 181.294 55.1298C181.213 55.313 181.103 55.4564 180.964 55.5601C180.834 55.6526 180.681 55.6998 180.504 55.7018C180.326 55.7037 180.164 55.6941 180.016 55.6731C179.868 55.6521 179.688 55.6176 179.476 55.5698C179.263 55.5115 179.104 55.4756 178.999 55.4621C179.038 55.428 179.128 55.3644 179.267 55.2711C179.407 55.1778 179.497 55.1141 179.536 55.0801C179.742 54.5958 180.031 54.0954 180.402 53.5787C180.773 53.0621 181.133 52.6141 181.482 52.2347C181.832 51.8553 182.213 51.411 182.626 50.9019C183.039 50.3927 183.372 49.9206 183.623 49.4854C183.052 49.5252 182.481 49.5075 181.912 49.4324C181.342 49.3468 180.784 49.203 180.237 49.0009C179.701 48.7982 179.22 48.4975 178.796 48.099C178.371 47.7005 178.061 47.2313 177.867 46.6915C177.217 45.4733 177.205 44.0279 177.829 42.3555C178.527 41.1373 179.343 40.1981 180.278 39.5377ZM181.273 40.9876C180.964 41.1971 180.655 41.4014 180.345 41.6005C178.976 43.2309 178.621 44.6393 179.278 45.8256C179.614 46.5853 180.191 47.1455 181.01 47.5061C181.829 47.8667 182.638 47.946 183.438 47.744C184.687 47.2392 185.709 46.4632 186.502 45.4159C186.499 45.3744 186.501 45.2593 186.509 45.0708C186.527 44.8816 186.534 44.761 186.531 44.7091C186.537 44.646 186.544 44.5254 186.552 44.3473C186.561 44.1692 186.562 44.0438 186.557 43.9711C186.552 43.8983 186.549 43.7837 186.549 43.6271C186.547 43.4601 186.539 43.3354 186.522 43.253C186.516 43.1595 186.503 43.0455 186.483 42.9112C186.462 42.7664 186.438 42.648 186.411 42.5559C186.383 42.4535 186.344 42.3465 186.294 42.2351C186.255 42.1126 186.21 41.9957 186.16 41.8843C185.905 41.6723 185.525 41.3856 185.019 41.024C184.523 40.6514 184.176 40.3885 183.977 40.2352C183.394 40.2654 182.887 40.3321 182.456 40.4353C182.025 40.5384 181.63 40.7225 181.273 40.9876ZM17.0244 85.1748L17.5021 85.0632C19.8296 84.4519 21.8032 82.6645 23.4227 79.7009C24.1458 78.3975 24.8061 77.4639 25.4035 76.9001C25.9935 76.3787 26.6314 76.094 27.3172 76.0462C27.525 76.0317 27.7561 76.1253 28.0104 76.3268C28.2529 76.5083 28.3836 76.7341 28.4025 77.0043C28.4244 77.316 28.054 77.6186 27.2914 77.9119C26.7427 78.1277 26.2383 78.4552 25.7783 78.8945C25.3495 79.3317 24.612 80.3542 23.5657 81.9621C22.793 83.1541 22.0902 84.002 21.4572 84.5055C21.4468 84.5063 21.4316 84.5125 21.4115 84.5244C21.4018 84.5355 21.387 84.547 21.3669 84.5588C21.3573 84.5699 21.3428 84.5866 21.3235 84.6088C21.3041 84.6311 21.2848 84.6533 21.2655 84.6755C21.2565 84.697 21.2428 84.7241 21.2242 84.7567C21.216 84.7886 21.2081 84.8257 21.2007 84.868C21.2036 84.9096 21.2065 84.9511 21.2094 84.9927C21.213 85.0446 21.2163 85.0914 21.2192 85.133C21.2318 85.1634 21.2444 85.1939 21.257 85.2243C21.2799 85.254 21.2977 85.2841 21.3103 85.3146C21.3325 85.3339 21.3496 85.3536 21.3614 85.3737C21.3829 85.3826 21.4048 85.3967 21.4271 85.4161C21.459 85.4243 21.4805 85.4332 21.4916 85.4429C21.5027 85.4526 21.519 85.4619 21.5405 85.4708C21.5621 85.4798 21.5728 85.4842 21.5728 85.4842C22.2344 85.8349 22.9652 86.5775 23.7653 87.7121C25.027 89.4724 25.9922 90.5798 26.6611 91.0344C27.3833 91.5061 28.1809 91.7116 29.0538 91.6507L29.5827 91.5982C29.6346 91.5946 29.6762 91.5917 29.7074 91.5895C29.7199 91.6199 29.7273 91.6507 29.7295 91.6819C29.7492 91.9625 29.5896 92.2921 29.2506 92.6707C28.9013 93.0501 28.2643 93.2721 27.3394 93.3365C26.6536 93.3844 25.9763 93.1079 25.3077 92.5071C24.6042 91.8565 23.7762 90.7709 22.8237 89.2501C22.246 88.3088 21.7104 87.5944 21.2167 87.1067C20.6778 86.5699 20.0966 86.3233 19.4732 86.3668C19.3277 86.3769 18.9564 86.5177 18.3593 86.789C18.1061 86.9007 17.9089 86.9927 17.7678 87.0652C17.6364 87.1266 17.5019 87.2195 17.3645 87.3439C17.2374 87.4677 17.1478 87.6044 17.0956 87.7543C17.0196 88.0102 17.0119 88.7938 17.0726 90.1053C17.1192 91.3655 17.1695 92.3801 17.2234 93.1491C17.2431 93.4296 17.1262 93.6988 16.8728 93.9567C16.5986 94.2159 16.2952 94.3572 15.9627 94.3804C15.6406 94.4028 15.385 94.3319 15.1959 94.1675C15.0062 93.9928 14.9051 93.8171 14.8927 93.6405C14.8672 93.2768 14.9444 92.3682 15.1244 90.9146C15.4352 88.1989 15.625 83.7583 15.6938 77.5928C15.6915 77.1126 15.8431 76.6687 16.1486 76.261C16.4349 75.8756 16.7598 75.6702 17.1235 75.6449C17.2482 75.6362 17.3684 75.7113 17.4839 75.8703C17.6351 76.0895 17.7241 76.3914 17.7511 76.7758C17.7744 77.1083 17.749 77.4912 17.675 77.9245C17.2253 80.1487 17.0072 82.3985 17.0206 84.6739L17.0244 85.1748ZM37.9094 75.6523L38.4245 75.8513C40.6516 76.6358 41.89 78.8102 42.14 82.3743C42.3302 85.0864 41.6858 87.5121 40.2069 89.6514C38.9239 91.7561 37.4823 92.8643 35.882 92.9759C34.3752 93.0809 33.1228 92.4947 32.1248 91.2173C31.103 89.8998 30.497 87.885 30.3068 85.1729C30.0729 81.8373 30.3975 78.4263 31.2808 74.9397C32.1646 71.6098 33.2915 69.0669 34.6616 67.3111C35.9723 65.6012 37.3706 64.6945 38.8566 64.5909C39.7918 64.5257 40.5611 64.7748 41.1645 65.3384C41.7694 65.9228 42.1112 66.7761 42.1899 67.8983C42.2533 68.8023 41.9297 69.9213 41.2192 71.2552C40.4797 72.6224 39.5017 73.9384 38.2851 75.2032L37.9094 75.6523ZM32.1507 79.7502L32.9621 79.0358C36.3292 75.6789 38.4119 73.2887 39.2101 71.8652C40.11 70.4032 40.5305 69.2514 40.4714 68.4097C40.4233 67.7239 40.2244 67.1948 39.8746 66.8224C39.5247 66.4499 39.0485 66.2848 38.4458 66.3268C37.126 66.4188 35.9029 67.59 34.7763 69.8405C33.6862 72.0153 32.8645 74.9651 32.3113 78.6896L32.1507 79.7502ZM40.0852 83.0031L40.083 82.972C39.9628 81.2574 39.5742 79.8853 38.9172 78.8556C38.2662 77.7628 37.577 77.2418 36.8496 77.2925C36.7873 77.2968 36.7257 77.3116 36.6648 77.3367C36.6039 77.3618 36.5337 77.4033 36.4542 77.461C36.374 77.5084 36.2941 77.5609 36.2147 77.6187C36.1456 77.6757 36.0523 77.7605 35.9349 77.8731C35.8168 77.9753 35.7086 78.0716 35.6106 78.162C35.5132 78.2628 35.3817 78.3972 35.2159 78.5654C35.0606 78.7329 34.925 78.8833 34.809 79.0167C34.6923 79.1397 34.527 79.3131 34.3129 79.5368C34.1093 79.7599 33.9294 79.9499 33.7734 80.107C33.274 80.5804 32.7829 81.0219 32.2999 81.4314L32.1818 81.5337L32.1626 81.7073C32.0649 82.6956 32.0568 83.7717 32.1384 84.9355C32.2849 87.0242 32.6974 88.5878 33.3759 89.6265C34.1011 90.7349 34.9676 91.2541 35.9756 91.1838C37.3265 91.0896 38.3745 90.1759 39.1197 88.4428C39.8996 86.7595 40.2215 84.9463 40.0852 83.0031ZM56.952 85.8682C56.8349 85.6884 56.7131 85.5142 56.5864 85.3455C56.4241 85.1166 56.2408 84.884 56.0362 84.6477C55.8532 84.4203 55.4314 84.0633 54.7707 83.5769C54.1857 83.1269 53.8027 82.8769 53.6217 82.8268C53.4718 82.7746 53.1957 82.7834 52.7934 82.8533C52.3494 82.926 51.9611 83.047 51.6284 83.2164C51.2541 83.3887 50.9682 83.5548 50.7706 83.7148C50.5826 83.8636 50.4109 84.0218 50.2556 84.1893C50.1174 84.3033 49.9319 84.5616 49.6991 84.9642C49.4455 85.3682 49.2933 85.6556 49.2427 85.8262C49.1934 86.0176 49.1482 86.2661 49.107 86.5718C49.0866 86.876 49.0926 87.1106 49.125 87.2754C49.1367 87.4416 49.2187 87.7178 49.3711 88.104C49.5213 88.459 49.6698 88.7149 49.8165 88.8718C49.9973 89.068 50.1686 89.2022 50.3303 89.2745C50.4831 89.3683 50.6462 89.4613 50.8198 89.5536C51.003 89.6348 51.2912 89.7244 51.6845 89.8223C52.0347 89.9023 52.3348 89.9388 52.5849 89.9318C52.8655 89.9122 53.0968 89.8595 53.2787 89.7738C53.4836 89.7177 53.6916 89.6301 53.9025 89.511C54.1238 89.3911 54.3489 89.2501 54.5777 89.088C54.756 88.9503 55.0867 88.6035 55.5698 88.0477C56.0211 87.4837 56.2935 87.1254 56.3872 86.9726C56.4795 86.7991 56.5617 86.6316 56.6339 86.4699C56.738 86.3164 56.844 86.1159 56.952 85.8682ZM58.5085 86.6211C58.3798 86.8703 58.2789 87.0705 58.206 87.2217C58.1345 87.3938 58.0285 87.5944 57.8879 87.8235C57.7592 88.0726 57.4254 88.524 56.8865 89.1776C56.3372 89.832 55.9084 90.2691 55.6001 90.489C55.3118 90.6971 55.0166 90.8795 54.7143 91.0363C54.4232 91.2028 54.135 91.3378 53.8499 91.4412C53.5336 91.5468 53.1624 91.6144 52.7364 91.6441C52.291 91.6961 51.7968 91.647 51.2537 91.4969C50.7551 91.3855 50.376 91.2657 50.1164 91.1376C49.8679 91.0192 49.618 90.88 49.3666 90.72C49.1159 90.5704 48.8546 90.3433 48.5826 90.0385C48.2572 89.7166 47.9921 89.2861 47.7872 88.747C47.5837 88.2286 47.4551 87.8095 47.4014 87.4895C47.3595 87.1896 47.3603 86.8293 47.4039 86.4086C47.4586 85.9975 47.5273 85.6377 47.6101 85.3291C47.6929 85.0205 47.8879 84.5997 48.1951 84.0666C48.5038 83.5543 48.7852 83.1745 49.0393 82.927C49.2652 82.7233 49.5074 82.5289 49.7659 82.3438C50.0341 82.1476 50.384 81.9248 50.8155 81.6755C51.3101 81.4321 51.877 81.2517 52.5162 81.134C53.1664 81.026 53.6997 81.0358 54.1159 81.1634C54.4883 81.2628 55.0827 81.6233 55.8991 82.2452C55.7459 81.8486 55.6243 81.5282 55.534 81.2838C55.3838 80.9288 55.1699 80.4843 54.8923 79.9502C54.5953 79.4384 54.3428 79.0383 54.1346 78.75C53.9264 78.4617 53.6955 78.222 53.4419 78.0308C53.2418 77.8568 52.8669 77.648 52.3172 77.4044C51.7676 77.1608 51.2976 77.0109 50.9073 76.9545C50.4769 76.9219 50.1311 76.9042 49.8698 76.9016C49.61 76.9197 49.3562 76.9478 49.1082 76.986C48.9019 77.0213 48.5261 77.1728 47.981 77.4405C47.5874 77.635 47.3323 77.7938 47.2156 77.9168L47.046 78.1792C46.9345 78.3749 46.761 78.5071 46.5256 78.5757C46.2999 78.6332 46.0784 78.6017 45.8611 78.4811C45.6535 78.3494 45.5157 78.171 45.4477 77.946C45.3894 77.7099 45.4316 77.4929 45.5743 77.295L45.7417 77.0014C45.9566 76.6419 46.4425 76.2738 47.1993 75.8974C47.9055 75.5453 48.4495 75.3351 48.831 75.2667C49.1517 75.2235 49.4783 75.1903 49.8108 75.1671C50.1552 75.164 50.5953 75.1855 51.1311 75.2317C51.6891 75.2972 52.3186 75.4882 53.0196 75.8048C53.7205 76.1214 54.2381 76.4299 54.5725 76.7303C54.895 77.0106 55.21 77.3333 55.5175 77.6982C55.8043 78.0645 56.1042 78.5448 56.4174 79.1391C56.741 79.7326 56.98 80.238 57.1346 80.6554C57.2877 81.0519 57.4944 81.617 57.7547 82.3507C58.015 83.0844 58.2022 83.5934 58.3161 83.8779C58.4411 84.172 58.5572 84.4876 58.6644 84.8247C58.7813 85.1507 58.8652 85.3798 58.9162 85.512L58.9184 85.5431C59.034 85.7021 59.0192 85.9381 58.8741 86.2511L58.5085 86.6211ZM69.972 76.0952C69.5861 76.1012 69.2753 76.5092 69.0398 77.3192C67.4107 81.9333 66.1531 85.07 65.267 86.7294C65.1725 86.8718 65.0565 87.0783 64.9188 87.3489C64.566 88.1253 64.216 88.7919 63.8687 89.3487C63.5332 89.9255 63.2692 90.3302 63.0767 90.5629C62.8878 90.8476 62.7466 90.9932 62.6531 90.9997C62.3413 91.0214 62.1218 90.9428 61.9943 90.7637C61.858 90.6061 61.7749 90.3143 61.745 89.8883C61.7064 89.3376 62.1234 88.5097 62.9962 87.4046C63.9056 86.0778 65.0091 83.8707 66.3067 80.7834C67.5676 77.9179 68.5729 75.3522 69.3224 73.0862C69.3994 72.6945 69.5314 72.4921 69.7184 72.4791C69.8223 72.4718 70.0453 72.5242 70.3873 72.6361C70.6788 72.7724 70.8605 72.9059 70.9323 73.0366C71.0537 73.2788 71.3404 74.2403 71.7925 75.9213C72.615 79.1636 73.4315 81.7224 74.2417 83.5976C75.0608 85.5976 75.8844 86.9185 76.7125 87.5604C77.0188 87.7583 77.2001 87.8866 77.2564 87.9454C77.2772 87.9439 77.2872 87.938 77.2865 87.9276C77.3091 88.2497 77.2519 88.5513 77.115 88.8323C76.9781 89.1134 76.8443 89.2898 76.7135 89.3616C76.5732 89.4444 76.2328 89.5047 75.6924 89.5424C75.4522 89.3921 74.9938 88.8863 74.3173 88.025C73.494 87.0069 72.4269 84.074 71.1158 79.2263C70.7828 77.9026 70.5167 77.0127 70.3177 76.5566L70.1913 76.0956L69.972 76.0952ZM90.3111 79.7832L89.6334 81.2871C88.6314 83.6751 87.5717 85.5398 86.4545 86.8812C85.3663 88.1892 84.2974 88.8798 83.2478 88.953C82.6763 88.9928 82.0474 88.6607 81.361 87.9568C80.6628 87.2328 80.2562 86.0498 80.141 84.408C80.0434 83.0156 80.2201 80.9201 80.6713 78.1216C81.052 75.8082 81.2182 74.1573 81.1697 73.1686C81.3685 72.7267 81.6964 72.4897 82.1537 72.4579C82.4654 72.4361 82.7224 72.5278 82.9248 72.733C83.1383 72.9479 83.2534 73.1748 83.2701 73.4138C83.3175 74.0892 83.1425 75.0934 82.7452 76.4263C81.9446 79.1553 81.6114 81.4758 81.7454 83.3877C81.8832 85.3517 82.4768 86.297 83.5264 86.2239C84.5655 86.1514 85.7494 85.1656 87.0782 83.2665C88.3682 81.4119 89.4339 78.889 90.2752 75.6977C90.6078 74.4841 90.892 73.6968 91.1277 73.3358C91.3069 73.0623 91.5628 72.9139 91.8953 72.8907C92.1343 72.8741 92.3109 72.9348 92.425 73.0731C92.5384 73.2009 92.6089 73.4623 92.6366 73.8571C92.635 73.9826 92.567 74.3528 92.4326 74.9678C91.9699 77.4539 91.8148 79.7828 91.9671 81.9546C92.1558 84.6459 92.721 86.3764 93.6626 87.1461C93.796 87.2621 93.9031 87.3747 93.9839 87.4839C94.0743 87.582 94.1317 87.6564 94.1561 87.7069C94.191 87.7566 94.2087 87.7867 94.2095 87.7971C94.2197 87.9426 94.0855 88.1138 93.8069 88.3107C93.4585 88.5543 93.1492 88.6855 92.8791 88.7044C92.3283 88.7428 91.8268 88.2922 91.3745 87.3526C90.8727 86.3016 90.546 84.6955 90.3944 82.5341L90.3562 81.9886C90.3445 81.8223 90.3377 81.6505 90.3357 81.4731L90.3111 79.7832ZM102.42 65.7351C102.523 65.7071 102.722 65.6462 103.019 65.5524C103.325 65.458 103.53 65.3967 103.632 65.3687C103.93 65.7447 104.143 66.1685 104.27 66.6399C104.396 67.101 104.479 67.6852 104.518 68.3925C104.567 69.0887 104.61 69.5556 104.647 69.7932C105.611 69.8408 106.334 69.8739 106.816 69.8926C107.069 70.2195 107.401 70.5671 107.813 70.9351C108.235 71.2921 108.617 71.6048 108.96 71.8733C109.302 72.1314 109.648 72.457 109.999 72.8502C110.351 73.2434 110.614 73.6479 110.789 74.0638C110.824 74.2598 110.854 74.4717 110.881 74.6996C110.918 74.9268 110.942 75.1235 110.954 75.2897C110.975 75.4449 110.99 75.6579 110.998 75.9288C111.007 76.1997 111.01 76.3978 111.009 76.5233C111.006 76.6383 111.006 76.8576 111.008 77.1812C111.009 77.4943 111.012 77.6925 111.018 77.7756C110.767 78.6598 110.584 79.3252 110.469 79.7718C110.147 80.546 109.93 81.0885 109.816 81.3993C109.356 82.2876 108.73 83.0413 107.938 83.6604C107.145 84.2691 106.256 84.6965 105.271 84.9427C105.312 85.9736 105.372 86.8936 105.449 87.7026C105.537 88.511 105.606 89.425 105.657 90.4448C105.708 91.475 105.715 92.3934 105.678 93.2L104.828 93.5882C104.533 92.951 104.31 92.2355 104.161 91.4419C104.021 90.6476 103.948 89.8957 103.94 89.1862C103.932 88.4767 103.904 87.7112 103.857 86.8895C103.82 86.0672 103.757 85.3093 103.666 84.616C102.938 84.3536 102.256 84.0147 101.621 83.5996C100.987 83.1844 100.405 82.708 99.8766 82.1706C99.3578 81.622 98.9381 80.9986 98.6177 80.3005C98.2965 79.5919 98.1141 78.8528 98.0706 78.0832C97.898 77.2598 97.869 76.4004 97.9837 75.5048C98.1088 74.6086 98.3585 73.7767 98.7329 73.0092C99.1064 72.2313 99.6283 71.558 100.298 70.9892C100.978 70.4092 101.745 70.032 102.6 69.8576C102.588 69.5451 102.563 69.1135 102.525 68.5628C102.485 68.0017 102.455 67.4922 102.433 67.0342C102.412 66.5763 102.407 66.1432 102.42 65.7351ZM104.73 71.4164C105.057 76.8234 105.315 80.7263 105.504 83.1252C106.348 82.8053 107.051 82.2603 107.614 81.4902C108.185 80.7089 108.609 79.8284 108.885 78.8485C108.915 78.6793 108.973 78.3933 109.06 77.9905C109.146 77.5773 109.207 77.2545 109.242 77.0223C109.289 76.7894 109.326 76.4996 109.354 76.1531C109.392 75.8058 109.396 75.4819 109.364 75.1813C109.332 74.8807 109.276 74.5922 109.194 74.316C108.877 73.9726 108.541 73.6515 108.186 73.3525C107.842 73.0528 107.356 72.6743 106.728 72.2168C106.1 71.7489 105.725 71.467 105.604 71.3711C105.167 71.3911 104.875 71.4062 104.73 71.4164ZM101.767 72.0459C101.69 72.1452 101.535 72.3178 101.302 72.5638C101.078 72.7987 100.909 72.988 100.793 73.1318C100.677 73.2652 100.538 73.442 100.376 73.6621C100.224 73.8711 100.098 74.0835 99.9981 74.2993C99.908 74.504 99.8398 74.7228 99.7935 74.9558C99.6861 75.36 99.6314 75.7711 99.6294 76.1889C99.6274 76.6067 99.6854 77.0621 99.8035 77.5551C99.9313 78.037 100.042 78.4208 100.135 78.7067C100.238 78.9815 100.392 79.3936 100.598 79.9432C100.902 80.5589 101.299 81.0847 101.789 81.5204C102.289 81.9554 102.86 82.2706 103.5 82.4662C103.429 81.1554 103.186 77.6169 102.771 71.8505C102.678 71.8674 102.503 71.9057 102.247 71.9654C101.999 72.014 101.839 72.0408 101.767 72.0459ZM125.819 77.3076L125.141 78.8115C124.139 81.1995 123.079 83.0641 121.962 84.4055C120.874 85.7135 119.805 86.4041 118.755 86.4773C118.184 86.5172 117.555 86.1851 116.869 85.4811C116.17 84.7571 115.764 83.5742 115.649 81.9324C115.551 80.54 115.728 78.4445 116.179 75.6459C116.56 73.3326 116.726 71.6816 116.677 70.693C116.876 70.251 117.204 70.0141 117.661 69.9822C117.973 69.9605 118.23 70.0522 118.432 70.2574C118.646 70.4722 118.761 70.6991 118.778 70.9381C118.825 71.6136 118.65 72.6177 118.253 73.9507C117.452 76.6796 117.119 79.0001 117.253 80.9121C117.391 82.876 117.984 83.8214 119.034 83.7482C120.073 83.6758 121.257 82.69 122.586 80.7909C123.876 78.9362 124.941 76.4133 125.783 73.2221C126.115 72.0085 126.4 71.2212 126.635 70.8602C126.814 70.5866 127.07 70.4383 127.403 70.4151C127.642 70.3984 127.818 70.4592 127.933 70.5974C128.046 70.7253 128.116 70.9866 128.144 71.3815C128.143 71.5069 128.075 71.8771 127.94 72.4921C127.477 74.9782 127.322 77.3072 127.475 79.4789C127.663 82.1702 128.229 83.9007 129.17 84.6704C129.304 84.7864 129.411 84.8991 129.491 85.0083C129.582 85.1064 129.639 85.1807 129.664 85.2312C129.699 85.281 129.716 85.3111 129.717 85.3215C129.727 85.467 129.593 85.6382 129.314 85.8351C128.966 86.0787 128.657 86.2099 128.387 86.2287C127.836 86.2671 127.334 85.8165 126.882 84.877C126.38 83.826 126.054 82.2198 125.902 80.0585L125.864 79.5129C125.852 79.3467 125.845 79.1748 125.843 78.9975L125.819 77.3076ZM135.799 76.8937L136.276 76.7821C138.604 76.1708 140.577 74.3834 142.197 71.4198C142.92 70.1163 143.58 69.1827 144.178 68.619C144.768 68.0975 145.406 67.8129 146.091 67.7651C146.299 67.7506 146.53 67.8441 146.785 68.0457C147.027 68.2272 147.158 68.453 147.177 68.7232C147.199 69.0349 146.828 69.3374 146.066 69.6308C145.517 69.8465 145.012 70.1741 144.553 70.6134C144.124 71.0505 143.386 72.073 142.34 73.681C141.567 74.873 140.864 75.7208 140.231 76.2244C140.221 76.2251 140.206 76.2314 140.186 76.2432C140.176 76.2544 140.161 76.2658 140.141 76.2777C140.131 76.2888 140.117 76.3055 140.098 76.3277C140.078 76.3499 140.059 76.3722 140.04 76.3944C140.031 76.4159 140.017 76.443 139.998 76.4756C139.99 76.5075 139.982 76.5446 139.975 76.5869C139.978 76.6284 139.981 76.67 139.984 76.7116C139.987 76.7635 139.99 76.8103 139.993 76.8518C140.006 76.8823 140.019 76.9127 140.031 76.9432C140.054 76.9729 140.072 77.003 140.084 77.0334C140.107 77.0528 140.124 77.0725 140.136 77.0925C140.157 77.1015 140.179 77.1156 140.201 77.1349C140.233 77.1432 140.255 77.1521 140.266 77.1618C140.277 77.1714 140.293 77.1807 140.315 77.1897C140.336 77.1986 140.347 77.2031 140.347 77.2031C141.009 77.5538 141.739 78.2964 142.539 79.431C143.801 81.1913 144.766 82.2987 145.435 82.7533C146.158 83.225 146.955 83.4304 147.828 83.3696L148.357 83.317C148.409 83.3134 148.45 83.3105 148.482 83.3083C148.494 83.3388 148.501 83.3696 148.504 83.4008C148.523 83.6813 148.364 84.011 148.025 84.3896C147.675 84.769 147.038 84.9909 146.114 85.0554C145.428 85.1032 144.75 84.8267 144.082 84.226C143.378 83.5754 142.55 82.4897 141.598 80.969C141.02 80.0277 140.485 79.3132 139.991 78.8255C139.452 78.2888 138.871 78.0422 138.247 78.0856C138.102 78.0958 137.731 78.2365 137.134 78.5079C136.88 78.6195 136.683 78.7116 136.542 78.7841C136.411 78.8454 136.276 78.9384 136.139 79.0628C136.012 79.1865 135.922 79.3233 135.87 79.4731C135.794 79.729 135.786 80.5127 135.847 81.8242C135.893 83.0844 135.944 84.099 135.998 84.8679C136.017 85.1485 135.9 85.4177 135.647 85.6755C135.373 85.9348 135.069 86.076 134.737 86.0992C134.415 86.1217 134.159 86.0507 133.97 85.8864C133.78 85.7117 133.679 85.536 133.667 85.3593C133.641 84.9957 133.719 84.087 133.899 82.6335C134.209 79.9178 134.399 75.4772 134.468 69.3116C134.466 68.8315 134.617 68.3876 134.923 67.9799C135.209 67.5945 135.534 67.3891 135.898 67.3637C136.022 67.355 136.143 67.4302 136.258 67.5892C136.409 67.8084 136.498 68.1102 136.525 68.4947C136.549 68.8272 136.523 69.2101 136.449 69.6434C136 71.8676 135.781 74.1173 135.795 76.3928L135.799 76.8937ZM160.95 78.6173C160.832 78.4375 160.711 78.2633 160.584 78.0946C160.422 77.8657 160.238 77.6331 160.034 77.3968C159.851 77.1694 159.429 76.8124 158.768 76.326C158.183 75.876 157.8 75.626 157.619 75.5759C157.469 75.5237 157.193 75.5326 156.791 75.6024C156.347 75.6751 155.959 75.7961 155.626 75.9655C155.252 76.1378 154.966 76.3039 154.768 76.4639C154.58 76.6128 154.408 76.7709 154.253 76.9384C154.115 77.0524 153.929 77.3107 153.697 77.7133C153.443 78.1174 153.291 78.4047 153.24 78.5753C153.191 78.7667 153.146 79.0152 153.105 79.3209C153.084 79.6251 153.09 79.8597 153.123 80.0245C153.134 80.1907 153.216 80.4669 153.369 80.8531C153.519 81.2081 153.667 81.464 153.814 81.6209C153.995 81.8171 154.166 81.9513 154.328 82.0236C154.481 82.1174 154.644 82.2104 154.817 82.3027C155.001 82.3839 155.289 82.4735 155.682 82.5714C156.032 82.6514 156.332 82.6879 156.582 82.6809C156.863 82.6613 157.094 82.6087 157.276 82.5229C157.481 82.4668 157.689 82.3792 157.9 82.2601C158.121 82.1403 158.346 81.9993 158.575 81.8371C158.754 81.6994 159.084 81.3526 159.567 80.7968C160.019 80.2328 160.291 79.8745 160.385 79.7218C160.477 79.5483 160.559 79.3807 160.631 79.219C160.736 79.0656 160.842 78.865 160.95 78.6173ZM162.506 79.3702C162.377 79.6194 162.276 79.8196 162.204 79.9709C162.132 80.1429 162.026 80.3435 161.885 80.5726C161.757 80.8217 161.423 81.2731 160.884 81.9268C160.335 82.5811 159.906 83.0183 159.598 83.2382C159.309 83.4462 159.014 83.6286 158.712 83.7855C158.421 83.9519 158.133 84.0869 157.847 84.1903C157.531 84.2959 157.16 84.3635 156.734 84.3933C156.289 84.4452 155.794 84.3961 155.251 84.246C154.753 84.1346 154.374 84.0148 154.114 83.8868C153.865 83.7683 153.616 83.6291 153.364 83.4691C153.113 83.3195 152.852 83.0924 152.58 82.7876C152.255 82.4657 151.99 82.0352 151.785 81.4961C151.581 80.9777 151.453 80.5586 151.399 80.2386C151.357 79.9387 151.358 79.5784 151.401 79.1577C151.456 78.7467 151.525 78.3868 151.608 78.0783C151.69 77.7697 151.885 77.3488 152.193 76.8158C152.501 76.3035 152.783 75.9236 153.037 75.6762C153.263 75.4725 153.505 75.2781 153.763 75.093C154.032 74.8967 154.382 74.674 154.813 74.4246C155.308 74.1813 155.875 74.0008 156.514 73.8831C157.164 73.7751 157.697 73.7849 158.113 73.9125C158.486 74.0119 159.08 74.3725 159.897 74.9943C159.743 74.5977 159.622 74.2773 159.532 74.033C159.381 73.678 159.167 73.2334 158.89 72.6994C158.593 72.1875 158.34 71.7875 158.132 71.4992C157.924 71.2108 157.693 70.9711 157.439 70.78C157.239 70.606 156.864 70.3972 156.315 70.1535C155.765 69.9099 155.295 69.76 154.905 69.7036C154.474 69.671 154.129 69.6533 153.867 69.6507C153.608 69.6688 153.354 69.6969 153.106 69.7351C152.899 69.7704 152.524 69.9219 151.979 70.1896C151.585 70.3841 151.33 70.5429 151.213 70.6659L151.044 70.9283C150.932 71.124 150.759 71.2562 150.523 71.3248C150.297 71.3823 150.076 71.3508 149.859 71.2302C149.651 71.0985 149.513 70.9201 149.445 70.6952C149.387 70.4591 149.429 70.2421 149.572 70.0441L149.739 69.7505C149.954 69.391 150.44 69.023 151.197 68.6465C151.903 68.2944 152.447 68.0842 152.829 68.0158C153.149 67.9726 153.476 67.9394 153.808 67.9162C154.153 67.9131 154.593 67.9346 155.129 67.9808C155.687 68.0463 156.316 68.2374 157.017 68.5539C157.718 68.8705 158.236 69.179 158.57 69.4794C158.893 69.7598 159.208 70.0824 159.515 70.4473C159.802 70.8137 160.102 71.294 160.415 71.8882C160.739 72.4817 160.978 72.9871 161.132 73.4045C161.285 73.801 161.492 74.3662 161.752 75.0998C162.013 75.8335 162.2 76.3426 162.314 76.627C162.439 76.9211 162.555 77.2367 162.662 77.5738C162.779 77.8998 162.863 78.1289 162.914 78.2611L162.916 78.2922C163.032 78.4513 163.017 78.6872 162.872 79.0002L162.506 79.3702ZM165.799 70.9333C165.854 70.825 165.907 70.6908 165.959 70.5306C166.01 70.3704 166.052 70.2265 166.085 70.0989C166.118 69.9817 166.172 69.8474 166.245 69.6962C166.307 69.5456 166.378 69.4363 166.457 69.3681C166.546 69.2993 166.661 69.2338 166.803 69.1717C166.946 69.12 167.107 69.1191 167.288 69.1692C167.502 69.384 167.635 69.641 167.687 69.9402C167.729 70.2401 167.733 70.5948 167.699 71.0044C167.664 71.4036 167.654 71.6968 167.667 71.8838C167.529 72.6034 167.465 73.3963 167.473 74.2624C167.482 75.1285 167.53 75.8822 167.616 76.5235C167.703 77.1649 167.831 77.9547 168.002 78.8931C168.531 79.5872 169.037 80.1784 169.52 80.6668C170.004 81.1656 170.54 81.5825 171.127 81.9174C171.98 81.576 172.705 81.1861 173.301 80.7478C173.897 80.3094 174.348 79.7558 174.657 79.087C174.638 78.6706 174.639 78.2424 174.66 77.8023C174.683 77.3727 174.72 76.8584 174.772 76.2596C174.834 75.6601 174.872 75.2345 174.886 74.983C174.917 74.5422 174.91 73.9945 174.864 73.3398C174.828 72.6741 174.793 72.1022 174.76 71.6242C174.725 71.1358 174.745 70.5915 174.818 69.9912C174.89 69.391 175.035 68.8431 175.25 68.3478C175.305 68.3857 175.721 68.6543 176.497 69.1536C176.603 69.9189 176.709 70.8984 176.813 72.0919C176.918 73.2854 177.005 74.3079 177.075 75.1592C177.146 76.021 177.292 76.9871 177.513 78.0576C177.735 79.1282 178.027 80.0997 178.391 80.9724C178.828 80.493 179.387 79.9058 180.069 79.2108C180.595 79.4143 180.998 79.7308 181.279 80.1602C181.56 80.5896 181.708 81.07 181.725 81.6014C181.752 82.1321 181.715 82.6567 181.616 83.1753C181.484 83.8319 181.331 84.3281 181.156 84.664C181.092 84.7834 180.986 84.9839 180.838 85.2657C180.701 85.5467 180.587 85.7688 180.494 85.9319C180.401 86.095 180.279 86.2967 180.129 86.5369C179.978 86.7771 179.83 86.965 179.683 87.1005C179.524 87.2264 179.35 87.3482 179.16 87.4659C178.969 87.5732 178.754 87.63 178.514 87.6362C178.285 87.6418 178.036 87.5965 177.768 87.5003C177.92 87.1346 178.175 86.6 178.533 85.8963C178.901 85.1815 179.195 84.5345 179.415 83.9553C179.646 83.3753 179.783 82.7967 179.826 82.2194C179.141 82.4238 178.435 82.5617 177.709 82.6332C177.483 82.3879 177.258 82.0903 177.036 81.7404C176.823 81.3898 176.663 81.1138 176.555 80.9125C176.457 80.7105 176.297 80.3718 176.076 79.8964C175.896 80.3058 175.713 80.6684 175.526 80.9842C175.339 81.3 175.116 81.6184 174.857 81.9393C174.597 82.2602 174.297 82.5265 173.957 82.7382C173.617 82.9499 173.246 83.0958 172.844 83.176C172.242 83.3642 171.639 83.4011 171.035 83.2865C170.433 83.1823 169.879 82.9547 169.374 82.6035C168.869 82.2524 168.414 81.8612 168.007 81.4301C167.172 80.5381 166.799 80.0577 166.888 79.9888C166.888 79.9888 166.868 79.9224 166.827 79.7895C166.809 79.6863 166.794 79.6143 166.781 79.5734C166.507 78.7989 166.233 78.0244 165.96 77.2499C165.95 76.5092 165.94 75.7685 165.929 75.0279C165.927 74.5477 165.904 73.8497 165.861 72.9338C165.827 72.0068 165.806 71.34 165.799 70.9333ZM194.932 72.4889L194.254 73.9928C193.252 76.3808 192.193 78.2454 191.076 79.5868C189.987 80.8948 188.918 81.5854 187.869 81.6586C187.297 81.6985 186.668 81.3664 185.982 80.6624C185.284 79.9384 184.877 78.7555 184.762 77.1137C184.664 75.7213 184.841 73.6258 185.292 70.8272C185.673 68.5139 185.839 66.8629 185.791 65.8743C185.989 65.4323 186.317 65.1954 186.775 65.1635C187.086 65.1418 187.343 65.2335 187.546 65.4387C187.759 65.6535 187.874 65.8804 187.891 66.1194C187.939 66.7948 187.764 67.799 187.366 69.132C186.566 71.8609 186.232 74.1814 186.366 76.0934C186.504 78.0573 187.098 79.0027 188.147 78.9295C189.187 78.857 190.37 77.8713 191.699 75.9722C192.989 74.1175 194.055 71.5946 194.896 68.4034C195.229 67.1898 195.513 66.4025 195.749 66.0415C195.928 65.7679 196.184 65.6196 196.516 65.5964C196.755 65.5797 196.932 65.6405 197.046 65.7787C197.159 65.9066 197.23 66.1679 197.258 66.5628C197.256 66.6882 197.188 67.0584 197.054 67.6734C196.591 70.1595 196.436 72.4885 196.588 74.6602C196.777 77.3515 197.342 79.082 198.284 79.8517C198.417 79.9677 198.524 80.0803 198.605 80.1896C198.695 80.2877 198.753 80.362 198.777 80.4125C198.812 80.4623 198.83 80.4924 198.83 80.5028C198.841 80.6482 198.707 80.8194 198.428 81.0164C198.08 81.26 197.77 81.3912 197.5 81.41C196.949 81.4484 196.448 80.9978 195.996 80.0582C195.494 79.0073 195.167 77.4011 195.015 75.2397L194.977 74.6942C194.966 74.528 194.959 74.3561 194.957 74.1788L194.932 72.4889ZM212.857 71.2391L212.18 72.743C211.178 75.131 210.118 76.9957 209.001 78.337C207.913 79.6451 206.844 80.3356 205.794 80.4088C205.223 80.4487 204.594 80.1166 203.907 79.4126C203.209 78.6886 202.802 77.5057 202.687 75.8639C202.59 74.4715 202.766 72.376 203.218 69.5774C203.598 67.2641 203.764 65.6131 203.716 64.6245C203.915 64.1825 204.243 63.9456 204.7 63.9137C205.012 63.892 205.269 63.9837 205.471 64.1889C205.685 64.4037 205.8 64.6306 205.816 64.8696C205.864 65.5451 205.689 66.5493 205.292 67.8822C204.491 70.6112 204.158 72.9316 204.292 74.8436C204.429 76.8075 205.023 77.7529 206.073 77.6797C207.112 77.6073 208.296 76.6215 209.624 74.7224C210.914 72.8678 211.98 70.3448 212.821 67.1536C213.154 65.94 213.438 65.1527 213.674 64.7917C213.853 64.5181 214.109 64.3698 214.442 64.3466C214.681 64.3299 214.857 64.3907 214.971 64.5289C215.085 64.6568 215.155 64.9181 215.183 65.313C215.181 65.4384 215.113 65.8086 214.979 66.4236C214.516 68.9097 214.361 71.2387 214.513 73.4104C214.702 76.1017 215.267 77.8322 216.209 78.602C216.342 78.718 216.449 78.8306 216.53 78.9398C216.621 79.0379 216.678 79.1122 216.702 79.1627C216.737 79.2125 216.755 79.2426 216.756 79.253C216.766 79.3985 216.632 79.5697 216.353 79.7666C216.005 80.0102 215.695 80.1414 215.425 80.1602C214.875 80.1986 214.373 79.748 213.921 78.8085C213.419 77.7575 213.092 76.1513 212.941 73.99L212.902 73.4444C212.891 73.2782 212.884 73.1064 212.882 72.929L212.857 71.2391Z" fill="#242424"/>
</svg>
