<svg width="158" height="90" viewBox="0 0 158 90" fill="none" xmlns="http://www.w3.org/2000/svg">
<path d="M20.1279 17.4417C54.118 14.9438 137.189 24.8653 140.372 30.8602C144.352 38.3538 -13.5454 33.3863 24.5003 63.4025C45.4497 79.9306 81.3259 65.169 144 59.6737" stroke="#0CE9CA" stroke-width="28" stroke-linecap="round"/>
<path d="M43.8019 26.3621C44.1594 26.2558 44.5845 26.0772 45.0772 25.8265C45.5891 25.5537 45.9702 25.3467 46.2206 25.2054C46.4518 25.0862 46.8569 24.7837 47.4361 24.2979C47.9769 23.8562 48.4218 23.3894 48.7707 22.8974C49.1388 22.3833 49.3849 21.9814 49.509 21.6916C49.6539 21.4005 49.8302 20.7683 50.0379 19.7947C50.2647 18.7991 50.3843 18.1079 50.3965 17.7209C50.4279 17.3118 50.3903 16.6828 50.2836 15.8338C50.1561 14.9861 50.0178 14.2695 49.8686 13.6842C49.7002 13.1209 49.4255 12.4653 49.0445 11.7173C48.6635 10.9693 48.352 10.4465 48.1099 10.1489C47.879 9.86102 47.3535 9.40932 46.5334 8.79381C45.7557 8.18603 45.0199 7.78432 44.3259 7.58867C43.5784 7.37557 43.0268 7.26475 42.6709 7.25621C42.2831 7.23927 41.6262 7.32306 40.7001 7.50756C39.8156 7.6894 39.2478 7.84576 38.9967 7.97664C38.7063 8.14134 38.4124 8.32714 38.1148 8.53405C37.8052 8.72086 37.3112 9.15952 36.6327 9.85004C35.9727 10.5081 35.449 11.173 35.0616 11.8449C34.663 12.5071 34.3988 13.0145 34.2691 13.3673C34.1481 13.6986 34.0202 14.3486 33.8853 15.3175C33.7712 16.285 33.7229 16.9509 33.7403 17.315C33.7712 17.7201 33.892 18.3438 34.1026 19.1862C34.3117 20.0078 34.5456 20.6765 34.8043 21.1922C35.0527 21.7086 35.4086 22.2651 35.8721 22.8617C36.3659 23.4459 36.7483 23.8702 37.0192 24.1347C37.2781 24.379 37.7957 24.7269 38.5719 25.1782C39.3592 25.6392 39.8864 25.9082 40.1535 25.985C40.4421 26.0709 40.8562 26.1592 41.3959 26.2499C41.894 26.3433 42.3354 26.3777 42.72 26.3531L43.4217 26.3082C43.5472 26.3106 43.674 26.3286 43.8019 26.3621ZM39.7003 27.6422C39.2838 27.5227 38.6167 27.2001 37.699 26.6744C36.8014 26.1369 36.1783 25.7071 35.8299 25.385C35.5022 25.0615 35.0727 24.5671 34.5413 23.9018C33.9972 23.206 33.571 22.5497 33.2627 21.9327C32.9528 21.295 32.6786 20.5089 32.44 19.5744C32.223 18.6489 32.0855 17.9428 32.0274 17.456C31.9693 16.9691 32.0133 16.1783 32.1595 15.0835C32.316 13.988 32.4712 13.2162 32.625 12.768C32.8004 12.3288 33.115 11.7294 33.5688 10.9698C34.0322 10.1991 34.6511 9.41323 35.4256 8.61219C36.1825 7.85404 36.7497 7.34807 37.1273 7.09429C37.4752 6.86328 37.8244 6.64785 38.1747 6.448C38.5659 6.23511 39.2857 6.01684 40.3341 5.79319C41.3641 5.60204 42.151 5.50994 42.6947 5.51689C43.2073 5.52585 43.902 5.66404 44.7791 5.93147C45.6977 6.19625 46.6342 6.69471 47.5885 7.42687C48.4996 8.14092 49.1218 8.69603 49.455 9.09219C49.7667 9.4793 50.1377 10.0974 50.5682 10.9466C51.0092 11.7951 51.3294 12.5679 51.5289 13.2648C51.706 13.9423 51.8551 14.7312 51.9761 15.6315C52.1115 16.5831 52.1671 17.3101 52.1428 17.8127C52.1193 18.3256 51.9869 19.1221 51.7456 20.2021C51.5043 21.2821 51.2796 22.0323 51.0714 22.4527C50.8929 22.8503 50.6004 23.3283 50.1939 23.8866C49.7505 24.5099 49.1944 25.0934 48.5257 25.6372C47.8769 26.1692 47.4021 26.5179 47.1013 26.6833C46.8318 26.8467 46.421 27.0765 45.8691 27.3727C45.2964 27.6703 44.7906 27.8853 44.3515 28.0178C43.9124 28.1503 43.439 28.2432 42.9312 28.2965C42.4234 28.3499 42.0596 28.3732 41.8397 28.3664C41.599 28.3609 41.2384 28.2901 40.7579 28.1538L40.1331 27.9746C39.9613 27.9125 39.817 27.8017 39.7003 27.6422ZM55.2792 11.6941C55.3984 11.4777 55.5652 11.3366 55.7796 11.2707C56.0043 11.2041 56.221 11.2372 56.4296 11.37C56.6478 11.4917 56.7857 11.6551 56.8431 11.8602L56.9688 12.2748C57.0558 12.5928 57.1192 12.8758 57.1591 13.1237C57.1981 13.3613 57.2638 13.879 57.3561 14.6767C57.4164 15.4661 57.4636 16.0841 57.4978 16.5307C57.516 16.7696 57.5355 17.024 57.5561 17.2941C57.5897 17.1876 57.6242 17.0914 57.6594 17.0057C57.9518 16.0476 58.2649 15.2918 58.5986 14.7381C58.9636 14.1825 59.2469 13.7886 59.4485 13.5565C59.7109 13.2997 60.1089 13.0394 60.6424 12.7756C61.1567 12.534 61.5478 12.3889 61.8157 12.3404C62.0236 12.3271 62.2367 12.3135 62.455 12.2995C62.7373 12.3024 63.1222 12.4186 63.6098 12.6484C64.1199 12.8975 64.5562 13.2766 64.919 13.7857C65.2338 14.2144 65.5636 14.9082 65.9085 15.8673C66.259 16.7633 66.5041 17.4417 66.6438 17.9024C66.7627 18.3645 66.9678 19.0663 67.2591 20.0079C67.5208 20.9722 67.7283 21.7731 67.8814 22.4104C68.0114 23.0178 68.1314 23.6312 68.2414 24.2504C68.361 24.8585 68.4387 25.2606 68.4746 25.4566C68.4873 25.6228 68.512 25.8091 68.5487 26.0155L68.5737 26.3426C68.6127 26.5802 68.5554 26.7874 68.4018 26.9642C68.2586 27.1404 68.0678 27.2413 67.8295 27.267C67.6016 27.292 67.3877 27.2274 67.1879 27.0732C66.9993 26.9287 66.8858 26.7429 66.8476 26.5157L66.8262 26.2353C66.7895 26.0289 66.7644 25.8374 66.7509 25.6608C66.7174 25.496 66.6569 25.1137 66.5693 24.5139C66.4632 23.9467 66.3456 23.3645 66.2164 22.7674C66.0656 22.1612 65.8558 21.3971 65.5868 20.475C65.3059 19.5327 65.1068 18.841 64.9895 18.3997C64.8514 17.9597 64.6191 17.3118 64.2925 16.456C63.99 15.6404 63.732 15.0672 63.5187 14.7364C63.3325 14.4874 63.1263 14.3179 62.9001 14.228C62.7034 14.1154 62.5471 14.0523 62.4312 14.0389C62.3273 14.0455 62.2129 14.0528 62.0882 14.0608C61.9858 14.0882 61.7583 14.1863 61.4055 14.355C61.0512 14.5029 60.8264 14.6373 60.7312 14.7582C60.5952 14.8922 60.3831 15.1927 60.095 15.66C59.8037 16.0857 59.5375 16.7028 59.2963 17.5115C59.0376 18.363 58.8905 18.9674 58.8551 19.3245C58.7997 19.6933 58.7726 20.2952 58.7737 21.1301C58.7556 21.9871 58.7684 22.7012 58.8121 23.2725C58.8557 23.8437 58.8795 24.291 58.8833 24.6143C58.9111 24.9779 58.9149 25.3012 58.8947 25.5843C58.8979 25.6258 58.9019 25.6777 58.9066 25.7401C58.9114 25.8024 58.8937 25.9131 58.8537 26.0722C58.8232 26.2203 58.7692 26.3333 58.6915 26.4114C58.6139 26.4894 58.4888 26.56 58.316 26.6233C58.1536 26.6858 57.9422 26.6524 57.6816 26.523C57.5521 26.4686 57.4377 26.4081 57.3386 26.3414C57.2499 26.274 57.1876 26.2101 57.1516 26.1498C57.1149 26.0791 57.0889 26.0129 57.0738 25.9513C57.0586 25.8896 57.0495 25.838 57.0463 25.7965L57.0415 25.7341C56.9322 25.3967 56.8444 25.0683 56.7782 24.749C56.712 24.4297 56.6128 23.8829 56.4805 23.1086C56.3354 22.3038 56.2215 21.5648 56.1387 20.8917C56.0551 20.2082 55.98 19.4302 55.9134 18.5577C55.8499 17.7268 55.801 17.088 55.7669 16.6414C55.7328 16.1948 55.6856 15.5768 55.6252 14.7875C55.5457 14.0202 55.4884 13.5438 55.4533 13.3581C55.4406 13.192 55.3932 12.981 55.311 12.7254L55.2176 12.3243C55.1394 12.1205 55.1599 11.9105 55.2792 11.6941ZM70.3306 9.96388C70.3131 9.73538 70.3168 9.51074 70.3417 9.28997C70.377 9.06853 70.4387 8.85062 70.5268 8.63624C70.6149 8.42186 70.7541 8.26161 70.9445 8.15549C71.1453 8.04871 71.3836 8.02303 71.6594 8.07844C71.747 8.67819 71.8228 9.67009 71.8868 11.0541C71.9604 12.4271 72.0306 13.4142 72.0974 14.0153C72.2333 14.1527 72.4374 14.364 72.7099 14.6493C73.1299 14.4032 73.803 14.0522 74.7292 13.5964C76.6037 13.2468 78.105 13.1403 79.2332 13.2768C79.6944 13.5709 80.0241 13.7846 80.2224 13.9181C80.4206 14.0515 80.7027 14.2578 81.0688 14.5371C81.4341 14.806 81.737 15.0788 81.9775 15.3557C82.2172 15.6221 82.4274 15.9114 82.6079 16.2234C82.7229 16.4978 82.8091 16.8054 82.8665 17.1462C82.9231 17.4765 82.9501 17.7618 82.9475 18.0021C82.9546 18.2312 82.9536 18.5601 82.9446 18.9886C82.9451 19.406 82.9466 19.6982 82.9489 19.865C82.3966 20.8397 81.6385 21.6501 80.6746 22.2963C79.7099 22.932 78.6941 23.378 77.6273 23.6341C76.5596 23.8799 75.4449 23.9877 74.2831 23.9577C73.9337 23.8966 73.6175 23.7916 73.3345 23.6427C73.0515 23.4938 72.807 23.3007 72.6008 23.0634C72.3938 22.8157 72.2129 22.5663 72.0579 22.3153C71.9133 22.0637 71.7807 21.7642 71.6602 21.4171C71.5396 21.0699 71.4431 20.763 71.3705 20.4963C71.2978 20.2296 71.2221 19.9213 71.1431 19.5715C70.638 16.243 70.3672 13.0405 70.3306 9.96388ZM72.6547 16.7976C72.7576 18.6906 72.8764 20.1077 73.011 21.0489C73.1205 21.1149 73.2879 21.2555 73.5133 21.4707C73.7379 21.6755 73.9485 21.8343 74.1451 21.9469C74.3417 22.0596 74.5544 22.1086 74.7831 22.094C75.4732 22.102 76.1429 22.0487 76.7922 21.9341C77.4512 21.8085 78.0946 21.6159 78.7224 21.3566C79.3607 21.0966 79.9066 20.7224 80.3603 20.2342C80.8236 19.7348 81.139 19.1458 81.3065 18.4671C81.2548 17.9277 81.2138 17.5285 81.1836 17.2695C81.1357 17.1891 81.0398 17.0282 80.896 16.7869C80.7514 16.5353 80.6552 16.3692 80.6072 16.2888C80.0854 15.7481 79.4607 15.3654 78.7332 15.1406C78.0161 14.9151 77.2952 14.8464 76.5707 14.9345C75.8454 15.0122 75.1349 15.2143 74.439 15.5406C73.7536 15.8663 73.1588 16.2853 72.6547 16.7976ZM84.9303 7.24492C85.0263 7.27009 85.1494 7.30918 85.2997 7.36219C85.4596 7.40414 85.6307 7.45582 85.8129 7.51721C86.0048 7.56756 86.1379 7.60079 86.2123 7.61691C86.5665 9.10763 86.8466 10.7231 87.0527 12.4634C87.258 14.1933 87.3895 15.7765 87.447 17.2132C87.5038 18.6394 87.5348 20.2761 87.5402 22.1231C87.2723 22.1716 86.6505 22.3053 85.6749 22.5243C85.6098 21.6726 85.5823 20.8341 85.5923 20.009C85.7488 19.0492 85.8142 17.9908 85.7884 16.834C85.7627 15.6771 85.6762 14.6128 85.5288 13.6411C85.3918 12.6688 85.2637 11.6072 85.1444 10.4563C85.0243 9.29503 84.953 8.22457 84.9303 7.24492ZM89.8959 9.47907C89.9944 9.26403 90.1504 9.11836 90.3639 9.04208C90.5878 8.96512 90.8081 8.97712 91.0248 9.07807C91.2518 9.17835 91.4048 9.33555 91.4839 9.54968L91.6431 9.9935C91.7765 10.3711 91.8418 10.8158 91.8391 11.3274C91.8508 11.7545 91.8908 12.4147 91.9591 13.308C92.005 14.1817 92.0398 14.7744 92.0636 15.086C92.109 15.4067 92.156 15.7481 92.2046 16.1103C92.2141 16.2349 92.2368 16.3952 92.2727 16.5913C92.3376 16.3471 92.4149 16.0603 92.5047 15.731C92.7218 14.8821 92.9737 14.1459 93.2604 13.5222C93.5574 12.8978 93.8051 12.4488 94.0036 12.1752C94.1708 11.9035 94.4613 11.5353 94.875 11.0705C95.3263 10.5511 95.7551 10.1479 96.1615 9.86094C96.5662 9.55324 96.9674 9.33448 97.3649 9.20468C97.7815 9.05277 98.1518 8.97689 98.4757 8.97704C98.8203 8.97586 99.1869 9.05678 99.5754 9.21979C99.9535 9.38346 100.235 9.57942 100.419 9.80766C100.581 10.0061 100.816 10.419 101.125 11.0463C101.378 11.625 101.554 12.0834 101.653 12.4215C101.742 12.7603 101.862 13.2431 102.015 13.87C102.075 14.1062 102.138 14.3266 102.206 14.531C102.303 14.1595 102.489 13.657 102.765 13.0236C103.073 12.2732 103.311 11.7623 103.478 11.4906C103.645 11.2086 103.876 10.8807 104.171 10.507C104.505 10.0994 104.801 9.79867 105.058 9.60481C105.323 9.37912 105.643 9.20204 106.02 9.07356C106.52 8.91633 107.045 8.95578 107.596 9.1919C108.125 9.41896 108.549 9.7676 108.867 10.2378C109.085 10.6309 109.252 10.9699 109.368 11.2547C109.451 11.5311 109.587 12.0704 109.773 12.8726C109.982 13.6942 110.117 14.2961 110.178 14.6784C110.248 15.0497 110.353 15.6066 110.493 16.3491C110.613 17.0929 110.713 17.7179 110.793 18.2242C110.874 18.7305 110.933 19.2381 110.972 19.747C111.03 20.2338 111.084 20.6584 111.132 21.0205C111.181 21.3827 111.222 21.6463 111.255 21.8111L111.307 22.074C111.346 22.3115 111.299 22.5232 111.167 22.7091C111.035 22.895 110.851 23.006 110.613 23.0421C110.386 23.0775 110.173 23.0285 109.975 22.895C109.786 22.7505 109.663 22.5654 109.604 22.3395L109.586 22.1058C109.551 21.9202 109.498 21.6366 109.427 21.2549C109.376 20.872 109.316 20.4166 109.244 19.8889C109.207 19.4008 109.148 18.9139 109.07 18.4284C108.991 17.9429 108.893 17.3439 108.776 16.6312C108.658 15.9081 108.563 15.3558 108.492 14.9741C108.423 14.6133 108.29 14.0425 108.095 13.2618C107.91 12.4804 107.778 11.9878 107.7 11.7841C107.646 11.6206 107.546 11.4026 107.399 11.1301C107.303 10.9693 107.153 10.8484 106.949 10.7676C106.797 10.6938 106.69 10.6693 106.63 10.6941C106.446 10.7476 106.29 10.8306 106.163 10.9431C105.985 11.0797 105.777 11.2966 105.539 11.5936C105.26 11.9141 105.061 12.1825 104.942 12.3989C104.822 12.6049 104.621 13.0457 104.338 13.7213C104.055 14.3866 103.882 14.8569 103.819 15.1323C103.759 15.4388 103.679 15.8979 103.58 16.5096C103.49 17.1103 103.427 17.7301 103.393 18.369C103.344 19.1027 103.315 19.5429 103.306 19.6896C103.282 19.9312 103.238 20.2367 103.172 20.6062C103.117 20.9751 103.074 21.2439 103.046 21.4128C103.025 21.4141 103.005 21.4258 102.986 21.4479C102.966 21.47 102.922 21.499 102.851 21.5348C102.781 21.5706 102.705 21.6067 102.624 21.6432C102.554 21.679 102.468 21.7159 102.367 21.7537C102.265 21.7915 102.168 21.8186 102.075 21.8349C101.993 21.8506 101.91 21.8612 101.827 21.8665C101.744 21.8718 101.664 21.8612 101.589 21.8347C101.514 21.8082 101.448 21.7655 101.391 21.7065C101.345 21.6468 101.318 21.5651 101.31 21.4612C101.297 21.295 101.285 21.2071 101.274 21.1973C101.262 21.1772 101.265 21.1457 101.283 21.1029C101.3 21.06 101.321 20.996 101.346 20.9109C101.374 20.7213 101.388 20.496 101.389 20.235C101.388 19.9532 101.37 19.5787 101.334 19.1113C101.278 18.6452 101.196 18.1286 101.09 17.5613C100.962 16.9746 100.841 16.4239 100.729 15.9093C100.629 15.4251 100.504 14.8747 100.352 14.2582C100.2 13.6313 100.077 13.1851 99.9835 12.9197C99.9221 12.6627 99.7776 12.2754 99.55 11.7576C99.3719 11.3411 99.2313 11.0735 99.1282 10.9549C99.0835 10.916 98.9951 10.8538 98.8633 10.7683C98.7337 10.714 98.6118 10.6905 98.4975 10.6978C98.3919 10.6837 98.228 10.7255 98.0056 10.8232C97.7297 10.9035 97.4486 11.0519 97.1622 11.2685C96.875 11.4748 96.559 11.782 96.2141 12.1903C95.8189 12.6226 95.5568 12.9525 95.4279 13.1799C95.2951 13.3554 95.103 13.7121 94.8516 14.2501C94.6002 14.788 94.3731 15.4392 94.1704 16.2037C93.9485 16.9902 93.8134 17.5468 93.7652 17.8735C93.7243 18.1579 93.6652 18.6835 93.588 19.4504C93.5428 20.2256 93.5161 20.7648 93.5079 21.068C93.499 21.3609 93.502 21.7416 93.5169 22.2103C93.5318 22.6791 93.5468 23.0121 93.5619 23.2094C93.5651 23.251 93.5738 23.2974 93.5882 23.3486C93.6026 23.3999 93.6261 23.5028 93.6588 23.6572C93.6907 23.8013 93.6678 23.9124 93.5902 23.9904C93.523 24.0678 93.4194 24.1475 93.2794 24.2295C93.1395 24.3115 92.9052 24.3213 92.5766 24.2588C92.144 24.203 91.8642 24.0956 91.7372 23.9368C91.6093 23.7675 91.5926 23.6172 91.687 23.486L91.7975 23.291C91.7569 23.0327 91.719 22.8107 91.6839 22.6251C91.6473 22.4187 91.5747 22.0163 91.4663 21.4179C91.3579 20.8194 91.2654 20.3609 91.1888 20.0423C91.1219 19.7126 91.0023 19.1044 90.83 18.2178C90.6578 17.3313 90.5466 16.6965 90.4965 16.3135C90.4479 15.9513 90.4001 15.5995 90.3532 15.2581C90.327 14.9153 90.2897 14.2915 90.2415 13.3866C90.1716 12.4726 90.1296 11.7864 90.1155 11.3281C90.1117 11.0047 90.0811 10.7406 90.0236 10.5355L89.8679 10.1384C89.7873 9.90351 89.7966 9.68373 89.8959 9.47907ZM22.1533 49.822L22.3618 50.0905C22.4545 50.2098 22.6791 50.3467 23.0357 50.5014C23.4386 50.7156 24.023 50.9131 24.7889 51.0937C25.5364 51.3068 26.0629 51.4297 26.3683 51.4623C26.6842 51.4943 27.1703 51.4997 27.8268 51.4786C28.4209 51.4614 29.0439 51.3433 29.6957 51.1241C30.3675 50.8933 30.7826 50.7206 30.941 50.6061C31.0994 50.4916 31.3535 50.1935 31.7032 49.7119C32.0329 49.242 32.249 48.7898 32.3516 48.3553C32.4407 47.88 32.4757 47.5176 32.4566 47.2684C32.4384 47.0295 32.2428 46.4523 31.8699 45.5368C31.473 44.5811 31.1935 43.9989 31.0313 43.7901C30.8451 43.541 30.5222 43.2121 30.0627 42.8031C29.6039 42.4045 29.1947 42.1072 28.835 41.911C28.4969 41.7239 28.0835 41.5781 27.595 41.4737C27.1057 41.3589 26.7571 41.3081 26.5492 41.3214C26.3517 41.3341 25.9442 41.4697 25.3268 41.7284C24.7501 41.9741 24.2738 42.302 23.8977 42.7123C23.4801 43.1252 23.2032 43.4664 23.0671 43.7361C22.9222 44.0271 22.7328 44.6237 22.4988 45.5259C22.2448 46.4397 22.1084 47.1164 22.0898 47.556C22.0704 47.9851 22.0915 48.7405 22.1533 49.822ZM22.2923 52.0519C22.3122 52.3115 22.3389 52.5238 22.3723 52.6886C22.432 53.1962 22.5376 53.894 22.689 54.7819C22.8452 55.7321 23.0018 56.6197 23.1589 57.4446C23.3055 58.2702 23.4007 58.833 23.4446 59.1328C23.4868 59.4119 23.5357 59.7793 23.5915 60.235C23.6464 60.6803 23.6798 60.9808 23.6917 61.1366L23.7084 61.3547C23.7266 61.5936 23.6537 61.8018 23.4897 61.9793C23.3361 62.1561 23.1397 62.2522 22.9006 62.2675C22.6719 62.2821 22.4681 62.2117 22.289 62.0561C22.11 61.9006 22.0114 61.7034 21.9931 61.4645L21.9765 61.2464C21.9669 61.1217 21.9351 60.842 21.881 60.4071C21.8276 59.9826 21.7751 59.6363 21.7232 59.3682C21.681 59.0891 21.5866 58.5368 21.4399 57.7112C21.2917 56.8648 21.141 55.9873 20.988 55.0786C20.8319 54.1284 20.7231 53.3891 20.6619 52.8607C20.6117 52.4778 20.5581 51.9124 20.5009 51.1645C20.4779 50.8633 20.4521 50.5258 20.4235 50.1519C20.3675 48.8717 20.3504 47.9647 20.3723 47.431C20.3942 46.8973 20.5374 46.1054 20.8018 45.0552C21.0879 44.014 21.3314 43.3044 21.5323 42.9262C21.742 42.5266 22.1029 42.0547 22.615 41.5106C23.1463 40.9443 23.8266 40.4833 24.656 40.1275C25.4454 39.7952 26.0224 39.6226 26.3871 39.6097C26.7701 39.5643 27.291 39.6145 27.9498 39.7602C28.6086 39.9059 29.1886 40.1141 29.6899 40.3847C30.1599 40.6573 30.6594 41.0428 31.1885 41.5412C31.7367 42.0176 32.1271 42.4101 32.3596 42.7187C32.6457 43.0449 33.0143 43.7675 33.4655 44.8868C33.9382 46.015 34.1745 46.7827 34.1742 47.1898C34.2036 47.5741 34.1585 48.0779 34.039 48.7014C33.9043 49.3989 33.6057 50.0703 33.1431 50.7157C32.679 51.3403 32.2837 51.7726 31.9573 52.0127C31.6702 52.2189 31.1095 52.4688 30.2753 52.7622C29.4596 53.0232 28.6559 53.1685 27.8642 53.1983C27.135 53.2241 26.5752 53.2129 26.185 53.1648C25.8053 53.1161 25.1992 52.9774 24.367 52.7489C23.5147 52.5321 22.8231 52.2997 22.2923 52.0519ZM48.605 48.4112C48.4868 48.2309 48.3637 48.0561 48.2359 47.8869C48.0721 47.6573 47.8871 47.4239 47.681 47.1866C47.4964 46.9583 47.072 46.5993 46.4078 46.1095C45.8195 45.6566 45.4347 45.4047 45.2532 45.3536C45.1029 45.3006 44.8266 45.3079 44.4244 45.3754C43.9805 45.4455 43.5927 45.5643 43.2607 45.7316C42.8872 45.9017 42.602 46.066 42.4052 46.2247C42.218 46.3724 42.0472 46.5294 41.8928 46.6959C41.7552 46.8091 41.5712 47.0661 41.3406 47.467C41.0893 47.8693 40.9388 48.1555 40.8892 48.3257C40.8411 48.5166 40.7974 48.7647 40.758 49.0699C40.7394 49.3738 40.7469 49.6081 40.7804 49.773C40.7931 49.9392 40.8769 50.2156 41.0318 50.6023C41.1843 50.9578 41.3345 51.2144 41.4824 51.3719C41.6646 51.569 41.8368 51.7041 41.9991 51.7772C42.1525 51.8718 42.3164 51.9656 42.4907 52.0589C42.6745 52.141 42.9636 52.2321 43.3577 52.3322C43.7087 52.4141 44.0093 52.4522 44.2596 52.4467C44.5403 52.4287 44.7714 52.3774 44.953 52.2927C45.1577 52.2379 45.3652 52.1515 45.5756 52.0337C45.7964 51.9152 46.0207 51.7756 46.2487 51.6149C46.4263 51.4783 46.7552 51.1337 47.2352 50.5811C47.6834 50.0201 47.9538 49.6636 48.0467 49.5115C48.1379 49.3387 48.2192 49.1717 48.2904 49.0106C48.3937 48.8579 48.4985 48.6581 48.605 48.4112ZM50.1675 49.1723C50.0402 49.4205 49.9405 49.62 49.8685 49.7707C49.798 49.9422 49.6931 50.142 49.5539 50.3701C49.4266 50.6183 49.0953 51.0674 48.56 51.7175C48.0143 52.3682 47.5878 52.8025 47.2806 53.0205C46.9935 53.2267 46.6991 53.4073 46.3976 53.5623C46.1072 53.727 45.8197 53.8602 45.5349 53.9619C45.219 54.0657 44.848 54.1311 44.4218 54.1584C43.9763 54.2078 43.4814 54.156 42.937 54.0029C42.4373 53.8888 42.0571 53.767 41.7965 53.6375C41.5471 53.5178 41.2961 53.3773 41.0435 53.2161C40.7917 53.0652 40.5288 52.8367 40.2547 52.5307C39.927 52.2072 39.659 51.7756 39.4506 51.2358C39.2438 50.7167 39.1125 50.2972 39.0567 49.9772C39.0129 49.6773 39.0115 49.3173 39.0525 48.8972C39.1047 48.4868 39.1713 48.1277 39.2522 47.8198C39.3332 47.512 39.5257 47.0926 39.8299 46.5617C40.1356 46.0516 40.4149 45.6737 40.6677 45.4279C40.8925 45.2256 41.1337 45.0328 41.3913 44.8493C41.6585 44.6548 42.0073 44.4341 42.4376 44.1874C42.9311 43.9471 43.4973 43.77 44.1363 43.656C44.7864 43.5518 45.3202 43.5646 45.7375 43.6945C46.1109 43.7958 46.708 44.1594 47.5288 44.7853C47.3731 44.3882 47.2494 44.0674 47.1575 43.8228C47.005 43.4672 46.7882 43.0219 46.507 42.4867C46.2066 41.9736 45.9514 41.5725 45.7413 41.2832C45.5311 40.994 45.2986 40.7532 45.0436 40.5607C44.8422 40.3858 44.4657 40.175 43.9141 39.9285C43.3625 39.682 42.8912 39.5295 42.5002 39.471C42.0693 39.436 41.7231 39.4164 41.4616 39.4122C41.2017 39.4289 40.9478 39.4555 40.6999 39.4923C40.4936 39.5264 40.1185 39.6756 39.5746 39.94C39.1819 40.1322 38.9275 40.2893 38.8115 40.4116L38.6434 40.6728C38.5329 40.8677 38.3602 40.9988 38.125 41.0661C37.8995 41.1222 37.6776 41.0895 37.4594 40.9678C37.2508 40.835 37.1117 40.656 37.0423 40.4308C36.9825 40.1946 37.0234 39.978 37.165 39.7811L37.3307 39.4887C37.5436 39.1306 38.0276 38.7657 38.7826 38.3938C39.4873 38.0461 40.0304 37.8391 40.4118 37.7729C40.7325 37.7315 41.0591 37.7002 41.3918 37.6789C41.7364 37.6777 42.177 37.7017 42.7135 37.7509C43.2724 37.8195 43.9036 38.014 44.6071 38.3342C45.3106 38.6545 45.8305 38.9657 46.167 39.2677C46.4915 39.5496 46.8088 39.8737 47.1188 40.2401C47.4081 40.6077 47.7112 41.0893 48.0283 41.6848C48.3558 42.2797 48.5982 42.786 48.7555 43.2039C48.9112 43.601 49.1216 44.1668 49.3867 44.9013C49.6517 45.6358 49.8421 46.1455 49.9579 46.4303C50.0849 46.7249 50.203 47.0409 50.3124 47.3783C50.4314 47.7047 50.5168 47.934 50.5687 48.0664L50.5711 48.0976C50.6877 48.2571 50.6744 48.4928 50.5311 48.8046L50.1675 49.1723ZM56.1322 32.2895C56.7768 32.1125 57.8879 32.0258 59.4656 32.0292C61.0424 32.0222 62.1559 31.9667 62.8061 31.8624C63.0148 31.8595 63.2619 31.8124 63.5474 31.7211C63.8321 31.6193 64.0757 31.5255 64.278 31.4395C64.49 31.3424 64.7227 31.3119 64.9761 31.3478C65.2392 31.3728 65.4726 31.4883 65.6764 31.6944C65.6474 32.1346 65.6179 32.5697 65.5881 32.9995C64.9307 33.1459 64.1874 33.2613 63.3582 33.3457C62.5289 33.4301 61.776 33.4887 61.0995 33.5215C60.4334 33.5537 59.6858 33.612 58.8565 33.6964C59.4487 34.2012 60.0234 34.7489 60.5804 35.3395C61.1477 35.9294 61.7159 36.5976 62.2848 37.344C62.8641 38.0897 63.3295 38.7123 63.6811 39.2116C64.0422 39.6999 64.5336 40.3887 65.1552 41.2778C65.8375 42.2778 66.3804 43.6417 66.7841 45.3693C67.5365 46.8763 67.2287 48.7277 65.8609 50.9235C65.339 52.0215 64.5932 52.9251 63.6237 53.6342C62.6541 54.3434 61.6061 54.6401 60.4795 54.5243C59.7503 54.4144 59.0431 54.183 58.3581 53.8303C57.6842 53.4872 57.0771 53.0616 56.5369 52.5534C55.9966 52.0453 55.5188 51.4653 55.1034 50.8134C54.6879 50.1616 54.3697 49.4827 54.1486 48.7767C53.9275 48.0707 53.8092 47.3424 53.7936 46.5919C53.7772 45.8311 53.8836 45.1041 54.1127 44.411C54.6523 43.2701 55.3793 42.2582 56.2938 41.3751C57.2074 40.4817 58.2369 39.8052 59.3822 39.3458C60.2605 38.9452 61.2093 38.7853 62.2288 38.8662C61.7483 38.5942 61.2899 38.2687 60.8536 37.8896C60.4276 37.5098 59.9365 37.0298 59.3803 36.4496C58.8233 35.859 58.4321 35.4561 58.2067 35.2409C58.0813 35.1028 57.8719 34.8918 57.5786 34.6079C57.2957 34.3233 57.0691 34.0926 56.8989 33.9156C56.7279 33.7282 56.5633 33.4883 56.4052 33.1957C56.2462 32.8928 56.1552 32.5907 56.1322 32.2895ZM55.42 46.5505C55.4876 47.2976 55.6747 48.0371 55.9813 48.769C56.2983 49.5002 56.7046 50.1683 57.2 50.7732C57.6946 51.3678 58.2904 51.8515 58.9875 52.2244C59.6941 52.5863 60.4341 52.7685 61.2073 52.7712C61.4856 52.7221 61.7555 52.6318 62.0171 52.5002C62.2794 52.3791 62.5098 52.2495 62.7082 52.1116C62.9066 51.9736 63.1118 51.7883 63.3238 51.5556C63.5462 51.3221 63.7239 51.1177 63.8567 50.9422C63.9999 50.766 64.1648 50.5311 64.3513 50.2374C64.5369 49.9332 64.6758 49.6999 64.7679 49.5375C64.8695 49.364 65.0072 49.1151 65.1809 48.7909C65.2457 48.6824 65.2917 48.6012 65.319 48.5472C65.3635 47.4902 65.1946 46.4417 64.8122 45.4015C64.4402 44.3608 63.9051 43.2365 63.2069 42.0287C63.0375 41.7264 62.7898 41.4918 62.4636 41.3248C62.1471 41.1467 61.7798 40.9876 61.3616 40.8473C60.9539 40.7064 60.6449 40.5592 60.4347 40.4057C59.9052 40.7213 59.4369 41.0175 59.0297 41.294C58.6321 41.5595 58.1934 41.9007 57.7133 42.3176C57.2429 42.7234 56.8509 43.1295 56.5372 43.5357C56.2331 43.9309 55.971 44.3965 55.7508 44.9324C55.5402 45.4573 55.4299 45.9967 55.42 46.5505ZM79.3377 50.9379C79.208 51.155 79.0141 51.2822 78.7558 51.3196L78.2615 51.4138C77.8401 51.5034 77.3023 51.5065 76.6483 51.4231C76.0062 51.3598 75.4094 51.2049 74.8578 50.9584C74.3494 50.73 73.9245 50.5015 73.5832 50.2729C73.2187 50.0144 72.7664 49.5632 72.2262 48.9194C71.6877 48.2963 71.3041 47.7885 71.0757 47.3961C70.856 46.9822 70.6533 46.2437 70.4676 45.1806C70.2635 44.1499 70.1748 43.3989 70.2014 42.9275C70.252 42.4963 70.3799 41.9141 70.585 41.1808C70.7998 40.4365 71.0384 39.8002 71.301 39.272C71.5732 38.7327 71.8385 38.3087 72.0969 37.9999C72.3754 37.6794 72.7954 37.2977 73.357 36.8547C73.9601 36.409 74.7032 36.0849 75.5861 35.8823C76.4482 35.681 77.0835 35.5882 77.4921 35.6038C77.8815 35.6415 78.4512 35.7825 79.2011 36.0267C79.931 36.2827 80.4714 36.5195 80.8223 36.7371C81.1828 36.9436 81.5668 37.253 81.9744 37.6653C82.382 38.0776 82.6828 38.4602 82.8769 38.8131C83.0934 39.1854 83.321 39.771 83.5596 40.5698C83.7862 41.3485 83.9142 42.0657 83.9434 42.7214C83.9902 43.3342 83.9987 43.8555 83.9689 44.2853C83.9598 44.7138 83.8643 45.3097 83.6824 46.0728C83.502 46.8567 83.285 47.502 83.0312 48.0088C82.7478 48.5383 82.3581 49.0434 81.8621 49.5239C81.3661 50.0045 80.9625 50.3277 80.6513 50.4938C80.3602 50.6481 79.9223 50.7961 79.3377 50.9379ZM75.3757 49.3284C75.6213 49.1248 75.8936 49.0656 76.1926 49.1509L76.6903 49.3069C76.9565 49.3734 77.2472 49.4174 77.5622 49.439C77.8652 49.4405 78.2739 49.3882 78.7881 49.2823C79.3023 49.1763 79.6394 49.0764 79.7994 48.9827C79.9802 48.8877 80.2653 48.6554 80.655 48.2861C81.0358 47.9382 81.3163 47.5758 81.4964 47.199C81.6765 46.8221 81.8411 46.3106 81.9902 45.6644C82.1481 44.9968 82.2356 44.5006 82.2526 44.176C82.2679 43.8306 82.259 43.3719 82.2257 42.8C82.1853 42.2703 82.0721 41.6774 81.8861 41.0213C81.7114 40.375 81.5525 39.9363 81.4095 39.7054C81.2649 39.4537 81.04 39.1759 80.7347 38.8719C80.4286 38.5575 80.1553 38.3297 79.9147 38.1885C79.6837 38.0363 79.2632 37.8649 78.6532 37.6743C78.0632 37.472 77.6366 37.3584 77.3736 37.3335C77.1329 37.328 76.6787 37.3988 76.0109 37.5459C75.3847 37.6904 74.8545 37.9278 74.4201 38.2583C73.9561 38.6115 73.6377 38.8876 73.4649 39.0866C73.2936 39.3063 73.0943 39.6373 72.867 40.0798C72.6388 40.5119 72.429 41.0472 72.2376 41.6857C72.0557 42.3131 71.9559 42.7839 71.9381 43.0982C71.9195 43.4021 71.986 43.9979 72.1374 44.8859C72.308 45.7517 72.4716 46.3205 72.6282 46.5922C72.7759 46.8855 73.0732 47.2891 73.5199 47.8033C73.9673 48.3278 74.313 48.6815 74.5568 48.8642C74.7678 49.0281 75.0407 49.1828 75.3757 49.3284ZM86.9339 35.7198C87.0324 35.5047 87.1884 35.3591 87.402 35.2828C87.6259 35.2058 87.8462 35.2178 88.0628 35.3188C88.2899 35.4191 88.4429 35.5763 88.5219 35.7904L88.6812 36.2342C88.8145 36.6119 88.8798 37.0565 88.8772 37.5681C88.8889 37.9952 88.9289 38.6554 88.9972 39.5487C89.043 40.4225 89.0779 41.0151 89.1017 41.3267C89.1471 41.6474 89.1941 41.9888 89.2426 42.351C89.2522 42.4756 89.2749 42.636 89.3107 42.832C89.3757 42.5878 89.453 42.301 89.5427 41.9717C89.7599 41.1228 90.0118 40.3866 90.2984 39.7629C90.5954 39.1385 90.8432 38.6895 91.0416 38.4159C91.2089 38.1442 91.4994 37.776 91.913 37.3112C92.3643 36.7918 92.7931 36.3886 93.1995 36.1017C93.6043 35.7939 94.0054 35.5752 94.4029 35.4454C94.8196 35.2935 95.1899 35.2176 95.5137 35.2178C95.8584 35.2166 96.2249 35.2975 96.6135 35.4605C96.9916 35.6242 97.2729 35.8201 97.4575 36.0484C97.6189 36.2468 97.8542 36.6597 98.1633 37.287C98.4164 37.8657 98.5925 38.3241 98.6914 38.6622C98.78 39.001 98.9005 39.4838 99.0528 40.1107C99.1127 40.3469 99.1765 40.5673 99.2444 40.7717C99.3413 40.4002 99.5275 39.8977 99.803 39.2643C100.111 38.514 100.349 38.003 100.516 37.7313C100.683 37.4493 100.914 37.1214 101.209 36.7477C101.543 36.3401 101.839 36.0394 102.096 35.8455C102.361 35.6198 102.681 35.4427 103.058 35.3143C103.558 35.157 104.083 35.1965 104.634 35.4326C105.163 35.6597 105.587 36.0083 105.905 36.4785C106.123 36.8716 106.29 37.2106 106.406 37.4954C106.489 37.7718 106.625 38.3111 106.811 39.1133C107.02 39.9349 107.155 40.5368 107.216 40.9191C107.286 41.2904 107.391 41.8473 107.531 42.5898C107.651 43.3336 107.751 43.9586 107.831 44.4649C107.912 44.9712 107.972 45.4788 108.01 45.9877C108.068 46.4746 108.122 46.8991 108.17 47.2613C108.219 47.6235 108.26 47.887 108.293 48.0518L108.345 48.3147C108.384 48.5522 108.337 48.764 108.205 48.9498C108.073 49.1357 107.889 49.2467 107.651 49.2828C107.424 49.3182 107.211 49.2692 107.013 49.1357C106.824 48.9912 106.701 48.8061 106.642 48.5802L106.624 48.3465C106.589 48.1609 106.536 47.8773 106.465 47.4956C106.415 47.1127 106.354 46.6573 106.282 46.1296C106.245 45.6415 106.187 45.1546 106.108 44.6691C106.029 44.1836 105.931 43.5846 105.814 42.8719C105.696 42.1488 105.601 41.5965 105.53 41.2149C105.461 40.854 105.329 40.2832 105.133 39.5025C104.948 38.7211 104.816 38.2285 104.738 38.0248C104.684 37.8613 104.584 37.6433 104.437 37.3708C104.342 37.21 104.191 37.0891 103.987 37.0083C103.835 36.9345 103.728 36.91 103.668 36.9348C103.484 36.9883 103.328 37.0713 103.201 37.1838C103.023 37.3204 102.815 37.5373 102.577 37.8343C102.298 38.1548 102.1 38.4233 101.98 38.6396C101.86 38.8456 101.659 39.2864 101.376 39.9621C101.093 40.6273 100.92 41.0976 100.857 41.373C100.797 41.6795 100.717 42.1386 100.618 42.7503C100.528 43.351 100.466 43.9708 100.431 44.6097C100.382 45.3434 100.353 45.7836 100.344 45.9303C100.32 46.1719 100.276 46.4774 100.21 46.8469C100.155 47.2158 100.113 47.4846 100.084 47.6535C100.063 47.6548 100.043 47.6665 100.024 47.6886C100.004 47.7107 99.9597 47.7397 99.8893 47.7755C99.8189 47.8113 99.7433 47.8475 99.6625 47.8839C99.5921 47.9198 99.5061 47.9566 99.4046 47.9944C99.303 48.0322 99.2058 48.0593 99.1131 48.0757C99.0307 48.0914 98.9479 48.1019 98.8648 48.1072C98.7816 48.1125 98.7024 48.1019 98.6273 48.0754C98.5521 48.0489 98.4862 48.0062 98.4295 47.9472C98.3831 47.8875 98.356 47.8058 98.348 47.7019C98.3353 47.5357 98.3234 47.4478 98.3122 47.438C98.3002 47.4179 98.303 47.3864 98.3207 47.3436C98.3383 47.3007 98.3595 47.2367 98.3843 47.1516C98.4116 46.962 98.4258 46.7367 98.4267 46.4757C98.4261 46.194 98.4079 45.8194 98.3722 45.352C98.3157 44.8859 98.2344 44.3693 98.1284 43.802C98 43.2153 97.8795 42.6646 97.7671 42.15C97.6674 41.6658 97.5418 41.1154 97.3902 40.4989C97.2378 39.872 97.115 39.4258 97.0215 39.1605C96.9601 38.9035 96.8156 38.5161 96.588 37.9984C96.4099 37.5818 96.2694 37.3142 96.1663 37.1956C96.1215 37.1567 96.0332 37.0945 95.9013 37.009C95.7718 36.9547 95.6499 36.9312 95.5355 36.9385C95.43 36.9244 95.266 36.9662 95.0437 37.0639C94.7678 37.1442 94.4866 37.2926 94.2002 37.5093C93.9131 37.7155 93.597 38.0227 93.2522 38.431C92.8569 38.8633 92.5948 39.1932 92.466 39.4206C92.3331 39.5961 92.141 39.9529 91.8896 40.4908C91.6383 41.0287 91.4112 41.6799 91.2085 42.4444C90.9865 43.2309 90.8515 43.7875 90.8033 44.1142C90.7624 44.3986 90.7033 44.9242 90.6261 45.6911C90.5809 46.4663 90.5542 47.0056 90.546 47.3088C90.537 47.6016 90.54 47.9823 90.5549 48.4511C90.5699 48.9198 90.5849 49.2528 90.6 49.4501C90.6031 49.4917 90.6119 49.5381 90.6263 49.5894C90.6406 49.6406 90.6642 49.7435 90.6969 49.898C90.7288 50.042 90.7059 50.1531 90.6283 50.2311C90.5611 50.3085 90.4575 50.3882 90.3175 50.4702C90.1775 50.5522 89.9432 50.562 89.6146 50.4995C89.1821 50.4437 88.9023 50.3363 88.7752 50.1775C88.6474 50.0082 88.6307 49.858 88.7251 49.7267L88.8356 49.5317C88.7949 49.2734 88.7571 49.0514 88.722 48.8658C88.6853 48.6594 88.6128 48.257 88.5044 47.6586C88.396 47.0602 88.3035 46.6016 88.2269 46.283C88.1599 45.9533 88.0403 45.3451 87.8681 44.4585C87.6959 43.572 87.5847 42.9372 87.5346 42.5542C87.486 42.192 87.4382 41.8402 87.3912 41.4988C87.365 41.1561 87.3278 40.5322 87.2795 39.6273C87.2097 38.7133 87.1677 38.0271 87.1536 37.5688C87.1498 37.2455 87.1191 36.9813 87.0617 36.7762L86.906 36.3791C86.8253 36.1442 86.8347 35.9244 86.9339 35.7198ZM110.218 33.4627C110.201 33.2342 110.205 33.0096 110.23 32.7888C110.265 32.5674 110.327 32.3495 110.415 32.1351C110.503 31.9207 110.642 31.7605 110.832 31.6543C111.033 31.5476 111.271 31.5219 111.547 31.5773C111.635 32.177 111.711 33.1689 111.775 34.553C111.848 35.926 111.919 36.913 111.985 37.5141C112.121 37.6515 112.325 37.8629 112.598 38.1481C113.018 37.9021 113.691 37.5511 114.617 37.0952C116.492 36.7456 117.993 36.6391 119.121 36.7757C119.582 37.0697 119.912 37.2835 120.11 37.4169C120.309 37.5503 120.591 37.7567 120.957 38.0359C121.322 38.3048 121.625 38.5777 121.865 38.8545C122.105 39.121 122.315 39.4102 122.496 39.7222C122.611 39.9967 122.697 40.3043 122.754 40.645C122.811 40.9754 122.838 41.2607 122.835 41.5009C122.843 41.7301 122.842 42.0589 122.833 42.4874C122.833 42.9049 122.834 43.197 122.837 43.3639C122.285 44.3385 121.526 45.149 120.563 45.7951C119.598 46.4309 118.582 46.8768 117.515 47.133C116.448 47.3787 115.333 47.4866 114.171 47.4566C113.822 47.3954 113.505 47.2904 113.222 47.1415C112.939 46.9926 112.695 46.7995 112.489 46.5622C112.282 46.3145 112.101 46.0652 111.946 45.8142C111.801 45.5625 111.669 45.2631 111.548 44.9159C111.428 44.5688 111.331 44.2619 111.258 43.9951C111.186 43.7284 111.11 43.4202 111.031 43.0703C110.526 39.7419 110.255 36.5394 110.218 33.4627ZM112.543 40.2965C112.646 42.1895 112.764 43.6065 112.899 44.5477C113.008 44.6138 113.176 44.7544 113.401 44.9696C113.626 45.1744 113.836 45.3331 114.033 45.4458C114.23 45.5585 114.442 45.6075 114.671 45.5928C115.361 45.6009 116.031 45.5476 116.68 45.433C117.339 45.3073 117.983 45.1148 118.61 44.8554C119.249 44.5954 119.795 44.2213 120.248 43.733C120.711 43.2337 121.027 42.6447 121.194 41.966C121.143 41.4266 121.102 41.0274 121.072 40.7684C121.024 40.6879 120.928 40.5271 120.784 40.2858C120.639 40.0341 120.543 39.868 120.495 39.7876C119.973 39.247 119.349 38.8642 118.621 38.6394C117.904 38.4139 117.183 38.3453 116.459 38.4334C115.733 38.5111 115.023 38.7131 114.327 39.0394C113.641 39.3651 113.047 39.7841 112.543 40.2965ZM124.818 30.7438C124.914 30.7689 125.037 30.808 125.188 30.861C125.348 30.903 125.519 30.9547 125.701 31.0161C125.893 31.0664 126.026 31.0996 126.1 31.1158C126.454 32.6065 126.735 34.222 126.941 35.9622C127.146 37.6921 127.277 39.2754 127.335 40.712C127.392 42.1383 127.423 43.7749 127.428 45.622C127.16 45.6704 126.538 45.8041 125.563 46.0231C125.498 45.1714 125.47 44.333 125.48 43.5078C125.637 42.548 125.702 41.4897 125.676 40.3328C125.651 39.1759 125.564 38.1117 125.417 37.14C125.28 36.1677 125.152 35.1061 125.032 33.9552C124.912 32.7939 124.841 31.7234 124.818 30.7438ZM23.1572 66.6503C22.9085 66.6767 22.6902 66.6228 22.5024 66.4887C22.3242 66.3435 22.2207 66.1519 22.1921 65.9136C22.1626 65.665 22.2299 65.452 22.394 65.2745L22.7049 64.8319C22.9433 64.5348 23.277 64.1169 23.7059 63.578C24.1732 62.9949 24.6684 62.504 25.1916 62.1052C25.7148 61.7064 26.1663 61.4636 26.5462 61.3767C26.9453 61.2676 27.5817 61.3261 28.4556 61.5519C29.2878 61.7805 29.8986 62.0493 30.2878 62.3584C30.6555 62.6584 31.0666 63.2531 31.521 64.1425C31.9723 64.9904 32.2386 65.7405 32.3198 66.3928C32.4345 67.0743 32.4018 67.7392 32.2215 68.3874C32.1101 68.8433 31.9759 69.2068 31.8191 69.4777C32.0141 69.5696 32.1944 69.6729 32.3598 69.7875C32.6587 70.0085 33.0128 70.4033 33.4218 70.972C33.8309 71.5408 34.1289 72.0906 34.3157 72.6213C34.5225 73.1404 34.6305 73.7336 34.6397 74.401C34.6505 75.0892 34.5854 75.6048 34.4445 75.9478C34.3028 76.2804 34.0019 76.7171 33.5418 77.258C33.0905 77.7774 32.4429 78.2572 31.5991 78.6974C30.776 79.1362 30.133 79.4018 29.67 79.494C29.1846 79.5668 28.4218 79.4956 27.3816 79.2804C26.3622 79.0638 25.6351 78.8442 25.2002 78.6215C24.8413 78.4357 24.3821 78.1676 23.8225 77.8173C23.2422 77.4682 22.8517 77.2114 22.6511 77.0468C22.3714 76.8038 22.1453 76.5104 21.9727 76.1665L21.7871 75.787C21.6856 75.5535 21.6682 75.325 21.7347 75.1015C21.8012 74.8781 21.9404 74.7178 22.1523 74.6208C22.3739 74.5127 22.5978 74.5036 22.824 74.5935C23.0599 74.6723 23.2273 74.8129 23.3264 75.0153L23.5121 75.3948C23.5855 75.5363 23.661 75.6358 23.7386 75.6935C23.8728 75.8101 24.1978 76.0294 24.7133 76.3513C25.2505 76.6822 25.6873 76.9308 26.0239 77.0972C26.2965 77.2467 26.8525 77.4147 27.692 77.601C28.5395 77.7555 29.0924 77.8141 29.3507 77.7767C29.6298 77.7379 30.1053 77.5353 30.7772 77.1687C31.4091 76.8256 31.8934 76.4659 32.2303 76.0894C32.5663 75.7026 32.76 75.4345 32.8113 75.2851C32.8833 75.1344 32.9131 74.8403 32.9005 74.4027C32.8856 73.934 32.8231 73.5257 32.7129 73.1779C32.5812 72.821 32.3467 72.4185 32.0095 71.9705C31.6947 71.5418 31.4594 71.2646 31.3036 71.1389C31.1932 71.0625 30.9098 70.9762 30.4533 70.8802C30.3254 70.8466 30.1983 70.8235 30.0719 70.8107C29.6776 70.982 29.3505 71.076 29.0906 71.0926C28.6436 71.1212 28.4086 70.9849 28.3856 70.6837C28.3618 70.3721 28.4475 70.0588 28.6428 69.7436L28.9178 69.2407C29.1521 69.163 29.394 69.1163 29.6435 69.1003C29.8451 69.0039 30.0102 68.9098 30.139 68.8181C30.1998 68.7933 30.239 68.7595 30.2566 68.7166C30.3319 68.6074 30.4316 68.3401 30.5557 67.9147C30.6687 67.4795 30.699 67.0549 30.6464 66.6408C30.5691 66.1761 30.3528 65.6002 29.9973 64.9132C29.6435 64.247 29.377 63.8361 29.198 63.6806C28.9982 63.5264 28.6101 63.3686 28.0336 63.2071C27.5116 63.0736 27.1682 63.0225 27.0034 63.0539C26.8403 63.1061 26.5855 63.2581 26.2391 63.5098C25.8535 63.7954 25.4655 64.1856 25.075 64.6802C24.6461 65.2191 24.3124 65.6371 24.074 65.9341L23.7283 66.332C23.5955 66.5075 23.4051 66.6136 23.1572 66.6503ZM39.4988 65.6047C39.2501 65.631 39.0318 65.5771 38.844 65.443C38.6658 65.2979 38.5623 65.1062 38.5337 64.868C38.5042 64.6194 38.5715 64.4063 38.7355 64.2288L39.0464 63.7862C39.2849 63.4892 39.6186 63.0712 40.0475 62.5323C40.5148 61.9493 41.01 61.4583 41.5332 61.0596C42.0564 60.6608 42.5079 60.4179 42.8878 60.331C43.2868 60.222 43.9233 60.2804 44.7972 60.5063C45.6294 60.7348 46.2402 61.0037 46.6294 61.3127C46.9971 61.6128 47.4081 62.2075 47.8626 63.0969C48.3139 63.9447 48.5802 64.6948 48.6614 65.3471C48.7761 66.0287 48.7433 66.6935 48.5631 67.3417C48.4517 67.7976 48.3175 68.1611 48.1606 68.4321C48.3557 68.524 48.5359 68.6272 48.7014 68.7419C49.0003 68.9628 49.3543 69.3576 49.7634 69.9264C50.1725 70.4951 50.4704 71.0449 50.6572 71.5757C50.8641 72.0947 50.9721 72.688 50.9813 73.3554C50.9921 74.0435 50.927 74.5591 50.7861 74.9021C50.6444 75.2347 50.3435 75.6715 49.8834 76.2123C49.4321 76.7318 48.7845 77.2115 47.9407 77.6517C47.1176 78.0906 46.4746 78.3561 46.0115 78.4484C45.5261 78.5212 44.7633 78.4499 43.7232 78.2347C42.7038 78.0181 41.9766 77.7985 41.5418 77.5758C41.1829 77.3901 40.7236 77.122 40.1641 76.7716C39.5838 76.4226 39.1933 76.1658 38.9927 76.0012C38.713 75.7581 38.4868 75.4647 38.3143 75.1209L38.1286 74.7414C38.0272 74.5078 38.0098 74.2793 38.0762 74.0559C38.1427 73.8324 38.282 73.6722 38.4939 73.5751C38.7155 73.467 38.9394 73.4579 39.1656 73.5478C39.4015 73.6266 39.5689 73.7673 39.6679 73.9697L39.8536 74.3492C39.9271 74.4906 40.0026 74.5901 40.0802 74.6478C40.2144 74.7645 40.5393 74.9837 41.0549 75.3056C41.5921 75.6365 42.0289 75.8852 42.3655 76.0515C42.638 76.201 43.1941 76.369 44.0336 76.5553C44.8811 76.7098 45.434 76.7684 45.6923 76.731C45.9714 76.6923 46.4469 76.4896 47.1187 76.1231C47.7506 75.78 48.235 75.4202 48.5719 75.0438C48.9079 74.657 49.1016 74.3889 49.1528 74.2395C49.2249 74.0888 49.2547 73.7946 49.2421 73.357C49.2272 72.8883 49.1646 72.4801 49.0545 72.1322C48.9228 71.7754 48.6883 71.3729 48.3511 70.9248C48.0363 70.4961 47.801 70.219 47.6451 70.0932C47.5348 70.0168 47.2514 69.9306 46.7949 69.8345C46.667 69.801 46.5398 69.7778 46.4135 69.765C46.0192 69.9364 45.6921 70.0303 45.4322 70.047C44.9852 70.0756 44.7502 69.9393 44.7272 69.6381C44.7034 69.3265 44.7891 69.0131 44.9844 68.6979L45.2594 68.195C45.4937 68.1174 45.7356 68.0706 45.9851 68.0546C46.1866 67.9582 46.3518 67.8642 46.4806 67.7724C46.5414 67.7477 46.5806 67.7138 46.5982 67.671C46.6734 67.5618 46.7731 67.2945 46.8973 66.869C47.0103 66.4339 47.0405 66.0092 46.988 65.5951C46.9107 65.1304 46.6943 64.5545 46.3389 63.8676C45.9851 63.2013 45.7186 62.7905 45.5396 62.6349C45.3398 62.4807 44.9516 62.3229 44.3752 62.1615C43.8531 62.0279 43.5097 61.9768 43.345 62.0082C43.1818 62.0604 42.9271 62.2124 42.5807 62.4642C42.1951 62.7498 41.8071 63.1399 41.4166 63.6346C40.9877 64.1734 40.654 64.5914 40.4156 64.8885L40.0699 65.2863C39.9371 65.4618 39.7467 65.5679 39.4988 65.6047ZM70.3485 77.4547C69.4828 76.9256 68.9742 76.2171 68.8228 75.3292L68.7654 74.9885C68.5949 73.987 68.8198 72.8975 69.4402 71.7202C70.059 70.5221 71.6335 69.0488 74.1636 67.3005C74.9644 66.7065 75.6 66.1388 76.0705 65.5972C76.5618 65.0544 76.7864 64.5077 76.7443 63.9572C76.6983 63.3548 76.4291 62.9076 75.9367 62.6156C75.4898 62.3728 75.1209 62.2607 74.8298 62.2793C74.1437 62.3232 72.8719 62.9734 71.0145 64.2299C70.9345 64.2768 70.8693 64.3123 70.8189 64.3364C70.4855 64.3473 70.2588 64.32 70.1389 64.2547C70.0286 64.1782 69.9667 64.0517 69.9532 63.8751C69.8921 63.0754 70.567 62.3381 71.9779 61.6634C73.2705 60.944 74.4366 60.551 75.4761 60.4845C76.1726 60.44 76.9325 60.6784 77.7558 61.1997C78.5455 61.6919 78.9749 62.3898 79.044 63.2934C79.1067 64.114 78.9179 64.9245 78.4777 65.725C78.0182 66.5476 76.8182 67.6577 74.8775 69.0552C73.4527 70.2319 72.471 71.1923 71.9325 71.9365C71.2739 72.7509 70.9819 73.6464 71.0566 74.6227C71.0867 75.0174 71.2065 75.3541 71.4158 75.633C71.6347 75.9008 71.9205 76.086 72.2731 76.1887C72.8199 76.3729 73.2285 76.4563 73.4987 76.439C75.1412 76.3339 76.7152 75.8105 78.2206 74.8688C78.6701 74.6 78.9936 74.4592 79.1912 74.4466C79.3575 74.4359 79.469 74.4601 79.5258 74.5191C79.5929 74.5774 79.6348 74.7157 79.6515 74.9338C79.7078 75.6712 79.1021 76.3571 77.8344 76.9914C76.5178 77.6705 74.9551 78.068 73.1463 78.1837C72.1899 78.2449 71.2573 78.0019 70.3485 77.4547ZM91.7038 76.1978C91.5741 76.4149 91.3801 76.5421 91.1218 76.5795L90.6276 76.6737C90.2062 76.7633 89.6684 76.7664 89.0144 76.683C88.3723 76.6197 87.7755 76.4648 87.2239 76.2183C86.7155 75.9899 86.2906 75.7614 85.9493 75.5328C85.5848 75.2743 85.1325 74.8231 84.5923 74.1793C84.0537 73.5562 83.6702 73.0484 83.4417 72.656C83.2221 72.2421 83.0194 71.5036 82.8337 70.4405C82.6296 69.4098 82.5409 68.6588 82.5675 68.1874C82.6181 67.7563 82.746 67.174 82.9511 66.4407C83.1658 65.6964 83.4045 65.0601 83.6671 64.5319C83.9392 63.9926 84.2046 63.5686 84.463 63.2598C84.7415 62.9393 85.1615 62.5576 85.7231 62.1146C86.3262 61.6689 87.0693 61.3448 87.9522 61.1422C88.8143 60.9409 89.4496 60.8481 89.8582 60.8637C90.2476 60.9014 90.8172 61.0424 91.5671 61.2866C92.297 61.5426 92.8375 61.7794 93.1884 61.997C93.5489 62.2035 93.9329 62.513 94.3405 62.9252C94.7481 63.3375 95.0489 63.7201 95.243 64.073C95.4595 64.4453 95.687 65.0309 95.9257 65.8297C96.1523 66.6084 96.2802 67.3256 96.3095 67.9813C96.3563 68.5941 96.3648 69.1154 96.335 69.5452C96.3259 69.9737 96.2304 70.5696 96.0485 71.3327C95.8681 72.1166 95.651 72.7619 95.3973 73.2687C95.1139 73.7982 94.7242 74.3033 94.2282 74.7838C93.7321 75.2644 93.3285 75.5877 93.0174 75.7537C92.7263 75.908 92.2884 76.056 91.7038 76.1978ZM87.7418 74.5883C87.9874 74.3847 88.2597 74.3255 88.5587 74.4108L89.0564 74.5668C89.3226 74.6333 89.6132 74.6773 89.9283 74.6989C90.2313 74.7004 90.64 74.6481 91.1542 74.5422C91.6684 74.4362 92.0055 74.3364 92.1655 74.2426C92.3462 74.1476 92.6314 73.9153 93.0211 73.546C93.4019 73.1981 93.6823 72.8357 93.8625 72.4589C94.0426 72.082 94.2072 71.5705 94.3563 70.9243C94.5142 70.2567 94.6017 69.7605 94.6186 69.4359C94.634 69.0905 94.6251 68.6318 94.5918 68.0599C94.5514 67.5302 94.4381 66.9373 94.2522 66.2812C94.0775 65.6349 93.9186 65.1962 93.7756 64.9653C93.631 64.7136 93.4061 64.4358 93.1008 64.1318C92.7947 63.8174 92.5214 63.5896 92.2808 63.4484C92.0498 63.2962 91.6293 63.1248 91.0193 62.9342C90.4293 62.7319 90.0027 62.6183 89.7397 62.5934C89.499 62.5879 89.0448 62.6587 88.377 62.8058C87.7508 62.9503 87.2205 63.1877 86.7862 63.5182C86.3222 63.8715 86.0038 64.1475 85.8309 64.3465C85.6597 64.5662 85.4604 64.8972 85.2331 65.3397C85.0049 65.7718 84.7951 66.3071 84.6036 66.9456C84.4218 67.573 84.322 68.0438 84.3042 68.3581C84.2856 68.662 84.3521 69.2578 84.5035 70.1458C84.6741 71.0116 84.8377 71.5804 84.9943 71.8521C85.142 72.1454 85.4393 72.5491 85.8859 73.0632C86.3334 73.5877 86.6791 73.9414 86.9228 74.1241C87.1339 74.288 87.4068 74.4427 87.7418 74.5883ZM100.632 62.4131C101.114 61.4742 101.854 60.7745 102.853 60.314C103.851 59.8431 104.862 59.7367 105.884 59.9948C106.618 60.167 107.39 60.3525 108.199 60.5512C108.603 60.9219 109.147 61.4768 109.83 62.2159C110.524 62.9543 111.023 63.4703 111.327 63.7639C111.401 64.3124 111.519 65.6513 111.681 67.7805C111.855 69.909 112.078 71.5386 112.353 72.6691C113.256 73.0079 113.934 73.262 114.385 73.4314C113.284 74.055 112.718 74.3731 112.688 74.3854C112.798 75.5578 112.892 76.7886 112.97 78.0778C112.906 78.4681 112.842 78.8009 112.78 79.0763C112.718 79.362 112.639 79.6907 112.542 80.0622C112.445 80.4441 112.329 80.7698 112.193 81.0395C112.058 81.3195 111.897 81.6012 111.709 81.8845C111.523 82.1783 111.297 82.4328 111.031 82.6481C110.777 82.8731 110.488 83.0638 110.166 83.2201C109.302 83.5363 108.418 83.7233 107.514 83.7812C106.621 83.8488 105.727 83.7703 104.832 83.5457C103.948 83.3205 103.13 82.9449 102.38 82.4189C101.789 81.5174 101.214 80.4843 100.655 79.3198C100.664 79.3088 100.7 79.2282 100.761 79.0782C100.824 78.9385 100.859 78.8527 100.867 78.8209C100.886 78.7988 100.922 78.7234 100.975 78.5948C101.038 78.4655 101.084 78.3791 101.112 78.3356C101.141 78.3024 101.182 78.2319 101.237 78.1241C101.302 78.0155 101.353 77.9392 101.392 77.895C101.441 77.8501 101.499 77.789 101.566 77.7116C101.643 77.6336 101.712 77.5718 101.771 77.5263C101.831 77.4911 101.901 77.4449 101.98 77.3877C102.07 77.3401 102.161 77.303 102.253 77.2762C103.668 76.6534 106.525 75.4947 110.825 73.8001C110.63 72.4766 110.502 71.6237 110.442 71.2414C108.071 73.8459 105.794 74.8057 103.61 74.1209C103.116 74.0794 102.647 73.9477 102.201 73.7257C101.766 73.4926 101.371 73.1839 101.018 72.7994C100.675 72.4143 100.38 72.0366 100.132 71.6663C99.8839 71.2856 99.6314 70.8529 99.375 70.3683C98.6438 68.1816 99.0627 65.5298 100.632 62.4131ZM103.338 61.9425C103.039 62.1286 102.764 62.3601 102.514 62.6371C102.273 62.903 102.061 63.214 101.88 63.57C101.697 63.9157 101.549 64.2331 101.435 64.5222C101.321 64.8008 101.191 65.1484 101.045 65.5648C100.846 66.2455 100.719 66.9007 100.662 67.5306C100.605 68.15 100.671 68.7982 100.858 69.475C101.045 70.1415 101.38 70.7045 101.865 71.164C102.143 71.5324 102.48 71.8292 102.873 72.0545C103.276 72.2792 103.695 72.4298 104.13 72.5064C104.564 72.583 105.004 72.6018 105.45 72.5628C105.906 72.5128 106.347 72.4115 106.774 72.2589C107.556 71.8227 108.215 71.2169 108.751 70.4416C109.297 69.6552 109.629 68.8146 109.749 67.9198C109.879 67.0243 109.743 66.1354 109.342 65.2531C109.317 65.2025 109.085 64.5546 108.645 63.3094C107.977 62.6423 107.288 62.0968 106.577 61.6726C106.389 61.6846 106.051 61.6958 105.561 61.7063C105.08 61.7057 104.669 61.7216 104.326 61.754C103.984 61.7863 103.655 61.8491 103.338 61.9425ZM102.744 79.1861C102.716 79.5011 102.759 79.7957 102.874 80.0702C102.99 80.355 103.133 80.5911 103.304 80.7785C103.487 80.9756 103.726 81.1638 104.021 81.3432C104.318 81.5329 104.58 81.678 104.807 81.7783C105.034 81.8785 105.304 81.9917 105.616 82.1179C106.202 82.1325 107.054 82.1406 108.172 82.1422C108.87 81.8366 109.455 81.4965 109.927 81.1218C110.411 80.7465 110.772 80.2746 111.01 79.7061C111.033 79.4542 111.044 79.1874 111.043 78.9056C111.054 78.6336 111.061 78.393 111.066 78.184C111.071 77.9749 111.066 77.7039 111.051 77.3708C111.037 77.0482 111.023 76.8038 111.011 76.6376C111.009 76.4811 110.999 76.2104 110.98 75.8255C110.962 75.4509 110.948 75.2065 110.94 75.0922C110.287 75.4367 109.404 75.8376 108.289 76.2951C107.175 76.7525 106.145 77.2099 105.198 77.6671C104.261 78.1236 103.443 78.63 102.744 79.1861ZM127.678 69.4027C127.56 69.2224 127.437 69.0476 127.309 68.8784C127.146 68.6488 126.961 68.4153 126.754 68.178C126.57 67.9498 126.145 67.5908 125.481 67.101C124.893 66.6481 124.508 66.3961 124.327 66.3451C124.176 66.2921 123.9 66.2993 123.498 66.3668C123.054 66.437 122.666 66.5557 122.334 66.7231C121.961 66.8931 121.675 67.0575 121.479 67.2162C121.291 67.3639 121.121 67.5209 120.966 67.6873C120.829 67.8005 120.645 68.0576 120.414 68.4585C120.163 68.8608 120.012 69.147 119.963 69.3171C119.914 69.5081 119.871 69.7562 119.831 70.0614C119.813 70.3652 119.82 70.5996 119.854 70.7644C119.867 70.9306 119.95 71.2071 120.105 71.5938C120.258 71.9493 120.408 72.2058 120.556 72.3634C120.738 72.5605 120.91 72.6956 121.072 72.7687C121.226 72.8632 121.39 72.9571 121.564 73.0503C121.748 73.1325 122.037 73.2236 122.431 73.3236C122.782 73.4055 123.083 73.4437 123.333 73.4381C123.614 73.4202 123.845 73.3688 124.026 73.2842C124.231 73.2293 124.439 73.143 124.649 73.0251C124.87 72.9066 125.094 72.767 125.322 72.6063C125.5 72.4697 125.829 72.1251 126.309 71.5726C126.757 71.0116 127.027 70.6551 127.12 70.503C127.211 70.3302 127.293 70.1632 127.364 70.0021C127.467 69.8494 127.572 69.6496 127.678 69.4027ZM129.241 70.1638C129.114 70.412 129.014 70.6114 128.942 70.7622C128.871 70.9337 128.767 71.1335 128.627 71.3616C128.5 71.6098 128.169 72.0589 127.633 72.7089C127.088 73.3596 126.661 73.794 126.354 74.0119C126.067 74.2182 125.773 74.3988 125.471 74.5538C125.181 74.7185 124.893 74.8517 124.608 74.9534C124.292 75.0571 123.921 75.1226 123.495 75.1499C123.05 75.1993 122.555 75.1474 122.01 74.9944C121.511 74.8803 121.131 74.7585 120.87 74.629C120.621 74.5093 120.37 74.3688 120.117 74.2075C119.865 74.0566 119.602 73.8282 119.328 73.5222C119 73.1987 118.732 72.7671 118.524 72.2272C118.317 71.7082 118.186 71.2886 118.13 70.9687C118.086 70.6688 118.085 70.3088 118.126 69.8887C118.178 69.4783 118.245 69.1192 118.326 68.8113C118.407 68.5035 118.599 68.0841 118.903 67.5532C119.209 67.0431 119.488 66.6651 119.741 66.4193C119.966 66.2171 120.207 66.0242 120.465 65.8407C120.732 65.6462 121.081 65.4256 121.511 65.1789C122.005 64.9386 122.571 64.7614 123.21 64.6475C123.86 64.5433 124.394 64.5561 124.811 64.6859C125.184 64.7873 125.781 65.1509 126.602 65.7768C126.447 65.3797 126.323 65.0589 126.231 64.8142C126.078 64.4587 125.862 64.0133 125.58 63.4782C125.28 62.9651 125.025 62.5639 124.815 62.2747C124.605 61.9855 124.372 61.7446 124.117 61.5522C123.916 61.3772 123.539 61.1665 122.988 60.92C122.436 60.6735 121.965 60.521 121.574 60.4625C121.143 60.4274 120.796 60.4078 120.535 60.4037C120.275 60.4203 120.021 60.447 119.773 60.4838C119.567 60.5178 119.192 60.6671 118.648 60.9315C118.255 61.1236 118.001 61.2808 117.885 61.403L117.717 61.6643C117.606 61.8592 117.434 61.9903 117.198 62.0575C116.973 62.1137 116.751 62.0809 116.533 61.9592C116.324 61.8264 116.185 61.6475 116.116 61.4223C116.056 61.1861 116.097 60.9695 116.238 60.7726L116.404 60.4802C116.617 60.1221 117.101 59.7571 117.856 59.3853C118.561 59.0375 119.104 58.8306 119.485 58.7644C119.806 58.723 120.133 58.6917 120.465 58.6704C120.81 58.6692 121.25 58.6932 121.787 58.7424C122.346 58.811 122.977 59.0054 123.681 59.3257C124.384 59.646 124.904 59.9571 125.24 60.2592C125.565 60.5411 125.882 60.8652 126.192 61.2315C126.481 61.5992 126.785 62.0808 127.102 62.6763C127.429 63.2711 127.672 63.7775 127.829 64.1953C127.985 64.5924 128.195 65.1582 128.46 65.8927C128.725 66.6273 128.916 67.1369 129.031 67.4218C129.158 67.7163 129.276 68.0323 129.386 68.3697C129.505 68.6961 129.59 68.9255 129.642 69.0579L129.644 69.089C129.761 69.2485 129.748 69.4842 129.604 69.7961L129.241 70.1638Z" fill="#242424"/>
</svg>
