<svg width="225" height="92" viewBox="0 0 225 92" fill="none" xmlns="http://www.w3.org/2000/svg">
<path d="M14 28.0122C74.1666 19.6789 195.107 6.69783 201 20.0122" stroke="#0CE9CA" stroke-width="28" stroke-linecap="round"/>
<path d="M15.7329 19.3156C15.8193 19.0589 15.9284 18.8268 16.06 18.6193C16.1909 18.4013 16.3503 18.2179 16.5383 18.069C16.7359 17.9091 16.9246 17.7706 17.1044 17.6537C17.2945 17.536 17.5229 17.4417 17.7894 17.3709C18.0656 17.289 18.301 17.2204 18.4955 17.1651C18.7004 17.109 18.9584 17.0649 19.2694 17.0328C19.5908 17 19.8398 16.9774 20.0165 16.9651C20.2028 16.9416 20.4626 16.9235 20.7958 16.9107C21.1284 16.8875 21.3618 16.866 21.4962 16.8462C22.4923 16.7559 23.477 16.8752 24.4503 17.2041C25.434 17.5323 26.3077 18.004 27.0713 18.619C27.8454 19.2333 28.5087 19.9807 29.0612 20.861C29.613 21.731 29.9855 22.65 30.1787 23.6181C30.3883 24.5224 30.5263 25.4473 30.5926 26.3929C30.6589 27.3385 30.6532 28.2996 30.5755 29.2761C30.5075 30.2415 30.3389 31.1878 30.0698 32.115C29.8006 33.0422 29.4492 33.9125 29.0155 34.7259C28.581 35.5289 28.0223 36.2727 27.3393 36.9573C26.6557 37.6315 25.8797 38.1816 25.0116 38.6076C24.546 38.8175 24.0659 39.0442 23.5713 39.2875C22.7629 39.3752 21.9156 39.429 21.0295 39.4491C20.3187 39.2898 19.2946 39.2045 17.9572 39.1934C17.4312 38.9899 16.7128 38.7215 15.8018 38.3882C15.7566 38.3392 15.6499 38.2317 15.4816 38.066C15.3237 37.8994 15.2166 37.7868 15.1603 37.7281C15.2079 37.6621 15.2934 37.5413 15.4168 37.3656C15.5499 37.1788 15.6351 37.0528 15.6722 36.9876C16.0471 36.9719 16.459 36.9641 16.908 36.9641C17.0794 37.0252 17.3412 37.1114 17.6936 37.2226C18.046 37.3337 18.3075 37.4147 18.4782 37.4655C18.9019 37.5508 19.3701 37.6017 19.8829 37.6181C20.4054 37.6235 20.8329 37.6145 21.1654 37.5913C21.498 37.5682 21.9856 37.5237 22.6285 37.458C23.2809 37.3812 23.7215 37.3348 23.9501 37.3189C24.3876 37.0064 24.8207 36.7048 25.2493 36.4138C25.5591 36.2147 25.8458 35.9859 26.1097 35.7273C26.3735 35.4688 26.6065 35.2176 26.8086 34.9738C27.0101 34.7195 27.1979 34.4193 27.372 34.073C27.5565 33.726 27.7076 33.4231 27.8252 33.1643C27.9524 32.8944 28.075 32.5569 28.1927 32.1519C28.3098 31.7365 28.4012 31.4012 28.4668 31.146C28.5317 30.8805 28.6056 30.5203 28.6886 30.0655C28.7716 29.6107 28.8314 29.2724 28.868 29.0506C28.904 28.8183 28.9575 28.4648 29.0286 27.9899C28.5721 28.0322 27.5466 28.1507 25.9522 28.3454C24.357 28.5297 23.038 28.6321 21.9952 28.6526C20.9517 28.6627 19.9224 28.5779 18.9074 28.398C18.8994 28.2837 18.8837 28.0603 18.8604 27.7278C18.8363 27.3849 18.8206 27.1615 18.8134 27.0576C20.0818 26.9796 21.8807 26.8698 24.2098 26.7283C26.5382 26.5764 28.1236 26.4763 28.9661 26.428C28.8844 25.8594 28.8038 25.3795 28.7241 24.9882C28.6549 24.5963 28.5445 24.1393 28.393 23.6173C28.2512 23.0842 28.0885 22.6257 27.905 22.2417C27.7207 21.8473 27.4789 21.4517 27.1795 21.0549C26.8795 20.6477 26.5415 20.2953 26.1656 19.9978C25.5235 19.4787 24.7974 19.1012 23.9873 18.8654C23.1764 18.6191 22.3497 18.5201 21.5073 18.5684C20.6753 18.616 19.8639 18.7352 19.0732 18.926C18.2826 19.1169 17.4918 19.3809 16.7009 19.718C16.6149 19.6822 16.4484 19.6155 16.2013 19.5178C15.964 19.4091 15.8078 19.3417 15.7329 19.3156ZM37.0477 28.6525L37.5255 28.5409C39.853 27.9296 41.8265 26.1422 43.4461 23.1786C44.1692 21.8752 44.8294 20.9416 45.4269 20.3778C46.0168 19.8564 46.6547 19.5717 47.3406 19.5239C47.5484 19.5094 47.7795 19.603 48.0338 19.8045C48.2762 19.986 48.4069 20.2118 48.4259 20.482C48.4477 20.7937 48.0774 21.0963 47.3148 21.3896C46.766 21.6054 46.2617 21.9329 45.8017 22.3722C45.3729 22.8094 44.6353 23.8319 43.589 25.4398C42.8163 26.6318 42.1135 27.4797 41.4805 27.9832C41.4701 27.984 41.4549 27.9902 41.4349 28.0021C41.4252 28.0132 41.4103 28.0247 41.3903 28.0365C41.3806 28.0476 41.3661 28.0643 41.3468 28.0865C41.3275 28.1088 41.3082 28.131 41.2888 28.1532C41.2799 28.1747 41.2661 28.2018 41.2475 28.2344C41.2393 28.2663 41.2315 28.3034 41.224 28.3457C41.2269 28.3873 41.2298 28.4288 41.2328 28.4704C41.2364 28.5224 41.2397 28.5691 41.2426 28.6107C41.2552 28.6411 41.2678 28.6716 41.2803 28.702C41.3033 28.7317 41.3211 28.7618 41.3336 28.7923C41.3559 28.8116 41.3729 28.8313 41.3848 28.8514C41.4063 28.8603 41.4282 28.8745 41.4504 28.8938C41.4823 28.902 41.5038 28.9109 41.5149 28.9206C41.5261 28.9303 41.5424 28.9396 41.5639 28.9485C41.5854 28.9575 41.5962 28.9619 41.5962 28.9619C42.2577 29.3126 42.9886 30.0552 43.7886 31.1898C45.0503 32.9501 46.0156 34.0575 46.6844 34.5121C47.4067 34.9838 48.2043 35.1893 49.0772 35.1284L49.606 35.0759C49.658 35.0723 49.6995 35.0694 49.7307 35.0672C49.7433 35.0976 49.7507 35.1285 49.7529 35.1596C49.7725 35.4402 49.6129 35.7698 49.274 36.1485C48.9247 36.5278 48.2876 36.7498 47.3628 36.8142C46.6769 36.8621 45.9997 36.5856 45.331 35.9848C44.6275 35.3342 43.7995 34.2486 42.8471 32.7278C42.2694 31.7865 41.7337 31.0721 41.24 30.5844C40.7012 30.0476 40.12 29.801 39.4965 29.8445C39.351 29.8546 38.9798 29.9954 38.3827 30.2667C38.1295 30.3784 37.9323 30.4704 37.7912 30.5429C37.6597 30.6043 37.5253 30.6972 37.3878 30.8216C37.2608 30.9454 37.1711 31.0821 37.119 31.232C37.043 31.4879 37.0353 32.2715 37.0959 33.583C37.1425 34.8432 37.1928 35.8578 37.2467 36.6268C37.2664 36.9073 37.1495 37.1765 36.8961 37.4344C36.6219 37.6936 36.3186 37.8349 35.986 37.8581C35.6639 37.8805 35.4083 37.8096 35.2193 37.6452C35.0295 37.4705 34.9284 37.2948 34.916 37.1182C34.8905 36.7545 34.9678 35.8459 35.1478 34.3923C35.4585 31.6767 35.6483 27.236 35.7172 21.0705C35.7148 20.5903 35.8664 20.1464 36.172 19.7387C36.4582 19.3533 36.7832 19.1479 37.1469 19.1226C37.2716 19.1139 37.3917 19.189 37.5073 19.348C37.6584 19.5672 37.7475 19.8691 37.7744 20.2535C37.7977 20.5861 37.7724 20.969 37.6984 21.4022C37.2487 23.6264 37.0306 25.8762 37.0439 28.1516L37.0477 28.6525ZM62.183 21.8879C62.2717 22.1115 62.2662 22.3311 62.1665 22.5469C62.0764 22.7516 61.9141 22.8934 61.6795 22.9725C61.4552 23.0507 61.2459 23.0445 61.0516 22.9536L60.7935 22.8463C60.6422 22.7733 60.4534 22.6873 60.2271 22.5882C60.0343 22.5181 59.7717 22.4215 59.4393 22.2985C59.1084 22.1963 58.8684 22.1243 58.7193 22.0824C58.5501 22.0525 58.3661 22.034 58.1672 22.027C57.9995 22.0178 57.765 22.0237 57.4636 22.0447C57.183 22.0642 56.9507 22.1013 56.7666 22.1559C56.5824 22.2105 56.3938 22.2759 56.2008 22.352C56.0389 22.426 55.7748 22.6062 55.4085 22.8928C55.0408 23.1586 54.7566 23.4238 54.5559 23.6884C54.3157 23.9871 54.1295 24.235 53.9971 24.4322C53.887 24.6487 53.778 24.8808 53.6701 25.1285C53.5807 25.3436 53.4365 25.8183 53.2374 26.5527C53.0383 27.2871 52.9259 27.77 52.9004 28.0015C52.8993 28.2835 52.9034 28.5652 52.9127 28.8464C52.9212 29.1173 52.945 29.3819 52.984 29.6403C53.023 29.8986 53.0965 30.2015 53.2044 30.549C53.3353 30.9262 53.5359 31.3299 53.8062 31.7601C54.078 32.211 54.2936 32.5301 54.4529 32.7174C54.6115 32.8943 54.785 33.0598 54.9733 33.2137C55.1275 33.3282 55.3615 33.4633 55.6752 33.619C55.9868 33.7434 56.3908 33.8458 56.8872 33.9261C57.4022 33.9737 57.7747 33.9999 58.0048 34.0048C58.2854 33.9852 58.5503 33.9667 58.7997 33.9493C59.0061 33.9141 59.2734 33.8537 59.6015 33.7681C59.8777 33.6862 60.144 33.5371 60.4003 33.3209C60.6663 33.0935 60.838 32.9353 60.9153 32.8464C61.0104 32.7145 61.0948 32.578 61.1685 32.4372C61.2429 32.3067 61.3199 32.1395 61.3996 31.9355L61.5336 31.6129C61.6229 31.3978 61.7797 31.2512 62.004 31.1729C62.2379 31.0835 62.4572 31.0838 62.6619 31.174C62.877 31.2634 63.029 31.4199 63.1177 31.6434C63.2058 31.8566 63.2055 32.0759 63.1169 32.3013L62.9829 32.6239C62.8764 32.8924 62.7718 33.1137 62.6692 33.288C62.5562 33.4629 62.4435 33.6431 62.3312 33.8284C62.1587 34.0493 61.8648 34.3256 61.4495 34.6574C61.0253 35.0107 60.583 35.2555 60.1227 35.3921C59.7039 35.5257 59.3293 35.6197 58.999 35.674C58.6977 35.695 58.3963 35.716 58.095 35.7371C57.7506 35.7402 57.2782 35.7052 56.6779 35.6322C56.0145 35.5532 55.451 35.4097 54.9874 35.2019C54.5238 34.9941 54.1534 34.7745 53.8761 34.5432C53.6017 34.3535 53.3564 34.1305 53.14 33.8741C52.9229 33.6073 52.6432 33.1934 52.3011 32.6325C51.9819 32.1014 51.7428 31.5959 51.5838 31.1162C51.4264 30.6573 51.3245 30.2468 51.2782 29.8845C51.2348 29.5638 51.2067 29.2369 51.1937 28.9036C51.1801 28.56 51.182 28.2153 51.1995 27.8695C51.217 27.5237 51.3328 26.9413 51.5469 26.1223C51.7706 25.2923 51.9446 24.7215 52.069 24.41C52.2156 24.1178 52.3685 23.8409 52.5276 23.5792C52.695 23.2856 52.9181 22.9672 53.1968 22.6241C53.4934 22.238 53.8854 21.8713 54.3727 21.524C54.8385 21.1679 55.2185 20.9273 55.5125 20.8024C55.765 20.6804 56.0242 20.5788 56.29 20.4976C56.5676 20.4364 56.908 20.3762 57.3111 20.3167C57.6956 20.2899 58.0132 20.2782 58.2641 20.2816C58.506 20.3065 58.7535 20.3362 59.0065 20.3708C59.2721 20.4358 59.6023 20.5277 59.997 20.6463C60.3723 20.7872 60.6783 20.9069 60.915 21.0052C61.1301 21.0947 61.3296 21.1852 61.5136 21.2768L61.7416 21.4018C61.9567 21.4913 62.1038 21.6533 62.183 21.8879ZM65.8794 19.876C65.9999 19.6587 66.1674 19.5165 66.382 19.4494C66.607 19.3815 66.8233 19.4134 67.0309 19.5451C67.2482 19.6657 67.3849 19.8284 67.4411 20.0334L67.5641 20.4477C67.6491 20.7655 67.7107 21.0483 67.7489 21.2962C67.7865 21.5338 67.8489 22.0515 67.9362 22.8495C67.9916 23.6392 68.0349 24.2575 68.0663 24.7043C68.083 24.9433 68.1009 25.1979 68.1198 25.4681C68.1541 25.3612 68.1891 25.2648 68.2249 25.1788C68.523 24.2182 68.8405 23.4599 69.1774 22.9039C69.5455 22.3457 69.831 21.9499 70.0339 21.7165C70.2977 21.4579 70.697 21.1951 71.2317 20.9281C71.7471 20.6833 72.1388 20.536 72.4068 20.4859C72.6146 20.4715 72.8276 20.4566 73.0459 20.4414C73.3279 20.4426 73.7118 20.5568 74.1977 20.784C74.7057 21.0305 75.1394 21.4075 75.4987 21.915C75.8106 22.3422 76.1359 23.0348 76.4746 23.9928C76.8193 24.8876 77.06 25.5652 77.1967 26.0256C77.3126 26.4874 77.5132 27.1887 77.7985 28.1294C78.054 29.0932 78.2564 29.8935 78.4055 30.5305C78.5316 31.1378 78.6477 31.751 78.7538 32.3701C78.8695 32.9782 78.9447 33.3801 78.9793 33.5761C78.991 33.7424 79.0145 33.9287 79.0498 34.1351L79.0728 34.4624C79.1103 34.6999 79.0518 34.9076 78.8972 35.0855C78.753 35.2626 78.5618 35.3647 78.3235 35.3918C78.0956 35.4181 77.8823 35.3547 77.6836 35.2014C77.496 35.0579 77.3838 34.8725 77.347 34.6454L77.3273 34.3648C77.292 34.1584 77.2681 33.9669 77.2557 33.7903C77.2233 33.6255 77.1651 33.2432 77.0813 32.6434C76.9789 32.0762 76.8649 31.4942 76.7395 30.8973C76.5926 30.2915 76.3877 29.5278 76.1246 28.6064C75.8498 27.6649 75.6551 26.9736 75.5406 26.5326C75.4054 26.093 75.1772 25.4459 74.8562 24.5911C74.5589 23.7765 74.3047 23.2043 74.0936 22.8744C73.9092 22.6262 73.7042 22.4578 73.4787 22.3691C73.2829 22.2574 73.1271 22.1952 73.0113 22.1824C72.9074 22.1896 72.7931 22.1976 72.6684 22.2063C72.566 22.2343 72.338 22.3337 71.9845 22.5046C71.6295 22.6546 71.4041 22.7904 71.3082 22.912C71.1715 23.0468 70.9577 23.3489 70.6669 23.8182C70.3732 24.2459 70.1034 24.8651 69.8574 25.6758C69.5936 26.5296 69.4428 27.1353 69.4053 27.4929C69.3477 27.8624 69.3168 28.465 69.3128 29.3006C69.2894 30.1585 69.2977 30.8732 69.3378 31.4447C69.3779 32.0162 69.3989 32.4637 69.4007 32.7873C69.4262 33.151 69.428 33.4746 69.4061 33.758C69.409 33.7996 69.4126 33.8516 69.417 33.9139C69.4214 33.9763 69.4031 34.0872 69.362 34.2467C69.3307 34.395 69.276 34.5085 69.198 34.587C69.1199 34.6656 68.9944 34.737 68.8214 34.8012C68.6588 34.8648 68.4477 34.8325 68.1881 34.7044C68.059 34.6508 67.9451 34.5908 67.8465 34.5246C67.7583 34.4577 67.6964 34.3941 67.6609 34.3339C67.6246 34.2634 67.5991 34.1973 67.5843 34.1357C67.5695 34.074 67.5607 34.0225 67.5578 33.9809L67.5534 33.9185C67.4462 33.5814 67.3606 33.2533 67.2964 32.934C67.2322 32.6148 67.1365 32.0681 67.0091 31.2938C66.8691 30.4891 66.7598 29.7501 66.6813 29.0768C66.602 28.3932 66.5318 27.615 66.4706 26.7421C66.4123 25.9108 66.3674 25.2718 66.3361 24.8249C66.3048 24.3781 66.2614 23.7598 66.206 22.9701C66.1313 22.2026 66.077 21.7261 66.0431 21.5405C66.0314 21.3742 65.9853 21.1634 65.9048 20.908L65.814 20.507C65.7371 20.3036 65.7589 20.0932 65.8794 19.876ZM83.9318 24.4596C84.0773 24.4495 84.2235 24.4497 84.3704 24.4603C84.5367 24.4487 84.8859 24.4401 85.418 24.4343C85.9598 24.4174 86.3502 24.4006 86.5893 24.384C86.8283 24.3673 87.0561 24.341 87.2729 24.305C87.4889 24.2586 87.8954 24.1728 88.4923 24.0477C89.0802 23.944 89.4558 23.8656 89.6192 23.8125C89.7929 23.7586 90.0313 23.6584 90.3343 23.512C90.6076 23.3885 90.784 23.2979 90.8635 23.2402C90.9214 23.1735 91.0032 23.0738 91.1088 22.9411C91.1861 22.8522 91.2504 22.7276 91.3018 22.5674C91.3511 22.376 91.3832 22.238 91.3981 22.1535C91.3923 22.0703 91.3476 21.8803 91.2641 21.5833C91.1807 21.2863 91.1152 21.0977 91.0678 21.0174C90.9996 20.9386 90.8599 20.8074 90.6486 20.6238C90.447 20.429 90.2446 20.2969 90.0413 20.2275C89.7935 20.1195 89.5795 20.0457 89.3992 20.006C89.2182 19.956 88.9132 19.9251 88.4842 19.9132C88.0746 19.8791 87.7362 19.8923 87.4689 19.9527C87.2106 19.9916 86.9098 20.0961 86.5667 20.2662C86.2229 20.4259 85.9812 20.5524 85.8415 20.6457C85.7033 20.7597 85.509 20.9664 85.2585 21.2658C85.0072 21.5548 84.7733 21.9418 84.5567 22.4268C84.3104 22.9348 84.1637 23.3 84.1167 23.5226C84.066 23.6932 84.0044 24.0055 83.9318 24.4596ZM82.0731 24.9808C82.103 24.8116 82.1318 24.6269 82.1595 24.4265C82.2605 23.7825 82.3584 23.3163 82.453 23.0277C82.5372 22.7399 82.7204 22.299 83.0024 21.7051C83.3038 21.0889 83.6177 20.5762 83.944 20.1671C84.2614 19.7795 84.5338 19.4942 84.7611 19.3113C85.0078 19.1062 85.3639 18.8986 85.8296 18.6886C86.3048 18.4675 86.7537 18.3162 87.1761 18.2345C87.5784 18.1647 88.0468 18.1425 88.5811 18.1679C89.1155 18.1933 89.521 18.2433 89.7977 18.318C90.0737 18.3823 90.3779 18.4759 90.7102 18.5989C91.0871 18.7606 91.443 18.9969 91.7781 19.3076C92.145 19.6266 92.3878 19.8864 92.5063 20.087C92.6455 20.2861 92.7894 20.6259 92.938 21.1063C93.0762 21.5875 93.1432 21.9482 93.1392 22.1887C93.1345 22.4187 93.0766 22.7099 92.9655 23.0623C92.8456 23.4361 92.6908 23.7601 92.5012 24.0344C92.3079 24.2567 92.1273 24.4364 91.9594 24.5734C91.7811 24.7111 91.4799 24.8835 91.0559 25.0906C90.6801 25.2421 90.3753 25.3626 90.1414 25.452C89.9172 25.5303 89.4806 25.6338 88.8318 25.7626C88.2246 25.8884 87.7866 25.9712 87.5178 26.0108C87.2491 26.0504 86.9797 26.0797 86.7095 26.0985C86.4705 26.1152 86.0697 26.1327 85.5071 26.151C84.9445 26.1693 84.5745 26.1795 84.3971 26.1814C84.2301 26.1826 84.0739 26.1883 83.9284 26.1984C83.8661 26.2028 83.7881 26.2082 83.6946 26.2147C83.6855 26.3824 83.676 26.5449 83.6662 26.7023C83.6599 26.9115 83.7036 27.3105 83.7971 27.8992C83.8899 28.4775 83.9636 28.8587 84.0183 29.0428C84.0744 29.2477 84.1569 29.456 84.2657 29.6677C84.3412 29.8504 84.4974 30.1424 84.7344 30.5435C84.9469 30.8942 85.1481 31.1568 85.3379 31.3316C85.5625 31.5561 85.7563 31.7148 85.9195 31.8079C86.0515 31.9031 86.3155 32.0204 86.7117 32.1599C87.1093 32.3201 87.462 32.4365 87.77 32.509C88.0771 32.5711 88.4289 32.5988 88.8252 32.5921C89.2542 32.6039 89.5459 32.594 89.7003 32.5624C89.825 32.5537 90.0641 32.4639 90.4176 32.2931C90.731 32.1459 90.9371 32.0324 91.0359 31.9524C91.134 31.862 91.2206 31.7568 91.2957 31.6367C91.3708 31.5166 91.4757 31.3004 91.6105 30.9882C91.7334 30.6559 91.8198 30.3993 91.8697 30.2183C91.919 30.0269 91.9593 29.857 91.9906 29.7087L92.0355 29.4549C92.0603 29.213 92.167 29.0229 92.3557 28.8844C92.5548 28.7452 92.7701 28.6884 93.0016 28.7141C93.2436 28.739 93.4342 28.851 93.5734 29.0501C93.7224 29.2381 93.7841 29.4479 93.7585 29.6794L93.717 29.9799C93.6692 30.192 93.6073 30.4261 93.5313 30.682C93.4649 30.9268 93.3517 31.2479 93.1916 31.6455C93.0329 32.0637 92.8778 32.3826 92.7261 32.602C92.5841 32.8103 92.4202 33.0045 92.2344 33.1845C92.0397 33.386 91.685 33.6144 91.1703 33.8695C90.6535 34.0935 90.2559 34.2309 89.9775 34.2816C89.7192 34.3205 89.334 34.3369 88.8219 34.3309C88.289 34.3263 87.8159 34.2809 87.4026 34.1949C86.9886 34.0985 86.5509 33.9619 86.0895 33.7852C85.5843 33.5803 85.2064 33.403 84.9558 33.2534C84.7363 33.1017 84.4757 32.8849 84.174 32.6031C83.85 32.302 83.5455 31.9055 83.2604 31.4138C82.9678 30.9643 82.7701 30.6021 82.6673 30.3274C82.5452 30.0748 82.4442 29.8261 82.3644 29.581C82.2823 29.3048 82.1865 28.8312 82.0767 28.1601C81.9767 27.4779 81.9321 26.9902 81.9428 26.6971C81.9439 26.4151 81.9554 26.1324 81.9773 25.8489C81.9729 25.7866 81.979 25.7235 81.9954 25.6597C81.991 25.5973 81.9874 25.5454 81.9844 25.5038C81.9513 25.3286 81.9808 25.1543 82.0731 24.9808ZM98.7621 27.545L98.9688 27.8125C99.0607 27.9314 99.2843 28.0672 99.6396 28.2199C100.041 28.4321 100.624 28.6264 101.388 28.8029C102.133 29.0119 102.659 29.1319 102.964 29.1629C103.279 29.1931 103.765 29.1958 104.421 29.1709C105.015 29.1504 105.638 29.0286 106.291 28.8056C106.963 28.5708 107.379 28.3956 107.538 28.2801C107.697 28.1646 107.953 27.8648 108.305 27.3808C108.638 26.9086 108.856 26.4548 108.962 26.0194C109.054 25.5431 109.091 25.1802 109.073 24.9308C109.056 24.6918 108.865 24.1152 108.498 23.201C108.107 22.2467 107.831 21.6655 107.671 21.4575C107.486 21.2093 107.165 20.8818 106.709 20.4751C106.253 20.0788 105.846 19.7835 105.488 19.5892C105.151 19.4038 104.739 19.2602 104.251 19.1585C103.763 19.0463 103.415 18.9975 103.207 19.012C103.01 19.0258 102.602 19.1638 101.983 19.4263C101.406 19.6754 100.927 20.0063 100.549 20.419C100.129 20.8346 99.8506 21.1778 99.7129 21.4484C99.5663 21.7406 99.3733 22.3388 99.1339 23.243C98.8745 24.1591 98.7341 24.8372 98.7127 25.2773C98.6906 25.7069 98.7071 26.4628 98.7621 27.545ZM98.8872 29.776C98.9055 30.0358 98.9308 30.2481 98.9632 30.4129C99.0197 30.9206 99.1209 31.6184 99.2667 32.5062C99.4169 33.4564 99.5679 34.3439 99.7197 35.1687C99.8611 35.9942 99.9528 36.5569 99.9947 36.8568C100.035 37.1359 100.082 37.5033 100.135 37.9591C100.187 38.4045 100.218 38.7051 100.229 38.8609L100.245 39.0792C100.261 39.3181 100.187 39.5269 100.022 39.7055C99.8676 39.8834 99.6708 39.9806 99.4318 39.9973C99.2032 40.0132 98.9999 39.9439 98.822 39.7892C98.6441 39.6345 98.5467 39.4377 98.53 39.1987L98.5147 38.9805C98.5059 38.8558 98.4758 38.576 98.4244 38.141C98.3738 37.7164 98.3234 37.3701 98.2733 37.1021C98.2328 36.823 98.1419 36.2707 98.0004 35.4452C97.8575 34.5989 97.7125 33.7215 97.5652 32.8128C97.415 31.8626 97.311 31.1233 97.253 30.5948C97.2053 30.2118 97.1552 29.6462 97.1027 28.898C97.0816 28.5967 97.0579 28.259 97.0316 27.8849C96.9836 26.6039 96.9721 25.6962 96.9973 25.1619C97.0225 24.6276 97.1705 23.8342 97.4412 22.7815C97.7335 21.7378 97.9812 21.0262 98.1843 20.6466C98.3964 20.2454 98.7599 19.7711 99.2749 19.2235C99.8093 18.6537 100.492 18.1884 101.323 17.8277C102.114 17.4906 102.691 17.3146 103.056 17.2996C103.439 17.252 103.959 17.2993 104.616 17.4414C105.274 17.5835 105.852 17.7886 106.351 18.0566C106.819 18.3268 107.316 18.7099 107.842 19.2058C108.386 19.6794 108.774 20.0701 109.005 20.3777C109.288 20.7025 109.652 21.4237 110.096 22.5414C110.561 23.668 110.793 24.435 110.79 24.8425C110.817 25.2269 110.769 25.7315 110.646 26.3562C110.507 27.055 110.204 27.7287 109.738 28.3773C109.27 29.0051 108.873 29.4401 108.545 29.6822C108.257 29.8903 107.695 30.1435 106.86 30.4419C106.043 30.7077 105.239 30.8577 104.448 30.892C103.719 30.9219 103.16 30.9139 102.77 30.868C102.391 30.8213 101.786 30.686 100.956 30.4619C100.106 30.2497 99.4161 30.0211 98.8872 29.776ZM113.732 16.5396C113.832 16.3238 113.988 16.1771 114.202 16.0996C114.427 16.0213 114.647 16.0321 114.862 16.1319C115.089 16.231 115.241 16.3874 115.318 16.6013L115.475 17.0446C115.606 17.4218 115.668 17.8665 115.662 18.3786C115.671 18.806 115.707 19.4666 115.77 20.3602C115.81 21.2345 115.841 21.8276 115.863 22.1393C115.907 22.46 115.952 22.8014 115.998 23.1637C116.007 23.2884 116.028 23.4487 116.063 23.6447C116.129 23.3999 116.208 23.1125 116.3 22.7824C116.522 21.9315 116.779 21.1931 117.069 20.5673C117.369 19.9407 117.62 19.4899 117.82 19.2149C117.989 18.9421 118.281 18.5719 118.697 18.1043C119.151 17.5819 119.582 17.1759 119.99 16.8864C120.397 16.5761 120.799 16.3549 121.197 16.2228C121.614 16.0684 121.985 15.9903 122.308 15.9886C122.653 15.9855 123.018 16.0644 123.406 16.2254C123.782 16.3871 124.062 16.5816 124.245 16.809C124.405 17.0067 124.638 17.4186 124.943 18.0448C125.192 18.6226 125.365 19.0804 125.462 19.4182C125.548 19.7568 125.666 20.2394 125.814 20.866C125.873 21.1021 125.935 21.3222 126.002 21.5264C126.101 21.154 126.29 20.6501 126.569 20.0145C126.882 19.2618 127.122 18.749 127.291 18.4762C127.459 18.193 127.692 17.8635 127.989 17.4877C128.326 17.0779 128.623 16.7753 128.881 16.5798C129.147 16.3524 129.469 16.1733 129.846 16.0426C130.346 15.8824 130.871 15.9189 131.42 16.1522C131.947 16.3764 132.369 16.723 132.683 17.1918C132.899 17.584 133.064 17.9223 133.177 18.2068C133.26 18.483 133.391 19.022 133.573 19.8238C133.777 20.645 133.908 21.2467 133.966 21.629C134.034 22.0002 134.135 22.5569 134.271 23.2993C134.386 24.0431 134.482 24.6682 134.559 25.1744C134.636 25.6807 134.693 26.1884 134.728 26.6976C134.783 27.1845 134.834 27.6091 134.88 27.9714C134.927 28.3336 134.966 28.5971 134.999 28.7619L135.048 29.0247C135.086 29.2623 135.038 29.4744 134.905 29.6612C134.772 29.848 134.587 29.9602 134.349 29.9976C134.122 30.0343 133.91 29.9865 133.712 29.854C133.525 29.7105 133.402 29.5258 133.345 29.3001L133.328 29.0663C133.294 28.8807 133.243 28.5972 133.175 28.2156C133.127 27.8326 133.069 27.3772 133 26.8494C132.966 26.361 132.911 25.8741 132.835 25.3886C132.76 24.9031 132.665 24.304 132.553 23.5914C132.439 22.8684 132.348 22.3161 132.28 21.9345C132.213 21.5737 132.084 21.0031 131.894 20.2228C131.713 19.4418 131.585 18.9495 131.508 18.7461C131.455 18.5827 131.356 18.3651 131.212 18.0932C131.117 17.9328 130.967 17.8127 130.763 17.7329C130.612 17.6599 130.506 17.636 130.445 17.6611C130.261 17.7157 130.105 17.7997 129.977 17.913C129.799 18.0508 129.59 18.269 129.35 18.5676C129.069 18.89 128.869 19.1598 128.749 19.377C128.627 19.5839 128.423 20.0262 128.137 20.704C127.849 21.3715 127.674 21.8432 127.609 22.1191C127.547 22.4263 127.465 22.8863 127.362 23.4991C127.268 24.1008 127.202 24.7215 127.163 25.3612C127.11 26.0958 127.079 26.5366 127.068 26.6835C127.043 26.9254 126.997 27.2314 126.929 27.6016C126.871 27.9711 126.827 28.2404 126.798 28.4096C126.777 28.4111 126.757 28.4229 126.737 28.4451C126.718 28.4674 126.673 28.4966 126.603 28.5328C126.532 28.5691 126.456 28.6057 126.375 28.6427C126.305 28.6789 126.219 28.7162 126.117 28.7547C126.015 28.7931 125.918 28.8207 125.825 28.8376C125.743 28.8538 125.66 28.8648 125.577 28.8706C125.494 28.8764 125.415 28.8663 125.34 28.8402C125.265 28.8141 125.199 28.7717 125.143 28.7129C125.097 28.6535 125.07 28.5718 125.063 28.4679C125.051 28.3016 125.04 28.2137 125.029 28.204C125.017 28.1839 125.02 28.1524 125.038 28.1094C125.056 28.0664 125.077 28.0022 125.103 27.9169C125.131 27.727 125.147 27.5014 125.149 27.2402C125.15 26.9582 125.134 26.5834 125.102 26.1158C125.048 25.6496 124.97 25.1329 124.868 24.5658C124.743 23.9793 124.626 23.4288 124.517 22.9143C124.42 22.4303 124.298 21.8801 124.151 21.2639C124.002 20.6373 123.882 20.1914 123.79 19.9263C123.731 19.6695 123.589 19.2826 123.364 18.7657C123.189 18.3498 123.05 18.0827 122.948 17.9646C122.904 17.9259 122.816 17.8641 122.684 17.7793C122.555 17.7257 122.434 17.7028 122.319 17.7108C122.214 17.6973 122.05 17.74 121.827 17.8391C121.551 17.921 121.269 18.0712 120.982 18.2896C120.693 18.4977 120.376 18.807 120.028 19.2175C119.631 19.6525 119.367 19.9841 119.237 20.2125C119.103 20.3889 118.909 20.747 118.654 21.2869C118.4 21.8267 118.169 22.4798 117.962 23.246C117.735 24.0345 117.596 24.5924 117.546 24.9196C117.504 25.2045 117.441 25.7309 117.359 26.4989C117.309 27.2751 117.279 27.815 117.269 28.1185C117.259 28.4116 117.259 28.7927 117.271 29.2617C117.283 29.7308 117.296 30.064 117.31 30.2615C117.313 30.303 117.321 30.3494 117.336 30.4007C117.35 30.4519 117.372 30.5547 117.404 30.7091C117.435 30.8532 117.412 30.9644 117.334 31.043C117.266 31.1208 117.162 31.2011 117.022 31.284C116.881 31.3669 116.647 31.378 116.319 31.3173C115.887 31.2639 115.608 31.158 115.482 30.9998C115.356 30.8311 115.34 30.6808 115.435 30.5488L115.547 30.3531C115.508 30.0948 115.471 29.8728 115.437 29.6872C115.402 29.4808 115.332 29.0785 115.227 28.4801C115.123 27.8818 115.033 27.4234 114.958 27.1049C114.894 26.7753 114.778 26.1673 114.611 25.2809C114.445 24.3945 114.338 23.7598 114.29 23.3767C114.243 23.0145 114.198 22.6626 114.153 22.3212C114.129 21.9783 114.096 21.3541 114.053 20.4486C113.989 19.5342 113.951 18.8476 113.94 18.389C113.938 18.0654 113.909 17.8012 113.853 17.5962L113.7 17.1997C113.621 16.965 113.632 16.745 113.732 16.5396ZM163.929 26.9798C164.287 26.8713 164.713 26.6902 165.207 26.4365C165.72 26.1605 166.102 25.9512 166.353 25.8084C166.585 25.6878 166.992 25.3827 167.573 24.8931C168.116 24.448 168.564 23.9783 168.915 23.4839C169.287 22.9672 169.535 22.5636 169.661 22.2729C169.807 21.9807 169.987 21.3469 170.201 20.3713C170.434 19.3735 170.557 18.681 170.572 18.2936C170.606 17.884 170.572 17.2546 170.471 16.4054C170.349 15.5577 170.215 14.8413 170.07 14.2563C169.905 13.6934 169.634 13.0388 169.258 12.2923C168.882 11.5458 168.574 11.0243 168.334 10.7278C168.105 10.4409 167.583 9.9918 166.767 9.38038C165.994 8.77646 165.261 8.37854 164.569 8.18664C163.823 7.97758 163.273 7.86978 162.917 7.86323C162.53 7.84848 161.873 7.93605 160.947 8.12595C160.062 8.31295 159.493 8.47266 159.241 8.60507C158.95 8.77156 158.655 8.95919 158.357 9.16797C158.046 9.35668 157.55 9.79853 156.868 10.4935C156.204 11.1558 155.677 11.8243 155.285 12.499C154.883 13.164 154.616 13.6734 154.484 14.0272C154.361 14.3595 154.229 15.0109 154.089 15.9813C153.969 16.9504 153.916 17.6171 153.931 17.9815C153.96 18.3867 154.077 19.0103 154.282 19.8523C154.486 20.6734 154.715 21.3414 154.971 21.8561C155.216 22.3715 155.568 22.9265 156.027 23.521C156.517 24.1029 156.896 24.5255 157.165 24.7887C157.423 25.0318 157.938 25.377 158.71 25.8243C159.494 26.2813 160.019 26.5475 160.286 26.6229C160.574 26.7073 160.987 26.7933 161.526 26.8811C162.023 26.9717 162.464 27.0036 162.848 26.9768L163.55 26.9279C163.675 26.9296 163.801 26.9469 163.929 26.9798ZM159.823 28.2842C159.407 28.167 158.743 27.8478 157.829 27.3268C156.935 26.7939 156.316 26.3672 155.969 26.0468C155.644 25.7249 155.218 25.2325 154.691 24.5696C154.152 23.8763 153.73 23.2217 153.426 22.606C153.12 21.9695 152.851 21.1842 152.618 20.2502C152.407 19.3251 152.274 18.6191 152.219 18.1322C152.164 17.6453 152.213 16.8535 152.366 15.7569C152.529 14.6595 152.689 13.8861 152.845 13.4367C153.023 12.9961 153.341 12.3944 153.799 11.6315C154.267 10.8576 154.89 10.0675 155.669 9.26137C156.43 8.49826 157 7.98864 157.379 7.7325C157.728 7.49932 158.078 7.28173 158.43 7.07972C158.822 6.86442 159.542 6.64189 160.591 6.41212C161.622 6.21498 162.409 6.11835 162.952 6.12224C163.464 6.12831 164.157 6.2627 165.032 6.52541C165.948 6.78523 166.881 7.27885 167.83 8.00627C168.736 8.7158 169.354 9.26789 169.685 9.66252C169.994 10.0482 170.361 10.6648 170.786 11.5123C171.221 12.3591 171.536 13.1307 171.731 13.8272C171.904 14.5043 172.048 15.293 172.163 16.1934C172.293 17.1451 172.344 17.8725 172.316 18.3756C172.29 18.8891 172.153 19.687 171.905 20.7694C171.657 21.8517 171.428 22.6039 171.217 23.0258C171.036 23.4248 170.741 23.9048 170.331 24.4659C169.885 25.0922 169.325 25.6794 168.654 26.2275C168.002 26.7637 167.526 27.1154 167.224 27.2826C166.954 27.4476 166.542 27.68 165.988 27.9796C165.414 28.2807 164.908 28.4987 164.468 28.6338C164.028 28.7689 163.555 28.8645 163.047 28.9208C162.539 28.9771 162.176 29.0025 161.956 28.9969C161.716 28.9928 161.356 28.9239 160.876 28.7902L160.253 28.6144C160.082 28.5533 159.938 28.4432 159.823 28.2842ZM176.73 6.71224C176.946 6.51965 177.109 6.3778 177.217 6.2867C177.336 6.19488 177.502 6.10499 177.715 6.01704C177.928 5.92909 178.14 5.89345 178.35 5.91014C179.285 5.84493 181.634 5.68639 185.396 5.43451C185.56 5.39174 185.717 5.38607 185.865 5.41749C186.013 5.44891 186.132 5.50329 186.221 5.58062C186.309 5.64756 186.401 5.76127 186.496 5.92173C186.59 6.0718 186.656 6.1977 186.694 6.29944C186.742 6.39006 186.804 6.52672 186.88 6.70941C186.905 6.77031 186.924 6.81599 186.936 6.84644C186.135 7.03803 185.289 7.18057 184.398 7.27405C183.505 7.35714 182.476 7.42367 181.31 7.47364C180.154 7.5125 179.3 7.55113 178.749 7.58953C178.819 8.73328 178.866 10.1501 178.891 11.84C178.926 13.5291 178.95 14.9945 178.964 16.2361C178.978 17.4674 179.05 18.8668 179.18 20.4344C179.321 21.9909 179.525 23.4176 179.794 24.7146C179.957 25.998 180.072 26.9715 180.14 27.6351C179.953 27.6482 179.47 27.6871 178.691 27.7518C178.666 27.6909 178.601 27.5127 178.497 27.2171C178.393 26.9216 178.321 26.7177 178.282 26.6056C178.242 26.4831 178.193 26.309 178.136 26.0833C178.078 25.8576 178.037 25.6515 178.014 25.4652C177.792 23.4967 177.573 20.3742 177.357 16.0976C177.14 11.8107 176.931 8.68221 176.73 6.71224ZM194.05 6.88299C194.136 6.62636 194.246 6.39426 194.377 6.18668C194.508 5.96872 194.667 5.78531 194.855 5.63646C195.053 5.47649 195.242 5.33803 195.422 5.22108C195.612 5.1034 195.84 5.00917 196.107 4.93837C196.383 4.85647 196.618 4.78785 196.813 4.73252C197.018 4.67646 197.275 4.63237 197.587 4.60024C197.908 4.56739 198.157 4.54481 198.334 4.53249C198.52 4.50906 198.78 4.49095 199.113 4.47815C199.445 4.45497 199.679 4.43347 199.813 4.41366C200.809 4.32333 201.794 4.44263 202.767 4.77156C203.751 5.09977 204.625 5.57139 205.388 6.18644C206.163 6.80075 206.826 7.5481 207.378 8.42847C207.93 9.29844 208.303 10.2175 208.496 11.1855C208.705 12.0898 208.843 13.0148 208.91 13.9603C208.976 14.9059 208.97 15.867 208.893 16.8435C208.825 17.8089 208.656 18.7552 208.387 19.6824C208.118 20.6097 207.766 21.48 207.333 22.2933C206.898 23.0963 206.339 23.8401 205.656 24.5247C204.973 25.1989 204.197 25.749 203.329 26.175C202.863 26.385 202.383 26.6116 201.888 26.8549C201.08 26.9426 200.233 26.9965 199.347 27.0165C198.636 26.8572 197.612 26.772 196.274 26.7608C195.748 26.5573 195.03 26.2889 194.119 25.9556C194.074 25.9066 193.967 25.7992 193.799 25.6334C193.641 25.4669 193.534 25.3543 193.477 25.2955C193.525 25.2296 193.611 25.1087 193.734 24.9331C193.867 24.7463 193.952 24.6203 193.989 24.555C194.364 24.5393 194.776 24.5315 195.225 24.5315C195.396 24.5926 195.658 24.6788 196.011 24.79C196.363 24.9012 196.625 24.9821 196.795 25.0329C197.219 25.1182 197.687 25.1691 198.2 25.1855C198.723 25.1909 199.15 25.182 199.483 25.1588C199.815 25.1356 200.303 25.0912 200.946 25.0254C201.598 24.9486 202.039 24.9023 202.267 24.8863C202.705 24.5739 203.138 24.2722 203.566 23.9813C203.876 23.7821 204.163 23.5533 204.427 23.2948C204.691 23.0362 204.924 22.785 205.126 22.5412C205.327 22.287 205.515 21.9867 205.689 21.6404C205.874 21.2934 206.025 20.9905 206.142 20.7317C206.27 20.4618 206.392 20.1243 206.51 19.7193C206.627 19.3039 206.718 18.9686 206.784 18.7135C206.849 18.4479 206.923 18.0877 207.006 17.6329C207.089 17.1781 207.149 16.8398 207.185 16.618C207.221 16.3858 207.275 16.0322 207.346 15.5574C206.889 15.5996 205.864 15.7181 204.269 15.9128C202.674 16.0971 201.355 16.1995 200.312 16.22C199.269 16.2301 198.24 16.1453 197.224 15.9654C197.216 15.8511 197.201 15.6277 197.177 15.2952C197.153 14.9523 197.138 14.7289 197.13 14.625C198.399 14.547 200.198 14.4372 202.527 14.2957C204.855 14.1438 206.441 14.0437 207.283 13.9954C207.202 13.4268 207.121 12.9469 207.041 12.5557C206.972 12.1637 206.862 11.7067 206.71 11.1847C206.568 10.6516 206.406 10.1931 206.222 9.8091C206.038 9.41472 205.796 9.01912 205.497 8.62231C205.197 8.21511 204.859 7.86277 204.483 7.56527C203.841 7.04617 203.115 6.66868 202.304 6.43279C201.494 6.18651 200.667 6.08752 199.824 6.13581C198.992 6.18338 198.181 6.3026 197.39 6.49347C196.6 6.68434 195.809 6.94832 195.018 7.28539C194.932 7.24962 194.765 7.18292 194.518 7.08528C194.281 6.97652 194.125 6.90909 194.05 6.88299Z" fill="#242424"/>
</svg>
