<svg width="158" height="86" viewBox="0 0 158 86" fill="none" xmlns="http://www.w3.org/2000/svg">
<path d="M20.1279 17.4417C54.118 14.9438 137.189 24.8653 140.372 30.8602C144.352 38.3538 -13.5454 33.3863 24.5003 63.4025C45.4497 79.9306 81.3259 65.169 144 59.6737" stroke="#0CE9CA" stroke-width="28" stroke-linecap="round"/>
<path d="M43.8019 26.3621C44.1594 26.2558 44.5845 26.0772 45.0772 25.8265C45.5891 25.5537 45.9702 25.3467 46.2206 25.2054C46.4518 25.0862 46.8569 24.7837 47.4361 24.2979C47.9769 23.8562 48.4218 23.3894 48.7707 22.8974C49.1388 22.3833 49.3849 21.9814 49.509 21.6916C49.6539 21.4005 49.8302 20.7683 50.0379 19.7947C50.2647 18.7991 50.3843 18.1079 50.3965 17.7209C50.4279 17.3118 50.3903 16.6828 50.2836 15.8338C50.1561 14.9861 50.0178 14.2695 49.8686 13.6842C49.7002 13.1209 49.4255 12.4653 49.0445 11.7173C48.6635 10.9693 48.352 10.4465 48.1099 10.1489C47.879 9.86102 47.3535 9.40932 46.5334 8.79381C45.7557 8.18603 45.0199 7.78432 44.3259 7.58867C43.5784 7.37557 43.0268 7.26475 42.6709 7.25621C42.2831 7.23927 41.6262 7.32306 40.7001 7.50756C39.8156 7.6894 39.2478 7.84576 38.9967 7.97664C38.7063 8.14134 38.4124 8.32714 38.1148 8.53405C37.8052 8.72086 37.3112 9.15952 36.6327 9.85004C35.9727 10.5081 35.449 11.173 35.0616 11.8449C34.663 12.5071 34.3988 13.0145 34.2691 13.3673C34.1481 13.6986 34.0202 14.3486 33.8853 15.3175C33.7712 16.285 33.7229 16.9509 33.7403 17.315C33.7712 17.7201 33.892 18.3438 34.1026 19.1862C34.3117 20.0078 34.5456 20.6765 34.8043 21.1922C35.0527 21.7086 35.4086 22.2651 35.8721 22.8617C36.3659 23.4459 36.7483 23.8702 37.0192 24.1347C37.2781 24.379 37.7957 24.7269 38.5719 25.1782C39.3592 25.6392 39.8864 25.9082 40.1535 25.985C40.4421 26.0709 40.8562 26.1592 41.3959 26.2499C41.894 26.3433 42.3354 26.3777 42.72 26.3531L43.4217 26.3082C43.5472 26.3106 43.674 26.3286 43.8019 26.3621ZM39.7003 27.6422C39.2838 27.5227 38.6167 27.2001 37.699 26.6744C36.8014 26.1369 36.1783 25.7071 35.8299 25.385C35.5022 25.0615 35.0727 24.5671 34.5413 23.9018C33.9972 23.206 33.571 22.5497 33.2627 21.9327C32.9528 21.295 32.6786 20.5089 32.44 19.5744C32.223 18.6489 32.0855 17.9428 32.0274 17.456C31.9693 16.9691 32.0133 16.1783 32.1595 15.0835C32.316 13.988 32.4712 13.2162 32.625 12.768C32.8004 12.3288 33.115 11.7294 33.5688 10.9698C34.0322 10.1991 34.6511 9.41323 35.4256 8.61219C36.1825 7.85404 36.7497 7.34807 37.1273 7.09429C37.4752 6.86328 37.8244 6.64785 38.1747 6.448C38.5659 6.23511 39.2857 6.01684 40.3341 5.79319C41.3641 5.60204 42.151 5.50994 42.6947 5.51689C43.2073 5.52585 43.902 5.66404 44.7791 5.93147C45.6977 6.19625 46.6342 6.69471 47.5885 7.42687C48.4996 8.14092 49.1218 8.69603 49.455 9.09219C49.7667 9.4793 50.1377 10.0974 50.5682 10.9466C51.0092 11.7951 51.3294 12.5679 51.5289 13.2648C51.706 13.9423 51.8551 14.7312 51.9761 15.6315C52.1115 16.5831 52.1671 17.3101 52.1428 17.8127C52.1193 18.3256 51.9869 19.1221 51.7456 20.2021C51.5043 21.2821 51.2796 22.0323 51.0714 22.4527C50.8929 22.8503 50.6004 23.3283 50.1939 23.8866C49.7505 24.5099 49.1944 25.0934 48.5257 25.6372C47.8769 26.1692 47.4021 26.5179 47.1013 26.6833C46.8318 26.8467 46.421 27.0765 45.8691 27.3727C45.2964 27.6703 44.7906 27.8853 44.3515 28.0178C43.9124 28.1503 43.439 28.2432 42.9312 28.2965C42.4234 28.3499 42.0596 28.3732 41.8397 28.3664C41.599 28.3609 41.2384 28.2901 40.7579 28.1538L40.1331 27.9746C39.9613 27.9125 39.817 27.8017 39.7003 27.6422ZM55.2792 11.6941C55.3984 11.4777 55.5652 11.3366 55.7796 11.2707C56.0043 11.2041 56.221 11.2372 56.4296 11.37C56.6478 11.4917 56.7857 11.6551 56.8431 11.8602L56.9688 12.2748C57.0558 12.5928 57.1192 12.8758 57.1591 13.1237C57.1981 13.3613 57.2638 13.879 57.3561 14.6767C57.4164 15.4661 57.4636 16.0841 57.4978 16.5307C57.516 16.7696 57.5355 17.024 57.5561 17.2941C57.5897 17.1876 57.6242 17.0914 57.6594 17.0057C57.9518 16.0476 58.2649 15.2918 58.5986 14.7381C58.9636 14.1825 59.2469 13.7886 59.4485 13.5565C59.7109 13.2997 60.1089 13.0394 60.6424 12.7756C61.1567 12.534 61.5478 12.3889 61.8157 12.3404C62.0236 12.3271 62.2367 12.3135 62.455 12.2995C62.7373 12.3024 63.1222 12.4186 63.6098 12.6484C64.1199 12.8975 64.5562 13.2766 64.919 13.7857C65.2338 14.2144 65.5636 14.9082 65.9085 15.8673C66.259 16.7633 66.5041 17.4417 66.6438 17.9024C66.7627 18.3645 66.9678 19.0663 67.2591 20.0079C67.5208 20.9722 67.7283 21.7731 67.8814 22.4104C68.0114 23.0178 68.1314 23.6312 68.2414 24.2504C68.361 24.8585 68.4387 25.2606 68.4746 25.4566C68.4873 25.6228 68.512 25.8091 68.5487 26.0155L68.5737 26.3426C68.6127 26.5802 68.5554 26.7874 68.4018 26.9642C68.2586 27.1404 68.0678 27.2413 67.8295 27.267C67.6016 27.292 67.3877 27.2274 67.1879 27.0732C66.9993 26.9287 66.8858 26.7429 66.8476 26.5157L66.8262 26.2353C66.7895 26.0289 66.7644 25.8374 66.7509 25.6608C66.7174 25.496 66.6569 25.1137 66.5693 24.5139C66.4632 23.9467 66.3456 23.3645 66.2164 22.7674C66.0656 22.1612 65.8558 21.3971 65.5868 20.475C65.3059 19.5327 65.1068 18.841 64.9895 18.3997C64.8514 17.9597 64.6191 17.3118 64.2925 16.456C63.99 15.6404 63.732 15.0672 63.5187 14.7364C63.3325 14.4874 63.1263 14.3179 62.9001 14.228C62.7034 14.1154 62.5471 14.0523 62.4312 14.0389C62.3273 14.0455 62.2129 14.0528 62.0882 14.0608C61.9858 14.0882 61.7583 14.1863 61.4055 14.355C61.0512 14.5029 60.8264 14.6373 60.7312 14.7582C60.5952 14.8922 60.3831 15.1927 60.095 15.66C59.8037 16.0857 59.5375 16.7028 59.2963 17.5115C59.0376 18.363 58.8905 18.9674 58.8551 19.3245C58.7997 19.6933 58.7726 20.2952 58.7737 21.1301C58.7556 21.9871 58.7684 22.7012 58.8121 23.2725C58.8557 23.8437 58.8795 24.291 58.8833 24.6143C58.9111 24.9779 58.9149 25.3012 58.8947 25.5843C58.8979 25.6258 58.9019 25.6777 58.9066 25.7401C58.9114 25.8024 58.8937 25.9131 58.8537 26.0722C58.8232 26.2203 58.7692 26.3333 58.6915 26.4114C58.6139 26.4894 58.4888 26.56 58.316 26.6233C58.1536 26.6858 57.9422 26.6524 57.6816 26.523C57.5521 26.4686 57.4377 26.4081 57.3386 26.3414C57.2499 26.274 57.1876 26.2101 57.1516 26.1498C57.1149 26.0791 57.0889 26.0129 57.0738 25.9513C57.0586 25.8896 57.0495 25.838 57.0463 25.7965L57.0415 25.7341C56.9322 25.3967 56.8444 25.0683 56.7782 24.749C56.712 24.4297 56.6128 23.8829 56.4805 23.1086C56.3354 22.3038 56.2215 21.5648 56.1387 20.8917C56.0551 20.2082 55.98 19.4302 55.9134 18.5577C55.8499 17.7268 55.801 17.088 55.7669 16.6414C55.7328 16.1948 55.6856 15.5768 55.6252 14.7875C55.5457 14.0202 55.4884 13.5438 55.4533 13.3581C55.4406 13.192 55.3932 12.981 55.311 12.7254L55.2176 12.3243C55.1394 12.1205 55.1599 11.9105 55.2792 11.6941ZM70.3306 9.96388C70.3131 9.73538 70.3168 9.51074 70.3417 9.28997C70.377 9.06853 70.4387 8.85062 70.5268 8.63624C70.6149 8.42186 70.7541 8.26161 70.9445 8.15549C71.1453 8.04871 71.3836 8.02303 71.6594 8.07844C71.747 8.67819 71.8228 9.67009 71.8868 11.0541C71.9604 12.4271 72.0306 13.4142 72.0974 14.0153C72.2333 14.1527 72.4374 14.364 72.7099 14.6493C73.1299 14.4032 73.803 14.0522 74.7292 13.5964C76.6037 13.2468 78.105 13.1403 79.2332 13.2768C79.6944 13.5709 80.0241 13.7846 80.2224 13.9181C80.4206 14.0515 80.7027 14.2578 81.0688 14.5371C81.4341 14.806 81.737 15.0788 81.9775 15.3557C82.2172 15.6221 82.4274 15.9114 82.6079 16.2234C82.7229 16.4978 82.8091 16.8054 82.8665 17.1462C82.9231 17.4765 82.9501 17.7618 82.9475 18.0021C82.9546 18.2312 82.9536 18.5601 82.9446 18.9886C82.9451 19.406 82.9466 19.6982 82.9489 19.865C82.3966 20.8397 81.6385 21.6501 80.6746 22.2963C79.7099 22.932 78.6941 23.378 77.6273 23.6341C76.5596 23.8799 75.4449 23.9877 74.2831 23.9577C73.9337 23.8966 73.6175 23.7916 73.3345 23.6427C73.0515 23.4938 72.807 23.3007 72.6008 23.0634C72.3938 22.8157 72.2129 22.5663 72.0579 22.3153C71.9133 22.0637 71.7807 21.7642 71.6602 21.4171C71.5396 21.0699 71.4431 20.763 71.3705 20.4963C71.2978 20.2296 71.2221 19.9213 71.1431 19.5715C70.638 16.243 70.3672 13.0405 70.3306 9.96388ZM72.6547 16.7976C72.7576 18.6906 72.8764 20.1077 73.011 21.0489C73.1205 21.1149 73.2879 21.2555 73.5133 21.4707C73.7379 21.6755 73.9485 21.8343 74.1451 21.9469C74.3417 22.0596 74.5544 22.1086 74.7831 22.094C75.4732 22.102 76.1429 22.0487 76.7922 21.9341C77.4512 21.8085 78.0946 21.6159 78.7224 21.3566C79.3607 21.0966 79.9066 20.7224 80.3603 20.2342C80.8236 19.7348 81.139 19.1458 81.3065 18.4671C81.2548 17.9277 81.2138 17.5285 81.1836 17.2695C81.1357 17.1891 81.0398 17.0282 80.896 16.7869C80.7514 16.5353 80.6552 16.3692 80.6072 16.2888C80.0854 15.7481 79.4607 15.3654 78.7332 15.1406C78.0161 14.9151 77.2952 14.8464 76.5707 14.9345C75.8454 15.0122 75.1349 15.2143 74.439 15.5406C73.7536 15.8663 73.1588 16.2853 72.6547 16.7976ZM84.9303 7.24492C85.0263 7.27009 85.1494 7.30918 85.2997 7.36219C85.4596 7.40414 85.6307 7.45582 85.8129 7.51721C86.0048 7.56756 86.1379 7.60079 86.2123 7.61691C86.5665 9.10763 86.8466 10.7231 87.0527 12.4634C87.258 14.1933 87.3895 15.7765 87.447 17.2132C87.5038 18.6394 87.5348 20.2761 87.5402 22.1231C87.2723 22.1716 86.6505 22.3053 85.6749 22.5243C85.6098 21.6726 85.5823 20.8341 85.5923 20.009C85.7488 19.0492 85.8142 17.9908 85.7884 16.834C85.7627 15.6771 85.6762 14.6128 85.5288 13.6411C85.3918 12.6688 85.2637 11.6072 85.1444 10.4563C85.0243 9.29503 84.953 8.22457 84.9303 7.24492ZM89.8959 9.47907C89.9944 9.26403 90.1504 9.11836 90.3639 9.04208C90.5878 8.96512 90.8081 8.97712 91.0248 9.07807C91.2518 9.17835 91.4048 9.33555 91.4839 9.54968L91.6431 9.9935C91.7765 10.3711 91.8418 10.8158 91.8391 11.3274C91.8508 11.7545 91.8908 12.4147 91.9591 13.308C92.005 14.1817 92.0398 14.7744 92.0636 15.086C92.109 15.4067 92.156 15.7481 92.2046 16.1103C92.2141 16.2349 92.2368 16.3952 92.2727 16.5913C92.3376 16.3471 92.4149 16.0603 92.5047 15.731C92.7218 14.8821 92.9737 14.1459 93.2604 13.5222C93.5574 12.8978 93.8051 12.4488 94.0036 12.1752C94.1708 11.9035 94.4613 11.5353 94.875 11.0705C95.3263 10.5511 95.7551 10.1479 96.1615 9.86094C96.5662 9.55324 96.9674 9.33448 97.3649 9.20468C97.7815 9.05277 98.1518 8.97689 98.4757 8.97704C98.8203 8.97586 99.1869 9.05678 99.5754 9.21979C99.9535 9.38346 100.235 9.57942 100.419 9.80766C100.581 10.0061 100.816 10.419 101.125 11.0463C101.378 11.625 101.554 12.0834 101.653 12.4215C101.742 12.7603 101.862 13.2431 102.015 13.87C102.075 14.1062 102.138 14.3266 102.206 14.531C102.303 14.1595 102.489 13.657 102.765 13.0236C103.073 12.2732 103.311 11.7623 103.478 11.4906C103.645 11.2086 103.876 10.8807 104.171 10.507C104.505 10.0994 104.801 9.79867 105.058 9.60481C105.323 9.37912 105.643 9.20204 106.02 9.07356C106.52 8.91633 107.045 8.95578 107.596 9.1919C108.125 9.41896 108.549 9.7676 108.867 10.2378C109.085 10.6309 109.252 10.9699 109.368 11.2547C109.451 11.5311 109.587 12.0704 109.773 12.8726C109.982 13.6942 110.117 14.2961 110.178 14.6784C110.248 15.0497 110.353 15.6066 110.493 16.3491C110.613 17.0929 110.713 17.7179 110.793 18.2242C110.874 18.7305 110.933 19.2381 110.972 19.747C111.03 20.2338 111.084 20.6584 111.132 21.0205C111.181 21.3827 111.222 21.6463 111.255 21.8111L111.307 22.074C111.346 22.3115 111.299 22.5232 111.167 22.7091C111.035 22.895 110.851 23.006 110.613 23.0421C110.386 23.0775 110.173 23.0285 109.975 22.895C109.786 22.7505 109.663 22.5654 109.604 22.3395L109.586 22.1058C109.551 21.9202 109.498 21.6366 109.427 21.2549C109.376 20.872 109.316 20.4166 109.244 19.8889C109.207 19.4008 109.148 18.9139 109.07 18.4284C108.991 17.9429 108.893 17.3439 108.776 16.6312C108.658 15.9081 108.563 15.3558 108.492 14.9741C108.423 14.6133 108.29 14.0425 108.095 13.2618C107.91 12.4804 107.778 11.9878 107.7 11.7841C107.646 11.6206 107.546 11.4026 107.399 11.1301C107.303 10.9693 107.153 10.8484 106.949 10.7676C106.797 10.6938 106.69 10.6693 106.63 10.6941C106.446 10.7476 106.29 10.8306 106.163 10.9431C105.985 11.0797 105.777 11.2966 105.539 11.5936C105.26 11.9141 105.061 12.1825 104.942 12.3989C104.822 12.6049 104.621 13.0457 104.338 13.7213C104.055 14.3866 103.882 14.8569 103.819 15.1323C103.759 15.4388 103.679 15.8979 103.58 16.5096C103.49 17.1103 103.427 17.7301 103.393 18.369C103.344 19.1027 103.315 19.5429 103.306 19.6896C103.282 19.9312 103.238 20.2367 103.172 20.6062C103.117 20.9751 103.074 21.2439 103.046 21.4128C103.025 21.4141 103.005 21.4258 102.986 21.4479C102.966 21.47 102.922 21.499 102.851 21.5348C102.781 21.5706 102.705 21.6067 102.624 21.6432C102.554 21.679 102.468 21.7159 102.367 21.7537C102.265 21.7915 102.168 21.8186 102.075 21.8349C101.993 21.8506 101.91 21.8612 101.827 21.8665C101.744 21.8718 101.664 21.8612 101.589 21.8347C101.514 21.8082 101.448 21.7655 101.391 21.7065C101.345 21.6468 101.318 21.5651 101.31 21.4612C101.297 21.295 101.285 21.2071 101.274 21.1973C101.262 21.1772 101.265 21.1457 101.283 21.1029C101.3 21.06 101.321 20.996 101.346 20.9109C101.374 20.7213 101.388 20.496 101.389 20.235C101.388 19.9532 101.37 19.5787 101.334 19.1113C101.278 18.6452 101.196 18.1286 101.09 17.5613C100.962 16.9746 100.841 16.4239 100.729 15.9093C100.629 15.4251 100.504 14.8747 100.352 14.2582C100.2 13.6313 100.077 13.1851 99.9835 12.9197C99.9221 12.6627 99.7776 12.2754 99.55 11.7576C99.3719 11.3411 99.2313 11.0735 99.1282 10.9549C99.0835 10.916 98.9951 10.8538 98.8633 10.7683C98.7337 10.714 98.6118 10.6905 98.4975 10.6978C98.3919 10.6837 98.228 10.7255 98.0056 10.8232C97.7297 10.9035 97.4486 11.0519 97.1622 11.2685C96.875 11.4748 96.559 11.782 96.2141 12.1903C95.8189 12.6226 95.5568 12.9525 95.4279 13.1799C95.2951 13.3554 95.103 13.7121 94.8516 14.2501C94.6002 14.788 94.3731 15.4392 94.1704 16.2037C93.9485 16.9902 93.8134 17.5468 93.7652 17.8735C93.7243 18.1579 93.6652 18.6835 93.588 19.4504C93.5428 20.2256 93.5161 20.7648 93.5079 21.068C93.499 21.3609 93.502 21.7416 93.5169 22.2103C93.5318 22.6791 93.5468 23.0121 93.5619 23.2094C93.5651 23.251 93.5738 23.2974 93.5882 23.3486C93.6026 23.3999 93.6261 23.5028 93.6588 23.6572C93.6907 23.8013 93.6678 23.9124 93.5902 23.9904C93.523 24.0678 93.4194 24.1475 93.2794 24.2295C93.1395 24.3115 92.9052 24.3213 92.5766 24.2588C92.144 24.203 91.8642 24.0956 91.7372 23.9368C91.6093 23.7675 91.5926 23.6172 91.687 23.486L91.7975 23.291C91.7569 23.0327 91.719 22.8107 91.6839 22.6251C91.6473 22.4187 91.5747 22.0163 91.4663 21.4179C91.3579 20.8194 91.2654 20.3609 91.1888 20.0423C91.1219 19.7126 91.0023 19.1044 90.83 18.2178C90.6578 17.3313 90.5466 16.6965 90.4965 16.3135C90.4479 15.9513 90.4001 15.5995 90.3532 15.2581C90.327 14.9153 90.2897 14.2915 90.2415 13.3866C90.1716 12.4726 90.1296 11.7864 90.1155 11.3281C90.1117 11.0047 90.0811 10.7406 90.0236 10.5355L89.8679 10.1384C89.7873 9.90351 89.7966 9.68373 89.8959 9.47907ZM22.1533 49.822L22.3618 50.0905C22.4545 50.2098 22.6791 50.3467 23.0357 50.5014C23.4386 50.7156 24.023 50.9131 24.7889 51.0937C25.5364 51.3068 26.0629 51.4297 26.3683 51.4623C26.6842 51.4943 27.1703 51.4997 27.8268 51.4786C28.4209 51.4614 29.0439 51.3433 29.6957 51.1241C30.3675 50.8933 30.7826 50.7206 30.941 50.6061C31.0994 50.4916 31.3535 50.1935 31.7032 49.7119C32.0329 49.242 32.249 48.7898 32.3516 48.3553C32.4407 47.88 32.4757 47.5176 32.4566 47.2684C32.4384 47.0295 32.2428 46.4523 31.8699 45.5368C31.473 44.5811 31.1935 43.9989 31.0313 43.7901C30.8451 43.541 30.5222 43.2121 30.0627 42.8031C29.6039 42.4045 29.1947 42.1072 28.835 41.911C28.4969 41.7239 28.0835 41.5781 27.595 41.4737C27.1057 41.3589 26.7571 41.3081 26.5492 41.3214C26.3517 41.3341 25.9442 41.4697 25.3268 41.7284C24.7501 41.9741 24.2738 42.302 23.8977 42.7123C23.4801 43.1252 23.2032 43.4664 23.0671 43.7361C22.9222 44.0271 22.7328 44.6237 22.4988 45.5259C22.2448 46.4397 22.1084 47.1164 22.0898 47.556C22.0704 47.9851 22.0915 48.7405 22.1533 49.822ZM22.2923 52.0519C22.3122 52.3115 22.3389 52.5238 22.3723 52.6886C22.432 53.1962 22.5376 53.894 22.689 54.7819C22.8452 55.7321 23.0018 56.6197 23.1589 57.4446C23.3055 58.2702 23.4007 58.833 23.4446 59.1328C23.4868 59.4119 23.5357 59.7793 23.5915 60.235C23.6464 60.6803 23.6798 60.9808 23.6917 61.1366L23.7084 61.3547C23.7266 61.5936 23.6537 61.8018 23.4897 61.9793C23.3361 62.1561 23.1397 62.2522 22.9006 62.2675C22.6719 62.2821 22.4681 62.2117 22.289 62.0561C22.11 61.9006 22.0114 61.7034 21.9931 61.4645L21.9765 61.2464C21.9669 61.1217 21.9351 60.842 21.881 60.4071C21.8276 59.9826 21.7751 59.6363 21.7232 59.3682C21.681 59.0891 21.5866 58.5368 21.4399 57.7112C21.2917 56.8648 21.141 55.9873 20.988 55.0786C20.8319 54.1284 20.7231 53.3891 20.6619 52.8607C20.6117 52.4778 20.5581 51.9124 20.5009 51.1645C20.4779 50.8633 20.4521 50.5258 20.4235 50.1519C20.3675 48.8717 20.3504 47.9647 20.3723 47.431C20.3942 46.8973 20.5374 46.1054 20.8018 45.0552C21.0879 44.014 21.3314 43.3044 21.5323 42.9262C21.742 42.5266 22.1029 42.0547 22.615 41.5106C23.1463 40.9443 23.8266 40.4833 24.656 40.1275C25.4454 39.7952 26.0224 39.6226 26.3871 39.6097C26.7701 39.5643 27.291 39.6145 27.9498 39.7602C28.6086 39.9059 29.1886 40.1141 29.6899 40.3847C30.1599 40.6573 30.6594 41.0428 31.1885 41.5412C31.7367 42.0176 32.1271 42.4101 32.3596 42.7187C32.6457 43.0449 33.0143 43.7675 33.4655 44.8868C33.9382 46.015 34.1745 46.7827 34.1742 47.1898C34.2036 47.5741 34.1585 48.0779 34.039 48.7014C33.9043 49.3989 33.6057 50.0703 33.1431 50.7157C32.679 51.3403 32.2837 51.7726 31.9573 52.0127C31.6702 52.2189 31.1095 52.4688 30.2753 52.7622C29.4596 53.0232 28.6559 53.1685 27.8642 53.1983C27.135 53.2241 26.5752 53.2129 26.185 53.1648C25.8053 53.1161 25.1992 52.9774 24.367 52.7489C23.5147 52.5321 22.8231 52.2997 22.2923 52.0519ZM48.605 48.4112C48.4868 48.2309 48.3637 48.0561 48.2359 47.8869C48.0721 47.6573 47.8871 47.4239 47.681 47.1866C47.4964 46.9583 47.072 46.5993 46.4078 46.1095C45.8195 45.6566 45.4347 45.4047 45.2532 45.3536C45.1029 45.3006 44.8266 45.3079 44.4244 45.3754C43.9805 45.4455 43.5927 45.5643 43.2607 45.7316C42.8872 45.9017 42.602 46.066 42.4052 46.2247C42.218 46.3724 42.0472 46.5294 41.8928 46.6959C41.7552 46.8091 41.5712 47.0661 41.3406 47.467C41.0893 47.8693 40.9388 48.1555 40.8892 48.3257C40.8411 48.5166 40.7974 48.7647 40.758 49.0699C40.7394 49.3738 40.7469 49.6081 40.7804 49.773C40.7931 49.9392 40.8769 50.2156 41.0318 50.6023C41.1843 50.9578 41.3345 51.2144 41.4824 51.3719C41.6646 51.569 41.8368 51.7041 41.9991 51.7772C42.1525 51.8718 42.3164 51.9656 42.4907 52.0589C42.6745 52.141 42.9636 52.2321 43.3577 52.3322C43.7087 52.4141 44.0093 52.4522 44.2596 52.4467C44.5403 52.4287 44.7714 52.3774 44.953 52.2927C45.1577 52.2379 45.3652 52.1515 45.5756 52.0337C45.7964 51.9152 46.0207 51.7756 46.2487 51.6149C46.4263 51.4783 46.7552 51.1337 47.2352 50.5811C47.6834 50.0201 47.9538 49.6636 48.0467 49.5115C48.1379 49.3387 48.2192 49.1717 48.2904 49.0106C48.3937 48.8579 48.4985 48.6581 48.605 48.4112ZM50.1675 49.1723C50.0402 49.4205 49.9405 49.62 49.8685 49.7707C49.798 49.9422 49.6931 50.142 49.5539 50.3701C49.4266 50.6183 49.0953 51.0674 48.56 51.7175C48.0143 52.3682 47.5878 52.8025 47.2806 53.0205C46.9935 53.2267 46.6991 53.4073 46.3976 53.5623C46.1072 53.727 45.8197 53.8602 45.5349 53.9619C45.219 54.0657 44.848 54.1311 44.4218 54.1584C43.9763 54.2078 43.4814 54.156 42.937 54.0029C42.4373 53.8888 42.0571 53.767 41.7965 53.6375C41.5471 53.5178 41.2961 53.3773 41.0435 53.2161C40.7917 53.0652 40.5288 52.8367 40.2547 52.5307C39.927 52.2072 39.659 51.7756 39.4506 51.2358C39.2438 50.7167 39.1125 50.2972 39.0567 49.9772C39.0129 49.6773 39.0115 49.3173 39.0525 48.8972C39.1047 48.4868 39.1713 48.1277 39.2522 47.8198C39.3332 47.512 39.5257 47.0926 39.8299 46.5617C40.1356 46.0516 40.4149 45.6737 40.6677 45.4279C40.8925 45.2256 41.1337 45.0328 41.3913 44.8493C41.6585 44.6548 42.0073 44.4341 42.4376 44.1874C42.9311 43.9471 43.4973 43.77 44.1363 43.656C44.7864 43.5518 45.3202 43.5646 45.7375 43.6945C46.1109 43.7958 46.708 44.1594 47.5288 44.7853C47.3731 44.3882 47.2494 44.0674 47.1575 43.8228C47.005 43.4672 46.7882 43.0219 46.507 42.4867C46.2066 41.9736 45.9514 41.5725 45.7413 41.2832C45.5311 40.994 45.2986 40.7532 45.0436 40.5607C44.8422 40.3858 44.4657 40.175 43.9141 39.9285C43.3625 39.682 42.8912 39.5295 42.5002 39.471C42.0693 39.436 41.7231 39.4164 41.4616 39.4122C41.2017 39.4289 40.9478 39.4555 40.6999 39.4923C40.4936 39.5264 40.1185 39.6756 39.5746 39.94C39.1819 40.1322 38.9275 40.2893 38.8115 40.4116L38.6434 40.6728C38.5329 40.8677 38.3602 40.9988 38.125 41.0661C37.8995 41.1222 37.6776 41.0895 37.4594 40.9678C37.2508 40.835 37.1117 40.656 37.0423 40.4308C36.9825 40.1946 37.0234 39.978 37.165 39.7811L37.3307 39.4887C37.5436 39.1306 38.0276 38.7657 38.7826 38.3938C39.4873 38.0461 40.0304 37.8391 40.4118 37.7729C40.7325 37.7315 41.0591 37.7002 41.3918 37.6789C41.7364 37.6777 42.177 37.7017 42.7135 37.7509C43.2724 37.8195 43.9036 38.014 44.6071 38.3342C45.3106 38.6545 45.8305 38.9657 46.167 39.2677C46.4915 39.5496 46.8088 39.8737 47.1188 40.2401C47.4081 40.6077 47.7112 41.0893 48.0283 41.6848C48.3558 42.2797 48.5982 42.786 48.7555 43.2039C48.9112 43.601 49.1216 44.1668 49.3867 44.9013C49.6517 45.6358 49.8421 46.1455 49.9579 46.4303C50.0849 46.7249 50.203 47.0409 50.3124 47.3783C50.4314 47.7047 50.5168 47.934 50.5687 48.0664L50.5711 48.0976C50.6877 48.2571 50.6744 48.4928 50.5311 48.8046L50.1675 49.1723ZM56.1322 32.2895C56.7768 32.1125 57.8879 32.0258 59.4656 32.0292C61.0424 32.0222 62.1559 31.9667 62.8061 31.8624C63.0148 31.8595 63.2619 31.8124 63.5474 31.7211C63.8321 31.6193 64.0757 31.5255 64.278 31.4395C64.49 31.3424 64.7227 31.3119 64.9761 31.3478C65.2392 31.3728 65.4726 31.4883 65.6764 31.6944C65.6474 32.1346 65.6179 32.5697 65.5881 32.9995C64.9307 33.1459 64.1874 33.2613 63.3582 33.3457C62.5289 33.4301 61.776 33.4887 61.0995 33.5215C60.4334 33.5537 59.6858 33.612 58.8565 33.6964C59.4487 34.2012 60.0234 34.7489 60.5804 35.3395C61.1477 35.9294 61.7159 36.5976 62.2848 37.344C62.8641 38.0897 63.3295 38.7123 63.6811 39.2116C64.0422 39.6999 64.5336 40.3887 65.1552 41.2778C65.8375 42.2778 66.3804 43.6417 66.7841 45.3693C67.5365 46.8763 67.2287 48.7277 65.8609 50.9235C65.339 52.0215 64.5932 52.9251 63.6237 53.6342C62.6541 54.3434 61.6061 54.6401 60.4795 54.5243C59.7503 54.4144 59.0431 54.183 58.3581 53.8303C57.6842 53.4872 57.0771 53.0616 56.5369 52.5534C55.9966 52.0453 55.5188 51.4653 55.1034 50.8134C54.6879 50.1616 54.3697 49.4827 54.1486 48.7767C53.9275 48.0707 53.8092 47.3424 53.7936 46.5919C53.7772 45.8311 53.8836 45.1041 54.1127 44.411C54.6523 43.2701 55.3793 42.2582 56.2938 41.3751C57.2074 40.4817 58.2369 39.8052 59.3822 39.3458C60.2605 38.9452 61.2093 38.7853 62.2288 38.8662C61.7483 38.5942 61.2899 38.2687 60.8536 37.8896C60.4276 37.5098 59.9365 37.0298 59.3803 36.4496C58.8233 35.859 58.4321 35.4561 58.2067 35.2409C58.0813 35.1028 57.8719 34.8918 57.5786 34.6079C57.2957 34.3233 57.0691 34.0926 56.8989 33.9156C56.7279 33.7282 56.5633 33.4883 56.4052 33.1957C56.2462 32.8928 56.1552 32.5907 56.1322 32.2895ZM55.42 46.5505C55.4876 47.2976 55.6747 48.0371 55.9813 48.769C56.2983 49.5002 56.7046 50.1683 57.2 50.7732C57.6946 51.3678 58.2904 51.8515 58.9875 52.2244C59.6941 52.5863 60.4341 52.7685 61.2073 52.7712C61.4856 52.7221 61.7555 52.6318 62.0171 52.5002C62.2794 52.3791 62.5098 52.2495 62.7082 52.1116C62.9066 51.9736 63.1118 51.7883 63.3238 51.5556C63.5462 51.3221 63.7239 51.1177 63.8567 50.9422C63.9999 50.766 64.1648 50.5311 64.3513 50.2374C64.5369 49.9332 64.6758 49.6999 64.7679 49.5375C64.8695 49.364 65.0072 49.1151 65.1809 48.7909C65.2457 48.6824 65.2917 48.6012 65.319 48.5472C65.3635 47.4902 65.1946 46.4417 64.8122 45.4015C64.4402 44.3608 63.9051 43.2365 63.2069 42.0287C63.0375 41.7264 62.7898 41.4918 62.4636 41.3248C62.1471 41.1467 61.7798 40.9876 61.3616 40.8473C60.9539 40.7064 60.6449 40.5592 60.4347 40.4057C59.9052 40.7213 59.4369 41.0175 59.0297 41.294C58.6321 41.5595 58.1934 41.9007 57.7133 42.3176C57.2429 42.7234 56.8509 43.1295 56.5372 43.5357C56.2331 43.9309 55.971 44.3965 55.7508 44.9324C55.5402 45.4573 55.4299 45.9967 55.42 46.5505ZM79.3377 50.9379C79.208 51.155 79.0141 51.2822 78.7558 51.3196L78.2615 51.4138C77.8401 51.5034 77.3023 51.5065 76.6483 51.4231C76.0062 51.3598 75.4094 51.2049 74.8578 50.9584C74.3494 50.73 73.9245 50.5015 73.5832 50.2729C73.2187 50.0144 72.7664 49.5632 72.2262 48.9194C71.6877 48.2963 71.3041 47.7885 71.0757 47.3961C70.856 46.9822 70.6533 46.2437 70.4676 45.1806C70.2635 44.1499 70.1748 43.3989 70.2014 42.9275C70.252 42.4963 70.3799 41.9141 70.585 41.1808C70.7998 40.4365 71.0384 39.8002 71.301 39.272C71.5732 38.7327 71.8385 38.3087 72.0969 37.9999C72.3754 37.6794 72.7954 37.2977 73.357 36.8547C73.9601 36.409 74.7032 36.0849 75.5861 35.8823C76.4482 35.681 77.0835 35.5882 77.4921 35.6038C77.8815 35.6415 78.4512 35.7825 79.2011 36.0267C79.931 36.2827 80.4714 36.5195 80.8223 36.7371C81.1828 36.9436 81.5668 37.253 81.9744 37.6653C82.382 38.0776 82.6828 38.4602 82.8769 38.8131C83.0934 39.1854 83.321 39.771 83.5596 40.5698C83.7862 41.3485 83.9142 42.0657 83.9434 42.7214C83.9902 43.3342 83.9987 43.8555 83.9689 44.2853C83.9598 44.7138 83.8643 45.3097 83.6824 46.0728C83.502 46.8567 83.285 47.502 83.0312 48.0088C82.7478 48.5383 82.3581 49.0434 81.8621 49.5239C81.3661 50.0045 80.9625 50.3277 80.6513 50.4938C80.3602 50.6481 79.9223 50.7961 79.3377 50.9379ZM75.3757 49.3284C75.6213 49.1248 75.8936 49.0656 76.1926 49.1509L76.6903 49.3069C76.9565 49.3734 77.2472 49.4174 77.5622 49.439C77.8652 49.4405 78.2739 49.3882 78.7881 49.2823C79.3023 49.1763 79.6394 49.0764 79.7994 48.9827C79.9802 48.8877 80.2653 48.6554 80.655 48.2861C81.0358 47.9382 81.3163 47.5758 81.4964 47.199C81.6765 46.8221 81.8411 46.3106 81.9902 45.6644C82.1481 44.9968 82.2356 44.5006 82.2526 44.176C82.2679 43.8306 82.259 43.3719 82.2257 42.8C82.1853 42.2703 82.0721 41.6774 81.8861 41.0213C81.7114 40.375 81.5525 39.9363 81.4095 39.7054C81.2649 39.4537 81.04 39.1759 80.7347 38.8719C80.4286 38.5575 80.1553 38.3297 79.9147 38.1885C79.6837 38.0363 79.2632 37.8649 78.6532 37.6743C78.0632 37.472 77.6366 37.3584 77.3736 37.3335C77.1329 37.328 76.6787 37.3988 76.0109 37.5459C75.3847 37.6904 74.8545 37.9278 74.4201 38.2583C73.9561 38.6115 73.6377 38.8876 73.4649 39.0866C73.2936 39.3063 73.0943 39.6373 72.867 40.0798C72.6388 40.5119 72.429 41.0472 72.2376 41.6857C72.0557 42.3131 71.9559 42.7839 71.9381 43.0982C71.9195 43.4021 71.986 43.9979 72.1374 44.8859C72.308 45.7517 72.4716 46.3205 72.6282 46.5922C72.7759 46.8855 73.0732 47.2891 73.5199 47.8033C73.9673 48.3278 74.313 48.6815 74.5568 48.8642C74.7678 49.0281 75.0407 49.1828 75.3757 49.3284ZM86.9339 35.7198C87.0324 35.5047 87.1884 35.3591 87.402 35.2828C87.6259 35.2058 87.8462 35.2178 88.0628 35.3188C88.2899 35.4191 88.4429 35.5763 88.5219 35.7904L88.6812 36.2342C88.8145 36.6119 88.8798 37.0565 88.8772 37.5681C88.8889 37.9952 88.9289 38.6554 88.9972 39.5487C89.043 40.4225 89.0779 41.0151 89.1017 41.3267C89.1471 41.6474 89.1941 41.9888 89.2426 42.351C89.2522 42.4756 89.2749 42.636 89.3107 42.832C89.3757 42.5878 89.453 42.301 89.5427 41.9717C89.7599 41.1228 90.0118 40.3866 90.2984 39.7629C90.5954 39.1385 90.8432 38.6895 91.0416 38.4159C91.2089 38.1442 91.4994 37.776 91.913 37.3112C92.3643 36.7918 92.7931 36.3886 93.1995 36.1017C93.6043 35.7939 94.0054 35.5752 94.4029 35.4454C94.8196 35.2935 95.1899 35.2176 95.5137 35.2178C95.8584 35.2166 96.2249 35.2975 96.6135 35.4605C96.9916 35.6242 97.2729 35.8201 97.4575 36.0484C97.6189 36.2468 97.8542 36.6597 98.1633 37.287C98.4164 37.8657 98.5925 38.3241 98.6914 38.6622C98.78 39.001 98.9005 39.4838 99.0528 40.1107C99.1127 40.3469 99.1765 40.5673 99.2444 40.7717C99.3413 40.4002 99.5275 39.8977 99.803 39.2643C100.111 38.514 100.349 38.003 100.516 37.7313C100.683 37.4493 100.914 37.1214 101.209 36.7477C101.543 36.3401 101.839 36.0394 102.096 35.8455C102.361 35.6198 102.681 35.4427 103.058 35.3143C103.558 35.157 104.083 35.1965 104.634 35.4326C105.163 35.6597 105.587 36.0083 105.905 36.4785C106.123 36.8716 106.29 37.2106 106.406 37.4954C106.489 37.7718 106.625 38.3111 106.811 39.1133C107.02 39.9349 107.155 40.5368 107.216 40.9191C107.286 41.2904 107.391 41.8473 107.531 42.5898C107.651 43.3336 107.751 43.9586 107.831 44.4649C107.912 44.9712 107.972 45.4788 108.01 45.9877C108.068 46.4746 108.122 46.8991 108.17 47.2613C108.219 47.6235 108.26 47.887 108.293 48.0518L108.345 48.3147C108.384 48.5522 108.337 48.764 108.205 48.9498C108.073 49.1357 107.889 49.2467 107.651 49.2828C107.424 49.3182 107.211 49.2692 107.013 49.1357C106.824 48.9912 106.701 48.8061 106.642 48.5802L106.624 48.3465C106.589 48.1609 106.536 47.8773 106.465 47.4956C106.415 47.1127 106.354 46.6573 106.282 46.1296C106.245 45.6415 106.187 45.1546 106.108 44.6691C106.029 44.1836 105.931 43.5846 105.814 42.8719C105.696 42.1488 105.601 41.5965 105.53 41.2149C105.461 40.854 105.329 40.2832 105.133 39.5025C104.948 38.7211 104.816 38.2285 104.738 38.0248C104.684 37.8613 104.584 37.6433 104.437 37.3708C104.342 37.21 104.191 37.0891 103.987 37.0083C103.835 36.9345 103.728 36.91 103.668 36.9348C103.484 36.9883 103.328 37.0713 103.201 37.1838C103.023 37.3204 102.815 37.5373 102.577 37.8343C102.298 38.1548 102.1 38.4233 101.98 38.6396C101.86 38.8456 101.659 39.2864 101.376 39.9621C101.093 40.6273 100.92 41.0976 100.857 41.373C100.797 41.6795 100.717 42.1386 100.618 42.7503C100.528 43.351 100.466 43.9708 100.431 44.6097C100.382 45.3434 100.353 45.7836 100.344 45.9303C100.32 46.1719 100.276 46.4774 100.21 46.8469C100.155 47.2158 100.113 47.4846 100.084 47.6535C100.063 47.6548 100.043 47.6665 100.024 47.6886C100.004 47.7107 99.9597 47.7397 99.8893 47.7755C99.8189 47.8113 99.7433 47.8475 99.6625 47.8839C99.5921 47.9198 99.5061 47.9566 99.4046 47.9944C99.303 48.0322 99.2058 48.0593 99.1131 48.0757C99.0307 48.0914 98.9479 48.1019 98.8648 48.1072C98.7816 48.1125 98.7024 48.1019 98.6273 48.0754C98.5521 48.0489 98.4862 48.0062 98.4295 47.9472C98.3831 47.8875 98.356 47.8058 98.348 47.7019C98.3353 47.5357 98.3234 47.4478 98.3122 47.438C98.3002 47.4179 98.303 47.3864 98.3207 47.3436C98.3383 47.3007 98.3595 47.2367 98.3843 47.1516C98.4116 46.962 98.4258 46.7367 98.4267 46.4757C98.4261 46.194 98.4079 45.8194 98.3722 45.352C98.3157 44.8859 98.2344 44.3693 98.1284 43.802C98 43.2153 97.8795 42.6646 97.7671 42.15C97.6674 41.6658 97.5418 41.1154 97.3902 40.4989C97.2378 39.872 97.115 39.4258 97.0215 39.1605C96.9601 38.9035 96.8156 38.5161 96.588 37.9984C96.4099 37.5818 96.2694 37.3142 96.1663 37.1956C96.1215 37.1567 96.0332 37.0945 95.9013 37.009C95.7718 36.9547 95.6499 36.9312 95.5355 36.9385C95.43 36.9244 95.266 36.9662 95.0437 37.0639C94.7678 37.1442 94.4866 37.2926 94.2002 37.5093C93.9131 37.7155 93.597 38.0227 93.2522 38.431C92.8569 38.8633 92.5948 39.1932 92.466 39.4206C92.3331 39.5961 92.141 39.9529 91.8896 40.4908C91.6383 41.0287 91.4112 41.6799 91.2085 42.4444C90.9865 43.2309 90.8515 43.7875 90.8033 44.1142C90.7624 44.3986 90.7033 44.9242 90.6261 45.6911C90.5809 46.4663 90.5542 47.0056 90.546 47.3088C90.537 47.6016 90.54 47.9823 90.5549 48.4511C90.5699 48.9198 90.5849 49.2528 90.6 49.4501C90.6031 49.4917 90.6119 49.5381 90.6263 49.5894C90.6406 49.6406 90.6642 49.7435 90.6969 49.898C90.7288 50.042 90.7059 50.1531 90.6283 50.2311C90.5611 50.3085 90.4575 50.3882 90.3175 50.4702C90.1775 50.5522 89.9432 50.562 89.6146 50.4995C89.1821 50.4437 88.9023 50.3363 88.7752 50.1775C88.6474 50.0082 88.6307 49.858 88.7251 49.7267L88.8356 49.5317C88.7949 49.2734 88.7571 49.0514 88.722 48.8658C88.6853 48.6594 88.6128 48.257 88.5044 47.6586C88.396 47.0602 88.3035 46.6016 88.2269 46.283C88.1599 45.9533 88.0403 45.3451 87.8681 44.4585C87.6959 43.572 87.5847 42.9372 87.5346 42.5542C87.486 42.192 87.4382 41.8402 87.3912 41.4988C87.365 41.1561 87.3278 40.5322 87.2795 39.6273C87.2097 38.7133 87.1677 38.0271 87.1536 37.5688C87.1498 37.2455 87.1191 36.9813 87.0617 36.7762L86.906 36.3791C86.8253 36.1442 86.8347 35.9244 86.9339 35.7198ZM110.218 33.4627C110.201 33.2342 110.205 33.0096 110.23 32.7888C110.265 32.5674 110.327 32.3495 110.415 32.1351C110.503 31.9207 110.642 31.7605 110.832 31.6543C111.033 31.5476 111.271 31.5219 111.547 31.5773C111.635 32.177 111.711 33.1689 111.775 34.553C111.848 35.926 111.919 36.913 111.985 37.5141C112.121 37.6515 112.325 37.8629 112.598 38.1481C113.018 37.9021 113.691 37.5511 114.617 37.0952C116.492 36.7456 117.993 36.6391 119.121 36.7757C119.582 37.0697 119.912 37.2835 120.11 37.4169C120.309 37.5503 120.591 37.7567 120.957 38.0359C121.322 38.3048 121.625 38.5777 121.865 38.8545C122.105 39.121 122.315 39.4102 122.496 39.7222C122.611 39.9967 122.697 40.3043 122.754 40.645C122.811 40.9754 122.838 41.2607 122.835 41.5009C122.843 41.7301 122.842 42.0589 122.833 42.4874C122.833 42.9049 122.834 43.197 122.837 43.3639C122.285 44.3385 121.526 45.149 120.563 45.7951C119.598 46.4309 118.582 46.8768 117.515 47.133C116.448 47.3787 115.333 47.4866 114.171 47.4566C113.822 47.3954 113.505 47.2904 113.222 47.1415C112.939 46.9926 112.695 46.7995 112.489 46.5622C112.282 46.3145 112.101 46.0652 111.946 45.8142C111.801 45.5625 111.669 45.2631 111.548 44.9159C111.428 44.5688 111.331 44.2619 111.258 43.9951C111.186 43.7284 111.11 43.4202 111.031 43.0703C110.526 39.7419 110.255 36.5394 110.218 33.4627ZM112.543 40.2965C112.646 42.1895 112.764 43.6065 112.899 44.5477C113.008 44.6138 113.176 44.7544 113.401 44.9696C113.626 45.1744 113.836 45.3331 114.033 45.4458C114.23 45.5585 114.442 45.6075 114.671 45.5928C115.361 45.6009 116.031 45.5476 116.68 45.433C117.339 45.3073 117.983 45.1148 118.61 44.8554C119.249 44.5954 119.795 44.2213 120.248 43.733C120.711 43.2337 121.027 42.6447 121.194 41.966C121.143 41.4266 121.102 41.0274 121.072 40.7684C121.024 40.6879 120.928 40.5271 120.784 40.2858C120.639 40.0341 120.543 39.868 120.495 39.7876C119.973 39.247 119.349 38.8642 118.621 38.6394C117.904 38.4139 117.183 38.3453 116.459 38.4334C115.733 38.5111 115.023 38.7131 114.327 39.0394C113.641 39.3651 113.047 39.7841 112.543 40.2965ZM124.818 30.7438C124.914 30.7689 125.037 30.808 125.188 30.861C125.348 30.903 125.519 30.9547 125.701 31.0161C125.893 31.0664 126.026 31.0996 126.1 31.1158C126.454 32.6065 126.735 34.222 126.941 35.9622C127.146 37.6921 127.277 39.2754 127.335 40.712C127.392 42.1383 127.423 43.7749 127.428 45.622C127.16 45.6704 126.538 45.8041 125.563 46.0231C125.498 45.1714 125.47 44.333 125.48 43.5078C125.637 42.548 125.702 41.4897 125.676 40.3328C125.651 39.1759 125.564 38.1117 125.417 37.14C125.28 36.1677 125.152 35.1061 125.032 33.9552C124.912 32.7939 124.841 31.7234 124.818 30.7438ZM28.6928 66.2961C28.4441 66.3225 28.2258 66.2686 28.038 66.1345C27.8597 65.9893 27.7563 65.7977 27.7276 65.5594C27.6982 65.3108 27.7655 65.0978 27.9295 64.9203L28.2404 64.4777C28.4789 64.1806 28.8125 63.7627 29.2414 63.2238C29.7088 62.6407 30.204 62.1498 30.7272 61.751C31.2504 61.3522 31.7019 61.1094 32.0817 61.0225C32.4808 60.9134 33.1173 60.9719 33.9911 61.1977C34.8234 61.4263 35.4342 61.6951 35.8234 62.0042C36.191 62.3042 36.6021 62.8989 37.0566 63.7883C37.5079 64.6362 37.7741 65.3863 37.8553 66.0386C37.9701 66.7201 37.9373 67.385 37.757 68.0332C37.6456 68.4891 37.5115 68.8525 37.3546 69.1235C37.5497 69.2154 37.7299 69.3187 37.8954 69.4333C38.1943 69.6543 38.5483 70.0491 38.9574 70.6178C39.3665 71.1866 39.6644 71.7363 39.8512 72.2671C40.058 72.7862 40.166 73.3794 40.1752 74.0468C40.1861 74.735 40.121 75.2506 39.9801 75.5936C39.8383 75.9262 39.5374 76.3629 39.0773 76.9038C38.6261 77.4232 37.9785 77.903 37.1347 78.3432C36.3116 78.782 35.6686 79.0476 35.2055 79.1398C34.7201 79.2126 33.9573 79.1414 32.9171 78.9262C31.8978 78.7096 31.1706 78.49 30.7358 78.2673C30.3768 78.0815 29.9176 77.8134 29.3581 77.4631C28.7778 77.114 28.3873 76.8572 28.1867 76.6926C27.9069 76.4496 27.6808 76.1562 27.5083 75.8123L27.3226 75.4328C27.2212 75.1993 27.2037 74.9708 27.2702 74.7473C27.3367 74.5239 27.4759 74.3636 27.6879 74.2666C27.9095 74.1585 28.1334 74.1494 28.3596 74.2393C28.5954 74.3181 28.7629 74.4587 28.8619 74.6611L29.0476 75.0406C29.1211 75.1821 29.1966 75.2816 29.2741 75.3393C29.4084 75.4559 29.7333 75.6752 30.2489 75.9971C30.786 76.328 31.2229 76.5766 31.5594 76.7429C31.832 76.8925 32.3881 77.0604 33.2275 77.2468C34.0751 77.4013 34.628 77.4599 34.8863 77.4225C35.1653 77.3837 35.6408 77.1811 36.3127 76.8145C36.9446 76.4714 37.429 76.1117 37.7658 75.7352C38.1019 75.3484 38.2956 75.0803 38.3468 74.9309C38.4189 74.7802 38.4486 74.4861 38.4361 74.0485C38.4212 73.5798 38.3586 73.1715 38.2485 72.8237C38.1167 72.4668 37.8823 72.0643 37.5451 71.6162C37.2303 71.1876 36.995 70.9104 36.8391 70.7847C36.7288 70.7083 36.4454 70.622 35.9889 70.526C35.8609 70.4924 35.7338 70.4692 35.6075 70.4565C35.2132 70.6278 34.8861 70.7218 34.6262 70.7384C34.1792 70.767 33.9442 70.6307 33.9212 70.3295C33.8973 70.0179 33.9831 69.7045 34.1784 69.3894L34.4533 68.8865C34.6877 68.8088 34.9296 68.762 35.1791 68.7461C35.3806 68.6497 35.5458 68.5556 35.6746 68.4639C35.7354 68.4391 35.7746 68.4053 35.7922 68.3624C35.8674 68.2532 35.9671 67.9859 36.0913 67.5605C36.2043 67.1253 36.2345 66.7007 36.182 66.2866C36.1047 65.8218 35.8883 65.246 35.5329 64.559C35.179 63.8928 34.9126 63.4819 34.7336 63.3264C34.5337 63.1722 34.1456 63.0144 33.5692 62.8529C33.0471 62.7193 32.7037 62.6683 32.539 62.6997C32.3758 62.7519 32.1211 62.9039 31.7747 63.1556C31.3891 63.4412 31.0011 63.8314 30.6106 64.326C30.1817 64.8649 29.848 65.2829 29.6095 65.5799L29.2639 65.9778C29.131 66.1533 28.9407 66.2594 28.6928 66.2961ZM49.9972 63.7587C49.9029 63.6186 49.8195 63.4831 49.7468 63.352C49.5574 63.0615 49.1518 62.6752 48.53 62.1931C47.9625 61.7389 47.5825 61.4814 47.3898 61.4206C47.1979 61.3703 46.8837 61.3591 46.4471 61.387C46.0416 61.413 45.7389 61.4845 45.539 61.6017C45.2886 61.743 45.1062 61.8851 44.9918 62.0281C44.8958 62.1386 44.7837 62.3806 44.6555 62.7541C44.5362 63.1062 44.4868 63.4172 44.5075 63.6873C44.5337 64.03 44.5863 64.3085 44.6653 64.5226C44.7228 64.7277 44.8873 65.0355 45.159 65.446C45.4306 65.8566 45.8002 66.2504 46.2678 66.6275C46.7249 67.0053 47.129 67.2352 47.48 67.3171C47.8518 67.3977 48.1972 67.4069 48.5163 67.3447C48.837 67.3033 49.1445 67.1584 49.4389 66.9099C49.7453 66.6816 49.9357 66.5076 50.0101 66.3881C50.063 66.2594 50.1139 65.9691 50.1629 65.5172C50.212 65.0653 50.2365 64.7715 50.2366 64.6358C50.2079 64.5332 50.1732 64.4207 50.1324 64.298L50.0475 64.006C49.9995 63.9256 49.9828 63.8431 49.9972 63.7587ZM51.1464 67.7244C50.972 67.9025 50.7616 68.0882 50.5152 68.2814C49.9936 68.7009 49.4337 68.9612 48.8355 69.0621C48.2686 69.161 47.6869 69.1356 47.0904 68.9859C46.4836 68.8368 45.8521 68.5015 45.1959 67.9799C44.5837 67.4868 44.0934 66.9493 43.7251 66.3675C43.3592 65.8169 43.1272 65.3777 43.029 65.05C42.9301 64.7119 42.8523 64.3098 42.7958 63.8438C42.7361 63.3362 42.808 62.7732 43.0115 62.1548C43.2293 61.5877 43.453 61.1663 43.6827 60.8907C43.9019 60.6158 44.2271 60.3601 44.6582 60.1238C45.087 59.8563 45.6396 59.7061 46.3161 59.6733C46.9278 59.6133 47.4368 59.6433 47.8429 59.7634C48.2371 59.8635 48.8286 60.2222 49.6175 60.8397C50.3744 61.4488 50.8946 61.9687 51.1782 62.3994C51.4499 62.8099 51.6867 63.2436 51.8887 63.7003C52.0173 64.0156 52.1718 64.465 52.3522 65.0484C52.412 65.2846 52.473 65.5364 52.5352 65.8038C52.7762 66.7695 52.9112 67.648 52.9403 68.4393C52.9695 69.2307 52.8958 70.1121 52.7193 71.0836C52.5325 72.0558 52.3618 72.7608 52.2072 73.1986C52.0558 73.678 51.7304 74.3407 51.2309 75.1868C50.7419 76.0322 50.3669 76.5937 50.1061 76.8713C49.8453 77.1489 49.4832 77.4695 49.0201 77.8331C48.5369 78.2085 48.1181 78.4701 47.7638 78.618C47.3887 78.7673 46.9777 78.8562 46.5307 78.8848L46.0005 78.9187C45.7614 78.934 45.5471 78.8643 45.3577 78.7094C45.1787 78.5538 45.0804 78.3618 45.063 78.1333C45.0447 77.8944 45.1124 77.6866 45.266 77.5097C45.4293 77.3219 45.6304 77.2203 45.8695 77.205L46.3685 77.1731C46.6492 77.1551 46.8807 77.109 47.0631 77.0347C47.2958 76.9363 47.5946 76.745 47.9594 76.4607C48.3433 76.1543 48.6218 75.9017 48.7946 75.7027C48.9674 75.5038 49.2763 75.0352 49.7213 74.297C50.1767 73.5582 50.4641 73.0127 50.5835 72.6606C50.7012 72.2878 50.8363 71.6634 50.9887 70.7873C51.1627 69.9203 51.234 69.1434 51.2024 68.4566C51.2057 68.2268 51.187 67.9827 51.1464 67.7244ZM78.7907 63.6697C78.4045 63.6736 78.096 64.0795 77.8652 64.8875C76.2634 69.4884 75.0242 72.6153 74.1477 74.2683C74.054 74.41 73.9392 74.6157 73.8031 74.8853C73.4548 75.6591 73.1086 76.3231 72.7644 76.8774C72.4323 77.4518 72.1706 77.8548 71.9793 78.0862C71.7921 78.3695 71.6516 78.5142 71.5581 78.5202C71.2462 78.5401 71.026 78.4603 70.8973 78.2807C70.7599 78.1225 70.6749 77.8304 70.6424 77.4046C70.6003 76.8541 71.0126 76.0293 71.8792 74.9301C72.7811 73.6095 73.8718 71.4105 75.1514 68.3332C76.3956 65.4773 77.3858 62.9194 78.1219 60.6597C78.1965 60.2687 78.3274 60.0672 78.5145 60.0553C78.6184 60.0486 78.8419 60.1022 79.1849 60.2159C79.4775 60.3537 79.6601 60.4882 79.7328 60.6192C79.8558 60.8618 80.1487 61.8242 80.6115 63.5063C81.4549 66.7504 82.2878 69.3117 83.1103 71.1899C83.9424 73.1928 84.7748 74.5172 85.6077 75.1632C85.9154 75.3627 86.0977 75.492 86.1544 75.5509C86.1752 75.5496 86.1852 75.5438 86.1844 75.5334C86.209 75.8553 86.1537 76.1563 86.0184 76.4364C85.8831 76.7164 85.7502 76.8919 85.6199 76.9629C85.4799 77.0449 85.1396 77.1032 84.599 77.1378C84.3576 76.9862 83.8958 76.4783 83.2134 75.6139C82.3832 74.592 81.2969 71.6556 79.9548 66.8047C79.6133 65.4801 79.3415 64.5895 79.1395 64.1327L79.0102 63.6713L78.7907 63.6697ZM90.5598 67.3786C90.7053 67.3692 90.8516 67.3703 90.9987 67.3818C91.1651 67.3711 91.5145 67.3644 92.0471 67.3617C92.5892 67.3478 92.9798 67.3333 93.2189 67.318C93.458 67.3027 93.6859 67.2777 93.9026 67.2429C94.1186 67.1978 94.5248 67.1144 95.1214 66.9927C95.7092 66.8925 96.0846 66.8163 96.2478 66.7641C96.4213 66.7112 96.6593 66.6125 96.9616 66.4679C97.2343 66.3461 97.4103 66.2566 97.4895 66.1993C97.5471 66.133 97.6283 66.0339 97.7332 65.9019C97.81 65.8135 97.8736 65.6894 97.9241 65.5296C97.9722 65.3387 98.0034 65.201 98.0179 65.1166C98.0115 65.0335 97.9657 64.8433 97.8803 64.5461C97.7949 64.2489 97.7282 64.0601 97.6803 63.9796C97.6116 63.9005 97.4709 63.7686 97.2583 63.5839C97.0553 63.3882 96.8519 63.2551 96.648 63.1846C96.3994 63.0753 96.1848 63.0003 96.0041 62.9597C95.8226 62.9087 95.5171 62.876 95.0878 62.8618C94.6776 62.8254 94.3389 62.8366 94.0718 62.8955C93.8135 62.9329 93.5132 63.0356 93.1709 63.2036C92.8278 63.3612 92.5866 63.4863 92.4474 63.5787C92.3098 63.6918 92.1166 63.8973 91.8677 64.195C91.6181 64.4824 91.3864 64.8677 91.1726 65.3511C90.9292 65.8572 90.7847 66.2213 90.739 66.4434C90.6893 66.6136 90.6296 66.9253 90.5598 67.3786ZM88.7027 67.8888C88.7316 67.7199 88.7593 67.5355 88.7858 67.3355C88.8829 66.6926 88.978 66.2273 89.0709 65.9396C89.1534 65.6525 89.334 65.213 89.6126 64.6211C89.9104 64.0072 90.2213 63.4967 90.5454 63.0898C90.8607 62.7043 91.1315 62.4208 91.3579 62.2394C91.6035 62.0358 91.9586 61.8304 92.4233 61.6232C92.8976 61.405 93.3459 61.2563 93.7682 61.1771C94.1704 61.1096 94.639 61.0901 95.1739 61.1185C95.7088 61.1469 96.115 61.1991 96.3924 61.2753C96.6691 61.3411 96.9741 61.4364 97.3074 61.5612C97.6856 61.7249 98.0433 61.9629 98.3805 62.2753C98.7498 62.5961 98.9943 62.8571 99.1141 63.0581C99.2547 63.2579 99.4009 63.5982 99.5525 64.079C99.6938 64.5605 99.7632 64.9214 99.7606 65.1616C99.7573 65.3914 99.7011 65.6821 99.5922 66.0335C99.4744 66.4063 99.3215 66.7292 99.1335 67.0022C98.9414 67.2232 98.7618 67.4017 98.5946 67.5376C98.417 67.6742 98.1167 67.8448 97.6936 68.0493C97.3185 68.1985 97.0141 68.3172 96.7806 68.4052C96.5567 68.4821 96.1204 68.5831 95.4718 68.7081C94.8649 68.8304 94.427 68.9106 94.1583 68.9487C93.8896 68.9868 93.6202 69.0145 93.3499 69.0317C93.1108 69.047 92.7098 69.0623 92.1468 69.0774C91.5839 69.0926 91.2137 69.1006 91.0361 69.1015C90.869 69.1018 90.7127 69.1066 90.5672 69.1159C90.5048 69.1199 90.4268 69.1248 90.3333 69.1308C90.3252 69.2983 90.3167 69.4607 90.3078 69.6178C90.3029 69.8269 90.349 70.2257 90.4462 70.8144C90.5427 71.3927 90.6188 71.774 90.6747 71.9583C90.7321 72.1634 90.816 72.372 90.9262 72.5841C91.0029 72.7671 91.161 73.0597 91.4007 73.4618C91.6156 73.8134 91.8185 74.077 92.0095 74.2526C92.2357 74.4782 92.4307 74.6379 92.5946 74.7318C92.7273 74.8277 92.9923 74.9464 93.3896 75.088C93.7885 75.2503 94.1423 75.3686 94.4509 75.4428C94.7587 75.5066 95.1109 75.5362 95.5075 75.5317C95.9369 75.546 96.2288 75.5378 96.3831 75.507C96.5079 75.499 96.7466 75.4107 97.0993 75.242C97.4121 75.0967 97.6176 74.9844 97.716 74.9051C97.8136 74.8153 97.8997 74.7107 97.9741 74.5911C98.0485 74.4715 98.1522 74.2562 98.2851 73.945C98.406 73.6137 98.491 73.3578 98.5398 73.1772C98.5879 72.9863 98.6272 72.8167 98.6577 72.6687L98.701 72.4154C98.7243 72.1739 98.83 71.9845 99.018 71.8472C99.2163 71.7092 99.4315 71.6537 99.6633 71.6806C99.9056 71.7069 100.097 71.8199 100.238 72.0196C100.388 72.2083 100.451 72.4182 100.427 72.6494L100.387 72.9494C100.341 73.1611 100.28 73.3946 100.206 73.6499C100.141 73.8941 100.029 74.2143 99.8716 74.6106C99.7154 75.0276 99.5621 75.3453 99.4117 75.5637C99.2708 75.771 99.108 75.9641 98.9232 76.1429C98.7295 76.3432 98.376 76.5693 97.8625 76.8214C97.3466 77.0422 96.9495 77.1772 96.6712 77.2264C96.4129 77.2638 96.0275 77.278 95.5149 77.269C94.9816 77.2614 94.5079 77.2135 94.0937 77.1251C93.6788 77.0264 93.2398 76.8875 92.777 76.7084C92.2701 76.5008 91.8908 76.3215 91.639 76.1707C91.4184 76.0178 91.1563 75.7997 90.8526 75.5165C90.5265 75.2138 90.2193 74.816 89.9309 74.323C89.6353 73.8722 89.4352 73.5093 89.3306 73.2342C89.2068 72.9812 89.1042 72.732 89.0228 72.4867C88.939 72.2103 88.8401 71.7365 88.7261 71.0654C88.6218 70.3832 88.5741 69.8957 88.583 69.6029C88.5824 69.3211 88.5921 69.0387 88.6123 68.7556C88.6075 68.6933 88.6132 68.6303 88.6292 68.5667C88.6244 68.5044 88.6205 68.4524 88.6173 68.4109C88.583 68.2356 88.6115 68.0616 88.7027 67.8888ZM103.027 60.7412C103.125 60.5262 103.281 60.3805 103.495 60.3042C103.719 60.2273 103.939 60.2393 104.156 60.3402C104.383 60.4405 104.536 60.5977 104.615 60.8118L104.774 61.2556C104.907 61.6333 104.973 62.0779 104.97 62.5895C104.982 63.0167 105.022 63.6769 105.09 64.5701C105.136 65.4439 105.171 66.0366 105.195 66.3482C105.24 66.6688 105.287 67.0102 105.335 67.3724C105.345 67.4971 105.368 67.6574 105.404 67.8534C105.468 67.6092 105.546 67.3224 105.636 66.9932C105.853 66.1443 106.105 65.408 106.391 64.7843C106.688 64.1599 106.936 63.7109 107.134 63.4373C107.302 63.1657 107.592 62.7975 108.006 62.3326C108.457 61.8132 108.886 61.41 109.292 61.1231C109.697 60.8154 110.098 60.5966 110.496 60.4668C110.912 60.3149 111.283 60.239 111.607 60.2392C111.951 60.238 112.318 60.3189 112.706 60.4819C113.084 60.6456 113.366 60.8416 113.55 61.0698C113.712 61.2682 113.947 61.6811 114.256 62.3084C114.509 62.8871 114.685 63.3456 114.784 63.6836C114.873 64.0224 114.993 64.5052 115.146 65.1322C115.206 65.3684 115.269 65.5887 115.337 65.7931C115.434 65.4216 115.62 64.9191 115.896 64.2857C116.204 63.5354 116.442 63.0244 116.609 62.7528C116.776 62.4708 117.006 62.1429 117.302 61.7691C117.636 61.3615 117.932 61.0608 118.189 60.867C118.453 60.6413 118.774 60.4642 119.151 60.3357C119.651 60.1785 120.176 60.2179 120.727 60.454C121.256 60.6811 121.68 61.0297 121.998 61.4999C122.216 61.893 122.383 62.232 122.498 62.5168C122.582 62.7933 122.717 63.3326 122.904 64.1347C123.113 64.9563 123.248 65.5583 123.309 65.9406C123.379 66.3118 123.484 66.8687 123.624 67.6112C123.744 68.355 123.844 68.9801 123.924 69.4864C124.005 69.9926 124.064 70.5002 124.103 71.0092C124.161 71.496 124.215 71.9205 124.263 72.2827C124.312 72.6449 124.353 72.9084 124.386 73.0733L124.438 73.3361C124.477 73.5737 124.43 73.7854 124.298 73.9713C124.166 74.1572 123.981 74.2681 123.744 74.3042C123.517 74.3396 123.304 74.2906 123.106 74.1572C122.917 74.0127 122.793 73.8275 122.734 73.6017L122.717 73.368C122.681 73.1824 122.628 72.8987 122.558 72.5171C122.507 72.1341 122.446 71.6788 122.375 71.1511C122.337 70.6629 122.279 70.1761 122.201 69.6906C122.122 69.2051 122.024 68.606 121.906 67.8933C121.789 67.1703 121.694 66.6179 121.623 66.2363C121.554 65.8754 121.421 65.3046 121.226 64.5239C121.041 63.7425 120.909 63.25 120.831 63.0462C120.777 62.8827 120.676 62.6647 120.53 62.3923C120.434 62.2314 120.284 62.1106 120.079 62.0297C119.928 61.956 119.821 61.9314 119.76 61.9562C119.577 62.0097 119.421 62.0927 119.294 62.2053C119.116 62.3419 118.908 62.5587 118.67 62.8558C118.391 63.1763 118.192 63.4447 118.073 63.6611C117.953 63.8671 117.752 64.3079 117.469 64.9835C117.186 65.6487 117.013 66.119 116.95 66.3944C116.89 66.7009 116.81 67.1601 116.711 67.7718C116.621 68.3725 116.558 68.9922 116.524 69.6311C116.475 70.3648 116.446 70.805 116.437 70.9518C116.413 71.1933 116.369 71.4989 116.303 71.8684C116.247 72.2372 116.205 72.5061 116.176 72.6749C116.156 72.6762 116.136 72.6879 116.116 72.7101C116.097 72.7322 116.052 72.7611 115.982 72.7969C115.912 72.8327 115.836 72.8689 115.755 72.9054C115.685 72.9412 115.599 72.978 115.497 73.0158C115.396 73.0536 115.299 73.0807 115.206 73.0971C115.124 73.1128 115.041 73.1233 114.958 73.1286C114.874 73.134 114.795 73.1234 114.72 73.0969C114.645 73.0704 114.579 73.0276 114.522 72.9686C114.476 72.909 114.449 72.8272 114.441 72.7233C114.428 72.5572 114.416 72.4692 114.405 72.4595C114.393 72.4394 114.396 72.4079 114.414 72.365C114.431 72.3221 114.452 72.2581 114.477 72.1731C114.504 71.9834 114.519 71.7581 114.52 71.4972C114.519 71.2154 114.501 70.8408 114.465 70.3734C114.409 69.9074 114.327 69.3907 114.221 68.8235C114.093 68.2368 113.972 67.6861 113.86 67.1714C113.76 66.6872 113.635 66.1369 113.483 65.5204C113.331 64.8934 113.208 64.4473 113.114 64.1819C113.053 63.9249 112.908 63.5375 112.681 63.0198C112.503 62.6033 112.362 62.3357 112.259 62.217C112.214 62.1781 112.126 62.116 111.994 62.0305C111.865 61.9761 111.743 61.9526 111.628 61.9599C111.523 61.9458 111.359 61.9876 111.137 62.0853C110.861 62.1656 110.579 62.3141 110.293 62.5307C110.006 62.7369 109.69 63.0442 109.345 63.4524C108.95 63.8848 108.688 64.2147 108.559 64.4421C108.426 64.6176 108.234 64.9743 107.982 65.5122C107.731 66.0502 107.504 66.7014 107.301 67.4658C107.079 68.2524 106.944 68.809 106.896 69.1356C106.855 69.42 106.796 69.9457 106.719 70.7125C106.674 71.4878 106.647 72.027 106.639 72.3302C106.63 72.623 106.633 73.0038 106.648 73.4725C106.663 73.9412 106.678 74.2742 106.693 74.4716C106.696 74.5131 106.705 74.5595 106.719 74.6108C106.733 74.6621 106.757 74.7649 106.79 74.9194C106.822 75.0635 106.799 75.1745 106.721 75.2526C106.654 75.3299 106.55 75.4096 106.41 75.4916C106.27 75.5736 106.036 75.5834 105.707 75.5209C105.275 75.4651 104.995 75.3578 104.868 75.1989C104.74 75.0297 104.724 74.8794 104.818 74.7481L104.928 74.5532C104.888 74.2948 104.85 74.0729 104.815 73.8872C104.778 73.6808 104.706 73.2784 104.597 72.68C104.489 72.0816 104.396 71.6231 104.32 71.3044C104.253 70.9747 104.133 70.3666 103.961 69.48C103.789 68.5934 103.678 67.9586 103.627 67.5757C103.579 67.2135 103.531 66.8617 103.484 66.5202C103.458 66.1775 103.421 65.5536 103.372 64.6487C103.303 63.7347 103.261 63.0485 103.246 62.5902C103.243 62.2669 103.212 62.0027 103.155 61.7976L102.999 61.4006C102.918 61.1657 102.928 60.9459 103.027 60.7412Z" fill="#242424"/>
</svg>
