<svg width="217" height="147" viewBox="0 0 217 147" fill="none" xmlns="http://www.w3.org/2000/svg">
<path d="M7.79631 80.3973C26.1807 77.4109 68.1782 66.563 89.0928 47.0623C115.236 22.6864 124.592 8.17362 107.394 8.48563C90.1951 8.79763 74.5924 46.1665 75.8276 62.3066C77.2735 81.2012 89.2209 93.1804 119.063 60.1648C148.904 27.1491 125.948 39.2698 116.403 52.1763C100.898 73.142 95.6765 108.413 117.035 105.006C138.394 101.599 174.356 68.2557 168.548 50.8129C162.741 33.3702 118.438 95.706 129.084 108.973C139.73 122.241 150.888 137.047 172.539 121.005C194.19 104.964 218.364 71.5554 205.215 70.5191C192.067 69.4828 167.529 124.668 185.119 139.043" stroke="#99D7FC" stroke-width="15" stroke-linecap="round"/>
</svg>
