<svg width="226" height="199" viewBox="0 0 226 199" fill="none" xmlns="http://www.w3.org/2000/svg">
<path fill-rule="evenodd" clip-rule="evenodd" d="M16.7401 15.1195C18.34 12.6405 20.0679 10.2192 21.9294 7.86183C23.9985 5.24157 26.1812 2.74181 28.4672 0.363281L196.949 7.20598C200.066 10.5529 203.074 14.0187 205.973 17.5693C206.385 18.0739 206.796 18.5802 207.204 19.0883L139.242 32.7825L142.211 33.4338L216.889 32.0014C218.915 34.9189 220.863 37.8831 222.714 40.8913L179.94 41.7118L211.455 48.6261H217L217.097 49.864L229.25 52.5303C230.957 55.898 232.527 59.3133 233.938 62.7731L213.358 58.2576C179.078 63.6757 131.714 71.159 89.8524 77.7667L153.687 91.0664C160.688 91.4405 167.768 91.8207 174.891 92.2049L239.187 78.809C239.902 81.7259 240.491 84.669 240.941 87.6366L209.892 94.1058C220.6 94.691 231.282 95.2779 241.824 95.8598C242.011 98.8445 242.051 101.852 241.934 104.88C232.09 104.336 222.121 103.788 212.121 103.241L241.643 109.392C241.492 111.063 241.292 112.741 241.042 114.424C240.261 119.665 239.179 124.847 237.805 129.936L216.535 129.214L160.298 137.15L232.475 145.741C231.285 148.659 229.994 151.529 228.604 154.344L125.457 142.067L72.046 149.604L228.193 155.168C226.68 158.179 225.052 161.126 223.314 164L21.0936 156.794L18.1614 157.208C16.6404 154.046 15.2241 150.816 13.9071 147.532L20.6214 147.771L90.517 137.908L32.6927 131.025L9.68798 135.818C7.31406 128.449 5.37668 120.897 3.81787 113.305C3.79651 113.201 3.77522 113.097 3.75402 112.993L65.1278 115.074L140.475 99.3755C137.049 99.1937 133.648 99.0137 130.275 98.8357C93.8217 96.9123 60.7305 95.2306 36.3067 94.105C24.0925 93.5421 14.0604 93.119 6.86417 92.8742C4.49296 92.7935 2.43927 92.7325 0.722549 92.6923C0.415562 89.3939 0.202508 86.0935 0.0908203 82.7998C3.67304 82.239 8.62403 81.4613 14.677 80.509C21.7198 79.401 30.253 78.0568 39.8549 76.5431L0.282001 68.2982C0.471029 65.2746 0.756984 62.2678 1.14583 59.2849L64.9688 72.5822L73.4108 71.2502C100.538 66.9694 131.196 62.1278 159.692 57.6261H15.4998L14.6109 48.7147L35.6281 44.4798L3.84932 45.0893C4.62865 42.0294 5.53423 39.0086 6.57314 36.0354L85.0014 34.5311L95.5384 32.4079L16.7401 15.1195ZM192.094 198.392L31.6373 179.438C29.2336 176.281 26.9886 172.988 24.8936 169.578L201.747 190.469C198.684 193.28 195.464 195.927 192.094 198.392ZM179.438 15.5022L117.43 27.9968L33.4583 9.57341L179.438 15.5022ZM167.021 103.038L235.911 117.391L216.055 120.193L103.075 116.361L167.021 103.038ZM65.9042 124.106L164.605 127.453L125.358 132.992L60.378 125.257L65.9042 124.106ZM64.745 81.7289L94.7011 87.9702C74.8985 86.9537 56.8952 86.0587 41.7847 85.35C48.9149 84.226 56.6252 83.0099 64.745 81.7289ZM141.32 42.4525L169.458 48.6261H60.6139L85.9845 43.5139L141.32 42.4525Z" fill="#7594E6"/>
</svg>
